<svg xmlns="http://www.w3.org/2000/svg" width="297mm" height="210mm" viewBox="0 0 297 210"><g id="_tag_49_"><polygon id="center_00" cx="182.369" cy="119.234" fill="none" stroke="#000" stroke-width=".1" points="209.191 119.234 209.044 122.038 208.605 124.811 207.878 127.523 206.872 130.144 205.598 132.645 204.069 135 202.302 137.182 200.317 139.167 198.135 140.934 195.78 142.463 193.279 143.737 190.658 144.743 187.946 145.47 185.173 145.909 182.369 146.056 179.565 145.909 176.792 145.47 174.08 144.743 171.459 143.737 168.958 142.463 166.603 140.934 164.421 139.167 162.436 137.182 160.669 135 159.14 132.645 157.866 130.144 156.86 127.523 156.133 124.811 155.694 122.038 155.547 119.234 155.694 116.43 156.133 113.657 156.86 110.945 157.866 108.324 159.14 105.823 160.669 103.468 162.436 101.286 164.421 99.301 166.603 97.534 168.958 96.005 171.459 94.731 174.08 93.725 176.792 92.998 179.565 92.559 182.369 92.412 185.173 92.559 187.946 92.998 190.658 93.725 193.279 94.731 195.78 96.005 198.135 97.534 200.317 99.301 202.302 101.286 204.069 103.468 205.598 105.823 206.872 108.324 207.878 110.945 208.605 113.657 209.044 116.43"/><polygon id="_new_38" fill="none" stroke="#000" stroke-width=".1" points="197.288 116.871 197.454 118.443 197.454 120.025 197.288 121.597 196.96 123.144 196.471 124.647 195.828 126.092 195.037 127.461 194.108 128.74 193.05 129.915 191.875 130.973 190.596 131.902 189.227 132.693 187.782 133.336 186.279 133.825 184.732 134.153 183.16 134.319 181.578 134.319 180.006 134.153 178.459 133.825 176.956 133.336 175.511 132.693 174.142 131.902 172.863 130.973 171.688 129.915 170.63 128.74 169.701 127.461 168.91 126.092 168.267 124.647 167.778 123.144 167.45 121.597 167.284 120.025 167.284 118.443 167.45 116.871 167.778 115.324 168.267 113.821 168.91 112.376 169.701 111.007 170.63 109.728 171.688 108.553 172.863 107.495 174.142 106.566 175.511 105.775 176.956 105.132 178.459 104.643 180.006 104.315 181.578 104.149 183.16 104.149 184.732 104.315 186.279 104.643 187.782 105.132 189.227 105.775 190.596 106.566 191.875 107.495 193.05 108.553 194.108 109.728 195.037 111.007 195.828 112.376 196.471 113.821 196.96 115.324"/><polygon id="_new_39_1" fill="none" stroke="#000" stroke-width=".1" points="180.12 104.744 181.386 104.603 182.639 104.57 183.873 104.643 185.083 104.818 186.265 105.091 187.412 105.458 188.521 105.915 189.585 106.459 233.084 127.313 236.586 129.096 239.986 131.037 243.277 133.131 246.454 135.374 249.511 137.76 252.441 140.285 255.238 142.944 257.898 145.732 257.898 145.732 258.373 146.262 258.851 146.805 259.331 147.362 259.813 147.933 260.296 148.517 260.782 149.115 261.269 149.727 261.758 150.352 261.758 150.352 264.501 154.12 267.012 158.051 269.279 162.137 271.292 166.369 273.04 170.74 274.514 175.24 275.703 179.861 276.597 184.596 276.654 184.587 276.654 184.588 277.452 192.309 277.461 199.926 276.715 207.396 275.245 214.675 273.083 221.719 270.262 228.483 266.814 234.923 262.771 240.996 262.771 240.996 261.912 242.14 261.035 243.265 260.139 244.37 259.225 245.456 258.293 246.523 257.344 247.569 256.377 248.594 255.393 249.599 255.393 249.599 251.699 253.061 247.767 256.276 243.61 259.231 239.238 261.911 234.661 264.301 229.89 266.387 224.937 268.153 219.811 269.585 213.511 270.838 213.519 270.891 213.519 270.891 213.511 270.838 213.335 270.862 136.602 283.132 136.146 283.16 135.798 283.09 135.542 282.942 135.361 282.737 135.241 282.492 135.164 282.228 135.115 281.965 135.078 281.721 130.995 256.052 130.944 255.675 130.925 255.338 130.951 255.042 131.037 254.786 131.195 254.569 131.439 254.391 131.783 254.251 132.239 254.15 202.919 242.847 209.021 241.872 212.736 241.141 216.323 240.126 219.774 238.843 223.077 237.303 226.222 235.522 229.201 233.512 232.002 231.287 234.616 228.861 234.616 228.861 235.234 228.231 235.836 227.593 236.425 226.947 236.998 226.294 237.557 225.633 238.1 224.965 238.628 224.29 239.141 223.608 239.141 223.608 241.604 219.906 243.704 215.975 245.421 211.842 246.736 207.535 247.629 203.079 248.08 198.503 248.07 193.833 247.579 189.096 247.578 189.095 247.635 189.086 247.096 186.235 246.376 183.449 245.481 180.731 244.419 178.088 243.194 175.524 241.815 173.045 240.286 170.656 238.614 168.362 238.614 168.362 238.35 168.026 238.075 167.683 237.788 167.334 237.49 166.979 237.181 166.617 236.862 166.25 236.531 165.876 236.189 165.496 236.189 165.496 234.502 163.729 232.728 162.043 230.87 160.442 228.93 158.928 226.914 157.505 224.826 156.176 222.668 154.944 220.444 153.812 176.897 132.936 175.205 132.126 173.633 131.112 172.201 129.908 170.93 128.528 169.838 126.986 168.945 125.297 168.271 123.476 167.836 121.535 167.836 121.535 167.677 118.56 168.102 115.7 169.059 113.023 170.501 110.596 172.377 108.487 174.639 106.764 177.236 105.494 180.12 104.744" class="fil1"/><g id="_tag_50_"><g id="_tag_51_"><polyline id="_132696920_1" fill="none" stroke="#000" stroke-width=".1" points="235.517 28.206 229.771 24.829 224.099 22.42 218.498 20.958 212.969 20.421 207.508 20.789 202.114 22.04 196.786 24.152 191.522 27.104 191.522 27.104 191.439 27.158 191.356 27.211 191.273 27.265 191.19 27.319 191.107 27.374 191.024 27.428 190.941 27.483 190.858 27.538" class="fil2 str1"/><g id="_132696624_1"><polyline id="_132696624___0" fill="none" stroke="#000" stroke-width=".1" points="148.528 75.193 149.432 73.52 151.779 69.272 154.139 65.17 156.511 61.218 158.897 57.417 161.297 53.77 163.71 50.279 166.137 46.946 168.579 43.774 168.579 43.774 171.051 40.743 173.537 37.881 176.038 35.19 178.553 32.671 181.082 30.327 183.626 28.16 186.184 26.173 188.758 24.368 188.758 24.368 194.61 20.97 200.531 18.518 206.524 17.037 212.591 16.552 218.733 17.085 224.953 18.664 231.251 21.31 237.63 25.05 237.63 25.05 239.905 26.64 242.19 28.373 244.486 30.25 246.791 32.272 249.107 34.441 251.434 36.758 253.77 39.223 256.118 41.838" class="fil2 str1"/><polyline id="_132696624___1" fill="none" stroke="#000" stroke-width=".1" points="290.167 94.891 291.025 96.585 287.637 98.3 286.779 96.606 282.767 88.927 278.789 81.684 274.846 74.872 270.937 68.486 267.061 62.522 263.219 56.974 259.41 51.837 255.633 47.107 255.633 47.107 255.371 46.793 255.11 46.482 254.849 46.172 254.589 45.864 254.328 45.558 254.067 45.254 253.807 44.952 253.547 44.652" class="fil2 str1"/></g><polyline id="_132696328_1" fill="none" stroke="#000" stroke-width=".1" points="159.22 55.181 160.285 53.608 163.856 48.686 167.605 44.204 171.519 40.161 175.584 36.554 179.786 33.381 184.111 30.64 188.546 28.33 193.076 26.447 193.076 26.447 196.379 25.358 199.717 24.488 203.085 23.836 206.479 23.403 209.892 23.186 213.321 23.185 216.759 23.4 220.202 23.829 220.202 23.829 223.631 24.469 227.054 25.319 230.466 26.38 233.86 27.65 237.234 29.129 240.58 30.815 243.894 32.708 247.172 34.806 247.172 34.806 253.543 39.576 259.713 45.149 265.641 51.52 271.288 58.681 276.612 66.626 281.575 75.349 286.136 84.844 290.255 95.102 290.902 96.885 287.336 98.178 286.689 96.395 282.69 86.429 278.27 77.211 273.465 68.747 268.316 61.043 262.861 54.105 257.138 47.94 251.185 42.553 245.042 37.95 245.042 37.95 241.942 35.965 238.812 34.175 235.654 32.581 232.474 31.184 229.276 29.985 226.066 28.984 222.847 28.182 219.626 27.581 219.626 27.581 216.418 27.181 213.215 26.981 210.022 26.981 206.843 27.182 203.684 27.585 200.548 28.191 197.442 29 194.369 30.013" class="fil2 str1"/></g><polygon id="_132697896" fill="none" stroke="#000" stroke-width=".1" points="285.904 97.161 291.183 94.257 294.236 99.807 288.957 102.711"/><polygon id="_132697600_1" fill="none" stroke="#000" stroke-width=".1" points="284.261 134.532 307.485 117.688 328.455 151.762 332.756 159.268 336.187 166.334 338.84 173.021 340.809 179.389 342.184 185.499 343.06 191.411 343.528 197.186 343.68 202.885 343.68 202.885 343.653 206.082 343.58 209.127 343.515 212.095 343.514 215.056 343.633 218.084 343.926 221.25 344.45 224.628 345.259 228.289 345.259 228.289 345.777 230.007 346.413 231.568 347.168 233.019 348.042 234.406 349.037 235.776 350.154 237.176 351.393 238.652 352.756 240.252 352.756 240.252 353.054 240.765 353.227 241.428 353.277 242.21 353.208 243.078 353.022 244 352.724 244.943 352.315 245.877 351.8 246.767 351.8 246.767 351.413 246.928 350.796 246.711 350.015 246.2 349.136 245.48 348.223 244.638 347.342 243.759 346.559 242.928 345.939 242.231 345.939 242.231 343.76 239.465 341.905 236.644 340.358 233.786 339.105 230.906 338.128 228.021 337.412 225.148 336.942 222.303 336.702 219.502 336.702 219.502 336.533 214.33 336.457 209.35 336.365 204.476 336.147 199.621 335.696 194.7 334.903 189.625 333.658 184.31 331.854 178.669 331.854 178.669 331.656 178.232 331.397 177.809 331.095 177.393 330.769 176.98 330.437 176.566 330.117 176.145 329.827 175.712 329.585 175.263 329.585 175.263 326.667 169.257 323.599 164 320.158 159.655 316.125 156.385 311.277 154.354 305.396 153.725 298.258 154.662 289.644 157.327 284.261 134.532" class="fil3 str2"/><polygon id="_132695336_1" fill="none" stroke="#000" stroke-width=".1" points="246.91 137.622 246.838 137.156 246.866 136.75 246.989 136.402 247.205 136.109 247.507 135.869 247.894 135.679 248.36 135.538 248.901 135.441 248.901 135.441 249.618 135.417 250.352 135.502 251.096 135.659 251.843 135.852 252.587 136.043 253.321 136.194 254.039 136.269 254.734 136.23 254.734 136.23 261.729 134.847 268.115 132.933 273.733 130.39 278.427 127.119 282.039 123.022 284.412 118.002 285.388 111.959 284.81 104.795 284.81 104.795 284.729 104.255 284.676 103.637 284.67 102.976 284.728 102.304 284.868 101.654 285.109 101.059 285.47 100.552 285.967 100.166 285.967 100.166 286.758 99.785 287.497 99.411 288.205 99.05 288.902 98.706 289.609 98.385 290.345 98.094 291.132 97.836 291.99 97.618 291.99 97.618 292.523 97.507 293.119 97.415 293.765 97.377 294.45 97.427 295.159 97.599 295.881 97.929 296.604 98.45 297.314 99.197 297.314 99.197 298.705 100.857 299.81 102.392 300.738 103.847 301.596 105.262 302.495 106.682 303.542 108.149 304.846 109.705 306.515 111.392 306.515 111.392 306.841 111.754 307.157 112.229 307.437 112.801 307.652 113.456 307.777 114.177 307.783 114.95 307.644 115.759 307.331 116.589 307.331 116.589 306.269 118.942 305.382 121.266 304.639 123.578 304.011 125.9 303.467 128.249 302.977 130.645 302.511 133.107 302.039 135.654 302.039 135.654 301.809 137.375 301.67 139.147 301.603 140.918 301.589 142.64 301.61 144.263 301.648 145.737 301.682 147.012 301.695 148.038 301.695 148.038 301.677 148.782 301.636 149.277 301.579 149.576 301.515 149.73 301.451 149.791 301.396 149.809 301.356 149.838 301.34 149.929 301.34 149.929 301.113 151.53 300.886 153.036 300.621 154.459 300.277 155.814 299.814 157.114 299.192 158.373 298.37 159.603 297.309 160.82 297.309 160.82 296.468 161.594 295.472 162.393 294.356 163.217 293.161 164.065 291.923 164.94 290.681 165.84 289.473 166.766 288.337 167.718 288.337 167.718 287.005 168.967 285.744 170.278 284.542 171.649 283.389 173.073 282.275 174.549 281.19 176.071 280.123 177.636 279.064 179.241 279.064 179.241 278.83 179.627 278.618 180.007 278.416 180.382 278.218 180.751 278.013 181.116 277.792 181.476 277.546 181.832 277.266 182.184 277.266 182.184 277.169 182.279 277.029 182.395 276.858 182.521 276.671 182.649 276.478 182.77 276.294 182.874 276.132 182.953 276.004 182.997 276.004 182.997 275.858 183.016 275.698 183.015 275.532 182.994 275.367 182.954 275.207 182.897 275.062 182.823 274.936 182.735 274.837 182.634 274.837 182.634 269.711 176.724 265.057 171.013 260.871 165.443 257.153 159.954 253.899 154.487 251.109 148.982 248.78 143.38 246.91 137.622" class="fil4 str2"/><polygon id="_132695120" fill="none" stroke="#000" stroke-width=".1" points="314.208 136.761 314.265 137.306 314.264 137.854 314.207 138.399 314.092 138.934 313.923 139.455 313.699 139.956 313.425 140.43 313.103 140.873 312.736 141.28 312.328 141.646 311.885 141.968 311.41 142.242 310.909 142.464 310.388 142.633 309.852 142.747 309.307 142.804 308.759 142.803 308.214 142.746 307.679 142.631 307.158 142.462 306.657 142.238 306.183 141.964 305.74 141.642 305.333 141.275 304.967 140.867 304.645 140.424 304.371 139.949 304.149 139.448 303.98 138.927 303.866 138.391 303.809 137.846 303.81 137.298 303.867 136.753 303.982 136.218 304.151 135.697 304.375 135.196 304.649 134.722 304.971 134.279 305.338 133.872 305.746 133.506 306.189 133.184 306.664 132.91 307.165 132.688 307.686 132.519 308.222 132.405 308.767 132.348 309.315 132.349 309.86 132.406 310.395 132.521 310.916 132.69 311.417 132.914 311.891 133.188 312.334 133.51 312.741 133.877 313.107 134.285 313.429 134.728 313.703 135.203 313.925 135.704 314.094 136.225"/></g></g></svg>