<svg xmlns="http://www.w3.org/2000/svg" width="210mm" height="297mm" viewBox="0 0 210 297" xml:space="preserve" style="shape-rendering:geometricPrecision;text-rendering:geometricPrecision;image-rendering:optimizeQuality;fill-rule:evenodd;clip-rule:evenodd"><defs><style type="text/css">.str0{stroke:#1f1a17;stroke-width:.0762}.str1{stroke:#da2725;stroke-width:.3528}.fil0{fill:none}</style></defs><g id="Ebene_x0020_1"><metadata id="CorelCorpID_0Corel-Layer"/><circle id="_130029648" cx="-15.096" cy="132.084" r="15.894" class="fil0 str0"/><polygon id="_129596160" points="-15.096 117.427 33.981 117.521 51.262 119.312 99 178.951 97.994 195.009 91.259 217.603 82.54 231.706 76.341 242.954 69.654 256.622 54.455 275.616 38.423 290.073 21.727 299.217 -38.782 316.273 -45.891 288.511 12.983 271.601 29.036 261.71 40.276 250.968 48.475 236.611 56.48 219.983 68.165 204.36 69.131 192.372 70.237 181.665 65.841 173.825 46.234 148.123 40.2 146.853 -15.096 146.853 -19.238 146.18 -24.492 143.373 -27.397 140.112 -28.93 137.031 -29.768 132.778 -29.147 127.795 -26.566 122.909 -21.35 118.791" class="fil0 str0"/><polygon id="_129663600" points="140.311 121.77 137.771 97.72 153.448 90.386 155.99 99.928 157.072 107.842 157.288 116.852 156.994 125.948 156.846 133.788 156.842 141.007 158.417 148.268 160.168 154.201 161.101 160.507 160.923 169.902 159.668 179.691 156.995 188.777 155.398 195.562 154.363 202.341 154.543 207.618 155.714 216.231 157.754 223.036 160.52 228.523 163.453 234.679 165.939 238.298 169.196 242.461 170.373 244.378 170.439 246.359 169.417 248.16 167.055 249.056 165.738 248.994 164.642 247.746 160.647 241.827 158.319 238.263 154.152 231.698 148.931 219.914 147.571 212.959 147.055 202.277 147.047 193.596 147.842 187.685 148.387 184.117 149.52 175.304 150.31 164.77 149.974 157.641 147.879 151.801 145.176 145.105 143.816 142.536" class="fil0 str1"/><polygon id="_128977416" points="131.488 147.523 123.189 146.204 133.823 138.707 134.417 141.946 141.223 143.309 143.321 145.981 145.577 150.682 147.555 157.893 147.982 166.137 146.744 175.239 145.066 184.146 143.171 191.875 142.704 199.94 142.581 206.545 143.494 211.324 143.914 215.845 143.299 219.979 140.611 221.111 137.786 220.628 134.189 216.563 131.207 212.801 128.197 204.933 128.054 197.987 129.954 191.388 135.073 186.911 138.457 182.82 140.207 178.751 141.221 172.351 142.055 164.108 141.768 156.232 138.418 151.284 135.849 149.206" class="fil0 str1"/><polygon id="_129564320" points="119.086 150.912 120.625 141.61 150.456 83.246 151.056 84.263 153.769 91.59 151.068 96.028 152.948 101.479 153.372 105.967 152.045 106.029 146.478 106.397 145.274 107.022 144.325 107.741 143.056 109.506 142.836 112.144 143.177 114.831 145.22 117.085 152.337 120.991 154.069 122.419 154.938 125.028 154.93 128.128 153.458 130.955 150.537 132.734 147.518 135.163 133.839 144.04 128.954 147.059 127.357 148.002 126.324 149.166 125.04 151.42 121.202 153.435" class="fil0 str1"/><polygon id="_129030864" points="49.482 117.17 58.627 116.734 68.815 116.724 79.189 118.112 91.153 118.828 101.1 118.091 109.742 116.17 116.151 110.917 120.541 104.096 126.642 87.778 128.367 80.989 132.309 77.858 138.411 77 145.64 77 149.3 80.128 151.056 84.263 122.071 142.185 120.678 147.905 121.202 153.434 112 159.351 101.324 166.47 99 170.168 99.616 177.081 99 178.951 94.111 177.582 89.794 173.204 82.5 160.739 70.213 143.393 59.604 130.555 49.338 123.641 47.186 119.359" class="fil0 str1"/><circle id="_129302720" cx="148.669" cy="112.143" r="2.984" class="fil0 str1"/><circle id="_129028408" cx="149.852" cy="126.941" r="3.228" class="fil0 str1"/></g><circle id="center_00" cx="-15.096" cy="132.084" r="14.688" class="fil0 str0"/></svg>