<svg xmlns="http://www.w3.org/2000/svg" xmlns:svg="http://www.w3.org/2000/svg" style="shape-rendering:geometricPrecision;text-rendering:geometricPrecision;image-rendering:optimizeQuality;fill-rule:evenodd;clip-rule:evenodd" id="svg2" width="210mm" height="297mm" viewBox="0 0 210 297" xml:space="preserve"><metadata id="metadata34"/><defs id="defs4"><style id="style6" type="text/css">.str0{stroke:#1f1a17;stroke-width:.0762}.str1{stroke:#000;stroke-width:.3528}.fil1{fill:none}.fil0{fill:#ef9ba0}</style><metadata id="CorelCorpID_0Corel-Layer"/></defs><circle style="fill:#ef9ba0;stroke:#1f1a17;stroke-width:.0762" id="circle10" cx="56.5" cy="153.5" r="14.3" class="fil0 str0"/><circle style="fill:#ef9ba0;stroke:#000;stroke-width:.35280001" id="center_00" cx="56.5" cy="153.5" r="4.5" class="fil0 str1"/><polygon style="fill:#ef9ba0;stroke:#000;stroke-width:.35280001" id="polygon13" points="12.983 178.589 9.983 188.589 13.983 197.589 18.983 204.589 31.983 210.589 37.983 210.589 44.983 209.589 49.983 210.589 61.983 219.589 66.983 213.589 51.983 201.589 42.983 197.589 35.983 186.589 26.983 177.589 17.983 176.589 12.983 178.589" class="fil0 str1" transform="matrix(0.8,0,0,0.8,11.419273,30.754844)"/><polygon style="fill:#ef9ba0;stroke:#000;stroke-width:.35280001" id="polygon15" points="89.983 211.589 86.983 202.589 76.983 195.589 71.983 186.589 45.983 166.589 36.983 170.589 48.983 181.589 41.983 192.589 81.405 223.141 89.983 211.589" class="fil0 str1" transform="matrix(0.8,0,0,0.8,11.419273,30.754844)"/><polygon style="fill:#ef9ba0;stroke:#000;stroke-width:.35280001" id="polygon17" points="68.983 180.589 75.983 188.589 97.983 204.589 100.983 204.589 111.983 189.589 110.983 186.589 87.983 169.589 79.983 164.589 66.983 154.589 60.983 146.589 55.983 142.589 47.983 138.589 38.983 139.589 41.983 150.589 39.983 162.589 33.983 169.589 43.983 170.589 54.983 170.589 68.983 180.589" class="fil0 str1" transform="matrix(0.8,0,0,0.8,11.419273,30.754844)"/><polygon style="fill:#ef9ba0;stroke:#000;stroke-width:.35280001" id="polygon19" points="59.983 168.589 65.983 160.589 79.983 169.589 87.983 173.589 108.983 191.589 113.983 195.589 123.983 203.589 133.983 208.589 133.983 215.589 128.983 222.589 122.983 222.589 116.983 213.589 106.983 204.589 101.983 200.589 78.983 185.589 73.983 180.589 59.983 168.589" class="fil0 str1" transform="matrix(0.8,0,0,0.8,11.419273,30.754844)"/><polygon style="fill:#ef9ba0;stroke:#000;stroke-width:.35280001" id="polygon21" points="53.983 161.589 55.983 156.589 55.983 149.589 53.983 143.589 50.983 139.589 45.983 136.589 36.983 134.589 30.983 134.589 25.983 136.589 20.983 140.589 17.983 145.589 16.983 150.589 16.983 155.589 17.983 160.589 20.983 165.589 25.983 169.589 31.983 171.589 36.983 171.589 45.983 169.589 50.983 166.589 53.983 161.589" class="fil0 str1" transform="matrix(0.8,0,0,0.8,11.419273,30.754844)"/><line style="fill:none;stroke:#1f1a17;stroke-width:.06096" id="line23" x1="29.006" x2="50.606" y1="179.226" y2="198.426" class="fil1 str0"/><polyline style="fill:#ef9ba0;stroke:#000;stroke-width:.35280001" id="polyline25" points="33.983 134.589 39.983 135.589 45.983 138.589 50.983 145.589 51.983 150.589 51.983 155.589 50.983 160.589 45.983 167.589 40.686 170.26 33.983 171.589" class="fil0 str1" transform="matrix(0.8,0,0,0.8,11.419273,30.754844)"/><polyline style="fill:#ef9ba0;stroke:#000;stroke-width:.35280001" id="polyline27" points="43.983 170.589 67.881 190.099 72.481 205.488 86.69 216.024" class="fil0 str1" transform="matrix(0.8,0,0,0.8,11.419273,30.754844)"/><polygon style="fill:#ef9ba0;stroke:#000;stroke-width:.35280001" id="polygon29" points="67.983 175.589 60.983 179.589 53.983 181.589 50.983 182.589 45.983 193.589 49.983 196.589 52.983 195.589 57.983 196.589 64.983 196.589 69.983 191.589 73.983 187.589 74.983 182.589 72.983 176.589 67.983 175.589" class="fil0 str1" transform="matrix(0.8,0,0,0.8,11.419273,30.754844)"/><polyline style="fill:none;stroke:#1f1a17;stroke-width:.0762" id="polyline31" points="48.983 193.589 52.983 190.589 60.983 191.589 65.983 185.589 69.983 178.589" class="fil1 str0" transform="matrix(0.8,0,0,0.8,11.419273,30.754844)"/></svg>