<svg xmlns="http://www.w3.org/2000/svg" width="297mm" height="210mm" viewBox="0 0 297 210"><g id="Ebene_x0020_1"><circle id="center_00" cx="106.792" cy="102.917" r="14.322" fill="none" stroke="#000" stroke-width=".1"/><g id="_284269560"><g id="_tag_344_"><polygon id="_284322704" fill="none" stroke="#000" stroke-width=".1" points="105.14 89.112 106.345 89.02 107.533 89.031 108.7 89.141 109.841 89.347 110.951 89.644 112.026 90.03 113.061 90.5 114.052 91.05 154.58 112.25 157.84 114.055 160.997 116.007 164.046 118.101 166.982 120.331 169.8 122.693 172.492 125.183 175.055 127.795 177.483 130.524 177.916 131.042 178.351 131.573 178.787 132.117 179.225 132.674 179.664 133.243 180.104 133.826 180.545 134.422 180.988 135.03 183.463 138.691 185.712 142.499 187.724 146.446 189.492 150.523 191.004 154.722 192.252 159.035 193.226 163.453 193.916 167.969 194.471 175.306 194.228 182.524 193.273 189.578 191.639 196.427 189.358 203.029 186.461 209.345 182.981 215.334 178.949 220.955 178.097 222.01 177.228 223.047 176.343 224.065 175.441 225.064 174.522 226.043 173.588 227.003 172.638 227.943 171.673 228.862 168.058 232.02 164.226 234.937 160.189 237.6 155.957 239.994 151.541 242.107 146.952 243.926 142.2 245.435 137.295 246.623 131.285 247.602 58.001 256.707 57.568 256.717 57.003 256.491 56.732 256.055 56.631 255.551 53.585 230.86 53.541 230.182 53.666 229.662 54.06 229.301 54.826 229.099 122.174 220.728 127.981 219.952 131.532 219.436 134.965 218.594 138.277 217.491 141.458 216.142 144.498 214.558 147.386 212.752 150.114 210.736 152.672 208.524 153.278 207.948 153.87 207.363 154.449 206.771 155.014 206.171 155.565 205.563 156.102 204.948 156.624 204.326 157.133 203.697 159.589 200.27 161.709 196.614 163.473 192.755 164.862 188.717 165.855 184.525 166.434 180.204 166.579 175.778 166.27 171.273 165.907 168.546 165.317 165.882 164.56 163.278 163.64 160.738 162.565 158.268 161.339 155.874 159.97 153.559 158.462 151.33 158.223 151.002 157.973 150.669 157.713 150.328 157.443 149.982 157.162 149.629 156.871 149.27 156.57 148.905 156.258 148.534 154.719 146.804 153.094 145.147 151.385 143.569 149.598 142.07 147.735 140.655 145.799 139.327 143.795 138.088 141.726 136.942 101.153 115.719 99.576 114.896 98.121 113.883 96.804 112.695 95.645 111.345 94.661 109.848 93.871 108.218 93.293 106.47 92.945 104.617 92.893 101.792 93.389 99.096 94.385 96.591 95.832 94.339 97.68 92.403 99.88 90.845 102.383 89.727 105.14 89.112"/></g></g></g></svg>