<svg xmlns="http://www.w3.org/2000/svg" width="297mm" height="210mm" viewBox="0 0 297 210"><g id="Ebene_x0020_1"><circle id="_130029648" cx="23.953" cy="79.106" r="15.894" fill="none" stroke="#000" stroke-width=".1"/><polygon id="_129596160" fill="none" stroke="#000" stroke-width=".1" points="23.953 64.45 73.03 64.543 90.311 66.335 102.958 70.41 136.715 113.433 138.049 125.974 137.043 142.031 130.307 164.625 121.589 178.728 115.39 189.976 108.703 203.644 93.504 222.638 77.472 237.095 60.776 246.239 .267 263.295 -6.842 235.533 52.032 218.623 68.085 208.732 79.325 197.99 87.524 183.633 95.529 167.005 107.214 151.382 108.18 139.394 109.286 128.688 104.89 120.848 85.282 95.145 79.249 93.876 23.953 93.876 19.811 93.203 14.557 90.395 11.652 87.135 10.119 84.053 9.281 79.8 9.902 74.817 12.483 69.931 17.699 65.814"/><circle id="center_00" cx="23.953" cy="79.106" r="14.688" fill="none" stroke="#000" stroke-width=".1"/><g id="_274339552"><g id="_tag_27_"><polygon id="_188203936" fill="none" stroke="#000" stroke-width=".1" points="193.408 153.382 193.585 153.033 193.924 152.324 194.366 151.367 194.855 150.269 195.331 149.14 195.737 148.09 196.014 147.228 196.105 146.663 196.105 146.663 196.078 145.234 196.129 143.601 196.235 141.864 196.374 140.123 196.521 138.477 196.655 137.027 196.752 135.871 196.789 135.11 196.789 135.11 196.754 131.803 196.657 128.499 196.496 125.201 196.272 121.91 195.981 118.63 195.625 115.362 195.202 112.108 194.71 108.871 194.71 108.871 194.101 107.033 193.347 105.274 192.473 103.577 191.508 101.926 190.476 100.305 189.404 98.698 188.32 97.09 187.249 95.464 187.249 95.464 187.23 95.458 187.211 95.453 187.192 95.447 187.173 95.442 187.155 95.437 187.137 95.432 187.119 95.427 187.103 95.422 187.103 95.422 186.782 95.002 186.459 94.584 186.133 94.17 185.803 93.759 185.469 93.352 185.131 92.947 184.789 92.547 184.441 92.15 184.441 92.15 184.686 92.606 184.932 93.064 185.177 93.522 185.421 93.982 185.663 94.442 185.902 94.904 186.139 95.366 186.372 95.83 186.372 95.83 186.367 95.84 186.361 95.85 186.357 95.86 186.352 95.87 186.348 95.88 186.344 95.89 186.341 95.9 186.337 95.911 186.337 95.911 186.714 96.771 187.084 97.634 187.447 98.499 187.806 99.366 188.159 100.236 188.508 101.108 188.854 101.981 189.196 102.856 189.196 102.856 189.98 105.127 190.737 107.526 191.361 110 191.747 112.493 191.789 114.95 191.381 117.316 190.417 119.538 188.794 121.559 188.794 121.559 187.527 122.651 186.245 123.725 184.953 124.786 183.653 125.839 182.349 126.887 181.046 127.936 179.747 128.989 178.456 130.052 178.456 130.052 177.75 130.876 177.157 131.743 176.67 132.65 176.283 133.594 175.989 134.573 175.782 135.583 175.655 136.623 175.601 137.69 175.601 137.69 175.649 137.927 175.72 138.248 175.846 138.795 176.064 139.712 176.407 141.143 176.909 143.233 177.605 146.124 178.529 149.96 178.529 149.96 178.497 150.226 178.528 150.534 178.607 150.869 178.721 151.217 178.856 151.564 178.999 151.893 179.134 152.192 179.249 152.445 179.249 152.445 180.074 153.421 180.906 154.427 181.757 155.437 182.636 156.427 183.554 157.371 184.522 158.246 185.55 159.025 186.648 159.685 186.648 159.685 187.444 159.642 188.352 159.228 189.315 158.535 190.278 157.654 191.184 156.676 191.978 155.694 192.604 154.799 193.006 154.082 193.408 153.382"/><polyline id="_184097064" fill="none" stroke="#000" stroke-width=".1" points="192.645 119.946 192.636 119.935 192.629 119.924 192.621 119.913 192.615 119.902 192.608 119.891 192.602 119.881 192.596 119.87 192.59 119.859"/><polyline id="_188206040" fill="none" stroke="#000" stroke-width=".1" points="189.814 124.129 189.821 124.153 189.827 124.177 189.834 124.202 189.841 124.226 189.848 124.25 189.856 124.275 189.865 124.3 189.874 124.324 189.874 124.324 190.169 127.471 190.412 130.62 190.606 133.772 190.755 136.926 190.865 140.082 190.94 143.24 190.985 146.398 191.004 149.557 191.004 149.557 190.893 150.526 190.703 151.62 190.417 152.77 190.018 153.906 189.488 154.958 188.812 155.857 187.971 156.532 186.948 156.915 186.948 156.915 186.331 156.741 185.642 156.336 184.914 155.765 184.182 155.093 183.48 154.385 182.842 153.706 182.301 153.122 181.893 152.698 181.893 152.698 181.487 152.274 181.174 151.815 180.934 151.326 180.748 150.814 180.595 150.286 180.456 149.749 180.31 149.209 180.139 148.672 180.139 148.672 179.761 147.294 179.402 145.902 179.067 144.499 178.764 143.086 178.497 141.667 178.274 140.244 178.1 138.818 177.981 137.393 177.981 137.393 178.063 136.618 178.213 135.875 178.429 135.159 178.708 134.471 179.045 133.807 179.438 133.166 179.884 132.546 180.378 131.945 180.378 131.945 180.74 131.6 181.016 131.337 181.236 131.129 181.43 130.951 181.628 130.778 181.861 130.584 182.158 130.343 182.55 130.029 186.04 152.202"/><polyline id="_188207024" fill="none" stroke="#000" stroke-width=".1" points="189.814 124.129 190.109 123.579 190.423 123.034 190.754 122.493 191.095 121.956 191.442 121.423 191.79 120.893 192.135 120.368 192.471 119.846 192.471 119.846 192.476 119.845 192.481 119.845 192.487 119.844 192.492 119.843 192.498 119.842 192.504 119.841 192.511 119.84 192.517 119.839"/><polyline id="_188207472" fill="none" stroke="#000" stroke-width=".1" points="192.59 119.859 192.579 119.856 192.569 119.853 192.56 119.85 192.551 119.848 192.542 119.845 192.533 119.843 192.525 119.841 192.517 119.838"/><polyline id="_188209648" fill="none" stroke="#000" stroke-width=".1" points="192.59 119.859 192.586 119.852 192.583 119.846 192.579 119.84 192.576 119.834 192.573 119.828 192.57 119.823 192.567 119.817 192.564 119.812"/><polyline id="_188210096" fill="none" stroke="#000" stroke-width=".1" points="192.517 119.838 192.522 119.835 192.528 119.832 192.533 119.829 192.539 119.826 192.545 119.823 192.551 119.819 192.557 119.816 192.564 119.812"/><polyline id="_188210320" fill="none" stroke="#000" stroke-width=".1" points="192.564 119.812 192.566 119.79 192.569 119.769 192.572 119.747 192.575 119.726 192.579 119.705 192.584 119.684 192.588 119.663 192.592 119.642"/></g><polyline id="_188211352" fill="none" stroke="#000" stroke-width=".1" points="187.102 95.422 187.01 95.473 186.918 95.524 186.827 95.576 186.735 95.627 186.644 95.678 186.553 95.729 186.462 95.779 186.372 95.83"/><polygon id="_188215720" fill="none" stroke="#000" stroke-width=".1" points="195.882 40.111 201.727 55.983 201.73 56.021 201.731 56.05 201.731 56.075 201.729 56.098 201.726 56.121 201.72 56.147 201.711 56.18 201.699 56.221 201.699 56.221 199.887 58.964 198.457 61.898 197.4 64.981 196.708 68.17 196.374 71.423 196.388 74.697 196.743 77.949 197.431 81.138 197.431 81.138 198.574 84.931 199.585 88.718 200.47 92.51 201.236 96.315 201.887 100.144 202.431 104.006 202.873 107.91 203.218 111.866 203.218 111.866 203.383 115.598 203.49 119.314 203.542 123.021 203.543 126.723 203.498 130.426 203.409 134.135 203.28 137.853 203.116 141.588 203.116 141.588 203.258 145.583 203.649 149.596 204.307 153.589 205.252 157.524 206.502 161.362 208.077 165.066 209.996 168.597 212.277 171.916 212.277 171.916 213.624 173.304 215.076 174.665 216.545 176.038 217.943 177.463 219.182 178.98 220.174 180.626 220.831 182.442 221.066 184.468 221.066 184.468 220.33 185.934 218.83 186.42 216.802 186.146 214.481 185.335 212.103 184.207 209.904 182.985 208.12 181.89 206.986 181.144 206.986 181.144 205.054 179.6 203.164 178.02 201.314 176.403 199.502 174.749 197.724 173.056 195.979 171.325 194.266 169.554 192.58 167.743 192.58 167.743 192.183 167.21 191.818 166.656 191.504 166.082 191.261 165.491 191.108 164.885 191.064 164.265 191.148 163.633 191.38 162.993 191.38 162.993 191.777 161.935 192.148 160.871 192.495 159.801 192.823 158.725 193.132 157.643 193.425 156.556 193.705 155.465 193.975 154.369 194.603 150.45 194.784 149.324 194.92 148.188 195.021 147.046 195.099 145.899 195.164 144.751 195.229 143.603 195.303 142.461 195.399 141.324 195.399 141.324 195.439 137.358 195.426 133.36 195.35 129.345 195.198 125.322 194.958 121.306 194.62 117.309 194.172 113.342 193.601 109.419 193.601 109.419 193.034 107.556 192.388 105.73 191.669 103.938 190.879 102.179 190.024 100.45 189.107 98.749 188.131 97.073 187.102 95.422 187.102 95.422 186.781 95.001 186.458 94.584 186.132 94.17 185.802 93.759 185.468 93.351 185.13 92.947 184.788 92.547 184.44 92.15 184.44 92.15 184.319 91.941 184.199 91.734 184.078 91.526 183.958 91.319 183.839 91.112 183.72 90.905 183.601 90.698 183.482 90.49 183.482 90.49 183.344 90.25 183.205 90.01 183.067 89.77 182.929 89.53 182.791 89.29 182.653 89.051 182.517 88.811 182.38 88.572 182.38 88.572 182.054 88.077 181.723 87.609 181.386 87.16 181.044 86.725 180.696 86.297 180.34 85.869 179.978 85.436 179.608 84.99 171.83 81.973 167.524 52.507 195.882 40.111"/><polygon id="_188216632" fill="none" stroke="#000" stroke-width=".1" points="199.819 46.339 186.298 27.023 186.225 26.951 186.153 26.878 186.081 26.806 186.01 26.734 185.939 26.662 185.869 26.59 185.798 26.518 185.728 26.446 185.728 26.446 185.491 26.35 185.178 26.216 184.814 26.059 184.426 25.897 184.039 25.746 183.68 25.625 183.375 25.549 183.15 25.537 171.309 29.777 165.197 56.184 193.497 42.368 199.819 46.339"/><g id="_tag_28_"><polyline id="_188217640" fill="none" stroke="#000" stroke-width=".1" points="184.44 92.15 184.319 91.941 184.199 91.734 184.078 91.526 183.959 91.319 183.839 91.112 183.72 90.905 183.601 90.698 183.483 90.49"/><polyline id="_188218888" fill="none" stroke="#000" stroke-width=".1" points="183.483 90.49 183.344 90.25 183.206 90.01 183.067 89.77 182.929 89.53 182.791 89.29 182.654 89.051 182.517 88.811 182.381 88.572"/><polyline id="_188219112" fill="none" stroke="#000" stroke-width=".1" points="186.324 87.111 186.415 87.278 186.506 87.446 186.597 87.613 186.688 87.78 186.779 87.947 186.87 88.114 186.961 88.281 187.052 88.448 187.052 88.448 187.026 88.473 186.964 88.515 186.823 88.6 186.562 88.75 186.14 88.991 185.514 89.345 184.642 89.837 183.483 90.49"/><polyline id="_188220024" fill="none" stroke="#000" stroke-width=".1" points="186.324 87.111 186.035 87.264 185.745 87.411 185.455 87.554 185.163 87.693 184.869 87.828 184.573 87.959 184.274 88.086 183.971 88.209"/><polyline id="_188222368" fill="none" stroke="#000" stroke-width=".1" points="186.324 87.111 185.947 86.437 185.57 85.762 185.194 85.087 184.817 84.413 184.44 83.738 184.064 83.064 183.688 82.39 183.312 81.717"/><polyline id="_188298104" fill="none" stroke="#000" stroke-width=".1" points="184.05 88.351 184.04 88.333 184.03 88.315 184.02 88.298 184.011 88.28 184.001 88.262 183.991 88.245 183.981 88.227 183.971 88.209"/><polyline id="_213864432" fill="none" stroke="#000" stroke-width=".1" points="183.971 88.209 183.967 88.202 183.964 88.196 183.96 88.19 183.957 88.184 183.954 88.178 183.951 88.173 183.948 88.167 183.945 88.162"/><polyline id="_278675440" fill="none" stroke="#000" stroke-width=".1" points="184.545 89.891 184.426 89.688 184.329 89.496 184.251 89.309 184.189 89.121 184.139 88.93 184.096 88.728 184.059 88.513 184.022 88.277 184.022 88.277 183.672 87.527 183.284 86.784 182.861 86.068 182.403 85.398 181.914 84.795 181.393 84.276 180.844 83.862 180.268 83.571"/><polyline id="_187076360" fill="none" stroke="#000" stroke-width=".1" points="183.312 81.717 183.185 81.473 183.064 81.221 182.942 80.97 182.81 80.729 182.662 80.507 182.489 80.313 182.284 80.157 182.04 80.048"/><polyline id="_188300392" fill="none" stroke="#000" stroke-width=".1" points="177.122 67.313 177.194 67.333 177.266 67.354 177.339 67.374 177.413 67.395 177.487 67.416 177.561 67.437 177.635 67.458 177.709 67.479 177.709 67.479 178.55 68.989 179.391 70.499 180.232 72.008 181.072 73.518 181.913 75.028 182.754 76.538 183.595 78.047 184.435 79.557 184.435 79.557 184.544 79.942 184.564 80.281 184.505 80.579 184.374 80.844 184.181 81.084 183.933 81.304 183.641 81.513 183.312 81.717"/><polyline id="_188260672" fill="none" stroke="#000" stroke-width=".1" points="184.44 92.15 184.319 91.941 184.199 91.734 184.078 91.526 183.959 91.319 183.839 91.112 183.72 90.905 183.601 90.698 183.483 90.49"/></g><polygon id="_216499072" fill="none" stroke="#000" stroke-width=".1" points="186.298 27.023 186.166 27.104 185.964 27.228 185.701 27.39 185.386 27.584 185.029 27.805 184.639 28.046 184.225 28.302 183.797 28.567 183.797 28.567 183.306 28.87 182.823 29.169 182.361 29.455 181.933 29.72 181.553 29.954 181.235 30.151 180.992 30.3 180.838 30.394 180.838 30.394 180.628 30.674 180.512 30.904 180.479 31.097 180.518 31.264 180.616 31.415 180.761 31.562 180.942 31.717 181.148 31.889 181.148 31.889 182.445 33.006 183.753 34.111 185.069 35.209 186.389 36.303 187.709 37.396 189.026 38.493 190.336 39.597 191.636 40.711 191.636 40.711 191.836 40.898 192.106 41.14 192.42 41.416 192.757 41.711 193.091 42.005 193.401 42.281 193.662 42.521 193.85 42.706 193.85 42.706 194.015 42.882 194.177 43.057 194.334 43.234 194.485 43.412 194.631 43.594 194.768 43.779 194.898 43.97 195.019 44.168 195.019 44.168 195.856 45.633 196.687 47.102 197.513 48.574 198.334 50.048 199.154 51.524 199.973 53.001 200.794 54.477 201.617 55.952 201.617 55.952 201.631 55.956 201.645 55.96 201.659 55.964 201.673 55.967 201.686 55.971 201.7 55.975 201.714 55.979 201.728 55.983 201.728 55.983 201.802 55.925 201.861 55.878 201.912 55.837 201.958 55.796 202.007 55.75 202.065 55.694 202.137 55.622 202.229 55.53 202.229 55.53 203.448 54.042 204.671 52.555 205.894 51.068 207.114 49.578 208.33 48.084 209.539 46.585 210.738 45.079 211.925 43.565 211.925 43.565 211.927 43.447 211.894 43.309 211.833 43.158 211.752 43.003 211.658 42.852 211.56 42.712 211.464 42.591 211.378 42.498 211.378 42.498 211.144 42.154 210.821 41.718 210.436 41.224 210.014 40.705 209.583 40.196 209.17 39.731 208.8 39.344 208.501 39.069 208.501 39.069 207.855 38.444 207.157 37.84 206.424 37.256 205.67 36.696 204.912 36.16 204.165 35.649 203.445 35.166 202.766 34.712 202.766 34.712 200.864 33.589 198.931 32.507 196.97 31.469 194.984 30.473 192.978 29.52 190.953 28.611 188.913 27.746 186.861 26.925 186.861 26.925 186.789 26.938 186.718 26.95 186.647 26.962 186.577 26.974 186.507 26.986 186.437 26.998 186.367 27.011 186.298 27.023"/><polyline id="_180889152" fill="none" stroke="#000" stroke-width=".1" points="182.422 29.435 182.47 29.514 182.508 29.574 182.536 29.619 182.559 29.653 182.578 29.678 182.597 29.698 182.617 29.717 182.641 29.739 182.641 29.739 186.06 30.85 189.449 32.036 192.808 33.298 196.138 34.635 199.437 36.045 202.705 37.529 205.941 39.086 209.147 40.716 209.479 40.592 209.557 40.166"/><polyline id="_188281488" fill="none" stroke="#000" stroke-width=".1" points="209.558 40.166 209.417 40 209.275 39.843 209.133 39.692 208.987 39.544 208.838 39.396 208.684 39.245 208.524 39.088 208.356 38.922"/><polyline id="_198687072" fill="none" stroke="#000" stroke-width=".1" points="211.685 43.247 211.651 43.236 211.571 43.202 211.461 43.152 211.335 43.094 211.21 43.037 211.1 42.988 211.022 42.954 210.991 42.943 210.991 42.943 208.919 42.343 206.812 41.866 204.681 41.524 202.535 41.329 200.384 41.292 198.238 41.426 196.106 41.742 193.999 42.253 193.498 42.368"/><g id="_tag_29_"><polygon id="_188280688" fill="none" stroke="#000" stroke-width=".1" points="168.122 89.965 169.598 89.529 171.035 89.041 172.441 88.502 173.82 87.918 175.181 87.292 176.531 86.629 177.875 85.931 179.221 85.204 179.221 85.204 179.27 85.177 179.318 85.15 179.366 85.124 179.415 85.097 179.463 85.071 179.512 85.044 179.56 85.017 179.608 84.99 179.608 84.99 179.628 84.961 179.647 84.933 179.667 84.904 179.686 84.875 179.705 84.846 179.724 84.817 179.743 84.788 179.763 84.759 179.763 84.759 180.139 84.171 180.491 83.583 180.818 82.994 181.12 82.406 181.394 81.817 181.639 81.227 181.855 80.638 182.04 80.048 182.082 79.017 181.772 77.451 181.23 75.974 180.526 74.558 179.731 73.175 178.916 71.797 178.153 70.394 177.512 68.941 177.064 67.407 177.064 67.407 177.071 67.394 177.078 67.382 177.085 67.37 177.092 67.358 177.1 67.347 177.107 67.335 177.115 67.324 177.122 67.313 177.122 67.313 176.764 65.874 176.706 64.332 176.903 62.734 177.311 61.124 177.886 59.548 178.585 58.053 179.361 56.684 180.172 55.487 180.172 55.487 181.516 53.97 182.913 52.501 184.354 51.072 185.83 49.678 187.333 48.31 188.852 46.962 190.381 45.627 191.908 44.298 191.908 44.298 192.175 44.061 192.418 43.834 192.639 43.611 192.84 43.387 193.024 43.156 193.194 42.913 193.351 42.652 193.497 42.368 193.497 42.368 192.638 42.74 190.351 43.743 187.042 45.204 183.121 46.947 178.997 48.798 175.078 50.582 171.771 52.125 169.487 53.252 169.487 53.252 169.099 53.353 168.536 53.621 167.856 54.01 167.115 54.469 166.373 54.95 165.686 55.405 165.111 55.785 164.707 56.041 163.211 87.932 163.803 88.186 164.409 88.458 165.026 88.739 165.649 89.02 166.274 89.292 166.898 89.546 167.515 89.773 168.122 89.965"/><polyline id="_188278200" fill="none" stroke="#000" stroke-width=".1" points="166.773 66.819 167.747 66.131 168.686 65.404 169.592 64.641 170.468 63.844 171.316 63.016 172.138 62.161 172.937 61.281 173.714 60.378 173.714 60.378 173.767 60.252 173.841 60.136 173.924 60.028 174.002 59.926 174.061 59.829 174.087 59.734 174.068 59.64 173.99 59.544 173.99 59.544 173.857 59.474 173.709 59.465 173.549 59.503 173.382 59.575 173.212 59.667 173.043 59.764 172.881 59.853 172.729 59.921 172.729 59.921 172.071 60.154 171.412 60.382 170.752 60.607 170.091 60.829 169.429 61.05 168.768 61.27 168.106 61.492 167.446 61.715"/><circle id="_174042872" cx="175.66" cy="78.061" r="2.805" fill="none" stroke="#000" stroke-width=".1"/><circle id="_188268160" cx="175.639" cy="78.1" r="1.658" fill="none" stroke="#000" stroke-width=".1"/></g><polygon id="_269514624" fill="none" stroke="#000" stroke-width=".1" points="168.034 89.939 167.886 89.995 167.683 90.065 167.429 90.148 167.131 90.246 166.791 90.357 166.415 90.482 166.008 90.619 165.574 90.769 165.574 90.769 164.078 91.442 162.613 92.178 161.18 92.975 159.783 93.833 158.424 94.751 157.106 95.727 155.832 96.762 154.604 97.853 154.604 97.853 152.847 99.68 151.095 101.514 149.346 103.352 147.601 105.194 145.859 107.038 144.118 108.884 142.378 110.729 140.638 112.574 140.638 112.574 139.842 113.39 139.111 114.134 138.403 114.784 137.674 115.32 136.884 115.72 135.99 115.964 134.949 116.031 133.719 115.899 133.719 115.899 132.544 115.571 131.444 115.197 130.414 114.762 129.449 114.252 128.544 113.654 127.694 112.952 126.894 112.133 126.141 111.182 126.141 111.182 125.726 110.511 125.315 109.842 124.904 109.177 124.489 108.515 124.069 107.858 123.638 107.205 123.195 106.557 122.736 105.915 122.736 105.915 120.678 103.315 118.547 100.745 116.334 98.228 114.031 95.79 111.632 93.454 109.127 91.244 106.509 89.186 103.771 87.303 103.771 87.303 102.683 86.366 101.721 85.284 100.869 84.085 100.114 82.8 99.44 81.46 98.834 80.094 98.278 78.731 97.761 77.403 97.761 77.403 97.362 76.318 96.934 75.155 96.56 73.958 96.324 72.774 96.311 71.648 96.606 70.626 97.292 69.752 98.455 69.074 98.455 69.074 98.64 69.038 98.827 69.006 99.016 68.978 99.207 68.955 99.397 68.939 99.588 68.929 99.778 68.928 99.966 68.934 99.966 68.934 105.894 67.963 111.782 66.744 117.615 65.271 123.376 63.543 129.05 61.554 134.623 59.3 140.079 56.777 145.403 53.982 145.403 53.982 147.917 52.267 150.079 50.355 151.901 48.25 153.393 45.955 154.568 43.474 155.436 40.81 156.01 37.968 156.3 34.949 156.3 34.949 156.301 32.726 156.334 30.453 156.503 28.222 156.909 26.124 157.655 24.249 158.843 22.69 160.574 21.538 162.951 20.884 162.951 20.884 165.513 20.95 168.077 21.222 170.636 21.668 173.179 22.258 175.7 22.961 178.19 23.746 180.639 24.582 183.039 25.438 183.039 25.438 183.053 25.449 183.066 25.461 183.08 25.473 183.094 25.485 183.108 25.498 183.122 25.511 183.136 25.524 183.15 25.537 183.15 25.537 183.136 25.582 183.122 25.627 183.109 25.673 183.096 25.719 183.083 25.766 183.07 25.812 183.058 25.858 183.046 25.904 183.046 25.904 181.869 26.605 180.721 27.324 179.615 28.081 178.565 28.891 177.585 29.774 176.689 30.747 175.891 31.827 175.204 33.033 175.204 33.033 174.328 35.494 173.49 37.966 172.691 40.447 171.929 42.939 171.204 45.442 170.514 47.957 169.858 50.483 169.235 53.022 169.235 53.022 169.151 53.402 168.941 54.394 168.648 55.793 168.314 57.397 167.98 59 167.688 60.4 167.48 61.392 167.398 61.773 167.398 61.773 167.102 63.332 166.827 64.895 166.571 66.462 166.332 68.032 166.109 69.604 165.901 71.177 165.708 72.751 165.526 74.326 165.526 74.326 165.375 76.511 165.317 78.511 165.375 80.377 165.571 82.16 165.926 83.909 166.463 85.675 167.203 87.51 168.169 89.462 168.169 89.462 168.151 89.521 168.133 89.581 168.116 89.64 168.099 89.7 168.082 89.76 168.066 89.82 168.05 89.88 168.034 89.939"/></g></g></svg>
