<svg xmlns="http://www.w3.org/2000/svg" width="297mm" height="210mm" viewBox="0 0 297 210"><g id="_tag_23_"><polygon id="_130029648" cx="85.453" cy="122.607" fill="none" stroke="#000" stroke-width=".1" points="101.347 122.607 101.26 124.268 101 125.912 100.569 127.519 99.973 129.072 99.218 130.554 98.312 131.949 97.265 133.242 96.088 134.419 94.795 135.466 93.4 136.372 91.918 137.127 90.365 137.723 88.758 138.154 87.114 138.414 85.453 138.501 83.792 138.414 82.148 138.154 80.541 137.723 78.988 137.127 77.506 136.372 76.111 135.466 74.818 134.419 73.641 133.242 72.594 131.949 71.688 130.554 70.933 129.072 70.337 127.519 69.906 125.912 69.646 124.268 69.559 122.607 69.646 120.946 69.906 119.302 70.337 117.695 70.933 116.142 71.688 114.66 72.594 113.265 73.641 111.972 74.818 110.795 76.111 109.748 77.506 108.842 78.988 108.087 80.541 107.491 82.148 107.06 83.792 106.8 85.453 106.713 87.114 106.8 88.758 107.06 90.365 107.491 91.918 108.087 93.4 108.842 94.795 109.748 96.088 110.795 97.265 111.972 98.312 113.265 99.218 114.66 99.973 116.142 100.569 117.695 101 119.302 101.26 120.946"/><polygon id="_129596160" fill="none" stroke="#000" stroke-width=".1" points="85.453 107.95 134.53 108.043 151.81 109.834 164.458 113.91 192.875 142.651 198.215 156.933 199.549 169.474 198.543 185.531 191.807 208.125 183.089 222.228 176.89 233.476 170.203 247.144 155.004 266.138 138.972 280.595 122.276 289.739 61.767 306.795 54.658 279.033 113.532 262.123 129.585 252.232 140.825 241.49 149.024 227.133 157.029 210.505 165.786 197.012 169.68 182.894 170.786 172.188 167.812 160.668 164.26 154.499 146.783 138.646 140.749 137.375 85.453 137.375 81.311 136.702 76.057 133.896 73.151 130.635 71.619 127.554 70.781 123.301 71.401 118.318 73.983 113.432 79.199 109.314"/><polygon id="center_00" cx="85.453" cy="122.607" fill="none" stroke="#000" stroke-width=".1" points="100.141 122.607 100.061 124.142 99.82 125.661 99.422 127.146 98.871 128.581 98.173 129.951 97.336 131.24 96.368 132.435 95.281 133.522 94.086 134.49 92.797 135.327 91.427 136.025 89.992 136.576 88.507 136.974 86.988 137.215 85.453 137.295 83.918 137.215 82.399 136.974 80.914 136.576 79.479 136.025 78.109 135.327 76.82 134.49 75.625 133.522 74.538 132.435 73.57 131.24 72.733 129.951 72.035 128.581 71.484 127.146 71.086 125.661 70.845 124.142 70.765 122.607 70.845 121.072 71.086 119.553 71.484 118.068 72.035 116.633 72.733 115.263 73.57 113.974 74.538 112.779 75.625 111.692 76.82 110.724 78.109 109.887 79.479 109.189 80.914 108.638 82.399 108.24 83.918 107.999 85.453 107.919 86.988 107.999 88.507 108.24 89.992 108.638 91.427 109.189 92.797 109.887 94.086 110.724 95.281 111.692 96.368 112.779 97.336 113.974 98.173 115.263 98.871 116.633 99.422 118.068 99.82 119.553 100.061 121.072"/><polygon id="simplify_10" fill="none" stroke="#000" stroke-width=".1" points="241.39 170.566 243.885 166.462 246.403 163.867 249.711 161.569 250.511 160.406 253.257 158.917 255.582 156.988 257.397 154.932 258.216 151.878 258.52 148.536 258.411 144.608 257.86 140.242 256.82 135.356 255.802 132.642 254.431 129.704 253.305 128.357 251.651 126.79 250.149 125.368 248.721 123.91 231.685 116.223 246.666 113.847 255.94 120.623 265.899 136.105 268.176 152.529 264.188 163.305 264.119 172.905 263.958 182.397 263.918 188.823 263.325 191.163 261.608 193.162 260.024 194.522 256.185 196.344 253.941 197.271 250.875 198.507 248.615 199.301 246.451 199.372 245.036 199.15 243.695 198.62 242.695 197.864 241.444 195.953 240.354 191.717 240.046 187.913 239.911 183.368 240.182 178.208 240.817 173.433"/><polygon id="simplify_11" fill="none" stroke="#000" stroke-width=".1" points="253.049 71.37 242.161 116.222 250.159 117.951 252.906 119.707 256.783 123.452 258.652 126.375 260.293 130.244 261.286 132.525 262.389 136.482 263.496 141.171 264.375 145.611 265.251 152.508 265.713 159.184 266.515 163.693 266.354 168.695 266.322 174.118 266.693 179.731 266.931 185.204 267.443 190.727 267.952 195.961 268.626 201.582 269.077 205.164 269.8 208.366 270.475 211.343 271.648 214.81 273.402 218.367 275.861 221.638 278.216 224.03 280.871 226.309 283.533 228.325 286.17 229.987 288.871 231.106 290.138 231.137 291.151 230.703 291.912 230.011 292.742 228.237 292.443 226.65 290.744 224.488 288.431 222.286 285.401 219.122 283.126 216.446 281.493 213.418 279.856 209.367 279.074 206.287 277.922 201.468 277.453 194.057 276.627 185.013 276.155 174.154 275.223 164.809 274.48 155.891 273.58 148.245 272.462 140.723 270.812 134.463 269.12 127.339 268.028 123.141 266.546 119.186 264.376 115.388 263.284 113.075 262.018 110.749 261.287 107.729 260.885 103.86 260.636 97.496 260.138 87.627 259.861 78.917 259.51 77.182 258.665 75.734 257.303 74.859"/><polygon id="simplify_12" fill="none" stroke="#000" stroke-width=".1" points="140.435 105.79 139.544 107.87 141.929 115.837 148.57 123.846 159.094 132.825 172.169 142.665 186.163 150.887 191.851 153.454 198.381 156.29 200.159 153.98 201.127 151.07 203.799 151.206 206.89 149.593 216.462 142.246 224.774 136.622 229.27 134.078 231.848 132.803 232.385 130.444 230.578 127.549 229.731 124.59 230.314 122.661 239.187 104.396 249.455 71.08 249.468 61.497 245.006 57.448 242.113 56.352 239.348 55.689 236.344 55.834 233.907 56.489 231.073 57.436 228.024 59.485 225.268 62.165 223.068 65.617 220.265 73.701 216.18 84.332 213.806 88.861 210.592 91.792 207.443 94.734 200.895 97.95 186.706 100.212 170.697 101.934 149.642 103.844 143.642 104.327"/><polygon id="simplify_13" fill="none" stroke="#000" stroke-width=".1" points="252.914 105.35 252.488 109.444 252.127 110.801 251.214 112.74 249.981 114.617 248.121 116.109 245.479 117.622 230.314 122.661 249.437 61.59 254.51 70.605"/><polygon id="simplify_14" fill="none" stroke="#000" stroke-width=".1" points="247.283 107.56 247.327 107.953 247.33 108.348 247.291 108.742 247.211 109.129 247.091 109.506 246.932 109.868 246.737 110.211 246.506 110.533 246.244 110.828 245.952 111.094 245.633 111.329 245.292 111.528 244.932 111.691 244.557 111.816 244.171 111.9 243.778 111.944 243.383 111.947 242.989 111.908 242.602 111.828 242.225 111.708 241.863 111.549 241.52 111.354 241.198 111.123 240.903 110.861 240.637 110.569 240.402 110.25 240.203 109.909 240.04 109.549 239.915 109.174 239.831 108.788 239.787 108.395 239.784 108 239.823 107.606 239.903 107.219 240.023 106.842 240.182 106.48 240.377 106.137 240.608 105.815 240.87 105.52 241.162 105.254 241.481 105.019 241.822 104.82 242.182 104.657 242.557 104.532 242.943 104.448 243.336 104.404 243.731 104.401 244.125 104.44 244.512 104.52 244.889 104.64 245.251 104.799 245.594 104.994 245.916 105.225 246.211 105.487 246.477 105.779 246.712 106.098 246.911 106.439 247.074 106.799 247.199 107.174"/><polyline id="simplify_SVG__000021" fill="none" stroke="#000" stroke-width=".1" points="147.82 103.991 148.736 106.165 152.323 110.116 161.244 118.163 170.688 124.977 175.411 126.82 178.656 126.257 214.443 106.87 215.833 104.944 216.205 102.618 216.271 95.52 215.467 91.758 214.41 87.709"/><polyline id="simplify_SVG__000022" fill="none" stroke="#000" stroke-width=".1" points="206.89 149.593 202.863 146.69 227.974 129.848 229.27 134.078"/><polygon id="simplify_17" fill="none" stroke="#000" stroke-width=".1" points="245.876 107.792 245.903 108.037 245.905 108.283 245.88 108.527 245.831 108.768 245.756 109.003 245.658 109.228 245.536 109.442 245.392 109.642 245.229 109.826 245.047 109.991 244.849 110.137 244.637 110.261 244.413 110.363 244.179 110.44 243.939 110.493 243.694 110.52 243.448 110.522 243.204 110.497 242.963 110.448 242.728 110.373 242.503 110.275 242.289 110.153 242.089 110.009 241.905 109.846 241.74 109.664 241.594 109.466 241.47 109.254 241.368 109.03 241.291 108.796 241.238 108.556 241.211 108.311 241.209 108.065 241.234 107.821 241.283 107.58 241.358 107.345 241.456 107.12 241.578 106.906 241.722 106.706 241.885 106.522 242.067 106.357 242.265 106.211 242.477 106.087 242.701 105.985 242.935 105.908 243.175 105.855 243.42 105.828 243.666 105.826 243.91 105.851 244.151 105.9 244.386 105.975 244.611 106.073 244.825 106.195 245.025 106.339 245.209 106.502 245.374 106.684 245.52 106.882 245.644 107.094 245.746 107.318 245.823 107.552"/><g id="simplify_19_1"><polygon id="simplify_19___0" fill="none" stroke="#000" stroke-width=".1" points="184.027 122.952 184.024 122.951 184.021 122.95 184.019 122.949 184.016 122.948 184.013 122.946 184.01 122.945 184.008 122.944 184.006 122.942 184.006 122.942 183.407 123.263 182.809 123.583 182.21 123.904 181.611 124.225 181.012 124.546 180.413 124.867 179.814 125.188 179.215 125.509 179.215 125.509 179.213 125.503 179.211 125.498 179.208 125.493 179.205 125.489 179.203 125.484 179.2 125.479 179.198 125.475 179.195 125.47 179.195 125.47 179.189 125.43 179.168 125.33 179.138 125.189 179.101 125.026 179.063 124.859 179.029 124.706 179.003 124.587 178.99 124.519 178.99 124.519 179.462 124.265 179.934 124.011 180.406 123.757 180.877 123.503 181.349 123.25 181.821 122.996 182.292 122.743 182.763 122.489 182.763 122.489 182.689 122.174 182.634 121.936 182.593 121.766 182.566 121.65 182.547 121.577 182.536 121.536 182.529 121.516 182.522 121.504 182.522 121.504 182.05 121.755 181.579 122.005 181.107 122.255 180.635 122.506 180.164 122.756 179.692 123.006 179.221 123.257 178.749 123.507 178.749 123.507 178.685 123.244 178.617 122.98 178.55 122.715 178.489 122.45 178.437 122.183 178.398 121.915 178.378 121.645 178.38 121.375 178.38 121.375 178.392 121.346 178.4 121.315 178.404 121.284 178.408 121.253 178.413 121.222 178.42 121.192 178.431 121.165 178.449 121.14 178.449 121.14 178.457 121.116 178.462 121.097 178.466 121.084 178.469 121.073 178.47 121.065 178.471 121.058 178.47 121.051 178.469 121.043 178.469 121.043 178.481 121.028 178.496 121.003 178.515 120.97 178.534 120.934 178.553 120.899 178.569 120.866 178.58 120.841 178.584 120.826 178.584 120.826 178.586 120.826 178.588 120.826 178.59 120.825 178.592 120.825 178.594 120.824 178.596 120.824 178.598 120.824 178.6 120.824 178.6 120.824 178.668 120.731 178.739 120.646 178.812 120.568 178.889 120.493 178.97 120.423 179.055 120.355 179.143 120.288 179.237 120.222 179.237 120.222 179.238 120.223 179.238 120.224 179.239 120.226 179.24 120.227 179.241 120.228 179.241 120.23 179.242 120.231 179.243 120.233 179.243 120.233 179.57 120.058 179.897 119.883 180.224 119.708 180.551 119.533 180.879 119.358 181.206 119.183 181.533 119.008 181.861 118.834 181.861 118.834 181.86 118.832 181.86 118.831 181.859 118.83 181.858 118.828 181.857 118.827 181.856 118.825 181.855 118.823 181.854 118.822 181.854 118.822 182.142 118.668 182.429 118.515 182.717 118.362 183.004 118.208 183.291 118.055 183.579 117.901 183.866 117.748 184.153 117.595 184.153 117.595 184.156 117.602 184.16 117.61 184.163 117.618 184.166 117.625 184.17 117.633 184.173 117.64 184.176 117.648 184.179 117.656 184.179 117.656 184.205 117.773 184.231 117.89 184.257 118.007 184.283 118.124 184.309 118.24 184.335 118.357 184.361 118.474 184.387 118.592 184.387 118.592 183.928 118.838 183.469 119.085 183.009 119.332 182.55 119.58 182.091 119.827 181.632 120.074 181.173 120.321 180.714 120.568 180.714 120.568 180.739 120.674 180.764 120.78 180.789 120.886 180.813 120.992 180.838 121.097 180.863 121.203 180.887 121.309 180.912 121.415 180.912 121.415 181.371 121.171 181.829 120.928 182.288 120.684 182.748 120.44 183.207 120.197 183.666 119.953 184.125 119.71 184.585 119.466 184.585 119.466 184.587 119.47 184.59 119.473 184.593 119.477 184.596 119.481 184.598 119.485 184.601 119.488 184.604 119.492 184.607 119.496 184.607 119.496 184.62 119.564 184.634 119.63 184.652 119.712 184.678 119.828 184.717 119.996 184.771 120.231 184.846 120.552 184.945 120.977 184.945 120.977 184.952 121.035 184.958 121.094 184.965 121.153 184.972 121.211 184.979 121.27 184.986 121.328 184.993 121.387 185 121.446 185 121.446 184.994 121.467 184.988 121.515 184.981 121.581 184.973 121.656 184.967 121.731 184.961 121.797 184.958 121.845 184.957 121.866 184.957 121.866 184.947 121.878 184.938 121.895 184.929 121.916 184.922 121.938 184.916 121.96 184.911 121.982 184.909 122.002 184.908 122.019 184.908 122.019 184.906 122.019 184.903 122.019 184.901 122.019 184.899 122.02 184.897 122.02 184.896 122.02 184.894 122.02 184.892 122.021 184.892 122.021 184.889 122.037 184.887 122.052 184.884 122.065 184.88 122.077 184.876 122.088 184.87 122.1 184.861 122.111 184.851 122.124 184.851 122.124 184.85 122.145 184.844 122.164 184.834 122.181 184.821 122.198 184.809 122.214 184.797 122.231 184.789 122.249 184.786 122.27 184.786 122.27 184.784 122.27 184.781 122.27 184.779 122.27 184.777 122.27 184.775 122.271 184.773 122.271 184.771 122.271 184.769 122.272 184.769 122.272 184.708 122.362 184.64 122.449 184.566 122.532 184.488 122.611 184.405 122.684 184.318 122.753 184.227 122.816 184.134 122.874 184.134 122.874 184.134 122.876 184.135 122.878 184.137 122.88 184.138 122.882 184.139 122.884 184.14 122.886 184.141 122.888 184.143 122.891 184.143 122.891 184.128 122.899 184.113 122.907 184.099 122.914 184.084 122.922 184.07 122.93 184.055 122.937 184.041 122.945 184.027 122.952" class="fil1 str2"/><polygon id="simplify_19___1" fill="none" stroke="#000" stroke-width=".1" points="186.827 121.456 186.825 121.454 186.824 121.452 186.823 121.45 186.822 121.448 186.821 121.446 186.82 121.444 186.819 121.441 186.818 121.439 186.818 121.439 186.738 121.481 186.658 121.524 186.578 121.566 186.497 121.608 186.417 121.651 186.337 121.693 186.258 121.735 186.178 121.777 186.178 121.777 186.175 121.771 186.172 121.765 186.169 121.759 186.166 121.753 186.163 121.747 186.16 121.742 186.157 121.736 186.154 121.73 186.154 121.73 186.047 121.28 185.938 120.829 185.828 120.378 185.719 119.927 185.612 119.475 185.51 119.022 185.412 118.57 185.322 118.116 185.322 118.116 185.318 118.068 185.314 118.009 185.309 117.944 185.307 117.877 185.307 117.809 185.312 117.747 185.323 117.692 185.34 117.649 185.34 117.649 185.34 117.629 185.344 117.607 185.349 117.582 185.355 117.555 185.363 117.525 185.37 117.494 185.376 117.462 185.382 117.427 185.382 117.427 185.384 117.426 185.386 117.425 185.388 117.424 185.391 117.423 185.393 117.422 185.396 117.421 185.398 117.42 185.401 117.419 185.401 117.419 185.404 117.403 185.408 117.387 185.411 117.372 185.415 117.356 185.419 117.341 185.423 117.326 185.427 117.31 185.431 117.295 185.431 117.295 185.432 117.295 185.434 117.295 185.436 117.295 185.438 117.295 185.441 117.294 185.443 117.294 185.445 117.294 185.448 117.294 185.448 117.294 185.448 117.287 185.449 117.28 185.45 117.273 185.451 117.266 185.453 117.259 185.454 117.252 185.455 117.246 185.456 117.239 185.456 117.239 185.458 117.238 185.46 117.238 185.463 117.238 185.465 117.238 185.467 117.237 185.469 117.237 185.471 117.237 185.474 117.237 185.474 117.237 185.489 117.205 185.501 117.181 185.51 117.163 185.516 117.149 185.519 117.14 185.52 117.133 185.521 117.126 185.521 117.119 185.521 117.119 185.523 117.119 185.525 117.119 185.527 117.118 185.529 117.118 185.531 117.118 185.534 117.118 185.536 117.118 185.538 117.118 185.538 117.118 185.575 117.06 185.604 117.017 185.624 116.985 185.639 116.964 185.65 116.95 185.658 116.941 185.665 116.936 185.672 116.932 185.672 116.932 185.672 116.93 185.672 116.927 185.672 116.925 185.671 116.922 185.671 116.92 185.67 116.918 185.669 116.916 185.668 116.915 185.668 116.915 185.672 116.912 185.676 116.909 185.679 116.907 185.683 116.904 185.687 116.902 185.69 116.9 185.694 116.898 185.697 116.896 185.697 116.896 185.735 116.849 185.778 116.802 185.826 116.757 185.877 116.714 185.929 116.672 185.981 116.632 186.03 116.594 186.075 116.559 186.075 116.559 186.586 116.286 187.097 116.014 187.607 115.741 188.118 115.468 188.629 115.196 189.14 114.924 189.651 114.651 190.162 114.379 190.162 114.379 190.187 114.373 190.221 114.366 190.262 114.359 190.306 114.351 190.348 114.342 190.385 114.332 190.414 114.322 190.431 114.311 190.431 114.311 190.433 114.313 190.434 114.314 190.436 114.316 190.437 114.318 190.439 114.32 190.44 114.322 190.442 114.323 190.443 114.325 190.443 114.325 190.46 114.321 190.474 114.318 190.486 114.316 190.499 114.315 190.514 114.315 190.533 114.316 190.558 114.317 190.59 114.319 190.59 114.319 190.591 114.317 190.592 114.315 190.593 114.314 190.594 114.312 190.595 114.311 190.597 114.309 190.598 114.308 190.6 114.306 190.6 114.306 190.614 114.313 190.628 114.317 190.64 114.318 190.653 114.318 190.665 114.317 190.678 114.318 190.691 114.32 190.706 114.326 190.706 114.326 190.756 114.333 190.812 114.341 190.87 114.351 190.93 114.363 190.988 114.379 191.042 114.399 191.091 114.424 191.131 114.455 191.131 114.455 191.163 114.461 191.203 114.481 191.247 114.513 191.293 114.551 191.338 114.591 191.38 114.63 191.415 114.664 191.441 114.687 191.441 114.687 191.472 114.73 191.501 114.774 191.53 114.818 191.557 114.863 191.583 114.908 191.609 114.954 191.634 115 191.659 115.046 191.659 115.046 191.677 115.105 191.694 115.166 191.716 115.251 191.748 115.379 191.795 115.569 191.862 115.841 191.952 116.214 192.072 116.707 192.072 116.707 191.896 116.8 191.72 116.893 191.544 116.986 191.368 117.079 191.193 117.173 191.017 117.266 190.841 117.359 190.665 117.452 190.665 117.452 190.669 117.459 190.673 117.465 190.675 117.468 190.677 117.471 190.68 117.471 190.682 117.471 190.685 117.47 190.688 117.468 190.688 117.468 190.748 117.484 190.807 117.505 190.865 117.53 190.923 117.555 190.982 117.581 191.04 117.605 191.1 117.626 191.16 117.641 191.16 117.641 191.201 117.665 191.244 117.684 191.288 117.7 191.334 117.715 191.38 117.73 191.424 117.747 191.467 117.766 191.507 117.79 191.507 117.79 191.579 117.81 191.648 117.835 191.716 117.864 191.784 117.895 191.851 117.926 191.92 117.955 191.989 117.979 192.061 117.998 192.061 117.998 192.086 118.017 192.114 118.03 192.143 118.04 192.174 118.048 192.204 118.057 192.232 118.067 192.259 118.081 192.282 118.1 192.282 118.1 192.338 118.115 192.395 118.133 192.45 118.154 192.505 118.177 192.56 118.201 192.615 118.225 192.669 118.248 192.723 118.269 192.723 118.269 192.724 118.271 192.724 118.272 192.725 118.274 192.725 118.275 192.726 118.277 192.727 118.278 192.728 118.28 192.729 118.281 192.729 118.281 192.466 118.422 192.203 118.562 191.941 118.702 191.678 118.842 191.416 118.982 191.154 119.123 190.891 119.263 190.629 119.403 190.629 119.403 190.63 119.405 190.631 119.407 190.632 119.409 190.634 119.411 190.635 119.413 190.636 119.415 190.637 119.417 190.638 119.419 190.638 119.419 190.636 119.42 190.635 119.421 190.634 119.421 190.632 119.422 190.631 119.423 190.63 119.424 190.628 119.424 190.627 119.425 190.627 119.425 190.626 119.423 190.625 119.421 190.624 119.419 190.623 119.417 190.622 119.415 190.621 119.413 190.619 119.411 190.618 119.409 190.618 119.409 190.589 119.421 190.552 119.433 190.51 119.446 190.467 119.46 190.423 119.475 190.382 119.49 190.346 119.507 190.317 119.524 190.317 119.524 190.306 119.519 190.289 119.516 190.267 119.516 190.242 119.516 190.217 119.517 190.193 119.519 190.173 119.519 190.159 119.519 190.159 119.519 190.083 119.497 189.999 119.475 189.91 119.45 189.818 119.423 189.727 119.393 189.64 119.36 189.56 119.322 189.49 119.279 189.49 119.279 189.446 119.268 189.403 119.253 189.361 119.235 189.32 119.216 189.278 119.197 189.236 119.179 189.194 119.166 189.151 119.156 189.151 119.156 189.103 119.127 189.052 119.102 188.999 119.081 188.943 119.062 188.888 119.044 188.833 119.024 188.781 119.002 188.731 118.975 188.731 118.975 188.67 118.961 188.609 118.939 188.548 118.913 188.488 118.883 188.427 118.854 188.367 118.827 188.306 118.804 188.244 118.788 188.244 118.788 188.217 118.771 188.188 118.757 188.158 118.744 188.127 118.732 188.096 118.721 188.065 118.709 188.035 118.696 188.006 118.681 188.006 118.681 188.06 118.916 188.117 119.152 188.175 119.387 188.233 119.623 188.291 119.859 188.347 120.095 188.399 120.332 188.447 120.568 188.447 120.568 188.245 120.677 188.042 120.785 187.84 120.893 187.638 121.001 187.436 121.109 187.234 121.218 187.031 121.326 186.829 121.434 186.829 121.434 186.83 121.436 186.831 121.437 186.832 121.439 186.833 121.442 186.834 121.444 186.835 121.446 186.837 121.448 186.838 121.449 186.838 121.449 186.836 121.45 186.835 121.451 186.834 121.452 186.832 121.453 186.831 121.454 186.829 121.455 186.828 121.455 186.827 121.456" class="fil1 str2"/><polygon id="simplify_19___2" fill="none" stroke="#000" stroke-width=".1" points="197.493 115.756 197.445 115.558 197.398 115.36 197.35 115.162 197.303 114.964 197.255 114.766 197.208 114.568 197.16 114.369 197.113 114.171 197.113 114.171 196.888 114.291 196.663 114.411 196.438 114.531 196.214 114.65 195.989 114.77 195.764 114.89 195.54 115.009 195.316 115.129 195.316 115.129 195.315 115.139 195.315 115.149 195.318 115.164 195.323 115.188 195.332 115.224 195.346 115.275 195.365 115.345 195.39 115.438 195.39 115.438 195.403 115.502 195.416 115.567 195.43 115.631 195.443 115.696 195.456 115.76 195.469 115.825 195.483 115.889 195.496 115.953 195.496 115.953 195.505 116.005 195.519 116.085 195.534 116.181 195.546 116.286 195.553 116.389 195.549 116.481 195.532 116.553 195.497 116.595 195.497 116.595 195.488 116.614 195.482 116.628 195.477 116.639 195.474 116.648 195.472 116.655 195.471 116.66 195.471 116.666 195.471 116.674 195.471 116.674 195.469 116.674 195.467 116.674 195.465 116.674 195.463 116.674 195.46 116.674 195.458 116.675 195.456 116.675 195.455 116.675 195.455 116.675 195.455 116.677 195.455 116.68 195.455 116.683 195.455 116.686 195.455 116.688 195.455 116.691 195.455 116.693 195.456 116.695 195.456 116.695 195.453 116.696 195.451 116.696 195.449 116.696 195.447 116.697 195.445 116.697 195.444 116.697 195.442 116.697 195.44 116.698 195.44 116.698 195.44 116.7 195.44 116.703 195.439 116.705 195.439 116.708 195.439 116.711 195.439 116.713 195.44 116.716 195.44 116.719 195.44 116.719 195.437 116.719 195.435 116.719 195.433 116.719 195.431 116.719 195.429 116.72 195.427 116.72 195.425 116.72 195.423 116.72 195.423 116.72 195.386 116.772 195.335 116.825 195.273 116.878 195.205 116.928 195.135 116.976 195.068 117.019 195.008 117.057 194.96 117.088 194.96 117.088 194.765 117.193 194.57 117.297 194.375 117.401 194.18 117.505 193.986 117.609 193.791 117.713 193.596 117.817 193.402 117.921 193.402 117.921 193.305 117.511 193.207 117.101 193.11 116.691 193.013 116.281 192.915 115.871 192.818 115.461 192.721 115.051 192.624 114.641 192.624 114.641 192.614 114.579 192.605 114.516 192.596 114.454 192.587 114.392 192.578 114.33 192.568 114.268 192.559 114.206 192.55 114.144 192.55 114.144 192.566 114.106 192.571 114.05 192.569 113.982 192.563 113.908 192.559 113.833 192.56 113.762 192.57 113.703 192.592 113.66 192.592 113.66 192.606 113.603 192.619 113.554 192.632 113.51 192.645 113.472 192.656 113.438 192.666 113.407 192.674 113.378 192.681 113.351 192.681 113.351 192.683 113.351 192.685 113.35 192.687 113.35 192.689 113.35 192.691 113.349 192.693 113.349 192.696 113.349 192.698 113.349 192.698 113.349 192.699 113.342 192.7 113.335 192.701 113.328 192.702 113.321 192.703 113.314 192.705 113.307 192.706 113.301 192.707 113.294 192.707 113.294 192.709 113.293 192.711 113.293 192.713 113.292 192.715 113.292 192.718 113.291 192.72 113.291 192.723 113.291 192.725 113.291 192.725 113.291 192.725 113.286 192.726 113.281 192.726 113.277 192.726 113.272 192.727 113.267 192.727 113.262 192.728 113.258 192.728 113.253 192.728 113.253 192.73 113.253 192.733 113.253 192.735 113.252 192.737 113.252 192.739 113.252 192.741 113.252 192.743 113.252 192.745 113.253 192.745 113.253 192.745 113.247 192.746 113.242 192.746 113.237 192.747 113.232 192.747 113.227 192.748 113.223 192.749 113.218 192.749 113.213 192.749 113.213 192.752 113.213 192.754 113.213 192.756 113.213 192.758 113.212 192.76 113.212 192.763 113.212 192.765 113.212 192.767 113.212 192.767 113.212 192.799 113.162 192.823 113.124 192.841 113.097 192.854 113.078 192.864 113.066 192.871 113.058 192.878 113.053 192.885 113.049 192.885 113.049 192.885 113.046 192.884 113.044 192.884 113.042 192.883 113.039 192.883 113.037 192.882 113.035 192.882 113.032 192.881 113.03 192.881 113.03 192.932 112.987 192.983 112.945 193.032 112.903 193.082 112.861 193.133 112.82 193.184 112.779 193.238 112.738 193.293 112.697 193.293 112.697 193.965 112.339 194.637 111.981 195.309 111.624 195.981 111.266 196.653 110.909 197.325 110.552 197.997 110.195 198.669 109.838 198.669 109.838 198.676 109.861 198.685 109.893 198.694 109.932 198.705 109.978 198.717 110.03 198.73 110.086 198.745 110.145 198.761 110.206 198.761 110.206 198.885 110.748 199.009 111.29 199.134 111.832 199.259 112.374 199.386 112.916 199.513 113.457 199.643 113.998 199.774 114.538 199.774 114.538 199.489 114.69 199.204 114.842 198.919 114.994 198.634 115.147 198.349 115.299 198.063 115.452 197.778 115.604 197.493 115.756" class="fil1 str2"/><polygon id="simplify_19___3" fill="none" stroke="#000" stroke-width=".1" points="200.8 113.975 200.661 113.388 200.522 112.801 200.383 112.213 200.244 111.626 200.106 111.039 199.967 110.453 199.828 109.866 199.69 109.279 199.69 109.279 199.81 109.212 199.93 109.144 200.05 109.077 200.171 109.01 200.291 108.943 200.412 108.876 200.532 108.809 200.653 108.742 200.653 108.742 200.854 108.631 201.056 108.521 201.257 108.41 201.459 108.3 201.661 108.19 201.863 108.079 202.065 107.968 202.266 107.858 202.266 107.858 202.269 107.856 202.272 107.855 202.275 107.854 202.278 107.852 202.281 107.851 202.284 107.849 202.287 107.848 202.29 107.846 202.29 107.846 202.91 107.516 203.53 107.186 204.151 106.856 204.772 106.526 205.393 106.196 206.014 105.866 206.634 105.537 207.255 105.207 207.255 105.207 207.336 105.165 207.417 105.123 207.498 105.081 207.579 105.038 207.66 104.996 207.741 104.954 207.822 104.912 207.903 104.87 207.903 104.87 207.931 104.861 207.971 104.849 208.019 104.835 208.071 104.822 208.122 104.81 208.168 104.803 208.205 104.801 208.228 104.807 208.228 104.807 208.229 104.806 208.23 104.804 208.231 104.803 208.232 104.801 208.234 104.799 208.235 104.798 208.237 104.796 208.238 104.795 208.238 104.795 208.24 104.797 208.241 104.799 208.243 104.8 208.244 104.802 208.246 104.804 208.247 104.806 208.249 104.808 208.251 104.809 208.251 104.809 208.278 104.806 208.307 104.802 208.336 104.799 208.366 104.797 208.395 104.797 208.423 104.8 208.45 104.807 208.475 104.817 208.475 104.817 208.476 104.816 208.477 104.814 208.478 104.813 208.48 104.811 208.481 104.81 208.482 104.808 208.484 104.807 208.485 104.805 208.485 104.805 208.494 104.809 208.502 104.812 208.511 104.815 208.52 104.819 208.528 104.822 208.537 104.825 208.545 104.829 208.554 104.832 208.554 104.832 208.6 104.821 208.651 104.831 208.705 104.856 208.759 104.888 208.813 104.924 208.864 104.955 208.91 104.977 208.95 104.984 208.95 104.984 209.033 105.058 209.108 105.131 209.178 105.206 209.241 105.283 209.299 105.365 209.353 105.452 209.403 105.547 209.449 105.65 209.449 105.65 209.555 106.055 209.661 106.46 209.767 106.866 209.873 107.271 209.98 107.676 210.086 108.082 210.192 108.487 210.298 108.892 210.298 108.892 210.014 109.044 209.73 109.196 209.446 109.348 209.162 109.499 208.879 109.651 208.595 109.803 208.311 109.954 208.027 110.106 208.027 110.106 207.752 108.955 207.545 108.09 207.396 107.469 207.296 107.053 207.234 106.799 207.201 106.667 207.186 106.616 207.179 106.605 207.179 106.605 207.18 106.597 207.18 106.589 207.178 106.58 207.176 106.57 207.173 106.561 207.172 106.552 207.171 106.544 207.171 106.538 207.171 106.538 207.001 106.628 206.83 106.718 206.66 106.809 206.49 106.899 206.32 106.99 206.15 107.08 205.981 107.171 205.811 107.262 205.811 107.262 205.917 107.708 206.023 108.155 206.13 108.601 206.237 109.048 206.344 109.495 206.45 109.941 206.557 110.388 206.663 110.835 206.663 110.835 206.387 110.982 206.111 111.13 205.835 111.278 205.558 111.425 205.282 111.572 205.006 111.72 204.73 111.867 204.454 112.015 204.454 112.015 204.174 110.843 203.963 109.961 203.812 109.329 203.71 108.905 203.647 108.647 203.613 108.513 203.598 108.461 203.591 108.45 203.591 108.45 203.421 108.54 203.251 108.631 203.081 108.721 202.911 108.812 202.741 108.902 202.571 108.993 202.401 109.083 202.232 109.174 202.232 109.174 202.337 109.621 202.443 110.068 202.549 110.515 202.654 110.962 202.76 111.409 202.866 111.856 202.972 112.303 203.078 112.75 203.078 112.75 202.794 112.903 202.509 113.057 202.224 113.21 201.939 113.363 201.654 113.516 201.369 113.669 201.084 113.822 200.8 113.975" class="fil1 str2"/><polygon id="simplify_19___4" fill="none" stroke="#000" stroke-width=".1" points="195.098 114.131 195.065 113.994 195.032 113.857 194.999 113.72 194.966 113.583 194.934 113.446 194.901 113.309 194.868 113.172 194.836 113.035 194.836 113.035 195.051 112.919 195.266 112.803 195.481 112.687 195.697 112.571 195.912 112.455 196.127 112.339 196.343 112.224 196.558 112.108 196.558 112.108 196.558 112.116 196.558 112.124 196.56 112.133 196.562 112.142 196.565 112.151 196.567 112.16 196.567 112.168 196.567 112.175 196.567 112.175 196.571 112.181 196.578 112.199 196.59 112.241 196.61 112.318 196.641 112.443 196.686 112.629 196.749 112.889 196.832 113.234 196.832 113.234 196.617 113.349 196.402 113.464 196.186 113.579 195.971 113.694 195.755 113.809 195.54 113.924 195.325 114.039 195.109 114.154 195.109 114.154 195.107 114.151 195.106 114.148 195.105 114.146 195.103 114.143 195.102 114.14 195.101 114.137 195.1 114.134 195.098 114.131" class="fil1 str2"/><polygon id="simplify_19___5" fill="none" stroke="#000" stroke-width=".1" points="187.857 118.015 187.8 117.769 187.756 117.58 187.723 117.434 187.696 117.318 187.675 117.22 187.655 117.125 187.634 117.021 187.609 116.895 187.609 116.895 187.822 116.779 188.036 116.664 188.249 116.549 188.463 116.433 188.677 116.318 188.891 116.203 189.105 116.089 189.318 115.974 189.318 115.974 189.38 116.225 189.427 116.419 189.462 116.567 189.49 116.684 189.512 116.782 189.533 116.874 189.554 116.974 189.579 117.094 189.579 117.094 189.364 117.209 189.149 117.325 188.933 117.44 188.718 117.555 188.503 117.67 188.288 117.785 188.073 117.9 187.857 118.015" class="fil1 str2"/></g></g></svg>