<svg xmlns="http://www.w3.org/2000/svg" xmlns:svg="http://www.w3.org/2000/svg" style="shape-rendering:geometricPrecision;text-rendering:geometricPrecision;image-rendering:optimizeQuality;fill-rule:evenodd;clip-rule:evenodd" id="svg2" width="297mm" height="210mm" viewBox="0 0 297 210" xml:space="preserve"><metadata id="metadata24"/><defs id="defs4"><style id="style6" type="text/css">.str0{stroke:#da251d;stroke-width:.0762}.fil1{fill:#dededd}</style><metadata id="CorelCorpID_0Corel-Layer"/></defs><g><polygon style="fill:#dededd;stroke:#da251d;stroke-width:.0762" id="polygon12" points="106.165 154.895 106.165 156.189 107.149 156.386 107.906 156.503 108.854 156.62 109.768 156.689 110.772 156.71 111.775 156.689 112.69 156.62 113.636 156.503 114.393 156.386 115.378 156.189 115.378 154.895 106.165 154.895" class="fil1 str0"/><circle style="fill:#dededd;stroke:#da251d;stroke-width:.0762" id="center_00" cx="46.772" cy="156.189" r="2.592" class="fil1 str0"/><polygon style="fill:#dededd;stroke:#da251d;stroke-width:.0762" id="polygon15" points="42.164 154.895 42.164 156.189 43.15 156.386 43.907 156.503 44.853 156.62 45.767 156.689 46.772 156.71 47.776 156.689 48.69 156.62 49.636 156.503 50.394 156.386 51.377 156.189 51.377 154.895 42.164 154.895" class="fil1 str0"/><rect style="fill:#dededd;stroke:#da251d;stroke-width:.0762" id="rect17" width="18" height="8" x="101.772" y="146.895" class="fil1 str0"/><rect style="fill:#dededd;stroke:#da251d;stroke-width:.0762" id="rect19" width="18" height="8" x="37.772" y="146.895" class="fil1 str0"/><polygon style="fill:#dededd;stroke:#da251d;stroke-width:.0762" id="polygon21" points="109.81 65.296 112.119 89.275 112.209 90.831 112.201 91.05 112.165 91.273 112.069 91.542 111.881 91.833 111.683 92.03 111.423 92.197 111.137 92.302 110.862 92.342 109.986 92.332 24.291 84.177 23.451 84.162 22.378 84.33 21.549 84.621 21 84.907 20.398 85.332 19.823 85.893 19.579 86.199 19.288 86.685 19.274 86.684 19.235 86.77 19.195 86.838 19.2 86.851 19.009 87.277 18.832 87.948 18.771 88.653 18.771 90.857 18.771 143.895 18.823 143.895 18.805 144.35 19.02 145.091 19.338 145.65 19.971 146.295 20.529 146.626 21.366 146.868 21.771 146.895 154.155 146.895 154.809 146.868 155.342 146.808 156.013 146.63 156.548 146.378 167.34 141.582 167.933 141.233 168.485 140.69 168.914 139.943 169.123 138.84 169.025 138.081 168.78 137.447 168.287 136.764 167.385 136.118 166.515 135.866 165.674 135.874 164.905 136.099 154.112 140.895 154.111 140.895 25.695 140.895 25.354 140.795 25.125 140.649 24.96 140.472 24.884 140.346 24.828 140.22 24.771 139.843 24.771 93.44 24.771 91.881 24.837 91.48 25.015 91.1 25.23 90.84 25.524 90.618 25.96 90.452 26.367 90.408 111.546 98.507 112.991 98.645 113.102 98.612 113.093 98.651 114.047 98.642 114.75 98.517 115.548 98.241 116.351 97.793 117.089 97.173 117.594 96.572 118.013 95.869 118.281 95.21 118.501 94.143 118.524 93.179 118.414 92.038 115.762 64.502 115.356 63.342 114.719 62.599 113.953 62.13 112.787 61.895 111.477 62.196 110.546 62.901 109.953 63.912 109.81 65.296" class="fil1 str0"/></g></svg>