<svg xmlns="http://www.w3.org/2000/svg" width="297mm" height="210mm" viewBox="0 0 297 210" xml:space="preserve" style="shape-rendering:geometricPrecision;text-rendering:geometricPrecision;image-rendering:optimizeQuality;fill-rule:evenodd;clip-rule:evenodd"><defs><style type="text/css">.str0,.str1{stroke-width:.0762}.str1{stroke:#1f1a17}.str0{stroke:#da251d}.fil1{fill:none}.fil0{fill:#dededd}</style></defs><g id="Ebene_x0020_1"><metadata id="CorelCorpID_0Corel-Layer"/><polygon points="25.782 140.999 26.407 141.466 27.279 141.809 28.023 141.895 139.772 141.895 139.772 104.895 139.772 67.895 28.023 67.895 27.279 67.981 26.407 68.324 25.782 68.79 25.291 69.383 24.928 70.147 24.771 71.146 24.771 104.895 24.771 138.644 24.928 139.643 25.291 140.406" class="fil0 str0"/><polygon points="132.274 142.395 149.772 142.395 149.772 104.895 149.772 104.895 149.772 104.895 149.772 67.395 132.274 67.395 132.274 104.895 132.274 104.895 132.274 104.895" class="fil0 str0"/><polygon points="234.951 133.122 235.347 133.458 235.779 133.695 236.324 133.856 236.756 133.895 253.335 133.895 254.099 133.8 254.725 133.471 255.229 133.025 255.566 132.522 255.771 131.956 257.772 122.895 257.772 104.895 257.768 104.893 257.772 104.895 257.772 86.894 255.771 77.834 255.566 77.267 255.229 76.765 254.725 76.319 254.099 75.99 253.335 75.894 236.756 75.894 236.324 75.934 235.779 76.095 235.347 76.332 234.951 76.668 234.772 76.894 233.333 78.132 232.163 78.864 230.947 79.394 229.533 79.752 228.387 79.873 227.272 79.894 226.141 79.873 224.735 79.702 223.418 79.33 222.221 78.778 220.834 77.846 219.772 76.894 219.158 73.834 218.766 72.32 218.306 70.966 217.645 69.627 217.098 68.907 216.503 68.396 215.704 68.022 214.772 67.894 179.772 67.894 178.708 68.027 177.515 68.55 176.83 69.123 176.144 69.696 174.941 71.016 173.565 72.492 172.456 73.474 171.037 74.427 169.601 75.097 167.786 75.614 166.2 75.836 164.018 75.862 161.558 75.572 159.894 75.079 158.326 74.324 157.29 73.63 156.055 72.567 154.102 70.46 152.464 68.854 151.162 68.127 149.772 67.894 149.772 104.895 149.772 141.896 151.162 141.662 152.464 140.936 154.102 139.33 156.055 137.223 157.29 136.16 158.326 135.466 159.894 134.711 161.558 134.218 164.018 133.928 166.2 133.954 167.786 134.176 169.601 134.693 171.037 135.363 172.456 136.316 173.565 137.298 174.941 138.774 176.144 140.094 176.83 140.667 177.515 141.24 178.708 141.763 179.772 141.896 214.772 141.896 215.704 141.768 216.503 141.394 217.098 140.883 217.645 140.162 218.306 138.824 218.766 137.47 219.158 135.956 219.772 132.896 220.834 131.944 222.221 131.012 223.418 130.46 224.735 130.088 226.141 129.917 227.272 129.896 228.387 129.917 229.533 130.038 230.947 130.396 232.163 130.926 233.333 131.659 234.772 132.896" class="fil0 str0"/><polygon points="106.165 154.895 106.165 156.189 107.149 156.386 107.906 156.503 108.854 156.62 109.768 156.689 110.772 156.71 111.775 156.689 112.69 156.62 113.636 156.503 114.393 156.386 115.378 156.189 115.378 154.895" class="fil0 str0"/><circle id="center_00" cx="46.772" cy="156.189" r="2.592" class="fil0 str0"/><polygon points="42.164 154.895 42.164 156.189 43.15 156.386 43.907 156.503 44.853 156.62 45.767 156.689 46.772 156.71 47.776 156.689 48.69 156.62 49.636 156.503 50.394 156.386 51.377 156.189 51.377 154.895" class="fil0 str0"/><rect width="5.934" height="58.001" x="236.756" y="75.894" class="fil0 str0"/><rect width="18" height="8.001" x="101.772" y="146.895" class="fil0 str0"/><rect width="18" height="8.001" x="37.772" y="146.895" class="fil0 str0"/><polygon points="109.81 65.296 112.119 89.275 112.209 90.831 112.201 91.05 112.165 91.273 112.069 91.542 111.881 91.833 111.683 92.03 111.423 92.197 111.137 92.302 110.862 92.342 109.986 92.332 24.291 84.177 23.451 84.162 22.378 84.33 21.549 84.621 21 84.907 20.398 85.332 19.823 85.893 19.579 86.199 19.288 86.685 19.274 86.684 19.235 86.77 19.195 86.838 19.2 86.851 19.009 87.277 18.832 87.948 18.771 88.653 18.771 90.857 18.771 143.895 18.823 143.895 18.805 144.35 19.02 145.091 19.338 145.65 19.971 146.295 20.529 146.626 21.366 146.868 21.771 146.895 154.155 146.895 154.809 146.868 155.342 146.808 156.013 146.63 156.548 146.378 167.34 141.582 167.933 141.233 168.485 140.69 168.914 139.943 169.123 138.84 169.025 138.081 168.78 137.447 168.287 136.764 167.385 136.118 166.515 135.866 165.674 135.874 164.905 136.099 154.112 140.895 154.111 140.895 25.695 140.895 25.354 140.795 25.125 140.649 24.96 140.472 24.884 140.346 24.828 140.22 24.771 139.843 24.771 93.44 24.771 91.881 24.837 91.48 25.015 91.1 25.23 90.84 25.524 90.618 25.96 90.452 26.367 90.408 111.546 98.507 112.991 98.645 113.102 98.612 113.093 98.651 114.047 98.642 114.75 98.517 115.548 98.241 116.351 97.793 117.089 97.173 117.594 96.572 118.013 95.869 118.281 95.21 118.501 94.143 118.524 93.179 118.414 92.038 115.762 64.502 115.356 63.342 114.719 62.599 113.953 62.13 112.787 61.895 111.477 62.196 110.546 62.901 109.953 63.912" class="fil0 str0"/><polygon points="274.176 95.699 273.762 95.477 273.272 95.395 272.72 95.5 272.328 95.729 272.071 95.995 271.852 96.408 271.772 96.895 271.772 104.895 271.772 112.895 271.852 113.382 272.071 113.795 272.328 114.061 272.72 114.29 273.272 114.395 273.762 114.313 274.176 114.092 274.475 113.79 274.675 113.425 274.772 112.895 274.772 104.895 274.772 96.895 274.675 96.365 274.475 96" class="fil0 str0"/><polygon points="259.772 86.894 257.772 86.894 257.772 104.895 257.773 104.893 257.772 104.895 257.772 122.895 259.772 122.895 261.471 113.395 261.471 104.895 261.471 96.395" class="fil0 str0"/><polygon points="271.772 113.395 261.471 113.395 261.471 104.895 261.471 96.395 271.772 96.395 271.772 104.895" class="fil0 str0"/><rect width=".959" height="58.001" x="242.691" y="75.894" class="fil0 str0"/><line x1="219.772" x2="219.772" y1="79.895" y2="129.895" class="fil1 str1"/><line x1="175.015" x2="175.015" y1="74.895" y2="134.895" class="fil1 str1"/></g></svg>