<svg xmlns="http://www.w3.org/2000/svg" xmlns:svg="http://www.w3.org/2000/svg" style="shape-rendering:geometricPrecision;text-rendering:geometricPrecision;image-rendering:optimizeQuality;fill-rule:evenodd;clip-rule:evenodd" id="svg2" width="297mm" height="210mm" viewBox="0 0 297 210" xml:space="preserve"><metadata id="metadata24"/><defs id="defs4"><style id="style6" type="text/css">.str0{stroke:#da251d;stroke-width:.0762}.fil1{fill:#dededd}</style><metadata id="CorelCorpID_0Corel-Layer"/></defs><polygon style="fill:#dededd;stroke:#da251d;stroke-width:.0762" id="polygon12" points="106.165 154.895 106.165 156.189 107.149 156.386 107.906 156.503 108.854 156.62 109.768 156.689 110.772 156.71 111.775 156.689 112.69 156.62 113.636 156.503 114.393 156.386 115.378 156.189 115.378 154.895 106.165 154.895" class="fil1 str0"/><circle style="fill:#dededd;stroke:#da251d;stroke-width:.0762" id="center_00" cx="46.772" cy="156.189" r="2.592" class="fil1 str0"/><polygon style="fill:#dededd;stroke:#da251d;stroke-width:.0762" id="polygon15" points="42.164 154.895 42.164 156.189 43.15 156.386 43.907 156.503 44.853 156.62 45.767 156.689 46.772 156.71 47.776 156.689 48.69 156.62 49.636 156.503 50.394 156.386 51.377 156.189 51.377 154.895 42.164 154.895" class="fil1 str0"/></svg>
