<svg xmlns="http://www.w3.org/2000/svg" width="210mm" height="297mm" viewBox="0 0 210 297" xml:space="preserve" style="shape-rendering:geometricPrecision;text-rendering:geometricPrecision;image-rendering:optimizeQuality;fill-rule:evenodd;clip-rule:evenodd"><defs><style type="text/css">.str0{stroke:#1f1a17;stroke-width:.0762}.str1{stroke:#da251d;stroke-width:.1764}.fil0{fill:none}.fil1{fill:#c2c1c1}</style></defs><g id="Ebene_x0020_1"><metadata id="CorelCorpID_0Corel-Layer"/><circle id="center_00" cx="100" cy="147" r="18.368" class="fil0 str0"/><polygon points="68.922 184.671 60.821 179.448 61.314 178.637 59.763 177.759 59.397 178.451 55.001 175.915 53.664 177.982 55.376 175.137 54.814 172.69 51.584 171.045 49.018 172.002 47.908 173.847 53.37 176.847 47.908 173.847 45.885 177.35 46.033 179.023 50.272 181.202 46.033 179.023 46.329 180.365 49.061 181.85 51.866 181.081 53.062 179.081 52.194 180.533 56.411 183.28 58.968 179.097 55.775 184.32 57.258 185.223 57.863 184.254 65.952 189.529" class="fil1 str1"/><polygon points="104.977 216.556 105.665 217.31 107.288 218.022 109.639 217.974 110.757 220.978 109.004 222.256 107.932 223.963 107.781 226.781 109.131 228.329 110.822 229.404 110.08 232.79 107.792 232.818 106.269 233.464 104.502 236.194 104.435 238.509 105.347 240.056 102.438 242.119 101.001 240.879 99.333 240.469 95.87 241.829 94.994 243.335 94.623 245.211 91.331 245.37 91.004 243.8 80.075 239.732 81.025 236.48 79.582 234.801 76.852 234.852 75.171 229.961 76.776 227.816 76.705 225.307 74.359 222.849 79.706 215.416 95.65 209.907 103.327 209.664" class="fil1 str1"/><circle cx="92.291" cy="226.363" r="14" class="fil1 str1"/><circle cx="92.236" cy="226.363" r="8.501" class="fil1 str1"/><polygon points="99.26 225.455 103.738 217.988 106.799 214.097 109.035 211.945 111.345 209.644 116.02 205.828 119.067 204.86 126.006 205.037 131.434 204.922 135.116 203.678 138.824 200.881 140.771 198.207 143.338 191.145 143.378 184.065 142.431 175.908 140.458 169.335 136.495 164.254 128.495 161.192 121.987 161.151 115.954 163.478 111.378 167.56 108.582 173.473 112.196 196.701 108.562 199.558 102.55 203.153 81.859 209.433 76.774 211.086 73.533 210.366 69.68 208.523 68.489 208.223 67.545 208.932 66.568 210.351 64.515 214.98 65.948 215.4 66.496 214.553 68.086 210.814 68.755 209.826 69.523 209.521 69.523 209.521 68.755 209.826 68.086 210.814 66.496 214.553 67.751 215.409 68.755 217.232 69.514 215.628 71.685 213.561 75.168 211.797 71.685 213.561 69.514 215.628 68.755 217.232 68.52 218.527 68.597 223.392 70.532 231.342 73.709 237.493 77.948 242.52 83.218 245.541 87.102 245.855 89.701 243.794 93.914 235.449 99.26 225.455 97.677 221.543 94.725 219.925 91.382 219.592 88.037 220.79 85.647 224.117 85.409 227.731 86.427 230.171 88.823 232.246 91.929 233.024 95.593 232.311 91.929 233.024 88.823 232.246 88.947 233.518 87.07 237.202 86.136 239.174 84.243 239.577 82.484 238.955 81.074 237.851 79.462 236.191 78.789 235.236 76.969 232.422 76.593 231.054 75.545 226.83 75.7 222.548 77.27 219.468 80.12 216.812 84.198 214.807 85.754 214.317 89.852 213.028 99.219 210.33 100.329 211.04 100.873 213.309 100.009 214.402 98.922 215.779 94.725 219.925 97.677 221.543" class="fil1 str1"/><polygon points="124 166.844 122.534 167.423 120.415 168.43 119.945 168.639 117.876 169.975 116.81 171.707 115.866 173.155 116.18 174.905 124.988 176.738 126.285 176.183 130.875 174.229 134.331 174.065 135.151 172.144 133.803 169.47 130.859 167.64 127.334 166.694 125.975 166.755" class="fil1 str1"/><polygon points="76.113 176.231 78.039 180.674 84.692 183.379 83.146 179.194 84.913 183.977 89.492 186.132 90.982 188.733 91.719 193.552 93.136 195.858 93.968 198.346 98.617 203.528 101.039 203.901 102.772 202.568 103.403 200.067 100.133 192.697 99.488 187.89 98.12 185.542 99.488 187.89 100.133 192.697 103.403 200.067 102.772 202.568 105.22 199.215 105.315 197.118 103.565 193.197 102.757 189.907 102.826 188.31 103.651 183.275 107.925 184.994 103.651 183.275 102.826 188.31 102.757 189.907 110.341 192.848 116.67 185.4 113.418 177.829 82.539 167.137 77.272 168.971" class="fil1 str1"/><polygon points="93.021 138.693 86.07 144.722 81.908 149.599 79.472 153.058 67.812 170.32 66.475 172.767 61.656 178.072 57.77 184.479 57.471 186.349 59.105 187.965 62.305 190.142 66.931 182.328 68.609 180.918 70.856 181.518 79.318 185.835 81.467 186.826 82.46 186.001 81.877 185.944 79.109 183.836 76.185 180.681 69.975 177.394 66.635 180.355 69.975 177.394 76.185 180.681 79.109 183.836 81.972 186.017 82.46 186.001 83.543 184.508 83.218 183.741 80.225 181.474 77.845 178.044 77.224 177.248 78.231 177.007 79.496 176.407 78.847 174.114 76.741 171.992 72.927 170.103 69.817 169.372 72.927 170.103 76.741 171.992 78.847 174.114 79.496 176.407 80.559 173.676 80.578 172.228 79.291 170.901 77.96 169.761 75.531 168.235 83.067 156.883 87.142 158.463 90.824 155.158 87.142 158.463 83.067 156.883 75.531 168.235 77.96 169.761 79.291 170.901 80.578 172.228 86.9 159.5 91.281 155.83 92.805 155.527 96.769 157.59 102.014 158.151 106.947 155.758 109.746 152.204 111.121 147.384 110.218 143.05 107.774 139.435 104.555 137.28 100.612 136.177 96.51 136.692" class="fil1 str1"/><polygon points="84.412 158.95 87.142 158.463 90.069 158.056 91.659 157.621 96.169 158.607 101.925 160.525 109.638 163.401 116.482 166.417 116.682 167.015 116.326 168.253 116.426 169.505 120.879 172.179 122.652 173.999 122.935 175.26 116.67 185.4 111.837 182.245 109.126 180.984 103.926 176.268 98.017 172.952 91.476 170.713 86.143 170.154 85.429 170.998 104.263 177.85 97.135 184.188 95.702 184.561 84.826 180.205 83.405 178.666 83.512 176.537 84.406 170.616 80.78 169.788 84.406 170.616 83.69 175.358 80.355 174.2 80.578 172.228 79.291 170.901 77.96 169.761 77.043 169.185 79.314 165.282 82.04 161.308 83.247 159.731" class="fil1 str1"/><polygon points="118.997 167.657 123.208 169.196 127.239 171.494 128.91 173.93 130.792 178.174 129.542 181.349 128.701 183.123 126.7 184.906 128.701 183.123 129.542 181.349 131.179 182.46 135.642 184.319 137.703 186.935 139.104 189.965 138.935 193.222 137.486 196.688 133.922 200.523 129.29 201.722 124.255 200.533 118.952 197.938 120.421 195.012 118.952 197.938 116.934 198.839 112.983 198.974 106.997 196.676 105.419 195.078 106.634 193.083 108.101 192.258 115.844 196.551 108.101 192.258 108.953 191.105 116.888 195.471 108.953 191.105 110.126 189.024 107.643 186.716 108.002 184.523 111.554 185.968 116.114 189.43 111.554 185.968 108.002 184.523 109.097 183.222 109.918 182.247 111.837 182.245 113.525 183.405 117.834 186.139 124.677 174.748 123.356 172.734 120.416 170.813 117.194 169.524 117.629 168.179" class="fil1 str1"/><polygon points="95.651 193.44 94.443 195.318 94.231 196.412 94.443 195.318 94.376 195.666 93.693 195.87 92.689 196.887 92.53 197.399 93.437 196.848 92.53 197.399 92.244 198.117 92.636 199.275 99.013 203.178 100.518 203.461 101.423 202.615 100.972 200.766 100.248 199.81 99.425 199.178 100.248 199.81 100.972 200.766 101.423 202.615 102.556 201.036 102.273 199.398 101.399 198.384 100.8 197.899 99.188 196.528 97.894 195.891 98.08 195.033 97.654 194.073 97.093 195.265 96.704 196.059 97.092 197.17 96.704 196.059 97.654 194.073" class="fil1 str1"/><polygon points="97.775 206.217 100.833 202.24 100.655 201.263 99.575 199.896 97.642 198.529 95.406 197.628 93.695 197.53 93.099 197.738 92.635 198.066 91.084 202.319 90.985 203.113 91.504 203.972 92.724 205.047 94.307 205.979 95.936 206.436 97.431 206.533" class="fil1 str1"/><polyline points="97.709 205.907 97.228 204.68 95.768 203.196 93.699 202.063 92.237 201.94 91.405 202.241" class="fil0 str1"/><circle cx="92.291" cy="226.363" r="3.5" class="fil1 str1"/><circle cx="100" cy="147" r="9.499" class="fil0 str1"/><circle cx="100" cy="147" r="7.999" class="fil0 str1"/><circle cx="100" cy="147" r="3.499" class="fil0 str1"/></g></svg>
