<svg xmlns="http://www.w3.org/2000/svg" width="210mm" height="297mm" viewBox="0 0 210 297" xml:space="preserve" style="shape-rendering:geometricPrecision;text-rendering:geometricPrecision;image-rendering:optimizeQuality;fill-rule:evenodd;clip-rule:evenodd"><defs><style type="text/css">.str0{stroke:#1f1a17;stroke-width:.0762}.str1{stroke:#da251d;stroke-width:.1764}.fil0{fill:none}.fil1{fill:#c2c1c1}</style></defs><g id="Ebene_x0020_1"><metadata id="CorelCorpID_0Corel-Layer"/><circle id="center_00" cx="100" cy="147" r="18.368" class="fil0 str0"/><polygon points="68.922 184.671 60.821 179.448 61.314 178.637 59.763 177.759 59.397 178.451 55.001 175.915 53.664 177.982 55.376 175.137 54.814 172.69 51.584 171.045 49.018 172.002 47.908 173.847 53.37 176.847 47.908 173.847 45.885 177.35 46.033 179.023 50.272 181.202 46.033 179.023 46.329 180.365 49.061 181.85 51.866 181.081 53.062 179.081 52.194 180.533 56.411 183.28 58.968 179.097 55.775 184.32 57.258 185.223 57.863 184.254 65.952 189.529" class="fil1 str1"/><polygon points="91.57 235.228 92.258 235.982 93.882 236.694 96.232 236.646 97.35 239.651 95.598 240.928 94.525 242.636 94.374 245.454 95.724 247.002 97.416 248.076 96.674 251.462 94.386 251.491 92.862 252.137 91.096 254.866 91.028 257.182 91.94 258.729 89.031 260.791 87.595 259.552 85.926 259.141 82.463 260.501 81.588 262.008 81.216 263.883 77.924 264.043 77.597 262.473 66.668 258.404 67.618 255.153 66.175 253.473 63.445 253.524 61.764 248.633 63.369 246.488 63.299 243.98 60.953 241.522 66.299 234.089 82.243 228.58 89.921 228.336" class="fil1 str1"/><circle cx="78.806" cy="245.035" r="14" class="fil1 str1"/><circle cx="78.806" cy="245.035" r="8.501" class="fil1 str1"/><polygon points="85.778 244.034 90.255 236.567 103.868 217.962 119.983 201.69 123.03 200.722 129.099 201.175 134.528 201.061 138.209 199.816 141.918 197.02 143.865 194.346 146.431 187.284 146.471 180.204 145.524 172.046 143.551 165.474 139.589 160.392 131.589 157.331 125.081 157.29 119.047 159.616 114.472 163.699 111.676 169.611 115.29 192.839 109.117 193.762 106.727 199.895 100.555 206.668 87.406 216.634 68.376 228.012 63.292 229.665 60.05 228.945 56.197 227.102 55.006 226.802 54.063 227.511 53.086 228.93 51.033 233.559 52.465 233.979 53.013 233.132 54.603 229.393 55.273 228.405 56.041 228.1 56.041 228.1 55.273 228.405 54.603 229.393 53.013 233.132 54.269 233.988 55.273 235.811 56.031 234.207 58.202 232.14 61.685 230.376 58.202 232.14 56.031 234.207 55.273 235.811 55.038 237.106 55.115 241.971 57.049 249.921 60.226 256.072 64.465 261.099 69.736 264.12 73.619 264.434 76.218 262.373 80.432 254.028 85.778 244.034 84.194 240.122 81.243 238.504 77.9 238.171 74.555 239.369 72.164 242.696 71.926 246.31 72.945 248.75 75.341 250.825 78.446 251.603 82.111 250.89 78.446 251.603 75.341 250.825 75.464 252.097 73.587 255.781 72.654 257.753 70.76 258.156 69.001 257.534 67.591 256.43 65.98 254.77 65.306 253.815 63.487 251.001 63.11 249.633 62.062 245.409 62.217 241.128 63.787 238.047 66.638 235.391 70.715 233.386 72.272 232.896 76.37 231.607 85.737 228.909 86.846 229.619 87.39 231.887 86.526 232.981 85.439 234.358 81.243 238.504 84.195 240.122" class="fil1 str1"/><polygon points="125.269 164.304 123.804 164.883 121.685 165.89 121.215 166.099 119.146 167.435 117.194 169.524 117.136 170.614 117.45 172.365 124.286 179.804 125.92 176.723 128.512 176.775 135.601 171.525 136.421 169.604 135.073 166.93 132.129 165.1 128.604 164.154 127.245 164.215" class="fil1 str1"/><polygon points="76.113 176.231 78.039 180.674 84.692 183.379 83.146 179.194 84.913 183.977 89.492 186.132 90.982 188.733 91.719 193.552 93.136 195.858 93.968 198.346 98.617 203.528 101.039 203.901 102.772 202.568 103.403 200.067 100.133 192.697 99.488 187.89 98.12 185.542 99.488 187.89 100.133 192.697 103.403 200.067 102.772 202.568 105.22 199.215 105.315 197.118 103.565 193.197 102.757 189.907 102.826 188.31 103.651 183.275 107.925 184.994 103.651 183.275 102.826 188.31 102.757 189.907 110.341 192.848 116.67 185.4 113.418 177.829 82.539 167.137 77.272 168.971" class="fil1 str1"/><polygon points="93.021 138.693 86.07 144.722 81.908 149.599 79.472 153.058 67.812 170.32 66.475 172.767 61.656 178.072 57.77 184.479 57.471 186.349 59.105 187.965 62.305 190.142 66.931 182.328 68.609 180.918 70.856 181.518 79.318 185.835 81.467 186.826 82.46 186.001 81.877 185.944 79.109 183.836 76.185 180.681 69.975 177.394 66.635 180.355 69.975 177.394 76.185 180.681 79.109 183.836 81.972 186.017 82.46 186.001 83.543 184.508 83.218 183.741 80.225 181.474 77.845 178.044 77.224 177.248 78.231 177.007 79.496 176.407 78.847 174.114 76.741 171.992 72.927 170.103 69.817 169.372 72.927 170.103 76.741 171.992 78.847 174.114 79.496 176.407 80.559 173.676 80.578 172.228 79.291 170.901 77.96 169.761 75.531 168.235 83.067 156.883 87.142 158.463 90.824 155.158 87.142 158.463 83.067 156.883 75.531 168.235 77.96 169.761 79.291 170.901 80.578 172.228 86.9 159.5 91.281 155.83 92.805 155.527 96.769 157.59 102.014 158.151 106.947 155.758 109.746 152.204 111.121 147.384 110.218 143.05 107.774 139.435 104.555 137.28 100.612 136.177 96.51 136.692" class="fil1 str1"/><polygon points="84.412 158.95 87.142 158.463 90.069 158.056 91.659 157.621 96.169 158.607 101.925 160.525 109.638 163.401 116.482 166.417 116.682 167.015 116.326 168.253 116.426 169.505 120.879 172.179 122.652 173.999 122.935 175.26 116.67 185.4 111.837 182.245 109.126 180.984 103.926 176.268 98.017 172.952 91.476 170.713 86.143 170.154 85.429 170.998 104.263 177.85 97.135 184.188 95.702 184.561 84.826 180.205 83.405 178.666 83.512 176.537 84.406 170.616 80.78 169.788 84.406 170.616 83.69 175.358 80.355 174.2 80.578 172.228 79.291 170.901 77.96 169.761 77.043 169.185 79.314 165.282 82.04 161.308 83.247 159.731" class="fil1 str1"/><polygon points="118.997 167.657 123.208 169.196 127.239 171.494 128.91 173.93 130.792 178.174 129.542 181.349 128.701 183.123 126.7 184.906 128.701 183.123 129.542 181.349 131.179 182.46 135.642 184.319 137.703 186.935 139.104 189.965 138.935 193.222 137.486 196.688 133.922 200.523 129.29 201.722 124.255 200.533 118.952 197.938 120.421 195.012 118.952 197.938 116.934 198.839 112.983 198.974 106.997 196.676 105.419 195.078 106.634 193.083 108.101 192.258 115.844 196.551 108.101 192.258 108.953 191.105 116.888 195.471 108.953 191.105 110.126 189.024 107.643 186.716 108.002 184.523 111.554 185.968 116.114 189.43 111.554 185.968 108.002 184.523 109.097 183.222 109.918 182.247 111.837 182.245 113.525 183.405 117.834 186.139 124.677 174.748 123.356 172.734 120.416 170.813 117.194 169.524 117.629 168.179" class="fil1 str1"/><polygon points="95.651 193.44 94.443 195.318 94.231 196.412 94.443 195.318 94.376 195.666 93.693 195.87 92.689 196.887 92.53 197.399 93.437 196.848 92.53 197.399 92.244 198.117 92.636 199.275 99.013 203.178 100.518 203.461 101.423 202.615 100.972 200.766 100.248 199.81 99.425 199.178 100.248 199.81 100.972 200.766 101.423 202.615 102.556 201.036 102.273 199.398 101.399 198.384 100.8 197.899 99.188 196.528 97.894 195.891 98.08 195.033 97.654 194.073 97.093 195.265 96.704 196.059 97.092 197.17 96.704 196.059 97.654 194.073" class="fil1 str1"/><polygon points="97.775 206.217 100.833 202.24 100.655 201.263 99.575 199.896 97.642 198.529 95.406 197.628 93.695 197.53 93.099 197.738 92.635 198.066 91.084 202.319 90.985 203.113 91.504 203.972 92.724 205.047 94.307 205.979 95.936 206.436 97.431 206.533" class="fil1 str1"/><polyline points="97.709 205.907 97.228 204.68 95.768 203.196 93.699 202.063 92.237 201.94 91.405 202.241" class="fil0 str1"/><circle cx="100" cy="147" r="9.499" class="fil0 str1"/><circle cx="100" cy="147" r="7.999" class="fil0 str1"/><circle cx="100" cy="147" r="3.499" class="fil0 str1"/><circle cx="78.806" cy="245.035" r="3.5" class="fil1 str1"/></g></svg>