<svg xmlns="http://www.w3.org/2000/svg" width="210mm" height="297mm" viewBox="0 0 210 297" xml:space="preserve" style="shape-rendering:geometricPrecision;text-rendering:geometricPrecision;image-rendering:optimizeQuality;fill-rule:evenodd;clip-rule:evenodd"><defs><style type="text/css">.str0{stroke:#000;stroke-width:.0762}.fil0{fill:#969594}</style></defs><g id="Ebene_x0020_1"><metadata id="CorelCorpID_0Corel-Layer"/><circle cx="80.282" cy="239.732" r="15.5" class="fil0 str0"/><polygon points="103.3 235.039 100.642 236.619 99.53 237.832 99.079 239.072 99.079 240.392 99.53 241.632 100.642 242.845 103.3 244.425 102.181 248.236 99.093 248.12 97.502 248.54 96.452 249.339 95.738 250.449 95.448 251.737 95.727 253.358 97.107 256.131 94.105 258.732 91.571 256.959 90.007 256.452 88.691 256.556 87.49 257.104 86.55 258.03 85.908 259.545 85.568 262.631 81.637 263.196 80.466 260.327 79.424 259.055 78.26 258.431 76.954 258.244 75.662 258.514 74.304 259.441 72.347 261.86 68.734 260.21 69.302 257.157 69.113 255.523 68.472 254.37 67.474 253.506 66.241 253.035 64.597 253.08 61.641 254.064 59.494 250.723 61.624 248.455 62.349 246.978 62.433 245.661 62.061 244.394 61.278 243.332 59.87 242.481 56.85 241.718 56.85 237.746 59.87 236.983 61.278 236.132 62.061 235.07 62.433 233.803 62.349 232.486 61.624 231.009 59.494 228.741 61.641 225.4 64.597 226.384 66.241 226.429 67.474 225.958 68.472 225.094 69.113 223.941 69.302 222.307 68.734 219.254 72.347 217.604 74.304 220.023 75.662 220.95 76.954 221.22 78.26 221.033 79.424 220.409 80.466 219.137 81.637 216.268 85.568 216.833 85.908 219.919 86.55 221.434 87.49 222.36 88.691 222.908 90.007 223.012 91.571 222.505 94.105 220.732 97.107 223.333 95.727 226.106 95.448 227.727 95.738 229.015 96.452 230.125 97.502 230.924 99.093 231.344 102.181 231.228" class="fil0 str0"/><circle cx="80.282" cy="239.732" r="5" class="fil0 str0"/><polygon points="148.543 179.145 145.885 180.724 144.773 181.937 144.322 183.177 144.322 184.497 144.773 185.737 145.885 186.95 148.543 188.53 147.424 192.341 144.336 192.226 142.745 192.645 141.695 193.444 140.981 194.555 140.691 195.842 140.97 197.463 142.35 200.236 139.348 202.837 136.814 201.064 135.25 200.557 133.934 200.661 132.733 201.209 131.793 202.135 131.151 203.65 130.811 206.736 126.88 207.301 125.709 204.433 124.667 203.16 123.503 202.537 122.197 202.349 120.905 202.619 119.547 203.547 117.59 205.966 113.977 204.315 114.545 201.262 114.356 199.628 113.715 198.475 112.717 197.611 111.484 197.14 109.84 197.185 106.884 198.17 104.737 194.828 106.867 192.56 107.592 191.083 107.676 189.766 107.304 188.5 106.521 187.437 105.113 186.587 102.093 185.823 102.093 181.851 105.113 181.088 106.521 180.237 107.304 179.175 107.676 177.908 107.592 176.591 106.867 175.115 104.737 172.846 106.884 169.505 109.84 170.489 111.484 170.535 112.717 170.064 113.715 169.199 114.356 168.046 114.545 166.412 113.977 163.359 117.59 161.709 119.547 164.128 120.905 165.055 122.197 165.326 123.503 165.138 124.667 164.515 125.709 163.242 126.88 160.373 130.811 160.939 131.151 164.024 131.793 165.539 132.733 166.465 133.934 167.013 135.25 167.118 136.814 166.611 139.348 164.837 142.35 167.438 140.97 170.211 140.691 171.833 140.981 173.12 141.695 174.23 142.745 175.029 144.336 175.449 147.424 175.334" class="fil0 str0"/><circle cx="125.525" cy="183.837" r="5" class="fil0 str0"/><polygon points="126.909 156.998 133.844 158.63 142.571 164.606 148.773 176.265 150.3 185.182 147.659 194.096 143.111 197.609 130.546 202.515 121.941 203.258 109.225 208.229 93.393 231.462 91.636 237.933 90.253 246.94 81.628 252.115 76.719 268.931 67.853 266.157 69.26 247.44 67.072 237.031 53.481 225.983 57.941 218.218 75.773 225.165 84.036 222.651 84.036 222.651 106.997 196.676 114.815 181.082 114.035 168.623 119.881 158.872" class="fil0 str0"/><circle id="center_00" cx="100" cy="147" r="18.368" class="fil0 str0"/><polygon points="60.838 178.542 52.736 173.319 53.229 172.508 51.678 171.63 51.312 172.322 46.916 169.786 45.579 171.853 47.291 169.008 46.73 166.561 43.499 164.916 40.933 165.873 39.824 167.718 45.286 170.718 39.824 167.718 37.801 171.221 37.949 172.894 42.187 175.073 37.949 172.894 38.244 174.236 40.976 175.721 43.782 174.952 44.977 172.952 44.109 174.404 48.326 177.151 50.883 172.968 47.691 178.191 49.173 179.094 49.778 178.125 57.867 183.4" class="fil0 str0"/><polygon points="76.113 176.231 78.039 180.674 84.692 183.379 83.146 179.194 84.913 183.977 87.524 185.206 89.458 188.685 91.719 193.552 93.136 195.858 93.968 198.346 98.617 203.528 101.039 203.901 102.772 202.568 103.403 200.067 100.133 192.697 99.488 187.89 98.12 185.542 99.488 187.89 100.133 192.697 103.403 200.067 102.772 202.568 105.22 199.215 105.315 197.118 103.565 193.197 102.757 189.907 102.826 188.31 103.089 186.704 104.661 187.504 107.888 185.219 104.661 187.504 105.788 184.135 104.661 187.504 103.089 186.704 102.826 188.31 102.757 189.907 110.341 192.848 116.67 185.4 113.418 177.829 82.539 167.137 77.272 168.971" class="fil0 str0"/><polygon points="118.997 167.657 123.208 169.196 126.241 170.925 128.91 173.93 137.703 186.935 139.104 189.965 138.935 193.222 137.486 196.688 133.922 200.523 131.023 201.722 127.36 202.41 112.983 198.974 106.997 196.676 105.419 195.078 106.634 193.083 107.643 186.716 108.002 184.523 111.554 185.968 117.594 190.302 127.522 195.278 117.594 190.302 111.554 185.968 108.002 184.523 109.097 183.222 109.918 182.247 111.837 182.245 113.525 183.405 117.834 186.139 124.677 174.748 123.356 172.734 120.416 170.813 117.194 169.524 117.629 168.179" class="fil0 str0"/><polygon points="95.651 193.44 94.443 195.318 94.231 196.412 94.443 195.318 94.376 195.666 93.693 195.87 92.689 196.887 92.53 197.399 93.437 196.848 92.53 197.399 92.244 198.117 92.636 199.275 99.013 203.178 100.518 203.461 101.423 202.615 100.972 200.766 100.248 199.81 99.425 199.178 100.248 199.81 100.972 200.766 101.423 202.615 102.556 201.036 102.273 199.398 101.399 198.384 100.8 197.899 99.188 196.528 97.894 195.891 98.08 195.033 97.654 194.073 97.093 195.265 96.704 196.059 97.092 197.17 96.704 196.059 97.654 194.073" class="fil0 str0"/><polygon points="97.775 206.217 100.833 202.24 100.655 201.263 99.575 199.896 97.642 198.529 95.406 197.628 93.695 197.53 93.099 197.738 92.635 198.066 91.084 202.319 90.985 203.113 91.504 203.972 92.724 205.047 94.307 205.979 95.936 206.436 97.431 206.533" class="fil0 str0"/><_path d="M97.7094 205.907l-0.481 -1.227 -1.46 -1.484 -2.069 -1.133 -1.4625 -0.123 -0.8322 0.301m6.3047 3.666z" class="fil0 str0"/><circle cx="80.282" cy="239.732" r="3.5" class="fil0 str0"/><polygon points="80.334 176.442 80.725 174.792 81.048 173.432 82.349 178.758 81.907 180.92 82.349 178.758 81.048 173.432 80.578 172.228 79.291 170.901 77.96 169.761 75.531 168.235 83.067 156.883 87.142 158.463 90.824 155.158 87.142 158.463 83.067 156.883 75.531 168.235 77.96 169.761 79.291 170.901 80.578 172.228 88.968 163.171 91.85 156.967 94.528 156.424 96.769 157.59 102.014 158.151 106.947 155.758 109.746 152.204 111.121 147.384 110.218 143.05 107.774 139.435 104.555 137.28 100.612 136.177 96.51 136.692 93.021 138.693 88.157 140.81 81.632 147 79.211 150.58 74.668 155.413 63.475 168.464 54.875 172.986 50.989 179.393 50.69 181.263 52.324 182.879 55.524 185.056 60.15 177.242 61.829 175.832 64.076 176.432 77.493 183.227 79.642 184.218 80.634 183.393 81.717 181.9 81.393 181.133 80.334 176.442 76.963 174.498 72.473 171.848 69.259 170.524 66.647 170.395 63.194 172.308 61.089 174.174 63.194 172.308 66.647 170.395 69.259 170.524 72.473 171.848 76.772 174.385" class="fil0 str0"/><circle cx="100" cy="147" r="9.499" class="fil0 str0"/><polygon points="84.412 158.95 87.142 158.463 90.355 159.316 94.865 160.302 116.378 166.858 115.178 168.112 120.879 172.179 122.652 173.999 122.935 175.26 116.67 185.4 111.837 182.245 109.126 180.984 105.788 184.135 85.429 170.998 100.902 180.982 97.135 184.188 95.702 184.561 84.826 180.205 83.405 178.666 83.512 176.537 84.406 170.616 80.78 169.788 84.406 170.616 83.69 175.358 81.156 173.873 80.578 172.228 79.291 170.901 77.96 169.761 77.043 169.185 79.314 165.282 82.04 161.308 83.247 159.731" class="fil0 str0"/><circle cx="100" cy="147" r="7.999" class="fil0 str0"/><circle cx="100" cy="147" r="3.499" class="fil0 str0"/></g></svg>