<svg width="297mm" height="210mm" viewBox="0 0 297 210"><defs id="_tag_5_"><style type="text/css"/></defs><g id="Ebene_x0020_1"><circle id="center_00" cx="51.079" cy="119.111" r="15" fill="none" stroke="#000" stroke-width=".1"/><g id="_129888504"><g id="_tag_25_"><polygon id="_128939664" fill="none" stroke="#000" stroke-width=".1" points="57.19 263.091 57.953 262.829 58.439 262.652 58.936 262.457 59.386 262.26 59.974 261.78 59.879 260.923 59.84 260.15 59.914 259.663 60.094 259.147 60.415 258.63 60.906 258.141 61.442 257.741 61.939 257.413 62.409 257.16 62.866 256.986 63.324 256.896 63.796 256.889 64.295 256.972 64.834 257.147 65.371 256.704 65.609 256.312 65.884 255.852 66.162 255.378 66.412 254.942 66.69 254.263 66.334 253.633 65.867 253.021 65.639 252.597 65.468 252.111 65.391 251.572 65.448 250.993 65.59 250.432 65.752 249.93 65.953 249.477 66.208 249.059 66.532 248.665 66.945 248.283 67.461 247.903 68.097 247.511 68.495 247.069 68.479 246.573 68.497 245.752 68.503 245.312 68.502 244.902 68.366 244.186 67.815 243.77 67.359 243.664 66.763 243.418 66.418 243.195 66.065 242.881 65.723 242.461 65.411 241.918 65.147 241.353 64.944 240.817 64.809 240.303 64.746 239.806 64.763 239.313 64.863 238.82 65.052 238.317 65.338 237.798 65.48 237.138 65.239 236.631 64.817 235.928 64.567 235.55 64.311 235.195 63.847 234.685 62.995 234.67 62.404 234.742 61.701 234.737 60.961 234.582 59.456 233.848 60.069 232.923 55.157 229.969 52.701 230.529 51.951 230.581 51.246 230.521 50.738 230.296 50.377 230.086 49.989 229.799 49.611 229.432 49.278 228.977 49.023 228.427 48.411 228.05 47.888 228.104 47.079 228.23 46.657 228.307 45.955 228.459 45.39 229.055 45.34 229.695 45.204 230.447 44.951 230.906 44.435 231.475 44.05 231.774 43.588 232.057 43.142 232.266 42.726 232.412 42.041 232.559 41.322 232.581 40.749 232.514 40.163 232.365 39.607 232.128 38.997 231.915 38.153 232.267 37.849 232.532 37.513 232.832 37.179 233.141 36.884 233.428 36.501 233.926 36.75 234.916 36.879 235.949 36.777 236.879 36.313 237.692 31.968 244.416 31.895 250.533 35.343 259.295 43.113 265.863 52.397 265.693 55.494 262.949"/><circle id="_154592512" cx="49.846" cy="246.316" r="13.5" fill="none" stroke="#000" stroke-width=".1"/><polygon id="_tag_1_5_" fill="none" stroke="#000" stroke-width=".1" points="82.001 182.794 82.37 183.028 82.776 183.41 82.987 183.771 83.066 184.363 82.986 185.144 82.913 185.56 82.82 185.987 82.705 186.42 82.567 186.855 82.41 187.287 82.052 188.208 81.314 189.934 80.281 192.277 79.04 195.052 77.675 198.075 76.272 201.159 74.917 204.12 73.695 206.773 72.682 208.913 71.817 210.582 71.055 211.873 70.352 212.88 69.666 213.699 68.953 214.422 68.171 215.144 67.276 215.958 65.787 217.271 63.465 219.253 60.628 221.643 57.593 224.182 54.679 226.609 52.204 228.665 51.462 229.28 50.486 230.09 49.36 231.029 48.173 231.889 46.921 232.665 45.603 233.355 44.214 233.954 42.754 234.457 41.219 234.862 39.606 235.165 38.982 235.252 38.347 235.323 37.7 235.38 37.041 235.421 36.371 235.445 35.688 235.454 34.994 235.447 34.288 235.424 33.5 235.345 33.027 235.277 32.093 235.102 30.949 234.879 29.7 234.632 28.447 234.38 27.294 234.146 26.342 233.952 25.696 233.82 25.083 233.697 24.688 233.621 24.218 233.534 23.724 233.445 23.253 233.366 22.855 233.307 22.342 233.286 21.81 233.452 21.401 233.784 20.938 234.257 20.531 234.756 20.166 235.302 19.968 235.775 19.757 236.649 19.576 237.368 19.372 238.173 19.164 238.985 18.971 239.726 18.815 240.318 18.683 240.881 18.858 241.422 19.106 241.741 19.448 241.998 20.287 242.615 21.483 243.496 22.869 244.52 24.279 245.565 25.547 246.513 26.506 247.241 26.993 247.631 27.381 248.044 27.736 248.621 28.002 249.267 28.126 249.885 28.173 250.471 28.365 251.636 28.755 253.262 29.392 255.232 30.328 257.428 31.614 259.732 33.301 262.026 35.439 264.191 37.826 266.05 40.285 267.517 42.738 268.622 45.107 269.391 47.313 269.849 49.276 270.024 50.918 269.942 52.161 269.63 53.128 269.187 53.999 268.64 54.771 267.987 55.445 267.228 56.019 266.361 56.492 265.387 56.864 264.303 57.175 262.838 57.228 261.638 57.015 243.309 56.894 241.002 57.701 238.766 58.664 237.086 59.869 235.682 60.961 234.582 61.658 234.046 63.553 232.586 66.346 230.419 69.741 227.766 73.438 224.845 77.141 221.878 80.551 219.08 83.371 216.673 85.618 214.605 87.561 212.629 89.282 210.676 90.861 208.673 92.381 206.551 93.921 204.237 95.566 201.661 97.393 198.75 99.18 195.921 99.546 196.091 100.001 196.32 100.403 196.558 100.765 196.883 101.063 197.174 101.532 197.272 101.946 197.352 102.364 197.359 102.999 196.814 103.504 196.023 104.153 194.958 104.865 193.753 105.564 192.54 106.171 191.453 106.606 190.623 106.792 190.185 106.885 189.613 106.755 189.177 106.4 188.983 105.937 188.891 105.537 188.439 105.147 187.854 104.783 187.3 104.76 186.835 105.139 186.23 105.714 185.313 106.439 184.158 107.266 182.838 108.15 181.429 109.044 180.004 109.899 178.637 110.651 176.953 111.209 174.68 111.495 171.966 111.428 168.953 110.932 165.789 109.926 162.617 108.333 159.585 106.073 156.836 103.421 154.533 100.716 152.719 97.974 151.368 95.211 150.449 92.444 149.933 89.688 149.792 86.96 149.998 84.276 150.52 72.689 157.814 72.132 175.427"/><polygon id="_tag_1_2_" fill="none" stroke="#000" stroke-width=".1" points="99.771 161.345 96.089 163.05 88.891 158.192 90.044 153.634 91.104 153.689 91.542 153.754 91.98 153.819 93.724 154.221 95.358 154.837 97.065 155.776 98.744 157.108 100.288 158.903 100.485 159.473 100.536 160.234 100.428 160.639 100.186 161.02"/><polygon id="_tag_1_3_" fill="none" stroke="#000" stroke-width=".1" points="85.269 180.794 84.11 171.252 88.45 179.167 88.458 179.705 88.374 180.122 88.266 180.55 88.114 181.04 87.915 181.531 87.668 181.96 87.373 182.263 86.448 182.355 86.013 182.19 85.7 181.925 85.361 181.285"/><polygon id="_tag_1_4_" fill="none" stroke="#000" stroke-width=".1" points="93.034 178.41 92.819 172.186 96.252 168.183 98.71 167.596 100.182 166.028 100.494 165.76 100.865 165.537 101.473 165.297 101.888 165.235 102.321 165.235 102.757 165.305 103.178 165.458 103.568 165.703 103.909 166.054 104.186 166.518 104.38 167.108 104.502 168.107 104.548 169.738 104.395 171.83 103.92 174.216 102.999 176.726 101.51 179.192 99.328 181.443 96.328 183.313 95.811 183.365 95.12 183.246 94.752 183.066 94.407 182.77 94.112 182.336 93.844 181.752 93.617 181.11 93.429 180.451 93.278 179.817 93.163 179.252 93.083 178.796"/><polygon id="_tag_1_6_" fill="none" stroke="#000" stroke-width=".1" points="50.258 253.968 50.538 254.364 50.691 254.955 50.971 261.039 50.891 261.744 50.511 262.387 49.964 262.975 49.246 263.337 48.491 263.509 48 263.465 46.393 263.131 44.667 262.571 42.879 261.766 41.087 260.697 39.347 259.343 37.789 257.764 36.56 256.093 35.623 254.414 34.941 252.814 34.476 251.378 34.193 250.193 34.052 249.344 34.019 248.917 34.137 248.144 34.743 247.773 35.357 247.793 42.508 249.116 42.939 249.285 43.402 249.659 44.118 250.714 44.676 251.377 45.297 251.961 45.977 252.461 46.715 252.872 47.508 253.189 48.355 253.41 49.255 253.528 49.922 253.715"/><polygon id="_130405648" fill="none" stroke="#000" stroke-width=".1" points="87.291 187.942 86.658 188.256 86.106 188.834 85.848 189.217 85.598 189.655 85.35 190.151 85.099 190.699 84.517 192.004 83.447 194.505 82.056 197.801 80.509 201.492 78.974 205.175 77.614 208.448 76.598 210.914 76.091 212.169 75.932 212.642 75.844 213.043 75.862 213.665 76.092 214.128 76.487 214.527 76.972 214.83 77.555 214.96 78.31 214.774 78.772 214.517 79.305 214.128 79.948 213.609 80.758 212.942 81.679 212.165 82.648 211.316 83.605 210.437 84.492 209.563 85.25 208.735 85.818 207.991 86.543 206.763 87.755 204.608 89.287 201.839 90.969 198.767 92.635 195.706 94.112 192.969 95.236 190.868 95.835 189.717 96.09 189.178 96.236 188.708 96.296 188.3 96.211 187.656 95.964 187.21 95.673 186.913 95.205 186.69 94.534 186.582 93.696 186.647 93.225 186.761 92.654 186.935 91.936 187.109 91.123 187.277 90.259 187.437 89.397 187.587 88.582 187.723 87.864 187.843"/><polyline id="_131543200_1_1_1" fill="none" stroke="#000" stroke-width=".1" points="21.029 241.092 22.444 241.314 24.002 241.547 25.939 241.822 28.116 242.111 30.392 242.382 32.627 242.607 34.68 242.757 36.587 242.789 38.532 242.615 40.511 242.221 42.521 241.593 44.558 240.719 46.618 239.585 48.698 238.177 50.794 236.483 52.945 234.626 55.2 232.713 57.486 230.787 59.728 228.892 61.852 227.073 63.786 225.374 65.454 223.84 66.784 222.513 67.844 221.339 68.779 220.186 69.628 218.991 70.429 217.69 71.223 216.216 72.047 214.507 72.941 212.498 73.944 210.123 75.151 207.309 76.52 204.097 77.966 200.685 79.406 197.268 80.753 194.046 81.924 191.214 82.835 188.969 83.401 187.509 83.685 186.502 83.83 185.511 83.866 184.573 83.824 183.724 83.738 183 83.637 182.438 83.518 181.945"/><polyline id="_157887240_1_1_1" fill="none" stroke="#000" stroke-width=".1" points="82.693 196.125 83.175 195.435 83.553 195.024 84.042 194.602 84.642 194.216 85.355 193.913 86.183 193.74 87 193.666 87.692 193.624 88.277 193.606 88.773 193.609 89.198 193.627 89.904 193.685 90.572 193.772 90.965 193.947 91.356 194.234 91.704 194.629 91.962 195.128 92.088 195.728 92.038 196.423 91.768 197.21"/><polyline id="_153836928_1_1_1" fill="none" stroke="#000" stroke-width=".1" points="77.291 209.189 77.087 209.829 77.051 210.247 77.108 210.719 77.304 211.214 77.686 211.702 78.3 212.155 79.076 212.439 79.892 212.432 80.719 212.2 81.528 211.81 82.289 211.326 82.975 210.817 83.556 210.347 84.002 209.984"/><polyline id="_131493216_1_1_1" fill="none" stroke="#000" stroke-width=".1" points="87.823 187.938 88.331 188.382 89.082 188.605 89.615 188.619 90.266 188.532 90.936 188.385 91.572 188.24 92.168 188.099 92.72 187.964 93.222 187.836 93.668 187.718 94.054 187.61 94.604 187.457 95.03 187.254 95.285 186.824"/><polyline id="_153836904_1_1_1" fill="none" stroke="#000" stroke-width=".1" points="51.227 230.513 52.013 229.861 52.757 229.244 55.169 227.237 58.007 224.865 60.963 222.383 63.726 220.042 65.985 218.094 67.433 216.795 68.303 216.003 69.068 215.291 69.769 214.57 70.452 213.747 71.159 212.73 71.932 211.429 72.815 209.754 73.852 207.61 75.049 204.98 76.386 202.031 77.779 198.95 79.14 195.928 80.385 193.153 81.428 190.814 82.184 189.1 82.568 188.2 82.744 187.727 82.882 187.231 82.985 186.726 83.06 186.226 83.109 185.744 83.138 185.292 83.152 184.887"/><line id="_131845312" x1="104.661" x2="99.209" y1="187.076" y2="195.939" fill="none" stroke="#000" stroke-width=".1"/><polyline id="_155017384_1_1_1" fill="none" stroke="#000" stroke-width=".1" points="100.78 196.685 100.759 196.078 100.913 195.516 101.366 194.701 101.849 194.06 102.459 193.31 103.134 192.516 103.817 191.74 104.445 191.045 104.962 190.495 105.305 190.151 105.8 189.77 106.198 189.499 106.559 189.285"/><polyline id="_158856784_1_1_1" fill="none" stroke="#000" stroke-width=".1" points="83.076 185.538 83.032 186.27 82.919 187.04 82.717 187.819 82.161 189.278 81.106 191.859 79.714 195.187 78.149 198.887 76.573 202.583 75.149 205.901 74.04 208.465 73.409 209.9 73.043 210.67 72.615 211.488 72.11 212.354 71.515 213.264 70.817 214.218 70.003 215.214 69.058 216.25 67.969 217.325 66.346 218.754 64.045 220.754 61.344 223.091 58.516 225.529 55.837 227.835 53.583 229.772 52.028 231.107 51.449 231.604 49.226 233.26 47.024 234.665 44.817 235.813 42.583 236.695 40.296 237.304 37.932 237.633 35.467 237.673 32.878 237.418 27.695 236.627 22.032 235.317"/><circle id="_189337584" cx="49.846" cy="246.316" r="4.078" fill="none" stroke="#000" stroke-width=".1"/><circle id="_188088304" cx="49.846" cy="246.316" r="2.747" fill="none" stroke="#000" stroke-width=".1"/></g><polyline id="_154592512_0" fill="none" stroke="#000" stroke-width=".1" points="36.494 248.316 37.067 250.678 38.035 252.858 39.357 254.814 40.992 256.506 42.899 257.893 45.038 258.934 47.367 259.589 49.846 259.816 49.846 259.816 49.977 259.816 50.108 259.814 50.238 259.811 50.368 259.806 50.498 259.801 50.627 259.794 50.756 259.786 50.885 259.777"/></g><polygon id="_tag_1_7_" fill="none" stroke="#000" stroke-width=".1" points="88.255 147.69 87.68 147.363 87.065 147.019 86.326 146.613 85.531 146.188 84.752 145.787 84.057 145.453 83.518 145.231 83.113 145.14 82.558 145.162 82.19 145.517 82.053 146.102 82.035 146.512 81.368 146.368 81.343 145.686 81.289 145.246 81.189 144.754 81.032 144.246 80.803 143.754 80.49 143.313 80.026 142.858 79.396 142.327 78.655 141.754 77.861 141.176 77.07 140.629 76.338 140.149 75.723 139.77 75.282 139.529 74.497 139.297 74.008 139.229 73.475 139.193 72.915 139.191 72.343 139.222 71.776 139.291 71.228 139.395 70.455 139.557 69.271 139.824 67.823 140.159 66.259 140.527 64.725 140.892 63.369 141.217 62.338 141.469 61.78 141.609 61.041 141.668 60.565 141.64 60.05 141.582 59.519 141.498 58.998 141.396 58.513 141.28 58.085 141.156 57.295 140.912 56.863 140.774 56.413 140.624 55.955 140.465 55.49 140.295 55.028 140.116 54.573 139.928 54.06 139.796 53.471 139.726 52.842 139.702 52.205 139.71 51.596 139.733 51.05 139.757 50.6 139.767 50.046 139.72 49.571 139.548 49.165 139.318 48.778 139.061 48.029 138.642 47.46 138.312 46.81 137.923 46.114 137.49 45.41 137.03 44.734 136.557 44.069 136.079 43.394 135.665 42.709 135.308 42.012 135.003 41.301 134.744 40.575 134.524 39.832 134.339 39.069 134.179 38.278 134.09 37.489 134.065 36.718 134.104 35.978 134.205 35.287 134.365 34.658 134.586 34.108 134.863 33.651 135.196 33.479 134.768 33.382 134.374 33.533 133.937 33.944 133.806 34.537 133.617 35.236 133.393 35.966 133.159 36.652 132.938 37.218 132.752 37.801 132.511 37.98 132.135 37.832 131.684 37.73 131.269 37.465 130.528 37.297 130.096 37.131 129.668 36.985 129.28 36.825 128.759 36.842 128.331 37.107 127.944 37.499 127.739 37.991 127.576 38.484 127.439 38.996 127.327 39.541 127.244 40.228 127.202 40.631 127.231 41.047 127.318 41.455 127.484 41.835 127.747 42.166 128.126 42.429 128.641 42.681 129.188 42.924 129.668 43.173 130.079 43.439 130.419 44.081 130.863 44.483 130.961 44.956 130.972 45.42 130.864 45.835 130.653 46.202 130.366 46.521 130.026 46.794 129.659 47.022 129.291 47.343 128.652 47.584 128.096 48.1 127.605 48.537 127.422 49.136 127.298 49.926 127.25 50.939 127.292 52.13 127.23 53.289 126.99 54.399 126.581 55.442 126.014 56.401 125.299 57.258 124.449 57.995 123.471 58.597 122.379 59.127 120.781 59.317 119.162 59.185 117.566 58.749 116.038 58.026 114.621 57.034 113.359 55.792 112.297 54.317 111.479 52.934 110.996 51.525 110.774 50.121 110.799 48.755 111.062 47.457 111.549 46.26 112.249 45.193 113.151 44.29 114.242 43.919 114.654 43.246 115.095 42.777 115.262 42.218 115.346 41.567 115.311 40.933 115.196 40.377 115.033 39.897 114.826 39.492 114.581 39.159 114.304 38.897 114 38.576 113.329 38.438 112.943 38.275 112.488 38.064 111.99 37.782 111.478 37.405 110.982 36.909 110.529 36.27 110.15 35.465 109.871 34.604 109.744 33.788 109.821 33.023 110.06 32.313 110.422 31.665 110.864 31.083 111.344 30.572 111.822 30.138 112.257 29.655 112.745 29.007 113.411 28.254 114.183 27.458 114.99 26.677 115.763 25.974 116.427 25.409 116.913 25.041 117.15 24.534 117.374 24.036 117.54 23.547 117.667 22.812 117.66 22.379 117.653 21.912 117.645 21.451 117.641 21.037 117.642 20.476 117.649 19.987 117.913 19.791 118.43 19.719 118.826 19.657 119.328 19.651 119.996 19.669 120.845 19.702 121.79 19.744 122.751 19.789 123.643 19.829 124.383 19.858 124.888 19.393 126.823 18.566 126.793 18.013 126.777 17.376 126.762 16.689 126.752 15.985 126.749 15.299 126.756 14.644 126.777 13.998 126.867 13.383 127.029 12.821 127.264 12.335 127.576 11.947 127.967 11.678 128.44 11.552 128.996 11.537 129.687 11.56 130.844 11.61 132.312 11.678 133.935 11.754 135.558 11.828 137.027 11.891 138.187 11.932 138.881 12.211 139.617 12.492 139.922 12.842 140.185 13.244 140.408 13.681 140.591 14.133 140.737 14.583 140.844 15.119 140.932 15.797 141.014 16.552 141.089 17.317 141.154 18.027 141.207 18.616 141.248 19.017 141.274 19.267 141.744 19.429 142.339 19.649 142.914 19.958 143.304 20.429 143.591 20.904 143.785 21.583 145.485 21.204 145.779 20.179 146.581 18.675 147.771 16.86 149.23 14.902 150.837 12.969 152.472 11.228 154.017 9.848 155.349 9.505 155.132 9.159 154.866 8.72 154.739 8.24 154.746 7.85 154.843 7.266 155.008 6.805 155.166 6.397 155.388 6.065 155.731 5.865 156.257 5.806 156.913 5.892 157.646 5.302 157.944 4.733 158.241 4.131 158.567 3.565 159.041 3.351 159.413 3.201 159.878 3.129 160.438 3.149 161.093 3.273 161.846 3.516 162.696 3.852 163.453 4.249 164.02 4.673 164.423 5.093 164.691 5.477 164.85 6.003 164.958 7.243 164.926 7.695 165.414 7.978 165.712 8.284 166.027 8.588 166.329 9.082 166.774 9.446 167.007 9.86 167.16 10.764 166.598 11.879 166.801 15.625 165.79 16.85 162.891 18.345 162.433 19.191 160.809 19.575 160.52 19.99 160.215 20.496 159.856 21.05 159.478 21.607 159.12 22.125 158.82 22.56 158.615 23.104 158.487 23.929 158.344 24.928 158.199 25.99 158.06 27.006 157.935 27.867 157.834 28.464 157.768 28.894 158.019 29.569 158.655 30.108 159.019 30.796 159.363 31.643 159.653 32.66 159.851 33.711 159.895 34.688 159.801 35.57 159.609 36.337 159.361 36.969 159.096 37.446 158.857 37.852 158.617 38.336 158.675 38.853 158.748 39.317 158.82 39.734 158.988 40.499 159.308 41.12 159.353 41.337 159.826 41.693 160.25 42.614 160.726 43.226 160.74 43.43 161.248 43.729 161.646 44.457 162.057 44.813 162.557 45.056 162.904 45.298 163.255 45.533 163.603 45.756 163.946 46.142 164.588 46.545 165.433 46.899 166.183 47.378 167.095 48.005 168.133 48.801 169.264 49.788 170.456 50.986 171.672 52.419 172.878 52.737 173.124 53.181 173.44 53.719 173.814 54.319 174.235 54.949 174.689 55.578 175.164 56.172 175.649 56.7 176.131 57.154 176.547 57.535 176.9 57.866 177.198 58.48 177.666 59.195 178.022 59.653 178.181 59.958 178.528 60.502 178.981 60.875 179.216 61.315 179.43 61.823 179.605 62.328 179.679 62.78 179.698 63.503 179.624 63.962 179.497 64.713 179.634 65.365 179.853 66.175 180.117 67.086 180.401 68.037 180.681 68.969 180.931 69.825 181.128 70.637 181.239 71.46 181.247 72.264 181.149 73.018 180.942 73.692 180.623 74.257 180.19 74.681 179.638 74.873 179.251 75.138 178.869 75.684 178.673 76.486 178.524 76.952 178.512 77.448 178.567 78.313 178.691 79.016 178.807 79.664 178.918 80.134 178.994 80.546 179.05 81.407 179.24 82.005 179.374 82.664 179.523 83.348 179.678 84.017 179.831 84.636 179.975 85.29 180.098 86.029 180.236 87.54 180.392 88.284 180.479 88.795 180.54 89.262 180.549 89.974 180.528 90.949 180.427 91.629 180.307 92.796 180.001 93.715 179.664 95.006 179.029 96.003 178.391 96.647 177.857 97.175 177.432 97.892 176.702 98.558 175.892 99.244 174.865 99.763 173.89 100.223 172.764 100.545 171.669 100.824 169.947 100.864 168.676 100.804 167.735 100.628 166.59 100.293 165.332 99.794 164.128 99.365 162.902 98.533 161.57 97.639 160.229 96.752 158.957 95.941 157.831 95.275 156.932 94.826 156.334 94.106 155.174 93.345 154.015 92.445 152.732 91.473 151.419 90.5 150.166 89.594 149.065 88.822 148.209"/><polygon id="_132565680" fill="none" stroke="#000" stroke-width=".1" points="11.38 171.989 8.298 171.281 5.851 178.432 6.112 179.16 6.524 179.515 7.049 179.781 7.921 179.918 8.398 179.809 8.732 179.569"/><polygon id="_129450384" fill="none" stroke="#000" stroke-width=".1" points="11.856 171.851 11.569 172.295 11.021 172.533 10.3 172.565 9.901 172.502 9.492 172.386 9.099 172.221 8.746 172.023 8.191 171.555 7.854 170.8 8.021 170.302 8.465 169.933 9.117 169.785 9.894 169.856 10.304 169.972 10.694 170.135 11.337 170.554 11.754 171.055 11.9 171.589"/><polygon id="_132565520" fill="none" stroke="#000" stroke-width=".1" points="10.522 166.6 9.231 170.838 9.769 171.474 10.636 171.397 12.228 166.501 11.166 165.979"/><polygon id="_tag_1_9_" fill="none" stroke="#000" stroke-width=".1" points="64.169 178.58 63.533 179.114 62.943 179.208 62.259 179.151 61.568 179.001 60.809 178.606 60.584 178.274 60.921 177.649 61.433 177.501 62.108 177.483 62.847 177.589 63.478 177.79 63.939 178.072 64.165 178.405"/><polyline id="_tag_1_10__1_1" fill="none" stroke="#000" stroke-width=".1" points="46.772 163.471 47.267 164.43 47.503 164.842 47.757 165.256 48.031 165.673 48.324 166.092 48.638 166.516 48.974 166.944 50.113 168.32 51.112 169.365 51.989 170.117 52.762 170.616 53.448 170.9 54.065 171.008 54.631 170.979 55.164 170.853 55.626 170.769 56.046 170.801 56.761 171.113 57.3 171.587 57.656 172.022 57.921 172.507 58.324 173.153 58.611 173.531 58.974 173.942 59.427 174.384 59.982 174.855 60.619 175.291 61.292 175.637 61.98 175.903 62.663 176.098 63.318 176.233 63.925 176.317 64.464 176.36 64.913 176.37 65.39 176.324 65.936 176.222 66.527 176.08 67.141 175.915 67.755 175.741 68.348 175.576 68.895 175.434 69.377 175.332 69.865 175.261 70.476 175.237 71.17 175.273 71.908 175.382 72.65 175.576 73.358 175.867 73.992 176.268 74.513 176.792 74.833 177.289 75.025 177.735 75.13 178.453 75.034 178.884"/><polygon id="_tag_1_11_" fill="none" stroke="#000" stroke-width=".1" points="57.86 122.131 57.118 123.453 56.157 124.562 55.019 125.444 53.743 126.082 52.368 126.461 50.935 126.567 49.482 126.383 48.05 125.895 46.75 125.165 45.656 124.213 44.784 123.081 44.15 121.807 43.767 120.431 43.652 118.991 43.82 117.529 44.286 116.085 45.037 114.797 46.004 113.712 47.145 112.845 48.423 112.213 49.796 111.828 51.226 111.708 52.673 111.867 54.096 112.321 55.418 113.063 56.528 114.023 57.409 115.16 58.046 116.438 58.426 117.812 58.532 119.245 58.348 120.699"/><polygon id="_tag_1_12_" fill="none" stroke="#000" stroke-width=".1" points="56.067 121.276 55.519 122.229 54.808 123.034 53.965 123.678 53.02 124.149 52.004 124.436 50.948 124.525 49.883 124.405 48.838 124.065 47.867 123.505 47.053 122.789 46.408 121.945 45.94 121.002 45.661 119.991 45.58 118.939 45.707 117.877 46.051 116.835 46.607 115.862 47.316 115.045 48.153 114.394 49.088 113.923 50.095 113.641 51.148 113.561 52.218 113.692 53.279 114.047 54.244 114.574 55.058 115.27 55.707 116.104 56.181 117.045 56.465 118.065 56.55 119.13 56.421 120.211"/><polygon id="_tag_1_17_" fill="none" stroke="#000" stroke-width=".1" points="53.839 120.259 53.548 120.805 53.162 121.265 52.699 121.63 52.174 121.894 51.604 122.051 51.007 122.09 50.396 122.01 49.79 121.798 49.259 121.486 48.814 121.089 48.462 120.622 48.208 120.097 48.054 119.533 48.008 118.943 48.071 118.344 48.251 117.748 48.564 117.215 48.965 116.765 49.438 116.404 49.966 116.141 50.532 115.985 51.121 115.938 51.716 116.011 52.3 116.21 52.834 116.522 53.284 116.924 53.644 117.397 53.907 117.924 54.065 118.491 54.11 119.08 54.038 119.675"/><polyline id="_tag_1_18__1_1" fill="none" stroke="#000" stroke-width=".1" points="21.649 145.524 21.9 146.804 22.171 148.156 22.499 149.759 22.856 151.449 23.212 153.06 23.539 154.424 23.807 155.377 24.015 156.03 24.211 156.562 24.399 156.987 24.764 157.563 25.135 157.854 25.569 157.924 26.258 157.588 26.654 157.322 27.049 157.038 27.414 156.773 27.943 156.437"/><polyline id="_tag_1_19__1_1" fill="none" stroke="#000" stroke-width=".1" points="28.781 157.885 28.508 157.385 28.199 156.649 28.071 156.216 27.989 155.764 27.975 155.311 28.175 154.277 28.525 153.473 28.972 152.87 29.46 152.441 29.935 152.157 30.342 151.989 30.733 151.888 31.287 150.008 31.607 149.701 32.214 149.434 32.648 149.382 33.176 149.43 33.802 149.609 34.492 149.879 35.201 150.158 35.919 150.421 36.635 150.645 37.339 150.803 38.02 150.872 38.668 150.827 39.272 150.644 40.012 150.304 41.037 149.791 42.248 149.154 43.547 148.444 44.835 147.71 46.012 147.004 46.979 146.375 47.639 145.874 47.986 145.47 48.176 145.078 48.172 144.335 47.807 143.647 47.545 143.325 47.26 143.019"/><polyline id="_tag_1_20__1_1" fill="none" stroke="#000" stroke-width=".1" points="28.397 156.872 28.349 156.228 28.369 155.812 28.44 155.347 28.585 154.866 28.824 154.4 29.178 153.981 29.629 153.637 30.108 153.348 30.641 153.119 31.253 152.954 31.97 152.858 32.817 152.835 33.82 152.889 35.003 153.024 36.247 153.218 37.364 153.418 38.357 153.618 39.229 153.815 39.981 154.005 40.615 154.185 41.134 154.349 41.54 154.496 41.989 154.977 42.065 155.665 41.876 156.382 41.533 156.953 40.752 157.465 40.164 157.748 39.533 158.023 38.927 158.27 38.411 158.47 37.918 158.654"/><polyline id="_tag_1_21__1_1" fill="none" stroke="#000" stroke-width=".1" points="52.344 143.041 52.639 142.753 53.032 142.411 53.431 142.144 53.899 142.085 54.519 142.177 55.306 142.632 55.969 143.151 56.508 143.16 56.985 143.011 57.473 142.928 58.19 142.991 58.844 143.087 59.664 143.293 60.005 143.911 59.646 144.25"/><polyline id="_tag_1_22__1_1" fill="none" stroke="#000" stroke-width=".1" points="57.122 144.207 57.515 144.581 58.003 145.057 58.439 145.502 58.736 145.906 58.477 146.743"/><polyline id="_tag_1_23__1_1" fill="none" stroke="#000" stroke-width=".1" points="54.959 143.841 54.475 143.912 53.971 143.987 53.384 144.078 52.779 144.176 52.226 144.273 51.793 144.36 51.39 144.496 50.866 145.031 50.929 145.654"/><polyline id="_tag_1_24__1_1" fill="none" stroke="#000" stroke-width=".1" points="45.893 141.267 46.36 141.293 46.882 141.312 47.541 141.324 48.295 141.321 49.102 141.295 49.922 141.236 50.713 141.137 51.422 140.954 52.047 140.741 52.59 140.515 53.054 140.296 53.441 140.104 53.995 139.872"/><polyline id="_tag_1_25__1_1" fill="none" stroke="#000" stroke-width=".1" points="49.46 139.802 49.046 139.9 48.596 140.014 48.044 140.163 47.434 140.34 46.81 140.54 46.219 140.757 45.705 140.983"/><polyline id="_tag_1_26__1_1" fill="none" stroke="#000" stroke-width=".1" points="30.741 156.463 30.919 156.081 31.312 155.814 31.857 155.684 32.492 155.713 33.138 155.916 33.631 156.214 33.93 156.564"/><polygon id="_tag_1_27_" fill="none" stroke="#000" stroke-width=".1" points="33.979 157.709 33.763 158.069 33.351 158.325 32.799 158.451 32.164 158.422 31.54 158.243 30.848 157.789 30.654 157.409 30.722 157.004 31.019 156.679 31.508 156.485 32.134 156.447 32.798 156.572 33.57 156.969 33.881 157.326"/><polyline id="_tag_1_28__1_1" fill="none" stroke="#000" stroke-width=".1" points="30.749 156.907 30.612 156.49 30.528 156.096 30.744 155.651 31.202 155.355 31.837 155.211 32.587 155.24 33.314 155.442 33.883 155.775 34.235 156.199 34.312 156.671 34.127 157.054 33.725 157.388"/><line id="_tag_1_29_" x1="33.979" x2="33.991" y1="157.709" y2="156.925" fill="none" stroke="#000" stroke-width=".1"/><line id="_tag_1_30_" x1="30.664" x2="30.741" y1="157.208" y2="156.463" fill="none" stroke="#000" stroke-width=".1"/><polyline id="_tag_1_31__1_1" fill="none" stroke="#000" stroke-width=".1" points="45.491 147.012 44.743 147.055 44.293 147.071 43.824 147.075 43.385 147.063 42.797 146.958 42.512 146.359 42.315 145.836 42.107 145.254 41.91 144.682 41.744 144.189 41.586 143.713"/><polyline id="_tag_1_32__1_1" fill="none" stroke="#000" stroke-width=".1" points="34.232 136.936 34.7 136.837 35.24 136.756 35.945 136.691 36.784 136.67 37.73 136.723 38.75 136.877 39.817 137.16 40.858 137.589 41.833 138.089 42.725 138.625 43.511 139.162 44.174 139.665 44.691 140.098 45.045 140.426 45.304 140.756 45.632 141.129 45.987 141.409 46.346 141.662 46.66 141.942 46.944 142.279"/><polyline id="_tag_1_33__1_1" fill="none" stroke="#000" stroke-width=".1" points="22.578 148.341 22.691 148.726 22.939 149.206 23.381 149.635 24.227 149.867 24.996 150.018 25.908 150.204 26.874 150.404 27.807 150.597 28.619 150.763 29.221 150.881 29.66 150.944 29.953 150.648 30.202 150.023 30.347 149.575 30.491 149.1 30.622 148.647 30.803 147.999 31.495 148.115 32.201 148.345 33.04 148.621 33.93 148.918 34.786 149.209 35.521 149.469 36.052 149.67 36.437 149.805 37.05 150.054 37.493 150.292 37.811 150.536"/><polyline id="_tag_1_34__1_1" fill="none" stroke="#000" stroke-width=".1" points="27.396 148.827 27.545 148.213 27.661 147.442 27.72 146.973 27.78 146.463 27.839 145.917 27.945 145.001 28.197 143.482 28.553 141.555 28.972 139.416 29.413 137.261 29.835 135.285 30.195 133.684 30.453 132.654 30.586 132.039 30.725 131.549 30.871 131.163 31.177 130.623 31.497 130.261 31.989 129.807 32.329 129.489 32.673 129.137 33.018 128.746 33.36 128.312 33.693 127.829 34.013 127.294 34.316 126.701 34.747 125.33 34.895 123.941 34.775 122.571 34.401 121.256 33.789 120.036 32.952 118.946 31.905 118.024 30.663 117.306 29.268 116.861 27.857 116.7 26.47 116.81 25.145 117.178 23.923 117.789 22.843 118.632 21.945 119.693 21.269 120.958 21.115 121.377 20.878 122.103 20.584 123.054 20.259 124.146 19.93 125.298 19.621 126.426 19.36 127.446 19.171 128.277 19.01 128.98 18.89 129.651 18.811 130.292 18.77 130.904 18.766 131.487 18.798 132.043 18.862 132.573 18.959 133.078 19.126 133.914 19.422 135.323 19.801 137.095 20.214 139.018 20.617 140.881 20.962 142.473 21.204 143.583 21.295 144"/><polyline id="_tag_1_35__1_1" fill="none" stroke="#000" stroke-width=".1" points="27.634 148.26 28.071 146.995 28.518 145.691 29.032 144.186 29.547 142.665 29.997 141.313 30.318 140.316 30.444 139.857 30.747 138.884 31.005 138.04 31.291 137.103 31.571 136.183 31.813 135.39 31.982 134.834"/><polyline id="_tag_1_36__1_1" fill="none" stroke="#000" stroke-width=".1" points="32.926 130.647 32.499 130.857 32.49 131.376 32.656 132.091 32.761 132.519 32.864 132.942 33.02 133.618 33.268 133.986"/><polyline id="_tag_1_37__1_1" fill="none" stroke="#000" stroke-width=".1" points="29.867 150.951 29.362 151.287 28.985 151.537 28.569 151.852 28.149 152.239 27.759 152.705 27.433 153.257 27.204 153.902 27.065 154.58 26.956 155.159 26.866 155.656 26.782 156.088 26.587 156.823 26.277 157.5"/><polyline id="_tag_1_38__1_1" fill="none" stroke="#000" stroke-width=".1" points="40.58 145.157 40.513 144.418 40.333 143.786 40.059 143.253 39.71 142.81 39.306 142.451 38.864 142.167 38.403 141.95 37.943 141.794 37.355 141.633 36.639 141.468 35.859 141.307 35.078 141.158 34.36 141.029 33.769 140.928 33.367 140.861 32.621 140.922 32.15 141.149 31.81 141.608 31.713 142.108 31.908 142.488 32.332 142.786 32.922 143.038 33.32 143.179 33.84 143.35 34.443 143.544 35.095 143.749 35.757 143.957 36.394 144.157 36.968 144.34 37.444 144.496 37.939 144.691 38.427 144.963 38.959 145.377 39.448 145.953 39.807 146.707 39.948 147.66 39.786 148.831 39.272 150.644"/><polyline id="_tag_1_39__1_1" fill="none" stroke="#000" stroke-width=".1" points="31.214 138.365 31.835 138.542 32.623 138.75 33.014 138.844 33.603 138.947 33.979 138.773 34.312 138.344 34.559 137.865"/><line id="_tag_1_40_" x1="32.847" x2="33.602" y1="134.909" y2="138.948" fill="none" stroke="#000" stroke-width=".1"/><polyline id="_tag_1_41__1_1" fill="none" stroke="#000" stroke-width=".1" points="33.717 135.234 33.986 137.058 34.722 137.306 35.265 137.407 35.851 137.519 36.562 137.661 37.335 137.822 38.11 137.992 38.821 138.165 39.408 138.33 39.878 138.467 40.344 138.674 40.788 138.954 41.193 139.313 41.543 139.755 41.819 140.284 42.005 140.906 42.083 141.625 42.059 142.071 41.995 142.487 41.785 143.213 41.614 143.751 41.434 144.308 41.224 144.955 41.006 145.614"/><polygon id="_tag_1_42_" fill="none" stroke="#000" stroke-width=".1" points="52.694 121.182 50.15 121.478 48.37 119.223 49.424 116.93 52.1 116.71 53.683 118.85"/><polygon id="_tag_1_47_" fill="none" stroke="#000" stroke-width=".1" points="32.874 113.918 32.744 113.152 32.784 112.743 32.897 112.35 33.119 111.99 33.401 111.684 33.73 111.439 34.095 111.26 34.485 111.152 34.889 111.122 35.294 111.176 35.688 111.318 36.083 111.544 36.412 111.855 36.666 112.238 36.838 112.681 38.377 116.73 38.505 117.112 38.531 117.512 38.476 117.913 38.353 118.3 38.142 118.692 37.871 119.016 37.552 119.272 37.194 119.456 36.809 119.567 36.406 119.602 35.997 119.559 35.592 119.436 35.223 119.191 34.913 118.914 34.498 118.28"/><polyline id="_tag_1_48__1_1" fill="none" stroke="#000" stroke-width=".1" points="37.252 127.862 37.77 127.688 38.458 127.486 39.273 127.267 40.171 127.046 41.108 126.835 42.041 126.648 42.926 126.497 43.72 126.395 44.446 126.381 45.228 126.447 46.061 126.57 46.935 126.728 47.843 126.897 48.779 127.054 49.734 127.178 50.702 127.245"/><polyline id="_tag_1_49__1_1" fill="none" stroke="#000" stroke-width=".1" points="21.786 147.272 21.042 147.864 20.265 148.483 19.352 149.213 18.406 149.973 17.527 150.683 16.818 151.263 16.379 151.634 15.917 152.209 15.742 152.578 15.618 152.977 15.557 153.387 15.572 153.791 15.87 154.506 16.473 154.879 17.134 154.848 17.873 154.483 18.277 154.196 18.708 153.852 19.2 153.454 19.784 152.98 20.413 152.469 21.036 151.961 21.605 151.496 22.073 151.115 22.389 150.857"/><polyline id="_tag_1_50__1_1" fill="none" stroke="#000" stroke-width=".1" points="22.114 148.69 21.498 149.183 20.858 149.697 20.113 150.298 19.349 150.916 18.653 151.484 18.113 151.933 17.684 152.336 17.475 152.714 17.388 153.153 17.484 153.574 17.758 153.895 18.256 153.965 18.667 153.761 19.144 153.399 19.707 152.899 20.045 152.613 20.383 152.332 20.695 152.076 21.125 151.726"/><polyline id="_tag_1_51__1_1" fill="none" stroke="#000" stroke-width=".1" points="46.541 146.561 45.917 146.267 45.239 145.907 44.832 145.596 45.389 145.398 45.799 145.35 46.259 145.311 46.732 145.285 47.184 145.273 47.877 145.307"/><polyline id="_tag_1_52__1_1" fill="none" stroke="#000" stroke-width=".1" points="32.1 142.478 32.913 142.326 33.51 142.317 34.211 142.362 34.999 142.471 35.859 142.649 36.772 142.906 37.722 143.249 38.608 143.691 39.45 144.237 40.227 144.868 40.915 145.568 41.492 146.319 41.933 147.104 42.217 147.905 42.32 148.705"/><polyline id="_tag_1_53__1_1" fill="none" stroke="#000" stroke-width=".1" points="39.901 147.342 40.354 147.834 40.631 148.385 40.785 148.919 40.821 149.429"/><polyline id="_tag_1_54__1_1" fill="none" stroke="#000" stroke-width=".1" points="60.006 143.93 60.302 143.62 61.018 143.735 61.642 143.865 62.415 144.041 63.296 144.263 64.248 144.532 65.233 144.848 66.212 145.214 66.248 145.762 65.907 146.356"/><polyline id="_tag_1_55__1_1" fill="none" stroke="#000" stroke-width=".1" points="63.887 145.283 63.683 145.726 63.477 146.117 63.17 146.674 62.751 147.398 62.378 147.756"/><polyline id="_tag_1_56__1_1" fill="none" stroke="#000" stroke-width=".1" points="39.67 153.772 40.258 153.719 40.852 153.628 41.311 153.542 41.992 153.305 43.323 152.778 45.251 152.024 47.542 151.146 49.957 150.244 52.259 149.42 54.213 148.777 55.581 148.417 56.615 148.245 57.7 148.169 58.843 148.216 60.053 148.417 61.334 148.799 62.696 149.392 64.144 150.225 65.687 151.325 67.308 152.62 68.946 153.973 70.538 155.322 72.023 156.606 73.337 157.763 74.419 158.731 75.206 159.45 75.635 159.857 76.047 160.144 76.679 160.562 77.433 161.107 78.212 161.778 78.916 162.571 79.447 163.483 79.708 164.511 79.599 165.652"/><polyline id="_tag_1_57__1_1" fill="none" stroke="#000" stroke-width=".1" points="42.256 155.084 42.715 154.913 43.949 154.457 45.745 153.804 47.892 153.039 50.176 152.251 52.385 151.526 54.306 150.95 55.726 150.611 56.83 150.444 57.881 150.361 58.903 150.385 59.92 150.539 60.958 150.845 62.04 151.324 63.191 151.999 64.434 152.892 65.675 153.887 66.88 154.882 68.019 155.841 69.063 156.728 69.979 157.505 70.739 158.135 71.313 158.582 71.669 158.808 72.485 159.074 73.055 159.228 73.683 159.395 74.328 159.572 74.954 159.758 75.522 159.952 75.993 160.152"/><polyline id="_tag_1_58__1_1" fill="none" stroke="#000" stroke-width=".1" points="45.893 141.267 46.36 141.293 46.882 141.312 47.541 141.324 48.295 141.321 49.102 141.295 49.922 141.236 50.713 141.137 51.422 140.954 52.047 140.741 52.59 140.515 53.054 140.296 53.441 140.104 53.995 139.872"/><polyline id="_tag_1_59__1_1" fill="none" stroke="#000" stroke-width=".1" points="66.026 144.315 66.495 144.244 66.971 144.154 67.509 144.026 67.92 143.869 68.577 143.64 69.41 143.364 70.347 143.065 71.316 142.768 72.245 142.497 73.062 142.277 73.696 142.134 74.169 142.05 74.606 142.022 75.012 142.046 75.758 142.242 76.452 142.614 76.795 142.859 77.176 143.182 77.613 143.596 78.073 144.061 78.523 144.534 78.93 144.975 79.261 145.341 79.565 145.684"/><polygon id="_tag_1_60_" fill="none" stroke="#000" stroke-width=".1" points="63.105 166.367 63.862 165.189 64.46 164.012 64.892 162.867 65.154 161.788 65.241 160.806 65.148 159.953 64.869 159.26 64.4 158.762 63.786 158.53 63.087 158.446 63.192 159.077 63.195 159.79 63.092 160.567 62.886 161.396 62.578 162.26 62.166 163.145 61.653 164.035 61.039 164.916 60.363 165.785 59.653 166.569 58.919 167.26 58.176 167.85 57.434 168.33 56.705 168.691 56.002 168.924 55.339 169.022 55.652 169.641 56.129 170.091 56.787 170.368 57.561 170.397 58.423 170.198 59.347 169.787 60.304 169.182 61.268 168.397 62.211 167.454"/><polygon id="_tag_1_61_" fill="none" stroke="#000" stroke-width=".1" points="61.039 164.916 61.818 163.75 62.431 162.584 62.874 161.449 63.141 160.378 63.228 159.406 63.131 158.566 62.845 157.891 62.364 157.413 61.749 157.182 61.049 157.1 61.164 157.71 61.164 158.408 61.053 159.181 60.837 160.009 60.52 160.879 60.106 161.772 59.598 162.674 59.001 163.568 58.326 164.435 57.621 165.212 56.894 165.893 56.157 166.47 55.422 166.938 54.7 167.288 54.002 167.513 53.338 167.607 53.633 168.26 54.09 168.744 54.759 169.001 55.538 169.021 56.4 168.816 57.32 168.403 58.27 167.792 59.224 166.997 60.156 166.034"/><line id="_tag_1_62_" x1="65.974" x2="64.608" y1="163.973" y2="173.382" fill="none" stroke="#000" stroke-width=".1"/><line id="_tag_1_63_" x1="62.364" x2="61.613" y1="167.346" y2="172.629" fill="none" stroke="#000" stroke-width=".1"/><polyline id="_tag_1_64__1_1" fill="none" stroke="#000" stroke-width=".1" points="61.302 168.363 61.658 168.682 62.126 169.025"/><polyline id="_tag_1_65__1_1" fill="none" stroke="#000" stroke-width=".1" points="65.151 169.802 65.954 169.579 66.461 169.285 66.84 168.903 67.109 168.481 67.286 168.068 67.473 167.157 67.329 166.17 67.004 165.329 66.573 164.636 66.109 164.093 65.686 163.702 65.173 162.471 65.253 161.712 65.916 161.478 66.374 161.713 66.857 162.033 67.43 162.513 68.032 163.171 68.604 164.025 69.086 165.093 69.418 166.392 69.446 167.524 69.19 168.577 68.705 169.526 68.045 170.349 67.266 171.021 66.423 171.517 65.57 171.815 64.764 171.89"/><polyline id="_tag_1_66__1_1" fill="none" stroke="#000" stroke-width=".1" points="59.74 169.618 60.113 169.962 60.684 170.418 61.034 170.658 61.412 170.881 61.807 171.069"/><polyline id="_tag_1_67__1_1" fill="none" stroke="#000" stroke-width=".1" points="46.772 163.471 46.014 163.222 45.538 162.772 45.225 162.151 44.628 162.121"/><polygon id="_tag_1_68_" fill="none" stroke="#000" stroke-width=".1" points="63.105 166.367 63.862 165.189 64.46 164.012 64.892 162.867 65.154 161.788 65.241 160.806 65.148 159.953 64.869 159.26 64.4 158.762 63.786 158.53 63.087 158.446 63.192 159.077 63.195 159.79 63.092 160.567 62.886 161.396 62.578 162.26 62.166 163.145 61.653 164.035 61.039 164.916 60.363 165.785 59.653 166.569 58.919 167.26 58.176 167.85 57.434 168.33 56.705 168.691 56.002 168.924 55.339 169.022 55.652 169.641 56.129 170.091 56.787 170.368 57.561 170.397 58.423 170.198 59.347 169.787 60.304 169.182 61.268 168.397 62.211 167.454"/><polygon id="_tag_1_69_" fill="none" stroke="#000" stroke-width=".1" points="61.039 164.916 61.818 163.75 62.431 162.584 62.874 161.449 63.141 160.378 63.228 159.406 63.131 158.566 62.845 157.891 62.364 157.413 61.749 157.182 61.049 157.1 61.164 157.71 61.164 158.408 61.053 159.181 60.837 160.009 60.52 160.879 60.106 161.772 59.598 162.674 59.001 163.568 58.326 164.435 57.621 165.212 56.894 165.893 56.157 166.47 55.422 166.938 54.7 167.288 54.002 167.513 53.338 167.607 53.633 168.26 54.09 168.744 54.759 169.001 55.538 169.021 56.4 168.816 57.32 168.403 58.27 167.792 59.224 166.997 60.156 166.034"/><polygon id="_tag_1_70_" fill="none" stroke="#000" stroke-width=".1" points="59.001 163.568 59.791 162.383 60.409 161.207 60.849 160.068 61.109 159.001 61.186 158.031 61.072 157.193 60.763 156.515 60.258 156.028 59.862 155.809 59.191 155.731 59.127 156.36 59.13 157.052 59.026 157.816 58.812 158.637 58.499 159.502 58.083 160.397 57.571 161.307 56.962 162.221 56.288 163.087 55.582 163.865 54.855 164.545 54.119 165.123 53.384 165.59 52.661 165.94 51.963 166.165 51.3 166.26 51.614 166.88 52.092 167.331 52.749 167.607 53.523 167.636 54.383 167.436 55.301 167.022 56.251 166.412 57.202 165.621 58.129 164.667"/><polygon id="_tag_1_71_" fill="none" stroke="#000" stroke-width=".1" points="56.962 162.221 57.764 161.017 58.387 159.831 58.831 158.689 59.09 157.621 59.166 156.65 59.054 155.808 58.753 155.12 58.258 154.615 57.836 154.442 57.18 154.34 57.125 154.948 57.125 155.648 57.015 156.42 56.8 157.249 56.482 158.118 56.067 159.011 55.559 159.914 54.962 160.807 54.283 161.674 53.568 162.455 52.828 163.139 52.08 163.718 51.338 164.189 50.617 164.538 49.934 164.761 49.3 164.848 49.581 165.525 50.053 165.983 50.722 166.241 51.5 166.261 52.362 166.06 53.277 165.649 54.223 165.046 55.169 164.265 56.091 163.317"/><polygon id="_tag_1_72_" fill="none" stroke="#000" stroke-width=".1" points="54.962 160.807 55.753 159.623 56.37 158.447 56.812 157.308 57.072 156.24 57.147 155.271 57.033 154.432 56.725 153.754 56.222 153.267 55.825 153.047 55.153 152.97 55.089 153.598 55.092 154.291 54.988 155.056 54.776 155.877 54.461 156.742 54.047 157.637 53.533 158.548 52.926 159.461 52.248 160.325 51.535 161.098 50.8 161.774 50.056 162.347 49.317 162.812 48.596 163.162 47.907 163.394 47.263 163.499 47.576 164.119 48.053 164.569 48.692 164.835 49.456 164.86 50.316 164.658 51.238 164.247 52.195 163.641 53.154 162.854 54.087 161.905"/><polyline id="_tag_1_73__1_1" fill="none" stroke="#000" stroke-width=".1" points="52.968 153.421 52.749 154.485 52.322 155.653 51.707 156.861 50.925 158.046 50.246 158.914 49.529 159.695 48.788 160.381 48.037 160.967 47.29 161.444 46.563 161.805 45.87 162.043 45.224 162.152"/><polyline id="_tag_1_74__1_1" fill="none" stroke="#000" stroke-width=".1" points="46.772 163.471 47.434 163.485 48.293 163.282 49.214 162.875 50.167 162.276 51.122 161.499 52.051 160.555 52.925 159.46 53.52 158.569 54.025 157.675 54.438 156.79 54.756 155.931 54.977 155.111 55.099 154.344 55.121 153.645 55.039 153.028"/><polyline id="_tag_1_75__1_1" fill="none" stroke="#000" stroke-width=".1" points="50.444 153.989 50.104 154.667 49.729 155.347 49.322 156.027 48.887 156.697 48.21 157.563 47.497 158.337 46.762 159.013 46.018 159.586 45.279 160.05 44.558 160.402 43.869 160.632 43.224 160.738"/><polyline id="_tag_1_76__1_1" fill="none" stroke="#000" stroke-width=".1" points="41.12 159.353 42.17 159.143 43.102 158.735 44.064 158.131 45.032 157.345 45.981 156.392 46.887 155.285"/><polyline id="_tag_1_77__1_1" fill="none" stroke="#000" stroke-width=".1" points="65.951 172.574 66.356 172.082 66.867 171.692 67.591 171.406 68.037 171.284 68.505 171.147 68.979 170.987 69.443 170.802 69.88 170.584 70.273 170.329 70.607 170.031 70.865 169.685 71.061 169.267 71.288 168.764 71.529 168.219 71.766 167.677 71.982 167.179 72.157 166.77 72.319 166.39"/><polygon id="_tag_1_78_" fill="none" stroke="#000" stroke-width=".1" points="77.039 165.059 76.493 165.647 75.933 165.76 75.261 165.709 74.629 165.563 74.141 165.285 73.837 164.915 73.76 164.495 74.361 163.928 74.92 163.788 75.577 163.78 76.195 163.969 76.868 164.459 77.05 164.857"/><polyline id="_tag_1_79__1_1" fill="none" stroke="#000" stroke-width=".1" points="73.835 164.977 73.656 164.564 73.648 163.984 73.995 163.621 74.549 163.398 75.249 163.337 76.025 163.438 76.688 163.698 77.157 164.081 77.387 164.52 77.285 165.015 76.952 165.4"/><polyline id="_tag_1_80__1_1" fill="none" stroke="#000" stroke-width=".1" points="67.522 171.983 68.324 171.729 68.916 171.572 69.603 171.421 70.358 171.292 71.158 171.205 71.976 171.179 72.788 171.231 73.756 171.376 74.962 171.533 76.292 171.691 77.634 171.841 78.874 171.974 79.9 172.081 80.599 172.152"/><polyline id="_tag_1_81__1_1" fill="none" stroke="#000" stroke-width=".1" points="78.261 178.684 77.699 178.565 77.139 178.453 76.605 178.353 76.118 178.264 75.7 178.192 75.163 178.101 74.947 177.341 74.86 176.86 74.766 176.326 74.674 175.775 74.592 175.248 74.529 174.78 74.435 173.997 74.315 173.593 74.121 173.195 73.835 172.814 73.439 172.46 72.913 172.146 72.239 171.882 71.554 171.696 70.88 171.597 70.217 171.575 69.566 171.62 68.928 171.721 68.304 171.869 67.693 172.054 67.097 172.266 66.543 172.498 66.049 172.739 65.599 172.97 65.179 173.174 64.773 173.332 64.365 173.427 63.94 173.44 63.484 173.353 62.924 173.159 62.232 172.881 61.448 172.541 60.617 172.166 59.779 171.78 58.979 171.406 58.258 171.07 57.659 170.795 57.129 170.605 56.641 170.518 56.205 170.509 55.522 170.634 55.148 170.788"/><polyline id="_tag_1_82__1_1" fill="none" stroke="#000" stroke-width=".1" points="81.246 171.96 80.733 171.614 80.454 171.203 80.314 170.435 80.356 169.678 80.454 168.75 80.586 167.758 80.728 166.805 80.858 165.995 80.952 165.432 80.946 164.726"/><polyline id="_tag_1_83__1" fill="none" stroke="#000" stroke-width=".1" points="81.103 172.056 81.161 172.535 81.192 173.53 81.301 174.053 81.503 174.648 81.754 175.512 82.253 176.364 83 177.464 83.866 178.287 84.663 178.896 85.873 179.667 86.723 180.004 87.781 180.187"/><polyline id="_tag_1_84__1_1" fill="none" stroke="#000" stroke-width=".1" points="76.115 156.882 76.735 157.092 77.223 157.258 77.759 157.443 78.291 157.63 78.764 157.8 79.412 158.131 79.629 158.616 79.846 159.225 79.989 159.667 80.145 160.147 80.786 160.419 81.87 160.791 83.365 161.315 85.072 161.921 86.784 162.539 88.297 163.097 89.409 163.528 90.316 163.954 90.829 164.254 91.311 164.749 91.62 165.532 91.743 166.269 91.834 167.062 91.852 167.882 91.756 168.697 91.507 169.478 91.066 170.194 90.39 170.815 89.44 171.311 88.338 171.719 87.252 172.095 86.215 172.435 85.263 172.733 84.427 172.982 83.745 173.179 83.248 173.318 82.58 173.418 82.142 173.268 81.736 173.004 81.441 172.688"/><polyline id="_tag_1_85__1_1" fill="none" stroke="#000" stroke-width=".1" points="90.536 164.821 89.834 164.866 88.685 165.005 87.254 165.207 85.708 165.441 84.216 165.676 82.943 165.882 82.057 166.028 81.652 166.093 81.264 166.301"/><polyline id="_tag_1_86__1_1" fill="none" stroke="#000" stroke-width=".1" points="72.635 153.915 72.822 153.423 73.109 152.985 73.486 152.606 73.941 152.293 74.462 152.051 75.038 151.885 75.657 151.802 76.308 151.808 76.913 151.912 77.475 152.096 77.986 152.351 78.438 152.67 78.82 153.044 79.125 153.465 79.344 153.924 79.467 154.415"/><polyline id="_tag_1_87__1_1" fill="none" stroke="#000" stroke-width=".1" points="79.664 155.143 79.874 155.691 80.438 156.463 81.555 157.341 82.379 157.758 83.568 158.217 85.217 158.846 87.192 159.604 89.356 160.452 91.576 161.346 93.715 162.249 95.638 163.117 97.21 163.913 98.143 164.431 98.994 164.861 99.36 165.024 100.071 165.205"/><polyline id="_tag_1_88__1_1" fill="none" stroke="#000" stroke-width=".1" points="91.652 164.408 93.054 165.034 94.939 165.914 96.293 166.587 97.551 167.26 98.453 167.794 99.288 168.424 100.071 169.342 100.477 170.273 100.576 171.192"/><polyline id="_tag_1_89__1_1" fill="none" stroke="#000" stroke-width=".1" points="71.914 150.543 72.096 150.064 72.366 149.64 72.644 149.307 73.117 148.93 73.671 148.636 74.288 148.435 74.955 148.338 75.656 148.357 76.354 148.469 76.989 148.688 77.551 148.999 78.027 149.39 78.406 149.85 78.677 150.366 78.83 150.923 78.851 151.511 78.662 152.11 78.652 152.659"/><polyline id="_tag_1_90__1_1" fill="none" stroke="#000" stroke-width=".1" points="72.115 145.905 71.678 146.619 71.508 147.398 71.486 147.917 71.521 148.453 71.685 150.279 71.802 151.009 71.961 151.549 72.168 151.977 72.407 152.37 72.71 152.949 72.727 153.555"/><polyline id="_tag_1_91__1_1" fill="none" stroke="#000" stroke-width=".1" points="76.868 145.057 76.008 144.856 75.558 144.774 74.982 144.741 74.309 144.8 73.57 145 72.795 145.387 72.015 146.007"/><polyline id="_tag_1_92__1_1" fill="none" stroke="#000" stroke-width=".1" points="76.879 146.686 77.493 146.851 78.206 147.055 79.141 147.338 80.262 147.7 81.532 148.138 82.916 148.652 84.377 149.239 85.864 149.839 87.349 150.473 88.797 151.147 90.172 151.867 91.438 152.64 92.559 153.473 93.501 154.371 94.228 155.341"/><polyline id="_tag_1_93__1_1" fill="none" stroke="#000" stroke-width=".1" points="78.772 152.874 78.997 152.387 79.337 152.085 79.881 152.016 80.415 152.144 81.214 152.405 82.173 152.752 83.19 153.139 84.161 153.52 84.982 153.849 85.55 154.08 86.474 153.945 87.297 153.789 88.375 153.714 89.664 153.801 91.122 154.134 92.704 154.793 94.368 155.862"/><polyline id="_tag_1_94__1_1" fill="none" stroke="#000" stroke-width=".1" points="78.772 152.874 78.997 152.387 79.337 152.085 79.881 152.016 80.415 152.144 81.214 152.405 82.173 152.752 83.19 153.139 84.161 153.52 84.982 153.849 85.55 154.08 86.474 153.945 87.297 153.789 88.375 153.714 89.664 153.801 91.122 154.134 92.704 154.793 94.368 155.862"/><polyline id="_tag_1_95__1_1" fill="none" stroke="#000" stroke-width=".1" points="85.555 154.223 84.895 154.604 84.455 154.931 83.95 155.378 83.408 155.955 82.857 156.675 82.323 157.55"/><polyline id="_tag_1_96__1" fill="none" stroke="#000" stroke-width=".1" points="84.248 158.476 85.519 157.957 86.534 157.662 87.965 157.411 89.71 157.348 91.525 157.56 93.686 158.213 95.497 159.104 97.04 160.256 98.181 161.394 98.981 162.459 99.498 163.389 99.794 164.128 99.927 164.614"/><polyline id="_tag_1_98__1_1" fill="none" stroke="#000" stroke-width=".1" points="5.854 157.711 6.359 157.54 6.823 157.379 7.282 157.214 7.905 157.226 8.33 157.372 8.794 157.622 9.271 157.987 9.733 158.475 10.154 159.096 10.507 159.859 10.774 160.768 10.904 161.586 10.916 162.308 10.828 162.933 10.657 163.457 10.422 163.877 10.142 164.191 9.504 164.529 8.817 164.725 8.215 164.837 7.791 164.89"/><polygon id="_tag_1_99_" fill="none" stroke="#000" stroke-width=".1" points="6.07 161.615 6.178 162.12 6.232 162.612 6.234 163.075 6.187 163.496 5.956 164.158 5.562 164.487 5.005 164.42 4.46 163.975 4.209 163.631 3.98 163.219 3.778 162.748 3.611 162.224 3.492 161.687 3.428 161.178 3.419 160.705 3.463 160.281 3.709 159.622 4.156 159.286 4.692 159.39 5.225 159.855 5.474 160.203 5.702 160.619 5.903 161.092"/><polygon id="_tag_1_100_" fill="none" stroke="#000" stroke-width=".1" points="6.07 161.615 6.194 162.368 6.155 163.016 5.966 163.496 5.639 163.742 5.239 163.683 4.847 163.34 4.5 162.777 4.235 162.055 4.11 161.304 4.143 160.65 4.313 160.158 5.006 159.942 5.414 160.271 5.783 160.843"/><polyline id="_tag_1_101__1_1" fill="none" stroke="#000" stroke-width=".1" points="5.894 156.416 6.181 155.955 6.544 155.715 7.106 155.532 7.849 155.457 8.624 155.623 9.004 155.803 9.366 156.051 9.703 156.368 10.005 156.757 10.284 157.193 10.55 157.639 10.797 158.083 11.016 158.515 11.2 158.922 11.43 159.617 11.461 160.099 11.395 160.58 11.314 161.038 11.334 161.478 11.61 161.878 11.729 162.32 11.574 163.008 11.404 163.607 11.205 164.282 10.999 164.961 10.81 165.573 10.661 166.048 10.529 166.444 10.357 166.844"/><polyline id="_tag_1_102__1_1" fill="none" stroke="#000" stroke-width=".1" points="6.121 156.021 6.524 155.706 7.072 155.464 7.722 155.222 8.402 155.065 9.153 155.137 9.537 155.26 9.913 155.444 10.274 155.694 10.611 156.013 10.913 156.402 11.195 156.839 11.469 157.289 11.726 157.739 11.957 158.178 12.153 158.593 12.304 158.97 12.436 159.563 12.408 160.018 12.318 160.495 12.238 160.895 12.389 161.302 12.621 161.667 12.665 162.234 12.554 162.68 12.39 163.268 12.198 163.931 11.999 164.598 11.816 165.2 11.671 165.668 11.524 166.04"/><polyline id="_tag_1_103__1_1" fill="none" stroke="#000" stroke-width=".1" points="12.704 162.001 13.035 161.577 13.773 161.21 12.475 158.883"/><polyline id="_tag_1_104__1_1" fill="none" stroke="#000" stroke-width=".1" points="12.494 166.188 12.643 165.731 12.795 165.253 12.97 164.692 13.144 164.111 13.295 163.571 13.4 163.134 13.771 162.438 14.821 161.988 15.03 161.623"/><polyline id="_tag_1_105__1_1" fill="none" stroke="#000" stroke-width=".1" points="9.913 155.387 10.561 155.331 11.189 155.491 11.859 155.979 12.243 156.465 12.717 157.166 13.238 157.993 13.761 158.863 14.243 159.688 14.642 160.384 14.913 160.864"/><polygon id="_tag_1_106_" fill="none" stroke="#000" stroke-width=".1" points="13.801 161.314 14.262 159.855 14.738 158.113 15.289 155.764 15.848 152.864 16.349 149.466 16.723 145.625 16.917 141.12 15.458 140.973 15.237 145.56 15.134 146.567 14.845 149.394 14.333 152.785 13.766 155.68 13.211 158.025 12.733 159.767 12.398 160.851 12.603 161.632 13.338 161.604"/><polygon id="_tag_1_13_" fill="none" stroke="#000" stroke-width=".1" points="32.786 125.998 32.227 126.97 31.51 127.784 30.665 128.432 29.719 128.904 28.703 129.19 27.645 129.284 26.575 129.173 25.52 128.851 24.548 128.292 23.735 127.576 23.091 126.729 22.627 125.782 22.352 124.763 22.278 123.699 22.414 122.622 22.77 121.558 23.297 120.592 23.992 119.778 24.825 119.129 25.767 118.656 26.786 118.37 27.852 118.286 28.932 118.415 29.998 118.769 30.951 119.317 31.756 120.028 32.4 120.872 32.871 121.817 33.158 122.833 33.247 123.888 33.127 124.953"/><polygon id="_tag_1_14_" fill="none" stroke="#000" stroke-width=".1" points="32.351 125.837 31.852 126.718 31.2 127.461 30.424 128.055 29.552 128.489 28.613 128.751 27.636 128.835 26.649 128.726 25.682 128.416 24.799 127.917 24.056 127.265 23.463 126.489 23.029 125.617 22.766 124.679 22.683 123.702 22.791 122.716 23.1 121.748 23.611 120.846 24.268 120.094 25.045 119.499 25.914 119.07 26.848 118.814 27.821 118.738 28.804 118.853 29.77 119.165 30.671 119.677 31.424 120.334 32.018 121.111 32.448 121.98 32.704 122.915 32.779 123.887 32.664 124.87"/><polygon id="_tag_1_15_" fill="none" stroke="#000" stroke-width=".1" points="30.189 124.857 29.912 125.342 29.561 125.747 29.148 126.069 28.689 126.301 28.197 126.44 27.685 126.483 27.168 126.423 26.66 126.256 26.175 125.979 25.77 125.627 25.449 125.214 25.217 124.755 25.077 124.263 25.035 123.752 25.095 123.235 25.262 122.726 25.539 122.241 25.891 121.835 26.303 121.514 26.762 121.282 27.255 121.142 27.766 121.101 28.282 121.162 28.79 121.328 29.276 121.605 29.682 121.957 30.003 122.369 30.235 122.828 30.375 123.32 30.416 123.832 30.356 124.349"/><polygon id="_tag_1_16_" fill="none" stroke="#000" stroke-width=".1" points="29.623 124.619 29.403 124.976 29.126 125.276 28.452 125.682 27.692 125.807 26.937 125.622 26.567 125.424 26.259 125.163 25.841 124.51 25.711 123.757 25.895 123.003 26.094 122.632 26.354 122.324 27.008 121.907 27.761 121.777 28.515 121.96 28.885 122.159 29.195 122.419 29.62 123.078 29.769 123.843"/><polyline id="_tag_1_43__1_1" fill="none" stroke="#000" stroke-width=".1" points="11.541 129.166 11.597 129.732 11.949 130.444 12.274 130.796 12.719 131.115 13.299 131.379 14.03 131.563 14.858 131.656 15.671 131.714 16.441 131.746 17.137 131.756 17.73 131.753 18.191 131.742 18.595 131.726"/><polyline id="_tag_1_44__1_1" fill="none" stroke="#000" stroke-width=".1" points="12.595 127.485 12.222 127.888 12.01 128.599 12.044 129.007 12.213 129.417 12.551 129.803 13.088 130.142 13.757 130.384 14.593 130.544 15.517 130.637 16.45 130.679 17.312 130.685 18.026 130.669 18.512 130.649"/><polygon id="_tag_1_45_" fill="none" stroke="#000" stroke-width=".1" points="18.735 128.731 18.578 129.254 18.032 129.666 17.641 129.823 17.186 129.941 16.679 130.017 16.132 130.046 15.569 130.048 15.044 129.995 14.568 129.892 14.152 129.744 13.553 129.33 13.362 128.518 13.724 128.047 14.432 127.7 14.887 127.581 15.393 127.505 15.94 127.476 16.491 127.495 17.007 127.564 17.478 127.677 17.891 127.828 18.499 128.228"/><polygon id="_tag_1_46_" fill="none" stroke="#000" stroke-width=".1" points="17.891 129.126 17.409 129.813 16.843 130.004 16.132 130.046 15.428 130.003 14.606 129.705 14.296 129.395 14.514 128.698 14.992 128.465 15.633 128.328 16.361 128.302 17.029 128.423 17.731 128.802"/><polyline id="_tag_1_97__1_1" fill="none" stroke="#000" stroke-width=".1" points="67.222 67.148 63.435 69.989 59.477 72.938 55.433 75.925 51.39 78.881 47.434 81.734 43.651 84.416 40.127 86.857 36.949 88.985 31.875 92.878 27.741 96.685 23.782 101.139 20.649 106.145 18.945 109.552 16.544 115.217 14.969 121.466 14.255 128.265 14.337 128.989 14.629 129.49 15.137 129.785 15.868 129.894 16.29 129.886 16.703 129.836 17.093 129.74 17.749 129.394 18.142 128.814 18.844 122.186 20.244 116.504 22.378 111.394 24.097 107.949 26.906 103.486 30.473 99.52 34.544 95.818 39.161 92.304 42.945 89.764 47.184 86.814 51.738 83.566 56.469 80.132 61.237 76.625 65.904 73.157 70.328 69.841 74.372 66.79"/><polyline id="_tag_1_8__1_1" fill="none" stroke="#000" stroke-width=".1" points="38.411 158.41 38.88 158.324 39.373 158.227 39.96 158.103 40.578 157.961 41.167 157.807 41.665 157.649 42.49 157.237 43.363 156.803 44.548 156.243 45.963 155.612 47.528 154.957 49.158 154.334 50.772 153.791 52.289 153.381 53.707 153.102 55.047 152.906 56.331 152.814 57.58 152.852 58.815 153.043 60.058 153.41 61.33 153.978 62.653 154.769 63.894 155.59 64.943 156.32 65.829 156.98 66.581 157.587 67.223 158.161 67.784 158.719 68.292 159.283 68.773 159.869 69.23 160.488 69.624 161.165 69.958 161.867 70.238 162.557 70.471 163.203 70.658 163.771 70.809 164.225 71.043 164.812 71.481 165.498 71.825 165.874 72.266 166.255 72.816 166.621 73.485 166.96 74.284 167.255 75.09 167.435 75.805 167.519 76.443 167.521 77.02 167.444 77.549 167.3 78.046 167.095 78.526 166.839 79.002 166.539 79.403 166.15 79.707 165.667 79.931 165.114 80.087 164.516 80.192 163.902 80.26 163.296 80.307 162.725 80.346 162.215 80.365 161.521 80.317 160.889 80.201 160.316 80.02 159.797 79.778 159.33 79.476 158.91 79.117 158.531 78.701 158.193 78.33 157.945 77.918 157.726 77.479 157.53 77.031 157.354 76.589 157.195 76.171 157.048 75.793 156.909 75.083 156.495 74.542 156.028 73.897 155.43 73.197 154.754 72.49 154.054 71.825 153.382 71.251 152.794 70.814 152.342 70.41 151.905 69.925 151.352 69.407 150.723 68.9 150.055 68.451 149.386 68.105 148.757 67.908 148.205 67.907 147.77 68.273 147.171 68.934 146.634 69.396 146.368 69.959 146.093 70.63 145.801 71.42 145.482 72.214 145.131 72.915 144.828 73.523 144.574 74.035 144.371 74.452 144.219 75.118 144.092 75.952 144.416 76.736 144.699 77.666 145.03 78.668 145.387 79.668 145.745 80.593 146.079 81.368 146.368"/></g></svg>
