<svg xmlns="http://www.w3.org/2000/svg" width="297mm" height="210mm" viewBox="0 0 297 210"><g id="Ebene_x0020_1"><g id="_196085216"><polygon id="_133777624" fill="none" stroke="#000" stroke-width=".1" points="144.938 166.233 144.932 166.223 144.287 165.085 143.963 163.905 143.941 162.731 144.205 161.61 144.738 160.589 145.521 159.716 146.538 159.04 147.771 158.607 147.809 154.895 146.629 154.324 145.689 153.536 145.001 152.581 144.579 151.507 144.435 150.364 144.582 149.2 145.033 148.064 145.8 147.007 143.781 144.019 142.505 144.235 141.302 144.131 140.209 143.741 139.265 143.099 138.509 142.239 137.981 141.196 137.719 140.005 137.761 138.698 134.323 137.32 108.911 159.273 110.147 159.703 111.17 160.376 111.961 161.244 112.503 162.261 112.777 163.38 112.765 164.552 112.447 165.731 111.807 166.869 114.224 169.679 115.485 169.328 116.71 169.299 117.855 169.562 118.88 170.09 119.741 170.854 120.398 171.825 120.808 172.975 120.929 174.276 124.522 175.213 125.361 174.207 126.353 173.486 127.446 173.05 128.59 172.901 129.734 173.038 130.827 173.462 131.819 174.175 132.66 175.175 136.134 173.904 136.25 172.6 136.653 171.444 137.303 170.465 138.157 169.693 139.175 169.157 140.315 168.885 141.536 168.907 142.796 169.253 144.938 166.233"/><polyline id="_199212544" fill="none" stroke="#000" stroke-width=".1" points="126.909 142.593 129.63 142.598 132.216 143.129 134.609 144.137 136.749 145.574 138.577 147.391 140.035 149.54 141.062 151.972 141.6 154.639 141.6 154.639 141.628 156.987 141.263 159.241 140.533 161.364 139.472 163.319 138.108 165.067 136.474 166.571 134.601 167.793 132.518 168.696"/></g><g id="_189161248"><polygon id="path5036" fill="none" stroke="#000" stroke-width=".1" points="131.641 99.674 130.728 99.704 130.385 95.965 130.423 95.44 130.5 94.979 130.645 94.545 130.887 94.1 131.256 93.608 131.782 93.033 132.494 92.337 133.421 91.484 133.421 91.484 134.155 90.762 134.84 90.126 135.538 89.598 136.309 89.198 137.215 88.948 138.317 88.867 139.677 88.978 141.356 89.301 141.356 89.301 144.659 90.518 147.785 91.977 150.737 93.635 153.516 95.45 156.124 97.379 158.563 99.381 160.836 101.412 162.944 103.43 163.403 107.048 131.641 99.674"/><polygon id="_134042808" fill="none" stroke="#000" stroke-width=".1" points="134.236 129.585 134.228 129.593 130.812 128.528 130.753 127.266 130.408 126.137 129.817 125.171 129.02 124.396 128.054 123.842 126.961 123.538 125.778 123.513 124.544 123.797 122.336 120.984 123.005 119.912 123.363 118.787 123.426 117.655 123.21 116.563 122.73 115.557 122.003 114.682 121.043 113.987 119.867 113.516 119.653 109.933 120.813 109.433 121.747 108.712 122.443 107.818 122.888 106.798 123.066 105.698 122.965 104.567 122.572 103.45 121.872 102.395 123.732 99.334 124.97 99.582 126.148 99.521 127.229 99.182 128.175 98.595 128.947 97.793 129.509 96.806 129.821 95.664 129.846 94.4 157.625 111.188 157.388 114.76 156.174 115.111 155.157 115.709 154.357 116.507 153.793 117.458 153.485 118.517 153.453 119.639 153.718 120.776 154.298 121.884 152.156 124.633 150.955 124.245 149.777 124.17 148.663 124.383 147.655 124.858 146.795 125.567 146.123 126.485 145.68 127.584 145.508 128.84 142.085 129.915 141.318 128.912 140.392 128.179 139.356 127.72 138.258 127.536 137.149 127.629 136.076 128 135.089 128.652 134.236 129.585"/><ellipse id="_133479872" cx="138.672" cy="111.165" fill="none" stroke="#000" stroke-width=".1" rx="17.106" ry="6.676"/></g><polyline id="_new_210_1" fill="none" stroke="#000" stroke-width=".1" points="25.328 62.082 26.475 64.085 27.713 66.035 29.053 67.938 30.503 69.801 32.072 71.629 33.77 73.427 35.605 75.202 37.585 76.959 37.585 76.959 41.09 79.759 45.028 82.558 49.436 85.379 54.348 88.246 59.8 91.18 65.827 94.205 72.465 97.343 79.748 100.618 77.538 105.644 70.062 102.282 63.242 99.053 57.04 95.934 51.42 92.901 46.346 89.93 41.78 86.998 37.687 84.081 34.028 81.155 34.028 81.155 32.468 79.789 30.99 78.414 29.59 77.029 28.266 75.632 27.014 74.221 25.83 72.792 24.711 71.345 23.653 69.876"/><g id="_132576032"><polygon id="_189396144" fill="none" stroke="#000" stroke-width=".1" points="155.966 134.186 156.768 133.941 156.891 133.922 157.019 133.934 157.149 133.975 157.273 134.038 157.388 134.121 157.487 134.219 157.565 134.328 157.618 134.444 157.618 134.444 157.64 134.564 157.637 134.694 157.611 134.826 157.563 134.955 157.497 135.074 157.414 135.177 157.316 135.257 157.207 135.308 149.694 137.608 149.344 137.687 149.027 137.696 148.745 137.641 148.497 137.528 148.284 137.363 148.107 137.154 147.964 136.906 147.857 136.626 146.933 133.605 154.53 131.279 155.294 133.775 155.342 133.905 155.399 134.013 155.466 134.099 155.543 134.162 155.631 134.202 155.73 134.22 155.842 134.214 155.966 134.186"/><polyline id="_133562200" fill="none" stroke="#000" stroke-width=".1" points="155.467 134.338 149.646 136.12 149.463 136.162 149.297 136.174 149.147 136.153 149.013 136.1 148.896 136.015 148.794 135.897 148.708 135.745 148.638 135.56 147.945 133.294"/></g><polygon id="path5054" fill="none" stroke="#000" stroke-width=".1" points="135.618 114.232 135.149 112.352 134.541 110.035 133.857 107.494 133.158 104.94 132.506 102.584 131.964 100.639 131.593 99.317 131.456 98.829 131.456 98.829 131.463 98.879 131.48 98.996 131.501 99.132 131.521 99.241 131.534 99.275 131.534 99.186 131.516 98.927 131.475 98.45 131.475 98.45 131.468 97.908 131.547 97.469 131.693 97.116 131.888 96.832 132.116 96.597 132.358 96.394 132.596 96.205 132.813 96.011 132.813 96.011 133.225 95.598 133.64 95.187 134.059 94.779 134.482 94.377 134.911 93.98 135.346 93.591 135.788 93.211 136.239 92.841 136.239 92.841 136.832 92.526 137.567 92.372 138.401 92.35 139.291 92.433 140.192 92.591 141.06 92.796 141.853 93.02 142.525 93.233 142.525 93.233 144.441 93.883 146.356 94.585 148.295 95.395 150.282 96.367 152.342 97.555 154.499 99.014 156.778 100.798 159.203 102.961 159.203 102.961 159.484 103.258 159.738 103.57 159.971 103.883 160.193 104.179 160.413 104.441 160.638 104.653 160.878 104.799 161.141 104.861 161.141 104.861 161.413 104.793 161.658 104.592 161.883 104.309 162.096 103.994 162.301 103.698 162.507 103.471 162.719 103.365 162.945 103.429 162.945 103.429 164.2 104.401 165.514 105.597 166.796 106.993 167.958 108.567 168.909 110.293 169.559 112.149 169.819 114.111 169.599 116.155 169.599 116.155 169.106 117.733 168.42 119.233 167.584 120.672 166.639 122.065 165.627 123.429 164.589 124.781 163.569 126.136 162.606 127.511 162.606 127.511 162.501 127.648 162.379 127.771 162.246 127.883 162.104 127.987 161.956 128.085 161.806 128.181 161.657 128.279 161.514 128.379 161.514 128.379 161.372 128.483 161.23 128.586 161.086 128.688 160.942 128.788 160.797 128.887 160.651 128.985 160.505 129.082 160.357 129.177 160.357 129.177 160.175 129.294 159.992 129.409 159.808 129.523 159.623 129.635 159.437 129.747 159.251 129.857 159.064 129.966 158.876 130.073 158.876 130.073 158.693 130.176 158.51 130.279 158.326 130.38 158.141 130.48 157.955 130.578 157.768 130.674 157.58 130.768 157.391 130.859 157.391 130.859 157.163 130.967 156.934 131.075 156.704 131.18 156.474 131.284 156.242 131.384 156.009 131.48 155.774 131.572 155.537 131.658 155.537 131.658 155.346 131.721 155.152 131.776 154.957 131.826 154.761 131.873 154.564 131.917 154.368 131.961 154.171 132.006 153.976 132.054 153.976 132.054 153.526 132.172 153.077 132.292 152.628 132.413 152.179 132.533 151.729 132.652 151.279 132.769 150.828 132.881 150.376 132.989 150.376 132.989 150.019 133.067 149.661 133.139 149.302 133.207 148.943 133.272 148.583 133.337 148.224 133.403 147.865 133.472 147.507 133.546 147.507 133.546 147.161 133.621 146.815 133.699 146.47 133.779 146.125 133.861 145.78 133.944 145.435 134.028 145.091 134.113 144.748 134.198 144.748 134.198 144.552 134.247 144.357 134.297 144.162 134.348 143.968 134.4 143.774 134.453 143.58 134.507 143.387 134.563 143.194 134.621 143.194 134.621 142.935 134.701 142.676 134.782 142.418 134.865 142.16 134.949 141.903 135.034 141.646 135.121 141.389 135.21 141.133 135.299 141.133 135.299 140.892 135.385 140.65 135.473 140.409 135.562 140.169 135.652 139.929 135.744 139.689 135.837 139.45 135.931 139.212 136.026 139.212 136.026 139.077 136.082 138.943 136.138 138.809 136.196 138.676 136.256 138.543 136.316 138.411 136.378 138.28 136.442 138.149 136.506 138.149 136.506 138.017 136.574 137.885 136.643 137.754 136.713 137.623 136.785 137.493 136.858 137.364 136.932 137.236 137.007 137.108 137.084 137.108 137.084 136.997 137.151 136.887 137.219 136.778 137.288 136.67 137.358 136.562 137.43 136.456 137.503 136.351 137.578 136.247 137.655 136.247 137.655 136.137 137.741 136.027 137.828 135.919 137.917 135.812 138.007 135.707 138.099 135.603 138.193 135.5 138.288 135.399 138.384 135.399 138.384 135.314 138.467 135.231 138.552 135.15 138.639 135.07 138.727 134.991 138.816 134.913 138.906 134.836 138.996 134.759 139.086 134.759 139.086 134.668 139.19 134.578 139.294 134.488 139.399 134.399 139.504 134.311 139.611 134.226 139.719 134.144 139.829 134.065 139.942 134.065 139.942 133.99 140.058 133.919 140.177 133.851 140.297 133.786 140.419 133.722 140.542 133.66 140.666 133.598 140.79 133.537 140.914 133.537 140.914 133.467 141.053 133.396 141.193 133.326 141.333 133.258 141.474 133.192 141.615 133.129 141.758 133.072 141.903 133.02 142.05 133.02 142.05 132.959 142.245 132.902 142.44 132.849 142.637 132.801 142.835 132.756 143.034 132.716 143.234 132.68 143.434 132.648 143.635 132.648 143.635 132.617 143.862 132.592 144.089 132.571 144.317 132.554 144.545 132.541 144.774 132.531 145.002 132.523 145.231 132.518 145.459 132.518 145.459 132.513 145.786 132.512 146.114 132.514 146.441 132.519 146.769 132.526 147.097 132.535 147.424 132.546 147.751 132.558 148.079 132.558 148.079 132.574 148.448 132.591 148.817 132.611 149.185 132.633 149.554 132.656 149.923 132.679 150.292 132.703 150.661 132.728 151.029 132.728 151.029 132.758 151.498 132.79 151.967 132.823 152.436 132.856 152.904 132.89 153.373 132.924 153.842 132.958 154.31 132.992 154.779 132.992 154.779 133.027 155.285 133.061 155.792 133.094 156.298 133.128 156.805 133.163 157.311 133.2 157.817 133.24 158.323 133.283 158.829 133.283 158.829 133.335 159.393 133.391 159.957 133.449 160.521 133.509 161.085 133.571 161.649 133.632 162.212 133.694 162.776 133.754 163.339 133.754 163.339 133.785 163.634 133.815 163.928 133.845 164.222 133.876 164.517 133.907 164.811 133.938 165.105 133.971 165.399 134.005 165.693 134.005 165.693 134.03 165.896 134.056 166.098 134.083 166.3 134.111 166.502 134.14 166.704 134.168 166.906 134.196 167.109 134.223 167.311 134.223 167.311 134.244 167.472 134.264 167.634 134.283 167.796 134.303 167.957 134.323 168.119 134.344 168.281 134.366 168.442 134.39 168.603 134.39 168.603 134.419 168.784 134.451 168.964 134.485 169.145 134.519 169.325 134.553 169.505 134.587 169.685 134.62 169.865 134.65 170.046 134.65 170.046 134.679 170.222 134.708 170.397 134.737 170.572 134.764 170.748 134.79 170.924 134.814 171.1 134.835 171.276 134.853 171.453 134.853 171.453 134.865 171.601 134.877 171.75 134.886 171.899 134.893 172.048 134.897 172.197 134.896 172.346 134.891 172.494 134.881 172.642 134.881 172.642 134.868 172.77 134.85 172.898 134.827 173.026 134.801 173.153 134.771 173.279 134.738 173.404 134.701 173.528 134.662 173.651 134.662 173.651 134.612 173.798 134.561 173.945 134.507 174.091 134.45 174.235 134.387 174.378 134.32 174.517 134.245 174.652 134.163 174.783 134.163 174.783 134.086 174.892 134.003 174.997 133.914 175.097 133.821 175.194 133.722 175.285 133.62 175.372 133.513 175.453 133.404 175.528 133.404 175.528 133.27 175.611 133.133 175.688 132.992 175.759 132.849 175.824 132.703 175.884 132.555 175.939 132.405 175.988 132.254 176.033 132.254 176.033 132.041 176.089 131.827 176.139 131.611 176.183 131.394 176.223 131.176 176.256 130.957 176.285 130.738 176.309 130.519 176.329 130.519 176.329 130.25 176.346 129.981 176.357 129.712 176.361 129.442 176.361 129.172 176.358 128.903 176.352 128.633 176.345 128.363 176.338 128.363 176.338 128.103 176.331 127.843 176.323 127.583 176.313 127.323 176.301 127.064 176.286 126.804 176.269 126.545 176.248 126.286 176.223 126.286 176.223 125.967 176.192 125.649 176.16 125.33 176.127 125.012 176.09 124.694 176.047 124.379 175.997 124.065 175.938 123.753 175.867 123.753 175.867 123.259 175.741 122.767 175.608 122.276 175.467 121.788 175.317 121.303 175.159 120.821 174.993 120.342 174.816 119.868 174.63 119.868 174.63 119.44 174.449 119.017 174.255 118.6 174.051 118.185 173.838 117.774 173.62 117.365 173.398 116.957 173.174 116.549 172.95 116.549 172.95 116.373 172.851 116.2 172.748 116.029 172.642 115.859 172.532 115.691 172.421 115.524 172.308 115.358 172.193 115.191 172.079 115.191 172.079 115.04 171.974 114.89 171.867 114.74 171.759 114.592 171.649 114.444 171.539 114.297 171.427 114.151 171.314 114.005 171.201 114.005 171.201 113.834 171.066 113.663 170.93 113.492 170.793 113.322 170.655 113.154 170.516 112.986 170.376 112.82 170.234 112.655 170.09 112.655 170.09 112.503 169.954 112.352 169.815 112.202 169.675 112.054 169.534 111.906 169.392 111.759 169.249 111.613 169.106 111.467 168.962 111.467 168.962 111.331 168.828 111.195 168.694 111.06 168.56 110.926 168.424 110.792 168.288 110.66 168.151 110.529 168.012 110.4 167.871 110.4 167.871 110.272 167.727 110.146 167.582 110.021 167.435 109.897 167.286 109.775 167.137 109.654 166.987 109.533 166.837 109.413 166.686 109.413 166.686 109.263 166.497 109.114 166.307 108.966 166.117 108.819 165.926 108.673 165.734 108.527 165.542 108.383 165.348 108.241 165.154 108.241 165.154 108.11 164.974 107.981 164.794 107.852 164.613 107.725 164.431 107.599 164.249 107.474 164.065 107.351 163.88 107.23 163.695 107.23 163.695 107.108 163.506 106.987 163.315 106.868 163.124 106.751 162.932 106.635 162.739 106.52 162.545 106.406 162.35 106.294 162.155 106.294 162.155 106.172 161.936 106.051 161.716 105.933 161.495 105.815 161.273 105.698 161.051 105.581 160.829 105.464 160.607 105.346 160.386 105.346 160.386 105.27 160.246 105.194 160.107 105.117 159.969 105.04 159.83 104.964 159.691 104.889 159.551 104.816 159.41 104.745 159.269 104.745 159.269 104.673 159.116 104.605 158.962 104.54 158.806 104.475 158.65 104.409 158.494 104.341 158.34 104.269 158.187 104.192 158.038 104.192 158.038 104.142 157.951 104.09 157.865 104.035 157.781 103.977 157.698 103.917 157.618 103.853 157.54 103.787 157.465 103.718 157.393 103.718 157.393 103.641 157.32 103.561 157.251 103.478 157.184 103.392 157.121 103.305 157.06 103.217 157 103.128 156.942 103.038 156.884 103.038 156.884 102.959 156.834 102.879 156.786 102.799 156.739 102.717 156.693 102.634 156.649 102.55 156.607 102.465 156.568 102.379 156.53 102.379 156.53 102.247 156.476 102.115 156.424 101.982 156.374 101.848 156.326 101.713 156.28 101.577 156.236 101.441 156.194 101.305 156.154 101.305 156.154 101.06 156.086 100.814 156.021 100.567 155.958 100.32 155.897 100.073 155.838 99.825 155.78 99.577 155.723 99.328 155.667 99.328 155.667 99.257 155.652 99.186 155.639 99.114 155.626 99.042 155.615 98.969 155.606 98.897 155.598 98.825 155.591 98.752 155.586 98.752 155.586 98.721 155.585 98.689 155.586 98.657 155.589 98.625 155.593 98.594 155.598 98.562 155.603 98.531 155.609 98.5 155.614 98.5 155.614 98.476 155.619 98.452 155.623 98.428 155.628 98.404 155.634 98.38 155.64 98.357 155.646 98.333 155.653 98.31 155.661 98.31 155.661 98.265 155.677 98.22 155.695 98.176 155.713 98.131 155.732 98.086 155.75 98.042 155.768 97.997 155.785 97.951 155.8 97.951 155.8 97.911 155.812 97.87 155.823 97.829 155.834 97.788 155.843 97.747 155.852 97.705 155.86 97.664 155.868 97.623 155.876 97.623 155.876 97.549 155.889 97.476 155.902 97.402 155.916 97.329 155.929 97.255 155.94 97.181 155.949 97.107 155.955 97.032 155.957 97.032 155.957 96.947 155.957 96.861 155.955 96.775 155.951 96.689 155.944 96.604 155.934 96.519 155.921 96.435 155.904 96.353 155.882 96.353 155.882 96.303 155.864 96.254 155.843 96.207 155.819 96.162 155.79 96.118 155.759 96.077 155.725 96.038 155.688 96.003 155.649 96.003 155.649 95.972 155.607 95.945 155.562 95.922 155.515 95.901 155.467 95.883 155.417 95.865 155.366 95.849 155.316 95.831 155.266 95.831 155.266 95.82 155.234 95.809 155.202 95.799 155.17 95.79 155.137 95.782 155.104 95.776 155.071 95.771 155.037 95.768 155.003 95.768 155.003 95.767 154.971 95.77 154.939 95.773 154.907 95.779 154.875 95.785 154.843 95.791 154.811 95.797 154.779 95.802 154.747 95.802 154.747 95.915 153.871 96.027 152.995 96.137 152.119 96.248 151.244 96.361 150.368 96.477 149.493 96.599 148.618 96.727 147.745 96.727 147.745 96.738 147.691 96.755 147.639 96.775 147.588 96.8 147.538 96.828 147.49 96.858 147.443 96.89 147.397 96.923 147.353 96.923 147.353 96.957 147.31 96.994 147.268 97.032 147.227 97.073 147.188 97.115 147.151 97.159 147.117 97.206 147.086 97.254 147.058 97.254 147.058 97.306 147.032 97.36 147.01 97.416 146.991 97.473 146.975 97.531 146.961 97.589 146.949 97.647 146.938 97.705 146.928 97.705 146.928 97.762 146.918 97.82 146.909 97.878 146.901 97.936 146.895 97.994 146.891 98.053 146.889 98.111 146.89 98.169 146.894 98.169 146.894 98.683 146.939 99.197 146.989 99.711 147.042 100.224 147.097 100.738 147.152 101.251 147.208 101.765 147.262 102.279 147.314 102.279 147.314 102.342 147.32 102.406 147.326 102.469 147.332 102.533 147.338 102.597 147.342 102.661 147.345 102.725 147.347 102.788 147.347 102.788 147.347 102.847 147.345 102.907 147.342 102.966 147.338 103.025 147.332 103.083 147.325 103.142 147.317 103.201 147.308 103.259 147.297 103.259 147.297 103.317 147.285 103.375 147.271 103.433 147.257 103.491 147.241 103.549 147.224 103.606 147.206 103.663 147.187 103.719 147.167 103.719 147.167 103.765 147.149 103.811 147.131 103.856 147.111 103.901 147.091 103.945 147.07 103.989 147.048 104.032 147.025 104.075 147.001 104.075 147.001 104.156 146.956 104.235 146.91 104.315 146.863 104.394 146.815 104.472 146.766 104.55 146.716 104.626 146.665 104.702 146.612 104.702 146.612 104.732 146.59 104.76 146.565 104.787 146.539 104.814 146.512 104.84 146.484 104.866 146.456 104.891 146.428 104.917 146.401 104.917 146.401 105.121 146.185 105.323 145.967 105.524 145.749 105.726 145.53 105.928 145.313 106.132 145.097 106.339 144.884 106.55 144.674 106.55 144.674 106.842 144.389 107.136 144.104 107.432 143.822 107.73 143.541 108.03 143.264 108.334 142.99 108.641 142.721 108.953 142.457 108.953 142.457 109.313 142.161 109.676 141.869 110.042 141.581 110.412 141.298 110.785 141.018 111.161 140.743 111.54 140.471 111.922 140.204 111.922 140.204 112.425 139.859 112.932 139.518 113.441 139.182 113.953 138.849 114.468 138.521 114.986 138.197 115.506 137.878 116.03 137.564 116.03 137.564 116.537 137.265 117.046 136.968 117.558 136.676 118.072 136.388 118.59 136.106 119.111 135.832 119.636 135.566 120.166 135.309 120.166 135.309 120.914 134.959 121.666 134.617 122.422 134.283 123.181 133.956 123.943 133.637 124.709 133.325 125.477 133.02 126.247 132.723 126.247 132.723 126.778 132.528 127.312 132.345 127.85 132.171 128.39 132.003 128.931 131.84 129.473 131.679 130.015 131.517 130.556 131.353 130.556 131.353 130.979 131.226 131.403 131.103 131.828 130.983 132.252 130.863 132.677 130.742 133.101 130.618 133.523 130.489 133.943 130.354 133.943 130.354 134.206 130.269 134.471 130.187 134.736 130.104 134.999 130.016 135.258 129.919 135.511 129.81 135.755 129.686 135.989 129.542 135.989 129.542 136.483 129.243 137.029 128.954 137.591 128.663 138.132 128.355 138.614 128.017 139.001 127.636 139.254 127.197 139.338 126.687 139.338 126.687 139.19 125.081 138.854 123.506 138.38 121.954 137.815 120.416 137.209 118.883 136.608 117.347 136.062 115.8 135.618 114.232"/><polygon id="path5054_0" fill="none" stroke="#000" stroke-width=".1" points="130.098 171.18 130.001 171.589 129.838 171.893 129.628 172.109 129.385 172.251 129.128 172.335 128.873 172.377 128.636 172.392 128.435 172.396 128.435 172.396 125.41 172.166 122.549 171.392 119.911 170.123 117.557 168.407 115.546 166.293 113.939 163.83 112.796 161.065 112.178 158.048 112.178 158.048 112.108 157.198 112.082 156.354 112.099 155.518 112.159 154.692 112.262 153.876 112.407 153.073 112.594 152.283 112.822 151.508 112.822 151.508 113.609 149.642 114.598 148.099 115.716 146.855 116.891 145.885 118.048 145.165 119.115 144.671 120.017 144.378 120.683 144.263 120.683 144.263 121.647 144.256 122.566 144.437 123.417 144.787 124.18 145.289 124.834 145.928 125.357 146.685 125.729 147.544 125.928 148.488 125.928 148.488 125.955 149.035 125.922 149.57 125.829 150.09 125.682 150.59 125.482 151.068 125.234 151.518 124.939 151.937 124.601 152.322 124.601 152.322 124.218 152.743 123.884 153.203 123.601 153.699 123.374 154.226 123.205 154.78 123.1 155.355 123.06 155.949 123.09 156.555 123.09 156.555 123.178 157.113 123.319 157.651 123.512 158.165 123.754 158.649 124.045 159.097 124.381 159.506 124.762 159.869 125.185 160.181 125.185 160.181 125.875 160.643 126.474 161.091 126.99 161.546 127.433 162.029 127.814 162.561 128.141 163.163 128.424 163.856 128.672 164.66 128.672 164.66 128.885 165.465 129.076 166.228 129.251 166.972 129.416 167.719 129.578 168.491 129.741 169.311 129.913 170.2 130.098 171.18"/><polygon id="path4567" fill="none" stroke="#000" stroke-width=".1" points="98.991 105.819 104.201 107.624 110.457 110.001 117.27 112.735 124.152 115.612 130.612 118.418 136.162 120.937 140.313 122.955 142.575 124.258 150.147 121.946 156.591 107.608 109.424 79.071 98.991 105.819"/><polygon id="path4712" fill="none" stroke="#000" stroke-width=".1" points="133.192 117.047 132.725 117.677 132.325 118.323 131.996 118.985 131.738 119.662 131.553 120.357 131.443 121.068 131.409 121.796 131.454 122.543 131.454 122.543 131.231 123.002 130.989 123.452 130.728 123.892 130.449 124.322 130.152 124.743 129.837 125.154 129.506 125.557 129.158 125.951 129.158 125.951 127.847 125.548 126.517 125.056 125.168 124.478 123.804 123.812 122.426 123.062 121.037 122.226 119.639 121.307 118.234 120.304 133.192 117.047"/><polygon id="path4534" fill="none" stroke="#000" stroke-width=".1" points="99.1 84.758 98.932 84.092 98.921 83.329 99.054 82.531 99.319 81.76 99.702 81.077 100.192 80.545 100.774 80.225 101.437 80.18 99.1 84.758"/><polyline id="path4536" fill="none" stroke="#000" stroke-width=".1" points="99.1 84.758 98.932 84.092 98.921 83.329 99.054 82.531 99.319 81.76 99.702 81.077 100.192 80.545 100.774 80.225 101.437 80.18"/><polygon id="path4538" fill="none" stroke="#000" stroke-width=".1" points="91.1 100.095 90.932 99.429 90.92 98.666 91.053 97.868 91.318 97.097 91.702 96.415 92.191 95.883 92.773 95.563 93.436 95.517 91.1 100.095"/><polyline id="path4540" fill="none" stroke="#000" stroke-width=".1" points="91.1 100.095 90.932 99.429 90.92 98.666 91.053 97.868 91.318 97.097 91.702 96.415 92.191 95.883 92.773 95.563 93.436 95.517"/><polygon id="path4544" fill="none" stroke="#000" stroke-width=".1" points="79.889 97.973 81.987 98.913 77.679 108.362 75.746 107.405 75.242 106.691 75.236 105.401 75.625 103.756 76.306 101.978 77.176 100.29 78.131 98.911 79.07 98.065 79.89 97.973"/><polygon id="path4550" fill="none" stroke="#000" stroke-width=".1" points="80.258 107.585 80.522 107.665 80.789 107.712 81.048 107.725 81.29 107.703 81.504 107.644 81.682 107.549 81.812 107.415 81.885 107.243 84.039 102.519 84.112 102.317 84.125 102.112 84.085 101.908 83.994 101.712 83.858 101.529 83.681 101.364 83.468 101.222 83.222 101.109 83.222 101.109 82.952 100.981 82.681 100.913 82.415 100.898 82.163 100.932 81.931 101.011 81.727 101.13 81.557 101.284 81.43 101.468 79.423 106.011 79.351 106.22 79.34 106.443 79.383 106.673 79.477 106.899 79.616 107.113 79.796 107.304 80.012 107.465 80.258 107.585"/><polyline id="path4552" fill="none" stroke="#000" stroke-width=".1" points="133.371 75.412 133.463 74.882 133.559 74.191 133.62 73.355 133.607 72.392 133.481 71.315 133.202 70.142 132.73 68.888 132.028 67.57 132.028 67.57 132.71 68.188 133.491 69.014 134.315 69.991 135.128 71.063 135.875 72.174 136.502 73.266 136.952 74.283 137.172 75.17"/><polygon id="path4577" fill="none" stroke="#000" stroke-width=".1" points="137.499 119.742 137.414 119.701 137.186 119.592 136.854 119.439 136.459 119.265 136.041 119.094 135.64 118.948 135.295 118.852 135.048 118.828 135.048 118.828 134.654 118.927 134.358 119.324 134.156 119.936 134.042 120.684 134.011 121.484 134.06 122.257 134.183 122.921 134.375 123.393 134.375 123.393 137.354 125.525 140.208 127.126 143.014 128.252 145.852 128.96 148.799 129.305 151.933 129.343 155.333 129.13 159.076 128.722 159.076 128.722 160.825 128.274 162.587 127.45 164.293 126.289 165.875 124.829 167.265 123.109 168.395 121.168 169.198 119.043 169.604 116.773 169.604 116.773 169.262 113.398 168.268 110.612 166.791 108.375 164.999 106.64 163.062 105.367 161.148 104.51 159.426 104.026 158.066 103.871 158.066 103.871 157.758 103.65 157.266 103.326 156.62 102.913 155.851 102.425 154.99 101.877 154.067 101.283 153.113 100.657 152.16 100.014 152.16 100.014 150.95 99.421 149.945 99.082 149.101 98.968 148.374 99.049 147.719 99.293 147.092 99.67 146.448 100.151 145.744 100.705 145.651 101.38 154.695 106.564 148.42 119.386 144.5 116.979 143.521 116.496 142.57 116.1 141.655 115.817 140.782 115.673 139.959 115.696 139.191 115.912 138.486 116.348 137.85 117.029 137.85 117.029 137.66 117.366 137.511 117.7 137.402 118.033 137.334 118.367 137.31 118.703 137.328 119.043 137.391 119.389 137.499 119.742"/><polyline id="path4577_1" fill="none" stroke="#000" stroke-width=".1" points="137.499 119.742 137.615 120.023 137.759 120.31 137.932 120.604 138.133 120.905 138.364 121.216 138.625 121.535 138.917 121.864 139.239 122.204 139.239 122.204 139.89 122.937 140.315 123.552 140.531 124.045 140.558 124.413 140.415 124.65 140.122 124.753 139.696 124.719 139.158 124.542 139.158 124.542 138.394 124.109 137.7 123.755 137.077 123.476 136.524 123.266 136.04 123.118 135.625 123.027 135.278 122.988 134.997 122.993 137.017 120.18 137.017 120.18"/><polygon id="path4581" fill="none" stroke="#000" stroke-width=".1" points="140.425 122.409 140.741 122.532 141.028 122.599 141.278 122.616 141.484 122.586 141.639 122.516 141.735 122.409 141.766 122.269 141.723 122.103 141.723 122.103 141.612 121.866 141.459 121.635 141.269 121.412 141.043 121.199 140.788 120.996 140.507 120.806 140.204 120.631 139.884 120.471 139.884 120.471 139.622 120.342 139.376 120.27 139.155 120.251 138.968 120.278 138.825 120.347 138.735 120.454 138.707 120.593 138.75 120.759 138.75 120.759 138.814 121.008 138.944 121.258 139.128 121.502 139.354 121.734 139.609 121.947 139.881 122.135 140.157 122.291 140.425 122.409"/><polygon id="path4583" fill="none" stroke="#000" stroke-width=".1" points="140.425 122.409 140.741 122.532 141.028 122.599 141.278 122.616 141.484 122.586 141.639 122.516 141.735 122.409 141.766 122.269 141.723 122.103 141.723 122.103 141.612 121.866 141.459 121.635 141.269 121.412 141.043 121.199 140.788 120.996 140.507 120.806 140.204 120.631 139.884 120.471 139.884 120.471 139.622 120.342 139.376 120.27 139.155 120.251 138.968 120.278 138.825 120.347 138.735 120.454 138.707 120.593 138.75 120.759 138.75 120.759 138.814 121.008 138.944 121.258 139.128 121.502 139.354 121.734 139.609 121.947 139.881 122.135 140.157 122.291 140.425 122.409"/><polygon id="path4592" fill="none" stroke="#000" stroke-width=".1" points="136.161 124.532 136.166 124.367 136.218 124.242 136.314 124.156 136.448 124.106 136.617 124.091 136.818 124.11 137.045 124.162 137.295 124.243 137.295 124.243 137.501 124.36 137.717 124.5 137.935 124.654 138.147 124.817 138.343 124.982 138.514 125.142 138.654 125.289 138.752 125.418 138.823 126.076 136.161 124.532"/><polyline id="path4594" fill="none" stroke="#000" stroke-width=".1" points="136.161 124.532 136.166 124.367 136.218 124.242 136.314 124.156 136.448 124.106 136.617 124.091 136.818 124.11 137.045 124.162 137.295 124.243 137.295 124.243 137.501 124.36 137.717 124.5 137.935 124.654 138.147 124.817 138.343 124.982 138.514 125.142 138.654 125.289 138.752 125.418 138.823 126.076"/><polyline id="path4596" fill="none" stroke="#000" stroke-width=".1" points="166.882 111.575 166.335 110.875 165.504 110.08 164.463 109.215 163.285 108.302 162.041 107.364 160.805 106.426 159.65 105.51 158.648 104.641 158.648 104.641 160.262 106.383 161.831 108.177 163.298 109.967 164.607 111.695 165.7 113.307 166.521 114.744 167.013 115.952 167.119 116.874 167.119 116.874 166.806 118.352 166.248 119.818 165.364 121.193 164.074 122.402 162.298 123.366 159.955 124.01 156.964 124.255 153.246 124.025 153.246 124.025 151.04 123.821 148.983 123.576 147.118 123.26 145.485 122.842 144.127 122.294 143.085 121.585 142.401 120.685 142.117 119.565"/><polygon id="path4598" fill="none" stroke="#000" stroke-width=".1" points="91.558 99.713 101.378 81.184 102.26 79.752 103.153 78.341 104.059 76.956 104.974 75.599 105.9 74.275 106.834 72.988 107.777 71.741 108.727 70.538 108.727 70.538 109.026 70.172 109.335 69.802 109.652 69.43 109.978 69.057 110.312 68.683 110.655 68.31 111.005 67.94 111.364 67.572 111.364 67.572 112.651 66.344 114.016 65.208 115.457 64.201 116.971 63.359 118.556 62.719 120.21 62.317 121.93 62.192 123.714 62.379 123.714 62.379 127.4 63.395 130.466 64.797 132.942 66.473 134.855 68.309 136.237 70.19 137.116 72.003 137.522 73.634 137.483 74.97 137.483 74.97 137.344 75.471 136.958 75.762 136.387 75.898 135.694 75.932 134.942 75.918 134.192 75.909 133.506 75.96 132.949 76.123 132.949 76.123 132.387 78.069 131.547 79.815 130.48 81.344 129.24 82.638 127.879 83.679 126.45 84.451 125.006 84.936 123.6 85.116 123.6 85.116 123.471 85.228 123.112 85.515 122.561 85.904 121.858 86.323 121.04 86.7 120.148 86.962 119.22 87.037 118.295 86.852 118.295 86.852 117.255 86.458 116.023 85.981 114.7 85.463 113.389 84.946 112.192 84.472 111.211 84.081 110.548 83.816 110.304 83.718 101.293 100.496 108.844 104.176 109.841 104.887 110.671 105.812 111.277 106.86 111.599 107.936 111.579 108.947 111.158 109.8 110.277 110.403 108.877 110.662 108.877 110.662 108.802 110.72 108.595 110.874 108.283 111.094 107.89 111.35 107.443 111.612 106.969 111.85 106.492 112.033 106.04 112.132 106.04 112.132 105.037 111.806 104.166 111.296 103.39 110.718 102.669 110.186 101.965 109.816 101.241 109.723 100.457 110.023 99.576 110.831 99.576 110.831 99.45 111.496 99.211 112.31 98.879 113.205 98.474 114.111 98.016 114.96 97.525 115.685 97.021 116.215 96.524 116.484 96.524 116.484 95.659 116.076 94.469 115.504 93.088 114.835 91.654 114.138 90.302 113.478 89.168 112.923 88.388 112.541 88.098 112.399 88.098 112.399 88.129 111.831 88.225 111.361 88.377 110.971 88.574 110.642 88.807 110.356 89.066 110.095 89.342 109.84 89.624 109.572 89.624 109.572 89.886 109.203 90.024 108.796 90.072 108.36 90.068 107.902 90.047 107.431 90.044 106.953 90.096 106.478 90.239 106.012 90.239 106.012 90.026 105.327 90 104.584 90.121 103.799 90.35 102.984 90.648 102.154 90.975 101.323 91.291 100.504 91.558 99.713"/><polyline id="path4610" fill="none" stroke="#000" stroke-width=".1" points="105.66 79.226 104.24 81.776 102.328 84.912 100.214 88.385 98.189 91.948 96.546 95.353 95.574 98.353 95.565 100.698 96.811 102.143 96.811 102.143 98.179 102.941 99.907 103.728 101.874 104.529 103.96 105.367 106.045 106.268 108.008 107.256 109.73 108.356 111.091 109.592"/><polygon id="path4612" fill="none" stroke="#000" stroke-width=".1" points="105.493 111.692 105.804 111.767 106.088 111.81 106.337 111.818 106.543 111.787 106.698 111.715 106.793 111.599 106.821 111.435 106.774 111.222 106.774 111.222 106.668 111.031 106.517 110.823 106.327 110.603 106.1 110.379 105.843 110.158 105.56 109.948 105.255 109.756 104.934 109.589 104.934 109.589 104.677 109.508 104.434 109.461 104.214 109.45 104.028 109.479 103.885 109.549 103.796 109.665 103.77 109.828 103.818 110.042 103.818 110.042 103.876 110.237 104.002 110.449 104.184 110.67 104.409 110.894 104.665 111.114 104.939 111.325 105.219 111.52 105.493 111.692"/><polygon id="path4614" fill="none" stroke="#000" stroke-width=".1" points="105.493 111.692 105.804 111.767 106.088 111.81 106.337 111.818 106.543 111.787 106.698 111.715 106.793 111.599 106.821 111.435 106.774 111.222 106.774 111.222 106.668 111.031 106.517 110.823 106.327 110.603 106.1 110.379 105.843 110.158 105.56 109.948 105.255 109.756 104.934 109.589 104.934 109.589 104.677 109.508 104.434 109.461 104.214 109.45 104.028 109.479 103.885 109.549 103.796 109.665 103.77 109.828 103.818 110.042 103.818 110.042 103.876 110.237 104.002 110.449 104.184 110.67 104.409 110.894 104.665 111.114 104.939 111.325 105.219 111.52 105.493 111.692"/><polygon id="path4616" fill="none" stroke="#000" stroke-width=".1" points="108.13 109.91 108.439 110.033 108.71 110.102 108.939 110.121 109.127 110.094 109.271 110.024 109.371 109.917 109.423 109.775 109.428 109.604 109.428 109.604 109.317 109.36 109.162 109.113 108.969 108.87 108.742 108.638 108.486 108.425 108.205 108.238 107.904 108.084 107.588 107.972 107.588 107.972 107.327 107.843 107.081 107.771 106.86 107.752 106.673 107.779 106.53 107.848 106.44 107.955 106.412 108.094 106.455 108.26 106.455 108.26 106.518 108.503 106.646 108.736 106.828 108.96 107.052 109.173 107.306 109.376 107.578 109.566 107.857 109.745 108.13 109.91"/><polygon id="path4618" fill="none" stroke="#000" stroke-width=".1" points="108.13 109.91 108.439 110.033 108.71 110.102 108.939 110.121 109.127 110.094 109.271 110.024 109.371 109.917 109.423 109.775 109.428 109.604 109.428 109.604 109.317 109.36 109.162 109.113 108.969 108.87 108.742 108.638 108.486 108.425 108.205 108.238 107.904 108.084 107.588 107.972 107.588 107.972 107.327 107.843 107.081 107.771 106.86 107.752 106.673 107.779 106.53 107.848 106.44 107.955 106.412 108.094 106.455 108.26 106.455 108.26 106.518 108.503 106.646 108.736 106.828 108.96 107.052 109.173 107.306 109.376 107.578 109.566 107.857 109.745 108.13 109.91"/><polygon id="path4624" fill="none" stroke="#000" stroke-width=".1" points="111.285 85.11 103.431 100.266 110.289 103.688 111.63 106.871 111.773 107.442 112.05 107.928 112.437 108.34 112.907 108.689 113.434 108.985 113.991 109.238 114.552 109.46 115.092 109.66 115.092 109.66 116.09 110.216 117.046 110.792 117.895 111.488 118.57 112.406 119.006 113.646 119.139 115.309 118.904 117.495 118.234 120.304 118.234 120.304 119.807 120.786 121.299 121.223 122.715 121.636 124.058 122.049 125.334 122.485 126.547 122.967 127.7 123.517 128.799 124.159 128.799 124.159 129.59 122.73 130.218 121.305 130.792 119.952 131.419 118.74 132.209 117.736 133.271 117.009 134.713 116.628 136.644 116.659 136.644 116.659 136.734 116.517 136.996 116.154 137.415 115.664 137.979 115.143 138.675 114.686 139.489 114.388 140.408 114.343 141.42 114.648 146.415 117.771 147.572 116.136 148.702 114.205 149.767 112.137 150.726 110.09 151.542 108.222 152.173 106.692 152.581 105.658 152.725 105.278 152.725 105.278 151.982 104.584 150.975 103.896 149.815 103.239 148.614 102.642 147.486 102.13 146.541 101.731 145.891 101.472 145.65 101.38 145.549 98.895 141.161 96.758 137.008 94.663 133.185 92.67 129.789 90.836 126.915 89.218 124.66 87.875 123.12 86.865 122.389 86.245 122.389 86.245 121.714 87.042 121.093 87.56 120.505 87.84 119.929 87.924 119.343 87.853 118.729 87.669 118.063 87.411 117.326 87.123 117.326 87.123 116.474 86.861 115.512 86.551 114.508 86.218 113.532 85.888 112.652 85.586 111.939 85.339 111.46 85.172 111.285 85.11"/><polyline id="path4628" fill="none" stroke="#000" stroke-width=".1" points="111.183 104.257 113.763 104.81 117.435 105.984 121.762 107.567 126.311 109.347 130.649 111.111 134.339 112.646 136.948 113.739 138.043 114.179"/><polyline id="path4630" fill="none" stroke="#000" stroke-width=".1" points="113.252 108.028 115.081 108.391 117.834 109.173 121.193 110.256 124.839 111.523 128.453 112.856 131.717 114.137 134.311 115.249 135.916 116.072"/><polyline id="path4632" fill="none" stroke="#000" stroke-width=".1" points="120.194 113.771 121.624 113.913 123.227 114.217 124.921 114.64 126.623 115.138 128.25 115.668 129.72 116.186 130.95 116.647 131.858 117.009"/><polygon id="path4634" fill="none" stroke="#000" stroke-width=".1" points="129.5 101.288 131.597 102.227 130.811 102.644 129.242 101.981"/><polygon id="path4636" fill="none" stroke="#000" stroke-width=".1" points="129.5 101.288 131.597 102.227 130.811 102.644 129.242 101.981"/><polygon id="path4638" fill="none" stroke="#000" stroke-width=".1" points="114.491 93.251 117.118 94.466 117.193 94.521 117.281 94.579 117.377 94.644 117.478 94.719 117.58 94.81 117.681 94.921 117.777 95.055 117.864 95.218 117.864 95.218 117.87 95.342 117.865 95.465 117.851 95.585 117.833 95.7 117.814 95.807 117.798 95.904 117.788 95.989 117.788 96.058 117.512 96.587 117.458 96.662 117.402 96.747 117.343 96.837 117.278 96.925 117.205 97.006 117.12 97.074 117.022 97.125 116.907 97.152 116.907 97.152 116.735 97.218 116.575 97.255 116.429 97.268 116.295 97.259 116.175 97.234 116.07 97.195 115.979 97.147 115.903 97.093 113.294 96.043 113.81 94.656 114.686 95.061 114.427 95.754 115.996 96.418 116.057 96.466 116.104 96.502 116.143 96.528 116.177 96.544 116.209 96.552 116.245 96.555 116.289 96.552 116.343 96.547 116.343 96.547 116.404 96.533 116.461 96.505 116.513 96.467 116.558 96.42 116.595 96.365 116.622 96.306 116.636 96.245 116.637 96.182 116.913 95.654 116.919 95.645 116.933 95.623 116.949 95.588 116.963 95.544 116.969 95.493 116.96 95.438 116.931 95.381 116.877 95.325 116.877 95.325 116.863 95.264 116.838 95.206 116.806 95.154 116.771 95.107 116.736 95.068 116.706 95.039 116.685 95.02 116.677 95.013 114.233 93.945 114.491 93.252"/><polygon id="path4640" fill="none" stroke="#000" stroke-width=".1" points="114.491 93.251 117.118 94.466 117.193 94.521 117.281 94.579 117.377 94.644 117.478 94.719 117.58 94.81 117.681 94.921 117.777 95.055 117.864 95.218 117.864 95.218 117.87 95.342 117.865 95.465 117.851 95.585 117.833 95.7 117.814 95.807 117.798 95.904 117.788 95.989 117.788 96.058 117.512 96.587 117.458 96.662 117.402 96.747 117.343 96.837 117.278 96.925 117.205 97.006 117.12 97.074 117.022 97.125 116.907 97.152 116.907 97.152 116.735 97.218 116.575 97.255 116.429 97.268 116.295 97.259 116.175 97.234 116.07 97.195 115.979 97.147 115.903 97.093 113.294 96.043 113.81 94.656 114.686 95.061 114.427 95.754 115.996 96.418 116.057 96.466 116.104 96.502 116.143 96.528 116.177 96.544 116.209 96.552 116.245 96.555 116.289 96.552 116.343 96.547 116.343 96.547 116.404 96.533 116.461 96.505 116.513 96.467 116.558 96.42 116.595 96.365 116.622 96.306 116.636 96.245 116.637 96.182 116.913 95.654 116.919 95.645 116.933 95.623 116.949 95.588 116.963 95.544 116.969 95.493 116.96 95.438 116.931 95.381 116.877 95.325 116.877 95.325 116.863 95.264 116.838 95.206 116.806 95.154 116.771 95.107 116.736 95.068 116.706 95.039 116.685 95.02 116.677 95.013 114.233 93.945 114.491 93.252"/><polygon id="path4642" fill="none" stroke="#000" stroke-width=".1" points="118.522 95.147 119.397 95.552 118.734 97.121 118.681 97.135 118.642 97.16 118.616 97.195 118.601 97.24 118.595 97.291 118.595 97.347 118.599 97.407 118.605 97.468 118.605 97.468 118.619 97.529 118.644 97.586 118.676 97.639 118.712 97.685 118.747 97.724 118.776 97.754 118.797 97.773 118.805 97.779 120.556 98.589 121.495 96.491 122.371 96.896 121.156 99.523 118.529 98.308 118.407 98.259 118.297 98.206 118.199 98.148 118.11 98.083 118.027 98.01 117.95 97.926 117.875 97.83 117.801 97.721 117.801 97.721 117.735 97.549 117.697 97.389 117.685 97.242 117.693 97.109 117.718 96.989 117.757 96.883 117.805 96.792 117.859 96.716 118.522 95.147"/><polygon id="path4644" fill="none" stroke="#000" stroke-width=".1" points="118.522 95.147 119.397 95.552 118.734 97.121 118.681 97.135 118.642 97.16 118.616 97.195 118.601 97.24 118.595 97.291 118.595 97.347 118.599 97.407 118.605 97.468 118.605 97.468 118.619 97.529 118.644 97.586 118.676 97.639 118.712 97.685 118.747 97.724 118.776 97.754 118.797 97.773 118.805 97.779 120.556 98.589 121.495 96.491 122.371 96.896 121.156 99.523 118.529 98.308 118.407 98.259 118.297 98.206 118.199 98.148 118.11 98.083 118.027 98.01 117.95 97.926 117.875 97.83 117.801 97.721 117.801 97.721 117.735 97.549 117.697 97.389 117.685 97.242 117.693 97.109 117.718 96.989 117.757 96.883 117.805 96.792 117.859 96.716 118.522 95.147"/><polygon id="path4646" fill="none" stroke="#000" stroke-width=".1" points="135.14 102.678 133.925 105.305 131.645 104.219 132.432 103.801 133.325 104.371 133.989 102.802 133.824 102.82 133.811 102.766 133.786 102.727 133.75 102.702 133.706 102.686 133.655 102.68 133.598 102.68 133.539 102.684 133.477 102.69 133.477 102.69 133.47 102.691 133.452 102.693 133.425 102.696 133.395 102.699 133.365 102.702 133.339 102.705 133.32 102.707 133.313 102.708 130.769 103.814 129.729 103.427 132.913 102.086 132.927 102.077 132.962 102.054 133.012 102.022 133.069 101.986 133.126 101.949 133.176 101.917 133.211 101.894 133.225 101.886 133.225 101.886 133.347 101.928 133.456 101.96 133.557 101.984 133.653 102.006 133.75 102.027 133.851 102.052 133.96 102.084 134.082 102.126 135.14 102.678"/><polygon id="path4648" fill="none" stroke="#000" stroke-width=".1" points="135.14 102.678 133.925 105.305 131.645 104.219 132.432 103.801 133.325 104.371 133.989 102.802 133.824 102.82 133.811 102.766 133.786 102.727 133.75 102.702 133.706 102.686 133.655 102.68 133.598 102.68 133.539 102.684 133.477 102.69 133.477 102.69 133.47 102.691 133.452 102.693 133.425 102.696 133.395 102.699 133.365 102.702 133.339 102.705 133.32 102.707 133.313 102.708 130.769 103.814 129.729 103.427 132.913 102.086 132.927 102.077 132.962 102.054 133.012 102.022 133.069 101.986 133.126 101.949 133.176 101.917 133.211 101.894 133.225 101.886 133.225 101.886 133.347 101.928 133.456 101.96 133.557 101.984 133.653 102.006 133.75 102.027 133.851 102.052 133.96 102.084 134.082 102.126 135.14 102.678"/><polygon id="path4650" fill="none" stroke="#000" stroke-width=".1" points="137.939 107.035 135.33 105.984 135.255 105.93 135.167 105.872 135.071 105.808 134.97 105.732 134.867 105.641 134.766 105.531 134.671 105.396 134.584 105.233 134.584 105.233 134.572 105.062 134.576 104.917 134.589 104.794 134.608 104.689 134.629 104.601 134.648 104.524 134.659 104.456 134.659 104.393 134.935 103.864 134.99 103.788 135.048 103.701 135.112 103.605 135.188 103.504 135.279 103.401 135.389 103.3 135.524 103.205 135.687 103.118 135.687 103.118 135.858 103.107 136.004 103.112 136.127 103.132 136.233 103.163 136.324 103.203 136.403 103.251 136.476 103.303 136.545 103.358 139.154 104.408 138.896 105.102 136.434 103.869 136.426 103.87 136.405 103.872 136.373 103.875 136.331 103.88 136.281 103.885 136.225 103.891 136.166 103.898 136.105 103.904 136.105 103.904 136.044 103.918 135.987 103.943 135.934 103.975 135.887 104.011 135.848 104.046 135.819 104.076 135.8 104.097 135.793 104.105 135.535 104.798 135.536 104.805 135.538 104.826 135.542 104.858 135.546 104.9 135.552 104.95 135.558 105.006 135.564 105.065 135.571 105.127 135.571 105.127 135.584 105.187 135.609 105.245 135.642 105.298 135.677 105.344 135.712 105.383 135.742 105.412 135.763 105.431 135.77 105.438 138.215 106.506 137.939 107.035"/><polygon id="path4652" fill="none" stroke="#000" stroke-width=".1" points="137.939 107.035 135.33 105.984 135.255 105.93 135.167 105.872 135.071 105.808 134.97 105.732 134.867 105.641 134.766 105.531 134.671 105.396 134.584 105.233 134.584 105.233 134.572 105.062 134.576 104.917 134.589 104.794 134.608 104.689 134.629 104.601 134.648 104.524 134.659 104.456 134.659 104.393 134.935 103.864 134.99 103.788 135.048 103.701 135.112 103.605 135.188 103.504 135.279 103.401 135.389 103.3 135.524 103.205 135.687 103.118 135.687 103.118 135.858 103.107 136.004 103.112 136.127 103.132 136.233 103.163 136.324 103.203 136.403 103.251 136.476 103.303 136.545 103.358 139.154 104.408 138.896 105.102 136.434 103.869 136.426 103.87 136.405 103.872 136.373 103.875 136.331 103.88 136.281 103.885 136.225 103.891 136.166 103.898 136.105 103.904 136.105 103.904 136.044 103.918 135.987 103.943 135.934 103.975 135.887 104.011 135.848 104.046 135.819 104.076 135.8 104.097 135.793 104.105 135.535 104.798 135.536 104.805 135.538 104.826 135.542 104.858 135.546 104.9 135.552 104.95 135.558 105.006 135.564 105.065 135.571 105.127 135.571 105.127 135.584 105.187 135.609 105.245 135.642 105.298 135.677 105.344 135.712 105.383 135.742 105.412 135.763 105.431 135.77 105.438 138.215 106.506 137.939 107.035"/><polygon id="path4654" fill="none" stroke="#000" stroke-width=".1" points="139.501 104.538 143.185 106.305 142.909 106.834 139.242 105.231"/><polygon id="path4656" fill="none" stroke="#000" stroke-width=".1" points="139.501 104.538 143.185 106.305 142.909 106.834 139.242 105.231"/><polygon id="path4658" fill="none" stroke="#000" stroke-width=".1" points="138.949 105.596 142.798 107.345 142.522 107.874 139.549 106.53 139.555 106.592 139.562 106.653 139.569 106.715 139.575 106.777 139.582 106.838 139.589 106.9 139.595 106.962 139.602 107.023 139.602 107.023 139.61 107.03 139.63 107.046 139.66 107.07 139.693 107.097 139.727 107.124 139.756 107.147 139.776 107.164 139.784 107.17 142.246 108.403 141.971 108.932 139.508 107.699 139.431 107.693 139.33 107.661 139.215 107.608 139.096 107.536 138.982 107.447 138.885 107.345 138.814 107.232 138.78 107.112 138.78 107.112 138.713 106.94 138.674 106.783 138.656 106.643 138.654 106.522 138.662 106.424 138.674 106.351 138.686 106.305 138.691 106.29 138.691 106.29 138.697 106.274 138.713 106.23 138.739 106.162 138.772 106.073 138.811 105.968 138.854 105.851 138.901 105.725 138.949 105.596"/><polygon id="path4660" fill="none" stroke="#000" stroke-width=".1" points="138.949 105.596 142.798 107.345 142.522 107.874 139.549 106.53 139.555 106.592 139.562 106.653 139.569 106.715 139.575 106.777 139.582 106.838 139.589 106.9 139.595 106.962 139.602 107.023 139.602 107.023 139.61 107.03 139.63 107.046 139.66 107.07 139.693 107.097 139.727 107.124 139.756 107.147 139.776 107.164 139.784 107.17 142.246 108.403 141.971 108.932 139.508 107.699 139.431 107.693 139.33 107.661 139.215 107.608 139.096 107.536 138.982 107.447 138.885 107.345 138.814 107.232 138.78 107.112 138.78 107.112 138.713 106.94 138.674 106.783 138.656 106.643 138.654 106.522 138.662 106.424 138.674 106.351 138.686 106.305 138.691 106.29 138.691 106.29 138.697 106.274 138.713 106.23 138.739 106.162 138.772 106.073 138.811 105.968 138.854 105.851 138.901 105.725 138.949 105.596"/><polygon id="path4662" fill="none" stroke="#000" stroke-width=".1" points="122.718 97.026 125.162 98.093 125.312 98.203 125.475 98.317 125.636 98.443 125.777 98.589 125.883 98.762 125.935 98.97 125.918 99.22 125.815 99.521 125.815 99.521 125.7 99.739 125.558 99.882 125.401 99.963 125.243 99.999 125.097 100.001 124.976 99.986 124.894 99.966 124.864 99.956 125.099 100.596 127.478 99.509 127.485 99.508 127.506 99.506 127.539 99.502 127.581 99.498 127.63 99.492 127.686 99.486 127.745 99.48 127.807 99.473 127.807 99.473 127.924 99.468 128.031 99.478 128.131 99.5 128.229 99.532 128.328 99.571 128.431 99.617 128.542 99.665 128.665 99.713 129.705 100.101 128.507 102.892 126.063 101.824 127.014 101.389 127.89 101.793 128.571 100.389 128.389 100.242 128.334 100.248 128.291 100.253 128.256 100.257 128.224 100.26 128.193 100.263 128.157 100.267 128.114 100.272 128.06 100.278 128.06 100.278 128.06 100.278 128.057 100.278 128.051 100.279 128.039 100.28 128.02 100.282 127.99 100.285 127.949 100.29 127.895 100.295 125.352 101.401 124.312 101.014 123.988 99.551 122.766 99.017 122.214 100.075 121.503 99.652 122.166 98.083 124.611 99.151 124.678 99.199 124.744 99.231 124.808 99.247 124.871 99.248 124.932 99.234 124.991 99.204 125.048 99.159 125.104 99.098 125.104 99.098 125.097 99.037 125.089 98.978 125.076 98.923 125.059 98.874 125.035 98.834 125.002 98.805 124.959 98.789 124.904 98.787 122.442 97.554 122.718 97.026"/><polygon id="path4664" fill="none" stroke="#000" stroke-width=".1" points="122.718 97.026 125.162 98.093 125.312 98.203 125.475 98.317 125.636 98.443 125.777 98.589 125.883 98.762 125.935 98.97 125.918 99.22 125.815 99.521 125.815 99.521 125.7 99.739 125.558 99.882 125.401 99.963 125.243 99.999 125.097 100.001 124.976 99.986 124.894 99.966 124.864 99.956 125.099 100.596 127.478 99.509 127.485 99.508 127.506 99.506 127.539 99.502 127.581 99.498 127.63 99.492 127.686 99.486 127.745 99.48 127.807 99.473 127.807 99.473 127.924 99.468 128.031 99.478 128.131 99.5 128.229 99.532 128.328 99.571 128.431 99.617 128.542 99.665 128.665 99.713 129.705 100.101 128.507 102.892 126.063 101.824 127.014 101.389 127.89 101.793 128.571 100.389 128.389 100.242 128.334 100.248 128.291 100.253 128.256 100.257 128.224 100.26 128.193 100.263 128.157 100.267 128.114 100.272 128.06 100.278 128.06 100.278 128.06 100.278 128.057 100.278 128.051 100.279 128.039 100.28 128.02 100.282 127.99 100.285 127.949 100.29 127.895 100.295 125.352 101.401 124.312 101.014 123.988 99.551 122.766 99.017 122.214 100.075 121.503 99.652 122.166 98.083 124.611 99.151 124.678 99.199 124.744 99.231 124.808 99.247 124.871 99.248 124.932 99.234 124.991 99.204 125.048 99.159 125.104 99.098 125.104 99.098 125.097 99.037 125.089 98.978 125.076 98.923 125.059 98.874 125.035 98.834 125.002 98.805 124.959 98.789 124.904 98.787 122.442 97.554 122.718 97.026"/><polygon id="_tag_238_" fill="none" stroke="#000" stroke-width=".1" points="98.886 113.188 132.649 128.197 133.057 126.463 124.043 122.456 122.055 121.852 120.955 121.694 120.365 121.794 119.276 121.055 118.234 120.304 99.444 111.521"/><g id="_134037856"><polygon id="_133596352" fill="none" stroke="#000" stroke-width=".1" points="77.68 108.362 82.188 98.484 82.363 98.189 82.591 97.943 82.862 97.75 83.166 97.612 83.495 97.534 83.838 97.518 84.186 97.567 84.529 97.686 84.529 97.686 84.844 97.868 85.109 98.098 85.322 98.368 85.478 98.667 85.574 98.987 85.605 99.319 85.569 99.652 85.461 99.978 80.953 109.856 80.777 110.151 80.55 110.397 80.279 110.59 79.974 110.727 79.645 110.806 79.302 110.822 78.954 110.772 78.611 110.654 78.611 110.654 78.297 110.472 78.031 110.242 77.818 109.972 77.662 109.672 77.566 109.352 77.535 109.021 77.571 108.688 77.68 108.362"/><polygon id="_134063144" fill="none" stroke="#000" stroke-width=".1" points="80.953 109.856 85.296 100.339 88.15 101.641 88.419 101.766 88.644 101.879 88.824 101.987 88.956 102.097 89.04 102.216 89.073 102.349 89.054 102.505 88.982 102.688 85.212 110.95 85.102 111.19 84.996 111.357 84.882 111.457 84.751 111.496 84.591 111.481 84.392 111.417 84.143 111.312 83.833 111.17 80.953 109.856"/><polygon id="_189013888" fill="none" stroke="#000" stroke-width=".1" points="85.257 110.85 88.863 102.949 90.293 103.602 90.198 104.164 90.224 104.906 90.311 105.766 90.4 106.684 90.431 107.6 90.346 108.452 90.084 109.18 89.587 109.724 89.587 109.724 89.225 109.986 88.954 110.225 88.758 110.461 88.624 110.713 88.534 111.001 88.476 111.345 88.432 111.765 88.389 112.279 85.257 110.85"/></g><line id="_tag_239_" x1="128.799" x2="128.89" y1="124.159" y2="124.61" fill="none" stroke="#000" stroke-width=".1"/><g id="_132770744"><polygon id="path4666" fill="none" stroke="#000" stroke-width=".1" points="120.034 123.106 120.01 123.333 120.135 123.613 120.398 123.936 120.786 124.294 121.285 124.679 121.885 125.083 122.571 125.497 123.331 125.913 123.331 125.913 124.159 126.236 124.937 126.51 125.651 126.728 126.285 126.885 126.827 126.973 127.261 126.988 127.573 126.921 127.749 126.769 128.301 125.711 128.318 125.477 128.171 125.181 127.879 124.835 127.458 124.45 126.925 124.037 126.297 123.61 125.59 123.179 124.822 122.758 124.822 122.758 123.987 122.435 123.19 122.163 122.45 121.948 121.785 121.794 121.214 121.709 120.753 121.698 120.422 121.766 120.239 121.919 120.034 123.106"/><g id="_tag_240_"><polygon id="path4670" fill="none" stroke="#000" stroke-width=".1" points="118.943 126.884 118.964 127.098 119.105 127.353 119.355 127.638 119.702 127.946 120.137 128.268 120.648 128.596 121.225 128.92 121.858 129.233 121.858 129.233 122.509 129.513 123.138 129.745 123.726 129.927 124.255 130.056 124.709 130.131 125.069 130.151 125.317 130.111 125.436 130.012 127.109 127.004 127.14 126.831 127.021 126.594 126.768 126.306 126.396 125.978 125.919 125.622 125.353 125.25 124.712 124.875 124.012 124.508 124.012 124.508 123.293 124.18 122.601 123.916 121.955 123.717 121.375 123.586 120.88 123.522 120.49 123.53 120.225 123.61 120.105 123.764 118.943 126.884"/><g id="_tag_241_"><polyline id="_132770864" fill="none" stroke="#000" stroke-width=".1" points="120.031 123.164 120.22 122.949 120.538 122.842 120.968 122.833 121.498 122.913 122.113 123.071 122.8 123.297 123.542 123.583 124.327 123.916 124.327 123.916 125.102 124.273 125.813 124.63 126.442 124.985 126.973 125.334 127.389 125.672 127.672 125.997 127.806 126.304 127.775 126.589"/><polyline id="_132770816" fill="none" stroke="#000" stroke-width=".1" points="119.569 127.043 119.709 126.885 119.946 126.799 120.269 126.78 120.666 126.823 121.123 126.922 121.63 127.073 122.173 127.269 122.741 127.505 122.741 127.505 123.294 127.764 123.795 128.03 124.233 128.298 124.599 128.563 124.881 128.82 125.071 129.066 125.158 129.295 125.131 129.503"/></g></g></g><polyline id="_new_215_1" fill="none" stroke="#000" stroke-width=".1" points="129.726 169.311 129.705 169.313 129.683 169.316 129.661 169.318 129.64 169.32 129.618 169.322 129.597 169.325 129.575 169.327 129.553 169.329 129.553 169.329 126.833 169.324 124.247 168.793 121.854 167.785 119.714 166.348 117.886 164.531 116.428 162.382 115.401 159.95 114.863 157.283 114.863 157.283 114.814 155.254 115.062 153.289 115.587 151.415 116.368 149.655 117.387 148.033 118.623 146.573 120.056 145.299 121.666 144.237"/><polyline id="_new_216_1" fill="none" stroke="#000" stroke-width=".1" points="104.701 146.612 103.714 147.996 102.985 149.251 102.517 150.448 102.312 151.658 102.375 152.951 102.707 154.398 103.311 156.07 104.191 158.037"/><polyline id="path4552_2" fill="none" stroke="#000" stroke-width=".1" points="133.371 75.412 133.463 74.882 133.559 74.191 133.62 73.355 133.607 72.392 133.481 71.315 133.202 70.142 132.73 68.888 132.028 67.57 132.028 67.57 132.71 68.188 133.491 69.014 134.315 69.991 135.128 71.063 135.875 72.174 136.502 73.266 136.952 74.283 137.172 75.17"/><line id="_tag_242_" x1="99.816" x2="98.857" y1="147.731" y2="154.989" fill="none" stroke="#000" stroke-width=".1"/><g id="_199712160"><circle id="_196390576" cx="128.232" cy="156.003" r="3.876" fill="none" stroke="#000" stroke-width=".1"/><polygon id="_133567760" fill="none" stroke="#000" stroke-width=".1" points="127.35 154.475 129.115 154.475 129.997 156.003 129.115 157.531 127.35 157.531 126.468 156.003"/></g><circle id="_tag_243_" cx="119.879" cy="74.512" r="9.379" fill="none" stroke="#000" stroke-width=".1"/><circle id="_tag_244_" cx="119.879" cy="74.512" r="7.816" fill="none" stroke="#000" stroke-width=".1"/><circle id="_tag_245_" cx="119.879" cy="74.512" r="4.323" fill="none" stroke="#000" stroke-width=".1"/><polygon id="_tag_246_" fill="none" stroke="#000" stroke-width=".1" points="119.879 71.209 122.74 72.86 122.74 76.163 119.879 77.815 117.018 76.163 117.018 72.86"/></g><circle id="center_00" cx="119.879" cy="74.512" r="1"/></svg>