<svg xmlns="http://www.w3.org/2000/svg" width="297mm" height="210mm" viewBox="0 0 297 210"><g id="_tag_5_"><polygon id="_new_355_1" fill="none" stroke="#000" stroke-width=".1" points="-7.195 174.478 -3.49 176.071 .445 177.538 4.58 178.9 8.881 180.175 13.316 181.381 17.851 182.534 22.453 183.652 27.088 184.753 28.549 185.098 30.009 185.445 31.469 185.792 32.928 186.143 34.385 186.495 35.841 186.852 37.296 187.214 38.748 187.58 38.49 188.604 37.066 188.245 35.629 187.888 34.181 187.533 32.725 187.181 31.261 186.83 29.792 186.48 28.32 186.13 26.846 185.781 22.192 184.677 17.571 183.553 13.015 182.394 8.558 181.182 4.231 179.898 .068 178.524 -3.899 177.044 -7.636 175.439"/><polyline id="_new_210_1___0" fill="none" stroke="#000" stroke-width=".1" points="-76.106 143.169 -74.641 144.952 -73.094 146.667 -71.455 148.32 -69.714 149.914 -67.861 151.454 -65.887 152.943 -63.782 154.386 -61.535 155.788 -61.535 155.788 -57.611 157.962 -53.261 160.063 -48.443 162.108 -43.121 164.113 -37.255 166.095 -30.807 168.07 -23.739 170.054 -16.01 172.065 -17.349 177.39 -25.282 175.325 -32.546 173.281 -39.182 171.243 -45.229 169.192 -50.729 167.111 -55.721 164.984 -60.244 162.792 -64.34 160.519 -64.34 160.519 -66.107 159.432 -67.794 158.324 -69.406 157.193 -70.945 156.037 -72.415 154.855 -73.821 153.644 -75.167 152.404 -76.455 151.133" class="fil0 str0"/><polygon id="path10_1" fill="none" stroke="#000" stroke-width=".1" points="90.143 179.567 90.097 180.182 90.023 180.821 89.93 181.46 89.819 182.099 89.687 182.738 89.535 183.376 89.364 184.013 89.173 184.649 87.635 184.511 86.089 185.07 85.114 185.959 84.502 187.129 84.327 188.437 84.749 190.027 85.77 191.249 85.376 191.757 84.966 192.254 84.542 192.74 84.104 193.213 83.651 193.673 83.184 194.121 82.704 194.556 82.21 194.977 80.93 193.983 79.326 193.617 78.025 193.838 76.879 194.491 76.024 195.497 75.52 197.062 75.723 198.685 75.433 198.788 75.141 198.887 74.846 198.983 74.549 199.075 74.251 199.162 73.95 199.246 73.647 199.326 73.342 199.402 73.342 199.402 73.013 199.478 72.683 199.549 72.355 199.615 72.026 199.675 71.697 199.731 71.368 199.781 71.04 199.827 70.712 199.867 70.168 198.326 69.017 197.151 67.803 196.634 66.485 196.563 65.223 196.947 63.952 197.992 63.255 199.447 62.625 199.291 62.001 199.117 61.383 198.925 60.772 198.714 60.168 198.487 59.572 198.242 58.983 197.98 58.403 197.701 58.767 196.161 58.434 194.551 57.692 193.459 56.621 192.687 55.352 192.327 53.718 192.519 52.416 193.323 51.974 192.855 51.546 192.373 51.131 191.878 50.73 191.37 50.344 190.849 49.972 190.315 49.615 189.769 49.274 189.21 50.346 188.176 50.936 186.641 50.902 185.322 50.419 184.093 49.545 183.105 48.067 182.383 46.653 182.357 46.531 181.705 46.43 181.053 46.348 180.402 46.286 179.752 46.244 179.104 46.221 178.458 46.217 177.815 46.232 177.174 47.578 176.906 48.905 175.934 49.59 174.805 49.848 173.511 49.647 172.207 48.794 170.8 47.708 170.074 47.955 169.467 48.219 168.868 48.501 168.277 48.8 167.695 49.116 167.122 49.449 166.559 49.798 166.006 50.163 165.464 51.343 165.928 52.985 165.828 54.171 165.249 55.088 164.299 55.624 163.094 55.667 161.449 55.172 160.311 55.699 159.934 56.239 159.573 56.792 159.226 57.356 158.895 57.932 158.581 58.52 158.282 59.119 158 59.729 157.735 60.446 158.729 61.881 159.532 63.192 159.687 64.476 159.383 65.58 158.659 66.504 157.299 66.701 156.087 67.365 156.051 68.026 156.035 68.686 156.039 69.342 156.062 69.994 156.106 70.643 156.168 71.288 156.25 71.929 156.35 71.995 157.594 72.769 159.046 73.788 159.884 75.032 160.323 76.352 160.31 77.866 159.666 78.72 158.715 79.29 159.036 79.849 159.374 80.398 159.729 80.937 160.099 81.465 160.485 81.981 160.887 82.485 161.305 82.978 161.738 82.325 162.883 82.191 164.523 82.595 165.779 83.405 166.821 84.522 167.524 86.143 167.8 87.479 167.434 87.779 168 88.063 168.577 88.332 169.165 88.584 169.762 88.819 170.371 89.038 170.989 89.239 171.617 89.422 172.255 88.156 172.917 87.156 174.224 86.817 175.499 86.935 176.814 87.495 178.009 88.709 179.118"/><polygon id="center_00_1" fill="none" stroke="#000" stroke-width=".1" points="72.636 177.428 72.464 176.533 72.128 175.715 71.647 174.991 71.04 174.376 70.328 173.888 69.529 173.543 68.665 173.357 67.754 173.346 67.754 173.346 66.859 173.518 66.04 173.854 65.316 174.336 64.702 174.942 64.213 175.654 63.868 176.453 63.682 177.317 63.672 178.229 63.672 178.229 63.843 179.124 64.18 179.941 64.661 180.666 65.268 181.28 65.98 181.769 66.778 182.114 67.643 182.3 68.554 182.31 68.554 182.31 69.449 182.139 70.267 181.802 70.992 181.321 71.606 180.714 72.094 180.002 72.439 179.204 72.626 178.339"/><polygon id="center_00_0" fill="none" stroke="#000" stroke-width=".1" points="85.681 176.303 85.749 178.142 85.624 179.979 85.308 181.792 84.803 183.563 84.117 185.271 83.255 186.898 82.229 188.426 81.048 189.838 79.726 191.12 78.278 192.256 76.718 193.234 75.065 194.044 73.336 194.677 71.551 195.125 69.728 195.385 67.889 195.452 66.052 195.327 64.239 195.011 62.468 194.506 60.76 193.82 59.133 192.959 57.605 191.932 56.193 190.751 54.912 189.429 53.776 187.981 52.797 186.421 51.987 184.768 51.355 183.039 50.906 181.254 50.647 179.431 50.579 177.592 50.704 175.755 51.02 173.942 51.525 172.171 52.211 170.463 53.072 168.836 54.099 167.308 55.28 165.896 56.602 164.614 58.05 163.479 59.61 162.5 61.263 161.69 62.992 161.058 64.777 160.609 66.6 160.349 68.439 160.282 70.276 160.407 72.089 160.723 73.86 161.228 75.568 161.914 77.195 162.775 78.723 163.802 80.135 164.983 81.416 166.305 82.552 167.753 83.531 169.313 84.341 170.966 84.974 172.695 85.422 174.48"/><polygon id="center_00_1a" fill="none" stroke="#000" stroke-width=".1" points="80.062 176.804 80.108 178.054 80.023 179.301 79.808 180.533 79.466 181.736 78.999 182.896 78.414 184.001 77.717 185.039 76.915 185.998 76.017 186.868 75.033 187.64 73.974 188.304 72.851 188.855 71.677 189.284 70.464 189.589 69.227 189.765 67.977 189.811 66.73 189.726 65.498 189.511 64.295 189.169 63.135 188.702 62.03 188.117 60.992 187.42 60.033 186.618 59.163 185.72 58.391 184.736 57.727 183.677 57.176 182.554 56.747 181.38 56.442 180.167 56.266 178.93 56.22 177.68 56.305 176.433 56.52 175.201 56.862 173.998 57.329 172.838 57.914 171.733 58.611 170.695 59.413 169.736 60.311 168.866 61.295 168.094 62.354 167.43 63.477 166.88 64.651 166.45 65.864 166.145 67.101 165.969 68.351 165.923 69.598 166.008 70.83 166.223 72.033 166.565 73.193 167.032 74.298 167.617 75.336 168.314 76.295 169.116 77.165 170.014 77.937 170.998 78.601 172.057 79.151 173.18 79.581 174.354 79.886 175.567"/><polygon id="path15_1" fill="none" stroke="#000" stroke-width=".1" points="62.857 222.547 61.591 223.209 60.592 224.516 60.252 225.791 60.37 227.106 60.929 228.301 62.144 229.41 63.578 229.859 63.039 225.612 63.144 228.074 63.178 230.017 63.151 231.526 63.072 232.688 62.95 233.588 62.792 234.31 62.608 234.94 61.071 234.803 59.524 235.362 58.549 236.251 57.937 237.421 57.762 238.729 58.184 240.319 59.205 241.54 58.811 242.049 58.401 242.546 57.977 243.031 57.539 243.505 57.086 243.965 56.619 244.413 56.139 244.848 55.645 245.269 54.365 244.275 52.762 243.909 51.461 244.13 50.314 244.783 49.459 245.789 48.955 247.354 49.158 248.977 48.868 249.08 48.576 249.179 48.281 249.275 47.984 249.367 47.686 249.454 47.385 249.538 47.082 249.618 46.777 249.694 46.777 249.694 46.447 249.77 46.118 249.841 45.789 249.907 45.461 249.967 45.132 250.023 44.803 250.073 44.475 250.119 44.147 250.159 43.603 248.618 42.452 247.443 41.238 246.926 39.92 246.855 38.658 247.239 37.387 248.284 36.69 249.739 36.06 249.583 35.436 249.409 34.818 249.217 34.207 249.006 33.603 248.779 33.007 248.534 32.418 248.272 31.838 247.993 32.202 246.453 31.869 244.843 31.127 243.751 30.057 242.979 28.787 242.619 27.153 242.811 25.851 243.615 25.409 243.147 24.981 242.665 24.566 242.17 24.165 241.662 23.779 241.141 23.407 240.607 23.05 240.061 22.709 239.502 23.781 238.468 24.371 236.933 24.337 235.614 23.854 234.385 22.98 233.397 21.502 232.675 20.088 232.649 19.966 231.997 19.865 231.345 19.783 230.694 19.721 230.044 19.679 229.396 19.656 228.75 19.652 228.106 19.667 227.466 21.013 227.198 22.34 226.226 23.025 225.097 23.283 223.803 23.082 222.499 22.229 221.092 21.143 220.366 21.39 219.759 21.654 219.16 21.936 218.569 22.235 217.987 22.551 217.414 22.884 216.851 23.233 216.298 23.598 215.756 24.778 216.22 26.42 216.12 27.606 215.541 28.523 214.591 29.059 213.386 29.102 211.741 28.607 210.603 29.134 210.226 29.674 209.865 30.227 209.518 30.791 209.187 31.367 208.872 31.955 208.574 32.554 208.292 33.164 208.027 33.881 209.021 35.316 209.824 36.627 209.979 37.911 209.675 39.015 208.951 39.94 207.591 40.136 206.379 40.8 206.343 41.462 206.327 42.121 206.331 42.777 206.354 43.429 206.398 44.078 206.46 44.723 206.542 45.364 206.642 45.43 207.886 46.204 209.338 47.223 210.176 48.468 210.615 49.787 210.603 51.301 209.958 52.155 209.007 52.724 209.329 53.284 209.666 53.833 210.021 54.372 210.391 54.9 210.777 55.416 211.18 55.92 211.597 56.413 212.03 55.76 213.175 55.626 214.815 56.03 216.071 56.84 217.113 57.957 217.816 59.578 218.092 60.914 217.726 61.214 218.292 61.498 218.869 61.767 219.457 62.019 220.055 62.254 220.663 62.473 221.281 62.674 221.909"/><polygon id="center_00_2_1" fill="none" stroke="#000" stroke-width=".1" points="46.071 227.72 45.899 226.825 45.563 226.007 45.081 225.283 44.475 224.668 43.762 224.18 42.964 223.835 42.1 223.649 41.188 223.638 41.188 223.638 40.293 223.81 39.475 224.146 38.751 224.628 38.136 225.234 37.648 225.946 37.303 226.745 37.117 227.609 37.106 228.521 37.106 228.521 37.278 229.416 37.614 230.234 38.096 230.958 38.702 231.572 39.414 232.061 40.213 232.406 41.077 232.592 41.989 232.603 41.989 232.603 42.884 232.431 43.702 232.094 44.426 231.613 45.041 231.007 45.529 230.294 45.874 229.496 46.06 228.631"/><polygon id="center_00_3" fill="none" stroke="#000" stroke-width=".1" points="59.116 226.596 59.184 228.435 59.059 230.272 58.742 232.085 58.238 233.856 57.552 235.564 56.69 237.191 55.664 238.719 54.483 240.131 53.161 241.413 51.712 242.548 50.153 243.527 48.5 244.337 46.771 244.97 44.986 245.418 43.163 245.678 41.324 245.745 39.487 245.62 37.673 245.304 35.903 244.799 34.195 244.113 32.568 243.252 31.04 242.225 29.628 241.044 28.346 239.722 27.21 238.274 26.232 236.714 25.422 235.061 24.789 233.332 24.341 231.547 24.081 229.724 24.014 227.885 24.139 226.048 24.455 224.235 24.959 222.464 25.646 220.756 26.507 219.129 27.534 217.601 28.715 216.189 30.037 214.908 31.485 213.772 33.045 212.793 34.698 211.983 36.426 211.351 38.212 210.902 40.034 210.642 41.874 210.575 43.711 210.7 45.524 211.016 47.295 211.521 49.003 212.207 50.63 213.069 52.158 214.095 53.57 215.276 54.851 216.598 55.987 218.046 56.965 219.606 57.776 221.259 58.408 222.988 58.857 224.773"/><polygon id="center_00_4" fill="none" stroke="#000" stroke-width=".1" points="53.497 227.097 53.543 228.347 53.458 229.594 53.243 230.826 52.901 232.029 52.434 233.189 51.849 234.294 51.152 235.332 50.35 236.291 49.452 237.161 48.468 237.933 47.409 238.597 46.286 239.148 45.112 239.577 43.899 239.882 42.661 240.058 41.412 240.104 40.164 240.019 38.933 239.804 37.73 239.462 36.57 238.995 35.465 238.41 34.427 237.713 33.468 236.911 32.598 236.013 31.826 235.029 31.162 233.97 30.611 232.847 30.182 231.673 29.877 230.46 29.701 229.223 29.655 227.973 29.74 226.726 29.955 225.494 30.297 224.291 30.763 223.131 31.349 222.026 32.046 220.988 32.848 220.029 33.746 219.159 34.73 218.387 35.789 217.723 36.911 217.173 38.086 216.743 39.298 216.438 40.536 216.262 41.786 216.216 43.033 216.301 44.265 216.516 45.468 216.858 46.628 217.325 47.733 217.91 48.771 218.607 49.73 219.409 50.6 220.307 51.372 221.291 52.036 222.35 52.586 223.473 53.016 224.647 53.321 225.86"/><polygon id="polygon20" fill="none" stroke="#000" stroke-width=".1" points="21.838 216.805 37.798 220.309 51.08 223.106 52.735 223.207 54.188 222.874 55.375 222.201 56.52 221.151 65.592 208.09 67.328 205.154 67.753 203.858 67.778 202.582 67.291 201.221 66.949 200.605 64.471 196.355 58.757 186.364 54.67 179.074 54.42 175.586 55.091 173.849 69.587 156.261 74.87 156.94 78.642 158.599 81.628 160.662 83.535 162.778 85.184 165.447 86.264 168.769 86.644 171.274 86.629 173.65 85.493 184.295 84.469 191.444 82.668 201.207 82.17 203.364 81.202 205.885 79.658 208.854 77.434 211.951 70.757 221.559 65.028 229.043 56.717 239.164 48.521 248.418 47.218 249.347 45.231 250.45 42.941 251.18 40.83 251.422 39.339 251.261 27.779 248.046 25.598 247.121 23.523 245.665 22.056 244.255 20.652 242.428 19.61 240.226 17.551 235.141 15.787 230.725 13.416 224.906 12.668 223.387 11.417 221.949 10.119 221.005 7.987 220.045 5.006 218.884 4.743 218.427 4.756 217.764 6.317 214.251 7.292 213.876 12.911 214.888"/><polygon id="polygon22" fill="none" stroke="#000" stroke-width=".1" points="30.551 224.436 31.609 225.243 32.336 226.124 35.973 231.773 36.893 232.81 38.277 233.886 39.269 234.395 40.464 234.665 43.008 235.2 48.449 236.381 49.3 236.851 49.821 237.873 49.335 238.847 44.016 244.463 43.402 245.14 41.966 245.454 40.322 245.497 29.629 242.314 27.973 241.486 26.508 240.213 25.334 238.617 19.297 224.224 19.445 222.901 20.184 222.216 21.359 222.071 29.184 223.848"/><polyline id="simplify_SVG__000007___0" fill="none" stroke="#000" stroke-width=".1" points="6.871 215.624 37.173 222.171 51.156 225.218 53.292 225.289 55.204 224.602 57.061 223.387 57.859 222.354 63.052 215.42 67.311 209.01 69.099 206.186 69.868 203.898 69.593 201.435 68.716 199.696 62.478 188.531" class="fil0 str0"/><polyline id="simplify_SVG__000008___0" fill="none" stroke="#000" stroke-width=".1" points="72.727 158.89 77.456 160.637 80.088 162.622 82.553 165.623 84.078 170.228 84.176 173.35 80.283 200.58 79.857 202.418 78.646 205.332 77.354 207.32 68.779 220.047 60.611 230.801 46.469 246.64 44.721 248.005 43.089 248.533 41.474 248.854 39.754 248.79 33.109 246.963 27.966 245.289 26.287 244.388 24.273 242.944 23.023 241.136 21.891 238.983 15.731 224.069 14.383 221.287 11.858 218.669 8.853 217.351 6.398 216.427" class="fil0 str0"/><polyline id="simplify_SVG__000009___0" fill="none" stroke="#000" stroke-width=".1" points="72.626 189.26 77.624 199.209 78.489 202.442 78.254 204.978 77.072 207.272 74.801 210.396 51.25 237.744" class="fil0 str0"/><polygon id="center_00_5_1" fill="none" stroke="#000" stroke-width=".1" points="46.071 227.72 45.899 226.825 45.563 226.007 45.081 225.283 44.475 224.668 43.762 224.18 42.964 223.835 42.1 223.649 41.188 223.638 41.188 223.638 40.293 223.81 39.475 224.146 38.751 224.628 38.136 225.234 37.648 225.946 37.303 226.745 37.117 227.609 37.106 228.521 37.106 228.521 37.278 229.416 37.614 230.234 38.096 230.958 38.702 231.572 39.414 232.061 40.213 232.406 41.077 232.592 41.989 232.603 41.989 232.603 42.884 232.431 43.702 232.094 44.426 231.613 45.041 231.007 45.529 230.294 45.874 229.496 46.06 228.631"/><polygon id="center_00_6" fill="none" stroke="#000" stroke-width=".1" points="45.185 227.84 45.199 228.216 45.173 228.592 45.108 228.964 45.005 229.326 44.864 229.676 44.688 230.009 44.478 230.321 44.236 230.61 43.966 230.873 43.669 231.105 43.35 231.305 43.012 231.471 42.658 231.601 42.292 231.693 41.919 231.746 41.543 231.76 41.167 231.734 40.795 231.669 40.433 231.566 40.084 231.425 39.75 231.249 39.438 231.039 39.149 230.797 38.886 230.527 38.654 230.23 38.453 229.911 38.288 229.573 38.158 229.219 38.066 228.853 38.013 228.48 37.999 228.104 38.025 227.728 38.09 227.356 38.193 226.994 38.334 226.644 38.51 226.311 38.72 225.999 38.962 225.71 39.232 225.447 39.529 225.215 39.848 225.015 40.186 224.849 40.54 224.719 40.906 224.627 41.279 224.574 41.655 224.56 42.031 224.586 42.403 224.651 42.765 224.754 43.114 224.895 43.448 225.071 43.76 225.281 44.049 225.523 44.312 225.793 44.544 226.09 44.745 226.409 44.91 226.747 45.04 227.101 45.132 227.467"/><polygon id="polygon32" fill="none" stroke="#000" stroke-width=".1" points="42.581 227.179 42.9 228.509 41.908 229.451 40.596 229.062 40.277 227.732 41.269 226.79"/><polyline id="path34___0___0" fill="none" stroke="#000" stroke-width=".1" points="23.082 222.499 23.056 222.457" class="fil0 str2"/><polyline id="path34___1___0" fill="none" stroke="#000" stroke-width=".1" points="24.354 236.282 24.337 235.614 23.854 234.386 23.292 233.75" class="fil0 str2"/><polyline id="path34___2___0" fill="none" stroke="#000" stroke-width=".1" points="23.292 233.75 20.58 227.285" class="fil0 str2"/><polyline id="path34___3___0" fill="none" stroke="#000" stroke-width=".1" points="20.58 227.284 21.013 227.198 22.34 226.226 23.025 225.097 23.282 223.803 23.082 222.499" class="fil0 str2"/><polyline id="center_00_7_1___0" fill="none" stroke="#000" stroke-width=".1" points="24.826 222.858 24.59 223.673 24.392 224.503 24.235 225.347 24.118 226.202 24.043 227.069 24.012 227.945 24.024 228.831 24.081 229.724 24.081 229.724 24.398 231.833 24.952 233.844 25.727 235.746 26.708 237.524 27.879 239.164 29.223 240.654 30.724 241.98 32.366 243.128" class="fil0 str3"/><polyline id="center_00_8_1___0" fill="none" stroke="#000" stroke-width=".1" points="30.285 224.321 30.104 224.9 29.953 225.491 29.831 226.092 29.74 226.703 29.681 227.322 29.654 227.949 29.66 228.582 29.701 229.222 29.701 229.222 30.156 231.598 31.049 233.769 32.327 235.692 33.937 237.323 35.828 238.619 37.947 239.536 40.242 240.03 42.661 240.057 42.661 240.057 43.629 239.932 44.568 239.732 45.476 239.46 46.351 239.122 47.189 238.719 47.987 238.254 48.744 237.733 49.456 237.156" class="fil0 str3"/><polygon id="polygon40" fill="none" stroke="#000" stroke-width=".1" points="65.671 161.409 66.761 157.957 66.502 157.368 66.866 155.802 67.546 155.864 67.926 155.77 68.232 155.561 68.76 153.204 67.911 151.392 68.418 149.127 69.215 148.47 69.532 147.979 70.843 147.472 72.46 147.313 74.393 147.608 76.463 148.099 78.149 149.547 79.509 152.081 80.296 154.795 80.943 157.995 81.51 161.055 81.676 163.589 81.769 166.338 81.859 168.978 81.931 171.795 81.992 174.153 81.91 176.497 81.591 178.589 81.091 180.319 80.173 182.772 79.004 184.527 78.143 185.5 76.779 186.732 75.256 187.806 73.251 188.865 71.001 189.654 68.326 190.071 65.735 189.869 63.941 189.331 61.056 187.721 59.284 186.095 57.545 183.578 56.604 181.049 56.32 178.808 56.544 176.511 65.217 168.622"/><polyline id="simplify_SVG__000013___0" fill="none" stroke="#000" stroke-width=".1" points="71.954 158.849 73.712 159.597 74.853 160.275 76.246 161.546 77.687 163.527 78.965 166.034 79.549 168.189 79.929 170.138 80.205 172.809 80.155 175.1 79.844 177.58 79.081 180.787 77.732 183.847 76.334 185.736 74.722 187.34 72.218 188.709" class="fil0 str0"/><polygon id="rect44" fill="none" stroke="#000" stroke-width=".1" points=".119 172.952 -15.564 169.584 -17.729 179.665 -2.046 183.034"/><polygon id="polygon46" fill="none" stroke="#000" stroke-width=".1" points="-17.731 180.854 -17.394 181.587 -16.937 182.112 -16.348 182.392 -8.117 184.967 -7.403 185.122 -6.637 185.247 -2.733 184.204 -2.323 184.027 -2.105 183.47 -1.438 180.201 -1.569 179.69 -2.181 179.007 -3 178.486 -4.042 177.883 -4.859 177.673 -15.591 175.162 -16.313 175.317 -16.975 176.123 -17.805 180.019"/><polygon id="polygon48" fill="none" stroke="#000" stroke-width=".1" points="-15.077 168.499 -14.47 167.969 -13.837 167.677 -13.185 167.665 -4.622 168.697 -3.907 168.848 -3.158 169.048 -.027 171.603 .275 171.933 .244 172.53 -.489 175.785 -.819 176.197 -1.657 176.568 -2.618 176.707 -3.816 176.828 -4.646 176.685 -15.463 174.568 -16.058 174.13 -16.331 173.124 -15.488 169.23"/><polyline id="simplify_SVG__000017___0" fill="none" stroke="#000" stroke-width=".1" points="8.281 172.079 6.296 173.754 4.693 175.492 3.547 177.418 .235 183.95" class="fil0 str0"/><polygon id="polygon52" fill="none" stroke="#000" stroke-width=".1" points="-4.667 176.301 -3.136 176.314 -1.56 176.1 -.663 175.472 .045 172.176 -3.181 169.382 -4.255 169.082 -13.256 167.914 -13.746 167.958 -14.31 168.24 -14.89 168.724 -15.201 169.333 -15.833 172.288 -15.868 173.127 -15.542 173.863 -14.759 174.34"/><polygon id="polygon54" fill="none" stroke="#000" stroke-width=".1" points="8.909 176.804 7.55 183.13 1.948 181.927 2.581 175.445"/><polygon id="polygon56" fill="none" stroke="#000" stroke-width=".1" points="-5.035 178.015 -3.634 178.632 -2.284 179.474 -1.725 180.415 -2.433 183.711 -6.521 184.934 -7.623 184.766 -16.311 182.135 -16.739 181.894 -17.137 181.405 -17.468 180.725 -17.501 180.042 -16.864 177.089 -16.552 176.309 -15.952 175.772 -15.042 175.659"/><polygon id="polygon58" fill="none" stroke="#000" stroke-width=".1" points="-16.026 169.484 -17.026 174.142 -17.108 174.525 -18.191 179.566 -17.729 179.665 -16.647 174.624 -16.564 174.241 -15.564 169.583"/><polygon id="polygon60" fill="none" stroke="#000" stroke-width=".1" points="-16.302 170.769 -17.108 174.525 -17.217 175.03 -17.915 178.281 -18.244 178.21 -17.546 174.96 -17.438 174.454 -16.631 170.698"/><polygon id="polygon62" fill="none" stroke="#000" stroke-width=".1" points=".273 172.234 -.869 177.555 -.963 177.993 -2.2 183.751 -1.796 183.838 -.559 178.079 -.465 177.642 .678 172.321"/><polyline id="simplify_SVG__000024___0" fill="none" stroke="#000" stroke-width=".1" points="-15.201 169.333 -5.109 170.867 -4.579 170.981 .045 172.176" class="fil0 str0"/><polyline id="simplify_SVG__000025___0" fill="none" stroke="#000" stroke-width=".1" points="-17.501 180.042 -7.669 182.788 -7.14 182.902 -2.433 183.711" class="fil0 str0"/><line id="line68" x1="-16.864" x2="-1.725" y1="177.089" y2="180.415" stroke="#000" stroke-width=".1"/><line id="line70" x1="-15.833" x2="-.663" y1="172.288" y2="175.472" stroke="#000" stroke-width=".1"/><polygon id="polygon72" fill="none" stroke="#000" stroke-width=".1" points="59.424 173.274 58.862 170.772 58.948 170.062 60.013 167.525 63.87 166.444 70.92 168.923 71.65 170.172 72.407 171.074 72.733 171.763 72.499 173.47 71.187 177.728 70.453 179.155 69.59 179.915"/><polyline id="simplify_SVG__000029___0" fill="none" stroke="#000" stroke-width=".1" points="59.469 170.571 62.793 170.059 65.778 170.667 70.621 173.265 71.506 173.621 72.012 173.166 71.002 175.965" class="fil0 str0"/><polyline id="simplify_SVG__000030___0" fill="none" stroke="#000" stroke-width=".1" points="66.549 170.468 71.04 172.891 71.65 170.172 69.795 169.243" class="fil0 str0"/><line id="line78" x1="65.825" x2="66.254" y1="169.982" y2="167.994" stroke="#000" stroke-width=".1"/><polygon id="polygon80" fill="none" stroke="#000" stroke-width=".1" points="21.575 178.329 22.083 179.12 23.154 180.282 24.438 180.869 25.955 181.296 27.875 181.598 50.694 180.278 52.003 180.183 53.712 180.307 57.824 182.37 59.197 182.664 61.07 182.944 67.287 181.663 68.646 181.072 69.432 180.268 69.748 179.563 69.933 178.909 70.533 176.716 70.637 175.893 70.522 174.946 70.083 174.15 69.401 173.332 68.329 172.516 67.574 172.119 66.514 171.775 65.32 171.669 60.405 172.25 59.816 172.319 57.971 173.882 57.543 174.09 56.746 174.163 54.592 173.699 34.338 173.332 32.323 173.257 31.304 172.965 30.679 172.297 30.456 171.689 29.375 170.858 22.135 173.308 21.398 176.519 21.347 177.516"/><g id="_tag_7_"><polyline id="path82___0___0" fill="none" stroke="#000" stroke-width=".1" points="22.069 175.274 22.738 174.785 23.253 174.592 24.472 174.371 26.065 174.301 26.902 174.166 27.905 174.25 30.009 174.65 31.55 174.815" class="fil0 str4"/><polyline id="path82___1___0" fill="none" stroke="#000" stroke-width=".1" points="30.458 176.747 33.614 177.104 46.103 177.017 47.596 176.802 49.926 176.558 50.794 176.645 51.819 176.906 54.73 177.825 55.909 178.073 57.243 178.153 58.16 178.052 59.578 177.475" class="fil0 str4"/><polyline id="path82___2___0" fill="none" stroke="#000" stroke-width=".1" points="60.905 174.838 63.369 174.589 65.291 174.471 66.663 174.802 67.894 175.422 68.964 176.31 69.584 177.136" class="fil0 str4"/></g><polygon id="ellipse84" fill="none" stroke="#000" stroke-width=".1" points="68.233 179.839 68.156 180.091 68.036 180.332 67.874 180.557 67.673 180.765 67.434 180.953 67.16 181.12 66.855 181.264 66.52 181.382 66.161 181.475 65.78 181.54 65.383 181.577 64.973 181.585 64.555 181.565 64.134 181.517 63.714 181.44 63.3 181.337 62.896 181.209 62.507 181.055 62.136 180.879 61.789 180.683 61.469 180.467 61.179 180.235 60.923 179.99 60.703 179.734 60.522 179.469 60.381 179.199 60.283 178.927 60.228 178.655 60.218 178.387 60.251 178.125 60.328 177.873 60.448 177.632 60.61 177.407 60.811 177.199 61.05 177.011 61.324 176.844 61.63 176.7 61.964 176.582 62.323 176.489 62.704 176.424 63.101 176.387 63.511 176.379 63.929 176.399 64.35 176.447 64.77 176.524 65.184 176.627 65.588 176.756 65.977 176.909 66.348 177.085 66.695 177.281 67.015 177.497 67.305 177.729 67.561 177.974 67.781 178.23 67.962 178.495 68.103 178.765 68.201 179.037 68.255 179.309 68.266 179.577"/><polygon id="ellipse86" fill="none" stroke="#000" stroke-width=".1" points="30.49 179.686 30.416 179.926 30.299 180.153 30.142 180.367 29.945 180.563 29.71 180.741 29.441 180.898 29.141 181.032 28.812 181.142 28.458 181.227 28.083 181.286 27.691 181.318 27.287 181.323 26.875 181.301 26.459 181.252 26.044 181.176 25.634 181.075 25.235 180.949 24.849 180.8 24.483 180.629 24.139 180.439 23.821 180.232 23.534 180.009 23.279 179.773 23.06 179.527 22.879 179.274 22.738 179.016 22.64 178.756 22.583 178.496 22.571 178.241 22.602 177.992 22.676 177.752 22.792 177.525 22.95 177.311 23.147 177.115 23.381 176.937 23.65 176.78 23.951 176.646 24.279 176.536 24.633 176.451 25.008 176.392 25.4 176.36 25.804 176.355 26.216 176.377 26.633 176.426 27.047 176.502 27.457 176.603 27.857 176.729 28.242 176.878 28.608 177.049 28.952 177.239 29.27 177.446 29.558 177.669 29.812 177.905 30.031 178.151 30.212 178.404 30.353 178.662 30.452 178.923 30.508 179.182 30.52 179.437"/><polygon id="ellipse88" fill="none" stroke="#000" stroke-width=".1" points="63.672 168.585 63.711 168.674 63.731 168.773 63.732 168.881 63.714 168.996 63.677 169.117 63.621 169.243 63.547 169.373 63.456 169.504 63.349 169.636 63.226 169.768 63.091 169.897 62.943 170.022 62.784 170.142 62.617 170.256 62.442 170.362 62.263 170.46 62.08 170.548 61.897 170.624 61.714 170.69 61.534 170.742 61.359 170.782 61.191 170.809 61.032 170.821 60.883 170.82 60.746 170.805 60.622 170.777 60.514 170.735 60.421 170.68 60.345 170.613 60.288 170.535 60.249 170.446 60.229 170.347 60.228 170.239 60.246 170.124 60.283 170.003 60.339 169.877 60.413 169.748 60.504 169.616 60.611 169.484 60.734 169.352 60.869 169.223 61.017 169.098 61.176 168.978 61.343 168.864 61.518 168.758 61.697 168.66 61.88 168.572 62.063 168.496 62.246 168.43 62.426 168.378 62.601 168.338 62.769 168.311 62.928 168.299 63.077 168.3 63.214 168.315 63.338 168.343 63.447 168.385 63.539 168.44 63.615 168.507"/><polygon id="ellipse90" fill="none" stroke="#000" stroke-width=".1" points="63.395 168.068 63.434 168.157 63.454 168.256 63.455 168.364 63.437 168.479 63.4 168.6 63.344 168.726 63.27 168.856 63.179 168.987 63.072 169.119 62.949 169.251 62.814 169.38 62.666 169.505 62.507 169.625 62.34 169.739 62.165 169.845 61.986 169.943 61.803 170.031 61.62 170.107 61.437 170.173 61.257 170.225 61.082 170.265 60.914 170.292 60.755 170.304 60.606 170.303 60.469 170.288 60.345 170.26 60.236 170.218 60.144 170.163 60.068 170.096 60.011 170.018 59.972 169.929 59.952 169.83 59.951 169.722 59.969 169.607 60.006 169.486 60.062 169.36 60.136 169.231 60.227 169.099 60.334 168.967 60.457 168.835 60.592 168.706 60.74 168.581 60.899 168.461 61.066 168.347 61.241 168.241 61.42 168.143 61.603 168.055 61.786 167.979 61.969 167.914 62.149 167.861 62.324 167.821 62.492 167.794 62.651 167.782 62.8 167.783 62.937 167.798 63.061 167.826 63.169 167.868 63.262 167.923 63.338 167.99"/><polygon id="ellipse92" fill="none" stroke="#000" stroke-width=".1" points="63.118 167.55 63.157 167.639 63.177 167.738 63.178 167.846 63.16 167.961 63.123 168.082 63.067 168.208 62.993 168.338 62.902 168.469 62.795 168.601 62.672 168.733 62.537 168.862 62.389 168.987 62.23 169.107 62.063 169.221 61.888 169.327 61.709 169.425 61.526 169.513 61.343 169.589 61.16 169.655 60.98 169.707 60.805 169.747 60.637 169.774 60.478 169.786 60.329 169.785 60.192 169.77 60.068 169.742 59.959 169.7 59.867 169.645 59.791 169.578 59.734 169.5 59.695 169.411 59.675 169.312 59.674 169.204 59.692 169.089 59.729 168.968 59.785 168.842 59.859 168.713 59.95 168.581 60.057 168.449 60.18 168.317 60.315 168.188 60.464 168.063 60.622 167.943 60.789 167.829 60.964 167.723 61.143 167.625 61.326 167.537 61.509 167.461 61.692 167.396 61.872 167.343 62.047 167.303 62.215 167.276 62.374 167.264 62.523 167.265 62.66 167.28 62.784 167.308 62.892 167.35 62.985 167.405 63.061 167.472"/><polygon id="ellipse94" fill="none" stroke="#000" stroke-width=".1" points="62.846 167.044 62.885 167.133 62.905 167.232 62.906 167.34 62.888 167.455 62.851 167.576 62.795 167.702 62.721 167.832 62.63 167.963 62.523 168.095 62.4 168.227 62.265 168.356 62.117 168.481 61.958 168.601 61.791 168.715 61.616 168.821 61.437 168.919 61.254 169.007 61.071 169.083 60.888 169.149 60.708 169.201 60.533 169.241 60.365 169.268 60.206 169.28 60.057 169.279 59.92 169.264 59.796 169.236 59.688 169.194 59.595 169.139 59.519 169.072 59.462 168.994 59.423 168.905 59.403 168.806 59.402 168.698 59.42 168.583 59.457 168.462 59.513 168.336 59.587 168.207 59.678 168.075 59.785 167.943 59.908 167.811 60.043 167.682 60.191 167.557 60.35 167.437 60.517 167.323 60.692 167.217 60.871 167.119 61.054 167.031 61.237 166.955 61.42 166.89 61.6 166.837 61.775 166.797 61.943 166.77 62.102 166.758 62.251 166.759 62.388 166.774 62.512 166.802 62.62 166.844 62.713 166.899 62.789 166.966"/><polygon id="ellipse96" fill="none" stroke="#000" stroke-width=".1" points="62.561 166.531 62.6 166.62 62.62 166.719 62.621 166.827 62.603 166.942 62.566 167.063 62.51 167.189 62.436 167.319 62.345 167.45 62.238 167.582 62.115 167.714 61.98 167.843 61.831 167.968 61.673 168.088 61.506 168.202 61.331 168.308 61.152 168.406 60.969 168.494 60.786 168.57 60.603 168.636 60.423 168.688 60.248 168.728 60.08 168.755 59.921 168.767 59.772 168.766 59.635 168.751 59.511 168.723 59.403 168.681 59.31 168.626 59.234 168.559 59.177 168.481 59.138 168.392 59.118 168.293 59.117 168.185 59.135 168.07 59.172 167.949 59.228 167.823 59.302 167.694 59.393 167.562 59.5 167.43 59.623 167.298 59.758 167.169 59.907 167.044 60.065 166.924 60.232 166.81 60.407 166.704 60.586 166.606 60.769 166.518 60.952 166.442 61.135 166.376 61.315 166.324 61.49 166.284 61.658 166.257 61.817 166.245 61.966 166.246 62.103 166.261 62.227 166.289 62.336 166.331 62.428 166.386 62.504 166.453"/><polygon id="ellipse98" fill="none" stroke="#000" stroke-width=".1" points="62.285 166.013 62.324 166.102 62.344 166.201 62.345 166.309 62.327 166.424 62.29 166.545 62.234 166.671 62.16 166.801 62.069 166.932 61.962 167.064 61.839 167.196 61.704 167.325 61.556 167.45 61.397 167.57 61.23 167.684 61.055 167.79 60.876 167.888 60.693 167.976 60.51 168.052 60.327 168.118 60.147 168.17 59.972 168.21 59.804 168.237 59.645 168.249 59.496 168.248 59.359 168.233 59.235 168.205 59.127 168.163 59.034 168.108 58.958 168.041 58.901 167.963 58.862 167.874 58.842 167.775 58.841 167.667 58.859 167.552 58.896 167.431 58.952 167.305 59.026 167.176 59.117 167.044 59.224 166.912 59.347 166.78 59.482 166.651 59.63 166.526 59.789 166.406 59.956 166.292 60.131 166.186 60.31 166.088 60.493 166 60.676 165.924 60.859 165.858 61.039 165.806 61.214 165.766 61.382 165.739 61.541 165.727 61.69 165.728 61.827 165.743 61.951 165.771 62.059 165.813 62.152 165.868 62.228 165.935"/><polygon id="ellipse100" fill="none" stroke="#000" stroke-width=".1" points="62.023 165.488 62.062 165.577 62.082 165.676 62.083 165.784 62.065 165.899 62.028 166.02 61.972 166.146 61.898 166.275 61.807 166.407 61.7 166.539 61.577 166.671 61.442 166.8 61.294 166.925 61.135 167.045 60.968 167.159 60.793 167.265 60.614 167.363 60.431 167.451 60.248 167.527 60.065 167.593 59.885 167.645 59.71 167.685 59.542 167.712 59.383 167.724 59.234 167.723 59.097 167.708 58.973 167.68 58.864 167.638 58.772 167.583 58.696 167.516 58.639 167.438 58.6 167.349 58.58 167.25 58.579 167.142 58.597 167.027 58.634 166.906 58.69 166.78 58.764 166.65 58.855 166.519 58.962 166.387 59.085 166.255 59.22 166.126 59.368 166.001 59.527 165.881 59.694 165.767 59.869 165.661 60.048 165.563 60.231 165.475 60.414 165.399 60.597 165.334 60.777 165.281 60.952 165.241 61.12 165.214 61.279 165.202 61.428 165.203 61.565 165.218 61.689 165.246 61.797 165.288 61.89 165.343 61.966 165.41"/><polygon id="ellipse102" fill="none" stroke="#000" stroke-width=".1" points="61.746 164.971 61.785 165.06 61.805 165.159 61.806 165.267 61.788 165.382 61.751 165.503 61.695 165.629 61.621 165.759 61.53 165.89 61.423 166.022 61.3 166.154 61.165 166.283 61.017 166.408 60.858 166.528 60.691 166.642 60.516 166.748 60.337 166.846 60.154 166.934 59.971 167.01 59.788 167.076 59.608 167.128 59.433 167.168 59.265 167.195 59.106 167.207 58.957 167.206 58.82 167.191 58.696 167.163 58.587 167.121 58.495 167.066 58.419 166.999 58.362 166.921 58.323 166.832 58.303 166.733 58.302 166.625 58.32 166.51 58.357 166.389 58.413 166.263 58.487 166.134 58.578 166.002 58.685 165.87 58.808 165.738 58.943 165.609 59.092 165.484 59.25 165.364 59.417 165.25 59.592 165.144 59.771 165.046 59.954 164.958 60.137 164.882 60.32 164.816 60.5 164.764 60.675 164.724 60.843 164.697 61.002 164.685 61.151 164.686 61.288 164.701 61.412 164.729 61.52 164.771 61.613 164.826 61.689 164.893"/><polygon id="ellipse104" fill="none" stroke="#000" stroke-width=".1" points="61.461 164.457 61.5 164.546 61.52 164.645 61.521 164.753 61.503 164.868 61.466 164.989 61.41 165.115 61.336 165.245 61.245 165.376 61.138 165.508 61.015 165.64 60.88 165.769 60.731 165.894 60.573 166.014 60.406 166.128 60.231 166.234 60.052 166.332 59.869 166.42 59.686 166.496 59.503 166.562 59.323 166.614 59.148 166.654 58.98 166.681 58.821 166.693 58.672 166.692 58.535 166.677 58.411 166.649 58.303 166.607 58.21 166.552 58.134 166.485 58.077 166.407 58.038 166.318 58.018 166.219 58.017 166.111 58.035 165.996 58.072 165.875 58.128 165.749 58.202 165.62 58.293 165.488 58.4 165.356 58.523 165.224 58.658 165.095 58.806 164.97 58.965 164.85 59.132 164.736 59.307 164.63 59.486 164.532 59.669 164.444 59.852 164.368 60.035 164.303 60.215 164.25 60.39 164.21 60.558 164.183 60.717 164.171 60.866 164.172 61.003 164.187 61.127 164.215 61.236 164.257 61.328 164.312 61.404 164.379"/><polygon id="ellipse106" fill="none" stroke="#000" stroke-width=".1" points="61.184 163.94 61.223 164.029 61.243 164.128 61.244 164.236 61.226 164.351 61.189 164.472 61.133 164.598 61.059 164.727 60.968 164.859 60.861 164.991 60.738 165.123 60.603 165.252 60.455 165.377 60.296 165.497 60.129 165.611 59.954 165.717 59.775 165.815 59.592 165.903 59.409 165.979 59.226 166.045 59.046 166.097 58.871 166.137 58.703 166.164 58.544 166.176 58.395 166.175 58.258 166.16 58.134 166.132 58.026 166.09 57.933 166.035 57.857 165.968 57.8 165.89 57.761 165.801 57.741 165.702 57.74 165.594 57.758 165.479 57.795 165.358 57.851 165.232 57.925 165.102 58.016 164.971 58.123 164.839 58.246 164.707 58.381 164.578 58.529 164.453 58.688 164.333 58.855 164.219 59.03 164.113 59.209 164.015 59.392 163.927 59.575 163.851 59.758 163.786 59.938 163.733 60.113 163.693 60.281 163.666 60.44 163.654 60.589 163.655 60.726 163.67 60.85 163.698 60.959 163.74 61.051 163.795 61.127 163.862"/><polygon id="polygon108" fill="none" stroke="#000" stroke-width=".1" points="57.278 172.086 57.702 170.036 57.453 168.485 57.186 168.249 56.713 168.129 54.756 167.934 52.574 171.807 50.615 175.827 53.072 175.776 53.432 175.543 53.822 173.685 54.479 173.287 54.644 172.42 57.004 172.529"/><polyline id="simplify_SVG__000046___0" fill="none" stroke="#000" stroke-width=".1" points="56.947 172.141 56.791 171.053 56.555 170.585 55.968 170.357 54.625 170.261" class="fil0 str0"/><polyline id="simplify_SVG__000047___0" fill="none" stroke="#000" stroke-width=".1" points="66.761 157.957 67.37 157.285 67.991 156.299 68.231 155.569 69.342 150.605 69.345 150.157 68.989 149.82 68.58 149.73 68.342 149.805" class="fil0 str0"/><polygon id="path114_1" fill="none" stroke="#000" stroke-width=".1" points="48.925 131.707 47.643 132.423 46.388 133.134 45.159 133.843 43.954 134.552 42.772 135.264 41.612 135.981 40.471 136.706 39.349 137.441 39.349 137.441 38.697 137.88 38.05 138.324 37.408 138.774 36.771 139.229 36.139 139.691 35.511 140.161 34.887 140.637 34.267 141.123 34.267 141.123 33.621 141.635 32.971 142.152 32.315 142.677 31.653 143.208 30.984 143.75 30.305 144.301 29.617 144.863 28.918 145.439 28.918 145.439 28.433 145.84 27.942 146.249 27.444 146.664 26.94 147.088 26.428 147.52 25.909 147.96 25.382 148.409 24.846 148.867 24.846 148.867 24.143 149.472 23.425 150.095 22.691 150.735 21.94 151.394 21.172 152.072 20.385 152.771 19.579 153.49 18.754 154.232 18.754 154.232 17.4 155.47 16.01 156.771 14.582 158.135 13.109 159.562 11.587 161.051 10.012 162.602 8.38 164.215 6.686 165.888 6.686 165.888 5.826 166.737 5.062 167.554 4.363 168.34 3.697 169.095 3.034 169.82 2.342 170.515 1.591 171.181 .749 171.818 -1.733 183.72 .051 184.371 5.708 184.177 7.61 176.059 8.137 175.231 8.732 174.871 9.446 174.631 11.087 174.251 13.605 173.882 17.54 173.435 18.364 173.579 28.269 173.481 28.833 173.379 29.138 173.006 29.535 171.646 30.887 171.708 32.2 171.767 33.426 171.555 34.785 171.016 35.298 170.622 35.77 169.766 36.243 168.45 35.505 166.529 34.225 164.368 33.614 163.414 32.656 162.733 30.715 162.496 29.826 162.617 28.567 162.83 27.021 163.181 29.315 151.948 30.121 151.056 31.38 150.392 35.574 149.234 36.71 148.972 41.923 147.923 45.15 147.263 46.071 146.992 46.597 147.546 47.167 148.06 47.779 148.53 48.43 148.953 49.118 149.326 49.842 149.645 50.6 149.908 51.389 150.112 51.389 150.112 53.367 150.333 55.292 150.16 57.114 149.624 58.789 148.756 60.268 147.586 61.505 146.144 62.452 144.46 63.063 142.566 63.063 142.566 63.284 140.587 63.111 138.663 62.576 136.84 61.708 135.166 60.537 133.687 59.095 132.45 57.412 131.503 55.517 130.891 55.517 130.891 54.646 130.744 53.78 130.676 52.924 130.684 52.081 130.766 51.255 130.919 50.451 131.141 49.671 131.428 48.921 131.779"/><polyline id="simplify_SVG__000048___0" fill="none" stroke="#000" stroke-width=".1" points="7.655 175.554 8.289 173.093 8.608 172.08 9.229 171.202 9.96 170.699 11.255 170.39 17.508 168.935 29.153 166.262 30.885 166.282 32.895 166.647 34.369 167.282 35.275 168.095 35.725 168.946" class="fil0 str0"/><polyline id="simplify_SVG__000049___0" fill="none" stroke="#000" stroke-width=".1" points="47.781 132.345 45.634 133.998 42.99 136.766 41.663 138.176 39.505 140.899 37.139 143.68 35.284 145.594 32.531 147.784 29.47 149.712 28.13 150.252 26.627 151.589 25.325 153.477 24.352 155.768 22.794 163.231" class="fil0 str0"/><polyline id="simplify_SVG__000050___0" fill="none" stroke="#000" stroke-width=".1" points="31.787 150.128 29.223 149.812 31.367 148.517 35.055 147.68 37.772 147.84 39.443 148.378" class="fil0 str0"/><polyline id="simplify_SVG__000051___0" fill="none" stroke="#000" stroke-width=".1" points="28.13 150.253 24.968 151.201 22.585 152.312 20.252 153.748 17.311 156.091" class="fil0 str0"/><polyline id="simplify_SVG__000052___0" fill="none" stroke="#000" stroke-width=".1" points="11.196 167.155 11.332 166.689 11.615 166.279 12.321 165.727 19.854 158.858 21.532 157.177 22.625 156.529 24.266 156.182" class="fil0 str0"/><polyline id="simplify_SVG__000053___0" fill="none" stroke="#000" stroke-width=".1" points="28.13 150.253 25.881 162.818 19.133 164.526 13.572 166.393 8.427 168.267 4.583 170.808 2.304 172.679 .102 174.95" class="fil0 str0"/><polyline id="simplify_SVG__000054___0" fill="none" stroke="#000" stroke-width=".1" points="8.281 172.079 6.296 173.754 4.693 175.492 3.547 177.418 .235 183.95" class="fil0 str0"/><polygon id="circle130" fill="none" stroke="#000" stroke-width=".1" points="56.451 141.145 56.367 141.455 56.252 141.755 56.105 142.04 55.93 142.309 55.727 142.558 55.5 142.785 55.25 142.986 54.98 143.16 54.694 143.305 54.394 143.42 54.084 143.502 53.767 143.552 53.447 143.568 53.126 143.55 52.809 143.499 52.499 143.416 52.2 143.3 51.914 143.154 51.646 142.978 51.397 142.776 51.17 142.548 50.969 142.298 50.794 142.029 50.649 141.743 50.535 141.443 50.453 141.133 50.403 140.816 50.387 140.495 50.404 140.175 50.455 139.858 50.539 139.548 50.655 139.249 50.801 138.963 50.976 138.694 51.179 138.445 51.406 138.219 51.656 138.017 51.926 137.843 52.212 137.698 52.512 137.584 52.822 137.501 53.139 137.452 53.46 137.435 53.78 137.453 54.097 137.504 54.407 137.588 54.706 137.703 54.992 137.85 55.261 138.025 55.51 138.227 55.736 138.455 55.937 138.705 56.112 138.974 56.257 139.26 56.371 139.56 56.453 139.87 56.503 140.188 56.519 140.508 56.502 140.829"/><polygon id="circle132" fill="none" stroke="#000" stroke-width=".1" points="62.514 142.448 62.261 143.384 61.912 144.289 61.469 145.153 60.939 145.965 60.327 146.718 59.64 147.402 58.885 148.011 58.07 148.537 57.205 148.976 56.298 149.322 55.361 149.571 54.402 149.721 53.433 149.769 52.465 149.717 51.507 149.563 50.571 149.31 49.666 148.96 48.802 148.518 47.99 147.988 47.237 147.376 46.553 146.688 45.944 145.933 45.417 145.118 44.979 144.253 44.633 143.347 44.384 142.409 44.234 141.451 44.185 140.482 44.238 139.513 44.392 138.555 44.645 137.619 44.995 136.714 45.437 135.851 45.967 135.038 46.579 134.286 47.266 133.601 48.022 132.992 48.836 132.466 49.702 132.027 50.608 131.681 51.545 131.432 52.504 131.283 53.473 131.234 54.441 131.287 55.399 131.44 56.336 131.694 57.241 132.043 58.104 132.485 58.916 133.015 59.669 133.628 60.353 134.315 60.962 135.07 61.489 135.885 61.928 136.75 62.273 137.656 62.522 138.594 62.672 139.552 62.721 140.521 62.668 141.49"/><polygon id="circle134" fill="none" stroke="#000" stroke-width=".1" points="59.247 141.746 59.085 142.345 58.862 142.923 58.579 143.476 58.24 143.995 57.849 144.476 57.409 144.914 56.926 145.303 56.405 145.64 55.852 145.921 55.272 146.142 54.673 146.301 54.06 146.397 53.441 146.428 52.821 146.394 52.209 146.296 51.61 146.134 51.031 145.91 50.479 145.628 49.96 145.289 49.478 144.897 49.041 144.458 48.651 143.975 48.315 143.454 48.034 142.9 47.813 142.321 47.654 141.721 47.558 141.109 47.527 140.489 47.561 139.87 47.659 139.257 47.821 138.658 48.044 138.08 48.327 137.528 48.666 137.008 49.057 136.527 49.497 136.089 49.98 135.7 50.501 135.363 51.054 135.083 51.634 134.862 52.233 134.702 52.846 134.607 53.466 134.575 54.085 134.609 54.697 134.708 55.296 134.869 55.875 135.093 56.427 135.376 56.947 135.715 57.428 136.106 57.865 136.546 58.255 137.028 58.592 137.549 58.872 138.103 59.093 138.682 59.252 139.282 59.348 139.895 59.379 140.514 59.346 141.134"/><polygon id="circle136" fill="none" stroke="#000" stroke-width=".1" points="58.712 141.631 58.565 142.175 58.362 142.7 58.106 143.201 57.798 143.672 57.443 144.109 57.044 144.506 56.605 144.86 56.133 145.166 55.63 145.42 55.104 145.621 54.56 145.765 54.004 145.852 53.442 145.88 52.88 145.85 52.324 145.761 51.78 145.614 51.255 145.411 50.754 145.154 50.282 144.846 49.846 144.491 49.448 144.092 49.095 143.654 48.789 143.181 48.535 142.679 48.334 142.153 48.19 141.609 48.103 141.053 48.074 140.49 48.105 139.928 48.194 139.372 48.341 138.829 48.544 138.303 48.801 137.802 49.108 137.331 49.464 136.894 49.862 136.497 50.301 136.143 50.774 135.838 51.276 135.583 51.802 135.382 52.346 135.238 52.902 135.151 53.465 135.123 54.027 135.154 54.583 135.243 55.126 135.39 55.651 135.593 56.152 135.849 56.624 136.157 57.061 136.512 57.458 136.911 57.811 137.349 58.117 137.822 58.371 138.324 58.572 138.85 58.717 139.394 58.804 139.951 58.832 140.513 58.801 141.075"/><polygon id="circle138" fill="none" stroke="#000" stroke-width=".1" points="57.642 141.401 57.525 141.834 57.363 142.252 57.159 142.652 56.914 143.027 56.631 143.375 56.313 143.691 55.964 143.973 55.587 144.216 55.187 144.419 54.768 144.579 54.335 144.694 53.892 144.763 53.444 144.786 52.996 144.761 52.553 144.69 52.121 144.573 51.702 144.411 51.303 144.207 50.928 143.962 50.58 143.679 50.263 143.361 49.982 143.012 49.739 142.636 49.536 142.236 49.376 141.817 49.261 141.383 49.192 140.94 49.169 140.493 49.194 140.045 49.265 139.602 49.382 139.169 49.543 138.751 49.748 138.352 49.993 137.976 50.276 137.628 50.593 137.312 50.942 137.03 51.319 136.787 51.719 136.584 52.138 136.424 52.571 136.309 53.014 136.24 53.462 136.218 53.91 136.242 54.353 136.313 54.786 136.43 55.204 136.592 55.603 136.796 55.978 137.041 56.326 137.324 56.643 137.642 56.924 137.991 57.168 138.368 57.37 138.767 57.53 139.186 57.645 139.62 57.715 140.063 57.737 140.511 57.713 140.958"/><polygon id="circle140" fill="none" stroke="#000" stroke-width=".1" points="55.943 141.036 55.873 141.294 55.777 141.542 55.656 141.78 55.51 142.003 55.342 142.21 55.153 142.398 54.946 142.565 54.722 142.71 54.484 142.83 54.235 142.925 53.977 142.994 53.714 143.035 53.448 143.048 53.181 143.034 52.918 142.991 52.661 142.922 52.412 142.826 52.175 142.704 51.952 142.559 51.745 142.391 51.557 142.202 51.39 141.994 51.245 141.77 51.124 141.533 51.029 141.283 50.961 141.026 50.92 140.762 50.907 140.496 50.921 140.23 50.963 139.967 51.033 139.709 51.129 139.461 51.25 139.224 51.396 139 51.564 138.794 51.753 138.606 51.961 138.438 52.184 138.293 52.422 138.173 52.671 138.078 52.929 138.01 53.192 137.968 53.459 137.955 53.725 137.97 53.988 138.012 54.245 138.081 54.494 138.177 54.731 138.299 54.954 138.445 55.161 138.613 55.349 138.802 55.517 139.009 55.661 139.233 55.782 139.471 55.877 139.72 55.945 139.977 55.986 140.241 56 140.507 55.985 140.773"/><polygon id="polygon142" fill="none" stroke="#000" stroke-width=".1" points="55.877 139.72 55.342 142.21 52.918 142.991 51.029 141.283 51.564 138.794 53.988 138.012"/><polygon id="polygon144" fill="none" stroke="#000" stroke-width=".1" points="54.319 154.278 53.808 153.942 53.02 153.694 51.378 153.352 52.114 153.07 53.12 153.125 54.012 153.388 54.656 153.877 55.116 154.441 54.728 154.881"/><polygon id="polygon146" fill="none" stroke="#000" stroke-width=".1" points="29.315 151.948 30.121 151.056 31.38 150.392 35.574 149.234 36.71 148.972 38.686 148.517 41.923 147.923 45.15 147.263 48.104 146.392 52.233 145.064 54.864 144.265 56.907 143.716 59.181 143.218 61.754 143.105 67.398 143.477 72.787 144.364 74.897 144.844 76.684 145.444 78.127 146.363 79.017 147.397 79.26 148.216 79.307 148.721 78.895 150.638 78.839 150.832 78.149 149.547 76.463 148.099 72.46 147.313 70.843 147.472 69.532 147.979 69.215 148.47 68.418 149.127 68.192 150.098 66.502 157.368 66.844 158.145 67.929 158.578 69.347 158.782 71.931 159.244 73.419 159.943 75.257 161.37 76.239 163.26 75.586 166.301 74.882 167.555 73.711 168.397 73.093 168.345 72.298 168.637 70.923 168.876 69.539 168.924 68.877 169.146 67.652 168.884 66.254 167.994 65.047 167.436 63.753 167.48 57.336 167.558 56.052 167.972 55.457 168.473 55.564 168.879 55.45 169.532 51.736 171.556 47.353 174.111 47.056 175.903 46.605 178.015 45.847 180.504 45.526 182.459 44.981 184.101 44.218 185.696 42.84 187.227 41.254 188.31 39.376 188.982 37.136 189.321 34.776 189.261 34.283 188.776 33.877 188.095 37.122 172.577 37.008 170.892 36.425 168.924 35.505 166.529 34.225 164.368 33.614 163.414 32.656 162.733 30.715 162.496 28.567 162.83 27.021 163.181"/><g id="simplify_SVG__000064_1"><polyline id="simplify_SVG__000064___0" fill="none" stroke="#000" stroke-width=".1" points="69.962 146.395 69.138 147.153 68.669 147.854 68.527 148.655 68.192 150.098" class="fil0 str0"/><polygon id="simplify_SVG__000064___1" fill="none" stroke="#000" stroke-width=".1" points="69.962 146.395" class="fil0 str0"/></g><polyline id="simplify_SVG__000065___0" fill="none" stroke="#000" stroke-width=".1" points="66.844 158.145 60.156 158.197 59.917 159.867 59.409 160.908 58.344 161.74 57.244 162.369 55.298 162.439 54.068 161.901 53.485 161.125 53.104 159.898 53.343 158.215 48.718 158.393 44.675 158.96 42.706 158.944 41.098 157.75 39.727 155.76 39.258 154.968 39.401 154.262 40.56 153.763 43.056 152.653 48.344 150.573 53.331 149.221 57.198 148.278 69.138 147.153" class="fil0 str0"/><polyline id="simplify_SVG__000066___0" fill="none" stroke="#000" stroke-width=".1" points="42.218 159.134 39.199 159.569 33.737 160.84 28.718 162.332" class="fil0 str0"/><polyline id="simplify_SVG__000067___0" fill="none" stroke="#000" stroke-width=".1" points="73.318 164.311 72.45 163.61 70.661 162.997 68.681 162.653 60.654 163.395 52.371 164.495 47.378 165.765 45.378 166.384 43.224 167.559 41.68 168.784 40.475 170.336 34.813 188.473" class="fil0 str0"/><polyline id="simplify_SVG__000068___0" fill="none" stroke="#000" stroke-width=".1" points="66.172 165.748 55.102 166.756 49.494 167.082 47.89 167.141 46.182 167.456 44.312 168.298 43.235 169.693 42.925 171.151 42.922 172.874 43.272 175.571 44.314 178.096 45.124 179.758 45.847 180.504" class="fil0 str0"/><polyline id="simplify_SVG__000069___0" fill="none" stroke="#000" stroke-width=".1" points="27.021 163.181 26.302 163.328 25.881 162.818" class="fil0 str0"/><polygon id="polygon160" fill="none" stroke="#000" stroke-width=".1" points="52.229 157.631 57.151 152.046 57.506 151.46 57.367 150.704 56.705 150.413 55.955 150.364 52.966 150.898 51.008 151.473 48.554 152.218 46.266 153.182 44.226 154.208 43.734 154.666 43.435 155.272 43.445 155.995 44.876 158.125 45.389 158.511 45.989 158.497 51.301 158.028"/><polygon id="polygon162" fill="none" stroke="#000" stroke-width=".1" points="52.229 157.631 57.212 151.945 56.577 151.914 53.672 152.611 51.724 153.217 49.281 154.002 47.009 155.002 44.986 156.06 44.725 156.408 44.623 157.009 45.068 157.838 45.41 158.268 45.989 158.497 51.301 158.028"/><polygon id="path164_1" fill="none" stroke="#000" stroke-width=".1" points="44.712 169.743 44.806 169.302 44.951 169.113 45.362 168.593 45.922 168.185 46.612 167.89 47.411 167.707 48.297 167.638 49.25 167.683 50.249 167.844 50.249 167.844 51.227 168.107 52.116 168.451 52.899 168.861 53.559 169.324 54.078 169.825 54.438 170.348 54.623 170.881 54.614 171.409 54.519 171.849 54.474 172.011 54.408 172.166 54.325 172.313 54.222 172.453 54.103 172.585 53.967 172.709 53.815 172.825 53.647 172.933 53.647 172.933 53.035 172.316 52.07 171.735 50.86 171.224 49.515 170.819 48.145 170.556 46.86 170.469 45.769 170.595 44.981 170.969 44.981 170.969 44.893 170.816 44.82 170.662 44.762 170.508 44.719 170.354 44.692 170.2 44.682 170.047 44.688 169.894"/><polygon id="ellipse166" fill="none" stroke="#000" stroke-width=".1" points="52.104 174.786 52.042 174.987 51.947 175.178 51.817 175.358 51.656 175.523 51.465 175.673 51.246 175.806 51.001 175.921 50.733 176.015 50.445 176.088 50.141 176.139 49.822 176.168 49.494 176.175 49.159 176.158 48.822 176.12 48.485 176.058 48.153 175.976 47.829 175.873 47.517 175.75 47.221 175.61 46.942 175.452 46.686 175.28 46.453 175.096 46.248 174.9 46.071 174.695 45.926 174.484 45.813 174.268 45.734 174.051 45.69 173.834 45.681 173.621 45.708 173.412 45.769 173.211 45.865 173.02 45.994 172.84 46.156 172.675 46.347 172.524 46.566 172.392 46.811 172.278 47.079 172.183 47.367 172.11 47.671 172.059 47.99 172.03 48.318 172.023 48.653 172.04 48.99 172.078 49.327 172.14 49.659 172.222 49.982 172.325 50.294 172.448 50.591 172.588 50.869 172.745 51.126 172.917 51.359 173.102 51.564 173.298 51.74 173.503 51.886 173.714 51.999 173.929 52.078 174.147 52.122 174.363 52.13 174.577"/><g id="_tag_9_"><polyline id="path168___0___0" fill="none" stroke="#000" stroke-width=".1" points="53.644 173.559 53.645 173.559" class="fil1 str5"/><polygon id="path168___1" fill="none" stroke="#000" stroke-width=".1" points="50.056 168.743 50.965 168.991 51.791 169.322 52.516 169.72 53.126 170.172 53.604 170.663 53.933 171.18 54.098 171.709 54.082 172.235 53.927 172.957 53.907 173.038 53.883 173.118 53.853 173.196 53.82 173.272 53.782 173.346 53.74 173.419 53.694 173.49 53.644 173.559 51.86 175.306 51.86 175.306 51.614 175.561 51.301 175.777 50.929 175.949 50.508 176.074 50.045 176.151 49.548 176.176 49.025 176.146 48.485 176.059 48.485 176.059 47.957 175.917 47.468 175.73 47.026 175.503 46.635 175.243 46.303 174.955 46.035 174.646 45.838 174.322 45.718 173.988 45.717 173.988 44.815 171.693 44.816 171.693 44.796 171.605 44.781 171.518 44.77 171.43 44.765 171.343 44.765 171.256 44.77 171.169 44.781 171.082 44.797 170.996 44.952 170.274 45.153 169.788 45.52 169.374 46.033 169.037 46.67 168.785 47.412 168.624 48.237 168.559 49.125 168.596"/><polyline id="path170_1___0" fill="none" stroke="#000" stroke-width=".1" points="44.797 170.996 44.998 170.51 45.366 170.095 45.878 169.759 46.515 169.507 47.257 169.345 48.082 169.28 48.97 169.318 49.901 169.464 49.901 169.464 50.81 169.713 51.636 170.043 52.362 170.442 52.971 170.894 53.449 171.385 53.778 171.902 53.943 172.431 53.927 172.957" class="fil0 str5"/></g><polygon id="ellipse172" fill="none" stroke="#000" stroke-width=".1" points="52.104 174.786 52.042 174.987 51.947 175.178 51.817 175.358 51.656 175.523 51.465 175.673 51.246 175.806 51.001 175.921 50.733 176.015 50.445 176.088 50.141 176.139 49.822 176.168 49.494 176.175 49.159 176.158 48.822 176.12 48.485 176.058 48.153 175.976 47.829 175.873 47.517 175.75 47.221 175.61 46.942 175.452 46.686 175.28 46.453 175.096 46.248 174.9 46.071 174.695 45.926 174.484 45.813 174.268 45.734 174.051 45.69 173.834 45.681 173.621 45.708 173.412 45.769 173.211 45.865 173.02 45.994 172.84 46.156 172.675 46.347 172.524 46.566 172.392 46.811 172.278 47.079 172.183 47.367 172.11 47.671 172.059 47.99 172.03 48.318 172.023 48.653 172.04 48.99 172.078 49.327 172.14 49.659 172.222 49.982 172.325 50.294 172.448 50.591 172.588 50.869 172.745 51.126 172.917 51.359 173.102 51.564 173.298 51.74 173.503 51.886 173.714 51.999 173.929 52.078 174.147 52.122 174.363 52.13 174.577"/><g id="simplify_SVG__000074_1"><polyline id="simplify_SVG__000074___0" fill="none" stroke="#000" stroke-width=".1" points="45.745 174.09 44.389 171.476 44.089 170.518 44.299 169.485 44.806 168.608 45.42 168.111 46.263 167.651 47.89 167.141 49.712 167.061 50.847 167.209 51.631 167.333 52.449 167.638 53.608 168.356 54.331 169.203 55.207 169.382" class="fil0 str0"/><polyline id="path176_1___0" fill="none" stroke="#000" stroke-width=".1" points="44.712 169.743 44.92 169.258 45.307 168.848 45.851 168.518 46.529 168.275 47.321 168.124 48.204 168.072 49.156 168.123 50.155 168.284 50.155 168.284 51.132 168.547 52.021 168.891 52.804 169.302 53.464 169.765 53.983 170.265 54.344 170.789 54.528 171.322 54.519 171.849" class="fil0 str5"/></g><polygon id="ellipse178" fill="none" stroke="#000" stroke-width=".1" points="51.551 174.917 51.498 175.094 51.415 175.262 51.305 175.421 51.168 175.567 51.005 175.7 50.819 175.818 50.611 175.92 50.384 176.004 50.141 176.071 49.883 176.118 49.614 176.146 49.336 176.154 49.054 176.142 48.769 176.11 48.485 176.059 48.205 175.989 47.933 175.901 47.67 175.796 47.42 175.674 47.186 175.539 46.971 175.39 46.776 175.229 46.604 175.059 46.456 174.881 46.335 174.697 46.241 174.509 46.176 174.319 46.14 174.129 46.134 173.942 46.158 173.759 46.212 173.582 46.294 173.414 46.404 173.256 46.542 173.109 46.704 172.976 46.891 172.858 47.098 172.756 47.325 172.672 47.569 172.605 47.827 172.558 48.096 172.53 48.373 172.523 48.656 172.534 48.94 172.566 49.224 172.617 49.504 172.687 49.777 172.775 50.039 172.88 50.289 173.001 50.523 173.137 50.739 173.286 50.934 173.447 51.106 173.617 51.253 173.795 51.375 173.979 51.468 174.167 51.533 174.357 51.569 174.547 51.575 174.734"/><polygon id="polygon180" fill="none" stroke="#000" stroke-width=".1" points="51.042 174.111 50.74 175.518 48.557 175.785 46.676 174.646 46.978 173.239 49.161 172.972"/><line id="line182" x1="48.557" x2="49.161" y1="175.785" y2="172.972" stroke="#000" stroke-width=".1"/><polygon id="ellipse184" fill="none" stroke="#000" stroke-width=".1" points="34.956 169.801 34.889 170.015 34.784 170.217 34.641 170.406 34.461 170.581 34.247 170.738 34.002 170.876 33.727 170.995 33.426 171.091 33.102 171.165 32.759 171.216 32.401 171.242 32.03 171.244 31.652 171.222 31.271 171.176 30.89 171.106 30.514 171.013 30.147 170.899 29.794 170.764 29.457 170.61 29.14 170.438 28.848 170.251 28.583 170.051 28.349 169.839 28.147 169.619 27.98 169.392 27.849 169.161 27.757 168.928 27.704 168.697 27.692 168.469 27.718 168.247 27.785 168.033 27.89 167.831 28.034 167.642 28.213 167.467 28.427 167.31 28.672 167.172 28.947 167.053 29.248 166.957 29.572 166.883 29.915 166.832 30.274 166.806 30.644 166.804 31.022 166.826 31.404 166.872 31.784 166.942 32.16 167.035 32.527 167.149 32.881 167.284 33.218 167.438 33.534 167.61 33.826 167.797 34.091 167.997 34.325 168.209 34.528 168.429 34.695 168.656 34.825 168.887 34.917 169.12 34.97 169.351 34.983 169.579"/><polygon id="ellipse186" fill="none" stroke="#000" stroke-width=".1" points="30.219 179.361 30.153 179.575 30.047 179.777 29.904 179.967 29.724 180.141 29.511 180.298 29.265 180.437 28.99 180.555 28.689 180.651 28.366 180.725 28.023 180.776 27.664 180.802 27.293 180.804 26.915 180.782 26.534 180.736 26.153 180.666 25.777 180.573 25.411 180.459 25.057 180.324 24.72 180.17 24.404 179.998 24.112 179.812 23.847 179.611 23.612 179.399 23.41 179.179 23.243 178.952 23.113 178.721 23.021 178.488 22.968 178.257 22.955 178.029 22.982 177.807 23.048 177.593 23.154 177.391 23.297 177.202 23.476 177.027 23.69 176.87 23.936 176.732 24.21 176.613 24.511 176.517 24.835 176.443 25.178 176.392 25.537 176.366 25.907 176.364 26.285 176.386 26.667 176.432 27.047 176.502 27.423 176.595 27.79 176.709 28.144 176.844 28.481 176.998 28.797 177.17 29.089 177.357 29.354 177.557 29.589 177.769 29.791 177.989 29.958 178.216 30.088 178.447 30.18 178.68 30.233 178.911 30.246 179.139"/><polygon id="ellipse188" fill="none" stroke="#000" stroke-width=".1" points="67.899 179.373 67.832 179.587 67.727 179.789 67.583 179.979 67.404 180.153 67.19 180.31 66.945 180.449 66.67 180.567 66.369 180.663 66.045 180.737 65.702 180.788 65.343 180.814 64.973 180.816 64.595 180.794 64.214 180.748 63.833 180.678 63.457 180.585 63.09 180.471 62.736 180.336 62.4 180.182 62.083 180.01 61.791 179.824 61.526 179.623 61.292 179.411 61.09 179.191 60.922 178.964 60.792 178.733 60.7 178.5 60.647 178.269 60.634 178.041 60.661 177.819 60.728 177.605 60.833 177.403 60.977 177.214 61.156 177.039 61.37 176.882 61.615 176.744 61.89 176.625 62.191 176.529 62.515 176.455 62.858 176.404 63.217 176.378 63.587 176.376 63.965 176.398 64.346 176.444 64.727 176.514 65.103 176.607 65.47 176.721 65.823 176.856 66.16 177.01 66.477 177.182 66.769 177.369 67.034 177.569 67.268 177.78 67.47 178.001 67.638 178.228 67.768 178.459 67.86 178.692 67.913 178.923 67.926 179.151"/><polygon id="ellipse190" fill="none" stroke="#000" stroke-width=".1" points="73.936 166.645 73.869 166.859 73.764 167.061 73.62 167.25 73.441 167.425 73.227 167.582 72.982 167.721 72.707 167.839 72.406 167.935 72.082 168.009 71.739 168.06 71.38 168.086 71.01 168.088 70.632 168.066 70.251 168.02 69.87 167.95 69.494 167.857 69.127 167.743 68.773 167.608 68.437 167.454 68.12 167.282 67.828 167.096 67.563 166.895 67.329 166.684 67.127 166.463 66.96 166.236 66.829 166.005 66.737 165.772 66.684 165.541 66.671 165.313 66.698 165.091 66.765 164.877 66.87 164.675 67.014 164.486 67.193 164.311 67.407 164.154 67.652 164.016 67.927 163.897 68.228 163.801 68.552 163.727 68.895 163.676 69.254 163.65 69.624 163.648 70.002 163.67 70.383 163.716 70.764 163.786 71.14 163.879 71.507 163.993 71.861 164.128 72.197 164.282 72.514 164.454 72.806 164.641 73.071 164.841 73.305 165.053 73.507 165.273 73.674 165.5 73.805 165.731 73.897 165.964 73.95 166.195 73.963 166.423"/><polyline id="path192_1___0" fill="none" stroke="#000" stroke-width=".1" points="29.68 159.612 33.946 156.632 35.806 155.452 39.414 153.503 42.298 152.158 44.396 151.275 46.88 150.358 50.504 149.171 56.334 147.604 56.035 146.889 56.027 146.283 56.129 145.78 56.415 145.234 56.711 144.775 57.205 144.346 58.071 143.827 58.857 143.526 58.857 143.526 59.81 143.319 60.741 143.296 61.585 143.453 62.281 143.786 62.763 144.291 62.969 144.963 62.834 145.798 62.296 146.791 66.476 146.339 69.269 146.366 72.03 146.48 74.28 147.07 75.847 147.701 77.08 148.497 78.149 149.547 78.895 150.637" class="fil0 str5"/><polygon id="ellipse194" fill="none" stroke="#000" stroke-width=".1" points="62.525 144.979 62.532 145.212 62.506 145.452 62.448 145.697 62.358 145.943 62.238 146.189 62.088 146.432 61.91 146.668 61.706 146.896 61.479 147.113 61.231 147.316 60.965 147.503 60.683 147.673 60.388 147.822 60.085 147.951 59.776 148.056 59.464 148.138 59.153 148.195 58.847 148.227 58.548 148.233 58.261 148.213 57.987 148.167 57.731 148.097 57.495 148.002 57.282 147.883 57.093 147.743 56.931 147.582 56.798 147.403 56.695 147.207 56.624 146.996 56.585 146.773 56.578 146.54 56.604 146.3 56.662 146.055 56.752 145.809 56.872 145.563 57.022 145.32 57.2 145.084 57.404 144.856 57.631 144.639 57.879 144.436 58.145 144.249 58.427 144.08 58.722 143.93 59.025 143.801 59.334 143.696 59.646 143.614 59.957 143.557 60.263 143.525 60.562 143.519 60.849 143.539 61.123 143.585 61.379 143.655 61.615 143.75 61.828 143.869 62.017 144.009 62.179 144.17 62.312 144.349 62.415 144.545 62.486 144.756"/><g id="_tag_10_"><polyline id="simplify_SVG__000083___0" fill="none" stroke="#000" stroke-width=".1" points="56.989 145.498 58.156 145.019 58.723 144.489 60.176 144.302 60.566 144.969 62.595 145.13" class="fil0 str0"/><polyline id="simplify_SVG__000084___0" fill="none" stroke="#000" stroke-width=".1" points="56.587 146.424 58.031 146.017 58.306 146.67 59.9 146.554 60.665 145.78 62.374 145.906" class="fil0 str0"/><polyline id="simplify_SVG__000085___0" fill="none" stroke="#000" stroke-width=".1" points="58.723 144.489 59.663 146.053 59.103 146.612" class="fil0 str0"/><polyline id="simplify_SVG__000086___0" fill="none" stroke="#000" stroke-width=".1" points="58.156 145.019 58.858 145.939 58.413 146.507" class="fil0 str0"/><line id="line204" x1="60.566" x2="60.927" y1="144.969" y2="145.8" stroke="#000" stroke-width=".1"/><line id="line206" x1="59.663" x2="60.477" y1="146.053" y2="145.971" stroke="#000" stroke-width=".1"/><line id="line208" x1="58.031" x2="58.413" y1="146.017" y2="146.507" stroke="#000" stroke-width=".1"/></g><g id="path228_1_1"><polyline id="path228_1___0" fill="none" stroke="#000" stroke-width=".1" points="73.966 166.489 73.822 166.982 73.528 167.421 73.103 167.799 72.563 168.108 71.926 168.339 71.209 168.485 70.431 168.537 69.608 168.488 69.608 168.488 69.057 168.397 68.535 168.264 68.045 168.094 67.592 167.889 67.181 167.654 66.817 167.392 66.505 167.107 66.247 166.803 66.676 165.235" class="fil0 str5"/><polyline id="simplify_SVG__000099___0" fill="none" stroke="#000" stroke-width=".1" points="66.247 166.802 65.118 166.908 64.889 166.505 64.131 166.175" class="fil0 str0"/><polyline id="simplify_SVG__000100___0" fill="none" stroke="#000" stroke-width=".1" points="79.166 152.631 79.657 155.075 79.894 157.393 79.968 160.454 79.842 162.985 79.489 165.08 80.36 167.7 80.882 170.106 81.127 172.937 81.061 176.072" class="fil0 str0"/><polyline id="simplify_SVG__000101___0" fill="none" stroke="#000" stroke-width=".1" points="69.159 151.271 69.157 150.963 68.957 150.779 68.64 150.793 68.25 151.029 68.094 151.645" class="fil0 str0"/></g><g id="_tag_11_"><polygon id="ellipse210" fill="none" stroke="#000" stroke-width=".1" points="59.665 158.27 59.672 158.503 59.646 158.743 59.588 158.988 59.498 159.234 59.378 159.48 59.228 159.723 59.05 159.959 58.846 160.187 58.619 160.404 58.371 160.607 58.105 160.794 57.823 160.964 57.528 161.113 57.225 161.242 56.916 161.347 56.604 161.429 56.293 161.486 55.987 161.518 55.688 161.524 55.401 161.504 55.127 161.458 54.871 161.388 54.635 161.293 54.422 161.174 54.233 161.034 54.071 160.873 53.938 160.694 53.835 160.498 53.764 160.287 53.725 160.064 53.718 159.831 53.744 159.591 53.802 159.346 53.892 159.1 54.012 158.854 54.162 158.611 54.34 158.375 54.544 158.147 54.771 157.93 55.019 157.727 55.285 157.54 55.567 157.37 55.862 157.221 56.165 157.092 56.474 156.987 56.786 156.905 57.097 156.848 57.403 156.816 57.702 156.81 57.989 156.83 58.263 156.876 58.519 156.946 58.755 157.041 58.968 157.16 59.157 157.3 59.319 157.461 59.452 157.64 59.555 157.836 59.626 158.047"/><polygon id="ellipse226" fill="none" stroke="#000" stroke-width=".1" points="59.856 158.7 59.863 158.933 59.837 159.173 59.779 159.418 59.689 159.664 59.569 159.91 59.419 160.153 59.241 160.389 59.037 160.617 58.81 160.834 58.562 161.037 58.296 161.224 58.014 161.393 57.719 161.543 57.416 161.672 57.106 161.777 56.795 161.859 56.484 161.916 56.178 161.948 55.879 161.954 55.592 161.934 55.318 161.888 55.062 161.818 54.826 161.723 54.612 161.604 54.424 161.464 54.262 161.303 54.129 161.124 54.026 160.928 53.955 160.717 53.916 160.494 53.909 160.261 53.935 160.021 53.993 159.776 54.083 159.53 54.203 159.284 54.353 159.041 54.531 158.805 54.735 158.577 54.962 158.36 55.21 158.157 55.476 157.97 55.758 157.801 56.053 157.651 56.356 157.522 56.666 157.417 56.977 157.335 57.288 157.278 57.594 157.246 57.893 157.24 58.18 157.26 58.454 157.306 58.71 157.376 58.946 157.471 59.16 157.59 59.348 157.73 59.51 157.891 59.643 158.07 59.746 158.266 59.817 158.477"/><polyline id="simplify_SVG__000091___0" fill="none" stroke="#000" stroke-width=".1" points="54.129 158.789 55.296 158.31 55.864 157.78 57.316 157.594 57.707 158.26 59.735 158.421" class="fil0 str0"/><polyline id="simplify_SVG__000092___0" fill="none" stroke="#000" stroke-width=".1" points="53.727 159.715 55.171 159.308 55.446 159.961 57.04 159.845 57.805 159.071 59.515 159.197" class="fil0 str0"/><polyline id="simplify_SVG__000093___0" fill="none" stroke="#000" stroke-width=".1" points="55.864 157.78 56.804 159.344 56.243 159.903" class="fil0 str0"/><polyline id="simplify_SVG__000094___0" fill="none" stroke="#000" stroke-width=".1" points="55.296 158.31 55.998 159.23 55.553 159.798" class="fil0 str0"/><line id="line220" x1="57.707" x2="58.067" y1="158.26" y2="159.091" stroke="#000" stroke-width=".1"/><line id="line222" x1="56.804" x2="57.617" y1="159.344" y2="159.262" stroke="#000" stroke-width=".1"/><line id="line224" x1="55.171" x2="55.553" y1="159.308" y2="159.798" stroke="#000" stroke-width=".1"/></g><circle id="center_00" cx="53.453" cy="140.498" r="5"/></g></svg>
