<svg xmlns="http://www.w3.org/2000/svg" width="297mm" height="210mm" viewBox="0 0 297 210"><g id="_tag_279_"><g id="_tag_280_"><ellipse id="center_00" cx="140" cy="70" rx="4" ry="5" style="fill:#eff1cb;fill-opacity:1;fill-rule:evenodd;stroke:#eff1cb;stroke-width:1px;stroke-linecap:butt;stroke-linejoin:miter;stroke-opacity:1;display:inline"/><polygon id="_153806536_1" fill="none" stroke="#000" stroke-width=".1" points="186.096 73.378 186.096 65.185 186.29 63.259 186.847 61.464 187.729 59.84 188.896 58.426 190.311 57.258 191.935 56.377 193.729 55.82 195.655 55.625 209.311 55.625 209.311 50.163 195.655 50.163 192.628 50.468 189.809 51.344 187.257 52.729 185.034 54.563 183.199 56.787 181.814 59.338 180.939 62.158 180.634 65.185 180.634 73.378 180.939 76.405 181.814 79.225 183.199 81.777 185.034 84 187.257 85.834 189.809 87.219 192.628 88.095 195.655 88.4 217.505 88.4 217.505 82.938 195.655 82.938 193.729 82.743 191.935 82.186 190.311 81.305 188.896 80.137 187.729 78.723 186.847 77.099 186.29 75.305 186.096 73.378" class="fil0"/><polygon id="_153073168_1" fill="none" stroke="#000" stroke-width=".1" points="280.062 73.378 280.062 65.185 279.859 63.259 279.275 61.464 278.351 59.84 277.128 58.426 275.646 57.258 273.945 56.377 272.065 55.82 270.048 55.625 261.204 55.625 261.204 77.475 255.741 77.475 255.741 50.163 270.048 50.163 273.219 50.468 276.172 51.344 278.846 52.729 281.175 54.563 283.096 56.787 284.548 59.338 285.465 62.158 285.785 65.185 285.785 73.378 285.465 76.405 284.548 79.225 283.096 81.777 281.175 84 278.846 85.834 276.172 87.219 273.219 88.095 270.048 88.4 244.816 88.4 244.816 82.938 270.048 82.938 272.065 82.743 273.945 82.186 275.646 81.305 277.128 80.137 278.351 78.723 279.275 77.099 279.859 75.305 280.062 73.378" class="fil0"/><polygon id="_153075216_1" fill="none" stroke="#000" stroke-width=".1" points="222.967 77.475 222.967 63.819 223.161 61.893 223.718 60.099 224.6 58.475 225.767 57.06 227.182 55.893 228.806 55.011 230.6 54.454 232.526 54.26 232.526 54.26 234.453 54.454 236.247 55.011 237.871 55.893 239.285 57.06 240.453 58.475 241.334 60.099 241.891 61.893 242.086 63.819 242.086 72.013 242.086 77.475 242.086 88.4 247.548 88.4 247.548 63.819 247.243 60.792 246.367 57.973 244.982 55.421 243.148 53.198 240.924 51.363 238.373 49.978 235.553 49.103 232.526 48.798 232.526 48.798 229.499 49.103 226.68 49.978 224.128 51.363 221.905 53.198 220.07 55.421 218.685 57.973 217.81 60.792 217.505 63.819 217.505 88.4 222.967 88.4 222.967 82.938 236.623 82.938 236.623 77.475 222.967 77.475" class="fil0"/><g id="_tag_281_"><polygon id="_152100832_1" fill="none" stroke="#000" stroke-width=".1" points="67.288 88.4 64.557 88.4 14.029 88.4 14.029 73.378 14.335 70.351 15.21 67.532 16.595 64.98 18.43 62.757 20.653 60.923 23.205 59.537 26.024 58.662 29.051 58.357 29.051 58.357 32.078 58.662 34.898 59.537 37.449 60.923 39.673 62.757 41.507 64.98 42.892 67.532 43.768 70.351 44.073 73.378 38.61 73.378 38.416 71.452 37.859 69.658 36.978 68.034 35.81 66.619 34.395 65.452 32.772 64.571 30.977 64.013 29.051 63.819 29.051 63.819 27.125 64.013 25.331 64.571 23.707 65.452 22.292 66.619 21.125 68.034 20.243 69.658 19.686 71.452 19.492 73.378 19.492 82.938 91.869 82.938 91.869 63.819 85.041 63.819 85.041 58.357 91.869 58.357 91.869 50.163 97.383 50.163 97.383 58.357 108.256 58.357 108.256 50.163 113.719 50.163 113.719 58.357 124.644 58.357 124.644 52.894 130.106 52.894 130.106 65.185 130.106 73.378 130.3 75.305 130.857 77.099 131.739 78.723 132.906 80.137 134.321 81.305 135.945 82.186 137.739 82.743 139.665 82.938 145.831 82.938 145.067 81.93 144.389 80.859 143.801 79.729 143.309 78.546 142.917 77.314 142.631 76.039 142.456 74.725 142.396 73.378 142.396 73.378 142.702 70.351 143.577 67.532 144.962 64.98 146.797 62.757 149.02 60.923 151.571 59.537 154.391 58.662 157.418 58.357 157.418 58.357 160.445 58.662 163.264 59.537 165.816 60.923 168.039 62.757 169.874 64.98 171.259 67.532 172.134 70.351 172.44 73.378 172.508 76.092 169.776 76.092 168.411 76.092 153.389 76.092 153.389 70.63 166.575 70.63 166.02 69.206 165.254 67.904 164.299 66.744 163.175 65.747 161.904 64.936 160.507 64.329 159.004 63.95 157.418 63.819 157.418 63.819 155.492 64.013 153.698 64.571 152.074 65.452 150.659 66.619 149.492 68.034 148.61 69.658 148.053 71.452 147.859 73.378 147.859 73.378 148.053 75.305 148.61 77.099 149.492 78.723 150.659 80.137 152.074 81.305 153.698 82.186 155.492 82.743 157.418 82.938 172.44 82.938 172.44 88.4 162.88 88.4 157.418 88.4 139.665 88.4 136.638 88.095 133.819 87.219 131.267 85.834 129.044 84 127.209 81.777 125.824 79.225 124.949 76.405 124.644 73.378 124.644 63.819 113.719 63.819 113.719 88.4 108.256 88.4 108.256 63.819 97.383 63.819 97.383 88.334 94.626 88.334 67.278 88.394 67.288 88.4" class="fil0"/><polygon id="_130496056_1" fill="none" stroke="#000" stroke-width=".1" points="79.579 82.938 79.592 88.367 64.557 88.4 61.53 88.095 58.71 87.219 56.159 85.834 53.936 84 52.101 81.777 50.716 79.225 49.84 76.405 49.535 73.378 49.535 73.378 49.84 70.351 50.716 67.532 52.101 64.98 53.936 62.757 56.159 60.923 58.71 59.537 61.53 58.662 64.557 58.357 64.557 58.357 65.904 58.416 67.217 58.592 68.492 58.878 69.724 59.27 70.907 59.762 72.037 60.35 73.109 61.028 74.116 61.791 74.116 58.357 79.579 58.357 79.579 73.378 79.579 74.744 79.579 77.475 74.116 77.475 74.116 74.744 74.116 73.378 73.922 71.452 73.365 69.658 72.483 68.034 71.316 66.619 69.901 65.452 68.277 64.571 66.483 64.013 64.557 63.819 64.557 63.819 62.631 64.013 60.836 64.571 59.213 65.452 57.798 66.619 56.63 68.034 55.749 69.658 55.192 71.452 54.998 73.378 54.998 73.378 55.192 75.305 55.749 77.099 56.63 78.723 57.798 80.137 59.213 81.305 60.836 82.186 62.631 82.743 64.557 82.938 79.578 82.938" class="fil1"/><polygon id="_130495936" fill="none" stroke="#000" stroke-width=".1" points="64.557 82.938 91.869 82.938 91.869 88.4 64.557 88.4"/></g></g></g></svg>