<svg xmlns="http://www.w3.org/2000/svg" width="297mm" height="210mm" viewBox="0 0 297 210"><g id="_tag_264_"><g id="_tag_265_"><polygon id="path4426_1" fill="none" stroke="#000" stroke-width=".1" points="118.667 8.281 118.724 17.017 118.464 25.719 117.672 34.376 116.131 42.978 113.626 51.515 109.941 59.975 104.86 68.349 98.167 76.625 97.417 77.469 98.542 77.469 106.792 77.594 101.955 88.048 97.378 98.494 92.883 108.935 88.291 119.37 83.424 129.799 78.103 140.224 72.15 150.645 65.386 161.063 64.698 162.063 65.886 161.844 76.073 159.906 73.135 166.479 69.764 172.45 66.008 177.796 61.916 182.497 57.534 186.531 52.912 189.875 48.096 192.507 43.136 194.406 43.136 194.406 43.069 175.34 45.369 156.772 49.647 138.632 55.513 120.852 62.575 103.361 70.444 86.092 78.73 68.974 87.042 51.938 87.042 51.938 87.05 51.922 87.057 51.906 87.065 51.891 87.073 51.875 87.081 51.859 87.089 51.844 87.097 51.828 87.104 51.813 86.292 51.25 73.775 66.973 62.989 83.928 53.82 101.806 46.156 120.298 39.884 139.097 34.891 157.894 31.064 176.381 28.292 194.25 28.292 194.25 24.107 191.576 20.584 188.682 17.629 185.555 15.145 182.184 13.036 178.555 11.208 174.656 9.565 170.475 8.011 166 16.479 169.563 17.354 169.938 17.167 169 15.491 158.618 15.159 148.823 15.975 139.444 17.743 130.312 20.268 121.256 23.352 112.107 26.8 102.692 30.417 92.844 37.386 97.5 38.198 98.063 38.167 97.094 38.66 88.87 40.465 80.668 43.46 72.515 47.522 64.44 52.527 56.472 58.354 48.641 64.879 40.974 71.979 33.5 74.698 40.781 75.073 41.75 75.604 40.844 81.573 30.906 81.604 30.844 85.337 26.166 89.19 22.237 93.232 18.948 97.532 16.19 102.157 13.853 107.176 11.829 112.656 10.008 118.667 8.281" style="fill:#c3b15f;fill-opacity:1;fill-rule:evenodd;stroke:none;display:inline"/><polygon id="path7600_1" fill="none" stroke="#000" stroke-width=".1" points="118.717 8.268 112.72 9.994 107.239 11.818 102.211 13.847 97.571 16.19 93.255 18.953 89.198 22.245 85.336 26.173 81.604 30.844 81.573 30.906 75.604 40.844 75.073 41.75 74.698 40.781 71.979 33.5 64.879 40.974 58.354 48.641 52.527 56.472 47.522 64.44 43.46 72.515 40.465 80.668 38.659 88.87 38.167 97.094 38.198 98.063 37.386 97.5 30.417 92.844 26.8 102.692 23.352 112.107 20.268 121.256 17.743 130.312 15.975 139.444 15.159 148.823 15.491 158.618 17.167 169 17.354 169.938 16.479 169.563 8.104 166.031 8.115 166.095 8.126 166.158 8.138 166.22 8.151 166.282 8.163 166.344 8.175 166.406 8.187 166.468 8.198 166.531 8.198 166.531 9.734 170.908 11.366 175.001 13.185 178.822 15.283 182.383 17.751 185.695 20.681 188.769 24.164 191.617 28.292 194.25 28.292 194.25 28.471 192.894 28.656 191.532 28.846 190.164 29.042 188.79 29.244 187.411 29.451 186.028 29.665 184.641 29.886 183.25 29.886 183.25 25.625 170.85 23.519 159.221 23.169 148.288 24.172 137.974 26.131 128.202 28.643 118.895 31.309 109.979 33.729 101.375 42.604 106.5 42.765 98.498 44.089 90.394 46.459 82.241 49.76 74.093 53.876 66.004 58.69 58.028 64.086 50.217 69.948 42.625 74.636 50.875 79.052 42.28 83.415 34.921 87.908 28.646 92.714 23.305 98.015 18.748 103.994 14.823 110.834 11.38 118.717 8.268" style="fill:#eff1cb;fill-opacity:1;fill-rule:evenodd;stroke:#eff1cb;stroke-width:1px;stroke-linecap:butt;stroke-linejoin:miter;stroke-opacity:1;display:inline"/><ellipse id="center_00" cx="45" cy="130" rx="4" ry="5" style="fill:#eff1cb;fill-opacity:1;fill-rule:evenodd;stroke:#eff1cb;stroke-width:1px;stroke-linecap:butt;stroke-linejoin:miter;stroke-opacity:1;display:inline"/><g id="path2177_1"><polygon id="path2177___0" fill="none" stroke="#000" stroke-width=".1" points="124.104 0 123.573 .094 116.587 1.509 109.274 3.44 102.281 5.867 95.724 8.866 89.718 12.51 84.379 16.874 79.824 22.034 76.167 28.063 72.604 21.844 72.292 21.281 71.823 21.75 68.161 25.351 64.473 29.174 60.798 33.185 57.178 37.349 53.651 41.632 50.26 45.998 47.043 50.413 44.042 54.844 44.042 54.844 41.458 58.983 39.135 63.073 37.107 67.087 35.408 70.997 34.071 74.777 33.131 78.399 32.62 81.837 32.573 85.063 27.542 78.781 27.042 78.156 26.698 78.875 24.404 83.97 22.134 89.299 19.919 94.811 17.788 100.455 15.77 106.178 13.896 111.929 12.196 117.658 10.698 123.313 10.698 123.313 9.494 128.556 8.527 133.639 7.824 138.52 7.412 143.159 7.317 147.515 7.565 151.546 8.183 155.211 9.198 158.469 .917 153.656 .229 153.25 .167 154.063 .086 162.364 .937 169.648 2.606 176.056 4.979 181.727 7.942 186.801 11.381 191.418 15.181 195.719 19.229 199.844 10.042 202.125 8.198 202.594 10.042 203.094 12.005 203.64 13.927 204.213 15.794 204.825 17.592 205.484 19.305 206.202 20.919 206.989 22.42 207.856 23.792 208.813 23.792 208.813 25.023 209.867 26.103 211.03 27.019 212.315 27.756 213.736 28.303 215.307 28.645 217.043 28.771 218.957 28.667 221.063 28.667 221.094 28.667 246.594 28.667 246.75 28.761 246.875 40.261 263.375 41.167 264.688 41.167 263.094 41.167 224.219 41.751 221.859 42.366 219.685 43.018 217.69 43.712 215.868 44.456 214.213 45.255 212.718 46.115 211.379 47.042 210.188 47.042 210.188 48.042 209.136 49.123 208.214 50.291 207.417 51.556 206.739 52.924 206.173 54.404 205.714 56.003 205.356 57.729 205.094 59.448 204.875 57.886 204.156 51.823 201.281 57.299 197.452 62.776 192.599 68.097 186.883 73.099 180.464 77.624 173.502 81.51 166.159 84.599 158.594 86.729 150.969 86.917 150.156 86.136 150.375 78.636 152.406 81.136 149.78 83.636 146.627 86.132 142.994 88.619 138.929 91.092 134.481 93.547 129.696 95.98 124.624 98.386 119.313 98.386 119.313 100.899 113.484 103.362 107.53 105.766 101.515 108.105 95.503 110.369 89.559 112.551 83.748 114.643 78.134 116.636 72.781 116.917 72.031 116.136 72.094 110.354 72.5 112.888 69.432 115.137 65.95 117.116 62.105 118.837 57.945 120.314 53.521 121.561 48.881 122.591 44.077 123.417 39.156 123.417 39.156 124.076 33.968 124.546 28.768 124.841 23.613 124.974 18.562 124.96 13.672 124.811 8.998 124.542 4.599 124.167 .531 124.104 0" style="fill:#000;fill-opacity:1;fill-rule:evenodd;stroke:none;display:inline"/><polygon id="path2177___1" fill="none" stroke="#000" stroke-width=".1" points="118.667 8.281 118.724 17.017 118.464 25.719 117.672 34.376 116.131 42.978 113.626 51.515 109.941 59.975 104.86 68.349 98.167 76.625 97.417 77.469 98.542 77.469 106.792 77.594 101.955 88.048 97.378 98.494 92.883 108.935 88.291 119.37 83.424 129.799 78.103 140.224 72.15 150.645 65.386 161.063 64.698 162.063 65.886 161.844 76.073 159.906 73.135 166.479 69.764 172.45 66.008 177.796 61.916 182.497 57.534 186.531 52.912 189.875 48.096 192.507 43.136 194.406 43.069 175.34 45.369 156.772 49.647 138.632 55.513 120.852 62.575 103.361 70.444 86.092 78.73 68.974 87.042 51.938 87.05 51.922 87.057 51.906 87.065 51.891 87.073 51.875 87.081 51.859 87.089 51.844 87.097 51.828 87.104 51.813 86.292 51.25 73.775 66.973 62.989 83.928 53.82 101.806 46.156 120.298 39.884 139.097 34.891 157.894 31.064 176.381 28.292 194.25 28.292 194.25 24.107 191.576 20.584 188.682 17.629 185.555 15.145 182.184 13.036 178.555 11.208 174.656 9.565 170.475 8.011 166 16.479 169.563 17.354 169.938 17.167 169 15.491 158.618 15.159 148.823 15.975 139.444 17.743 130.312 20.268 121.256 23.352 112.107 26.8 102.692 30.417 92.844 37.386 97.5 38.198 98.063 38.167 97.094 38.659 88.87 40.465 80.668 43.46 72.515 47.522 64.44 52.527 56.472 58.354 48.641 64.879 40.974 71.979 33.5 74.698 40.781 75.073 41.75 75.604 40.844 81.573 30.906 81.604 30.844 85.337 26.166 89.19 22.237 93.232 18.948 97.532 16.19 102.157 13.853 107.176 11.829 112.656 10.008 118.667 8.281" style="fill:#000;fill-opacity:1;fill-rule:evenodd;stroke:none;display:inline"/></g></g></g></svg>
