<svg xmlns="http://www.w3.org/2000/svg" version="1.0"><polygon fill="none" stroke="#000" stroke-width=".1" points="91.454 141.717 89.26 141.785 87.77 141.831 85.086 141.745 84.601 141.517 84.373 141.032 84.373 140.835 84.373 132.552 84.431 132.294 84.657 132.084 85.086 132.067 86.086 132.01 86.485 131.896 86.799 131.582 86.914 131.182 86.942 130.068 86.885 129.754 86.785 129.597 86.6 129.412 86.4 129.298 86.115 129.212 85.601 129.183 85.115 129.155 85.086 129.155 84.772 129.069 84.487 128.841 84.373 128.555 84.373 126.3 84.387 125.986 84.63 125.5 85.115 125.272 87.799 125.186 91.482 125.3 91.967 125.529 92.138 126.014 92.138 127.499 92.138 135.721 92.138 141.003 91.939 141.488 91.454 141.717 91.454 141.717"/><polyline fill="none" stroke="#000" stroke-width=".1" points="89.26 141.785 91.454 141.717"/><polygon fill="none" stroke="#000" stroke-width=".1" points="84.402 151.224 84.63 151.709 85.086 151.966 88.313 152.052 92.138 151.268 92.138 141.003 84.373 140.554 84.374 150.875 84.402 151.224"/><polygon fill="none" stroke="#000" stroke-width=".1" points="90.188 150.244 86.952 132.524 87.382 131.775 88.352 131.626 88.916 132.147 92.078 149.855 90.188 150.244"/><polygon fill="none" stroke="#000" stroke-width=".1" points="111.896 147.941 109.522 147.593 109.398 139.437 111.925 139.775 112.781 140.546 113.41 141.488 113.809 142.545 113.923 143.687 113.837 144.714 113.494 145.685 112.981 146.57 112.295 147.37 112.238 147.427 112.096 147.57 112.039 147.655 111.953 147.798 111.925 147.855 111.896 147.941"/><polyline fill="none" stroke="#000" stroke-width=".1" points="108.07 156.077 109.269 153.907 109.812 152.936 110.897 150.71 111.04 150.367 111.182 149.996 111.353 149.596 111.496 149.168 111.753 148.454 111.496 149.168 112.01 147.427 112.01 147.283 111.982 147.112 111.896 146.941 111.781 146.769 111.566 146.592 108.083 146.183 100.709 146.415 100.776 154.457"/><polyline fill="none" stroke="#000" stroke-width=".1" points="112.01 147.427 111.753 148.454"/><polyline fill="none" stroke="#000" stroke-width=".1" points="110.252 141.269 110.271 138.304 111.068 138.719 111.382 138.947"/><polyline fill="none" stroke="#000" stroke-width=".1" points="111.382 138.947 111.496 139.062 111.611 139.176 111.696 139.319 111.925 139.775 111.953 140.318 111.811 140.832 111.496 141.203 111.41 141.289 111.068 141.546 110.11 142.149 110.252 141.269"/><polygon fill="none" stroke="#000" stroke-width=".1" points="103.702 136.777 103.588 136.092 103.53 135.293 103.588 134.465 103.674 134.008 103.816 133.494 103.939 133.154 104.187 132.523 104.387 131.867 104.473 131.296 104.502 130.868 104.53 128.438 104.503 128.074 104.479 127.873 104.433 127.723 104.38 127.645 104.355 127.52 104.405 127.352 104.53 127.127 104.244 127.641 103.959 128.127 103.731 128.44 103.617 128.583 103.33 128.926 103.102 129.183 101.762 130.493 102.198 138.738 103.3 137.69 103.808 137.66 105.264 138.184 103.702 136.777"/><polyline fill="none" stroke="#000" stroke-width=".1" points="102.531 139.547 103.045 139.09 103.387 138.519 103.488 137.862 103.473 130.296 103.359 129.582 102.96 128.954 102.388 128.555 101.361 128.484 101.281 139.689 102.531 139.547"/><polygon fill="none" stroke="#000" stroke-width=".1" points="103.53 138.947 103.53 140.69 107.903 142.447 110.697 144.675 110.697 144.001 110.697 142.944 110.697 142.031 110.725 141.06 110.749 140.634 110.811 140.061 110.811 140.03 110.811 139.972 110.811 139.892 110.811 139.793 110.811 139.68 110.811 139.556 110.811 139.425 110.811 139.291 110.811 137.291 110.811 136.863 110.811 136.049 110.811 135.236 110.811 134.422 110.811 133.608 110.811 132.794 110.811 131.981 110.811 131.167 110.811 130.353 110.811 128.47 110.754 128.184 110.639 127.956 110.325 127.584 109.925 127.327 109.639 127.213 107.499 126.671 105.3 126.356 105.043 126.413 104.872 126.499 104.692 126.635 104.615 126.841 104.529 127.127 104.529 135.492 104.478 135.811 104.301 136.064 103.987 136.349 103.815 136.508 103.673 136.777 103.587 137.063 103.552 137.327 103.53 137.661 103.53 138.348 103.53 138.947 103.53 138.947"/><polygon fill="none" stroke="#000" stroke-width=".1" points="114.864 195.538 115.355 195.338 116.061 194.888 116.616 194.24 117.119 192.808 117.4 191.75 117.559 191.196 117.915 190.004 118.219 189.007 118.273 188.847 118.327 188.691 118.383 188.536 118.44 188.383 118.498 188.231 118.56 188.079 118.626 187.927 118.695 187.773 118.92 187.371 119.202 186.975 119.828 186.366 120.478 186.019 120.478 186.019 130.315 186.089 130.939 185.939 131.547 185.702 132.082 185.34 132.573 184.885 132.963 184.331 133.238 183.762 133.404 183.151 133.458 182.51 133.489 180.945 133.488 179.85 133.379 178.915 133.243 178.408 132.959 177.709 132.391 176.771 131.662 175.956 130.826 175.301 129.915 174.779 128.925 174.42 127.86 174.196 127.555 174.169 127.248 174.143 126.942 174.118 126.636 174.092 126.33 174.064 126.024 174.034 125.719 174.001 125.414 173.964 125.218 173.954 125.022 173.942 124.826 173.927 124.63 173.911 124.434 173.894 124.238 173.877 124.042 173.861 123.846 173.846 123.561 173.826 123.276 173.804 122.991 173.783 122.706 173.76 122.421 173.737 122.136 173.713 121.851 173.689 121.567 173.665 121.2 173.634 120.833 173.605 120.466 173.577 120.099 173.549 119.732 173.52 119.365 173.491 118.999 173.46 118.632 173.427 113.899 173.071 108.584 172.322 107.759 172.244 107.107 172.159 106.31 172.108 105.295 172.154 104.656 172.185 103.718 172.322 103.012 172.432 102.671 172.522 95.199 172.741 85.002 172.998 83.659 173.14 82.347 173.488 81.46 173.891 81.644 173.799 81.46 173.891 81.092 174.101 80.699 174.425 80.6 174.527 80.169 174.961 79.741 175.596 79.453 176.48 79.366 176.929 79.36 177.418 79.393 177.825 79.493 178.386 79.554 178.63 79.612 178.875 79.667 179.121 79.722 179.367 79.778 179.613 79.835 179.858 79.894 180.103 79.958 180.346 80.055 180.704 80.288 181.57 80.344 181.807 80.403 182.016 80.518 182.463 81.026 183.422 82.518 184.796 83.638 185.259 84.823 185.441 85.943 185.482 86.055 185.486 86.944 185.516 89.674 185.554 89.962 185.555 90.25 185.559 90.538 185.564 90.826 185.569 91.114 185.573 91.402 185.575 91.689 185.573 91.976 185.566 92.213 185.575 92.45 185.581 92.687 185.586 92.924 185.59 93.16 185.593 93.397 185.597 93.634 185.602 93.87 185.61 94.857 185.768 95.674 186.132 96.211 186.432 96.663 186.722 96.98 186.936 98.032 187.706 99.112 188.48 105.326 193.29 106.728 194.337 107.713 194.953 108.364 195.269 109.191 195.549 110.263 195.717 112.015 195.744 113.899 195.655 114.864 195.538 114.864 195.538"/><polyline fill="none" stroke="#000" stroke-width=".1" points="82.734 175.458 92.187 175.265 94.359 175.628 96.559 176.675 98.628 178.264"/><polyline fill="none" stroke="#000" stroke-width=".1" points="128.654 177.941 127.334 176.664 125.584 176 112.833 175.181"/><polygon fill="none" stroke="#000" stroke-width=".1" points="110.097 191.565 108.927 191.822 106.981 191.901 105.1 191.851 102.203 190.823 101.331 190.138 100.674 189.31 100.19 188.453 99.59 186.141 97.62 178.946 93.79 164.482 93.081 162.851 92.338 161.53 92.312 161.496 92.229 161.482 91.054 160.274 89.526 158.975 88.313 157.219 87.913 155.934 87.77 154.307 87.956 152.994 88.427 151.809 89.011 150.84 89.74 149.825 90.534 148.711 91.219 147.599 91.834 146.449 92.482 145.142 92.993 143.908 93.48 142.572 93.48 127.102 93.559 114.925 93.68 111.567 93.583 107.452 93.623 103.772 93.709 98.633 103.941 104.689 105.186 107.484 103.488 109.011 102.873 109.682 102.445 110.567 102.302 111.524 102.274 112.166 102.33 112.709 102.274 113.337 102.33 116.62 102.36 121.688 102.33 122.53 102.545 152.123 102.888 153.95 103.201 156.377 103.616 158.418 104.244 160.645 104.579 161.707 105.049 162.616 105.786 163.672 106.87 164.842 107.784 165.613 109.439 166.898 110.859 168.024 111.753 169.211 112.01 169.61 112.21 170.039 112.381 170.467 112.609 171.409 115.493 182.087 115.693 183.286 115.75 184.485 115.579 185.684 115.236 186.827 114.722 187.94 114.065 188.939 113.237 189.824 112.295 190.566 111.238 191.138 110.097 191.565 110.097 191.565"/><polyline fill="none" stroke="#000" stroke-width=".1" points="110.097 191.565 108.927 191.822"/><polyline fill="none" stroke="#000" stroke-width=".1" points="110.896 183.257 107.898 172.009"/><polyline fill="none" stroke="#000" stroke-width=".1" points="110.896 183.257 111.01 184.085 110.925 184.942 110.639 185.713 110.182 186.427 109.554 186.998 108.841 187.397 108.013 187.625 107.184 187.625 106.356 187.454 105.586 187.083 104.958 186.541 104.472 185.855 104.158 185.056 101.132 173.807 101.018 172.979 101.103 172.151 101.389 171.352 101.846 170.638 102.474 170.067 103.216 169.667 104.016 169.439 104.872 169.439 105.672 169.61 106.443 169.981 107.07 170.553 107.584 171.209 107.898 172.009"/><polyline fill="none" stroke="#000" stroke-width=".1" points="96.684 8.94 97.948 39.638 98.272 72.44 98.274 79.305 101.847 79.415 101.839 72.777 101.467 39.439 100.419 11.994"/><polyline fill="none" stroke="#000" stroke-width=".1" points="102.038 87.616 101.919 87.57 101.336 87.491 100.908 87.46 99.913 87.433 99.242 87.445 98.753 87.47 98.263 87.515 97.811 87.59 97.547 87.732"/><polygon fill="none" stroke="#000" stroke-width=".1" points="93.707 93.748 93.707 89.39 97.547 87.732 95.03 83.808 96.601 77.118 96.772 76.992 97.203 76.887 98.138 76.776 99.425 76.717 100.315 76.715 101.132 76.739 101.958 76.796 102.633 76.88 103.181 77.025 103.303 77.123 104.888 83.847 102.234 87.694 106.203 89.39 106.207 93.748 105.903 93.906 105.429 94.039 104.979 94.125 104.403 94.207 103.074 94.284 103.077 93.75 102.519 93.615 101.893 93.478 100.053 93.427 98.13 93.481 97.261 93.611 96.833 93.809 96.833 94.294 95.57 94.214 94.593 94.061 94.029 93.91 93.707 93.748 93.707 93.748"/><polygon fill="none" stroke="#000" stroke-width=".1" points="96.833 93.809 97.261 93.611 98.13 93.481 100.053 93.427 101.893 93.478 102.519 93.615 103.077 93.75 103.06 96.995 96.833 97.014 96.833 93.809 96.833 93.809"/><polygon fill="none" stroke="#000" stroke-width=".1" points="106.897 89.799 106.655 89.654 106.357 89.56 105.816 89.441 105.115 89.332 104.808 89.294 104.355 89.246 103.663 89.186 102.855 89.134 102.158 89.102 101.31 89.076 99.815 89.066 98.498 89.084 96.732 89.167 95.374 89.288 94.087 89.484 93.451 89.662 93.199 89.799 91.982 90.708 91.998 92.106 93.135 92.934 93.702 92.934 93.839 92.704 94.189 92.547 94.92 92.382 95.58 92.286 96.224 92.2 97.011 92.154 98.096 92.093 99.007 92.068 99.906 92.059 101.251 92.072 102.408 92.11 103.735 92.211 104.829 92.338 105.738 92.52 106.12 92.664 106.206 92.934 106.943 92.934 108.192 91.842 108.182 90.699 106.897 89.799"/><polyline fill="none" stroke="#000" stroke-width=".1" points="108.143 92.006 107.979 91.805 107.507 91.618 106.761 91.449 105.772 91.302 104.575 91.18 103.2 91.088 101.681 91.03 100.05 91.01 98.419 91.03 96.9 91.088 95.526 91.18 94.328 91.302 93.34 91.449 92.593 91.618 92.122 91.805 91.957 92.006"/><polyline fill="none" stroke="#000" stroke-width=".1" points="108.168 90.708 108.004 90.507 107.532 90.32 106.786 90.151 105.797 90.004 104.6 89.882 103.225 89.79 101.706 89.732 100.075 89.712 98.444 89.732 96.925 89.79 95.551 89.882 94.353 90.004 93.365 90.151 92.618 90.32 92.147 90.507 91.982 90.708"/><polyline fill="none" stroke="#000" stroke-width=".1" points="106.213 93.666 106.086 93.511 105.722 93.367 105.145 93.236 104.381 93.122 103.456 93.028 102.394 92.957 101.22 92.912 99.96 92.897 98.7 92.912 97.526 92.957 96.464 93.028 95.538 93.122 94.775 93.236 94.198 93.367 93.834 93.511 93.707 93.666"/><polyline fill="none" stroke="#000" stroke-width=".1" points="106.203 89.39 105.451 89.131 104.183 88.94 102.866 88.828 101.632 88.769 99.89 88.743 98.041 88.78 96.403 88.88 95.138 89.022 94.14 89.227 93.771 89.387"/><polyline fill="none" stroke="#000" stroke-width=".1" points="102.133 87.64 101.86 87.546 101.399 87.477 100.92 87.436 100.471 87.415 99.837 87.405 99.165 87.419 98.569 87.455 98.109 87.507 97.746 87.581 97.612 87.639"/><polyline fill="none" stroke="#000" stroke-width=".1" points="104.778 83.758 104.196 83.558 103.216 83.41 102.198 83.324 101.244 83.278 99.897 83.258 98.468 83.287 97.201 83.364 96.223 83.474 95.451 83.632 95.166 83.755"/><polygon fill="none" stroke="#000" stroke-width=".1" points="94.994 97.035 97.249 96.531 98.82 96.356 101.109 96.378 102.593 96.534 104.815 97.035 105.33 97.235 105.829 97.62 106.071 98.077 106.156 98.462 105.679 106.497 105.586 106.856 105.271 107.37 104.844 107.656 104.559 107.741 104.158 107.57 103.674 107.513 102.217 107.399 100.39 107.342 99.419 107.342 98.477 107.37 96.821 107.456 95.605 107.59 95.279 107.741 94.994 107.656 94.537 107.37 94.251 106.914 94.109 106.513 93.709 98.634 93.751 98.248 93.966 97.749 94.451 97.263 94.994 97.035"/><polygon fill="none" stroke="#000" stroke-width=".1" points="96.833 107.874 96.949 107.77 97.404 107.669 98.315 107.599 99.206 107.55 100.072 107.538 101.003 107.559 101.794 107.576 102.527 107.703 102.866 107.783 103.062 107.874 103.062 110.198 96.833 110.198 96.833 107.874"/><polygon fill="none" stroke="#000" stroke-width=".1" points="103.062 110.198 102.998 110.293 102.817 110.382 102.53 110.462 102.149 110.531 101.688 110.589 101.159 110.633 100.575 110.66 99.948 110.67 99.32 110.66 98.736 110.633 98.207 110.589 97.746 110.531 97.365 110.462 97.078 110.382 96.897 110.293 96.833 110.198 96.897 110.103 97.078 110.014 97.365 109.934 97.746 109.865 98.207 109.807 98.736 109.763 99.32 109.736 99.948 109.726 100.575 109.736 101.159 109.763 101.688 109.807 102.149 109.865 102.53 109.934 102.817 110.014 102.998 110.103 103.062 110.198"/><polygon fill="none" stroke="#000" stroke-width=".1" points="100.187 110.152 100.05 110.11 99.642 110.11 99.519 110.152 99.519 157.716 100.187 157.716 100.187 110.152"/><circle cx="106.163" cy="179.205" r="6.5" fill="none" stroke="#000" stroke-width=".1"/><polyline fill="none" stroke="#000" stroke-width=".1" points="112.153 170.553 111.896 169.953 111.582 169.439 111.154 168.925 110.639 168.497 108.612 167.155 106.157 165.585 104.587 164.671 103.045 163.9 101.475 163.272 98.791 162.673 97.62 162.473 95.565 162.102"/><polyline fill="none" stroke="#000" stroke-width=".1" points="93.737 162.33 95.565 162.102"/><polyline fill="none" stroke="#000" stroke-width=".1" points="110.782 143.972 111.097 142.802 111.467 141.574 111.467 141.545 111.467 141.517"/><polygon fill="none" stroke="#000" stroke-width=".1" points="110.639 152.509 110.639 152.366 110.639 150.857 110.639 149.347 110.639 147.837 110.639 146.327 110.639 144.816 110.639 143.306 110.639 141.794 110.639 140.282 110.44 140.089 110.154 139.947 110.04 139.918 110.011 139.918 108.869 139.747 108.184 139.69 107.499 139.604 106.813 139.547 106.128 139.49 105.415 139.433 104.244 139.376 103.959 139.433 103.73 139.604 103.587 139.804 103.53 140.089 103.53 152.632 103.73 153.251 104.244 153.48 107.271 153.28 110.011 152.909 110.354 152.766 110.639 152.509 110.639 152.509"/><polygon fill="none" stroke="#000" stroke-width=".1" points="111.614 144.608 110.626 142.603 110.652 150.365 111.625 148.318 111.614 144.608"/><polygon fill="none" stroke="#000" stroke-width=".1" points="94.792 142.6 103.53 142.6 103.53 150.034 94.792 150.034 93.818 147.32 93.78 145.218 94.792 142.6"/><circle cx="99.172" cy="146.296" r="2.929" fill="none" stroke="#000" stroke-width=".1"/><circle cx="99.172" cy="146.296" r="1.93" fill="none" stroke="#000" stroke-width=".1"/><polygon fill="none" stroke="#000" stroke-width=".1" points="92.324 140.732 93.466 140.732 93.466 127.441 92.324 127.441 92.324 140.732"/><polygon fill="none" stroke="#000" stroke-width=".1" points="92.324 129.754 93.452 129.754 93.452 128.84 92.324 128.84 92.324 129.754"/><circle cx="92.138" cy="154.738" r="1.973" fill="none" stroke="#000" stroke-width=".1"/><circle cx="106.163" cy="179.205" r="3.9" fill="none" stroke="#000" stroke-width=".1"/><polygon fill="none" stroke="#000" stroke-width=".1" points="85.769 129.374 86.474 129.912 89.205 144.862 88.998 145.802 87.843 146.035 87.271 145.234 84.579 130.351 84.942 129.607 85.769 129.374"/><rect width="1.741" height="9.736" x="82.631" y="140.289" fill="none" stroke="#000" stroke-width=".1"/><rect width="1.456" height="14.561" x="82.917" y="126.813" fill="none" stroke="#000" stroke-width=".1"/><rect width="1.741" height="2.684" x="82.631" y="147.341" fill="none" stroke="#000" stroke-width=".1"/><polygon fill="none" stroke="#000" stroke-width=".1" points="82.631 150.025 82.431 149.825 82.431 140.84 82.631 140.84 82.631 150.025"/><polygon fill="none" stroke="#000" stroke-width=".1" points="82.431 149.311 82.232 149.511 82.232 146.799 82.431 146.428 82.431 149.311"/><polygon fill="none" stroke="#000" stroke-width=".1" points="77.749 149.511 77.549 149.306 77.549 146.428 77.749 146.804 77.749 149.511"/><polygon fill="none" stroke="#000" stroke-width=".1" points="77.549 140.646 82.431 140.619 82.431 146.428 82.232 146.799 82.232 149.357 82.232 149.511 77.749 149.511 77.749 146.799 77.549 146.428 77.549 140.646"/><line x1="77.749" x2="82.232" y1="146.804" y2="146.799" fill="none" stroke="#000" stroke-width=".1"/><polygon fill="none" stroke="#000" stroke-width=".1" points="78.292 127.156 82.746 127.156 82.746 141.031 78.292 141.032 78.292 127.156"/><polygon fill="none" stroke="#000" stroke-width=".1" points="82.746 139.518 78.292 139.52 78.292 141.032 82.746 141.031 82.746 139.518"/><circle cx="80.484" cy="132.526" r="1.596" fill="none" stroke="#000" stroke-width=".1"/><polygon fill="none" stroke="#000" stroke-width=".1" points="82.917 127.242 82.746 127.155 82.746 139.518 82.917 139.605 82.917 127.242"/><polygon fill="none" stroke="#000" stroke-width=".1" points="82.917 139.591 82.746 139.518 82.746 141.03 82.917 140.946 82.917 139.591"/><polygon fill="none" stroke="#000" stroke-width=".1" points="78.092 127.243 78.292 127.156 78.292 139.52 78.092 139.604 78.092 127.243"/><polygon fill="none" stroke="#000" stroke-width=".1" points="78.092 139.604 78.292 139.52 78.292 141.032 78.092 140.959 78.092 139.604"/><rect width="1.927" height="13.733" x="76.165" y="127.213" fill="none" stroke="#000" stroke-width=".1"/><rect width="1.927" height="13.733" x="74.238" y="127.213" fill="none" stroke="#000" stroke-width=".1"/><rect width="1.927" height=".143" x="74.238" y="127.213" fill="none" stroke="#000" stroke-width=".1"/><rect width="1.927" height=".971" x="74.238" y="127.927" fill="none" stroke="#000" stroke-width=".1"/><rect width="1.927" height=".971" x="74.238" y="130.145" fill="none" stroke="#000" stroke-width=".1"/><rect width="1.927" height=".971" x="74.238" y="131.724" fill="none" stroke="#000" stroke-width=".1"/><rect width="1.927" height="1.599" x="74.238" y="133.408" fill="none" stroke="#000" stroke-width=".1"/><rect width="1.927" height=".971" x="74.238" y="139.518" fill="none" stroke="#000" stroke-width=".1"/><rect width="1.927" height=".971" x="74.238" y="137.299" fill="none" stroke="#000" stroke-width=".1"/><rect width="1.927" height=".971" x="74.238" y="135.721" fill="none" stroke="#000" stroke-width=".1"/><rect width="1.927" height=".143" x="76.165" y="127.213" fill="none" stroke="#000" stroke-width=".1"/><rect width="1.927" height=".971" x="76.165" y="127.927" fill="none" stroke="#000" stroke-width=".1"/><rect width="1.927" height=".971" x="76.165" y="130.145" fill="none" stroke="#000" stroke-width=".1"/><rect width="1.927" height=".971" x="76.165" y="131.724" fill="none" stroke="#000" stroke-width=".1"/><rect width="1.927" height="1.599" x="76.165" y="133.408" fill="none" stroke="#000" stroke-width=".1"/><rect width="1.927" height=".971" x="76.165" y="139.518" fill="none" stroke="#000" stroke-width=".1"/><rect width="1.927" height=".971" x="76.165" y="137.299" fill="none" stroke="#000" stroke-width=".1"/><rect width="1.927" height=".971" x="76.164" y="135.721" fill="none" stroke="#000" stroke-width=".1"/><line x1="74.238" x2="71.981" y1="134.205" y2="134.205" fill="none" stroke="#000" stroke-width=".1"/><polygon fill="none" stroke="#000" stroke-width=".1" points="102.778 177.251 106.163 175.297 109.548 177.251 109.548 181.16 106.163 183.114 102.778 181.16 102.778 177.251"/><polygon fill="none" stroke="#000" stroke-width=".1" points="97.518 145.342 99.171 144.387 100.825 145.342 100.825 147.251 99.172 148.206 97.518 147.251 97.518 145.342"/><circle id="center_00" cx="106.163" cy="179.205" r="15" fill="none" stroke="#000" stroke-width=".1"/></svg>