<svg xmlns="http://www.w3.org/2000/svg" version="1.0"><polygon fill="none" stroke="#000" stroke-width=".1" points="7.258 216.031 7.143 216.035 7.053 216.042 6.892 216.06 6.608 216.112 6.118 216.267 5.599 216.538 5.14 216.898 4.754 217.336 4.455 217.836 4.252 218.384 4.154 218.958 3.603 225.915 3.619 226.58 3.775 227.228 4.06 227.828 4.466 228.356 4.974 228.789 5.559 229.105 6.2 229.294 6.864 229.346 16.95 229.27 27.032 229.559 33.023 229.911 36.015 230.133 39.004 230.386 49.943 231.575 57.506 232.662 65.037 233.954 65.702 234.007 66.365 233.922 66.993 233.701 67.562 233.354 68.046 232.895 68.422 232.349 68.677 231.733 68.798 231.079 69.349 224.122 69.35 224.111 69.351 224.102 69.352 224.086 69.353 224.058 69.356 224.008 69.359 223.918 69.357 223.757 69.334 223.469 69.228 222.967 69.011 222.425 68.699 221.932 68.302 221.504 67.832 221.156 67.307 220.899 66.744 220.742 58.94 219.422 51.104 218.314 40.165 217.125 37.176 216.872 34.184 216.65 28.193 216.297 17.727 215.977"/><polygon fill="none" stroke="#000" stroke-width=".1" points="64.48 233.543 61.763 233.065 57.239 232.314 49.969 231.274 39.03 230.085 36.041 229.832 33.05 229.61 27.058 229.258 17.267 228.971 7.472 229.027 6.851 228.975 6.252 228.795 5.705 228.5 5.229 228.097 4.852 227.601 4.586 227.039 4.44 226.433 4.422 225.811 4.85 220.406 4.859 220.045 5.054 218.989 5.276 218.492 5.588 218.031 5.992 217.631 6.483 217.313 7.043 217.103 7.64 217.021 17.875 216.979 28.105 217.295 34.097 217.647 37.089 217.869 40.078 218.121 51.016 219.311 58.626 220.385 66.205 221.66 66.787 221.837 67.303 222.131 67.738 222.523 68.074 222.984 68.308 223.487 68.449 224.016 68.502 224.548 68.473 225.084 68.425 225.442 67.998 230.847 67.882 231.458 67.642 232.034 67.291 232.548 66.841 232.977 66.308 233.3 65.721 233.506 65.101 233.588"/><line x1="42.432" x2="42.447" y1="225.64" y2="225.463" fill="none" stroke="#000" stroke-width=".1"/><polygon fill="none" stroke="#000" stroke-width=".1" points="55.396 223.249 55.172 223.217 54.443 223.314 53.819 223.701 53.409 224.31 53.324 224.588 53.285 224.903 53.373 225.503 53.661 226.037 54.114 226.441 54.679 226.665 55.286 226.684 55.863 226.495 56.34 226.119 56.66 225.604 56.784 225.012 56.783 224.891 56.697 224.413 56.41 223.88 55.959 223.475"/><polyline fill="none" stroke="#000" stroke-width=".1" points="56.783 224.891 56.746 225.031 56.698 225.169 56.331 225.736 55.775 226.121 55.115 226.267 54.448 226.152 53.874 225.794 53.48 225.244 53.324 224.588"/><polygon fill="none" stroke="#000" stroke-width=".1" points="56.783 224.891"/><polyline fill="none" stroke="#000" stroke-width=".1" points="55.172 223.217 55.285 223.229 55.396 223.249"/><polygon fill="none" stroke="#000" stroke-width=".1" points="55.172 223.217"/><line x1="4.153" x2="4.174" y1="218.958" y2="218.956" fill="none" stroke="#000" stroke-width=".1"/><polygon fill="none" stroke="#000" stroke-width=".1" points="18.062 220.292 18.288 220.295 18.916 220.466 19.438 220.855 19.782 221.406 19.9 222.045 19.776 222.682 19.456 223.197 18.979 223.573 18.402 223.762 17.794 223.745 17.23 223.519 16.776 223.115 16.488 222.581 16.401 221.981 16.439 221.666 16.524 221.388 16.881 220.833 17.419 220.449"/><polyline fill="none" stroke="#000" stroke-width=".1" points="16.439 221.666 16.595 222.323 16.99 222.872 17.563 223.23 18.23 223.345 18.891 223.199 19.446 222.813 19.814 222.246 19.862 222.109 19.899 221.969"/><polygon fill="none" stroke="#000" stroke-width=".1" points="16.439 221.666"/><polyline fill="none" stroke="#000" stroke-width=".1" points="18.062 220.292 18.175 220.29 18.288 220.296"/><polygon fill="none" stroke="#000" stroke-width=".1" points="18.062 220.292"/><polyline fill="none" stroke="#000" stroke-width=".1" points="4.85 220.406 11.455 220.274 18.288 220.296 23.053 220.407 27.816 220.596 33.808 220.948 36.799 221.169 39.788 221.423 50.727 222.612 52.951 222.906 55.396 223.249 61.923 224.272 68.425 225.442"/><polygon fill="none" stroke="#000" stroke-width=".1" points="4.85 220.406"/><polyline fill="none" stroke="#000" stroke-width=".1" points="39.271 227.476 39.267 227.506 39.259 227.535"/><polygon fill="none" stroke="#000" stroke-width=".1" points="39.271 227.476"/><polygon fill="none" stroke="#000" stroke-width=".1" points="50.769 151.048 50.765 151.088 50.753 151.126 50.735 151.16 50.71 151.189 50.681 151.214 50.647 151.232 50.609 151.244 50.569 151.248 48.769 151.248 48.769 151.141 48.769 139.174 50.569 139.174 50.609 139.178 50.647 139.19 50.681 139.208 50.71 139.233 50.735 139.263 50.753 139.297 50.765 139.334 50.769 139.374 50.769 151.048"/><polygon fill="none" stroke="#000" stroke-width=".1" points="46.453 104.968 47.768 87.016 54.749 87.527 53.434 105.479"/><polygon fill="none" stroke="#000" stroke-width=".1" points="51.938 105.37 47.949 105.078 45.412 139.725 49.397 140"/><polygon fill="none" stroke="#000" stroke-width=".1" points="43.779 139.987 43.227 140.267 42.662 140.637 42.662 140.637 42.364 140.94 42.158 140.975 42.012 141.009 41.922 141.041 41.868 141.098 41.868 149.28 52.146 149.28 52.144 141.074 52.115 141.041 52.025 141.009 51.878 140.975 51.673 140.94 51.374 140.637 51.374 140.637 50.81 140.267 50.257 139.987 49.984 139.876 49.71 139.768 49.436 139.666 49.159 139.57 48.88 139.482 48.597 139.405 48.31 139.338 48.019 139.285 48.019 141.987 46.018 141.987 46.018 139.285 45.726 139.338 45.44 139.405 45.157 139.483 44.878 139.57 44.601 139.666 44.326 139.768 44.053 139.876 43.779 139.987"/><polygon fill="none" stroke="#000" stroke-width=".1" points="40.823 150.075 41.668 150.143 41.708 150.139 41.746 150.127 41.78 150.109 41.809 150.084 41.834 150.055 41.852 150.021 41.864 149.983 41.868 149.943 41.868 140.343 41.864 140.303 41.852 140.265 41.834 140.231 41.809 140.202 41.78 140.177 41.746 140.159 41.708 140.147 41.668 140.143 40.977 140.143 40.951 140.145 40.926 140.15 40.902 140.158 40.879 140.168 40.858 140.182 40.839 140.198 40.822 140.216 40.807 140.237 40.752 140.318 40.594 140.578 40.441 140.853 40.295 141.138 40.158 141.431 40.03 141.729 39.914 142.029 39.811 142.328 39.723 142.624 39.723 142.624 39.647 142.923 39.578 143.232 39.517 143.549 39.466 143.87 39.424 144.193 39.394 144.515 39.375 144.833 39.368 145.143 39.368 145.143 39.393 145.795 39.466 146.443 39.585 147.084 39.75 147.716 39.957 148.334 40.206 148.935 40.495 149.517 40.823 150.075"/><polygon fill="none" stroke="#000" stroke-width=".1" points="40.809 150.052 40.977 150.143 40.951 150.141 40.927 150.137 40.903 150.129 40.881 150.118 40.86 150.105 40.84 150.09 40.823 150.072 40.809 150.052"/><polyline fill="none" stroke="#000" stroke-width=".1" points="41.668 150.143 40.977 150.143"/><polygon fill="none" stroke="#000" stroke-width=".1" points="41.668 150.143 41.668 150.143 41.668 150.143"/><polyline fill="none" stroke="#000" stroke-width=".1" points="40.977 142.549 40.977 142.248 40.977 141.948 40.977 141.647 40.977 141.346 40.977 141.045 40.977 140.744 40.977 140.444 40.977 140.143"/><polyline fill="none" stroke="#000" stroke-width=".1" points="40.977 150.143 40.977 149.841 40.977 149.538 40.977 149.236 40.977 148.933 40.977 148.63 40.977 148.328 40.977 148.025 40.977 147.723"/><polygon fill="none" stroke="#000" stroke-width=".1" points="54.499 139.96 54.455 139.956 51.584 139.955 51.539 139.96 50.822 140.148 50.793 140.163 50.769 140.191 50.769 150.094 55.031 150.172 61.02 148.62 61.02 141.666"/><polygon fill="none" stroke="#000" stroke-width=".1" points="54.606 144.788 54.629 144.741 54.652 144.695 54.675 144.648 54.698 144.601 54.72 144.554 54.742 144.507 54.764 144.459 54.785 144.412 54.795 144.387 55.152 143.314 55.247 142.199 55.044 141.089 54.606 140.039 54.577 140.003 54.541 139.977 54.499 139.961 54.455 139.956 51.584 139.956 51.539 139.961 51.498 139.977 51.461 140.003 51.432 140.039 50.995 141.089 50.792 142.199 50.886 143.314 51.243 144.387 51.253 144.412 51.275 144.459 51.296 144.507 51.318 144.554 51.341 144.601 51.363 144.648 51.386 144.695 51.409 144.741 51.432 144.788 51.164 145.413 50.966 146.021 50.786 147.329 50.831 147.974 50.965 148.624 51.432 149.851 51.462 149.887 51.498 149.916 51.539 149.934 51.583 149.941 51.241 149.979 50.996 150.015 50.826 150.055 50.769 150.094 50.825 150.132 50.994 150.172 51.584 150.247 54.455 150.247 54.79 150.209 55.031 150.172 55.252 150.094 55.196 150.055 55.03 150.015 54.778 149.977 54.455 149.941 54.499 149.934 54.54 149.916 54.577 149.888 54.606 149.851 55.073 148.624 55.207 147.975 55.252 147.329 55.072 146.021 54.874 145.413 54.606 144.788"/><line x1="51.584" x2="54.455" y1="150.247" y2="150.247" fill="none" stroke="#000" stroke-width=".1"/><polyline fill="none" stroke="#000" stroke-width=".1" points="54.455 150.247 54.458 150.247 54.461 150.247 54.465 150.247 54.468 150.247 54.471 150.246 54.474 150.246 54.477 150.246 54.48 150.245"/><line x1="54.606" x2="51.432" y1="144.769" y2="144.769" fill="none" stroke="#000" stroke-width=".1"/><polyline fill="none" stroke="#000" stroke-width=".1" points="51.529 150.237 51.54 150.242 51.54 150.242 51.584 150.246"/><polygon fill="none" stroke="#000" stroke-width=".1" points="51.529 150.237"/><line x1="54.455" x2="51.584" y1="149.94" y2="149.94" fill="none" stroke="#000" stroke-width=".1"/><polyline fill="none" stroke="#000" stroke-width=".1" points="54.455 150.246 54.455 150.247 54.455 150.247"/><polygon fill="none" stroke="#000" stroke-width=".1" points="54.455 150.246"/><polyline fill="none" stroke="#000" stroke-width=".1" points="54.455 150.246 54.499 150.242 54.51 150.237"/><polygon fill="none" stroke="#000" stroke-width=".1" points="54.455 150.246"/><polyline fill="none" stroke="#000" stroke-width=".1" points="56.908 149.272 56.908 149.279 56.908 149.278"/><polygon fill="none" stroke="#000" stroke-width=".1" points="56.908 149.272"/><polygon fill="none" stroke="#000" stroke-width=".1" points="50.519 265.472 50.519 257.966 50.519 247.735 50.519 235.686 50.519 222.728 50.519 209.77 50.519 197.721 50.519 187.49 50.519 179.984 46.5 179.881 46.813 228.897 40.797 241.048 36.519 241.048 35.019 241.048 35.019 265.472 50.519 265.472"/><polyline fill="none" stroke="#000" stroke-width=".1" points="41.94 245.855 41.392 245.825"/><polyline fill="none" stroke="#000" stroke-width=".1" points="41.392 245.825 41.103 245.927 40.971 246.202"/><polyline fill="none" stroke="#000" stroke-width=".1" points="40.971 246.202 40.971 246.285"/><polygon fill="none" stroke="#000" stroke-width=".1" points="42.508 201.452 42.519 151.237 42.55 151.05 42.594 150.934 42.647 150.846 42.712 150.769 42.769 150.717 42.831 150.674 42.878 150.647 42.926 150.625 43 150.597 43.069 150.561 43.197 150.46 43.305 150.334 43.395 150.188 43.462 150.032 43.504 149.864 43.519 149.687 43.519 148.552 43.519 147.417 43.519 146.282 43.519 145.147 43.519 144.012 43.519 142.876 43.519 141.74 43.519 140.604 43.519 140.604 43.54 140.402 43.598 140.214 43.691 140.043 43.813 139.895 43.961 139.772 44.131 139.68 44.318 139.621 44.519 139.601 50.019 139.601 50.12 139.611 50.214 139.64 50.299 139.687 50.373 139.748 50.434 139.823 50.48 139.908 50.509 140.003 50.519 140.105 50.519 140.203 50.519 142.872 50.519 145.541 50.519 148.21 50.519 150.879 50.519 153.548 50.519 156.217 50.519 158.886 50.519 161.556 50.519 167.679 50.519 173.83 50.519 180.197 50.483 180.337 50.44 180.45 50.185 180.898 50.125 181.138 50.076 181.377 50.035 181.609 49.842 182.331 49.712 183.103 49.623 183.922 49.562 184.87 49.519 186.118 49.519 243.187 44.739 241.048 35.019 241.048 35.019 243.187 32.519 243.187 31.461 243.073 30.451 242.739 29.534 242.199 28.753 241.478 28.142 240.607 27.73 239.628 27.572 238.919 27.519 238.194 27.519 211.235 27.519 210.987 27.572 210.262 27.73 209.553 28.142 208.574 28.753 207.703 29.534 206.982 30.451 206.442 31.461 206.108 32.519 205.994 37.519 205.994 38.596 205.877 39.621 205.532 40.555 204.976 40.727 204.839 40.893 204.695 41.051 204.545 41.202 204.391 41.345 204.23 41.479 204.069 41.696 203.772 41.935 203.382 42.133 202.98 42.309 202.507 42.426 202.053 42.452 201.911 42.466 201.827 42.466 201.827 42.466 201.827 42.466 201.827 42.466 201.827 42.466 201.827 42.466 201.827 42.466 201.826 42.466 201.826 42.466 201.824 42.467 201.821 42.468 201.815 42.47 201.802 42.473 201.778 42.48 201.729 42.491 201.634 42.508 201.452"/><polygon fill="none" stroke="#000" stroke-width=".1" points="29.519 234.478 29.519 213.26 29.645 212.149 30.015 211.094 30.61 210.147 31.402 209.357 32.35 208.762 33.407 208.393 34.519 208.268 37.519 208.268 38.663 208.275 39.746 208.297 40.711 208.331 41.506 208.377 42.091 208.432 42.411 208.487 42.519 208.544 42.519 209.013 42.666 209.023 43.019 209.031 43.019 239.415 34.561 239.415 33.748 239.383 33.407 239.345 32.35 238.976 31.402 238.381 30.61 237.59 30.015 236.644 29.645 235.588"/><polygon fill="none" stroke="#000" stroke-width=".1" points="39.519 233.106 39.519 214.328 39.417 213.553 39.38 213.463 39.342 213.372 39.305 213.282 39.267 213.192 39.23 213.102 39.192 213.011 39.155 212.921 39.117 212.831 38.641 212.21 38.019 211.734 37.296 211.435 36.519 211.333 35.743 211.435 35.019 211.734 34.398 212.21 33.921 212.831 33.622 213.553 33.519 214.328 33.519 233.106 33.519 233.299 33.64 234.142 33.994 234.916 34.551 235.56 35.267 236.021 36.084 236.263 36.936 236.266 37.755 236.029 38.474 235.572 39.035 234.932 39.393 234.159 39.488 233.734 39.519 233.106"/><polygon fill="none" stroke="#000" stroke-width=".1" points="36.519 240.106 36.519 241.049 36.519 252.578 48.519 252.578 48.701 252.54 48.861 252.446 49.151 252.118 49.349 251.735 49.519 250.924 49.519 241.207 49.385 240.738 49.019 240.394 48.519 240.269 43.019 240.269 43.019 240.473 43.019 239.415 38.019 239.415 38.019 240.051 38.005 240.053 37.894 240.074 37.894 240.074 37.501 240.094 37.063 240.103"/><line x1="48.519" x2="36.519" y1="249.24" y2="249.24" fill="none" stroke="#000" stroke-width=".1"/><polygon fill="none" stroke="#000" stroke-width=".1" points="37.449 246.954 37.448 246.952 37.13 246.149 37.019 245.258 37.056 244.715 37.167 244.219 37.536 243.394 38.105 242.692 38.835 242.159 39.677 241.83 40.576 241.728 41.47 241.859 42.302 242.214 43.014 242.771 43.56 243.491 43.903 244.327 44.007 245.125 44.019 245.222 44.019 245.326 43.874 246.27 43.859 246.32 43.85 246.352 43.794 246.521 43.724 246.684 43.698 246.737 43.671 246.79 43.62 246.897 43.564 247.002 43.473 247.154 43.373 247.302 43.266 247.444 43.153 247.581 43.032 247.712 42.905 247.836 42.772 247.954 42.633 248.065 42.488 248.168 42.339 248.265 42.184 248.353 42.026 248.434 41.863 248.506 41.697 248.57 41.528 248.626 41.357 248.673 41.183 248.712 41.008 248.74 40.92 248.75 40.832 248.757 40.744 248.765 40.7 248.767 40.612 248.771 40.569 248.772 40.481 248.772 40.437 248.771 40.383 248.769 40.329 248.767 40.242 248.761 40.154 248.753 40.111 248.748 40.023 248.737 39.98 248.73 39.937 248.723 39.833 248.704 39.735 248.685 39.638 248.662 39.467 248.613 39.299 248.555 39.134 248.488 38.972 248.414 38.815 248.332 38.662 248.241 38.513 248.143 38.37 248.037 38.233 247.925 38.101 247.805 37.975 247.679 37.857 247.547 37.745 247.409 37.64 247.265 37.54 247.118 37.453 246.963 37.451 246.959"/><polygon fill="none" stroke="#000" stroke-width=".1" points="40.914 247.318 40.417 247.35 39.916 247.264 39.331 246.967 38.874 246.496 38.595 245.903 38.522 245.252 38.665 244.612 39.008 244.053 39.513 243.635 40.126 243.402 40.628 243.382 41.125 243.457 41.709 243.755 42.165 244.225 42.444 244.818 42.517 245.469 42.374 246.108 42.032 246.667 41.527 247.085"/><polygon fill="none" stroke="#000" stroke-width=".1" points="41.208 241.851 41.208 241.851 41.071 244.361 41.069 244.407 41.069 244.49 41.17 244.778 41.446 244.911 41.994 244.94 41.94 245.937 41.392 245.908 41.103 246.009 40.975 246.277 40.971 246.285 40.832 248.757 40.744 248.765 40.7 248.767 40.612 248.771 40.569 248.772 40.481 248.772 40.437 248.771 40.383 248.769 40.329 248.767 40.242 248.761 40.154 248.753 40.111 248.748 40.024 248.737 39.98 248.73 39.937 248.723 39.833 248.704 39.835 248.691 39.835 248.691 39.854 248.384 39.873 248.076 39.89 247.769 39.907 247.461 39.923 247.153 39.94 246.846 39.956 246.538 39.972 246.23 39.871 245.942 39.595 245.81 39.047 245.78 39.099 244.783 39.649 244.813 39.901 244.741 40.054 244.529 40.07 244.436 40.088 244.112 40.106 243.788 40.124 243.464 40.142 243.139 40.159 242.815 40.176 242.491 40.192 242.167 40.208 241.843 40.209 241.796 40.297 241.79 40.385 241.785 40.428 241.784 40.516 241.783 40.56 241.783 40.604 241.784 40.71 241.788 40.753 241.791 40.797 241.794 40.885 241.802 40.928 241.807 41.015 241.818 41.059 241.825 41.133 241.837 41.208 241.851"/><polyline fill="none" stroke="#000" stroke-width=".1" points="41.94 245.855 41.392 245.825"/><polyline fill="none" stroke="#000" stroke-width=".1" points="41.392 245.825 41.103 245.927 40.971 246.202"/><polyline fill="none" stroke="#000" stroke-width=".1" points="40.971 246.202 40.971 246.285"/><polyline fill="none" stroke="#000" stroke-width=".1" points="39.973 246.126 39.863 245.851 39.595 245.727"/><polyline fill="none" stroke="#000" stroke-width=".1" points="39.049 245.698 39.595 245.727"/><polyline fill="none" stroke="#000" stroke-width=".1" points="39.973 246.209 39.973 246.126"/><polyline fill="none" stroke="#000" stroke-width=".1" points="42.519 208.544 42.508 201.452"/><polyline fill="none" stroke="#000" stroke-width=".1" points="43.019 180.723 43.019 195.79 43.019 209.031"/><polyline fill="none" stroke="#000" stroke-width=".1" points="50.019 141.426 50.019 147.78 50.019 154.236 50.019 160.768 50.019 167.352 50.019 173.963 50.019 180.576 49.714 180.874 49.501 181.185 49.339 181.49 49.191 181.832 48.97 182.497 48.806 183.181"/><polygon fill="none" stroke="#000" stroke-width=".1" points="50.019 141.426"/><polyline fill="none" stroke="#000" stroke-width=".1" points="43.019 151.421 43.609 151.153 44.091 150.702 44.408 150.111 44.519 149.439 44.519 148.438 44.519 147.436 44.519 146.434 44.519 145.433 44.519 144.431 44.519 143.429 44.519 142.428 44.519 141.426"/><polygon fill="none" stroke="#000" stroke-width=".1" points="29.02 243.648 29.019 243.846 29.019 244.432 29.019 245.384 29.019 246.665 29.019 248.226 29.019 250.006 29.019 251.939 29.019 253.948 29.019 255.957 29.019 257.89 29.019 259.67 29.019 261.231 29.019 262.512 29.019 263.464 29.019 264.05 29.02 264.248 29.04 264.449 29.098 264.637 29.191 264.806 29.313 264.954 29.461 265.077 29.631 265.169 29.818 265.228 30.019 265.248 35.019 265.248 35.019 242.648 30.019 242.648 29.818 242.668 29.631 242.727 29.461 242.819 29.313 242.941 29.191 243.089 29.098 243.259 29.04 243.447 29.02 243.648"/><polyline fill="none" stroke="#000" stroke-width=".1" points="30.019 246.61 30.019 246.115 30.019 245.619 30.019 245.124 30.019 244.629 30.019 244.134 30.019 243.638 30.019 243.143 30.019 242.648"/><polyline fill="none" stroke="#000" stroke-width=".1" points="30.019 265.248 30.019 265.134 30.019 264.797 30.019 264.241 30.019 263.479 30.019 262.525 30.019 261.399"/><polygon fill="none" stroke="#000" stroke-width=".1" points="30.019 265.248"/><polygon fill="none" stroke="#000" stroke-width=".1" points="54.019 263.419 54.018 263.421 54.016 263.423 54.014 263.425 54.012 263.427 54.011 263.429 54.01 263.43 54.009 263.431 54.008 263.432 54.008 263.432 53.647 263.804 53.26 264.144 52.85 264.452 52.419 264.727 51.968 264.966 51.5 265.169 51.017 265.334 50.519 265.46 50.519 265.46 50.519 262.583 50.519 259.706 50.519 256.828 50.519 253.951 50.519 251.074 50.519 248.196 50.519 245.319 50.519 242.441 50.519 242.441 51.018 242.578 51.504 242.754 51.975 242.967 52.428 243.216 52.861 243.499 53.27 243.814 53.653 244.16 54.008 244.533 54.008 244.533 54.008 244.534 54.01 244.536 54.011 244.538 54.014 244.54 54.016 244.543 54.017 244.545 54.019 244.547 54.019 244.547 54.019 244.547 54.019 246.906 54.019 249.265 54.019 251.624 54.019 253.983 54.019 256.342 54.019 258.701 54.019 261.06 54.019 263.419"/><polygon fill="none" stroke="#000" stroke-width=".1" points="54.019 248.024 54.024 248.025 54.033 248.027 54.045 248.029 54.059 248.032 54.073 248.035 54.085 248.037 54.094 248.039 54.098 248.04 54.098 248.04 54.693 248.176 55.268 248.375 55.819 248.635 56.339 248.952 56.824 249.322 57.27 249.741 57.67 250.205 58.019 250.71 58.019 250.71 58.019 251.525 58.019 252.338 58.019 253.148 58.019 253.957 58.019 254.767 58.019 255.577 58.019 256.39 58.019 257.205 58.019 257.205 58.018 257.207 58.014 257.212 58.01 257.218 58.006 257.225 58.001 257.232 57.997 257.238 57.994 257.243 57.992 257.245 57.992 257.245 57.636 257.747 57.231 258.207 56.781 258.621 56.29 258.987 55.764 259.299 55.207 259.553 54.624 259.747 54.019 259.876 54.019 248.024"/><polygon fill="none" stroke="#000" stroke-width=".1" points="42.517 225.272 42.504 224.127 42.273 223.005 41.833 221.948 41.2 220.993 40.397 220.175 39.454 219.524 38.404 219.064 37.285 218.81 36.139 218.774 34.96 218.967 33.842 219.389 32.83 220.023 31.963 220.844 31.276 221.821 30.795 222.913 30.541 224.079 30.521 225.272 30.587 226.017 41.806 226.102"/><polygon fill="none" stroke="#000" stroke-width=".1" points="42.265 226.845 41.95 227.666 41.517 228.432 41.059 229.034 40.12 229.908 39.015 230.563 37.795 230.968 36.962 231.068 36.179 231.102 35.333 230.987 34.114 230.603 33.004 229.971 32.054 229.118 31.543 228.465 30.929 227.294 30.587 226.017 30.521 225.272 30.535 224.697 30.774 223.397 31.189 222.374 31.786 221.444 32.544 220.639 33.438 219.987 34.436 219.509 35.505 219.223 36.609 219.138 37.71 219.256 38.771 219.574 39.754 220.081 40.628 220.76 41.361 221.587 41.93 222.535 42.314 223.57 42.501 224.659 42.517 225.272 42.485 225.763"/><polygon fill="none" stroke="#000" stroke-width=".1" points="40.043 227.015 39.719 227.771 39.234 228.435 38.614 228.976 37.888 229.365 37.093 229.583 36.27 229.62 35.459 229.473 34.702 229.149 34.035 228.666 33.493 228.047 33.103 227.323 32.885 226.53 32.848 225.709 32.995 224.901 33.32 224.145 33.804 223.481 34.425 222.94 35.151 222.551 35.946 222.333 36.769 222.296 37.58 222.443 38.337 222.767 39.004 223.25 39.545 223.869 39.935 224.593 40.154 225.386 40.191 226.207"/><polygon fill="none" stroke="#000" stroke-width=".1" points="36.391 222.562 33.605 224.197 33.532 224.271 33.506 224.37 33.533 227.595 33.56 227.694 33.634 227.767 36.447 229.356 36.548 229.382 36.648 229.354 39.434 227.719 39.49 227.67 39.524 227.605 39.533 227.546 39.506 224.321 39.478 224.222 39.405 224.149 36.591 222.56 36.491 222.534"/><line x1="42.519" x2="42.519" y1="225.121" y2="224.943" fill="none" stroke="#000" stroke-width=".1"/><line x1="33.533" x2="33.533" y1="227.275" y2="227.595" fill="none" stroke="#000" stroke-width=".1"/><line x1="36.447" x2="36.447" y1="228.505" y2="229.356" fill="none" stroke="#000" stroke-width=".1"/><polyline fill="none" stroke="#000" stroke-width=".1" points="39.524 226.755 39.512 226.786 39.479 226.834 39.473 226.838 39.467 226.843 39.462 226.847 39.456 226.851 39.451 226.855 39.445 226.86 39.44 226.864 39.434 226.868 38.857 227.195 38.251 227.546 37.572 227.946 37.23 228.15 36.89 228.355 36.648 228.504 36.614 228.52 36.559 228.532 36.501 228.527 36.448 228.505 35.865 228.164 35.253 227.814 34.568 227.428 34.222 227.236 33.879 227.048 33.634 226.916 33.604 226.895 33.567 226.855 33.541 226.801 33.533 226.744"/><polyline fill="none" stroke="#000" stroke-width=".1" points="39.531 227.226 39.529 227.256 39.524 227.286"/><polygon fill="none" stroke="#000" stroke-width=".1" points="39.531 227.226"/><polygon fill="none" stroke="#000" stroke-width=".1" points="41.894 140.851 41.894 149.351 43.394 149.351 43.394 140.851"/><polygon fill="none" stroke="#000" stroke-width=".1" points="50.645 149.351 52.145 149.351 52.145 140.851 50.645 140.851"/><polygon fill="none" stroke="#000" stroke-width=".1" points="43.519 149.304 43.519 145.083 43.519 140.898 43.394 140.898 43.394 145.083 43.394 149.304"/><polyline fill="none" stroke="#000" stroke-width=".1" points="52.145 147.601 52.945 147.601"/><polygon fill="none" stroke="#000" stroke-width=".1" points="52.945 147.601 52.145 147.601 52.145 146.976 52.145 146.351 52.145 145.726 52.145 145.101 52.145 144.476 52.145 143.851 52.145 143.226 52.145 142.601 52.945 142.601 52.945 147.601"/><polygon fill="none" stroke="#000" stroke-width=".1" points="50.645 149.303 50.645 148.485 50.645 147.449 50.645 146.086 50.645 144.475 50.645 142.712 50.645 140.898 50.519 140.898 50.519 141.127 50.519 141.613 50.519 142.384 50.519 143.41 50.519 144.66 50.519 146.112 50.519 147.647 50.519 149.303"/><polygon fill="none" stroke="#000" stroke-width=".1" points="41.145 146.642 41.145 146.227 41.145 145.652 41.145 145 41.145 144.362 41.145 143.828 41.145 143.475 41.145 143.351 41.146 143.316 41.148 143.281 41.152 143.247 41.158 143.213 41.165 143.18 41.173 143.148 41.183 143.115 41.195 143.084 41.195 143.084 41.216 143.034 41.24 142.986 41.268 142.94 41.299 142.897 41.333 142.856 41.37 142.817 41.409 142.781 41.451 142.747 41.451 142.747 41.471 142.733 41.491 142.72 41.511 142.707 41.532 142.695 41.554 142.684 41.576 142.673 41.598 142.663 41.621 142.653 41.621 142.653 41.653 142.642 41.686 142.631 41.719 142.622 41.753 142.615 41.788 142.609 41.823 142.605 41.859 142.602 41.895 142.601 41.895 142.601 41.895 143.226 41.895 143.851 41.895 144.476 41.895 145.101 41.895 145.726 41.895 146.351 41.895 146.976 41.895 147.601 41.895 147.601 41.871 147.601 41.847 147.6 41.823 147.598 41.8 147.595 41.777 147.592 41.753 147.588 41.731 147.583 41.708 147.577 41.708 147.577 41.68 147.57 41.652 147.561 41.625 147.551 41.598 147.54 41.572 147.528 41.546 147.515 41.521 147.501 41.497 147.486 41.497 147.486 41.47 147.468 41.444 147.45 41.419 147.43 41.395 147.409 41.371 147.387 41.349 147.364 41.327 147.34 41.307 147.315 41.307 147.315 41.291 147.294 41.275 147.272 41.261 147.25 41.247 147.227 41.233 147.203 41.221 147.179 41.21 147.155 41.199 147.13 41.199 147.13 41.187 147.097 41.176 147.064 41.167 147.03 41.159 146.995 41.153 146.96 41.149 146.924 41.146 146.888 41.145 146.851 41.145 146.798 41.145 146.642"/><line x1="50.515" x2="50.515" y1="140.065" y2="140.059" fill="none" stroke="#000" stroke-width=".1"/><rect width="2" height="15" x="26.019" y="246.448" fill="none" stroke="#000" stroke-width=".1"/><polygon fill="none" stroke="#000" stroke-width=".1" points="26.019 246.448 9.923 244.439 9.923 263.457 26.019 261.448"/><rect width="1" height="8" x="28.019" y="249.948" fill="none" stroke="#000" stroke-width=".1"/><polyline fill="none" stroke="#000" stroke-width=".1" points="53.816 87.459 54.209 82.081 54.554 77 54.835 72.2 55.037 67.668 55.145 63.387 55.141 59.343 55.012 55.521 54.741 51.905"/><polyline fill="none" stroke="#000" stroke-width=".1" points="48.742 87.088 49.028 83.191 49.293 79.451 49.529 75.86 49.73 72.414 49.892 69.107 50.008 65.933 50.072 62.886 50.079 59.962"/><polyline fill="none" stroke="#000" stroke-width=".1" points="33.528 218.762 34.303 218.347 34.303 218.347 35.229 218.05 36.237 217.91 37.106 217.934 37.983 218.094 39.521 218.748"/><polygon fill="none" stroke="#000" stroke-width=".1" points="33.528 218.762"/><polyline fill="none" stroke="#000" stroke-width=".1" points="39.554 217.1 36.564 216.846 33.572 216.625"/><polygon fill="none" stroke="#000" stroke-width=".1" points="39.554 217.1"/><polyline fill="none" stroke="#000" stroke-width=".1" points="39.466 218.096 36.477 217.844 33.486 217.622"/><polygon fill="none" stroke="#000" stroke-width=".1" points="39.466 218.096"/><polyline fill="none" stroke="#000" stroke-width=".1" points="39.519 219.37 38.373 218.862 37.146 218.603 35.893 218.603 34.666 218.862 33.52 219.37"/><polygon fill="none" stroke="#000" stroke-width=".1" points="39.519 219.37"/><circle id="center_00" cx="36.5" cy="223.5" r="12.5" fill="none" stroke="#000" stroke-width=".1"/></svg>