<svg xmlns="http://www.w3.org/2000/svg" width="297mm" height="210mm" viewBox="0 0 297 210"><g id="Ebene_x0020_1"><polygon id="_tag_669_" fill="none" stroke="#000" stroke-width=".1" points="100.072 14.595 101.182 13.735 103.118 13.473 104.834 14.452 106.051 16.045 106.548 17.966 107.85 20.57 108.753 24.772 104.948 25.309 104.111 22.686 103.19 22.07 101.991 22.797"/><g id="_131902128"><rect id="_131887200" width="2.747" height="1.558" x="108.406" y="21.259" fill="none" stroke="#000" stroke-width=".1"/><polygon id="_131560832" fill="none" stroke="#000" stroke-width=".1" points="111.489 21.995 111.51 21.992 111.529 21.984 111.546 21.973 111.561 21.96 111.573 21.943 111.581 21.925 111.586 21.905 111.587 21.884 111.587 21.884 111.583 21.863 111.576 21.844 111.565 21.826 111.551 21.812 111.535 21.8 111.516 21.792 111.496 21.787 111.475 21.786 111.475 21.786 111.203 21.806 110.938 21.827 110.681 21.85 110.432 21.875 110.192 21.901 109.959 21.928 109.735 21.958 109.52 21.988 109.52 21.988 109.311 22.021 109.111 22.055 108.92 22.091 108.737 22.129 108.563 22.168 108.398 22.21 108.242 22.253 108.094 22.298 108.094 22.298 108.075 22.306 108.058 22.318 108.044 22.332 108.033 22.349 108.026 22.368 108.022 22.388 108.022 22.408 108.027 22.429 108.027 22.429 108.035 22.448 108.047 22.465 108.061 22.479 108.078 22.49 108.097 22.498 108.117 22.501 108.137 22.501 108.158 22.497 108.158 22.497 108.301 22.453 108.453 22.412 108.614 22.371 108.783 22.333 108.962 22.296 109.149 22.261 109.345 22.228 109.55 22.196 109.55 22.196 109.764 22.165 109.986 22.136 110.217 22.109 110.455 22.083 110.702 22.059 110.956 22.036 111.219 22.015 111.489 21.995"/><polygon id="_131842200" fill="none" stroke="#000" stroke-width=".1" points="111.489 21.445 111.51 21.441 111.529 21.434 111.546 21.423 111.561 21.41 111.573 21.393 111.581 21.375 111.586 21.355 111.587 21.334 111.587 21.334 111.583 21.313 111.576 21.294 111.565 21.276 111.551 21.262 111.535 21.25 111.516 21.242 111.496 21.237 111.475 21.236 111.475 21.236 111.203 21.256 110.938 21.277 110.681 21.3 110.432 21.325 110.192 21.351 109.959 21.378 109.735 21.408 109.52 21.438 109.52 21.438 109.311 21.471 109.111 21.505 108.92 21.541 108.737 21.579 108.563 21.618 108.398 21.66 108.242 21.703 108.094 21.748 108.094 21.748 108.075 21.756 108.058 21.768 108.044 21.782 108.033 21.799 108.026 21.818 108.022 21.838 108.022 21.858 108.027 21.879 108.027 21.879 108.035 21.898 108.047 21.915 108.061 21.929 108.078 21.94 108.097 21.947 108.117 21.951 108.137 21.951 108.158 21.947 108.158 21.947 108.301 21.903 108.453 21.861 108.614 21.821 108.783 21.783 108.962 21.746 109.149 21.711 109.345 21.678 109.55 21.646 109.55 21.646 109.764 21.615 109.986 21.586 110.217 21.559 110.455 21.533 110.702 21.509 110.956 21.486 111.219 21.465 111.489 21.445"/><polygon id="_131062096" fill="none" stroke="#000" stroke-width=".1" points="111.489 22.545 111.51 22.542 111.529 22.534 111.546 22.523 111.561 22.51 111.573 22.493 111.581 22.475 111.586 22.455 111.587 22.434 111.587 22.434 111.583 22.413 111.576 22.394 111.565 22.377 111.551 22.362 111.535 22.35 111.516 22.342 111.496 22.337 111.475 22.336 111.475 22.336 111.203 22.356 110.938 22.378 110.681 22.4 110.432 22.425 110.192 22.451 109.959 22.478 109.735 22.508 109.52 22.538 109.52 22.538 109.311 22.571 109.111 22.605 108.92 22.641 108.737 22.679 108.563 22.719 108.398 22.76 108.242 22.803 108.094 22.848 108.094 22.848 108.075 22.856 108.058 22.868 108.044 22.883 108.033 22.899 108.026 22.918 108.022 22.938 108.022 22.958 108.027 22.979 108.027 22.979 108.035 22.998 108.047 23.015 108.061 23.029 108.078 23.04 108.097 23.048 108.117 23.051 108.137 23.051 108.158 23.047 108.158 23.047 108.301 23.003 108.453 22.962 108.614 22.922 108.783 22.883 108.962 22.846 109.149 22.811 109.345 22.778 109.55 22.746 109.55 22.746 109.764 22.715 109.986 22.686 110.217 22.659 110.455 22.633 110.702 22.609 110.956 22.586 111.219 22.565 111.489 22.545"/><polygon id="_131875424" fill="none" stroke="#000" stroke-width=".1" points="107.784 19.528 109.951 19.528 109.951 20.15 110.277 19.528 111.775 19.528 111.775 21.259 107.784 21.259"/></g><polygon id="_tag_670_" fill="none" stroke="#000" stroke-width=".1" points="105.067 40.848 112.38 40.842 112.386 47.879 105.067 47.86"/><polyline id="_tag_671_" fill="none" stroke="#000" stroke-width=".1" points="101.112 92.545 99.694 6.757 101.111 6.736 102.461 88.452"/><g id="_21436016"><polygon id="_131580824" fill="none" stroke="#000" stroke-width=".1" points="116.534 22.564 117.283 22.25 122.773 22.252 127.714 22.254 127.706 47.83 115.633 47.825 115.641 24.859 115.776 23.641"/><polyline id="_131580456" fill="none" stroke="#000" stroke-width=".1" points="119.571 31.949 119.575 22.251 124.153 22.253 124.15 30.962"/></g><polygon id="_new_626_1" fill="none" stroke="#000" stroke-width=".1" points="66.88 80.03 64.716 79.108 63.593 77.978 63.246 76.681 63.413 75.256 63.83 73.745 64.233 72.187 64.359 70.624 63.945 69.094 63.945 69.094 68.394 66.318 72.801 63.763 77.176 61.439 81.532 59.356 85.88 57.52 90.233 55.941 94.602 54.628 98.998 53.59 98.998 53.59 102.331 53.031 105.674 52.678 108.952 52.501 112.09 52.466 115.015 52.544 117.65 52.704 119.921 52.913 121.754 53.142 121.754 53.142 123.865 53.652 125.787 54.524 127.479 55.717 128.903 57.188 130.021 58.895 130.794 60.795 131.184 62.848 131.153 65.009 131.153 65.009 130.688 67.126 129.837 69.05 128.647 70.743 127.165 72.166 125.441 73.281 123.521 74.052 121.453 74.44 119.286 74.408 119.286 74.408 116.462 74.068 112.441 73.676 107.287 73.407 101.068 73.436 93.851 73.938 85.703 75.088 76.69 77.06 66.88 80.03"/><polygon id="_tag_672_" fill="none" stroke="#000" stroke-width=".1" points="110.425 41.891 113.726 41.827 113.704 37.911 110.3 37.212 110.724 32.484 112.861 32.338 113.109 33.95 113.155 35.142 113.66 36.439 113.155 35.142 113.109 33.95 112.861 32.338 113.726 32.227 113.726 23.885 120.555 24.033 121.582 24.309 123.81 24.291 124.854 26.288 125.104 29.36 126.654 47.848 120.031 48.466 111.481 48.268"/><polygon id="_new_628_1" fill="none" stroke="#000" stroke-width=".1" points="123.473 26.917 123.525 26.129 123.687 25.316 123.964 24.517 124.363 23.775 124.891 23.13 125.553 22.624 126.356 22.296 127.306 22.19 127.306 22.19 127.623 22.229 127.913 22.329 128.172 22.478 128.394 22.667 128.574 22.884 128.709 23.12 128.794 23.363 128.823 23.603 128.831 46.531 128.809 46.752 128.744 46.976 128.642 47.193 128.506 47.392 128.341 47.566 128.149 47.703 127.936 47.794 127.706 47.83 127.706 47.83 126.834 47.806 126.032 47.618 125.314 47.288 124.695 46.843 124.189 46.306 123.81 45.701 123.572 45.054 123.489 44.388 123.473 26.917"/><polyline id="_new_629_1" fill="none" stroke="#000" stroke-width=".1" points="125.102 46.131 124.99 45.939 124.891 45.743 124.807 45.543 124.737 45.339 124.681 45.133 124.641 44.926 124.617 44.717 124.608 44.509 124.592 26.788 124.6 26.486 124.624 26.176 124.664 25.861 124.721 25.543 124.796 25.225 124.888 24.908 124.998 24.596 125.126 24.292"/><g id="_131391448"><polygon id="_131394976" fill="none" stroke="#000" stroke-width=".1" points="134.1 37.704 132.69 37.711 131.92 37.715 131.839 29.96 134.172 29.949 134.336 30.351 134.478 30.755 134.6 31.161 134.699 31.569 134.777 31.978 134.832 32.39 134.863 32.803 134.871 33.218 134.871 33.218 134.874 33.724 134.864 34.224 134.839 34.719 134.8 35.212 134.746 35.703 134.675 36.194 134.588 36.686 134.485 37.181 134.14 37.704 134.135 37.705 134.13 37.705 134.125 37.706 134.12 37.706 134.115 37.706 134.11 37.705 134.105 37.705 134.1 37.704"/><line id="_131394592" x1="132.538" x2="134.871" y1="33.24" y2="33.228" fill="none" stroke="#000" stroke-width=".1"/><line id="_131394208" x1="132.128" x2="134.461" y1="37.263" y2="37.252" fill="none" stroke="#000" stroke-width=".1"/><polyline id="_131393360_1" fill="none" stroke="#000" stroke-width=".1" points="130.043 39.436 130.045 39.356"/><polyline id="_131393360_2" fill="none" stroke="#000" stroke-width=".1" points="130.356 28.408 130.356 28.407 130.628 28.552 130.89 28.713 131.14 28.89 131.377 29.085 131.601 29.298 131.812 29.53 132.008 29.782 132.189 30.055 132.174 30.357"/><polyline id="_131393360_3" fill="none" stroke="#000" stroke-width=".1" points="131.808 37.715 131.638 37.995 131.452 38.255 131.251 38.496 131.036 38.718 130.807 38.922 130.565 39.109 130.31 39.28 130.043 39.436"/><polygon id="_131393360" fill="none" stroke="#000" stroke-width=".1" points="131.839 29.96 131.885 29.961 131.929 29.976 131.972 30.006 132.015 30.05 132.056 30.107 132.097 30.178 132.136 30.261 132.174 30.357 132.174 30.357 132.254 30.617 132.327 30.933 132.39 31.3 132.444 31.713 132.487 32.167 132.518 32.656 132.537 33.176 132.542 33.722 132.542 33.722 132.524 34.506 132.479 35.241 132.41 35.91 132.32 36.498 132.212 36.989 132.088 37.366 131.953 37.613 131.808 37.715 131.808 37.715 131.686 37.679 131.571 37.537 131.465 37.297 131.369 36.968 131.286 36.559 131.216 36.08 131.162 35.539 131.125 34.945 131.125 34.934 131.132 34.782 131.138 34.628 131.143 34.473 131.148 34.317 131.151 34.16 131.154 34.002 131.156 33.842 131.157 33.682 131.157 33.682 131.157 33.561 131.157 33.441 131.156 33.322 131.155 33.203 131.153 33.086 131.151 32.969 131.149 32.853 131.146 32.737 131.146 32.737 131.191 32.171 131.252 31.651 131.325 31.185 131.411 30.782 131.506 30.449 131.611 30.196 131.722 30.03 131.839 29.96"/><polygon id="_131392584" fill="none" stroke="#000" stroke-width=".1" points="130.043 39.436 130.356 28.407 130.693 28.556 131 28.744 131.277 28.968 131.524 29.223 131.741 29.505 131.929 29.811 132.087 30.136 132.215 30.476 132.215 30.476 132.287 30.723 132.352 31.004 132.409 31.326 132.456 31.693 132.494 32.111 132.522 32.585 132.538 33.12 132.542 33.722 132.542 33.722 132.527 34.388 132.489 35.021 132.431 35.611 132.356 36.15 132.268 36.629 132.168 37.04 132.061 37.372 131.949 37.618 131.949 37.618 131.773 37.903 131.571 38.173 131.348 38.429 131.107 38.669 130.852 38.891 130.587 39.094 130.316 39.276 130.043 39.436"/><polygon id="_131391848" fill="none" stroke="#000" stroke-width=".1" points="130.159 28.336 128.445 28.345 128.403 28.741 128.349 29.117 128.276 29.485 128.172 29.859 128.029 30.254 127.836 30.682 127.586 31.159 127.266 31.697 127.266 31.697 127.281 31.931 127.294 32.17 127.305 32.414 127.314 32.663 127.321 32.916 127.326 33.174 127.328 33.435 127.328 33.7 127.328 33.7 127.326 33.975 127.321 34.247 127.314 34.515 127.304 34.78 127.293 35.041 127.279 35.297 127.263 35.548 127.244 35.795 127.244 35.795 127.554 36.296 127.8 36.749 127.989 37.171 128.131 37.577 128.234 37.984 128.307 38.407 128.358 38.861 128.397 39.364 130.114 39.356 130.32 39.211 130.513 38.859 130.688 38.323 130.842 37.626 130.97 36.79 131.068 35.839 131.132 34.795 131.157 33.682 131.157 33.682 131.141 32.575 131.086 31.55 130.995 30.629 130.874 29.834 130.726 29.186 130.555 28.705 130.364 28.415 130.159 28.336"/></g><g id="_131389080"><polyline id="_131390720" fill="none" stroke="#000" stroke-width=".1" points="118.894 33.299 118.365 32.771 117.685 32.306 116.641 32.057 115.649 32.222 114.728 32.586"/><polyline id="_131390152" fill="none" stroke="#000" stroke-width=".1" points="115.315 45.179 114.531 43.715 114.356 42.343 114.349 32.716"/><polyline id="_131389472" fill="none" stroke="#000" stroke-width=".1" points="121.471 24.11 121.896 24.697 121.896 32.407 121.442 32.912 120.791 33.272 119.537 33.364 118.969 33.72 118.949 43.779 118.689 44.3 117.351 45.425"/></g><g id="_131385376"><polygon id="_131388696" fill="none" stroke="#000" stroke-width=".1" points="100.072 14.328 101.088 14.763 102.197 16.102 102.927 17.927 103.319 19.959 103.361 21.457 103.018 22.655 102.357 23.259 101.813 23.357 101.098 23.428 100.206 23.07 98.748 23.342 97.809 22.232 97.112 20.764 96.67 18.949 96.565 17.352 96.704 16.381 97.972 15.399 98.591 15.32 99.034 14.543"/><polyline id="_131387888" fill="none" stroke="#000" stroke-width=".1" points="100.126 15.062 101.198 16.356 101.903 18.119 102.281 20.082 102.322 21.528 101.991 22.686"/><polyline id="_131386888" fill="none" stroke="#000" stroke-width=".1" points="98.748 23.342 98.885 22.957 99.892 22.152 99.573 21.095 99.213 19.409 99.198 18.198 98.734 17.474 97.942 16.248 97.972 15.399 99.21 15.242 100.054 16.578 100.974 17.823 100.931 19.53 101.153 20.849 101.43 21.813 100.206 23.07"/><line id="_131386336" x1="99.198" x2="100.974" y1="18.198" y2="17.823" fill="none" stroke="#000" stroke-width=".1"/><line id="_131385768" x1="101.43" x2="99.892" y1="21.813" y2="22.152" fill="none" stroke="#000" stroke-width=".1"/></g><polygon id="_tag_673_" fill="none" stroke="#000" stroke-width=".1" points="103.763 24.22 104.915 24.21 104.915 32.298 103.764 32.294"/><polygon id="_new_631_1" fill="none" stroke="#000" stroke-width=".1" points="103.758 31.066 103.763 25.471 103.042 25.446 102.911 25.5 102.788 25.66 102.677 25.916 102.58 26.255 102.5 26.667 102.44 27.141 102.401 27.665 102.387 28.229 102.387 28.229 102.4 28.793 102.438 29.319 102.497 29.795 102.577 30.211 102.673 30.555 102.784 30.815 102.906 30.981 103.038 31.041 103.758 31.066"/><polygon id="_new_632_1" fill="none" stroke="#000" stroke-width=".1" points="102.419 54.382 103.19 54.046 103.662 53.117 103.764 51.783 103.764 43.216 105.067 43.228 103.764 43.216 103.764 40.184 105.067 40.183 105.067 52.321 112.389 52.321 112.389 43.228 113.726 43.228 112.389 43.228 112.389 40.183 113.723 40.184 113.72 53.017 113.761 53.385 113.877 53.719 114.059 54.015 114.299 54.268 114.587 54.476 114.913 54.634 115.27 54.74 115.648 54.789 122.676 55.147 122.787 55.147 122.899 55.148 123.011 55.151 123.123 55.156 123.236 55.162 123.348 55.171 123.461 55.181 123.575 55.193 123.575 55.193 124.942 55.501 126.184 56.07 127.275 56.863 128.192 57.841 128.912 58.968 129.411 60.206 129.664 61.517 129.65 62.863 129.65 62.863 129.391 64.164 128.94 65.351 128.317 66.409 127.539 67.321 126.624 68.072 125.592 68.644 124.46 69.023 123.247 69.191 121.981 69.266 111.86 69.245 101.973 70.054 92.312 71.666 82.868 74.05 73.635 77.178 64.604 81.021 55.769 85.551 47.121 90.738 45.449 91.997 43.696 94.139 43.696 94.139 43.302 94.713 42.833 95.222 42.298 95.658 41.705 96.016 41.065 96.287 40.385 96.464 39.675 96.541 38.942 96.511 38.942 96.511 37.981 96.301 37.108 95.914 36.34 95.374 35.695 94.702 35.188 93.92 34.838 93.049 34.662 92.11 34.677 91.127 34.677 91.127 34.77 90.588 34.92 90.073 35.122 89.585 35.372 89.128 35.668 88.703 36.006 88.315 36.382 87.965 36.792 87.656 36.792 87.656 40.686 83.971 46.903 79.688 53.979 74.966 61.697 70.107 69.844 65.416 78.205 61.194 86.564 57.746 94.707 55.374 102.419 54.382"/><polygon id="_new_632_2" fill="none" stroke="#000" stroke-width=".1" points="71.597 68.805 79.859 65.158 80.414 64.968 80.982 64.877 81.545 64.89 82.086 65.009 82.584 65.237 83.024 65.577 83.385 66.032 83.65 66.606 83.65 66.606 83.799 67.226 83.829 67.814 83.743 68.363 83.548 68.866 83.248 69.316 82.847 69.706 82.351 70.029 81.764 70.278 73.111 73.154 72.676 73.257 72.26 73.276 71.869 73.218 71.506 73.09 71.177 72.901 70.888 72.656 70.644 72.364 70.449 72.031 70.449 72.031 70.31 71.651 70.236 71.222 70.235 70.767 70.315 70.306 70.482 69.859 70.747 69.446 71.116 69.088 71.597 68.805"/><polygon id="_new_632_3" fill="none" stroke="#000" stroke-width=".1" points="89.067 61.677 98.246 59.159 98.913 59.053 99.58 59.09 100.226 59.257 100.829 59.542 101.368 59.933 101.823 60.418 102.171 60.985 102.391 61.621 102.391 61.621 102.466 62.3 102.401 62.984 102.208 63.649 101.901 64.272 101.491 64.829 100.992 65.294 100.415 65.645 99.773 65.856 90.49 67.712 89.823 67.779 89.173 67.72 88.556 67.543 87.989 67.256 87.487 66.87 87.066 66.392 86.743 65.832 86.532 65.198 86.532 65.198 86.455 64.556 86.513 63.965 86.696 63.429 86.991 62.951 87.387 62.534 87.873 62.181 88.437 61.894 89.067 61.677"/><polygon id="_new_632_4" fill="none" stroke="#000" stroke-width=".1" points="121.555 64.755 118.116 65.019 117.514 64.997 116.907 64.847 116.326 64.576 115.797 64.194 115.349 63.709 115.011 63.132 114.811 62.471 114.777 61.734 114.777 61.734 114.917 61.008 115.201 60.374 115.602 59.836 116.096 59.398 116.655 59.063 117.255 58.836 117.869 58.719 118.471 58.717 121.812 59.036 122.382 59.143 122.91 59.345 123.383 59.632 123.792 59.996 124.123 60.427 124.366 60.915 124.51 61.45 124.543 62.024 124.543 62.024 124.458 62.588 124.267 63.097 123.98 63.547 123.611 63.934 123.171 64.253 122.674 64.498 122.131 64.667 121.555 64.755"/><polygon id="_new_633_1" fill="none" stroke="#000" stroke-width=".1" points="103.642 46.425 103.647 40.831 102.926 40.806 102.795 40.859 102.672 41.02 102.561 41.275 102.464 41.614 102.384 42.027 102.324 42.5 102.285 43.025 102.271 43.588 102.271 43.588 102.284 44.152 102.322 44.678 102.381 45.154 102.461 45.57 102.557 45.914 102.668 46.175 102.79 46.34 102.922 46.4 103.642 46.425"/><polygon id="_new_634_1" fill="none" stroke="#000" stroke-width=".1" points="103.642 49.86 103.647 44.266 102.926 44.241 102.795 44.295 102.672 44.455 102.561 44.71 102.464 45.049 102.384 45.462 102.324 45.935 102.285 46.46 102.271 47.023 102.271 47.023 102.284 47.587 102.322 48.113 102.381 48.589 102.461 49.005 102.557 49.349 102.668 49.61 102.79 49.776 102.922 49.836 103.642 49.86"/><rect id="_tag_674_" width="1.264" height="7.048" x="112.376" y="24.644" fill="none" stroke="#000" stroke-width=".1"/><g id="_131625408"><rect id="_131390128" width="2.747" height="1.558" x="108.406" y="22.635" fill="none" stroke="#000" stroke-width=".1"/><polygon id="_131763840" fill="none" stroke="#000" stroke-width=".1" points="108.07 23.372 108.049 23.368 108.03 23.361 108.013 23.35 107.998 23.336 107.987 23.32 107.978 23.302 107.973 23.282 107.973 23.261 107.973 23.261 107.976 23.24 107.984 23.22 107.994 23.203 108.008 23.189 108.024 23.177 108.043 23.169 108.063 23.164 108.084 23.163 108.084 23.163 108.356 23.183 108.621 23.204 108.878 23.227 109.127 23.252 109.367 23.278 109.6 23.305 109.824 23.334 110.04 23.365 110.04 23.365 110.248 23.398 110.448 23.432 110.639 23.468 110.822 23.506 110.996 23.545 111.161 23.587 111.317 23.63 111.465 23.675 111.465 23.675 111.484 23.683 111.501 23.695 111.515 23.709 111.526 23.726 111.533 23.745 111.537 23.765 111.537 23.785 111.532 23.806 111.532 23.806 111.524 23.825 111.512 23.842 111.498 23.856 111.481 23.867 111.462 23.874 111.442 23.878 111.422 23.878 111.401 23.873 111.401 23.873 111.258 23.83 111.106 23.788 110.946 23.748 110.776 23.71 110.597 23.673 110.41 23.638 110.214 23.604 110.009 23.572 110.009 23.572 109.795 23.542 109.573 23.513 109.342 23.486 109.104 23.46 108.857 23.435 108.603 23.413 108.34 23.392 108.07 23.372"/><polygon id="_131625544" fill="none" stroke="#000" stroke-width=".1" points="108.07 22.822 108.049 22.818 108.03 22.811 108.013 22.8 107.998 22.786 107.987 22.77 107.978 22.752 107.973 22.732 107.973 22.71 107.973 22.71 107.976 22.69 107.984 22.67 107.994 22.653 108.008 22.639 108.024 22.627 108.043 22.619 108.063 22.614 108.084 22.613 108.084 22.613 108.356 22.633 108.621 22.654 108.878 22.677 109.127 22.702 109.367 22.728 109.6 22.755 109.824 22.784 110.04 22.815 110.04 22.815 110.248 22.848 110.448 22.882 110.639 22.918 110.822 22.956 110.996 22.995 111.161 23.037 111.317 23.08 111.465 23.124 111.465 23.124 111.484 23.133 111.501 23.145 111.515 23.159 111.526 23.176 111.533 23.195 111.537 23.215 111.537 23.235 111.532 23.256 111.532 23.256 111.524 23.275 111.512 23.292 111.498 23.306 111.481 23.317 111.462 23.324 111.442 23.328 111.422 23.328 111.401 23.323 111.401 23.323 111.258 23.28 111.106 23.238 110.946 23.198 110.776 23.16 110.597 23.123 110.41 23.088 110.214 23.054 110.009 23.022 110.009 23.022 109.795 22.992 109.573 22.963 109.342 22.936 109.104 22.91 108.857 22.885 108.603 22.863 108.34 22.842 108.07 22.822"/><polygon id="_131654360" fill="none" stroke="#000" stroke-width=".1" points="108.07 23.922 108.049 23.918 108.03 23.911 108.013 23.9 107.998 23.886 107.987 23.87 107.978 23.852 107.973 23.832 107.973 23.811 107.973 23.811 107.976 23.79 107.984 23.77 107.994 23.753 108.008 23.739 108.024 23.727 108.043 23.719 108.063 23.714 108.084 23.713 108.084 23.713 108.356 23.733 108.621 23.754 108.878 23.777 109.127 23.802 109.367 23.828 109.6 23.855 109.824 23.885 110.04 23.915 110.04 23.915 110.248 23.948 110.448 23.982 110.639 24.018 110.822 24.056 110.996 24.095 111.161 24.137 111.317 24.18 111.465 24.225 111.465 24.225 111.484 24.233 111.501 24.245 111.515 24.259 111.526 24.276 111.533 24.295 111.537 24.315 111.537 24.335 111.532 24.356 111.532 24.356 111.524 24.375 111.512 24.392 111.498 24.406 111.481 24.417 111.462 24.424 111.442 24.428 111.422 24.428 111.401 24.424 111.401 24.424 111.258 24.38 111.106 24.338 110.946 24.298 110.776 24.26 110.597 24.223 110.41 24.188 110.214 24.154 110.009 24.123 110.009 24.123 109.795 24.092 109.573 24.063 109.342 24.036 109.104 24.01 108.857 23.986 108.603 23.963 108.34 23.942 108.07 23.922"/><polygon id="_131625448" fill="none" stroke="#000" stroke-width=".1" points="111.775 20.904 109.607 20.904 109.607 21.526 109.281 20.905 107.784 20.904 107.784 22.635 111.775 22.635"/></g><g id="_131396792"><polygon id="_131398976" fill="none" stroke="#000" stroke-width=".1" points="104.909 24.186 112.042 23.899 112.143 23.9 112.223 23.906 112.285 23.921 112.329 23.948 112.36 23.99 112.379 24.051 112.388 24.135 112.389 24.243 112.279 32.539 110.921 32.966 104.909 32.606 104.909 24.186"/><polygon id="_131398184" fill="none" stroke="#000" stroke-width=".1" points="105.067 43.607 112.38 43.6 112.389 50.638 105.067 50.619"/><polygon id="_131397184" fill="none" stroke="#000" stroke-width=".1" points="106.543 31.183 107.118 30.845 107.669 30.604 108.204 30.459 108.732 30.411 109.26 30.459 109.795 30.604 110.346 30.845 110.921 31.183 110.921 43.637 110.347 43.906 109.795 44.098 109.257 44.212 108.727 44.249 108.198 44.207 107.662 44.086 107.113 43.886 106.543 43.606 106.543 31.183"/></g><circle id="_tag_675_" cx="39.502" cy="91.687" r="3.425" fill="none" stroke="#000" stroke-width=".1"/><line id="_tag_676_" x1="40.294" x2="39.414" y1="88.354" y2="95.03" fill="none" stroke="#000" stroke-width=".1"/><line id="_tag_677_" x1="39.386" x2="38.505" y1="88.272" y2="94.948" fill="none" stroke="#000" stroke-width=".1"/><polyline id="_new_639_1" fill="none" stroke="#000" stroke-width=".1" points="40.008 84.612 41.233 84.807 42.399 85.268 43.479 85.949 44.447 86.804 45.277 87.789 45.944 88.859 46.42 89.967 46.68 91.069"/><polyline id="_new_640_1" fill="none" stroke="#000" stroke-width=".1" points="38.34 86.191 39.603 86.205 40.822 86.508 41.958 87.066 42.972 87.846 43.825 88.813 44.479 89.935 44.893 91.179 45.03 92.509"/><polyline id="_new_641_1" fill="none" stroke="#000" stroke-width=".1" points="121.723 55.746 122.87 56.077 123.687 56.871 125.488 57.723 126.787 59.015 127.577 60.603 127.852 62.346 127.606 64.101 126.831 65.728 125.52 67.083 123.668 68.026 122.902 68.197 122.857 68.984"/><line id="_tag_678_" x1="113.726" x2="114.349" y1="32.526" y2="32.716" fill="none" stroke="#000" stroke-width=".1"/></g><circle id="center_00" cx="127.71" cy="33.661" r="5" fill="none" stroke="#000" stroke-width=".1"/></svg>