<svg xmlns="http://www.w3.org/2000/svg" version="1.0"><rect width="3.762" height="21.392" x="113.885" y="70.208" fill="none" stroke="#000" stroke-width=".1"/><polygon fill="none" stroke="#000" stroke-width=".1" points="106.865 68.645 106.865 68.646 106.935 68.89 107.059 69.104 107.062 68.924 107.73 69.465 108.688 69.767 109.821 69.755 110.811 69.433 111.455 68.883 111.625 68.251 111.637 69.384 111.6 69.691 111.452 69.957 110.738 70.496 109.984 70.656 109.017 70.696 107.823 70.485 107.15 70.075 106.931 69.748 106.853 69.365"/><polygon fill="none" stroke="#000" stroke-width=".1" points="109.293 67.173 109.272 67.168 109.251 67.162 109.23 67.157 109.209 67.151 109.188 67.145 109.167 67.14 109.146 67.134 109.125 67.128 108.891 67.156 108.689 67.238 108.616 67.384 108.745 67.704 107.903 67.976 107.35 68.188 106.869 68.466 107.049 67.791 107.694 67.241 108.672 66.962 109.805 66.95 110.805 67.263 111.432 67.793 110.926 67.657 110.409 67.563 109.551 67.559 109.519 67.511 109.487 67.463 109.454 67.414 109.422 67.366 109.39 67.318 109.358 67.27 109.326 67.222"/><polyline fill="none" stroke="#000" stroke-width=".1" points="107.062 68.924 107.543 68.646 107.614 68.615 107.685 68.583 107.755 68.551 107.826 68.519 107.897 68.487 107.967 68.456 108.038 68.424 108.108 68.392 108.938 68.163 109.17 68.812 109.243 68.877 109.298 68.901 109.369 68.911 109.608 68.862 109.847 68.814 109.901 68.783 109.912 68.74 109.924 68.698 109.776 68.071 110.602 68.022 111.119 68.115 111.625 68.251"/><polygon fill="none" stroke="#000" stroke-width=".1" points="107.062 68.924"/><line x1="111.429" x2="110.824" y1="67.973" y2="68.037" fill="none" stroke="#000" stroke-width=".1"/><line x1="107.852" x2="106.865" y1="68.504" y2="68.646" fill="none" stroke="#000" stroke-width=".1"/><polyline fill="none" stroke="#000" stroke-width=".1" points="109.792 68.825 109.744 68.695"/><polyline fill="none" stroke="#000" stroke-width=".1" points="109.763 68.204 109.551 68.237 109.326 67.725 109.253 67.66 109.116 67.668 108.854 67.734 108.744 67.784"/><line x1="108.736" x2="108.745" y1="68.218" y2="67.704" fill="none" stroke="#000" stroke-width=".1"/><line x1="109.552" x2="109.551" y1="67.559" y2="68.237" fill="none" stroke="#000" stroke-width=".1"/><line x1="109.775" x2="109.744" y1="68.071" y2="68.695" fill="none" stroke="#000" stroke-width=".1"/><line x1="106.865" x2="106.868" y1="68.646" y2="68.466" fill="none" stroke="#000" stroke-width=".1"/><polyline fill="none" stroke="#000" stroke-width=".1" points="111.429 67.973 111.533 68.091 111.583 68.24"/><polygon fill="none" stroke="#000" stroke-width=".1" points="111.429 67.973"/><line x1="111.432" x2="111.429" y1="67.793" y2="67.973" fill="none" stroke="#000" stroke-width=".1"/><polygon fill="none" stroke="#000" stroke-width=".1" points="107.137 81.097 107.148 81.055 107.163 80.833 107.22 80.623 107.257 80.576 108.011 81.377 108.238 81.655 108.691 81.821 109.177 81.862 109.644 81.806 110.06 81.601 110.468 81.313 110.535 81.192 110.601 80.86 110.995 80.058 111.313 80.185 111.35 80.718 111.309 81.042 111.275 81.152 110.884 81.727 110.473 82.122 109.572 82.359 108.805 82.371 108.268 82.227 107.503 81.872 107.207 81.32"/><polygon fill="none" stroke="#000" stroke-width=".1" points="110.677 79.896 110.564 80.301 110.557 80.336 110.235 80.664 109.819 80.868 109.341 80.966 108.886 80.979 108.434 80.813 108.066 80.616 107.967 80.483 107.921 80.236 107.519 79.583 107.224 79.765 107.21 79.819 107.19 79.892 107.144 80.061 107.141 80.24 107.17 80.429 107.231 80.58 107.309 80.788 107.405 80.943 107.55 81.073 107.739 81.214 107.927 81.354 108.168 81.464 108.421 81.532 108.674 81.6 108.98 81.637 109.256 81.621 109.531 81.604 109.818 81.545 110.074 81.434 110.33 81.322 110.555 81.156 110.78 80.991 110.963 80.814 111.116 80.584 111.225 80.342 111.282 80.132 111.35 79.879 111.353 79.699 111.325 79.465 111.299 79.341 111.279 79.301"/><polygon fill="none" stroke="#000" stroke-width=".1" points="107.232 78.952 107.138 79.101 107.135 79.159 107.126 79.287 107.165 79.478 107.216 79.628 107.266 79.776 107.358 79.937 107.493 80.109 107.639 80.238 107.827 80.379 108.015 80.52 108.31 80.599 108.563 80.667 108.816 80.735 109.091 80.718 109.367 80.702 109.653 80.643 109.941 80.585 110.143 80.504 110.41 80.349 110.624 80.226 110.796 80.091 110.937 79.903 111.077 79.715 111.165 79.558 111.263 79.359 111.309 79.19 111.34 79.073 111.345 79.005"/><polygon fill="none" stroke="#000" stroke-width=".1" points="105.917 77.01 106.796 76.985 107.187 76.367 107.843 75.775 108.58 75.385 109.46 75.306 110.345 75.543 111.182 76.129 111.802 77.018 112.117 78.368 111.977 79.731 111.525 80.74 110.79 81.626 110.053 82.016 109.235 82.203 108.496 82.094 107.741 81.711 107.033 80.979 106.473 79.699 106.407 79.275 105.92 79.235 105.908 81.806 105.897 83.023 105.81 83.216 105.814 84.036 105.917 86.828 106.187 88.811 107.146 89.198 107.467 89.273 107.641 89.32 111.64 89.399 111.725 89.422 111.809 89.444 111.882 89.509 111.912 89.563 111.929 91.69 112.01 91.892 111.999 91.935 112.016 93.385 112.013 93.565 112.021 93.703 112.09 93.797 112.252 93.855 113.702 93.838 115.11 93.809 117.591 93.716 117.631 93.673 117.638 93.647 117.649 93.271 117.653 92.414 117.646 91.599 117.351 91.519 117.014 91.429 116.438 91.049 116.046 90.491 115.921 89.78 115.918 72.792 115.873 72.392 115.795 71.901 115.756 71.71 115.605 71.263 115.37 70.793 115.07 70.396 114.662 70.061 114.275 69.821 113.834 69.613 113.359 69.53 113.033 69.503 112.915 69.502 111.608 69.552 111.592 69.553 111.591 69.597 112.139 69.7 111.926 69.823 111.489 69.932 110.863 70.08 110.12 70.152 109.252 70.19 108.341 70.216 107.411 70.147 106.672 70.039 106.588 70.017 106.585 69.906 106.923 69.706 106.385 69.726 106.238 69.777 106.13 69.839 105.948 70.016 105.914 70.143 105.913 73.54"/><polyline fill="none" stroke="#000" stroke-width=".1" points="117.68 68.747 117.352 68.794 116.979 69.01 116.115 69.865 115.677 70.207 114.84 70.207 115.37 70.793 115.605 71.263 115.776 71.805 115.917 72.792 116.051 73.641 116.418 74.463 116.967 75.107 117.313 75.335 117.482 75.38 117.662 75.383"/><polygon fill="none" stroke="#000" stroke-width=".1" points="117.68 68.747"/><rect width="1.957" height="3.956" x="84.094" y="103.826" fill="none" stroke="#000" stroke-width=".1"/><rect width=".628" height="5.727" x="83.461" y="104.334" fill="none" stroke="#000" stroke-width=".1"/><rect width=".463" height="3.829" x="82.95" y="105.733" fill="none" stroke="#000" stroke-width=".1"/><polygon fill="none" stroke="#000" stroke-width=".1" points="82.466 106.19 82.95 105.733 82.95 109.562 82.466 109.034"/><polygon fill="none" stroke="#000" stroke-width=".1" points="86.318 105.463 87.284 106.597 94.367 104.031 95.74 102.548 94.577 97.354 93.817 97.401 91.246 97.887 90.267 98.165 89.394 98.561 88.599 99.161 87.91 99.882 87.377 100.685 87.031 101.634 86.874 102.224 86.788 102.878 86.638 103.107 86.559 103.222 86.368 103.483 86.324 103.644 86.32 103.764"/><polygon fill="none" stroke="#000" stroke-width=".1" points="84.081 111.955 84.108 105.456 86.319 105.41 88.399 105.208 90.734 104.841 92.838 103.735 94.018 102.875 94.451 102.589 94.828 102.55 94.952 101.914 99.857 102.699 100.561 101.16 100.476 112.51 85.334 112.243"/><polygon fill="none" stroke="#000" stroke-width=".1" points="128.444 111.122 127.55 110.746 125.121 109.688 124.604 109.483 119.506 114.441 116.675 116.86 107.233 116.961 101.763 115.924 89.277 117.122 71.233 122.494 60.031 130.377 49.788 137.526 46.922 138.763 44.739 139.47 43.783 147.13 48.08 146.43 49.313 146.218 49.886 146.102 52.965 145.574 56.806 144.391 58.729 143.46 60.624 142.297 66.162 138.994 71.914 136.068 77.875 133.557 81.847 132.228 85.908 131.24 89.995 130.485 94.237 129.998 113.998 128.073 116.134 127.696 118.168 127.022 120.1 126.051 121.877 124.813 123.492 123.348 124.872 121.73 126.091 119.887 127.056 117.979 129.087 113.104 129.21 112.82 129.288 112.524 129.38 112.005 129.386 111.646 129.264 111.432"/><polyline fill="none" stroke="#000" stroke-width=".1" points="56.478 143.761 60.054 141.379 65.593 138.077 71.404 135.115 77.373 132.561 80.016 131.648 83.463 130.582 87.02 129.778 90.579 129.151 94.23 128.684 100.908 128.037 104.258 127.673 107.561 127.16 109.109 126.941 110.646 126.766 112.267 126.614 113.985 126.443 115.916 126.148 117.862 125.63 119.181 125.08 120.413 124.373 122.646 122.623 124.441 120.485 125.839 117.968 126.225 117.034 127.628 113.726"/><polygon fill="none" stroke="#000" stroke-width=".1" points="56.478 143.761"/><polyline fill="none" stroke="#000" stroke-width=".1" points="118.865 118.537 118.667 118.933 118.47 119.334 118.03 120.118 117.629 120.779 117.195 121.386 116.524 122.198 115.652 123.092 114.7 123.786 113.609 124.308 111.931 124.672 110.542 124.796 108.976 124.825 107.307 124.699 105.917 124.692 103.811 124.796 102.146 124.936 100.43 125.109 98.975 125.304 97.48 125.49 95.955 125.62 93.909 125.662 92.207 125.611"/><polyline fill="none" stroke="#000" stroke-width=".1" points="93.386 120.109 94.278 120.25 96.297 120.475 97.711 120.583 97.885 120.59 98.058 120.598 98.232 120.605 98.405 120.612 98.579 120.619 98.752 120.626 98.925 120.633 99.099 120.64 104.188 120.697 109.488 120.312 110.463 120.212 111.377 120.004 112.164 119.764 112.771 119.52 113.403 119.013 113.58 118.699"/><polygon fill="none" stroke="#000" stroke-width=".1" points="79.767 123.311 78.591 123.99 76.174 125.417 75.926 125.668 75.764 125.941 75.65 126.289 75.614 126.669 75.741 127.201 75.978 127.669 76.33 128.038 76.802 128.298 77.362 128.403 77.88 128.316 83.934 126.642 90.102 125.542 90.537 125.433 90.923 125.176 91.277 124.866 91.474 124.467 91.546 124.033 91.535 123.579 91.372 123.174 91.112 122.79 90.662 122.443 90.072 122.283 88.023 122.003 85.977 121.725 84.592 121.67 83.149 121.824 81.564 122.348 80.729 122.756"/><polygon fill="none" stroke="#000" stroke-width=".1" points="59.925 138.497 59.221 138.757 58.471 138.694 57.831 138.387 57.29 137.878 56.974 137.206 56.953 136.433 57.219 135.783 57.694 135.189 58.423 134.661 65.047 131.196 65.908 131.022 66.339 131.092 66.75 131.246 67.21 131.551 67.549 132.14 67.737 132.779 67.654 133.431 67.4 134.042 67.067 134.448 66.495 134.886"/><polygon fill="none" stroke="#000" stroke-width=".1" points="46.479 141.62 47.575 144.443 47.636 145.229 47.596 145.314 47.556 145.399 47.516 145.484 47.476 145.569 47.436 145.654 47.396 145.74 47.356 145.825 47.316 145.91 46.623 146.31 43.783 147.13 42.054 147.343 41.947 147.32 41.84 147.296 41.733 147.273 41.626 147.249 41.519 147.226 41.413 147.203 41.306 147.18 41.199 147.156 40.421 146.86 39.27 146.099 39.133 146 38.995 145.901 38.858 145.802 38.721 145.702 38.584 145.604 38.446 145.505 38.309 145.406 38.172 145.307 37.126 144.67 36.696 144.415 36.413 144.294 38.103 141.541 43.742 138.756 45.175 139.783 45.754 140.295"/><circle cx="42.489" cy="143.091" r="3.745" fill="none" stroke="#000" stroke-width=".1"/><polygon fill="none" stroke="#000" stroke-width=".1" points="41.918 143.466 40.269 143.209 40.291 142.805 40.391 142.424 42 142.495 42.293 140.901 42.651 140.91 43.042 140.967 42.961 142.616 44.607 142.878 44.59 143.28 44.488 143.659 42.88 143.589 42.588 145.182 42.228 145.175 41.838 145.116"/><polyline fill="none" stroke="#000" stroke-width=".1" points="47.636 145.228 47.907 146.068 48.081 146.431"/><polygon fill="none" stroke="#000" stroke-width=".1" points="47.636 145.228"/><polygon fill="none" stroke="#000" stroke-width=".1" points="120.858 106.838 121.225 105.141 119.179 104.246 118.12 105.571 117.747 105.766 117.338 105.717 116.139 105.29 114.995 104.846 113.817 104.35 112.768 103.709 111.89 103.096 111.362 102.382 111.014 101.836 110.552 100.853 110.321 100.204 110.02 99.806 109.427 99.331 108.858 99.088 108.438 98.975 95.875 98.973 95.878 99.986 95.904 100.897 95.96 101.363 96.089 101.716 96.815 102.721 96.839 102.964 96.943 104.384 96.763 105.275 95.821 106.928 95.433 107.367 94.668 108.021 93.665 108.563 92.076 109.265 90.245 109.859 88.212 110.536 83.624 112.148 79.918 113.503 73.66 115.934 67.158 118.615 61.471 121.292 56.789 123.921 51.791 127.051 47.778 129.721 45.816 131.139 43.091 133.156 38.624 136.638 35.439 139.372 32.678 142.093 32.442 142.584 32.751 142.948 36.165 144.203 39.601 142.677 45.242 138.617 46.248 137.942 47.918 136.947 49.959 135.73 51.766 134.725 54.703 133.028 57.492 131.564 61.476 129.515 64.711 127.937 68.166 126.437 70.861 125.347 73.677 124.297 77.276 123.002 80.723 121.941 84.721 120.847 88.047 120.067 90.365 119.667 93.78 119.077 98.362 118.499 98.362 118.499 99.698 118.405 102.781 118.194 105.028 118.074 109.198 118.018 111.401 118.068 113.589 118.158 115.725 118.278 115.93 118.272 116.136 118.264 116.341 118.258 116.545 118.251 116.751 118.244 116.956 118.237 117.161 118.23 117.366 118.224 118.781 117.836 118.91 117.767 119.085 117.678 119.291 117.576 119.513 117.468 119.735 117.36 119.941 117.259 120.117 117.17 120.245 117.1 121.571 115.941 124.637 112.178 124.952 111.676 124.967 111.601 124.981 111.527 124.996 111.451 125.01 111.376 125.025 111.301 125.039 111.226 125.054 111.151 125.068 111.076 125.004 110.47 124.792 109.916 124.382 109.264 124.01 108.62 123.617 108.065 123.344 107.808 122.849 107.545 121.724 107.137"/><polygon fill="none" stroke="#000" stroke-width=".1" points="116.689 111.959 116.66 111.905 116.776 112.658 116.697 113.45 116.331 114.48 115.726 115.219 114.913 115.728 113.938 115.827 108.184 115.547 107.455 115.397 106.785 115.037 106.254 114.488 105.937 113.814 105.857 113.49 105.781 113.051 105.808 109.581 105.883 108.967 106.084 108.388 106.452 107.854 106.926 107.44 107.48 107.229 108.013 107.1 108.591 107.12 109.172 107.319 115.033 109.976 115.497 110.26 116.264 111.029"/><polygon fill="none" stroke="#000" stroke-width=".1" points="110.308 109.009 110.068 108.9 109.658 108.745 109.17 108.705 108.417 108.819 107.827 109.157 107.386 109.624 107.131 110.237 107.123 110.268 107.115 110.3 107.106 110.331 107.098 110.363 107.089 110.394 107.081 110.426 107.073 110.457 107.064 110.489 107.039 110.753 106.972 112.678 107.008 113.228 107.188 113.729 107.477 114.169 107.798 114.481 108.428 114.831 109.03 114.945 113.42 115.086 114.468 115.053 114.765 114.95 115.098 114.723 115.453 114.413 115.683 114.065 115.879 113.669 115.951 113.236 115.91 112.547 115.635 111.886 115.148 111.347 114.832 111.173 110.308 109.009"/><polyline fill="none" stroke="#000" stroke-width=".1" points="109.657 100.658 109.923 101.181 110.441 102.45 110.986 103.609 112.045 104.552 113.25 105.282 114.5 105.844 115.772 106.32"/><polyline fill="none" stroke="#000" stroke-width=".1" points="115.772 106.32 117.643 107.094 118.651 107.545 119.671 107.954 121.342 108.628 122.615 109.106"/><polygon fill="none" stroke="#000" stroke-width=".1" points="95.598 106.916 96.553 106.898 97.206 105.81 97.605 104.154 97.514 103.138 95.577 103.296 95.668 104.132 95.361 105.45 94.611 106.558"/><polyline fill="none" stroke="#000" stroke-width=".1" points="86.915 111 87.811 111.015 91.36 110.927 93.27 110.717 95.113 109.902 96.735 108.573 97.396 107.623 98.016 106.411 98.417 105.005 98.558 103.643 98.54 102.688 98.443 102.212 98.318 101.997 98.172 101.868 95.927 100.813"/><polygon fill="none" stroke="#000" stroke-width=".1" points="86.915 111"/><polygon fill="none" stroke="#000" stroke-width=".1" points="96.722 102.562 96.391 102.112 96.089 101.716 95.96 101.363 95.904 100.897 95.878 99.987 95.881 93.752 95.88 90.727 93.942 90.701 93.96 100.735 93.961 101.233 94.088 101.766 94.366 102.247 94.828 102.55"/><rect width=".576" height="5.496" x="93.376" y="90.953" fill="none" stroke="#000" stroke-width=".1"/><rect width=".472" height="3.786" x="92.868" y="92.355" fill="none" stroke="#000" stroke-width=".1"/><polygon fill="none" stroke="#000" stroke-width=".1" points="92.381 92.816 92.868 92.355 92.84 96.144 92.386 95.66"/><polygon fill="none" stroke="#000" stroke-width=".1" points="109.427 99.331 110.02 99.806 110.21 100.057 110.453 100.057 110.453 90.732 108.526 90.732 108.526 98.999 108.858 99.088"/><rect width=".482" height="5.777" x="110.443" y="91.337" fill="none" stroke="#000" stroke-width=".1"/><polygon fill="none" stroke="#000" stroke-width=".1" points="94.94 63.593 95.241 63.312 95.414 63.177 95.603 63.138 95.753 63.087 95.966 63.054 98.209 63.023 98.749 63.034 99.109 63.041 99.404 63.119 99.698 63.196 99.984 63.319 100.412 63.572 100.778 63.893 101.35 64.454 101.94 65.111 102.49 65.755 103.029 66.442 103.473 67.148 103.915 67.855 104.273 68.538 104.647 69.338 104.96 69.852 105.353 70.158 105.352 78.315 105.356 80.664 104.857 80.85 104.394 79.154 103.932 77.466 103.772 76.866 103.658 76.052 103.679 75.719 103.84 74.023 103.679 75.719 103.658 76.052 103.772 76.866 103.93 77.458 104.857 80.85 104.974 81.422 105.271 82.495 105.584 83.527 106.024 84.912 106.466 86.291 106.836 87.432 107.209 88.572 107.52 89.602 107.78 90.552 107.978 90.586 108.17 90.6 108.232 90.654 108.224 97.924 105.648 98.079 103.361 98.187 101.255 98.168 98.665 98.021 95.884 97.774 95.886 94.569 95.88 90.727 96.015 90.717 96.039 90.704 96.063 90.69 96.087 90.677 96.111 90.663 96.134 90.65 96.157 90.636 96.18 90.623 96.203 90.609 96.227 89.6 96.234 88.562 96.299 87.133 96.367 85.707 96.431 84.456 96.453 83.201 96.483 82.078 96.472 80.947 96.425 79.938 95.901 79.707 95.9 71.291 95.605 71.292 95.225 69.802"/><line x1="106.838" x2="97.231" y1="94.841" y2="94.758" fill="none" stroke="#000" stroke-width=".1"/><polyline fill="none" stroke="#000" stroke-width=".1" points="97.079 92.057 97.042 90.824 97.107 87.667 97.218 84.218 97.236 80.789 96.997 77.471 96.429 74.201"/><polygon fill="none" stroke="#000" stroke-width=".1" points="97.079 92.057"/><polyline fill="none" stroke="#000" stroke-width=".1" points="104.784 70.955 103.817 70.811 100.242 70.807 97.658 70.885 96.416 71.075 97.142 70.748 97.078 69.675 96.983 67.342 96.493 65.116 96.049 63.783 95.786 63.413"/><polygon fill="none" stroke="#000" stroke-width=".1" points="104.784 70.955"/><polygon fill="none" stroke="#000" stroke-width=".1" points="92.969 64.638 92.794 65.768 92.829 69.222 93.017 72.367 93.412 73.23 93.689 73.496 93.948 73.642 94.912 73.506 95.337 73.05 95.575 72.499 95.74 71.436 95.835 70.785 95.888 69.991 95.94 68.785 95.83 67.174 95.686 65.69 95.421 64.489 95.085 63.721 94.74 63.493 93.918 63.479 93.661 63.474 93.554 63.536 93.377 63.701 93.172 64.041"/><polyline fill="none" stroke="#000" stroke-width=".1" points="93.661 63.474 93.86 63.573 94.191 64.023 94.462 64.864 94.655 66 94.79 67.347 94.849 68.808 94.845 69.665 94.799 70.512"/><polygon fill="none" stroke="#000" stroke-width=".1" points="93.661 63.474"/><polygon fill="none" stroke="#000" stroke-width=".1" points="94.027 72.079 93.884 72.645 93.584 72.946 93.254 73.057 92.282 73.067 92.034 73.067 91.104 72.999 90.197 72.845 89.637 72.74 89.079 72.635 88.91 72.59 88.783 72.556 88.595 72.415 88.45 72.286 88.303 72.156 88.211 71.996 88.088 71.782 88.007 71.58 87.906 71.282 87.805 70.984 87.758 70.654 87.668 70.314 87.621 69.986 87.585 69.614 87.549 69.243 87.567 68.841 87.531 68.47 87.548 68.069 87.566 67.666 87.572 67.307 87.632 66.916 87.68 66.568 87.728 66.219 87.807 65.924 87.841 65.798 87.887 65.629 87.986 65.43 88.084 65.231 88.214 65.085 88.301 64.927 88.419 64.823 88.591 64.689 88.794 64.608 88.985 64.569 89.134 64.518 89.336 64.437 90.197 64.262 91.046 64.128 91.937 64.006 92.848 63.979 93.07 63.993 93.399 64.146 93.796 64.821 94.026 65.65 94.186 66.733 94.291 68.026 94.312 69.296 94.225 70.604"/><polygon fill="none" stroke="#000" stroke-width=".1" points="87.584 68.439 87.645 67.371 87.787 66.506 87.988 65.927 88.201 65.804 88.451 66.052 88.672 66.744 88.783 67.677 88.849 68.779 88.788 69.847 88.646 70.712 88.445 71.291 88.232 71.414 87.982 71.166 87.803 70.486 87.65 69.541"/><polyline fill="none" stroke="#000" stroke-width=".1" points="93.461 64.273 93.689 64.882 93.935 65.987 94.124 67.303 94.172 68.807"/><polyline fill="none" stroke="#000" stroke-width=".1" points="94.11 70.552 94.156 69.707 94.172 68.807"/><polygon fill="none" stroke="#000" stroke-width=".1" points="88.849 68.779 88.814 67.73 88.672 66.744 88.493 66.063 88.277 65.689 88.033 65.759 87.835 66.157 87.674 66.927 87.594 67.9 87.575 68.979 87.663 69.997 87.839 70.857 88.052 71.411 88.282 71.563 88.529 71.314 88.688 70.724 88.83 69.858"/><polygon fill="none" stroke="#000" stroke-width=".1" points="87.584 68.439 87.645 67.371 87.787 66.506 87.988 65.927 88.201 65.804 88.451 66.052 88.672 66.744 88.783 67.677 88.849 68.779 88.788 69.847 88.646 70.712 88.445 71.291 88.232 71.414 87.982 71.166 87.803 70.486 87.65 69.541"/><line x1="87.677" x2="88.852" y1="68.6" y2="68.599" fill="none" stroke="#000" stroke-width=".1"/><rect width=".565" height="8.572" x="95.335" y="71.124" fill="none" stroke="#000" stroke-width=".1"/><polygon fill="none" stroke="#000" stroke-width=".1" points="95.447 83.245 95.579 83.596 95.943 83.92 96.342 84.118 96.436 84.172 96.334 86.431 96.072 86.304 95.83 86.194 95.411 85.901 95.035 85.62 93.691 84.4 92.771 83.114 92.466 82.4 92.245 81.708 92.165 80.828 92.168 72.065 92.194 71.8 92.304 71.559 92.457 71.329 92.651 71.109 93.1 70.779 93.368 70.624 93.624 70.512 94.481 70.474 95.206 70.466 95.329 70.575 95.335 70.826 95.332 81.317 95.401 81.561 95.432 81.615 95.406 82.557"/><polyline fill="none" stroke="#000" stroke-width=".1" points="88.51 66.236 87.951 66.234 88.176 67.243 88.015 68.013 87.677 68.6 87.935 68.986 88.206 69.826 88.129 70.619 88.027 70.998 88.554 70.979"/><polygon fill="none" stroke="#000" stroke-width=".1" points="107.1 76.524 106.874 77.367 106.838 78.171 107.121 78.97 107.755 79.637 108.744 79.993 109.781 80 110.741 79.625 111.407 78.991 111.622 78.19 111.615 77.375 111.355 76.492 110.668 75.856 109.625 75.531 108.524 75.596 107.542 76.055 107.55 76.194 107.367 76.37 107.192 76.539"/><polyline fill="none" stroke="#000" stroke-width=".1" points="109.845 76.9 109.836 77.439 110.538 77.854 111.397 78.355 111.389 78.218 110.963 77.787 110.513 77.44 109.845 76.9 110.33 76.442 110.341 76.4 110.331 76.348 110.279 76.293 110.08 76.194 109.88 76.096 109.776 76.078 109.7 76.093 109.132 76.528 108.438 76.251 107.975 76.127 107.7 76.082 107.542 76.055 107.55 76.194 108.409 76.695 109.165 77.079 109.424 76.787 109.683 76.495 109.778 76.475 109.905 76.509 110.127 76.634"/><polyline fill="none" stroke="#000" stroke-width=".1" points="111.397 78.355 111.191 78.617 110.955 78.824 110.947 78.686"/><line x1="109.165" x2="109.132" y1="77.079" y2="76.528" fill="none" stroke="#000" stroke-width=".1"/><polygon fill="none" stroke="#000" stroke-width=".1" points="108.219 77.909 108.158 77.855 108.157 77.802 108.169 77.76 108.18 77.718 108.667 77.08 107.985 76.762 107.532 76.595 107.192 76.539 107.1 76.524 106.874 77.367 106.949 77.601 107.145 78.208 107.863 78.897 108.863 79.211 109.965 79.146 110.947 78.686 110.509 78.298 110.071 77.909 109.339 77.442 108.809 78.067 108.768 78.108 108.702 78.129 108.618 78.107 108.418 78.008"/><polyline fill="none" stroke="#000" stroke-width=".1" points="108.667 77.08 108.669 77.578 108.486 77.755 108.344 77.971"/><polygon fill="none" stroke="#000" stroke-width=".1" points="108.667 77.08"/><polygon fill="none" stroke="#000" stroke-width=".1" points="105.917 77.01 105.92 79.235 106.407 79.275 106.431 78.513 105.919 78.537 106.431 78.513 106.76 77.788 105.918 77.763 106.76 77.788 106.796 76.985"/><polyline fill="none" stroke="#000" stroke-width=".1" points="105.917 77.172 105.912 71.127 105.352 71.127 105.354 79.712 105.919 79.708 105.919 79.075 105.918 78.786 105.918 78.615"/><polyline fill="none" stroke="#000" stroke-width=".1" points="105.918 78.615 105.917 77.172"/><polygon fill="none" stroke="#000" stroke-width=".1" points="117.638 93.647 120.932 93.647 121.99 93.42 122.238 92.405 122.238 70.056 121.866 69.149 121.004 68.826 117.638 68.751"/><polygon fill="none" stroke="#000" stroke-width=".1" points="109.769 109.747 109.43 109.588 109.123 109.55 108.705 109.638 108.325 109.833 108.041 110.182 107.892 110.689 107.801 113.127 107.902 113.424 108.025 113.638 108.316 113.896 108.631 114.073 109.023 114.13 113.719 114.307 114.144 114.239 114.549 114.079 114.742 113.861 114.884 113.674 114.993 113.43 115.073 113.136 115.047 112.902 115.015 112.67 114.905 112.414 114.723 112.162 114.322 111.895"/><rect width=".739" height="8.99" x="125.363" y="76.551" fill="none" stroke="#000" stroke-width=".1"/><polygon fill="none" stroke="#000" stroke-width=".1" points="126.142 76.441 128.374 76.541 130.443 76.916 131.102 77.32 131.392 78.256 131.366 83.829 131.082 84.632 130.428 85.046 128.39 85.402 126.142 85.655"/><polygon fill="none" stroke="#000" stroke-width=".1" points="66.554 132.143 66.782 132.474 66.9 132.868 66.885 133.273 66.698 133.627 66.62 133.743 66.545 133.857 66.321 134.024 65.475 134.503 64.629 134.981 63.78 135.457 62.932 135.931 62.081 136.402 61.23 136.872 60.377 137.339 59.524 137.803 59.13 137.922 58.688 137.892 58.276 137.737 57.995 137.435 57.833 137.029 57.819 136.576 57.933 136.152 58.185 135.817 58.477 135.601 58.92 135.335 65.031 132.096 65.423 131.923 65.68 131.855 66.039 131.868 66.324 131.947"/><polygon fill="none" stroke="#000" stroke-width=".1" points="81.152 123.366 82.253 122.802 83.423 122.486 84.642 122.315 85.848 122.368 89.987 122.938 90.274 123.057 90.533 123.264 90.687 123.529 90.746 123.816 90.697 124.166 90.533 124.44 90.256 124.637 89.969 124.695 83.734 125.867 77.641 127.529 77.313 127.576 76.975 127.487 76.713 127.28 76.55 127.053 76.459 126.715 76.496 126.407 76.66 126.136 76.897 125.93"/><polygon fill="none" stroke="#000" stroke-width=".1" points="121.087 66.236 121.941 66.163 122.88 66.163 123.635 66.507 123.878 67.302 123.878 70.563 123.631 70.772 123.374 71.585 123.378 72.193 123.378 80.933 123.378 89.673 123.374 90.281 123.631 91.094 123.878 91.303 123.878 94.564 123.635 95.359 122.88 95.703 121.941 95.703 121.087 95.63 118.178 94.178 118.178 80.933 118.178 67.688"/><polyline fill="none" stroke="#000" stroke-width=".1" points="121.859 67.659 120.568 68.698 119.892 69.988 119.646 71.341 119.646 80.933 119.646 90.525 119.892 91.878 120.568 93.168 121.859 94.207"/><polygon fill="none" stroke="#000" stroke-width=".1" points="125.363 73.79 123.878 73.79 121.99 77.269 121.978 84.719 123.878 88.076 125.363 88.076"/><polyline fill="none" stroke="#000" stroke-width=".1" points="125.364 76.141 124.309 77.212 123.87 78.179 123.672 78.89 123.715 82.79 123.857 83.777 124.33 84.716 125.012 85.536 125.335 85.843"/><polygon fill="none" stroke="#000" stroke-width=".1" points="125.364 76.141"/><polyline fill="none" stroke="#000" stroke-width=".1" points="121.99 77.269 122.952 77.888 123.522 78.388 123.672 78.89 123.715 82.79 123.534 83.466 122.961 84.081 121.979 84.719"/><polygon fill="none" stroke="#000" stroke-width=".1" points="121.99 77.269"/><circle id="center_00" cx="122.238" cy="81.23" r="10" fill="none" stroke="#000" stroke-width=".1"/></svg>
