<svg xmlns="http://www.w3.org/2000/svg" width="297mm" height="210mm" viewBox="0 0 297 210" xml:space="preserve" style="shape-rendering:geometricPrecision;text-rendering:geometricPrecision;image-rendering:optimizeQuality;fill-rule:evenodd;clip-rule:evenodd"><defs><style type="text/css">.str0,.str1{stroke-width:.0762}.str1{stroke:#1f1a17}.str0{stroke:#da2725}.fil0{fill:none}</style></defs><g id="Ebene_x0020_1"><polygon id="_143658512" points="98.588 72.943 100.333 73.884 102.452 73.394 103.711 73.049 105.084 72.487 106.275 71.82 107.175 71.182 108.394 70.082 109.49 68.763 110.32 67.415 110.962 65.962 111.304 64.84 111.556 63.511 111.653 62 111.599 60.875 111.421 59.677 111.276 58.532 110.244 53.843 109.969 51.815 109.969 49.275 110.5 42 89.5 42 90 49.275 90 51.815 89.73 53.896 88.98 57.64 88.651 59.348 88.41 60.78 88.347 62 88.435 63.438 88.647 64.639 89.162 66.287 89.593 67.266 90.932 68.21 96.16 59.654 96.743 58.894 97.436 58.3 98.312 57.828 99.242 57.565 100.437 57.52 101.491 57.753 102.346 58.16 103.139 58.774 103.695 59.429 104.204 60.394 104.457 61.382 104.495 62.224 104.397 62.964 104.164 63.709 103.84 64.346" class="fil0 str0"/><line id="_142474968" x1="109.969" x2="90" y1="49.275" y2="49.275" class="fil0 str1"/><polyline id="_140862664" points="90 48.309 90.075 47.663 90.32 46.99 90.768 46.294 91.478 45.569 92.483 44.858 93.646 44.268 94.962 43.788 96.532 43.399 98.285 43.154 99.988 43.078 101.693 43.154 103.579 43.426 105.64 43.995 107.6 44.922 108.931 45.976 109.586 46.856 109.887 47.603 109.977 48.309" class="fil0 str1"/><polyline id="_141244456" points="88.651 59.348 89.085 57.913 89.628 56.685 90.219 55.664 90.828 54.813 91.698 53.824 92.778 52.856 93.913 52.062 95.172 51.392 96.83 50.784 98.283 50.473 100 50.347 101.088 50.398 102.114 50.539 103.129 50.772 104.27 51.155 105.572 51.764 106.471 52.308 107.663 53.222 108.534 54.066 109.29 54.965 109.808 55.706 110.572 57.093 111.102 58.45 111.421 59.677" class="fil0 str0"/><circle id="center_00" cx="100" cy="62" r="4.5"/></g></svg>