<svg xmlns="http://www.w3.org/2000/svg" width="297mm" height="210mm" viewBox="0 0 297 210"><polygon id="polygon4" fill="none" stroke="#000" stroke-width=".1" points="-22.139 30.488 -22.144 .854 22.856 .844 23.659 3.096 24.153 3.876 24.156 21.654 23.616 22.399 22.934 22.638 21.806 22.638 22.848 37.007 -15.41 80.671"/><polygon id="polygon6" fill="none" stroke="#000" stroke-width=".1" points="14.774 0 -14.774 0 -15.043 .849 15.257 .848"/><polygon id="center_00" cx="0" cy="0" fill="none" stroke="#000" stroke-width=".1" points="3.436 0 3.418 .359 3.361 .714 3.268 1.062 3.139 1.398 2.976 1.718 2.78 2.02 2.554 2.299 2.299 2.554 2.02 2.78 1.718 2.976 1.398 3.139 1.062 3.268 .714 3.361 .359 3.418 0 3.436 -.359 3.418 -.714 3.361 -1.062 3.268 -1.398 3.139 -1.718 2.976 -2.02 2.78 -2.299 2.554 -2.554 2.299 -2.78 2.02 -2.976 1.718 -3.139 1.398 -3.268 1.062 -3.361 .714 -3.418 .359 -3.436 0 -3.418 -.359 -3.361 -.714 -3.268 -1.062 -3.139 -1.398 -2.976 -1.718 -2.78 -2.02 -2.554 -2.299 -2.299 -2.554 -2.02 -2.78 -1.718 -2.976 -1.398 -3.139 -1.062 -3.268 -.714 -3.361 -.359 -3.418 0 -3.436 .359 -3.418 .714 -3.361 1.062 -3.268 1.398 -3.139 1.718 -2.976 2.02 -2.78 2.299 -2.554 2.554 -2.299 2.78 -2.02 2.976 -1.718 3.139 -1.398 3.268 -1.062 3.361 -.714 3.418 -.359"/><polyline id="path2996_1" fill="none" stroke="#000" stroke-width=".1" points="21.805 22.632 21.531 18.96 21.531 6.675" style="fill:none;stroke:#000;stroke-width:1px;stroke-linecap:butt;stroke-linejoin:miter;stroke-opacity:1"/></svg>