<svg xmlns="http://www.w3.org/2000/svg" width="297mm" height="210mm" viewBox="0 0 297 210"><g id="_tag_12_"><polygon id="center_00" cx="147.867" cy="105" fill="none" stroke="#000" stroke-width=".1" points="159.788 105 159.723 106.246 159.528 107.479 159.205 108.684 158.758 109.849 158.191 110.961 157.511 112.007 156.726 112.977 155.844 113.859 154.874 114.644 153.828 115.324 152.716 115.891 151.551 116.338 150.346 116.661 149.113 116.856 147.867 116.921 146.621 116.856 145.388 116.661 144.183 116.338 143.018 115.891 141.906 115.324 140.86 114.644 139.89 113.859 139.008 112.977 138.223 112.007 137.543 110.961 136.976 109.849 136.529 108.684 136.206 107.479 136.011 106.246 135.946 105 136.011 103.754 136.206 102.521 136.529 101.316 136.976 100.151 137.543 99.039 138.223 97.993 139.008 97.023 139.89 96.141 140.86 95.356 141.906 94.676 143.018 94.109 144.183 93.662 145.388 93.339 146.621 93.144 147.867 93.079 149.113 93.144 150.346 93.339 151.551 93.662 152.716 94.109 153.828 94.676 154.874 95.356 155.844 96.141 156.726 97.023 157.511 97.993 158.191 99.039 158.758 100.151 159.205 101.316 159.528 102.521 159.723 103.754"/><g id="_tag_13_"><polygon id="_156110960" cx="111.688" cy="97.528" fill="none" stroke="#000" stroke-width=".1" points="113.506 97.528 113.496 97.718 113.466 97.906 113.417 98.09 113.349 98.267 113.262 98.437 113.159 98.596 113.039 98.744 112.904 98.879 112.756 98.999 112.597 99.102 112.427 99.189 112.25 99.257 112.066 99.306 111.878 99.336 111.688 99.346 111.498 99.336 111.31 99.306 111.126 99.257 110.949 99.189 110.779 99.102 110.62 98.999 110.472 98.879 110.337 98.744 110.217 98.596 110.114 98.437 110.027 98.267 109.959 98.09 109.91 97.906 109.88 97.718 109.87 97.528 109.88 97.338 109.91 97.15 109.959 96.966 110.027 96.789 110.114 96.619 110.217 96.46 110.337 96.312 110.472 96.177 110.62 96.058 110.779 95.954 110.949 95.868 111.126 95.799 111.31 95.75 111.498 95.72 111.688 95.71 111.878 95.72 112.066 95.75 112.25 95.799 112.427 95.868 112.597 95.954 112.756 96.058 112.904 96.177 113.039 96.312 113.159 96.46 113.262 96.619 113.349 96.789 113.417 96.966 113.466 97.15 113.496 97.338"/><polygon id="polygon12" fill="none" stroke="#000" stroke-width=".1" points="162.179 101.325 162.179 113.281 164.602 113.281 164.602 104.79"/><polygon id="polygon12_0_1" fill="none" stroke="#000" stroke-width=".1" points="144.002 113.281 144.002 110.857 142.535 110.857 140.702 110.857 138.624 110.857 136.425 110.857 134.226 110.857 132.149 110.857 130.316 110.857 128.849 110.857 124.201 106.209 126.901 103.501 129.057 101.338 129.057 99.952 127.018 99.953 127.018 99.953 121.754 105.232 118.151 108.842 118.151 96.316 115.728 96.316 115.728 110.857 115.727 110.858 112.9 110.858 112.9 106.617 112.9 106.616 112.9 100.356 110.477 100.356 110.477 106.616 110.477 106.616 110.477 106.617 110.381 107.456 110.109 108.239 109.684 108.951 109.13 109.573 108.468 110.091 107.722 110.488 106.915 110.748 106.07 110.855 105.723 110.855 106.061 110.408 106.362 109.933 106.622 109.432 106.841 108.908 107.014 108.361 107.141 107.796 107.219 107.213 107.245 106.616 107.245 106.616 107.11 105.273 106.721 104.022 106.107 102.89 105.293 101.904 104.306 101.09 103.174 100.476 101.923 100.087 100.58 99.952 100.58 99.952 99.983 99.978 99.4 100.056 98.834 100.183 98.288 100.357 97.763 100.575 97.262 100.836 96.786 101.137 96.339 101.476 96.335 96.316 93.911 96.316 93.916 106.616 93.916 108.434 96.339 108.434 96.339 106.616 96.425 105.762 96.673 104.966 97.064 104.245 97.582 103.618 98.209 103.1 98.93 102.709 99.726 102.461 100.58 102.375 100.58 102.375 101.435 102.461 102.231 102.709 102.951 103.1 103.579 103.618 104.097 104.245 104.488 104.966 104.735 105.762 104.822 106.616 104.822 106.616 104.738 107.456 104.5 108.239 104.122 108.95 103.622 109.572 103.014 110.09 102.315 110.487 101.542 110.748 100.71 110.855 98.758 110.855 98.758 110.857 90.281 110.857 90.276 113.279 92.234 113.279 94.193 113.279 96.151 113.28 98.11 113.28 100.068 113.28 102.027 113.28 103.985 113.28 105.944 113.281 105.944 113.281 106.554 113.255 107.17 113.177 107.782 113.05 108.382 112.876 108.961 112.657 109.509 112.396 110.017 112.095 110.477 111.757 110.477 113.281 115.724 113.281 115.728 113.281 117.03 113.281 117.03 113.281 117.144 113.281 122.49 107.926 122.49 107.926 127.845 113.281 144.002 113.281" class="fil1 str1"/><polygon id="polygon12_1_1" fill="none" stroke="#000" stroke-width=".1" points="154.706 113.281 154.706 113.281 155.805 113.169 156.829 112.847 157.755 112.339 158.562 111.669 159.228 110.86 159.731 109.934 160.049 108.916 160.16 107.829 160.16 107.829 160.033 106.747 159.677 105.741 159.132 104.832 158.435 104.037 157.625 103.376 156.74 102.867 155.819 102.529 154.901 102.382 154.903 102.376 151.078 102.376 151.078 102.371 150.733 102.315 150.413 102.197 150.125 102.024 149.875 101.802 149.669 101.538 149.514 101.239 149.416 100.909 149.382 100.558 149.382 100.558 149.416 100.206 149.514 99.877 149.669 99.577 149.875 99.313 150.125 99.091 150.413 98.918 150.733 98.8 151.078 98.744 151.078 98.741 151.199 98.741 163.329 98.741 164.602 100.561 164.602 100.551 165.13 101.306 165.658 102.062 166.186 102.817 166.715 103.573 167.243 104.327 167.771 105.082 168.297 105.835 168.822 106.587 168.854 106.632 169.367 105.897 169.881 105.161 170.394 104.426 170.908 103.69 171.421 102.955 171.934 102.219 172.448 101.484 172.961 100.748 173.099 100.551 173.099 113.281 175.522 113.282 175.522 113.281 181.567 113.282 181.567 111.568 181.567 110.025 181.567 108.596 181.567 107.223 181.567 105.85 181.567 104.421 181.567 102.878 181.567 101.164 181.567 101.164 179.144 101.164 179.144 110.858 175.522 110.858 175.524 109.04 175.526 107.222 175.527 105.405 175.527 103.587 175.526 101.769 175.522 99.952 175.517 98.134 175.508 96.317 173.099 96.317 168.844 102.376 168.489 101.869 168.134 101.362 167.78 100.855 167.425 100.348 167.071 99.841 166.716 99.334 166.362 98.827 166.008 98.32 166.005 98.321 164.602 96.317 163.391 96.317 163.391 96.317 151.078 96.316 151.078 96.317 151.07 96.317 150.216 96.403 149.42 96.65 148.7 97.041 148.072 97.559 147.554 98.187 147.163 98.907 146.916 99.703 146.83 100.558 146.83 100.558 146.916 101.412 147.163 102.209 147.554 102.929 148.072 103.557 148.7 104.075 149.42 104.466 150.216 104.713 151.07 104.799 154.738 104.799 154.738 104.799 155.343 104.866 155.906 105.046 156.415 105.327 156.859 105.697 157.224 106.144 157.5 106.657 157.675 107.222 157.736 107.829 157.736 107.829 157.675 108.435 157.5 109.001 157.224 109.513 156.859 109.96 156.415 110.33 155.906 110.611 155.343 110.791 154.738 110.858 154.738 110.858 154.72 110.858 154.707 110.858 154.706 110.858 154.694 110.858 136.934 110.858 136.079 110.771 135.283 110.524 134.563 110.133 133.935 109.615 133.417 108.988 133.026 108.267 132.779 107.471 132.693 106.617 132.693 106.617 132.779 105.762 133.026 104.966 133.417 104.246 133.935 103.618 134.563 103.1 135.283 102.709 136.079 102.462 136.934 102.376 136.934 102.376 137.636 102.434 138.302 102.602 138.921 102.87 139.485 103.229 139.983 103.67 140.407 104.183 140.747 104.76 140.994 105.39 135.139 105.39 135.139 107.81 143.598 107.81 143.598 106.617 143.462 105.274 143.074 104.023 142.46 102.891 141.646 101.905 140.659 101.091 139.527 100.476 138.277 100.088 136.934 99.952 136.934 99.952 135.591 100.088 134.34 100.476 133.208 101.091 132.221 101.905 131.407 102.891 130.793 104.023 130.404 105.274 130.269 106.617 130.269 106.617 130.404 107.96 130.793 109.211 131.407 110.343 132.221 111.329 133.208 112.143 134.34 112.757 135.591 113.146 136.934 113.281 136.934 113.281 154.706 113.281" class="fil2 str1"/><polygon id="polygon12_17_1" fill="none" stroke="#000" stroke-width=".1" points="204.981 96.317 202.571 96.317 202.571 102.375 194.897 102.375 194.897 101.618 194.897 100.861 194.897 100.103 194.897 99.346 194.897 98.589 194.897 97.831 194.897 97.074 194.896 96.317 192.473 96.317 192.473 96.317 177.932 96.317 177.932 98.74 185.203 98.74 185.203 100.558 185.203 102.375 185.203 104.193 185.203 106.011 185.203 107.828 185.203 109.646 185.203 111.463 185.203 113.281 187.626 113.281 187.626 111.464 187.626 109.646 187.626 107.828 187.626 106.011 187.626 104.193 187.626 102.375 187.626 100.558 187.626 98.74 192.473 98.74 192.473 113.281 194.897 113.281 194.897 104.799 202.571 104.799 202.571 113.281 204.995 113.281 204.996 111.161 204.997 109.04 204.999 106.919 205 104.799 205 102.678 204.997 100.558 204.991 98.437 204.981 96.317" class="fil1 str1"/></g></g></svg>
