<svg xmlns="http://www.w3.org/2000/svg" width="210mm" height="297mm" viewBox="0 0 210 297" xml:space="preserve" style="shape-rendering:geometricPrecision;text-rendering:geometricPrecision;image-rendering:optimizeQuality;fill-rule:evenodd;clip-rule:evenodd"><defs><style type="text/css">.str0{stroke:#000;stroke-width:.1}.fil0{fill:none}</style></defs><g id="Ebene_x0020_1"><metadata id="CorelCorpID_0Corel-Layer"/><g id="Ebene_x0020_1_0"><ellipse id="center_00" cx="62.274" cy="192" class="fil0 str0" rx="11.921" ry="11.921"/><polygon id="polygon10" points="79.192 189.833 79.279 188.967 79.53 188.159 79.927 187.428 80.452 186.792 81.089 186.266 81.82 185.87 82.627 185.619 83.494 185.531 89.639 185.531 89.639 183.073 83.494 183.073 82.132 183.211 80.863 183.605 79.715 184.228 78.714 185.053 77.889 186.054 77.265 187.202 76.872 188.471 76.734 189.833 76.734 193.52 76.872 194.882 77.265 196.151 77.889 197.3 78.714 198.3 79.715 199.125 80.863 199.749 82.132 200.143 83.494 200.28 93.326 200.28 93.326 197.822 83.494 197.822 82.627 197.734 81.82 197.484 81.089 197.087 80.452 196.562 79.927 195.925 79.53 195.195 79.279 194.387 79.192 193.52" class="fil0 str0"/><polygon id="polygon12" points="121.477 189.833 121.385 188.967 121.123 188.159 120.707 187.428 120.157 186.792 119.49 186.266 118.724 185.87 117.878 185.619 116.971 185.531 112.991 185.531 112.991 195.364 110.533 195.364 110.533 183.073 116.971 183.073 118.398 183.211 119.727 183.605 120.93 184.228 121.978 185.053 122.843 186.054 123.496 187.202 123.908 188.471 124.052 189.833 124.052 193.52 123.908 194.882 123.496 196.151 122.843 197.3 121.978 198.3 120.93 199.125 119.727 199.749 118.398 200.143 116.971 200.28 106.846 200.28 106.846 197.822 116.971 197.822 117.878 197.734 118.724 197.484 119.49 197.087 120.157 196.562 120.707 195.925 121.123 195.195 121.385 194.387 121.477 193.52" class="fil0 str0"/><polygon id="polygon14" points="95.784 189.219 95.871 188.352 96.122 187.545 96.519 186.814 97.044 186.177 97.681 185.652 98.412 185.255 99.219 185.004 100.086 184.917 100.953 185.004 101.76 185.255 102.491 185.652 103.127 186.177 103.653 186.814 104.049 187.545 104.3 188.352 104.388 189.219 104.388 192.906 104.388 195.364 104.388 200.28 106.846 200.28 106.846 189.219 106.708 187.856 106.314 186.588 105.691 185.44 104.866 184.439 103.865 183.613 102.717 182.99 101.448 182.596 100.086 182.459 98.724 182.596 97.455 182.99 96.307 183.613 95.306 184.439 94.481 185.44 93.857 186.588 93.463 187.856 93.326 189.219 93.326 200.28 95.784 200.28 95.784 197.822 101.929 197.822 101.929 195.364 95.784 195.364" class="fil0 str0"/><polygon id="polygon16" points="24.5 200.28 1.762 200.28 1.762 193.52 1.9 192.158 2.294 190.889 2.917 189.741 3.742 188.741 4.743 187.915 5.891 187.292 7.16 186.898 8.522 186.761 9.884 186.898 11.153 187.292 12.301 187.915 13.302 188.741 14.127 189.741 14.751 190.889 15.144 192.158 15.282 193.52 12.824 193.52 12.736 192.653 12.486 191.846 12.089 191.115 11.564 190.479 10.927 189.953 10.196 189.557 9.389 189.306 8.522 189.219 7.655 189.306 6.848 189.557 6.117 189.953 5.481 190.479 4.955 191.115 4.558 191.846 4.308 192.653 4.22 193.52 4.22 197.822 36.79 197.822 36.79 189.219 33.717 189.219 33.717 186.761 36.79 186.761 36.79 183.073 39.272 183.073 39.272 186.761 44.164 186.761 44.164 183.073 46.622 183.073 46.622 186.761 51.539 186.761 51.539 184.302 53.997 184.302 53.997 189.833 53.997 193.52 54.084 194.387 54.335 195.195 54.731 195.925 55.257 196.562 55.893 197.087 56.624 197.484 57.431 197.734 58.298 197.822 61.073 197.822 60.729 197.369 60.424 196.887 60.16 196.378 59.938 195.846 59.762 195.291 59.633 194.718 59.554 194.126 59.527 193.52 59.665 192.158 60.059 190.889 60.682 189.741 61.508 188.741 62.508 187.915 63.656 187.292 64.925 186.898 66.287 186.761 67.649 186.898 68.918 187.292 70.066 187.915 71.067 188.741 71.892 189.741 72.516 190.889 72.909 192.158 73.047 193.52 73.078 194.741 71.848 194.741 71.234 194.741 64.474 194.741 64.474 192.284 70.408 192.284 70.158 191.643 69.813 191.057 69.384 190.535 68.878 190.086 68.306 189.721 67.677 189.448 67.001 189.278 66.287 189.219 65.42 189.306 64.613 189.557 63.882 189.953 63.246 190.479 62.72 191.115 62.324 191.846 62.073 192.653 61.986 193.52 62.073 194.387 62.324 195.195 62.72 195.925 63.246 196.562 63.882 197.087 64.613 197.484 65.42 197.734 66.287 197.822 73.047 197.822 73.047 200.28 68.745 200.28 66.287 200.28 58.298 200.28 56.936 200.143 55.667 199.749 54.519 199.125 53.519 198.3 52.693 197.3 52.07 196.151 51.676 194.882 51.539 193.52 51.539 189.219 46.622 189.219 46.622 200.28 44.164 200.28 44.164 189.219 39.272 189.219 39.272 200.28 25.724 200.277" class="fil0 str0"/><polygon id="polygon18" points="36.79 200.28 24.5 200.28 23.137 200.143 21.869 199.749 20.721 199.125 19.72 198.3 18.895 197.3 18.271 196.151 17.877 194.882 17.74 193.52 17.877 192.158 18.271 190.889 18.895 189.741 19.72 188.741 20.721 187.915 21.869 187.292 23.137 186.898 24.5 186.761 25.106 186.787 25.697 186.866 26.27 186.995 26.825 187.171 27.357 187.393 27.866 187.658 28.348 187.963 28.801 188.306 28.801 186.761 31.259 186.761 31.259 193.52 31.259 194.135 31.259 195.364 28.801 195.364 28.801 194.135 28.801 193.52 28.714 192.653 28.463 191.846 28.067 191.115 27.541 190.479 26.904 189.953 26.174 189.557 25.366 189.306 24.5 189.219 23.633 189.306 22.825 189.557 22.095 189.953 21.458 190.479 20.933 191.115 20.536 191.846 20.285 192.653 20.198 193.52 20.285 194.387 20.536 195.195 20.933 195.925 21.458 196.562 22.095 197.087 22.825 197.484 23.633 197.734 24.5 197.822 36.79 197.822" class="fil0 str0"/></g></g></svg>
