<svg xmlns="http://www.w3.org/2000/svg" width="297mm" height="210mm" viewBox="0 0 297 210"><g id="Ebene_x0020_1"><circle id="center_00" cx="123.101" cy="147.624" r="11.921" fill="none" stroke="#000" stroke-width=".1"/><polygon id="_new_32_1" fill="none" stroke="#000" stroke-width=".1" points="101.837 142.748 89.078 142.748 89.077 142.748 89.077 142.741 88.924 142.748 88.776 142.771 88.632 142.808 88.495 142.858 88.364 142.922 88.24 142.997 88.125 143.083 88.019 143.179 88.019 143.187 87.92 143.295 87.833 143.411 87.757 143.535 87.692 143.666 87.641 143.803 87.604 143.946 87.581 144.093 87.573 144.245 87.58 144.245 87.58 144.246 87.58 144.246 87.573 144.246 87.58 144.399 87.603 144.548 87.64 144.691 87.69 144.829 87.754 144.96 87.829 145.083 87.915 145.198 88.011 145.305 88.019 145.305 88.127 145.403 88.243 145.491 88.367 145.567 88.498 145.631 88.635 145.682 88.778 145.72 88.925 145.743 89.077 145.751 89.077 145.743 89.078 145.743 96.566 145.743 96.567 145.743 96.567 145.751 97.102 145.778 97.622 145.857 98.123 145.986 98.604 146.162 99.062 146.382 99.494 146.644 99.897 146.945 100.269 147.283 100.273 147.279 100.61 147.65 100.91 148.052 101.171 148.483 101.391 148.941 101.566 149.423 101.695 149.926 101.774 150.447 101.801 150.984 101.808 150.984 101.808 150.985 101.808 150.986 101.801 150.986 101.774 151.523 101.695 152.045 101.566 152.548 101.391 153.03 101.171 153.487 100.91 153.919 100.609 154.321 100.273 154.692 100.273 154.692 99.902 155.029 99.5 155.329 99.068 155.59 98.61 155.81 98.129 155.985 97.626 156.114 97.105 156.193 96.567 156.22 96.567 156.227 96.566 156.227 72.229 156.227 72.228 156.227 72.228 156.227 45.269 156.227 43.397 156.227 43.397 154.355 43.397 147.615 43.397 147.615 43.404 147.615 43.449 146.733 43.579 145.877 43.791 145.051 44.08 144.26 44.441 143.507 44.871 142.798 45.366 142.136 45.92 141.526 45.92 141.526 46.53 140.972 47.192 140.478 47.901 140.048 48.653 139.686 49.445 139.397 50.27 139.186 51.126 139.055 52.008 139.011 52.008 139.004 52.009 139.004 52.01 139.004 52.01 139.011 52.891 139.055 53.747 139.186 54.573 139.397 55.365 139.686 56.117 140.048 56.826 140.478 57.488 140.972 58.098 141.527 58.098 141.527 58.652 142.137 59.147 142.798 59.577 143.508 59.938 144.26 60.227 145.051 60.439 145.877 60.569 146.733 60.614 147.614 60.621 147.614 60.621 147.615 56.877 147.615 56.877 147.614 56.884 147.614 56.859 147.119 56.784 146.637 56.664 146.171 56.499 145.724 56.293 145.299 56.048 144.897 55.767 144.521 55.451 144.174 55.451 144.174 55.104 143.858 54.728 143.577 54.326 143.331 53.9 143.125 53.453 142.961 52.988 142.84 52.506 142.766 52.01 142.741 52.01 142.748 52.009 142.748 52.008 142.748 52.008 142.741 51.512 142.766 51.03 142.84 50.565 142.961 50.118 143.125 49.692 143.331 49.29 143.576 48.914 143.858 48.567 144.174 48.567 144.174 48.252 144.521 47.97 144.897 47.725 145.299 47.519 145.724 47.354 146.171 47.234 146.637 47.159 147.119 47.134 147.615 47.141 147.615 47.141 147.615 47.141 152.483 65.125 152.483 64.789 151.951 64.491 151.394 64.234 150.813 64.02 150.21 63.849 149.587 63.725 148.946 63.649 148.288 63.624 147.617 63.616 147.617 63.616 147.615 63.616 147.615 63.624 147.615 63.668 146.733 63.798 145.877 64.01 145.051 64.299 144.26 64.66 143.507 65.091 142.798 65.585 142.136 66.139 141.526 66.139 141.526 66.749 140.972 67.411 140.478 68.12 140.048 68.873 139.686 69.664 139.397 70.49 139.186 71.345 139.055 72.227 139.011 72.227 139.004 72.228 139.004 72.229 139.004 72.229 139.011 73.111 139.055 73.967 139.186 74.793 139.397 75.584 139.686 76.336 140.048 77.046 140.478 77.708 140.972 78.318 141.527 78.318 141.527 78.872 142.137 79.366 142.798 79.796 143.508 80.158 144.26 80.447 145.051 80.658 145.877 80.788 146.733 80.833 147.614 80.84 147.614 80.84 147.615 80.84 147.616 80.833 147.616 80.807 148.288 80.731 148.945 80.608 149.586 80.437 150.209 80.223 150.813 79.966 151.394 79.668 151.951 79.332 152.483 96.566 152.483 96.567 152.483 96.567 152.49 96.719 152.483 96.866 152.459 97.009 152.422 97.146 152.371 97.277 152.307 97.401 152.23 97.518 152.143 97.625 152.045 97.625 152.045 97.724 151.937 97.811 151.82 97.888 151.696 97.952 151.565 98.003 151.428 98.04 151.285 98.064 151.137 98.071 150.986 98.064 150.986 98.064 150.985 98.064 150.984 98.071 150.984 98.064 150.833 98.04 150.686 98.003 150.543 97.952 150.406 97.888 150.275 97.811 150.151 97.724 150.034 97.626 149.926 97.626 149.919 97.519 149.823 97.404 149.736 97.28 149.661 97.15 149.598 97.012 149.548 96.869 149.511 96.72 149.488 96.567 149.48 96.567 149.488 96.566 149.488 89.078 149.488 89.077 149.488 89.077 149.48 88.539 149.453 88.018 149.374 87.515 149.245 87.034 149.07 86.576 148.85 86.144 148.589 85.742 148.289 85.371 147.952 85.375 147.949 85.038 147.577 84.737 147.173 84.475 146.742 84.254 146.284 84.078 145.803 83.949 145.301 83.87 144.781 83.843 144.246 83.836 144.246 83.836 144.246 83.836 144.245 83.843 144.245 83.87 143.707 83.949 143.186 84.078 142.683 84.253 142.202 84.473 141.744 84.734 141.312 85.035 140.91 85.371 140.539 85.375 140.543 85.747 140.206 86.15 139.904 86.582 139.642 87.04 139.422 87.521 139.246 88.022 139.117 88.542 139.038 89.077 139.011 89.077 139.004 89.078 139.004 101.837 139.004 101.837 142.748"/><polygon id="_new_32_2" fill="none" stroke="#000" stroke-width=".1" points="71.959 152.483 72.228 152.483 72.228 152.483 72.229 152.483 72.498 152.483 72.954 152.436 73.397 152.348 73.825 152.22 74.236 152.054 74.628 151.854 74.999 151.619 75.347 151.353 75.67 151.058 75.67 151.058 75.986 150.71 76.267 150.335 76.513 149.933 76.719 149.507 76.883 149.06 77.004 148.594 77.078 148.112 77.103 147.616 77.096 147.616 77.096 147.615 77.096 147.614 77.103 147.614 77.078 147.119 77.004 146.637 76.883 146.171 76.719 145.724 76.513 145.299 76.268 144.897 75.986 144.521 75.67 144.174 75.67 144.174 75.323 143.858 74.947 143.577 74.545 143.331 74.12 143.125 73.673 142.961 73.207 142.84 72.725 142.766 72.229 142.741 72.229 142.748 72.228 142.748 72.227 142.748 72.227 142.741 71.731 142.766 71.249 142.84 70.784 142.961 70.337 143.125 69.911 143.331 69.509 143.576 69.134 143.858 68.787 144.174 68.787 144.174 68.471 144.521 68.189 144.897 67.944 145.299 67.738 145.724 67.573 146.171 67.453 146.637 67.379 147.119 67.353 147.615 67.361 147.615 67.361 147.615 67.361 147.617 67.353 147.617 67.379 148.112 67.453 148.594 67.573 149.06 67.738 149.507 67.944 149.932 68.189 150.334 68.471 150.71 68.786 151.057 68.786 151.057 69.109 151.353 69.457 151.619 69.828 151.853 70.22 152.054 70.632 152.22 71.06 152.348 71.503 152.436 71.959 152.483"/><polygon id="_new_33_1" fill="none" stroke="#000" stroke-width=".1" points="111.177 145.8 117.174 145.764 117.075 145.543 116.966 145.327 116.847 145.118 116.718 144.915 116.579 144.718 116.431 144.529 116.274 144.348 116.108 144.174 116.108 144.174 115.761 143.858 115.386 143.577 114.984 143.332 114.558 143.126 114.111 142.961 113.646 142.841 113.164 142.766 112.668 142.741 112.668 142.749 112.667 142.749 112.666 142.749 112.666 142.741 112.17 142.766 111.688 142.841 111.222 142.961 110.775 143.126 110.35 143.332 109.948 143.577 109.572 143.859 109.225 144.175 109.225 144.175 108.909 144.522 108.628 144.897 108.382 145.299 108.176 145.725 108.012 146.172 107.891 146.637 107.817 147.119 107.792 147.615 107.799 147.615 107.799 147.616 107.799 147.617 107.792 147.617 107.817 148.113 107.891 148.595 108.012 149.06 108.177 149.507 108.383 149.933 108.628 150.335 108.909 150.711 109.225 151.058 109.225 151.058 109.572 151.374 109.948 151.655 110.35 151.9 110.775 152.106 111.222 152.271 111.688 152.392 112.17 152.466 112.666 152.491 112.666 152.484 112.667 152.484 124.274 152.484 124.274 147.616 124.274 147.616 124.281 147.616 124.324 146.74 124.448 145.889 124.651 145.068 124.928 144.28 125.277 143.529 125.692 142.821 126.17 142.16 126.708 141.549 126.708 141.549 127.305 140.99 127.955 140.491 128.653 140.057 129.395 139.693 130.179 139.401 130.999 139.188 131.853 139.056 132.736 139.012 132.736 139.004 132.737 139.004 132.738 139.004 132.738 139.012 133.615 139.056 134.471 139.185 135.3 139.396 136.098 139.683 136.86 140.042 137.58 140.47 138.255 140.961 138.879 141.513 138.879 141.513 139.451 142.123 139.963 142.786 140.409 143.496 140.785 144.25 141.087 145.043 141.308 145.871 141.444 146.73 141.491 147.615 141.498 147.615 141.498 147.616 141.498 152.484 153.105 152.484 153.106 152.484 153.106 152.491 153.602 152.466 154.084 152.392 154.55 152.271 154.997 152.106 155.422 151.9 155.824 151.655 156.2 151.373 156.547 151.058 156.547 151.058 156.863 150.711 157.145 150.335 157.39 149.933 157.596 149.507 157.76 149.061 157.881 148.595 157.955 148.113 157.98 147.617 157.973 147.617 157.973 147.616 157.973 147.616 157.98 147.616 157.955 147.12 157.881 146.638 157.76 146.172 157.596 145.725 157.39 145.299 157.144 144.897 156.863 144.521 156.547 144.174 156.547 144.174 156.2 143.858 155.824 143.577 155.422 143.332 154.997 143.126 154.55 142.961 154.084 142.841 153.602 142.766 153.106 142.741 153.106 142.749 153.105 142.749 153.105 142.749 153.105 142.741 152.609 142.766 152.127 142.841 151.661 142.961 151.214 143.126 150.788 143.332 150.386 143.577 150.011 143.859 149.663 144.175 149.663 144.175 149.368 144.497 149.102 144.845 148.867 145.216 148.666 145.608 148.501 146.019 148.373 146.447 148.285 146.891 148.238 147.347 148.238 147.615 148.238 147.616 148.238 149.863 144.493 149.863 144.493 147.616 144.493 147.615 144.493 136.383 148.238 136.383 148.238 140.513 148.77 140.176 149.327 139.879 149.908 139.622 150.511 139.407 151.135 139.237 151.776 139.113 152.433 139.037 153.105 139.012 153.105 139.004 153.105 139.004 153.106 139.004 153.106 139.012 153.988 139.056 154.844 139.186 155.67 139.398 156.461 139.687 157.213 140.048 157.923 140.478 158.584 140.973 159.194 141.527 159.194 141.527 159.749 142.137 160.243 142.799 160.673 143.508 161.035 144.26 161.324 145.052 161.535 145.878 161.666 146.734 161.71 147.616 161.717 147.616 161.717 147.616 161.717 147.617 161.71 147.617 161.665 148.499 161.535 149.355 161.324 150.18 161.035 150.972 160.673 151.724 160.243 152.433 159.749 153.095 159.195 153.705 159.195 153.705 158.585 154.259 157.923 154.754 157.213 155.184 156.461 155.546 155.67 155.834 154.844 156.046 153.988 156.176 153.106 156.221 153.106 156.228 153.105 156.228 139.626 156.228 137.754 156.228 137.754 154.356 137.754 147.616 137.754 147.615 137.761 147.615 137.734 147.122 137.657 146.643 137.531 146.18 137.36 145.735 137.146 145.311 136.892 144.91 136.601 144.536 136.275 144.189 136.275 144.189 135.915 143.87 135.525 143.586 135.109 143.338 134.67 143.13 134.21 142.963 133.733 142.842 133.242 142.767 132.738 142.741 132.738 142.749 132.737 142.749 132.736 142.749 132.736 142.741 132.245 142.766 131.771 142.839 131.314 142.958 130.879 143.12 130.466 143.323 130.078 143.564 129.717 143.841 129.385 144.152 129.385 144.152 129.08 144.498 128.809 144.874 128.574 145.278 128.377 145.705 128.22 146.156 128.105 146.626 128.035 147.113 128.011 147.616 128.018 147.616 128.018 147.616 128.018 154.356 128.018 156.228 126.146 156.228 112.667 156.228 112.666 156.228 112.666 156.221 111.784 156.176 110.928 156.046 110.102 155.834 109.311 155.546 108.559 155.184 107.849 154.754 107.188 154.26 106.578 153.705 106.578 153.705 106.023 153.095 105.529 152.434 105.099 151.724 104.737 150.972 104.448 150.18 104.237 149.354 104.107 148.498 104.062 147.617 104.055 147.617 104.055 147.616 104.055 147.615 104.062 147.615 104.107 146.733 104.237 145.877 104.449 145.052 104.737 144.26 105.099 143.508 105.529 142.799 106.023 142.137 106.577 141.527 106.577 141.527 107.187 140.973 107.849 140.478 108.559 140.048 109.311 139.687 110.102 139.398 110.928 139.186 111.784 139.056 112.666 139.012 112.666 139.004 112.667 139.004 112.668 139.004 112.668 139.012 113.55 139.056 114.405 139.186 115.231 139.398 116.022 139.687 116.775 140.048 117.484 140.478 118.146 140.973 118.756 141.527 118.756 141.527 119.31 142.137 119.804 142.799 120.234 143.508 120.596 144.26 120.885 145.052 121.097 145.878 121.227 146.734 121.271 147.616 121.279 147.616 121.279 147.616 121.279 149.47 119.414 149.481 111.192 149.53 111.177 145.8"/><polygon id="_new_34_1" fill="none" stroke="#000" stroke-width=".1" points="205.152 147.616 205.152 147.615 205.159 147.615 205.202 146.74 205.326 145.889 205.529 145.068 205.806 144.28 206.154 143.529 206.57 142.821 207.048 142.159 207.586 141.548 207.586 141.548 208.183 140.989 208.832 140.491 209.53 140.057 210.273 139.692 211.056 139.401 211.877 139.187 212.73 139.056 213.614 139.011 213.614 139.004 213.615 139.004 213.615 139.004 213.615 139.011 214.497 139.055 215.353 139.186 216.179 139.397 216.97 139.686 217.723 140.048 218.432 140.478 219.094 140.972 219.704 141.527 219.704 141.527 220.258 142.137 220.752 142.798 221.183 143.508 221.544 144.26 221.833 145.051 222.045 145.877 222.175 146.733 222.219 147.614 222.227 147.614 222.227 147.616 222.227 147.616 222.219 147.616 222.175 148.498 222.045 149.354 221.833 150.18 221.544 150.971 221.183 151.724 220.752 152.433 220.258 153.095 219.704 153.705 219.704 153.705 219.094 154.259 218.432 154.753 217.723 155.183 216.97 155.545 216.179 155.834 215.354 156.045 214.498 156.176 213.616 156.22 213.616 156.227 213.615 156.227 213.615 156.22 193.545 156.221 193.545 152.491 213.615 152.49 213.615 152.483 213.616 152.483 213.616 152.49 214.112 152.465 214.594 152.391 215.059 152.27 215.506 152.106 215.932 151.9 216.334 151.655 216.709 151.373 217.056 151.058 217.056 151.058 217.372 150.71 217.654 150.335 217.899 149.933 218.105 149.507 218.27 149.06 218.39 148.594 218.464 148.112 218.49 147.616 218.482 147.616 218.482 147.616 218.482 147.614 218.49 147.614 218.464 147.119 218.39 146.637 218.27 146.171 218.105 145.724 217.899 145.299 217.654 144.897 217.372 144.521 217.057 144.174 217.057 144.174 216.71 143.858 216.334 143.577 215.932 143.331 215.506 143.125 215.059 142.961 214.593 142.84 214.111 142.766 213.615 142.741 213.615 142.748 213.615 142.748 213.614 142.748 213.614 142.741 213.123 142.766 212.648 142.839 212.192 142.957 211.757 143.119 211.344 143.322 210.956 143.564 210.594 143.841 210.262 144.152 210.262 144.152 209.958 144.498 209.687 144.874 209.452 145.277 209.255 145.705 209.098 146.155 208.983 146.626 208.913 147.113 208.889 147.615 208.896 147.615 208.896 147.616 205.152 147.616"/><polygon id="_new_35_1" fill="none" stroke="#000" stroke-width=".1" points="171.836 145.8 177.832 145.764 177.734 145.543 177.625 145.327 177.506 145.118 177.377 144.915 177.238 144.719 177.09 144.529 176.933 144.348 176.767 144.174 176.767 144.174 176.42 143.858 176.045 143.577 175.643 143.332 175.217 143.126 174.77 142.961 174.305 142.841 173.823 142.766 173.327 142.741 173.327 142.749 173.326 142.749 173.325 142.749 173.325 142.741 172.829 142.766 172.347 142.841 171.881 142.961 171.434 143.126 171.009 143.332 170.607 143.577 170.231 143.859 169.884 144.175 169.884 144.175 169.568 144.522 169.287 144.897 169.041 145.299 168.835 145.725 168.671 146.172 168.55 146.637 168.476 147.119 168.451 147.615 168.458 147.615 168.458 147.616 168.458 147.617 168.451 147.617 168.476 148.113 168.55 148.595 168.671 149.06 168.835 149.507 169.041 149.933 169.287 150.335 169.568 150.711 169.884 151.058 169.884 151.058 170.231 151.374 170.607 151.655 171.009 151.9 171.434 152.106 171.881 152.271 172.347 152.392 172.829 152.466 173.325 152.491 173.325 152.484 173.326 152.484 184.933 152.484 184.933 147.616 184.933 147.616 184.94 147.616 184.983 146.739 185.108 145.888 185.313 145.068 185.592 144.282 185.942 143.534 186.36 142.83 186.841 142.172 187.382 141.566 187.382 141.566 187.981 141.013 188.632 140.52 189.33 140.091 190.073 139.731 190.857 139.444 191.677 139.234 192.529 139.104 193.41 139.06 193.41 139.053 193.412 139.053 193.412 139.053 193.412 139.06 194.294 139.105 195.15 139.235 195.976 139.447 196.767 139.735 197.52 140.097 198.229 140.527 198.891 141.022 199.501 141.576 199.501 141.576 200.055 142.186 200.549 142.848 200.979 143.557 201.341 144.309 201.63 145.1 201.841 145.926 201.972 146.782 202.016 147.664 202.024 147.664 202.024 147.665 198.279 147.665 198.279 147.664 198.286 147.664 198.261 147.168 198.187 146.686 198.066 146.22 197.902 145.773 197.696 145.348 197.451 144.946 197.169 144.57 196.853 144.223 196.853 144.223 196.506 143.908 196.131 143.626 195.729 143.381 195.303 143.175 194.856 143.01 194.39 142.889 193.908 142.815 193.412 142.79 193.412 142.797 193.412 142.797 193.41 142.797 193.41 142.79 192.917 142.814 192.44 142.886 191.982 143.003 191.544 143.163 191.13 143.364 190.74 143.602 190.377 143.876 190.044 144.184 190.044 144.184 189.74 144.525 189.469 144.897 189.234 145.295 189.037 145.719 188.88 146.165 188.765 146.631 188.694 147.116 188.67 147.615 188.677 147.615 188.677 147.616 188.677 154.356 188.677 156.228 186.805 156.228 173.326 156.228 173.325 156.228 173.325 156.221 172.443 156.176 171.587 156.046 170.761 155.834 169.97 155.546 169.218 155.184 168.508 154.754 167.847 154.26 167.237 153.705 167.237 153.705 166.682 153.095 166.188 152.434 165.758 151.724 165.396 150.972 165.107 150.18 164.896 149.354 164.765 148.498 164.721 147.617 164.714 147.617 164.714 147.616 164.714 147.615 164.721 147.615 164.766 146.733 164.896 145.877 165.107 145.052 165.396 144.26 165.758 143.508 166.188 142.799 166.682 142.137 167.236 141.527 167.236 141.527 167.846 140.973 168.508 140.478 169.218 140.048 169.97 139.687 170.761 139.398 171.587 139.186 172.443 139.056 173.325 139.012 173.325 139.004 173.326 139.004 173.327 139.004 173.327 139.012 174.209 139.056 175.064 139.186 175.89 139.398 176.681 139.687 177.434 140.048 178.143 140.478 178.805 140.973 179.415 141.527 179.415 141.527 179.969 142.137 180.463 142.799 180.894 143.508 181.255 144.26 181.544 145.052 181.756 145.878 181.886 146.734 181.93 147.615 181.938 147.615 181.938 147.616 181.938 149.47 180.073 149.481 171.851 149.53 171.836 145.8"/><polygon id="_new_36_1" fill="none" stroke="#000" stroke-width=".1" points="232.627 145.751 238.623 145.715 238.525 145.494 238.416 145.278 238.297 145.069 238.168 144.866 238.029 144.67 237.881 144.481 237.724 144.299 237.558 144.125 237.558 144.125 237.211 143.81 236.836 143.528 236.434 143.283 236.008 143.077 235.561 142.912 235.096 142.792 234.614 142.718 234.118 142.692 234.118 142.7 234.117 142.7 234.116 142.7 234.116 142.692 233.62 142.718 233.138 142.792 232.672 142.912 232.225 143.077 231.8 143.283 231.398 143.528 231.022 143.81 230.675 144.126 230.675 144.126 230.359 144.473 230.077 144.848 229.832 145.25 229.626 145.676 229.462 146.123 229.341 146.588 229.267 147.07 229.242 147.566 229.249 147.566 229.249 147.567 229.249 147.568 229.242 147.568 229.267 148.064 229.341 148.546 229.462 149.011 229.626 149.458 229.833 149.884 230.078 150.286 230.359 150.662 230.675 151.009 230.675 151.009 231.022 151.325 231.398 151.606 231.8 151.851 232.225 152.057 232.672 152.222 233.138 152.343 233.62 152.417 234.116 152.442 234.116 152.435 234.117 152.435 234.117 152.442 245.739 152.484 245.739 147.616 245.739 147.615 245.747 147.615 245.789 146.74 245.914 145.889 246.116 145.068 246.394 144.279 246.742 143.529 247.157 142.821 247.636 142.159 248.173 141.549 248.173 141.549 248.771 140.99 249.42 140.491 250.118 140.057 250.861 139.692 251.644 139.401 252.464 139.188 253.318 139.056 254.201 139.011 254.201 139.004 254.203 139.004 254.203 139.004 254.203 139.011 255.085 139.056 255.941 139.186 256.767 139.398 257.558 139.686 258.311 140.048 259.02 140.478 259.682 140.973 260.292 141.527 260.292 141.527 260.846 142.137 261.34 142.799 261.77 143.508 262.132 144.26 262.421 145.051 262.632 145.877 262.763 146.733 262.807 147.615 262.815 147.615 262.815 147.616 259.07 147.616 259.07 147.615 259.078 147.615 259.052 147.119 258.978 146.637 258.857 146.171 258.693 145.725 258.487 145.299 258.242 144.897 257.96 144.521 257.645 144.174 257.645 144.174 257.297 143.859 256.922 143.577 256.52 143.332 256.094 143.126 255.647 142.961 255.181 142.84 254.699 142.766 254.203 142.741 254.203 142.748 254.203 142.748 254.201 142.748 254.201 142.741 253.71 142.766 253.236 142.839 252.78 142.958 252.344 143.12 251.931 143.323 251.543 143.564 251.182 143.841 250.85 144.152 250.85 144.152 250.546 144.498 250.275 144.874 250.04 145.277 249.843 145.705 249.686 146.155 249.571 146.625 249.5 147.113 249.476 147.615 249.484 147.615 249.484 147.616 249.484 154.356 249.484 156.227 247.612 156.22 234.117 156.172 234.117 156.179 234.116 156.179 234.116 156.172 233.234 156.127 232.378 155.997 231.552 155.785 230.761 155.497 230.009 155.135 229.299 154.705 228.638 154.211 228.028 153.656 228.028 153.656 227.473 153.046 226.979 152.385 226.549 151.675 226.187 150.923 225.898 150.131 225.687 149.306 225.557 148.45 225.512 147.568 225.505 147.568 225.505 147.567 225.505 147.566 225.512 147.566 225.557 146.684 225.687 145.828 225.898 145.003 226.187 144.211 226.549 143.459 226.979 142.75 227.473 142.088 228.027 141.478 228.027 141.478 228.637 140.924 229.299 140.429 230.009 139.999 230.761 139.638 231.552 139.349 232.378 139.137 233.234 139.007 234.116 138.963 234.116 138.955 234.117 138.955 234.118 138.955 234.118 138.963 235 139.007 235.855 139.137 236.681 139.349 237.472 139.638 238.225 139.999 238.934 140.429 239.596 140.924 240.206 141.478 240.206 141.478 240.76 142.088 241.254 142.75 241.685 143.459 242.046 144.211 242.335 145.003 242.547 145.829 242.677 146.685 242.721 147.567 242.729 147.567 242.729 147.567 242.729 149.421 240.864 149.432 232.642 149.481 232.627 145.751"/></g></svg>
