<svg xmlns="http://www.w3.org/2000/svg" width="297mm" height="210mm" viewBox="0 0 297 210"><g id="_tag_5_"><g id="_tag_6_"><polygon id="_132883608_1" fill="none" stroke="#000" stroke-width=".1" points="31.709 93.273 31.661 93.28 31.614 93.288 31.567 93.295 31.52 93.303 31.473 93.311 31.426 93.32 31.379 93.328 31.332 93.338 31.332 93.338 31.311 93.342 31.29 93.346 31.269 93.351 31.248 93.355 31.227 93.36 31.206 93.364 31.185 93.369 31.164 93.374 31.164 93.374 31.145 93.379 31.126 93.384 31.106 93.388 31.087 93.393 31.068 93.398 31.049 93.404 31.029 93.409 31.01 93.414 31.01 93.414 30.992 93.42 30.975 93.425 30.957 93.43 30.939 93.436 30.922 93.442 30.904 93.447 30.886 93.453 30.869 93.459 30.869 93.459 30.852 93.465 30.836 93.471 30.82 93.477 30.803 93.483 30.787 93.49 30.771 93.496 30.755 93.503 30.739 93.51 30.739 93.51 30.723 93.516 30.708 93.523 30.693 93.53 30.678 93.537 30.663 93.544 30.648 93.551 30.633 93.559 30.618 93.566 30.618 93.566 30.604 93.574 30.589 93.582 30.575 93.589 30.561 93.597 30.547 93.605 30.533 93.614 30.52 93.622 30.506 93.63 30.506 93.63 30.492 93.639 30.479 93.648 30.466 93.657 30.452 93.666 30.439 93.675 30.426 93.684 30.413 93.693 30.401 93.703 30.401 93.703 30.388 93.712 30.375 93.722 30.363 93.732 30.35 93.742 30.338 93.752 30.325 93.763 30.313 93.773 30.301 93.784 30.301 93.784 30.289 93.795 30.277 93.806 30.265 93.817 30.253 93.828 30.241 93.84 30.229 93.851 30.218 93.863 30.206 93.875 30.206 93.875 30.194 93.887 30.183 93.9 30.171 93.912 30.159 93.925 30.148 93.938 30.136 93.95 30.125 93.963 30.114 93.976 30.114 93.976 30.102 93.99 30.091 94.004 30.079 94.018 30.068 94.032 30.057 94.046 30.046 94.061 30.034 94.075 30.024 94.089 30.024 94.089 30.012 94.105 30 94.12 29.989 94.136 29.978 94.152 29.966 94.167 29.955 94.183 29.944 94.199 29.933 94.215 29.933 94.215 29.921 94.232 29.91 94.249 29.898 94.266 29.887 94.284 29.875 94.301 29.864 94.318 29.853 94.336 29.842 94.353 29.842 94.353 29.829 94.372 29.818 94.391 29.806 94.41 29.794 94.429 29.782 94.448 29.77 94.467 29.759 94.487 29.747 94.506 29.747 94.506 29.735 94.526 29.722 94.547 29.71 94.568 29.698 94.589 29.685 94.61 29.673 94.631 29.661 94.652 29.649 94.673 29.438 95.05 26.574 100.085 26.551 100.127 26.529 100.169 26.506 100.212 26.484 100.254 26.462 100.296 26.441 100.339 26.419 100.382 26.399 100.425 26.399 100.425 26.389 100.445 26.38 100.465 26.37 100.485 26.361 100.505 26.352 100.525 26.343 100.546 26.334 100.566 26.325 100.586 26.325 100.586 26.317 100.606 26.309 100.625 26.301 100.644 26.293 100.664 26.285 100.683 26.278 100.703 26.27 100.723 26.263 100.742 26.263 100.742 26.256 100.761 26.249 100.78 26.243 100.799 26.236 100.818 26.23 100.837 26.224 100.856 26.217 100.875 26.212 100.894 26.212 100.894 26.206 100.913 26.201 100.931 26.195 100.95 26.19 100.969 26.185 100.987 26.181 101.006 26.176 101.025 26.171 101.043 26.171 101.043 26.167 101.062 26.163 101.08 26.159 101.098 26.156 101.116 26.152 101.135 26.149 101.153 26.146 101.172 26.143 101.19 26.143 101.19 26.14 101.208 26.137 101.226 26.135 101.245 26.133 101.263 26.131 101.281 26.129 101.299 26.127 101.318 26.126 101.336 26.126 101.336 26.125 101.354 26.124 101.372 26.123 101.391 26.122 101.409 26.121 101.427 26.121 101.445 26.121 101.464 26.121 101.482 26.121 101.482 26.121 101.5 26.122 101.519 26.122 101.537 26.123 101.555 26.124 101.574 26.126 101.592 26.127 101.61 26.129 101.629 26.129 101.629 26.13 101.648 26.132 101.666 26.135 101.685 26.137 101.703 26.14 101.722 26.143 101.741 26.145 101.759 26.149 101.778 26.149 101.778 26.152 101.797 26.156 101.816 26.16 101.835 26.164 101.854 26.168 101.873 26.172 101.892 26.177 101.911 26.182 101.93 26.182 101.93 26.187 101.95 26.192 101.969 26.197 101.989 26.203 102.009 26.209 102.028 26.215 102.048 26.221 102.067 26.227 102.086 26.286 102.248 26.304 102.291 26.322 102.334 26.341 102.377 26.36 102.419 26.38 102.462 26.401 102.504 26.421 102.546 26.443 102.587 27.2 104.068 27.213 104.094 27.226 104.12 27.24 104.147 27.253 104.173 27.266 104.199 27.279 104.225 27.291 104.252 27.304 104.278 27.304 104.278 27.31 104.291 27.316 104.304 27.322 104.316 27.328 104.329 27.334 104.342 27.34 104.355 27.346 104.368 27.352 104.38 27.352 104.38 27.357 104.393 27.363 104.406 27.368 104.418 27.374 104.431 27.38 104.443 27.385 104.456 27.39 104.468 27.396 104.481 27.396 104.481 27.401 104.493 27.406 104.506 27.411 104.518 27.416 104.531 27.422 104.543 27.427 104.555 27.432 104.568 27.437 104.58 27.437 104.58 27.441 104.592 27.446 104.605 27.451 104.617 27.455 104.629 27.46 104.641 27.465 104.654 27.469 104.666 27.474 104.678 27.474 104.678 27.478 104.69 27.482 104.703 27.487 104.715 27.491 104.727 27.495 104.739 27.499 104.751 27.503 104.763 27.507 104.776 27.507 104.776 27.511 104.788 27.515 104.8 27.519 104.812 27.522 104.824 27.526 104.836 27.53 104.848 27.533 104.86 27.537 104.872 27.537 104.872 27.54 104.884 27.544 104.897 27.547 104.909 27.55 104.921 27.553 104.933 27.557 104.945 27.56 104.957 27.563 104.969 27.563 104.969 27.566 104.981 27.569 104.993 27.571 105.005 27.574 105.018 27.577 105.03 27.58 105.042 27.582 105.054 27.585 105.066 27.585 105.066 27.587 105.078 27.589 105.09 27.592 105.103 27.594 105.115 27.596 105.127 27.598 105.139 27.6 105.151 27.602 105.164 27.602 105.164 27.604 105.176 27.606 105.188 27.608 105.2 27.61 105.213 27.611 105.225 27.613 105.237 27.615 105.249 27.616 105.262 27.616 105.262 27.618 105.274 27.619 105.287 27.62 105.299 27.621 105.311 27.622 105.324 27.624 105.336 27.625 105.349 27.626 105.361 27.626 105.361 27.626 105.374 27.627 105.386 27.628 105.399 27.629 105.411 27.629 105.424 27.63 105.437 27.63 105.449 27.631 105.462 27.631 105.462 27.631 105.475 27.631 105.487 27.631 105.5 27.632 105.513 27.632 105.526 27.632 105.539 27.631 105.552 27.631 105.565 27.631 105.565 27.631 105.578 27.631 105.591 27.63 105.604 27.63 105.617 27.629 105.63 27.629 105.643 27.628 105.656 27.627 105.669 27.627 105.669 27.626 105.683 27.626 105.696 27.625 105.709 27.624 105.723 27.622 105.736 27.621 105.749 27.62 105.763 27.619 105.776 27.619 105.776 27.617 105.79 27.616 105.804 27.614 105.817 27.613 105.831 27.611 105.845 27.609 105.859 27.607 105.872 27.605 105.886 27.605 105.886 27.603 105.9 27.601 105.914 27.599 105.928 27.597 105.943 27.595 105.957 27.592 105.971 27.59 105.985 27.587 105.999 27.587 105.999 27.585 106.013 27.582 106.028 27.579 106.043 27.576 106.057 27.573 106.072 27.57 106.086 27.567 106.101 27.564 106.115 27.564 106.115 27.561 106.13 27.558 106.145 27.554 106.16 27.551 106.175 27.547 106.19 27.544 106.205 27.54 106.22 27.536 106.235 27.536 106.235 27.532 106.251 27.528 106.266 27.524 106.282 27.52 106.297 27.516 106.313 27.512 106.328 27.507 106.343 27.503 106.359 27.503 106.359 27.498 106.375 27.494 106.391 27.489 106.407 27.484 106.423 27.479 106.439 27.475 106.455 27.47 106.471 27.465 106.487 27.465 106.487 27.459 106.504 27.454 106.52 27.449 106.537 27.443 106.554 27.438 106.57 27.432 106.587 27.427 106.604 27.421 106.62 27.421 106.62 27.415 106.637 27.409 106.655 27.403 106.672 27.397 106.689 27.391 106.706 27.384 106.724 27.378 106.741 27.372 106.758 27.372 106.758 27.365 106.776 27.358 106.794 27.352 106.812 27.345 106.83 27.338 106.847 27.331 106.865 27.324 106.883 27.317 106.901 27.317 106.901 27.31 106.92 27.303 106.938 27.295 106.957 27.288 106.976 27.28 106.994 27.272 107.013 27.265 107.031 27.257 107.05 27.257 107.05 27.249 107.069 27.241 107.088 27.233 107.108 27.224 107.127 27.216 107.146 27.208 107.166 27.2 107.185 27.191 107.204 27.191 107.204 27.182 107.224 27.174 107.245 27.165 107.265 27.156 107.285 27.147 107.305 27.138 107.325 27.129 107.345 27.12 107.365 27.12 107.365 27.11 107.386 27.1 107.407 27.091 107.428 27.081 107.449 27.071 107.47 27.062 107.491 27.052 107.512 27.042 107.533 27.042 107.533 27.032 107.555 27.021 107.576 27.011 107.598 27.001 107.62 26.99 107.642 26.98 107.664 26.969 107.685 26.959 107.707 26.959 107.707 26.946 107.732 26.934 107.757 26.922 107.782 26.91 107.807 26.897 107.832 26.885 107.857 26.872 107.882 26.86 107.907 26.86 107.907 26.846 107.934 26.832 107.961 26.818 107.989 26.804 108.016 26.791 108.044 26.776 108.071 26.762 108.099 26.748 108.126 26.748 108.126 26.733 108.155 26.718 108.184 26.702 108.214 26.687 108.243 26.672 108.272 26.656 108.301 26.641 108.33 26.625 108.36 26.625 108.36 26.61 108.388 26.594 108.416 26.579 108.444 26.564 108.472 26.548 108.5 26.533 108.529 26.517 108.557 26.502 108.585 26.502 108.585 26.486 108.612 26.471 108.639 26.456 108.666 26.44 108.693 26.425 108.72 26.409 108.747 26.393 108.774 26.378 108.801 26.378 108.801 26.363 108.827 26.347 108.853 26.332 108.879 26.316 108.905 26.301 108.931 26.285 108.957 26.269 108.983 26.254 109.009 26.254 109.009 26.238 109.034 26.223 109.059 26.207 109.084 26.192 109.109 26.176 109.134 26.161 109.158 26.145 109.183 26.129 109.208 26.129 109.208 26.114 109.232 26.098 109.256 26.082 109.28 26.067 109.304 26.051 109.328 26.035 109.351 26.019 109.375 26.004 109.399 26.004 109.399 25.988 109.422 25.972 109.445 25.957 109.468 25.941 109.49 25.925 109.513 25.909 109.536 25.893 109.559 25.877 109.581 25.877 109.581 25.861 109.603 25.846 109.625 25.83 109.647 25.814 109.669 25.798 109.691 25.782 109.712 25.766 109.734 25.75 109.756 25.75 109.756 25.734 109.776 25.718 109.797 25.702 109.818 25.686 109.839 25.67 109.86 25.654 109.88 25.637 109.901 25.621 109.922 25.621 109.922 25.605 109.941 25.589 109.961 25.573 109.981 25.556 110.001 25.54 110.021 25.524 110.04 25.507 110.06 25.491 110.079 25.491 110.079 25.475 110.098 25.458 110.117 25.442 110.136 25.426 110.155 25.409 110.173 25.393 110.192 25.376 110.211 25.359 110.229 25.359 110.229 25.343 110.247 25.326 110.265 25.31 110.283 25.293 110.3 25.276 110.318 25.26 110.336 25.243 110.353 25.226 110.371 25.226 110.371 25.209 110.388 25.192 110.405 25.176 110.422 25.159 110.438 25.142 110.455 25.125 110.472 25.108 110.488 25.091 110.505 25.091 110.505 25.074 110.521 25.057 110.537 25.04 110.552 25.023 110.568 25.006 110.584 24.988 110.6 24.971 110.615 24.954 110.63 24.954 110.63 24.936 110.646 24.919 110.661 24.902 110.675 24.884 110.69 24.867 110.705 24.849 110.72 24.832 110.734 24.814 110.749 24.814 110.749 24.797 110.763 24.779 110.777 24.762 110.791 24.744 110.805 24.726 110.818 24.708 110.832 24.69 110.846 24.673 110.859 24.673 110.859 24.655 110.872 24.637 110.885 24.619 110.898 24.601 110.911 24.583 110.924 24.565 110.937 24.547 110.949 24.528 110.962 24.528 110.962 24.51 110.974 24.492 110.986 24.474 110.998 24.455 111.01 24.437 111.022 24.419 111.034 24.4 111.046 24.382 111.057 24.382 111.057 24.363 111.068 24.344 111.08 24.326 111.091 24.307 111.102 24.288 111.113 24.27 111.124 24.251 111.134 24.232 111.145 24.232 111.145 24.213 111.155 24.194 111.166 24.175 111.176 24.156 111.186 24.137 111.196 24.118 111.206 24.099 111.215 24.079 111.225 24.079 111.225 24.06 111.235 24.041 111.244 24.021 111.253 24.002 111.263 23.982 111.272 23.963 111.281 23.943 111.289 23.924 111.298 23.924 111.298 23.904 111.307 23.884 111.315 23.865 111.324 23.845 111.332 23.825 111.34 23.805 111.348 23.785 111.356 23.765 111.364 23.765 111.364 23.745 111.371 23.724 111.379 23.704 111.386 23.684 111.394 23.664 111.401 23.643 111.408 23.623 111.415 23.603 111.422 23.603 111.422 23.582 111.429 23.561 111.436 23.541 111.442 23.52 111.449 23.499 111.455 23.478 111.461 23.457 111.467 23.437 111.473 23.437 111.473 23.416 111.479 23.394 111.485 23.373 111.491 23.352 111.496 23.331 111.502 23.31 111.507 23.288 111.512 23.267 111.517 23.267 111.517 23.245 111.522 23.224 111.527 23.202 111.532 23.18 111.537 23.159 111.542 23.137 111.546 23.115 111.55 23.094 111.555 23.094 111.555 23.071 111.559 23.049 111.563 23.027 111.567 23.005 111.571 22.983 111.574 22.96 111.578 22.938 111.581 22.916 111.585 22.916 111.585 22.893 111.588 22.871 111.591 22.848 111.594 22.825 111.597 22.803 111.6 22.78 111.603 22.757 111.606 22.734 111.608 22.734 111.608 22.711 111.611 22.688 111.613 22.665 111.615 22.641 111.617 22.618 111.619 22.595 111.621 22.571 111.623 22.548 111.625 22.548 111.625 22.524 111.626 22.501 111.628 22.477 111.629 22.453 111.631 22.429 111.632 22.405 111.633 22.382 111.634 22.358 111.635 22.358 111.635 22.334 111.635 22.31 111.636 22.287 111.637 22.263 111.637 22.239 111.637 22.215 111.638 22.192 111.638 22.168 111.638 22.168 111.638 22.145 111.638 22.121 111.638 22.098 111.637 22.075 111.637 22.052 111.636 22.028 111.636 22.005 111.635 21.982 111.634 21.982 111.634 21.959 111.633 21.937 111.632 21.914 111.63 21.892 111.629 21.869 111.627 21.847 111.626 21.825 111.624 21.802 111.622 21.802 111.622 21.78 111.62 21.758 111.618 21.736 111.615 21.714 111.613 21.692 111.61 21.67 111.607 21.648 111.605 21.627 111.602 21.627 111.602 21.605 111.599 21.584 111.595 21.562 111.592 21.541 111.589 21.52 111.585 21.498 111.581 21.477 111.577 21.456 111.573 21.456 111.573 21.435 111.569 21.414 111.565 21.393 111.561 21.372 111.556 21.352 111.552 21.331 111.547 21.31 111.542 21.29 111.537 21.29 111.537 21.27 111.532 21.249 111.527 21.229 111.522 21.209 111.516 21.189 111.511 21.169 111.505 21.149 111.499 21.129 111.493 21.129 111.493 21.11 111.487 21.09 111.481 21.071 111.474 21.052 111.468 21.032 111.461 21.013 111.454 20.994 111.448 20.975 111.44 20.975 111.44 20.956 111.433 20.937 111.426 20.919 111.419 20.9 111.411 20.882 111.404 20.863 111.396 20.845 111.388 20.826 111.38 20.826 111.38 20.808 111.372 20.791 111.364 20.773 111.356 20.755 111.347 20.737 111.338 20.72 111.33 20.702 111.321 20.685 111.312 20.685 111.312 20.668 111.303 20.651 111.293 20.634 111.284 20.617 111.275 20.6 111.265 20.584 111.255 20.567 111.245 20.551 111.235 20.551 111.235 20.534 111.225 20.518 111.215 20.502 111.205 20.487 111.194 20.471 111.184 20.455 111.173 20.44 111.162 20.424 111.151 20.424 111.151 20.409 111.14 20.394 111.129 20.379 111.117 20.364 111.106 20.349 111.094 20.334 111.082 20.32 111.071 20.306 111.058 20.306 111.058 20.291 111.046 20.277 111.034 20.263 111.022 20.25 111.009 20.236 110.997 20.222 110.984 20.209 110.971 20.196 110.958 20.196 110.958 20.183 110.945 20.17 110.932 20.157 110.918 20.144 110.905 20.131 110.891 20.119 110.878 20.107 110.864 20.095 110.85 20.095 110.85 20.083 110.836 20.071 110.821 20.059 110.807 20.048 110.792 20.036 110.778 20.025 110.763 20.014 110.748 20.003 110.733 20.003 110.733 19.992 110.718 19.982 110.703 19.971 110.688 19.961 110.672 19.951 110.656 19.941 110.641 19.931 110.625 19.922 110.609 19.922 110.609 19.912 110.593 19.903 110.576 19.894 110.56 19.885 110.544 19.876 110.527 19.867 110.51 19.859 110.493 19.85 110.477 19.85 110.477 19.842 110.459 19.834 110.442 19.826 110.425 19.819 110.407 19.811 110.39 19.804 110.372 19.797 110.354 19.79 110.336 19.79 110.336 19.783 110.318 19.776 110.3 19.77 110.281 19.764 110.263 19.758 110.244 19.752 110.226 19.746 110.207 19.741 110.188 19.741 110.188 19.735 110.169 19.73 110.15 19.725 110.13 19.72 110.111 19.716 110.091 19.711 110.072 19.707 110.052 19.703 110.032 19.703 110.032 19.699 110.012 19.696 109.991 19.692 109.971 19.689 109.951 19.686 109.93 19.683 109.91 19.68 109.889 19.678 109.868 19.678 109.868 19.676 109.847 19.673 109.826 19.672 109.804 19.67 109.783 19.668 109.761 19.667 109.74 19.666 109.718 19.665 109.697 19.665 109.697 19.664 109.674 19.664 109.652 19.664 109.629 19.663 109.607 19.664 109.584 19.664 109.562 19.664 109.54 19.665 109.517 19.665 109.517 19.666 109.494 19.667 109.47 19.669 109.447 19.67 109.423 19.672 109.4 19.674 109.377 19.676 109.353 19.679 109.33 19.679 109.33 19.682 109.305 19.685 109.281 19.688 109.256 19.691 109.232 19.695 109.208 19.698 109.183 19.702 109.159 19.706 109.135 19.706 109.135 19.711 109.109 19.716 109.084 19.721 109.058 19.726 109.033 19.731 109.008 19.737 108.982 19.742 108.957 19.748 108.932 19.748 108.932 19.754 108.905 19.761 108.879 19.768 108.852 19.775 108.826 19.782 108.8 19.789 108.774 19.797 108.747 19.805 108.721 19.805 108.721 19.813 108.694 19.821 108.666 19.83 108.639 19.839 108.612 19.848 108.584 19.857 108.557 19.867 108.53 19.876 108.503 19.876 108.503 19.887 108.474 19.897 108.446 19.908 108.417 19.918 108.389 19.929 108.361 19.941 108.333 19.952 108.305 19.964 108.277 19.964 108.277 19.976 108.247 19.988 108.218 20.001 108.188 20.014 108.159 20.027 108.13 20.04 108.101 20.053 108.072 20.067 108.043 20.067 108.043 20.096 107.981 20.126 107.919 20.157 107.858 20.189 107.797 20.221 107.736 20.254 107.676 20.287 107.616 20.321 107.556 21.243 105.944 23.316 105.944 21.78 108.751 21.775 108.761 21.77 108.772 21.766 108.782 21.761 108.793 21.757 108.803 21.753 108.814 21.748 108.824 21.744 108.835 21.744 108.835 21.74 108.845 21.736 108.855 21.732 108.865 21.728 108.875 21.724 108.886 21.721 108.896 21.717 108.906 21.713 108.916 21.713 108.916 21.71 108.926 21.707 108.936 21.703 108.946 21.7 108.956 21.697 108.966 21.694 108.975 21.691 108.985 21.688 108.995 21.688 108.995 21.686 109.005 21.683 109.014 21.68 109.024 21.678 109.033 21.675 109.043 21.673 109.052 21.671 109.062 21.669 109.071 21.669 109.071 21.666 109.081 21.664 109.09 21.662 109.099 21.661 109.108 21.659 109.117 21.657 109.126 21.655 109.136 21.654 109.145 21.654 109.145 21.652 109.154 21.651 109.162 21.65 109.171 21.648 109.18 21.647 109.189 21.646 109.198 21.645 109.207 21.644 109.216 21.644 109.216 21.643 109.224 21.642 109.232 21.642 109.241 21.641 109.249 21.64 109.258 21.64 109.266 21.639 109.275 21.639 109.283 21.639 109.283 21.639 109.291 21.639 109.3 21.639 109.308 21.638 109.316 21.639 109.324 21.639 109.332 21.639 109.34 21.639 109.348 21.639 109.348 21.639 109.356 21.64 109.364 21.64 109.372 21.641 109.38 21.641 109.387 21.642 109.395 21.643 109.403 21.644 109.411 21.644 109.411 21.644 109.418 21.645 109.425 21.646 109.433 21.647 109.44 21.648 109.448 21.65 109.455 21.651 109.462 21.652 109.47 21.652 109.47 21.654 109.477 21.655 109.484 21.657 109.491 21.658 109.498 21.66 109.505 21.662 109.512 21.664 109.519 21.666 109.526 21.666 109.526 21.668 109.533 21.67 109.54 21.672 109.546 21.674 109.553 21.676 109.56 21.678 109.566 21.681 109.573 21.683 109.579 21.683 109.579 21.686 109.586 21.688 109.592 21.691 109.599 21.693 109.605 21.696 109.611 21.699 109.617 21.702 109.624 21.705 109.63 21.705 109.63 21.708 109.636 21.711 109.642 21.714 109.648 21.717 109.654 21.72 109.659 21.724 109.665 21.727 109.671 21.73 109.677 21.73 109.677 21.734 109.683 21.737 109.688 21.741 109.694 21.744 109.699 21.748 109.705 21.752 109.71 21.756 109.716 21.76 109.721 21.76 109.721 21.764 109.726 21.768 109.731 21.772 109.737 21.776 109.742 21.78 109.747 21.784 109.752 21.788 109.757 21.793 109.762 21.793 109.762 21.797 109.767 21.802 109.772 21.806 109.776 21.811 109.781 21.815 109.786 21.82 109.79 21.825 109.795 21.829 109.8 21.829 109.8 21.834 109.804 21.839 109.809 21.844 109.813 21.849 109.817 21.854 109.821 21.859 109.826 21.864 109.83 21.869 109.834 21.869 109.834 21.875 109.838 21.88 109.842 21.885 109.846 21.891 109.85 21.896 109.854 21.902 109.858 21.907 109.861 21.913 109.865 21.913 109.865 21.918 109.869 21.924 109.873 21.93 109.876 21.936 109.88 21.942 109.883 21.947 109.886 21.953 109.89 21.959 109.893 21.959 109.893 21.965 109.896 21.971 109.899 21.978 109.903 21.984 109.906 21.99 109.909 21.996 109.912 22.002 109.915 22.009 109.918 22.009 109.918 22.015 109.92 22.022 109.923 22.028 109.926 22.035 109.929 22.041 109.931 22.048 109.934 22.054 109.936 22.061 109.939 22.061 109.939 22.068 109.941 22.075 109.943 22.082 109.946 22.089 109.948 22.095 109.95 22.102 109.952 22.109 109.954 22.116 109.956 22.116 109.956 22.123 109.958 22.131 109.96 22.138 109.962 22.145 109.964 22.152 109.966 22.16 109.967 22.167 109.969 22.174 109.97 22.174 109.97 22.182 109.972 22.189 109.973 22.197 109.975 22.204 109.976 22.212 109.978 22.219 109.979 22.227 109.98 22.234 109.981 22.234 109.981 22.242 109.982 22.25 109.983 22.258 109.984 22.266 109.985 22.273 109.986 22.281 109.987 22.289 109.988 22.297 109.988 22.297 109.988 22.306 109.989 22.314 109.99 22.323 109.99 22.331 109.991 22.34 109.991 22.348 109.991 22.357 109.992 22.366 109.992 22.366 109.992 22.375 109.992 22.385 109.992 22.395 109.992 22.404 109.992 22.414 109.992 22.424 109.992 22.433 109.992 22.443 109.992 22.443 109.992 22.454 109.991 22.464 109.991 22.475 109.991 22.485 109.99 22.496 109.99 22.506 109.989 22.517 109.989 22.528 109.988 22.528 109.988 22.539 109.987 22.549 109.987 22.56 109.986 22.571 109.985 22.582 109.984 22.593 109.983 22.604 109.982 22.615 109.98 22.615 109.98 22.626 109.979 22.636 109.978 22.647 109.976 22.658 109.975 22.668 109.974 22.679 109.972 22.69 109.97 22.701 109.969 22.701 109.969 22.711 109.967 22.722 109.965 22.732 109.963 22.743 109.961 22.754 109.959 22.764 109.957 22.775 109.955 22.785 109.953 22.785 109.953 22.796 109.95 22.806 109.948 22.817 109.945 22.827 109.943 22.838 109.94 22.848 109.937 22.858 109.935 22.869 109.932 22.869 109.932 22.879 109.929 22.89 109.926 22.9 109.923 22.91 109.92 22.921 109.916 22.931 109.913 22.941 109.91 22.952 109.906 22.952 109.906 22.962 109.903 22.972 109.899 22.982 109.895 22.993 109.892 23.003 109.888 23.013 109.884 23.023 109.88 23.034 109.876 23.034 109.876 23.044 109.872 23.054 109.867 23.064 109.863 23.074 109.859 23.085 109.854 23.095 109.85 23.105 109.845 23.115 109.84 23.115 109.84 23.125 109.835 23.135 109.83 23.146 109.825 23.156 109.82 23.166 109.815 23.176 109.81 23.186 109.805 23.196 109.8 23.196 109.8 23.206 109.794 23.216 109.788 23.227 109.783 23.237 109.777 23.247 109.771 23.257 109.765 23.267 109.759 23.277 109.753 23.277 109.753 23.287 109.747 23.297 109.74 23.307 109.734 23.317 109.727 23.328 109.721 23.338 109.714 23.348 109.708 23.358 109.701 23.358 109.701 23.368 109.694 23.378 109.687 23.388 109.679 23.398 109.672 23.408 109.665 23.418 109.658 23.428 109.65 23.438 109.643 23.438 109.643 23.449 109.635 23.459 109.627 23.469 109.619 23.479 109.611 23.489 109.603 23.5 109.595 23.51 109.587 23.52 109.578 23.52 109.578 23.53 109.57 23.54 109.561 23.55 109.552 23.561 109.544 23.571 109.535 23.581 109.526 23.591 109.517 23.601 109.508 23.601 109.508 23.612 109.498 23.622 109.489 23.632 109.479 23.643 109.47 23.653 109.46 23.663 109.45 23.673 109.441 23.683 109.431 23.683 109.431 23.694 109.42 23.704 109.41 23.715 109.4 23.725 109.389 23.736 109.379 23.746 109.368 23.756 109.357 23.767 109.347 23.767 109.347 23.777 109.336 23.788 109.324 23.798 109.313 23.809 109.302 23.819 109.29 23.83 109.279 23.84 109.268 23.851 109.256 23.851 109.256 23.861 109.244 23.872 109.232 23.883 109.22 23.893 109.207 23.904 109.195 23.915 109.183 23.925 109.17 23.936 109.158 23.936 109.158 23.947 109.145 23.957 109.132 23.968 109.119 23.979 109.106 23.99 109.093 24.001 109.079 24.011 109.066 24.022 109.053 24.022 109.053 24.033 109.039 24.044 109.025 24.055 109.011 24.066 108.997 24.077 108.983 24.088 108.968 24.099 108.954 24.11 108.94 24.11 108.94 24.121 108.925 24.133 108.91 24.144 108.895 24.155 108.88 24.166 108.865 24.177 108.85 24.189 108.835 24.2 108.82 24.2 108.82 24.211 108.804 24.223 108.788 24.234 108.772 24.246 108.756 24.257 108.74 24.268 108.723 24.28 108.707 24.291 108.691 24.291 108.691 24.303 108.674 24.315 108.657 24.326 108.64 24.338 108.623 24.35 108.606 24.361 108.589 24.373 108.572 24.384 108.555 24.384 108.555 24.396 108.537 24.409 108.519 24.421 108.5 24.433 108.482 24.444 108.464 24.456 108.446 24.468 108.428 24.48 108.41 24.48 108.41 24.492 108.391 24.505 108.372 24.517 108.352 24.529 108.333 24.541 108.314 24.554 108.295 24.566 108.276 24.578 108.256 24.578 108.256 24.591 108.236 24.603 108.216 24.616 108.196 24.628 108.176 24.641 108.155 24.653 108.135 24.666 108.115 24.678 108.094 24.678 108.094 24.691 108.073 24.704 108.052 24.717 108.03 24.73 108.009 24.743 107.987 24.756 107.966 24.769 107.945 24.781 107.923 24.781 107.923 24.808 107.878 24.835 107.832 24.862 107.786 24.889 107.74 24.915 107.694 24.942 107.648 24.968 107.602 24.995 107.556 25.324 106.964 25.347 106.922 25.369 106.879 25.391 106.836 25.413 106.793 25.434 106.75 25.454 106.706 25.475 106.663 25.494 106.619 25.494 106.619 25.503 106.598 25.512 106.578 25.52 106.557 25.529 106.537 25.537 106.516 25.545 106.496 25.553 106.475 25.561 106.454 25.561 106.454 25.568 106.434 25.575 106.415 25.582 106.395 25.589 106.375 25.596 106.355 25.602 106.336 25.609 106.316 25.615 106.296 25.615 106.296 25.621 106.277 25.626 106.258 25.632 106.238 25.637 106.219 25.642 106.2 25.647 106.181 25.652 106.162 25.656 106.142 25.656 106.142 25.66 106.124 25.664 106.105 25.668 106.087 25.672 106.068 25.675 106.05 25.678 106.031 25.682 106.012 25.684 105.994 25.684 105.994 25.687 105.976 25.689 105.957 25.692 105.939 25.694 105.921 25.696 105.903 25.697 105.885 25.699 105.867 25.7 105.849 25.7 105.849 25.701 105.831 25.702 105.813 25.702 105.796 25.703 105.778 25.703 105.76 25.703 105.742 25.703 105.725 25.702 105.707 25.702 105.707 25.702 105.689 25.701 105.672 25.7 105.654 25.699 105.637 25.697 105.62 25.696 105.602 25.694 105.585 25.692 105.567 25.692 105.567 25.689 105.55 25.687 105.533 25.684 105.516 25.682 105.498 25.678 105.481 25.675 105.464 25.672 105.447 25.668 105.43 25.668 105.43 25.664 105.412 25.66 105.395 25.656 105.378 25.651 105.361 25.647 105.344 25.642 105.327 25.637 105.31 25.632 105.293 25.521 105.022 24.764 103.541 24.736 103.487 24.709 103.432 24.682 103.377 24.656 103.321 24.63 103.265 24.605 103.209 24.581 103.153 24.557 103.097 24.557 103.097 24.545 103.069 24.534 103.042 24.523 103.014 24.512 102.987 24.501 102.959 24.491 102.932 24.48 102.904 24.47 102.876 24.47 102.876 24.46 102.849 24.45 102.821 24.44 102.794 24.431 102.766 24.421 102.739 24.412 102.711 24.403 102.684 24.394 102.656 24.394 102.656 24.386 102.629 24.378 102.602 24.369 102.575 24.361 102.547 24.354 102.52 24.346 102.493 24.338 102.465 24.331 102.438 24.331 102.438 24.324 102.411 24.317 102.383 24.311 102.356 24.304 102.329 24.298 102.302 24.292 102.275 24.286 102.247 24.28 102.22 24.28 102.22 24.275 102.193 24.27 102.166 24.265 102.139 24.26 102.112 24.255 102.085 24.25 102.058 24.246 102.03 24.242 102.003 24.242 102.003 24.238 101.976 24.235 101.949 24.231 101.922 24.228 101.895 24.225 101.868 24.222 101.841 24.219 101.814 24.217 101.787 24.217 101.787 24.214 101.76 24.212 101.733 24.211 101.706 24.209 101.679 24.208 101.652 24.206 101.625 24.205 101.598 24.205 101.571 24.205 101.571 24.204 101.544 24.204 101.517 24.203 101.49 24.203 101.463 24.204 101.436 24.204 101.409 24.205 101.382 24.206 101.356 24.206 101.356 24.207 101.329 24.208 101.302 24.21 101.275 24.212 101.248 24.214 101.221 24.216 101.194 24.218 101.167 24.221 101.14 24.221 101.14 24.224 101.113 24.227 101.086 24.23 101.059 24.234 101.032 24.237 101.005 24.241 100.978 24.245 100.951 24.25 100.925 24.25 100.925 24.254 100.898 24.259 100.87 24.264 100.843 24.27 100.816 24.275 100.79 24.281 100.763 24.287 100.736 24.293 100.709 24.293 100.709 24.299 100.682 24.306 100.655 24.313 100.628 24.32 100.6 24.328 100.574 24.335 100.547 24.343 100.52 24.351 100.493 24.351 100.493 24.359 100.466 24.368 100.438 24.377 100.411 24.386 100.384 24.395 100.357 24.404 100.33 24.414 100.303 24.424 100.276 24.424 100.276 24.434 100.249 24.444 100.222 24.455 100.194 24.466 100.167 24.477 100.14 24.488 100.113 24.499 100.086 24.511 100.059 24.511 100.059 24.536 100.003 24.562 99.948 24.588 99.893 24.615 99.839 24.643 99.785 24.672 99.731 24.701 99.677 24.731 99.625 28.352 93.536 28.384 93.482 28.417 93.428 28.451 93.375 28.486 93.322 28.521 93.27 28.558 93.219 28.595 93.168 28.633 93.117 28.633 93.117 28.652 93.093 28.67 93.069 28.69 93.046 28.709 93.022 28.728 92.998 28.748 92.975 28.768 92.952 28.788 92.929 28.788 92.929 28.808 92.907 28.828 92.884 28.848 92.862 28.868 92.841 28.889 92.819 28.91 92.797 28.931 92.776 28.952 92.755 28.952 92.755 28.973 92.734 28.994 92.714 29.015 92.694 29.036 92.673 29.058 92.653 29.08 92.634 29.101 92.614 29.124 92.595 29.124 92.595 29.145 92.576 29.167 92.557 29.19 92.538 29.212 92.52 29.235 92.502 29.257 92.483 29.28 92.466 29.303 92.448 29.303 92.448 29.326 92.43 29.349 92.413 29.372 92.396 29.395 92.379 29.419 92.363 29.442 92.346 29.466 92.33 29.49 92.314 29.49 92.314 29.514 92.298 29.538 92.282 29.562 92.267 29.586 92.252 29.61 92.237 29.634 92.222 29.659 92.207 29.684 92.192 29.684 92.192 29.708 92.178 29.733 92.164 29.758 92.15 29.783 92.136 29.808 92.123 29.833 92.109 29.858 92.096 29.884 92.083 29.884 92.083 29.909 92.07 29.935 92.057 29.96 92.045 29.986 92.032 30.012 92.02 30.038 92.008 30.064 91.996 30.09 91.985 30.09 91.985 30.116 91.973 30.142 91.962 30.169 91.951 30.195 91.94 30.222 91.929 30.248 91.918 30.275 91.908 30.302 91.898 30.302 91.898 30.328 91.888 30.355 91.878 30.382 91.868 30.41 91.858 30.437 91.849 30.464 91.839 30.491 91.83 30.518 91.821 30.518 91.821 30.546 91.812 30.573 91.804 30.601 91.795 30.629 91.787 30.656 91.779 30.684 91.77 30.712 91.763 30.74 91.755 30.74 91.755 30.768 91.747 30.796 91.74 30.824 91.732 30.852 91.725 30.881 91.718 30.909 91.711 30.937 91.704 30.966 91.698 30.966 91.698 30.994 91.691 31.023 91.685 31.052 91.679 31.08 91.673 31.109 91.667 31.138 91.661 31.167 91.656 31.195 91.65 31.429 91.611 31.458 91.607 31.487 91.602 31.517 91.598 31.546 91.595 31.576 91.591 31.605 91.587 31.635 91.584 31.665 91.58 31.665 91.58 31.694 91.577 31.724 91.574 31.754 91.57 31.784 91.567 31.814 91.565 31.843 91.562 31.873 91.559 31.903 91.557 31.903 91.557 31.933 91.554 31.963 91.552 31.993 91.55 32.024 91.548 32.054 91.546 32.084 91.544 32.114 91.542 32.144 91.541 32.144 91.541 32.205 91.538 32.266 91.535 32.326 91.533 32.387 91.532 32.448 91.53 32.509 91.529 32.569 91.529 32.63 91.529 32.926 91.529 34.44 94.425 31.149 100.283 29.076 100.283 32.334 94.491 31.709 93.273" class="fil0 str0"/><polygon id="_132511232" fill="none" stroke="#000" stroke-width=".1" points="37.139 104.43 38.028 102.818 36.119 102.818 40.299 93.339 43.359 93.339 44.281 91.694 39.048 91.694 34.078 102.818 32.926 102.818 28.088 111.441 33.19 111.441 34.111 109.795 31.116 109.795 34.144 104.43"/><polygon id="_131839120" fill="none" stroke="#000" stroke-width=".1" points="49.712 91.694 47.638 91.694 36.547 111.441 41.45 111.441 42.372 109.795 39.542 109.795"/><polygon id="_131531760" fill="none" stroke="#000" stroke-width=".1" points="62.843 104.43 63.732 102.818 61.823 102.818 65.97 93.339 69.064 93.339 69.986 91.694 64.752 91.694 59.783 102.818 58.631 102.818 53.793 111.441 58.894 111.441 59.816 109.795 56.788 109.795 59.816 104.43"/><polygon id="_131379720_1" fill="none" stroke="#000" stroke-width=".1" points="96.414 108.577 105.859 91.694 103.754 91.694 94.867 107.557 94.838 107.61 94.81 107.664 94.782 107.718 94.755 107.772 94.728 107.826 94.701 107.88 94.675 107.935 94.65 107.99 94.65 107.99 94.638 108.016 94.626 108.042 94.615 108.068 94.603 108.094 94.592 108.12 94.581 108.147 94.57 108.173 94.559 108.199 94.559 108.199 94.549 108.224 94.539 108.25 94.528 108.275 94.519 108.3 94.509 108.326 94.499 108.351 94.49 108.377 94.48 108.402 94.48 108.402 94.471 108.427 94.462 108.451 94.454 108.476 94.445 108.5 94.437 108.525 94.429 108.549 94.421 108.574 94.413 108.599 94.413 108.599 94.405 108.622 94.398 108.646 94.391 108.67 94.384 108.694 94.377 108.718 94.37 108.741 94.363 108.765 94.357 108.789 94.357 108.789 94.351 108.812 94.345 108.835 94.339 108.858 94.333 108.881 94.328 108.904 94.322 108.927 94.317 108.95 94.312 108.974 94.312 108.974 94.307 108.996 94.303 109.018 94.298 109.04 94.294 109.062 94.29 109.085 94.286 109.107 94.282 109.129 94.278 109.152 94.278 109.152 94.275 109.173 94.272 109.195 94.268 109.216 94.265 109.237 94.263 109.259 94.26 109.28 94.257 109.302 94.255 109.324 94.255 109.324 94.253 109.344 94.251 109.365 94.249 109.386 94.247 109.406 94.246 109.427 94.244 109.448 94.243 109.469 94.242 109.489 94.242 109.489 94.241 109.509 94.24 109.529 94.24 109.549 94.239 109.569 94.239 109.589 94.239 109.609 94.239 109.629 94.239 109.649 94.239 109.649 94.239 109.668 94.24 109.687 94.24 109.706 94.241 109.726 94.242 109.745 94.243 109.764 94.244 109.783 94.246 109.802 94.246 109.802 94.247 109.821 94.249 109.839 94.251 109.858 94.253 109.876 94.255 109.895 94.257 109.913 94.259 109.931 94.262 109.95 94.262 109.95 94.265 109.967 94.267 109.985 94.27 110.003 94.273 110.02 94.277 110.038 94.28 110.056 94.284 110.073 94.287 110.091 94.287 110.091 94.291 110.108 94.295 110.125 94.299 110.142 94.303 110.159 94.308 110.175 94.312 110.192 94.317 110.209 94.322 110.226 94.322 110.226 94.327 110.242 94.332 110.258 94.337 110.274 94.342 110.29 94.348 110.307 94.353 110.323 94.359 110.339 94.365 110.354 94.365 110.354 94.371 110.37 94.377 110.385 94.383 110.401 94.39 110.416 94.396 110.431 94.403 110.447 94.41 110.462 94.417 110.477 94.417 110.477 94.424 110.492 94.431 110.507 94.438 110.521 94.445 110.536 94.453 110.55 94.461 110.565 94.468 110.579 94.476 110.593 94.476 110.593 94.484 110.607 94.493 110.621 94.501 110.635 94.509 110.649 94.518 110.663 94.526 110.677 94.535 110.69 94.544 110.704 94.544 110.704 94.553 110.717 94.562 110.73 94.571 110.743 94.581 110.756 94.59 110.769 94.6 110.782 94.609 110.795 94.619 110.808 94.619 110.808 94.629 110.82 94.639 110.833 94.649 110.845 94.66 110.858 94.67 110.87 94.68 110.882 94.691 110.894 94.702 110.906 94.702 110.906 94.713 110.918 94.724 110.929 94.735 110.941 94.746 110.952 94.757 110.964 94.768 110.975 94.78 110.986 94.791 110.997 94.791 110.997 94.803 111.008 94.815 111.019 94.827 111.03 94.839 111.041 94.851 111.052 94.863 111.062 94.875 111.073 94.888 111.083 94.888 111.083 94.9 111.093 94.913 111.103 94.926 111.114 94.938 111.124 94.951 111.133 94.964 111.143 94.977 111.153 94.99 111.162 94.99 111.162 95.004 111.172 95.017 111.181 95.031 111.191 95.044 111.2 95.058 111.209 95.072 111.218 95.086 111.227 95.099 111.236 95.099 111.236 95.114 111.244 95.128 111.253 95.142 111.262 95.156 111.27 95.171 111.278 95.185 111.287 95.2 111.295 95.214 111.303 95.214 111.303 95.229 111.311 95.244 111.319 95.259 111.326 95.274 111.334 95.289 111.342 95.305 111.349 95.32 111.357 95.335 111.364 95.335 111.364 95.351 111.371 95.366 111.378 95.382 111.385 95.398 111.392 95.413 111.399 95.429 111.406 95.445 111.412 95.461 111.419 95.461 111.419 95.477 111.425 95.494 111.432 95.51 111.438 95.526 111.444 95.543 111.45 95.559 111.456 95.576 111.462 95.592 111.467 95.592 111.467 95.609 111.473 95.626 111.479 95.643 111.484 95.66 111.49 95.677 111.495 95.694 111.5 95.711 111.505 95.728 111.51 95.728 111.51 95.746 111.515 95.763 111.52 95.781 111.524 95.798 111.529 95.816 111.534 95.833 111.538 95.851 111.542 95.869 111.547 95.869 111.547 95.887 111.551 95.905 111.555 95.923 111.559 95.941 111.563 95.959 111.566 95.977 111.57 95.995 111.573 96.013 111.577 96.013 111.577 96.032 111.58 96.051 111.584 96.069 111.587 96.088 111.59 96.106 111.593 96.125 111.596 96.144 111.599 96.162 111.601 96.162 111.601 96.181 111.604 96.2 111.606 96.219 111.609 96.238 111.611 96.258 111.613 96.277 111.616 96.296 111.618 96.315 111.62 96.315 111.62 96.334 111.621 96.354 111.623 96.373 111.625 96.393 111.626 96.412 111.628 96.432 111.629 96.451 111.63 96.471 111.632 96.471 111.632 96.491 111.633 96.511 111.634 96.532 111.635 96.552 111.635 96.572 111.636 96.593 111.637 96.613 111.637 96.633 111.638 96.633 111.638 96.654 111.638 96.675 111.638 96.696 111.638 96.718 111.638 96.739 111.638 96.76 111.638 96.781 111.638 96.802 111.638 96.802 111.638 96.824 111.637 96.845 111.637 96.867 111.636 96.889 111.636 96.91 111.635 96.932 111.634 96.953 111.633 96.975 111.632 96.975 111.632 96.997 111.631 97.018 111.63 97.04 111.628 97.061 111.627 97.083 111.625 97.104 111.624 97.126 111.622 97.147 111.62 97.147 111.62 97.168 111.619 97.189 111.617 97.21 111.615 97.231 111.612 97.252 111.61 97.273 111.608 97.294 111.606 97.315 111.603 97.315 111.603 97.335 111.6 97.356 111.598 97.376 111.595 97.396 111.592 97.417 111.589 97.437 111.586 97.458 111.583 97.478 111.58 97.478 111.58 97.498 111.576 97.518 111.573 97.538 111.57 97.558 111.566 97.578 111.562 97.598 111.558 97.617 111.555 97.637 111.551 97.637 111.551 97.657 111.547 97.676 111.543 97.696 111.538 97.715 111.534 97.735 111.53 97.754 111.525 97.773 111.52 97.793 111.516 97.793 111.516 97.812 111.511 97.831 111.506 97.85 111.501 97.869 111.496 97.888 111.491 97.907 111.486 97.925 111.48 97.944 111.475 97.944 111.475 97.963 111.469 97.982 111.464 98 111.458 98.019 111.452 98.037 111.446 98.056 111.44 98.074 111.434 98.092 111.428 98.092 111.428 98.111 111.422 98.129 111.415 98.147 111.409 98.165 111.402 98.183 111.396 98.201 111.389 98.219 111.382 98.237 111.375 98.237 111.375 98.255 111.368 98.273 111.361 98.291 111.354 98.308 111.347 98.326 111.339 98.344 111.332 98.361 111.324 98.379 111.317 98.379 111.317 98.396 111.309 98.414 111.301 98.431 111.293 98.448 111.285 98.466 111.277 98.483 111.269 98.5 111.26 98.517 111.252 98.517 111.252 98.535 111.243 98.552 111.235 98.569 111.226 98.586 111.217 98.603 111.208 98.62 111.199 98.637 111.19 98.653 111.181 98.653 111.181 98.67 111.172 98.687 111.163 98.704 111.153 98.72 111.144 98.737 111.134 98.754 111.124 98.77 111.115 98.787 111.105 98.787 111.105 98.803 111.095 98.82 111.085 98.836 111.074 98.852 111.064 98.869 111.054 98.885 111.043 98.901 111.033 98.917 111.022 98.917 111.022 98.934 111.011 98.95 111 98.966 110.989 98.982 110.978 98.998 110.967 99.014 110.956 99.03 110.945 99.046 110.933 99.046 110.933 99.062 110.922 99.078 110.91 99.094 110.898 99.11 110.887 99.125 110.875 99.141 110.863 99.157 110.851 99.172 110.839 99.172 110.839 99.188 110.826 99.204 110.814 99.22 110.801 99.235 110.789 99.251 110.776 99.266 110.764 99.282 110.751 99.297 110.738 99.297 110.738 99.313 110.725 99.328 110.712 99.343 110.698 99.359 110.685 99.374 110.672 99.389 110.658 99.405 110.645 99.42 110.631 99.42 110.631 99.435 110.617 99.451 110.603 99.466 110.589 99.481 110.575 99.496 110.561 99.511 110.547 99.526 110.533 99.541 110.518 99.541 110.518 99.556 110.504 99.572 110.489 99.587 110.474 99.602 110.459 99.617 110.444 99.632 110.429 99.646 110.414 99.661 110.399 99.661 110.399 99.676 110.384 99.691 110.368 99.706 110.353 99.721 110.337 99.736 110.321 99.751 110.306 99.765 110.29 99.78 110.274 99.78 110.274 99.795 110.258 99.81 110.242 99.825 110.225 99.839 110.209 99.854 110.193 99.869 110.176 99.883 110.16 99.898 110.143 99.898 110.143 99.913 110.126 99.928 110.109 99.942 110.092 99.957 110.075 99.972 110.058 99.986 110.04 100.001 110.023 100.015 110.006 100.015 110.006 100.03 109.988 100.044 109.97 100.059 109.952 100.074 109.934 100.088 109.916 100.103 109.898 100.117 109.88 100.131 109.862 100.131 109.862 100.146 109.844 100.161 109.825 100.175 109.806 100.19 109.788 100.204 109.769 100.219 109.75 100.233 109.731 100.248 109.712 100.248 109.712 100.262 109.693 100.277 109.674 100.291 109.654 100.306 109.635 100.32 109.615 100.335 109.596 100.349 109.576 100.363 109.557 100.363 109.557 100.378 109.536 100.393 109.516 100.407 109.496 100.422 109.476 100.436 109.456 100.451 109.435 100.465 109.415 100.479 109.394 100.479 109.394 100.494 109.374 100.509 109.353 100.523 109.332 100.538 109.311 100.552 109.29 100.566 109.268 100.581 109.247 100.595 109.226 100.595 109.226 100.61 109.204 100.625 109.183 100.639 109.161 100.654 109.139 100.668 109.117 100.683 109.095 100.697 109.074 100.711 109.052 100.711 109.052 100.726 109.029 100.741 109.007 100.756 108.984 100.77 108.961 100.785 108.939 100.799 108.916 100.814 108.894 100.828 108.871 100.828 108.871 100.843 108.848 100.858 108.824 100.873 108.801 100.887 108.778 100.902 108.754 100.916 108.731 100.931 108.707 100.946 108.684 100.946 108.684 100.961 108.66 100.975 108.636 100.99 108.611 101.005 108.587 101.02 108.563 101.035 108.539 101.049 108.515 101.064 108.49 101.064 108.49 101.079 108.466 101.094 108.441 101.109 108.416 101.124 108.391 101.139 108.366 101.154 108.341 101.168 108.316 101.183 108.291 101.183 108.291 101.198 108.265 101.214 108.239 101.229 108.214 101.244 108.188 101.259 108.162 101.274 108.136 101.289 108.111 101.304 108.085 101.304 108.085 101.335 108.031 101.366 107.978 101.396 107.924 101.427 107.871 101.457 107.817 101.488 107.763 101.518 107.71 101.548 107.656 110.5 91.694 108.394 91.694 99.508 107.557 99.48 107.604 99.453 107.65 99.425 107.697 99.398 107.744 99.37 107.79 99.342 107.837 99.314 107.883 99.286 107.93 99.286 107.93 99.273 107.951 99.26 107.973 99.247 107.995 99.233 108.017 99.22 108.038 99.207 108.06 99.194 108.082 99.18 108.103 99.18 108.103 99.168 108.124 99.155 108.144 99.142 108.165 99.129 108.186 99.116 108.206 99.104 108.227 99.091 108.247 99.078 108.268 99.078 108.268 99.065 108.287 99.053 108.307 99.041 108.326 99.028 108.345 99.016 108.365 99.004 108.384 98.991 108.404 98.979 108.423 98.979 108.423 98.967 108.441 98.955 108.46 98.943 108.478 98.931 108.496 98.919 108.515 98.907 108.533 98.894 108.551 98.882 108.569 98.882 108.569 98.871 108.587 98.859 108.604 98.848 108.621 98.836 108.639 98.824 108.656 98.812 108.673 98.801 108.69 98.789 108.707 98.789 108.707 98.778 108.724 98.766 108.74 98.755 108.756 98.744 108.772 98.732 108.789 98.721 108.805 98.709 108.821 98.698 108.837 98.698 108.837 98.687 108.852 98.676 108.868 98.665 108.883 98.654 108.898 98.643 108.913 98.632 108.928 98.62 108.943 98.609 108.958 98.609 108.958 98.599 108.973 98.588 108.987 98.577 109.001 98.566 109.015 98.555 109.03 98.545 109.044 98.534 109.058 98.523 109.072 98.523 109.072 98.512 109.085 98.502 109.099 98.491 109.112 98.481 109.125 98.47 109.138 98.459 109.151 98.449 109.165 98.438 109.178 98.438 109.178 98.428 109.19 98.417 109.202 98.407 109.215 98.397 109.227 98.386 109.239 98.376 109.251 98.365 109.264 98.355 109.276 98.355 109.276 98.344 109.287 98.334 109.299 98.324 109.31 98.314 109.321 98.304 109.333 98.293 109.344 98.283 109.355 98.273 109.367 98.273 109.367 98.263 109.377 98.253 109.388 98.243 109.398 98.233 109.409 98.222 109.419 98.212 109.43 98.202 109.44 98.192 109.45 98.192 109.45 98.182 109.46 98.172 109.47 98.162 109.479 98.152 109.489 98.142 109.499 98.132 109.508 98.122 109.518 98.112 109.527 98.112 109.527 98.102 109.536 98.092 109.545 98.082 109.554 98.072 109.563 98.062 109.571 98.052 109.58 98.042 109.589 98.032 109.597 98.032 109.597 98.022 109.605 98.013 109.613 98.003 109.621 97.993 109.629 97.983 109.637 97.973 109.645 97.963 109.653 97.953 109.661 97.953 109.661 97.943 109.668 97.933 109.675 97.924 109.683 97.914 109.69 97.904 109.697 97.894 109.704 97.884 109.711 97.874 109.718 97.874 109.718 97.864 109.725 97.854 109.731 97.844 109.738 97.835 109.744 97.825 109.751 97.815 109.757 97.805 109.763 97.795 109.769 97.795 109.769 97.785 109.775 97.775 109.781 97.765 109.787 97.755 109.793 97.745 109.798 97.735 109.804 97.725 109.809 97.715 109.815 97.715 109.815 97.705 109.82 97.695 109.825 97.685 109.83 97.675 109.835 97.665 109.84 97.655 109.845 97.645 109.85 97.635 109.854 97.635 109.854 97.625 109.859 97.614 109.863 97.604 109.868 97.594 109.872 97.584 109.876 97.574 109.88 97.564 109.885 97.553 109.889 97.553 109.889 97.543 109.892 97.533 109.896 97.523 109.9 97.512 109.904 97.502 109.907 97.492 109.911 97.481 109.914 97.471 109.917 97.471 109.917 97.461 109.921 97.45 109.924 97.44 109.927 97.429 109.93 97.419 109.933 97.408 109.936 97.398 109.939 97.387 109.941 97.387 109.941 97.377 109.944 97.366 109.947 97.355 109.949 97.345 109.952 97.334 109.954 97.323 109.956 97.313 109.958 97.302 109.96 97.302 109.96 97.291 109.963 97.28 109.965 97.269 109.966 97.259 109.968 97.248 109.97 97.237 109.972 97.226 109.973 97.215 109.975 97.215 109.975 97.204 109.977 97.193 109.978 97.181 109.979 97.17 109.981 97.159 109.982 97.148 109.983 97.137 109.984 97.126 109.985 97.126 109.985 97.114 109.986 97.103 109.987 97.091 109.988 97.08 109.988 97.069 109.989 97.057 109.99 97.046 109.99 97.034 109.991 97.034 109.991 97.024 109.991 97.013 109.992 97.003 109.992 96.992 109.992 96.982 109.993 96.971 109.993 96.961 109.993 96.95 109.993 96.95 109.993 96.941 109.993 96.931 109.993 96.922 109.993 96.912 109.992 96.903 109.992 96.893 109.992 96.884 109.991 96.875 109.991 96.875 109.991 96.867 109.991 96.858 109.99 96.85 109.989 96.842 109.989 96.834 109.988 96.826 109.987 96.818 109.986 96.81 109.985 96.81 109.985 96.802 109.984 96.794 109.983 96.786 109.982 96.779 109.981 96.771 109.98 96.763 109.979 96.755 109.978 96.747 109.976 96.747 109.976 96.74 109.975 96.732 109.973 96.725 109.972 96.717 109.97 96.71 109.969 96.702 109.967 96.695 109.965 96.687 109.963 96.687 109.963 96.68 109.961 96.673 109.96 96.666 109.958 96.659 109.956 96.652 109.953 96.644 109.951 96.637 109.949 96.63 109.947 96.63 109.947 96.623 109.945 96.616 109.942 96.61 109.94 96.603 109.937 96.596 109.935 96.589 109.932 96.583 109.93 96.576 109.927 96.576 109.927 96.569 109.924 96.563 109.921 96.556 109.918 96.55 109.915 96.543 109.913 96.537 109.909 96.531 109.906 96.524 109.903 96.524 109.903 96.518 109.9 96.512 109.897 96.506 109.893 96.5 109.89 96.494 109.887 96.488 109.883 96.482 109.88 96.476 109.876 96.476 109.876 96.47 109.873 96.464 109.869 96.458 109.865 96.453 109.861 96.447 109.858 96.442 109.854 96.436 109.85 96.43 109.846 96.43 109.846 96.425 109.842 96.42 109.837 96.414 109.833 96.409 109.829 96.404 109.825 96.399 109.821 96.394 109.816 96.389 109.812 96.389 109.812 96.384 109.807 96.379 109.803 96.374 109.798 96.369 109.793 96.364 109.789 96.359 109.784 96.355 109.779 96.35 109.774 96.35 109.774 96.346 109.77 96.341 109.765 96.337 109.76 96.332 109.755 96.328 109.749 96.324 109.744 96.32 109.739 96.315 109.734 96.315 109.734 96.311 109.728 96.307 109.723 96.303 109.718 96.299 109.712 96.296 109.707 96.292 109.701 96.288 109.696 96.284 109.69 96.284 109.69 96.281 109.684 96.277 109.678 96.274 109.672 96.27 109.667 96.267 109.661 96.264 109.655 96.261 109.649 96.257 109.643 96.257 109.643 96.254 109.637 96.251 109.63 96.248 109.624 96.245 109.618 96.242 109.611 96.24 109.605 96.237 109.599 96.234 109.592 96.234 109.592 96.232 109.586 96.229 109.579 96.227 109.572 96.224 109.566 96.222 109.559 96.22 109.552 96.218 109.546 96.216 109.539 96.216 109.539 96.214 109.532 96.212 109.525 96.21 109.518 96.208 109.511 96.206 109.504 96.204 109.496 96.203 109.489 96.201 109.482 96.201 109.482 96.2 109.475 96.198 109.467 96.197 109.46 96.195 109.452 96.194 109.445 96.193 109.437 96.192 109.43 96.191 109.422 96.191 109.422 96.19 109.415 96.189 109.407 96.189 109.399 96.188 109.391 96.187 109.383 96.187 109.375 96.186 109.368 96.186 109.36 96.186 109.36 96.185 109.352 96.185 109.343 96.185 109.335 96.185 109.327 96.185 109.319 96.185 109.311 96.185 109.302 96.185 109.294 96.185 109.294 96.185 109.286 96.186 109.277 96.186 109.268 96.187 109.26 96.187 109.251 96.188 109.243 96.189 109.234 96.189 109.225 96.189 109.225 96.19 109.217 96.191 109.208 96.192 109.199 96.193 109.19 96.195 109.181 96.196 109.172 96.197 109.163 96.198 109.154 96.198 109.154 96.2 109.145 96.202 109.135 96.203 109.126 96.205 109.117 96.207 109.107 96.209 109.098 96.211 109.089 96.213 109.08 96.213 109.08 96.215 109.07 96.217 109.06 96.22 109.05 96.222 109.041 96.225 109.031 96.227 109.022 96.23 109.012 96.232 109.002 96.232 109.002 96.235 108.992 96.238 108.982 96.241 108.972 96.245 108.962 96.248 108.952 96.251 108.942 96.254 108.932 96.258 108.922 96.258 108.922 96.261 108.912 96.265 108.902 96.269 108.891 96.272 108.881 96.276 108.87 96.28 108.86 96.284 108.85 96.288 108.84 96.288 108.84 96.293 108.829 96.297 108.818 96.301 108.807 96.306 108.797 96.31 108.786 96.315 108.775 96.32 108.765 96.324 108.754 96.324 108.754 96.335 108.732 96.345 108.709 96.356 108.687 96.367 108.665 96.379 108.643 96.39 108.621 96.402 108.599 96.414 108.577" class="fil0 str0"/><polygon id="_132136424" fill="none" stroke="#000" stroke-width=".1" points="119.19 91.694 113.331 91.694 112.409 93.339 115.602 93.339 101.878 111.441 107.999 111.441 108.921 109.795 105.4 109.795"/><polygon id="_132150832" fill="none" stroke="#000" stroke-width=".1" points="127.451 91.694 121.592 91.694 120.67 93.339 123.863 93.339 110.139 111.441 116.26 111.441 117.181 109.795 113.66 109.795"/><polygon id="_132204424" fill="none" stroke="#000" stroke-width=".1" points="132.42 91.694 130.347 91.694 119.255 111.441 124.159 111.441 125.08 109.795 122.25 109.795"/><polygon id="_132141592" fill="none" stroke="#000" stroke-width=".1" points="135.678 104.43 136.568 102.818 134.658 102.818 138.805 93.339 141.899 93.339 142.82 91.694 137.554 91.694 132.618 102.818 131.433 102.818 126.595 111.441 131.729 111.441 132.65 109.795 129.623 109.795 132.65 104.43"/><g id="_131943304_1"><polyline id="_131943304___0" fill="none" stroke="#000" stroke-width=".1" points="145.881 91.694 145.881 91.694" class="fil1 str0"/><polyline id="_131943304___1" fill="none" stroke="#000" stroke-width=".1" points="134.79 111.441 134.79 111.441" class="fil1 str0"/><polyline id="_131943304___2" fill="none" stroke="#000" stroke-width=".1" points="145.881 91.694 134.79 111.441" class="fil1 str0"/><polyline id="_131943304___3" fill="none" stroke="#000" stroke-width=".1" points="145.881 91.694 134.79 111.441" class="fil1 str0"/><polyline id="_131943304___4" fill="none" stroke="#000" stroke-width=".1" points="145.881 91.694 134.79 111.441" class="fil1 str0"/><polyline id="_131943304___5" fill="none" stroke="#000" stroke-width=".1" points="145.881 91.694 134.79 111.441" class="fil1 str0"/><polyline id="_131943304___6" fill="none" stroke="#000" stroke-width=".1" points="145.881 91.694 134.79 111.441" class="fil1 str0"/><polyline id="_131943304___7" fill="none" stroke="#000" stroke-width=".1" points="145.881 91.694 134.79 111.441" class="fil1 str0"/><polyline id="_131943304___8" fill="none" stroke="#000" stroke-width=".1" points="145.881 91.694 134.79 111.441" class="fil1 str0"/><polyline id="_131943304___9" fill="none" stroke="#000" stroke-width=".1" points="145.881 91.694 134.79 111.441" class="fil1 str0"/><polyline id="_131943304___10" fill="none" stroke="#000" stroke-width=".1" points="145.881 91.694 134.79 111.441" class="fil1 str0"/><polyline id="_131943304___11" fill="none" stroke="#000" stroke-width=".1" points="145.881 91.694 134.79 111.441" class="fil1 str0"/><polyline id="_131943304___12" fill="none" stroke="#000" stroke-width=".1" points="145.881 91.694 134.79 111.441" class="fil1 str0"/><polyline id="_131943304___13" fill="none" stroke="#000" stroke-width=".1" points="145.881 91.694 134.79 111.441" class="fil1 str0"/><polyline id="_131943304___14" fill="none" stroke="#000" stroke-width=".1" points="145.881 91.694 134.79 111.441" class="fil1 str0"/><polyline id="_131943304___15" fill="none" stroke="#000" stroke-width=".1" points="145.881 91.694 134.79 111.441" class="fil1 str0"/><polyline id="_131943304___16" fill="none" stroke="#000" stroke-width=".1" points="145.881 91.694 134.79 111.441" class="fil1 str0"/><polyline id="_131943304___17" fill="none" stroke="#000" stroke-width=".1" points="145.881 91.694 134.79 111.441" class="fil1 str0"/><polyline id="_131943304___18" fill="none" stroke="#000" stroke-width=".1" points="145.881 91.694 134.79 111.441" class="fil1 str0"/><polyline id="_131943304___19" fill="none" stroke="#000" stroke-width=".1" points="145.881 91.694 134.79 111.441" class="fil1 str0"/><polyline id="_131943304___20" fill="none" stroke="#000" stroke-width=".1" points="145.881 91.694 134.79 111.441" class="fil1 str0"/><polyline id="_131943304___21" fill="none" stroke="#000" stroke-width=".1" points="145.881 91.694 134.79 111.441" class="fil1 str0"/><polyline id="_131943304___22" fill="none" stroke="#000" stroke-width=".1" points="145.881 91.694 134.79 111.441" class="fil1 str0"/></g><line id="_132339064" x1="73.441" x2="62.35" y1="91.694" y2="111.44" stroke="#000" stroke-width=".1"/><line id="_131301376" x1="73.441" x2="62.35" y1="91.694" y2="111.44" stroke="#000" stroke-width=".1"/><line id="_131657976" x1="73.441" x2="62.35" y1="91.694" y2="111.44" stroke="#000" stroke-width=".1"/><line id="_131703664" x1="73.441" x2="62.35" y1="91.694" y2="111.44" stroke="#000" stroke-width=".1"/><line id="_132054016" x1="73.441" x2="62.35" y1="91.694" y2="111.44" stroke="#000" stroke-width=".1"/><line id="_132275976" x1="73.441" x2="62.35" y1="91.694" y2="111.44" stroke="#000" stroke-width=".1"/><line id="_131751288" x1="73.441" x2="62.35" y1="91.694" y2="111.44" stroke="#000" stroke-width=".1"/><line id="_131572040" x1="73.441" x2="62.35" y1="91.694" y2="111.44" stroke="#000" stroke-width=".1"/><g id="_131954472_1"><polygon id="_131954472___1" fill="none" stroke="#000" stroke-width=".1" points="78.312 94.523 74.264 101.764 74.224 101.836 74.183 101.906 74.143 101.977 74.102 102.048 74.06 102.118 74.019 102.189 73.977 102.259 73.935 102.329 73.935 102.329 73.915 102.361 73.895 102.394 73.875 102.426 73.854 102.459 73.834 102.491 73.814 102.524 73.793 102.556 73.773 102.589 73.773 102.589 73.753 102.619 73.734 102.65 73.714 102.681 73.694 102.711 73.674 102.742 73.654 102.772 73.634 102.802 73.614 102.833 73.614 102.833 73.594 102.862 73.575 102.89 73.555 102.919 73.536 102.948 73.516 102.976 73.496 103.005 73.476 103.033 73.456 103.062 73.456 103.062 73.437 103.089 73.418 103.116 73.398 103.143 73.379 103.169 73.359 103.196 73.34 103.223 73.32 103.249 73.3 103.276 73.3 103.276 73.281 103.301 73.262 103.326 73.243 103.351 73.223 103.376 73.204 103.401 73.184 103.426 73.165 103.451 73.145 103.476 73.145 103.476 73.126 103.499 73.107 103.522 73.088 103.546 73.068 103.569 73.049 103.592 73.03 103.615 73.01 103.638 72.99 103.661 72.99 103.661 72.971 103.683 72.952 103.705 72.933 103.726 72.914 103.748 72.895 103.769 72.875 103.791 72.856 103.812 72.836 103.833 72.836 103.833 72.817 103.853 72.798 103.873 72.779 103.893 72.759 103.913 72.74 103.933 72.721 103.953 72.701 103.972 72.681 103.992 72.681 103.992 72.662 104.011 72.643 104.029 72.624 104.048 72.605 104.066 72.585 104.084 72.565 104.102 72.546 104.12 72.526 104.138 72.526 104.138 72.507 104.155 72.487 104.172 72.468 104.189 72.449 104.206 72.429 104.223 72.409 104.239 72.389 104.255 72.369 104.272 72.369 104.272 72.35 104.287 72.331 104.303 72.311 104.318 72.291 104.334 72.271 104.349 72.252 104.364 72.232 104.379 72.211 104.394 72.211 104.394 72.192 104.408 72.172 104.422 72.152 104.436 72.132 104.45 72.112 104.464 72.092 104.477 72.072 104.491 72.051 104.504 72.051 104.504 72.031 104.517 72.011 104.53 71.991 104.542 71.971 104.555 71.951 104.567 71.93 104.579 71.91 104.591 71.889 104.603 71.889 104.603 71.869 104.615 71.848 104.626 71.828 104.638 71.807 104.649 71.786 104.66 71.765 104.671 71.745 104.681 71.724 104.692 71.724 104.692 71.703 104.702 71.682 104.712 71.661 104.722 71.64 104.732 71.619 104.742 71.598 104.752 71.576 104.761 71.555 104.77 71.383 104.839 71.361 104.847 71.339 104.855 71.317 104.862 71.295 104.87 71.273 104.877 71.251 104.884 71.229 104.891 71.207 104.898 71.207 104.898 71.161 104.912 71.116 104.925 71.071 104.937 71.025 104.949 70.979 104.96 70.933 104.97 70.887 104.98 70.841 104.99 69.327 111.441 67.352 111.441 68.932 105.089 68.044 105.089 64.456 111.441 62.35 111.441 73.441 91.694 76.831 91.694 78.312 94.523" class="fil0 str0"/><polygon id="_131954472___0" fill="none" stroke="#000" stroke-width=".1" points="69.623 103.443 68.965 103.443 74.626 93.339 75.548 93.339 76.173 94.556 72.322 101.435 72.29 101.491 72.258 101.546 72.226 101.602 72.194 101.657 72.161 101.712 72.128 101.767 72.094 101.821 72.06 101.876 72.06 101.876 72.044 101.901 72.029 101.926 72.013 101.951 71.996 101.976 71.98 102 71.964 102.025 71.948 102.05 71.931 102.074 71.931 102.074 71.916 102.097 71.9 102.12 71.884 102.143 71.868 102.166 71.852 102.189 71.836 102.212 71.82 102.235 71.804 102.257 71.804 102.257 71.788 102.278 71.773 102.3 71.757 102.321 71.741 102.342 71.725 102.363 71.709 102.384 71.693 102.404 71.677 102.425 71.677 102.425 71.661 102.445 71.646 102.464 71.63 102.483 71.614 102.502 71.598 102.521 71.582 102.541 71.566 102.559 71.55 102.578 71.55 102.578 71.534 102.596 71.519 102.614 71.503 102.631 71.487 102.649 71.471 102.666 71.455 102.683 71.439 102.7 71.423 102.717 71.423 102.717 71.407 102.733 71.391 102.749 71.375 102.765 71.359 102.781 71.343 102.796 71.327 102.812 71.311 102.827 71.294 102.843 71.294 102.843 71.278 102.857 71.262 102.871 71.246 102.886 71.23 102.9 71.214 102.914 71.197 102.927 71.181 102.941 71.164 102.955 71.164 102.955 71.148 102.968 71.131 102.98 71.115 102.993 71.098 103.005 71.082 103.018 71.065 103.03 71.048 103.042 71.031 103.054 71.031 103.054 71.014 103.065 70.997 103.076 70.981 103.088 70.964 103.098 70.947 103.109 70.929 103.12 70.912 103.13 70.895 103.141 70.895 103.141 70.878 103.151 70.86 103.16 70.843 103.17 70.826 103.179 70.808 103.189 70.791 103.198 70.773 103.207 70.755 103.216 70.755 103.216 70.737 103.224 70.72 103.232 70.702 103.241 70.684 103.249 70.666 103.256 70.647 103.264 70.629 103.271 70.611 103.279 70.611 103.279 70.593 103.286 70.574 103.293 70.556 103.3 70.537 103.306 70.518 103.313 70.5 103.319 70.481 103.325 70.462 103.331 70.462 103.331 70.443 103.337 70.424 103.342 70.404 103.348 70.385 103.353 70.366 103.358 70.346 103.363 70.327 103.368 70.307 103.373 70.307 103.373 70.287 103.377 70.267 103.382 70.247 103.386 70.227 103.39 70.207 103.394 70.187 103.397 70.167 103.401 70.146 103.404 70.146 103.404 70.126 103.408 70.105 103.411 70.084 103.414 70.063 103.417 70.042 103.419 70.021 103.422 70 103.424 69.979 103.426 69.979 103.426 69.934 103.43 69.89 103.434 69.846 103.437 69.801 103.439 69.757 103.441 69.712 103.442 69.668 103.443 69.623 103.443" class="fil0 str0"/></g><g id="_132204712_1"><polygon id="_132204712___0" fill="none" stroke="#000" stroke-width=".1" points="58.532 91.694 55.043 91.694 43.952 111.44 48.132 111.44 48.188 111.44 48.245 111.439 48.301 111.438 48.358 111.436 48.414 111.434 48.471 111.431 48.527 111.427 48.583 111.422 48.583 111.422 48.61 111.42 48.638 111.418 48.665 111.415 48.692 111.412 48.719 111.409 48.746 111.406 48.773 111.403 48.8 111.4 48.8 111.4 48.826 111.396 48.852 111.392 48.878 111.389 48.905 111.385 48.931 111.38 48.957 111.376 48.983 111.372 49.009 111.367 49.009 111.367 49.035 111.362 49.06 111.357 49.086 111.352 49.111 111.347 49.137 111.342 49.162 111.336 49.187 111.33 49.213 111.324 49.213 111.324 49.237 111.318 49.262 111.312 49.287 111.306 49.312 111.299 49.336 111.293 49.361 111.286 49.385 111.279 49.41 111.272 49.41 111.272 49.434 111.264 49.458 111.257 49.482 111.249 49.506 111.241 49.53 111.233 49.554 111.225 49.578 111.217 49.602 111.208 49.602 111.208 49.625 111.2 49.649 111.191 49.672 111.182 49.696 111.173 49.719 111.164 49.742 111.154 49.765 111.144 49.788 111.135 49.788 111.135 49.811 111.125 49.834 111.114 49.857 111.104 49.88 111.094 49.903 111.083 49.925 111.072 49.948 111.061 49.97 111.05 49.97 111.05 49.993 111.038 50.015 111.027 50.037 111.015 50.059 111.003 50.082 110.991 50.104 110.979 50.126 110.967 50.147 110.954 50.147 110.954 50.169 110.941 50.191 110.928 50.213 110.915 50.235 110.902 50.256 110.888 50.278 110.875 50.299 110.861 50.321 110.847 50.321 110.847 50.342 110.832 50.364 110.818 50.385 110.803 50.406 110.789 50.427 110.774 50.448 110.759 50.469 110.743 50.49 110.728 50.49 110.728 50.511 110.712 50.532 110.696 50.553 110.68 50.574 110.664 50.595 110.647 50.616 110.631 50.636 110.614 50.657 110.597 50.657 110.597 50.677 110.58 50.698 110.562 50.719 110.545 50.739 110.527 50.76 110.509 50.78 110.491 50.8 110.473 50.82 110.454 50.82 110.454 50.84 110.435 50.861 110.416 50.881 110.397 50.901 110.378 50.921 110.358 50.941 110.339 50.961 110.319 50.981 110.299 50.981 110.299 51.001 110.279 51.021 110.258 51.041 110.237 51.061 110.216 51.081 110.195 51.101 110.174 51.12 110.153 51.14 110.132 51.14 110.132 51.16 110.11 51.18 110.087 51.199 110.065 51.219 110.042 51.239 110.02 51.258 109.997 51.277 109.974 51.297 109.951 51.297 109.951 51.316 109.927 51.336 109.903 51.356 109.879 51.375 109.855 51.395 109.831 51.414 109.807 51.433 109.782 51.452 109.758 51.452 109.758 51.472 109.732 51.492 109.707 51.511 109.681 51.53 109.655 51.55 109.629 51.569 109.603 51.588 109.577 51.607 109.551 51.607 109.551 51.627 109.524 51.646 109.496 51.666 109.469 51.685 109.442 51.704 109.414 51.723 109.386 51.742 109.359 51.761 109.331 51.761 109.331 51.781 109.302 51.8 109.273 51.82 109.244 51.839 109.214 51.858 109.185 51.877 109.156 51.896 109.126 51.915 109.097 51.915 109.097 51.935 109.066 51.954 109.035 51.974 109.004 51.993 108.973 52.012 108.942 52.031 108.911 52.05 108.88 52.069 108.849 52.069 108.849 52.109 108.783 52.148 108.716 52.187 108.65 52.226 108.583 52.264 108.516 52.302 108.449 52.34 108.381 52.378 108.314 53.727 105.879 52.904 104.299 52.965 104.287 53.025 104.275 53.085 104.261 53.145 104.247 53.205 104.232 53.265 104.217 53.324 104.2 53.384 104.182 53.384 104.182 53.412 104.174 53.44 104.165 53.468 104.156 53.496 104.146 53.524 104.137 53.551 104.127 53.579 104.117 53.607 104.107 53.607 104.107 53.633 104.097 53.66 104.086 53.687 104.076 53.713 104.065 53.74 104.054 53.766 104.043 53.793 104.032 53.819 104.02 53.819 104.02 53.844 104.009 53.87 103.997 53.895 103.985 53.92 103.973 53.946 103.961 53.971 103.948 53.996 103.935 54.021 103.922 54.021 103.922 54.045 103.91 54.069 103.896 54.093 103.883 54.117 103.87 54.141 103.856 54.165 103.842 54.189 103.828 54.213 103.814 54.213 103.814 54.236 103.8 54.259 103.785 54.282 103.771 54.305 103.756 54.328 103.741 54.351 103.726 54.373 103.711 54.396 103.695 54.396 103.695 54.418 103.68 54.44 103.664 54.462 103.648 54.484 103.632 54.506 103.616 54.528 103.599 54.549 103.583 54.571 103.566 54.571 103.566 54.592 103.549 54.614 103.532 54.635 103.515 54.656 103.497 54.677 103.48 54.697 103.462 54.718 103.445 54.739 103.427 54.739 103.427 54.759 103.409 54.78 103.39 54.8 103.372 54.82 103.353 54.84 103.334 54.86 103.316 54.88 103.297 54.9 103.278 54.9 103.278 54.92 103.258 54.939 103.238 54.959 103.219 54.978 103.199 54.998 103.179 55.017 103.159 55.036 103.139 55.055 103.119 55.055 103.119 55.074 103.098 55.093 103.077 55.112 103.056 55.131 103.035 55.15 103.014 55.169 102.993 55.187 102.971 55.206 102.95 55.206 102.95 55.224 102.928 55.243 102.906 55.261 102.884 55.279 102.862 55.298 102.84 55.316 102.817 55.334 102.795 55.352 102.772 55.352 102.772 55.37 102.749 55.388 102.726 55.406 102.703 55.424 102.679 55.441 102.656 55.459 102.633 55.477 102.609 55.494 102.585 55.494 102.585 55.512 102.561 55.53 102.537 55.547 102.512 55.565 102.488 55.582 102.463 55.6 102.439 55.617 102.414 55.634 102.39 55.634 102.39 55.652 102.364 55.669 102.339 55.686 102.313 55.704 102.288 55.721 102.262 55.738 102.236 55.755 102.211 55.772 102.185 55.772 102.185 55.789 102.159 55.807 102.132 55.824 102.105 55.841 102.079 55.858 102.052 55.875 102.025 55.892 101.999 55.909 101.972 55.909 101.972 55.926 101.944 55.943 101.917 55.96 101.889 55.977 101.862 55.995 101.834 56.011 101.806 56.028 101.778 56.045 101.751 56.045 101.751 56.062 101.722 56.08 101.693 56.097 101.665 56.114 101.636 56.131 101.607 56.148 101.578 56.165 101.55 56.182 101.521 56.182 101.521 56.217 101.461 56.252 101.401 56.287 101.341 56.321 101.281 56.356 101.221 56.39 101.161 56.424 101.101 56.459 101.04 60.046 94.589 58.532 91.694" class="fil0 str0"/><polygon id="_132204712___1" fill="none" stroke="#000" stroke-width=".1" points="50.601 107.787 51.62 105.944 50.831 104.43 50.008 104.43 46.98 109.795 47.869 109.795 47.913 109.794 47.958 109.794 48.003 109.792 48.048 109.791 48.092 109.788 48.137 109.785 48.182 109.781 48.226 109.777 48.226 109.777 48.247 109.775 48.269 109.772 48.29 109.77 48.311 109.767 48.332 109.764 48.354 109.761 48.375 109.757 48.396 109.754 48.396 109.754 48.417 109.75 48.437 109.747 48.458 109.743 48.478 109.739 48.499 109.735 48.519 109.73 48.539 109.726 48.56 109.721 48.56 109.721 48.58 109.716 48.6 109.711 48.619 109.706 48.639 109.701 48.659 109.695 48.679 109.69 48.698 109.684 48.718 109.678 48.718 109.678 48.737 109.672 48.756 109.665 48.776 109.659 48.795 109.652 48.814 109.645 48.833 109.638 48.852 109.631 48.871 109.624 48.871 109.624 48.889 109.616 48.908 109.608 48.927 109.601 48.945 109.593 48.964 109.584 48.982 109.576 49.001 109.567 49.019 109.559 49.019 109.559 49.037 109.55 49.055 109.541 49.073 109.531 49.091 109.522 49.109 109.512 49.127 109.502 49.145 109.492 49.163 109.482 49.163 109.482 49.18 109.472 49.198 109.461 49.216 109.45 49.233 109.439 49.251 109.428 49.268 109.417 49.286 109.406 49.303 109.394 49.303 109.394 49.32 109.382 49.338 109.37 49.355 109.357 49.372 109.345 49.389 109.332 49.406 109.32 49.423 109.307 49.44 109.294 49.44 109.294 49.457 109.28 49.474 109.266 49.491 109.252 49.507 109.238 49.524 109.224 49.541 109.21 49.557 109.195 49.573 109.181 49.573 109.181 49.59 109.165 49.607 109.15 49.624 109.134 49.64 109.119 49.656 109.103 49.673 109.087 49.689 109.071 49.705 109.055 49.705 109.055 49.722 109.038 49.738 109.021 49.755 109.003 49.771 108.986 49.787 108.969 49.803 108.951 49.819 108.933 49.835 108.916 49.835 108.916 49.851 108.897 49.868 108.878 49.884 108.859 49.9 108.84 49.916 108.821 49.932 108.802 49.948 108.782 49.963 108.763 49.963 108.763 49.98 108.742 49.996 108.722 50.012 108.701 50.028 108.68 50.044 108.66 50.06 108.639 50.075 108.618 50.091 108.596 50.091 108.596 50.107 108.574 50.123 108.552 50.139 108.529 50.155 108.507 50.171 108.484 50.187 108.461 50.203 108.438 50.218 108.415 50.218 108.415 50.234 108.391 50.251 108.367 50.267 108.343 50.283 108.318 50.299 108.294 50.314 108.269 50.33 108.244 50.346 108.22 50.346 108.22 50.379 108.166 50.412 108.113 50.444 108.059 50.476 108.005 50.508 107.951 50.539 107.896 50.57 107.842 50.6 107.787" class="fil0 str0"/><polygon id="_132204712___2" fill="none" stroke="#000" stroke-width=".1" points="54.582 100.678 57.94 94.655 57.248 93.339 56.228 93.339 50.995 102.686 51.884 102.686 51.928 102.686 51.973 102.685 52.017 102.684 52.062 102.682 52.106 102.68 52.15 102.677 52.195 102.673 52.239 102.669 52.239 102.669 52.26 102.667 52.281 102.665 52.302 102.662 52.323 102.659 52.344 102.657 52.365 102.654 52.386 102.651 52.407 102.647 52.407 102.647 52.427 102.644 52.447 102.64 52.467 102.637 52.487 102.633 52.508 102.629 52.528 102.625 52.548 102.62 52.568 102.616 52.568 102.616 52.587 102.611 52.607 102.606 52.626 102.601 52.645 102.596 52.665 102.591 52.684 102.585 52.703 102.58 52.722 102.574 52.722 102.574 52.741 102.568 52.76 102.562 52.779 102.556 52.797 102.549 52.816 102.543 52.834 102.536 52.853 102.529 52.871 102.522 52.871 102.522 52.89 102.514 52.908 102.507 52.926 102.499 52.944 102.491 52.962 102.483 52.98 102.475 52.998 102.467 53.015 102.458 53.015 102.458 53.033 102.45 53.051 102.441 53.068 102.432 53.086 102.422 53.103 102.413 53.121 102.403 53.138 102.393 53.155 102.384 53.155 102.384 53.172 102.373 53.19 102.363 53.207 102.352 53.224 102.341 53.241 102.33 53.258 102.319 53.274 102.308 53.291 102.297 53.291 102.297 53.308 102.285 53.325 102.273 53.342 102.261 53.358 102.248 53.375 102.236 53.391 102.223 53.408 102.21 53.424 102.198 53.424 102.198 53.441 102.184 53.457 102.17 53.474 102.157 53.49 102.143 53.506 102.129 53.523 102.114 53.539 102.1 53.554 102.086 53.554 102.086 53.571 102.07 53.587 102.055 53.604 102.039 53.62 102.024 53.636 102.008 53.652 101.992 53.667 101.976 53.683 101.96 53.683 101.96 53.699 101.943 53.716 101.926 53.732 101.909 53.748 101.892 53.763 101.874 53.779 101.857 53.795 101.839 53.81 101.821 53.81 101.821 53.827 101.802 53.843 101.783 53.859 101.764 53.875 101.745 53.89 101.726 53.906 101.707 53.922 101.687 53.937 101.668 53.937 101.668 53.953 101.647 53.97 101.627 53.986 101.606 54.001 101.585 54.017 101.564 54.033 101.543 54.049 101.521 54.064 101.5 54.064 101.5 54.08 101.478 54.097 101.455 54.113 101.432 54.129 101.409 54.145 101.386 54.16 101.363 54.176 101.34 54.192 101.317 54.192 101.317 54.208 101.293 54.224 101.268 54.241 101.243 54.257 101.218 54.273 101.194 54.289 101.169 54.305 101.144 54.321 101.119 54.321 101.119 54.355 101.064 54.388 101.01 54.421 100.955 54.454 100.9 54.487 100.845 54.519 100.789 54.551 100.734 54.582 100.678" class="fil0 str0"/></g><line id="_132150856" x1="55.043" x2="43.952" y1="91.694" y2="111.44" stroke="#000" stroke-width=".1"/><line id="_132117664" x1="55.043" x2="43.952" y1="91.694" y2="111.44" stroke="#000" stroke-width=".1"/><line id="_133359624" x1="55.043" x2="43.952" y1="91.694" y2="111.44" stroke="#000" stroke-width=".1"/><line id="_131354168" x1="55.043" x2="43.952" y1="91.694" y2="111.44" stroke="#000" stroke-width=".1"/><line id="_131904968" x1="55.043" x2="43.952" y1="91.694" y2="111.44" stroke="#000" stroke-width=".1"/><line id="_131506480" x1="55.043" x2="43.952" y1="91.694" y2="111.44" stroke="#000" stroke-width=".1"/><line id="_131732256" x1="55.043" x2="43.952" y1="91.694" y2="111.44" stroke="#000" stroke-width=".1"/><line id="_131733624" x1="55.043" x2="43.952" y1="91.694" y2="111.44" stroke="#000" stroke-width=".1"/><line id="_131915584" x1="55.043" x2="43.952" y1="91.694" y2="111.44" stroke="#000" stroke-width=".1"/><line id="_131566608" x1="55.043" x2="43.952" y1="91.694" y2="111.44" stroke="#000" stroke-width=".1"/><line id="_131782584" x1="55.043" x2="43.952" y1="91.694" y2="111.44" stroke="#000" stroke-width=".1"/><line id="_131544584" x1="55.043" x2="43.952" y1="91.694" y2="111.44" stroke="#000" stroke-width=".1"/><line id="_131652840" x1="55.043" x2="43.952" y1="91.694" y2="111.44" stroke="#000" stroke-width=".1"/><line id="_131646584" x1="55.043" x2="43.952" y1="91.694" y2="111.44" stroke="#000" stroke-width=".1"/><line id="_131751040" x1="55.043" x2="43.952" y1="91.694" y2="111.44" stroke="#000" stroke-width=".1"/><line id="_132030656" x1="55.043" x2="43.952" y1="91.694" y2="111.44" stroke="#000" stroke-width=".1"/><line id="_131572064" x1="55.043" x2="43.952" y1="91.694" y2="111.44" stroke="#000" stroke-width=".1"/><line id="_131473328" x1="55.043" x2="43.952" y1="91.694" y2="111.44" stroke="#000" stroke-width=".1"/><line id="_131747504" x1="55.043" x2="43.952" y1="91.694" y2="111.44" stroke="#000" stroke-width=".1"/><g id="_131678152_1"><polygon id="_131678152___0" fill="none" stroke="#000" stroke-width=".1" points="87.034 91.694 83.546 91.694 72.454 111.44 76.634 111.44 76.69 111.44 76.747 111.439 76.803 111.438 76.86 111.436 76.916 111.434 76.973 111.431 77.029 111.427 77.086 111.422 77.086 111.422 77.113 111.42 77.14 111.418 77.167 111.415 77.194 111.412 77.221 111.409 77.248 111.406 77.275 111.403 77.302 111.4 77.302 111.4 77.328 111.396 77.354 111.392 77.381 111.389 77.407 111.385 77.433 111.38 77.459 111.376 77.485 111.372 77.512 111.367 77.512 111.367 77.537 111.362 77.563 111.357 77.588 111.352 77.613 111.347 77.639 111.342 77.664 111.336 77.69 111.33 77.715 111.324 77.715 111.324 77.74 111.318 77.764 111.312 77.789 111.306 77.814 111.299 77.839 111.293 77.863 111.286 77.888 111.279 77.912 111.272 77.912 111.272 77.936 111.264 77.96 111.257 77.985 111.249 78.009 111.241 78.032 111.233 78.056 111.225 78.08 111.217 78.104 111.208 78.104 111.208 78.127 111.2 78.151 111.191 78.174 111.182 78.198 111.173 78.221 111.164 78.244 111.154 78.267 111.144 78.291 111.135 78.291 111.135 78.314 111.125 78.336 111.114 78.359 111.104 78.382 111.094 78.405 111.083 78.427 111.072 78.45 111.061 78.472 111.05 78.472 111.05 78.495 111.038 78.517 111.027 78.539 111.015 78.562 111.003 78.584 110.991 78.606 110.979 78.628 110.967 78.65 110.954 78.65 110.954 78.672 110.941 78.694 110.928 78.715 110.915 78.737 110.902 78.759 110.888 78.78 110.875 78.802 110.861 78.823 110.847 78.823 110.847 78.844 110.832 78.866 110.818 78.887 110.803 78.909 110.789 78.93 110.774 78.951 110.759 78.972 110.743 78.993 110.728 78.993 110.728 79.014 110.712 79.035 110.696 79.056 110.68 79.077 110.664 79.097 110.647 79.118 110.631 79.138 110.614 79.159 110.597 79.159 110.597 79.18 110.58 79.2 110.562 79.221 110.545 79.241 110.527 79.262 110.509 79.282 110.491 79.302 110.473 79.322 110.454 79.322 110.454 79.343 110.435 79.363 110.416 79.383 110.397 79.404 110.378 79.424 110.358 79.444 110.339 79.463 110.319 79.483 110.299 79.483 110.299 79.503 110.279 79.523 110.258 79.543 110.237 79.563 110.216 79.583 110.195 79.603 110.174 79.622 110.153 79.642 110.132 79.642 110.132 79.662 110.11 79.682 110.087 79.702 110.065 79.721 110.042 79.741 110.02 79.76 109.997 79.78 109.974 79.799 109.951 79.799 109.951 79.819 109.927 79.838 109.903 79.858 109.879 79.878 109.855 79.897 109.831 79.916 109.807 79.935 109.782 79.954 109.758 79.954 109.758 79.974 109.732 79.994 109.707 80.013 109.681 80.033 109.655 80.052 109.629 80.071 109.603 80.09 109.577 80.109 109.551 80.109 109.551 80.129 109.524 80.148 109.496 80.168 109.469 80.187 109.442 80.206 109.414 80.225 109.386 80.244 109.359 80.263 109.331 80.263 109.331 80.283 109.302 80.302 109.273 80.322 109.244 80.341 109.214 80.36 109.185 80.379 109.156 80.398 109.126 80.417 109.097 80.417 109.097 80.437 109.066 80.456 109.035 80.476 109.004 80.495 108.973 80.514 108.942 80.533 108.911 80.552 108.88 80.571 108.849 80.571 108.849 80.611 108.783 80.651 108.716 80.69 108.65 80.728 108.583 80.767 108.516 80.805 108.449 80.842 108.381 80.88 108.314 82.229 105.879 81.406 104.299 81.467 104.287 81.527 104.275 81.588 104.261 81.648 104.247 81.707 104.232 81.767 104.217 81.827 104.2 81.886 104.182 81.886 104.182 81.914 104.174 81.942 104.165 81.97 104.156 81.998 104.146 82.026 104.137 82.054 104.127 82.081 104.117 82.109 104.107 82.109 104.107 82.136 104.097 82.162 104.086 82.189 104.076 82.216 104.065 82.242 104.054 82.269 104.043 82.295 104.032 82.321 104.02 82.321 104.02 82.347 104.009 82.372 103.997 82.397 103.985 82.423 103.973 82.448 103.961 82.473 103.948 82.498 103.935 82.523 103.922 82.523 103.922 82.547 103.91 82.571 103.896 82.596 103.883 82.62 103.87 82.644 103.856 82.668 103.842 82.691 103.828 82.715 103.814 82.715 103.814 82.738 103.8 82.761 103.785 82.784 103.771 82.807 103.756 82.83 103.741 82.853 103.726 82.876 103.711 82.898 103.695 82.898 103.695 82.92 103.68 82.943 103.664 82.965 103.648 82.987 103.632 83.008 103.616 83.03 103.599 83.052 103.583 83.073 103.566 83.073 103.566 83.095 103.549 83.116 103.532 83.137 103.515 83.158 103.497 83.179 103.48 83.2 103.462 83.22 103.445 83.241 103.427 83.241 103.427 83.261 103.409 83.282 103.39 83.302 103.372 83.322 103.353 83.343 103.334 83.362 103.316 83.382 103.297 83.402 103.278 83.402 103.278 83.422 103.258 83.442 103.238 83.461 103.219 83.481 103.199 83.5 103.179 83.519 103.159 83.538 103.139 83.557 103.119 83.557 103.119 83.577 103.098 83.596 103.077 83.615 103.056 83.633 103.035 83.652 103.014 83.671 102.993 83.689 102.971 83.708 102.95 83.708 102.95 83.726 102.928 83.745 102.906 83.763 102.884 83.782 102.862 83.8 102.84 83.818 102.817 83.836 102.795 83.854 102.772 83.854 102.772 83.872 102.749 83.89 102.726 83.908 102.703 83.926 102.679 83.944 102.656 83.961 102.633 83.979 102.609 83.996 102.585 83.996 102.585 84.014 102.561 84.032 102.537 84.05 102.512 84.067 102.488 84.084 102.463 84.102 102.439 84.119 102.414 84.136 102.39 84.136 102.39 84.154 102.364 84.171 102.339 84.189 102.313 84.206 102.288 84.223 102.262 84.24 102.236 84.257 102.211 84.274 102.185 84.274 102.185 84.292 102.159 84.309 102.132 84.326 102.105 84.343 102.079 84.36 102.052 84.377 102.025 84.394 101.999 84.411 101.972 84.411 101.972 84.428 101.944 84.445 101.917 84.463 101.889 84.48 101.862 84.497 101.834 84.514 101.806 84.531 101.778 84.547 101.751 84.547 101.751 84.565 101.722 84.582 101.693 84.599 101.665 84.616 101.636 84.633 101.607 84.65 101.578 84.667 101.55 84.684 101.521 84.684 101.521 84.719 101.461 84.754 101.401 84.789 101.341 84.823 101.281 84.858 101.221 84.892 101.161 84.927 101.101 84.961 101.04 88.548 94.589 87.034 91.694" class="fil0 str0"/><polygon id="_131678152___1" fill="none" stroke="#000" stroke-width=".1" points="79.103 107.787 80.123 105.944 79.333 104.43 78.51 104.43 75.482 109.795 76.371 109.795 76.415 109.794 76.46 109.794 76.505 109.792 76.55 109.791 76.594 109.788 76.639 109.785 76.684 109.781 76.728 109.777 76.728 109.777 76.75 109.775 76.771 109.772 76.792 109.77 76.813 109.767 76.835 109.764 76.856 109.761 76.877 109.757 76.898 109.754 76.898 109.754 76.919 109.75 76.939 109.747 76.96 109.743 76.98 109.739 77.001 109.735 77.021 109.73 77.042 109.726 77.062 109.721 77.062 109.721 77.082 109.716 77.102 109.711 77.122 109.706 77.141 109.701 77.161 109.695 77.181 109.69 77.2 109.684 77.22 109.678 77.22 109.678 77.239 109.672 77.259 109.665 77.278 109.659 77.297 109.652 77.316 109.645 77.335 109.638 77.354 109.631 77.373 109.624 77.373 109.624 77.392 109.616 77.41 109.608 77.429 109.601 77.448 109.593 77.466 109.584 77.484 109.576 77.503 109.567 77.521 109.559 77.521 109.559 77.539 109.55 77.557 109.541 77.576 109.531 77.594 109.522 77.612 109.512 77.629 109.502 77.647 109.492 77.665 109.482 77.665 109.482 77.683 109.472 77.7 109.461 77.718 109.45 77.736 109.439 77.753 109.428 77.77 109.417 77.788 109.406 77.805 109.394 77.805 109.394 77.822 109.382 77.84 109.37 77.857 109.357 77.874 109.345 77.891 109.332 77.908 109.32 77.925 109.307 77.942 109.294 77.942 109.294 77.959 109.28 77.976 109.266 77.993 109.252 78.01 109.238 78.026 109.224 78.043 109.21 78.059 109.195 78.076 109.181 78.076 109.181 78.092 109.165 78.109 109.15 78.126 109.134 78.142 109.119 78.159 109.103 78.175 109.087 78.191 109.071 78.207 109.055 78.207 109.055 78.224 109.038 78.24 109.021 78.257 109.003 78.273 108.986 78.289 108.969 78.305 108.951 78.321 108.933 78.337 108.916 78.337 108.916 78.353 108.897 78.37 108.878 78.386 108.859 78.402 108.84 78.418 108.821 78.434 108.802 78.45 108.782 78.466 108.763 78.466 108.763 78.482 108.742 78.498 108.722 78.514 108.701 78.53 108.68 78.546 108.66 78.562 108.639 78.578 108.618 78.593 108.596 78.593 108.596 78.609 108.574 78.626 108.552 78.642 108.529 78.658 108.507 78.673 108.484 78.689 108.461 78.705 108.438 78.72 108.415 78.72 108.415 78.737 108.391 78.753 108.367 78.769 108.343 78.785 108.318 78.801 108.294 78.817 108.269 78.832 108.244 78.848 108.22 78.848 108.22 78.881 108.166 78.914 108.113 78.946 108.059 78.978 108.005 79.01 107.951 79.041 107.896 79.072 107.842 79.103 107.787" class="fil0 str0"/><polygon id="_131678152___2" fill="none" stroke="#000" stroke-width=".1" points="83.085 100.678 86.442 94.655 85.751 93.339 84.73 93.339 79.497 102.686 80.386 102.686 80.431 102.686 80.475 102.685 80.519 102.684 80.564 102.682 80.608 102.68 80.653 102.677 80.697 102.673 80.741 102.669 80.741 102.669 80.762 102.667 80.783 102.665 80.804 102.662 80.825 102.659 80.846 102.657 80.867 102.654 80.888 102.651 80.909 102.647 80.909 102.647 80.929 102.644 80.949 102.64 80.97 102.637 80.99 102.633 81.01 102.629 81.03 102.625 81.05 102.62 81.07 102.616 81.07 102.616 81.089 102.611 81.109 102.606 81.128 102.601 81.148 102.596 81.167 102.591 81.186 102.585 81.205 102.58 81.224 102.574 81.224 102.574 81.243 102.568 81.262 102.562 81.281 102.556 81.299 102.549 81.318 102.543 81.337 102.536 81.355 102.529 81.374 102.522 81.374 102.522 81.392 102.514 81.41 102.507 81.428 102.499 81.446 102.491 81.464 102.483 81.482 102.475 81.5 102.467 81.518 102.458 81.518 102.458 81.535 102.45 81.553 102.441 81.571 102.432 81.588 102.422 81.606 102.413 81.623 102.403 81.64 102.393 81.657 102.384 81.657 102.384 81.675 102.373 81.692 102.363 81.709 102.352 81.726 102.341 81.743 102.33 81.76 102.319 81.777 102.308 81.793 102.297 81.793 102.297 81.81 102.285 81.827 102.273 81.844 102.261 81.861 102.248 81.877 102.236 81.894 102.223 81.91 102.21 81.926 102.198 81.926 102.198 81.943 102.184 81.96 102.17 81.976 102.157 81.992 102.143 82.009 102.129 82.025 102.114 82.041 102.1 82.057 102.086 82.057 102.086 82.073 102.07 82.09 102.055 82.106 102.039 82.122 102.024 82.138 102.008 82.154 101.992 82.17 101.976 82.185 101.96 82.185 101.96 82.202 101.943 82.218 101.926 82.234 101.909 82.25 101.892 82.266 101.874 82.281 101.857 82.297 101.839 82.313 101.821 82.313 101.821 82.329 101.802 82.345 101.783 82.361 101.764 82.377 101.745 82.393 101.726 82.408 101.707 82.424 101.687 82.439 101.668 82.439 101.668 82.456 101.647 82.472 101.627 82.488 101.606 82.504 101.585 82.519 101.564 82.535 101.543 82.551 101.521 82.566 101.5 82.566 101.5 82.583 101.478 82.599 101.455 82.615 101.432 82.631 101.409 82.647 101.386 82.663 101.363 82.678 101.34 82.694 101.317 82.694 101.317 82.71 101.293 82.727 101.268 82.743 101.243 82.759 101.218 82.775 101.194 82.791 101.169 82.807 101.144 82.823 101.119 82.823 101.119 82.857 101.064 82.89 101.01 82.923 100.955 82.956 100.9 82.989 100.845 83.021 100.789 83.053 100.734 83.085 100.678" class="fil0 str0"/></g><g id="_131703992_1"><polygon id="_131703992___1" fill="none" stroke="#000" stroke-width=".1" points="98.718 94.523 94.669 101.764 94.629 101.836 94.589 101.906 94.548 101.977 94.507 102.048 94.466 102.118 94.424 102.189 94.382 102.259 94.34 102.329 94.34 102.329 94.32 102.361 94.3 102.394 94.28 102.426 94.26 102.459 94.24 102.491 94.219 102.524 94.199 102.556 94.178 102.589 94.178 102.589 94.159 102.619 94.139 102.65 94.119 102.681 94.1 102.711 94.08 102.742 94.059 102.772 94.039 102.802 94.019 102.833 94.019 102.833 94 102.862 93.98 102.89 93.961 102.919 93.941 102.948 93.921 102.976 93.902 103.005 93.882 103.033 93.862 103.062 93.862 103.062 93.842 103.089 93.823 103.116 93.804 103.143 93.784 103.169 93.765 103.196 93.745 103.223 93.725 103.249 93.705 103.276 93.705 103.276 93.686 103.301 93.667 103.326 93.648 103.351 93.629 103.376 93.609 103.401 93.59 103.426 93.57 103.451 93.55 103.476 93.55 103.476 93.531 103.499 93.512 103.522 93.493 103.546 93.474 103.569 93.455 103.592 93.435 103.615 93.416 103.638 93.396 103.661 93.396 103.661 93.377 103.683 93.358 103.705 93.339 103.726 93.32 103.748 93.3 103.769 93.281 103.791 93.261 103.812 93.241 103.833 93.241 103.833 93.223 103.853 93.203 103.873 93.184 103.893 93.165 103.913 93.146 103.933 93.126 103.953 93.107 103.972 93.087 103.992 93.087 103.992 93.068 104.011 93.049 104.029 93.029 104.048 93.01 104.066 92.991 104.084 92.971 104.102 92.951 104.12 92.932 104.138 92.932 104.138 92.912 104.155 92.893 104.172 92.874 104.189 92.854 104.206 92.835 104.223 92.815 104.239 92.795 104.255 92.775 104.272 92.775 104.272 92.756 104.287 92.736 104.303 92.717 104.318 92.697 104.334 92.677 104.349 92.657 104.364 92.637 104.379 92.617 104.394 92.617 104.394 92.597 104.408 92.578 104.422 92.558 104.436 92.538 104.45 92.518 104.464 92.498 104.477 92.477 104.491 92.457 104.504 92.457 104.504 92.437 104.517 92.417 104.53 92.397 104.542 92.376 104.555 92.356 104.567 92.336 104.579 92.315 104.591 92.295 104.603 92.295 104.603 92.274 104.615 92.254 104.626 92.233 104.638 92.213 104.649 92.192 104.66 92.171 104.671 92.15 104.681 92.129 104.692 92.129 104.692 92.108 104.702 92.088 104.712 92.067 104.722 92.046 104.732 92.024 104.742 92.003 104.752 91.982 104.761 91.961 104.77 91.788 104.839 91.767 104.847 91.745 104.855 91.723 104.862 91.701 104.87 91.679 104.877 91.657 104.884 91.634 104.891 91.612 104.898 91.612 104.898 91.567 104.912 91.522 104.925 91.476 104.937 91.431 104.949 91.385 104.96 91.339 104.97 91.293 104.98 91.247 104.99 89.733 111.441 87.758 111.441 89.338 105.089 88.449 105.089 84.862 111.441 82.755 111.441 93.847 91.694 97.237 91.694 98.718 94.523" class="fil0 str0"/><polygon id="_131703992___0" fill="none" stroke="#000" stroke-width=".1" points="90.029 103.443 89.371 103.443 95.032 93.339 95.953 93.339 96.579 94.556 92.728 101.435 92.696 101.491 92.664 101.546 92.632 101.602 92.599 101.657 92.566 101.712 92.533 101.767 92.5 101.821 92.466 101.876 92.466 101.876 92.45 101.901 92.434 101.926 92.418 101.951 92.402 101.976 92.386 102 92.37 102.025 92.353 102.05 92.337 102.074 92.337 102.074 92.321 102.097 92.306 102.12 92.29 102.143 92.274 102.166 92.258 102.189 92.242 102.212 92.226 102.235 92.209 102.257 92.209 102.257 92.194 102.278 92.178 102.3 92.162 102.321 92.147 102.342 92.131 102.363 92.115 102.384 92.099 102.404 92.082 102.425 92.082 102.425 92.067 102.445 92.051 102.464 92.036 102.483 92.02 102.502 92.004 102.521 91.988 102.541 91.972 102.559 91.956 102.578 91.956 102.578 91.94 102.596 91.924 102.614 91.909 102.631 91.893 102.649 91.877 102.666 91.861 102.683 91.845 102.7 91.828 102.717 91.828 102.717 91.813 102.733 91.797 102.749 91.781 102.765 91.765 102.781 91.749 102.796 91.733 102.812 91.716 102.827 91.7 102.843 91.7 102.843 91.684 102.857 91.668 102.871 91.652 102.886 91.635 102.9 91.619 102.914 91.603 102.927 91.586 102.941 91.569 102.955 91.569 102.955 91.553 102.968 91.537 102.98 91.52 102.993 91.504 103.005 91.487 103.018 91.47 103.03 91.453 103.042 91.436 103.054 91.436 103.054 91.42 103.065 91.403 103.076 91.386 103.088 91.369 103.098 91.352 103.109 91.335 103.12 91.318 103.13 91.3 103.141 91.3 103.141 91.283 103.151 91.266 103.16 91.249 103.17 91.231 103.179 91.214 103.189 91.196 103.198 91.178 103.207 91.161 103.216 91.161 103.216 91.143 103.224 91.125 103.232 91.107 103.241 91.089 103.249 91.071 103.256 91.053 103.264 91.035 103.271 91.017 103.279 91.017 103.279 90.998 103.286 90.98 103.293 90.961 103.3 90.943 103.306 90.924 103.313 90.905 103.319 90.886 103.325 90.867 103.331 90.867 103.331 90.848 103.337 90.829 103.342 90.81 103.348 90.791 103.353 90.771 103.358 90.752 103.363 90.732 103.368 90.713 103.373 90.713 103.373 90.693 103.377 90.673 103.382 90.653 103.386 90.633 103.39 90.613 103.394 90.592 103.397 90.572 103.401 90.552 103.404 90.552 103.404 90.531 103.408 90.51 103.411 90.489 103.414 90.468 103.417 90.447 103.419 90.426 103.422 90.405 103.424 90.384 103.426 90.384 103.426 90.34 103.43 90.296 103.434 90.251 103.437 90.207 103.439 90.162 103.441 90.118 103.442 90.073 103.443 90.029 103.443" class="fil0 str0"/></g><g id="_131658288_1"><polygon id="_131658288___1" fill="none" stroke="#000" stroke-width=".1" points="150.753 94.523 146.705 101.764 146.664 101.836 146.624 101.906 146.583 101.977 146.542 102.048 146.501 102.118 146.459 102.189 146.417 102.259 146.375 102.329 146.375 102.329 146.355 102.361 146.335 102.394 146.315 102.426 146.295 102.459 146.275 102.491 146.254 102.524 146.234 102.556 146.214 102.589 146.214 102.589 146.194 102.619 146.174 102.65 146.154 102.681 146.135 102.711 146.115 102.742 146.094 102.772 146.074 102.802 146.054 102.833 146.054 102.833 146.035 102.862 146.015 102.89 145.996 102.919 145.976 102.948 145.956 102.976 145.937 103.005 145.917 103.033 145.897 103.062 145.897 103.062 145.877 103.089 145.858 103.116 145.839 103.143 145.819 103.169 145.8 103.196 145.78 103.223 145.76 103.249 145.741 103.276 145.741 103.276 145.721 103.301 145.702 103.326 145.683 103.351 145.664 103.376 145.644 103.401 145.625 103.426 145.605 103.451 145.585 103.476 145.585 103.476 145.566 103.499 145.547 103.522 145.528 103.546 145.509 103.569 145.49 103.592 145.47 103.615 145.451 103.638 145.431 103.661 145.431 103.661 145.412 103.683 145.393 103.705 145.374 103.726 145.355 103.748 145.335 103.769 145.316 103.791 145.296 103.812 145.276 103.833 145.276 103.833 145.258 103.853 145.238 103.873 145.219 103.893 145.2 103.913 145.181 103.933 145.161 103.953 145.142 103.972 145.122 103.992 145.122 103.992 145.103 104.011 145.084 104.029 145.064 104.048 145.045 104.066 145.026 104.084 145.006 104.102 144.986 104.12 144.967 104.138 144.967 104.138 144.947 104.155 144.928 104.172 144.909 104.189 144.889 104.206 144.87 104.223 144.85 104.239 144.83 104.255 144.81 104.272 144.81 104.272 144.791 104.287 144.771 104.303 144.752 104.318 144.732 104.334 144.712 104.349 144.692 104.364 144.672 104.379 144.652 104.394 144.652 104.394 144.632 104.408 144.613 104.422 144.593 104.436 144.573 104.45 144.553 104.464 144.533 104.477 144.512 104.491 144.492 104.504 144.492 104.504 144.472 104.517 144.452 104.53 144.432 104.542 144.411 104.555 144.391 104.567 144.371 104.579 144.35 104.591 144.33 104.603 144.33 104.603 144.309 104.615 144.289 104.626 144.268 104.638 144.248 104.649 144.227 104.66 144.206 104.671 144.185 104.681 144.164 104.692 144.164 104.692 144.143 104.702 144.123 104.712 144.102 104.722 144.081 104.732 144.059 104.742 144.038 104.752 144.017 104.761 143.996 104.77 143.824 104.839 143.802 104.847 143.78 104.855 143.758 104.862 143.736 104.87 143.714 104.877 143.692 104.884 143.669 104.891 143.647 104.898 143.647 104.898 143.602 104.912 143.557 104.925 143.511 104.937 143.466 104.949 143.42 104.96 143.374 104.97 143.328 104.98 143.282 104.99 141.768 111.441 139.793 111.441 141.373 105.089 140.484 105.089 136.897 111.441 134.79 111.441 145.882 91.694 149.272 91.694 150.753 94.523" class="fil0 str0"/><polygon id="_131658288___0" fill="none" stroke="#000" stroke-width=".1" points="142.064 103.443 141.406 103.443 147.067 93.339 147.988 93.339 148.614 94.556 144.763 101.435 144.731 101.491 144.699 101.546 144.667 101.602 144.634 101.657 144.601 101.712 144.568 101.767 144.535 101.821 144.501 101.876 144.501 101.876 144.485 101.901 144.469 101.926 144.453 101.951 144.437 101.976 144.421 102 144.405 102.025 144.388 102.05 144.372 102.074 144.372 102.074 144.356 102.097 144.341 102.12 144.325 102.143 144.309 102.166 144.293 102.189 144.277 102.212 144.261 102.235 144.244 102.257 144.244 102.257 144.229 102.278 144.213 102.3 144.197 102.321 144.182 102.342 144.166 102.363 144.15 102.384 144.134 102.404 144.117 102.425 144.117 102.425 144.102 102.445 144.086 102.464 144.071 102.483 144.055 102.502 144.039 102.521 144.023 102.541 144.007 102.559 143.991 102.578 143.991 102.578 143.975 102.596 143.959 102.614 143.944 102.631 143.928 102.649 143.912 102.666 143.896 102.683 143.88 102.7 143.863 102.717 143.863 102.717 143.848 102.733 143.832 102.749 143.816 102.765 143.8 102.781 143.784 102.796 143.768 102.812 143.751 102.827 143.735 102.843 143.735 102.843 143.719 102.857 143.703 102.871 143.687 102.886 143.67 102.9 143.654 102.914 143.638 102.927 143.621 102.941 143.604 102.955 143.604 102.955 143.588 102.968 143.572 102.98 143.555 102.993 143.539 103.005 143.522 103.018 143.505 103.03 143.488 103.042 143.471 103.054 143.471 103.054 143.455 103.065 143.438 103.076 143.421 103.088 143.404 103.098 143.387 103.109 143.37 103.12 143.353 103.13 143.335 103.141 143.335 103.141 143.318 103.151 143.301 103.16 143.284 103.17 143.266 103.179 143.249 103.189 143.231 103.198 143.213 103.207 143.196 103.216 143.196 103.216 143.178 103.224 143.16 103.232 143.142 103.241 143.124 103.249 143.106 103.256 143.088 103.264 143.07 103.271 143.052 103.279 143.052 103.279 143.033 103.286 143.015 103.293 142.996 103.3 142.978 103.306 142.959 103.313 142.94 103.319 142.921 103.325 142.903 103.331 142.903 103.331 142.883 103.337 142.864 103.342 142.845 103.348 142.826 103.353 142.806 103.358 142.787 103.363 142.767 103.368 142.748 103.373 142.748 103.373 142.728 103.377 142.708 103.382 142.688 103.386 142.668 103.39 142.648 103.394 142.627 103.397 142.607 103.401 142.587 103.404 142.587 103.404 142.566 103.408 142.545 103.411 142.524 103.414 142.503 103.417 142.482 103.419 142.461 103.422 142.44 103.424 142.419 103.426 142.419 103.426 142.375 103.43 142.331 103.434 142.286 103.437 142.242 103.439 142.197 103.441 142.153 103.442 142.108 103.443 142.064 103.443" class="fil0 str0"/></g></g><polygon id="center_00" cx="47.282" cy="101.583" fill="none" stroke="#000" stroke-width=".1" points="74.404 101.583 74.365 102.327 74.248 103.064 74.056 103.784 73.788 104.48 73.45 105.144 73.044 105.769 72.575 106.349 72.048 106.876 71.468 107.345 70.843 107.751 70.179 108.089 69.483 108.357 68.763 108.55 68.026 108.666 67.282 108.705 66.537 108.666 65.801 108.55 65.081 108.357 64.385 108.089 63.721 107.751 63.096 107.345 62.516 106.876 61.989 106.349 61.52 105.769 61.114 105.144 60.775 104.48 60.508 103.784 60.315 103.064 60.199 102.327 60.16 101.583 60.199 100.839 60.315 100.102 60.508 99.382 60.775 98.686 61.114 98.022 61.52 97.397 61.989 96.817 62.516 96.29 63.096 95.821 63.721 95.415 64.385 95.077 65.081 94.809 65.801 94.616 66.537 94.5 67.282 94.461 68.026 94.5 68.763 94.616 69.483 94.809 70.179 95.077 70.843 95.415 71.468 95.821 72.048 96.29 72.575 96.817 73.044 97.397 73.45 98.022 73.788 98.686 74.056 99.382 74.248 100.102 74.365 100.839"/></g></svg>