<svg xmlns="http://www.w3.org/2000/svg" width="297mm" height="210mm" viewBox="0 0 297 210"><g id="Ebene_x0020_1"><circle id="center_00" cx="184.034" cy="66.704" r="2.5" fill="none" stroke="#000" stroke-width=".1"/><circle id="_tag_35_" cx="199.634" cy="76.704" r="1" fill="none" stroke="#000" stroke-width=".1"/><rect id="_tag_36_" width="3.64" height="14.7" x="195.994" y="69.354" fill="none" stroke="#000" stroke-width=".1"/><polygon id="_new_21_1" fill="none" stroke="#000" stroke-width=".1" points="199.034 66.704 169.034 66.704 169.034 75.351 168.979 77.835 168.833 80.174 168.622 82.465 168.374 84.807 168.117 87.299 167.877 90.04 167.683 93.129 167.562 96.663 167.534 96.664 167.534 98.091 167.534 99.443 167.534 122.704 168.834 122.704 168.88 119.625 169.033 117.189 169.31 115.319 169.731 113.94 170.316 112.976 171.085 112.352 172.056 111.992 173.248 111.82 173.248 111.82 173.407 111.808 173.565 111.797 173.72 111.788 173.874 111.78 174.026 111.773 174.176 111.767 174.324 111.763 174.471 111.759 174.471 111.759 176.124 111.866 177.569 112.094 178.845 112.417 179.99 112.805 181.043 113.23 182.042 113.664 183.026 114.079 184.033 114.446 184.033 114.446 184.372 114.559 184.72 114.661 185.078 114.751 185.447 114.828 185.83 114.891 186.228 114.938 186.642 114.968 187.075 114.98 187.075 114.98 187.09 114.98 187.106 114.98 187.122 114.98 187.137 114.98 187.153 114.979 187.169 114.979 187.185 114.978 187.2 114.978 187.2 114.978 187.217 114.978 187.234 114.979 187.25 114.979 187.267 114.979 187.284 114.979 187.301 114.98 187.318 114.98 187.334 114.98 187.334 114.98 188.518 114.805 189.684 114.327 190.853 113.639 192.041 112.833 193.269 111.999 194.553 111.229 195.913 110.616 197.368 110.251 197.368 110.251 197.733 110.409 198.077 110.666 198.394 111.019 198.672 111.469 198.905 112.012 199.082 112.648 199.194 113.375 199.234 114.192 200.534 114.192 200.534 99.443 200.534 95.842 200.487 95.844 200.352 92.504 200.153 89.567 199.916 86.945 199.666 84.544 199.427 82.275 199.225 80.047 199.086 77.769 199.034 75.351 199.034 66.704"/><polyline id="_new_22_1" fill="none" stroke="#000" stroke-width=".1" points="200.534 114.192 200.477 113.256 200.316 112.441 200.067 111.747 199.743 111.179 199.36 110.736 198.932 110.423 198.475 110.241 198.004 110.193 198.004 110.193 196.43 110.449 194.967 111.017 193.595 111.789 192.292 112.658 191.036 113.519 189.805 114.264 188.579 114.786 187.334 114.98 187.334 114.98 185.473 114.811 183.864 114.39 182.379 113.81 180.89 113.165 179.268 112.549 177.386 112.057 175.114 111.782 172.325 111.819 172.325 111.819 171.031 111.991 169.977 112.351 169.143 112.976 168.508 113.939 168.05 115.318 167.749 117.188 167.584 119.625 167.534 122.704"/><rect id="_tag_37_" width="28" height="5" x="170.034" y="61.704" fill="none" stroke="#000" stroke-width=".1"/></g></svg>
