<svg xmlns="http://www.w3.org/2000/svg" width="297mm" height="210mm" viewBox="0 0 297 210"><g id="Ebene_x0020_1"><polygon id="_tag_103_" fill="none" stroke="#000" stroke-width=".1" points="110.054 206.488 111.413 210.952 113.099 215.603 113.455 216.735 114.079 218.693 116.34 218.693 116.855 218.323 117.138 217.891 117.138 213.534 118.472 213.534 118.472 200.225 117.138 200.213 117.11 199.479 117.138 197 82.861 197 82.862 217.465 83.147 218.395 83.808 218.693 85.63 218.726 86.257 216.735 88.3 210.952 89.658 206.488 88.3 210.952 86.257 216.735 85.32 219.71 84.451 223.394 84.232 225.813 84.284 237.639 86.561 239.234 88.599 240.811 90.951 242.664 93.103 244.749 94.846 246.754 96.536 249.464 97.72 252.191 98.28 255.321 99.341 256.702 100.372 256.702 101.433 255.321 101.993 252.191 103.177 249.464 104.867 246.755 106.61 244.75 108.762 242.664 111.113 240.811 113.152 239.234 115.429 237.639 115.468 225.814 115.261 223.394 114.392 219.71 113.455 216.735 113.099 215.603 111.413 210.952"/><polygon id="_tag_104_" fill="none" stroke="#000" stroke-width=".1" points="97.948 245.74 96.46 243.447 94.362 241.223 92.335 239.575 90.692 238.537 90.001 237.688 90.174 236.589 91.017 236.101 91.842 235.878 93.323 235.748 99.734 235.635 106.563 235.757 108.221 235.889 109.367 236.332 109.63 237.313 109.372 238.249 108.573 238.959 107.143 239.782 104.845 241.505 103.069 243.484 101.67 245.4 100.873 246.549 100.022 247.138 99.081 246.993 98.503 246.58"/><polygon id="_tag_105_" fill="none" stroke="#000" stroke-width=".1" points="85.04 189.684 85.04 197 114.96 197 114.96 189.684"/><circle id="center_00" cx="100" cy="197" r="8.302" fill="none" stroke="#000" stroke-width=".1"/><polyline id="_new_94_1" fill="none" stroke="#000" stroke-width=".1" points="116.771 212.689 116.364 211.206 116.073 209.73 115.898 208.262 115.84 206.801 115.898 205.348 116.073 203.902 116.364 202.464 116.771 201.033"/></g></svg>
