<svg xmlns="http://www.w3.org/2000/svg" width="210mm" height="297mm" viewBox="0 0 210 297" xml:space="preserve" style="shape-rendering:geometricPrecision;text-rendering:geometricPrecision;image-rendering:optimizeQuality;fill-rule:evenodd;clip-rule:evenodd"><defs><style type="text/css">.str0{stroke:#1f1a17;stroke-width:.0762}.fil0{fill:none}</style></defs><g id="Ebene_x0020_1"><metadata id="CorelCorpID_0Corel-Layer"/><polygon id="_131315704" points="122.836 238.735 120.421 219.068 119.713 215.95 118.716 212.433 117.021 209.335 115.12 206.548 113.478 203.248 115.12 206.548 117.021 209.335 118.716 212.433 119.608 212.324 118.024 199.42 117.223 199.519 116.224 201.653 115.893 204.033 115.786 205.812 116.051 207.912 115.786 205.812 115.893 204.033 116.224 201.653 117.223 199.519 117.223 197 101.171 197 115.521 197 115.521 189.602 84.854 189.602 84.854 197 98.827 197 83.497 197 83.497 226.046 83.497 220.573 84.414 216.258 86.006 211.261 87.404 207.418 88.004 204.318 87.404 207.418 86.006 211.261 84.414 216.258 83.497 220.573 83.497 226.046 85.569 242.572 88.723 242.786 91.057 243.049 93.735 243.759 96.442 245.409 98.928 247.298 100.947 249.135 102.92 251.658 104.317 254.231 105.636 257.415 106.372 258.269 107.32 258.153 107.821 257.251 108.096 253.732 109.195 250.099 111.163 246.466 113.907 243.118 116.372 241.127 120.046 239.225" class="fil0 str0"/><polygon id="_131328184" points="103.989 248.409 101.784 245.89 99.252 244.01 96.243 242.509 95.277 241.836 94.887 241.157 94.832 239.833 95.296 239.018 96.487 238.406 104.082 237.336 111.885 236.538 113.335 236.601 114.054 237.337 114.252 238.207 114.039 239.258 113.208 240.314 110.537 242.752 108.449 245.404 107.058 248.185 106.5 249.201 106.028 249.524 105.243 249.602 104.508 249.116" class="fil0 str0"/><circle id="center_00" cx="100" cy="197" r="8.302" class="fil0 str0"/></g></svg>
