<svg xmlns="http://www.w3.org/2000/svg" width="297mm" height="210mm" viewBox="0 0 297 210"><g id="Ebene_x0020_1"><circle id="center_00" cx="89.2" cy="149.386" r="15" fill="none" stroke="#000" stroke-width=".1"/><circle id="_tag_89_" cx="89.2" cy="149.386" r="5" fill="none" stroke="#000" stroke-width=".1"/><polygon id="_new_73_1" fill="none" stroke="#000" stroke-width=".1" points="119.605 157.461 113.205 156.778 112.795 159.546 101.979 159.314 100.744 159.151 99.573 158.752 98.491 158.159 97.52 157.414 96.684 156.56 96.006 155.639 95.508 154.694 95.214 153.767 94.096 148.372 93.793 147.406 93.317 146.546 92.693 145.808 91.945 145.207 91.097 144.759 90.171 144.48 89.193 144.385 88.186 144.49 88.186 144.49 87.22 144.793 86.36 145.269 85.622 145.893 85.021 146.641 84.573 147.489 84.294 148.415 84.199 149.393 84.304 150.4 89.985 177.155 90.204 179.26 90.006 181.305 89.422 183.239 88.486 185.013 87.23 186.576 85.687 187.88 83.89 188.874 81.871 189.51 81.871 189.51 80.822 189.673 79.781 189.729 78.756 189.682 77.752 189.536 76.775 189.296 75.83 188.964 74.925 188.546 74.066 188.045 75.869 184.93 75.4 184.495 74.965 184.023 74.569 183.515 74.213 182.972 73.901 182.397 73.634 181.791 73.416 181.157 73.25 180.496 73.25 180.496 73.172 180.058 73.118 179.622 73.089 179.187 73.084 178.756 73.102 178.328 73.143 177.905 73.206 177.486 73.291 177.074 73.291 177.074 73.883 174.115 74.322 171.112 74.605 168.069 74.728 164.995 74.685 161.895 74.474 158.776 74.091 155.645 73.53 152.507 73.53 152.507 73.191 150.973 72.813 149.457 72.398 147.96 71.944 146.483 71.455 145.025 70.929 143.588 70.368 142.171 69.772 140.775 69.772 140.775 69.52 140.216 69.278 139.651 69.046 139.081 68.822 138.505 68.608 137.923 68.404 137.337 68.209 136.745 68.024 136.147 68.021 136.147 67.908 135.873 67.749 135.631 67.552 135.424 67.321 135.256 67.064 135.133 66.787 135.058 66.495 135.034 66.196 135.067 66.196 135.067 66.174 135.072 66.152 135.077 66.13 135.083 66.108 135.088 66.087 135.094 66.065 135.1 66.044 135.107 66.023 135.114 66.021 135.11 65.962 135.129 65.903 135.147 65.843 135.164 65.783 135.18 65.722 135.196 65.661 135.211 65.6 135.225 65.538 135.238 65.538 135.238 64.62 135.333 63.728 135.247 62.885 134.992 62.112 134.584 61.43 134.037 60.861 133.364 60.428 132.58 60.151 131.7 60.151 131.7 60.055 130.782 60.142 129.89 60.396 129.047 60.805 128.273 61.352 127.592 62.025 127.023 62.809 126.589 63.689 126.312 63.689 126.312 63.837 126.284 63.985 126.261 64.132 126.243 64.279 126.23 64.425 126.221 64.571 126.217 64.716 126.218 64.861 126.224 64.862 126.211 64.912 126.213 64.962 126.214 65.013 126.212 65.063 126.209 65.114 126.205 65.165 126.198 65.216 126.19 65.267 126.181 65.267 126.181 65.531 126.102 65.771 125.982 65.983 125.826 66.164 125.639 66.312 125.425 66.423 125.19 66.495 124.938 66.523 124.673 66.523 124.673 66.538 124.271 66.558 123.87 66.583 123.47 66.612 123.07 66.645 122.672 66.683 122.274 66.726 121.877 66.773 121.482 66.764 121.478 66.773 121.41 66.779 121.342 66.781 121.274 66.781 121.205 66.777 121.135 66.771 121.066 66.761 120.996 66.748 120.926 66.748 120.926 66.676 120.677 66.566 120.45 66.425 120.247 66.255 120.07 66.061 119.922 65.846 119.806 65.615 119.724 65.371 119.679 65.371 119.678 64.685 119.532 64.035 119.286 63.433 118.946 62.888 118.519 62.413 118.012 62.016 117.432 61.71 116.787 61.505 116.083 61.505 116.083 61.409 115.165 61.496 114.273 61.75 113.43 62.158 112.657 62.706 111.975 63.379 111.406 64.163 110.973 65.043 110.696 65.043 110.696 65.425 110.633 65.805 110.603 66.181 110.605 66.552 110.637 66.915 110.7 67.27 110.79 67.615 110.909 67.948 111.054 67.966 111.039 68.081 111.088 68.2 111.129 68.322 111.16 68.447 111.181 68.575 111.192 68.704 111.192 68.835 111.182 68.966 111.16 68.966 111.16 69.153 111.11 69.328 111.038 69.491 110.948 69.641 110.84 69.775 110.717 69.895 110.579 69.997 110.429 70.082 110.268 70.106 110.268 70.559 109.371 71.037 108.488 71.539 107.619 72.066 106.764 72.616 105.924 73.189 105.1 73.785 104.292 74.404 103.501 77.065 104.741 78.201 102.423 85.086 105.632 83.935 107.976 85.534 108.688 86.63 106.351 87.92 106.953 87.945 107.802 87.976 108.54 88.016 109.204 88.069 109.833 88.138 110.465 88.226 111.139 88.339 111.893 88.479 112.766 88.479 112.766 88.514 112.935 88.55 113.104 88.587 113.273 88.625 113.442 88.663 113.61 88.701 113.778 88.741 113.945 88.781 114.113 88.781 114.113 89.098 115.343 89.449 116.556 89.835 117.751 90.255 118.928 90.707 120.086 91.192 121.224 91.708 122.342 92.255 123.44 92.255 123.44 94.402 127.113 96.89 130.515 99.691 133.628 102.778 136.432 106.123 138.91 109.697 141.042 113.472 142.811 117.42 144.199 118.497 144.458 118.047 149.422 120.169 149.683 119.605 157.461"/><polygon id="_new_74_1" fill="none" stroke="#000" stroke-width=".1" points="88.456 137.162 88.239 137.177 88.022 137.197 87.805 137.22 87.588 137.247 87.37 137.278 87.152 137.313 86.934 137.352 86.716 137.395 86.716 137.395 85.81 137.619 84.937 137.905 84.098 138.252 83.296 138.655 82.531 139.112 81.807 139.621 81.126 140.178 80.488 140.78 80.465 140.761 80.328 140.891 80.182 141.011 80.026 141.121 79.862 141.22 79.689 141.308 79.508 141.382 79.32 141.444 79.125 141.492 79.125 141.492 78.713 141.545 78.308 141.532 77.917 141.459 77.545 141.328 77.198 141.145 76.883 140.912 76.604 140.635 76.369 140.315 76.369 140.315 75.607 139.191 74.901 138.023 74.253 136.814 73.664 135.564 73.137 134.276 72.674 132.951 72.278 131.589 71.95 130.194 71.95 130.194 71.666 128.581 71.482 126.975 71.396 125.381 71.405 123.799 71.509 122.234 71.703 120.687 71.987 119.162 72.357 117.66 72.358 117.66 72.475 117.324 72.636 117.008 72.837 116.716 73.077 116.454 73.351 116.225 73.658 116.034 73.994 115.885 74.356 115.783 74.356 115.783 74.533 115.752 74.709 115.734 74.884 115.728 75.057 115.733 75.228 115.75 75.396 115.778 75.562 115.816 75.723 115.865 75.723 115.865 75.728 115.866 75.758 115.877 75.787 115.887 75.816 115.898 75.845 115.909 75.874 115.921 75.903 115.933 75.931 115.945 75.96 115.958 83.176 118.793 83.182 118.795 83.189 118.798 83.195 118.8 83.201 118.802 83.208 118.805 83.214 118.807 83.22 118.81 83.227 118.812 83.24 118.818 83.24 118.818 83.51 118.947 83.763 119.106 83.997 119.293 84.208 119.505 84.395 119.742 84.555 120.001 84.685 120.282 84.783 120.581 84.783 120.581 84.787 120.597 84.791 120.613 84.795 120.629 84.798 120.646 84.802 120.662 84.806 120.678 84.809 120.694 84.813 120.711 84.813 120.711 85.318 122.376 85.884 124.01 86.507 125.61 87.188 127.176 87.924 128.706 88.713 130.2 89.555 131.658 90.448 133.076 90.447 133.079 90.509 133.18 90.567 133.284 90.62 133.391 90.668 133.501 90.712 133.615 90.751 133.731 90.784 133.85 90.813 133.971 90.813 133.971 90.868 134.5 90.818 135.013 90.671 135.498 90.436 135.943 90.121 136.336 89.734 136.663 89.283 136.912 88.776 137.072 88.776 137.072 88.739 137.079 88.702 137.086 88.664 137.092 88.627 137.098 88.59 137.103 88.552 137.108 88.515 137.112 88.478 137.116 88.456 137.162"/><polygon id="_new_75_1" fill="none" stroke="#000" stroke-width=".1" points="64.234 128.946 64.611 128.907 64.976 128.942 65.322 129.047 65.639 129.214 65.919 129.438 66.152 129.714 66.329 130.036 66.443 130.397 66.443 130.397 66.482 130.773 66.447 131.138 66.342 131.484 66.175 131.801 65.951 132.081 65.675 132.314 65.353 132.491 64.992 132.605 64.992 132.605 64.616 132.644 64.251 132.609 63.905 132.504 63.588 132.337 63.308 132.112 63.075 131.837 62.898 131.515 62.784 131.154 62.784 131.154 62.745 130.778 62.78 130.413 62.885 130.067 63.052 129.75 63.276 129.47 63.552 129.237 63.874 129.06 64.234 128.946"/><polygon id="_new_76_1" fill="none" stroke="#000" stroke-width=".1" points="65.588 113.329 65.965 113.29 66.33 113.325 66.676 113.43 66.993 113.597 67.272 113.821 67.505 114.097 67.683 114.419 67.797 114.779 67.797 114.779 67.836 115.156 67.8 115.521 67.696 115.867 67.529 116.184 67.304 116.464 67.029 116.697 66.707 116.874 66.346 116.988 66.346 116.988 65.97 117.027 65.604 116.992 65.259 116.887 64.942 116.72 64.662 116.495 64.429 116.22 64.251 115.898 64.138 115.537 64.138 115.537 64.099 115.161 64.134 114.796 64.239 114.45 64.406 114.133 64.63 113.853 64.906 113.62 65.227 113.443 65.588 113.329"/><polygon id="_new_77_1" fill="none" stroke="#000" stroke-width=".1" points="80.124 174.418 81.042 174.322 81.933 174.409 82.777 174.663 83.55 175.072 84.232 175.619 84.8 176.292 85.234 177.076 85.511 177.956 85.511 177.956 85.607 178.874 85.52 179.766 85.266 180.609 84.857 181.383 84.31 182.064 83.637 182.633 82.853 183.066 81.973 183.343 81.973 183.343 81.055 183.439 80.163 183.352 79.32 183.098 78.546 182.69 77.865 182.142 77.296 181.469 76.863 180.686 76.586 179.805 76.586 179.805 76.49 178.887 76.577 177.996 76.831 177.152 77.239 176.379 77.787 175.697 78.46 175.129 79.243 174.695 80.124 174.418"/></g></svg>