<svg xmlns="http://www.w3.org/2000/svg" width="297mm" height="210mm" viewBox="0 0 297 210"><g id="Ebene_x0020_1"><polygon id="_new_2_1" fill="none" stroke="#000" stroke-width=".1" points="75.23 167.699 76.777 169.251 81.246 166.329 79.575 157.745 81.564 153.556 79.488 147.505 79.673 146.406 80.034 145.372 80.556 144.42 81.222 143.569 82.016 142.835 82.923 142.238 83.927 141.793 85.012 141.519 85.012 141.519 85.839 141.438 86.665 141.463 87.479 141.589 88.271 141.813 89.029 142.131 89.742 142.539 90.399 143.033 90.989 143.611 93.972 152.275 94.677 152.652 95.398 153.009 96.131 153.344 96.873 153.655 97.62 153.942 98.367 154.203 99.112 154.437 99.851 154.641 99.851 154.641 100.569 154.816 101.319 154.972 102.092 155.109 102.877 155.224 103.662 155.315 104.438 155.382 105.193 155.422 105.917 155.433 125.749 155.453 125.748 139.453 107.517 139.45 106.261 139.326 105.075 138.99 103.982 138.461 103.002 137.758 102.158 136.899 101.469 135.904 100.958 134.791 100.647 133.58 100.647 133.58 100.61 133.312 100.584 133.038 100.568 132.759 100.564 132.478 100.57 132.198 100.587 131.922 100.614 131.652 100.65 131.39 100.65 131.39 100.906 129.772 101.246 128.077 101.663 126.337 102.149 124.582 102.698 122.842 103.301 121.15 103.952 119.533 104.643 118.025 108.142 110.831 96.176 105.752 92.268 114.957 90.891 118.177 89.333 121.294 87.601 124.307 85.703 127.213 83.645 130.009 81.437 132.693 79.083 135.263 76.594 137.717 76.594 137.717 75.562 138.875 74.682 140.144 73.959 141.504 73.4 142.939 73.01 144.429 72.796 145.955 72.763 147.501 72.918 149.046 72.918 149.046 72.961 149.294 73.01 149.548 73.064 149.804 73.122 150.061 73.185 150.314 73.252 150.561 73.322 150.8 73.395 151.026 77.169 162 77.198 162.087 77.225 162.178 77.251 162.273 77.275 162.371 77.297 162.47 77.318 162.568 77.337 162.666 77.353 162.761 77.353 162.761 77.416 163.478 77.376 164.188 77.236 164.88 77.003 165.545 76.681 166.17 76.275 166.744 75.789 167.258 75.23 167.699"/><polygon id="_new_3_1" fill="none" stroke="#000" stroke-width=".1" points="96.249 143.491 100.065 154.697 99.086 154.427 98.115 154.118 97.157 153.771 96.212 153.385 95.284 152.961 94.376 152.499 93.489 152.001 92.627 151.466 89.973 143.688 89.483 143.208 88.937 142.798 88.345 142.459 87.716 142.195 87.058 142.009 86.382 141.904 85.696 141.884 85.009 141.951 85.009 141.951 84.108 142.178 83.274 142.547 82.521 143.044 81.861 143.653 81.308 144.36 80.875 145.15 80.575 146.009 80.422 146.922 85.555 161.967 87.624 172.891 87.626 172.904 87.629 172.919 87.632 172.936 87.634 172.953 87.637 172.97 87.64 172.987 87.642 173.002 87.645 173.015 87.645 173.015 87.726 173.713 87.745 174.416 87.703 175.119 87.6 175.816 87.438 176.502 87.218 177.171 86.941 177.818 86.608 178.438 86.608 178.438 85.809 179.621 84.889 180.704 83.861 181.678 82.735 182.536 81.526 183.269 80.243 183.868 78.901 184.325 77.511 184.633 77.511 184.633 77.036 184.701 76.552 184.752 76.062 184.785 75.571 184.802 75.082 184.801 74.598 184.783 74.124 184.747 73.663 184.695 75.654 181.204 74.93 180.708 74.266 180.138 73.669 179.502 73.142 178.807 72.692 178.062 72.324 177.272 72.042 176.446 71.853 175.591 71.853 175.591 71.751 174.41 71.823 173.239 72.061 172.1 72.457 171.01 73.003 169.991 73.691 169.061 74.513 168.24 75.46 167.549 75.46 167.549 76.288 166.945 77.006 166.227 77.608 165.414 78.086 164.522 78.432 163.569 78.641 162.572 78.703 161.548 78.614 160.515 78.614 160.515 78.591 160.381 78.565 160.245 78.536 160.106 78.504 159.968 78.47 159.832 78.434 159.699 78.396 159.571 78.357 159.449 75.249 150.415 75.186 150.223 75.127 150.02 75.07 149.81 75.016 149.595 74.966 149.377 74.921 149.159 74.879 148.943 74.843 148.732 74.843 148.732 74.707 146.503 75.011 144.354 75.716 142.337 76.786 140.505 78.184 138.908 79.872 137.598 81.813 136.627 83.97 136.047 83.97 136.047 85.958 135.908 87.901 136.126 89.756 136.674 91.482 137.528 93.036 138.662 94.377 140.051 95.462 141.669 96.249 143.491"/><polygon id="_new_4_1" fill="none" stroke="#000" stroke-width=".1" points="75.249 174.303 75.341 173.398 75.603 172.554 76.019 171.79 76.569 171.124 77.236 170.573 78 170.158 78.844 169.895 79.749 169.803 79.749 169.803 80.654 169.895 81.498 170.158 82.262 170.573 82.928 171.124 83.478 171.79 83.894 172.554 84.157 173.398 84.249 174.303 84.249 174.303 84.157 175.208 83.894 176.052 83.478 176.816 82.928 177.482 82.262 178.033 81.498 178.448 80.654 178.711 79.749 178.803 79.749 178.803 78.844 178.711 78 178.448 77.236 178.033 76.569 177.482 76.019 176.816 75.603 176.052 75.341 175.208 75.249 174.303"/><line id="_tag_18_" x1="96.249" x2="100.069" y1="143.491" y2="154.697" fill="none" stroke="#000" stroke-width=".1"/><circle id="_tag_19_" cx="85.761" cy="146.97" r="5" fill="none" stroke="#000" stroke-width=".1"/><circle id="center_00" cx="85.761" cy="146.97" r="2.5" fill="none" stroke="#000" stroke-width=".1"/></g></svg>
