<svg xmlns="http://www.w3.org/2000/svg" width="297mm" height="210mm" viewBox="0 0 297 210"><g id="_12"><polygon id="_new_37_1" fill="none" stroke="#000" stroke-width=".1" points="73.851 161.614 73.851 161.614 72.052 161.549 70.27 161.356 68.51 161.037 66.78 160.593 65.086 160.027 63.435 159.341 61.833 158.536 60.287 157.614 57.827 149.928 57.248 149.356 56.603 148.883 55.902 148.511 55.159 148.245 54.386 148.088 53.594 148.043 52.796 148.114 52.005 148.305 52.005 148.305 51.25 148.609 50.56 149.014 49.941 149.51 49.403 150.087 48.952 150.735 48.597 151.444 48.346 152.205 48.208 153.007 51.865 164.436 54.248 175.867 42.529 174.888 43.236 174.151 43.821 173.333 44.278 172.448 44.604 171.512 44.795 170.539 44.846 169.544 44.754 168.543 44.514 167.55 41.163 157.076 41.163 157.077 40.721 155.25 40.547 153.409 40.635 151.578 40.978 149.786 41.567 148.059 42.397 146.425 43.459 144.911 44.747 143.543 44.747 143.543 47.208 141.148 49.522 138.623 51.684 135.974 53.691 133.208 55.537 130.333 57.218 127.355 58.728 124.281 60.064 121.118 63.971 111.913 75.938 116.993 72.452 124.193 71.653 125.937 70.931 127.711 70.285 129.512 69.716 131.338 69.226 133.187 68.814 135.055 68.482 136.942 68.23 138.843 68.23 138.843 68.187 139.584 68.223 140.319 68.335 141.043 68.521 141.749 68.779 142.432 69.109 143.086 69.507 143.705 69.972 144.283 69.972 144.283 70.496 144.809 71.067 145.273 71.681 145.672 72.331 146.005 73.012 146.267 73.719 146.458 74.446 146.575 75.187 146.614 93.544 146.614 93.544 161.614 73.851 161.614"/><polygon id="_new_38_1" fill="none" stroke="#000" stroke-width=".1" points="43.496 156.33 43.496 156.33 43.159 154.97 43.005 153.597 43.032 152.226 43.235 150.875 43.61 149.562 44.155 148.303 44.864 147.117 45.736 146.02 45.736 146.02 46.744 145.048 47.857 144.228 49.057 143.566 50.329 143.066 51.654 142.735 53.016 142.577 54.398 142.599 55.784 142.805 55.784 142.805 57.129 143.192 58.396 143.746 59.57 144.454 60.638 145.306 61.588 146.288 62.405 147.388 63.078 148.596 63.592 149.899 67.038 160.668 66.148 160.398 65.269 160.095 64.402 159.76 63.549 159.393 62.71 158.994 61.886 158.565 61.078 158.105 60.286 157.614 57.827 149.929 57.248 149.356 56.603 148.883 55.902 148.511 55.159 148.245 54.386 148.088 53.594 148.044 52.796 148.115 52.005 148.305 52.005 148.305 51.25 148.609 50.56 149.015 49.941 149.511 49.402 150.088 48.952 150.736 48.597 151.445 48.346 152.205 48.208 153.007 51.865 164.436 54.887 178.934 55.002 179.662 55.044 180.393 55.016 181.122 54.917 181.842 54.749 182.55 54.512 183.239 54.209 183.905 53.838 184.543 53.838 184.543 52.766 185.972 51.527 187.224 50.142 188.289 48.633 189.155 47.022 189.812 45.331 190.25 43.581 190.457 41.794 190.424 43.794 186.959 42.979 186.415 42.25 185.776 41.614 185.056 41.077 184.263 40.646 183.408 40.326 182.502 40.124 181.554 40.045 180.576 40.045 180.576 40.095 179.597 40.269 178.644 40.561 177.728 40.967 176.861 41.48 176.052 42.093 175.313 42.803 174.653 43.602 174.084 43.602 174.084 44.037 173.792 44.445 173.473 44.824 173.128 45.174 172.759 45.494 172.368 45.784 171.956 46.043 171.527 46.269 171.081 46.269 171.081 46.398 170.787 46.513 170.487 46.614 170.183 46.702 169.873 46.775 169.56 46.833 169.243 46.878 168.924 46.907 168.602 46.907 168.602 46.921 168.278 46.921 167.952 46.905 167.625 46.873 167.298 46.826 166.971 46.763 166.645 46.684 166.32 46.589 165.996 46.589 165.996 43.496 156.33"/><polyline id="_new_38_2" fill="none" stroke="#000" stroke-width=".1" points="43.496 156.33 43.496 156.33"/><circle id="_tag_49_" cx="53.538" cy="153.114" r="5" fill="none" stroke="#000" stroke-width=".1"/><circle id="center_00" cx="53.538" cy="153.114" r="3.393" fill="none" stroke="#000" stroke-width=".1"/><circle id="_tag_50_" cx="47.544" cy="180.464" r="4.5" fill="none" stroke="#000" stroke-width=".1"/></g></svg>