<svg xmlns="http://www.w3.org/2000/svg" width="297mm" height="210mm" viewBox="0 0 297 210"><g id="Ebene_x0020_1"><g id="Ebene_x0020_1_0"><polygon id="polygon10" fill="none" stroke="#000" stroke-width=".1" points="14.861 305.565 18.216 305.877 33.583 305.948 38.927 304.845 38.803 294.027 33.643 292.949 28.734 292.926 24.369 292.903 20.335 291.564 18.493 289.591 17.527 287.001 17.103 281.172 17.455 276.508 18.158 272.698 19.187 269.03 19.494 268.314 19.692 263.437 12.256 260.757 9.389 263.969 8.204 266.726 5.537 271.681 1.09 278.576 -4.049 284.794 -8.062 288.617 -10.395 291.395 -11.819 294.56 -12.33 297.231 -12.222 300.33 -11.573 302.791 -8.416 311.296 -8.166 312.243 -8.204 313.986 -10.25 317.127 -12.131 319.101 -10.733 320.333 -6.595 316.64 -4.036 307.982 -6.759 300.874 -6.934 294.223 .257 290.063 5.444 291.878 8.962 299.45 12.517 304.99"/><line id="line12" x1="33.583" x2="28.734" y1="305.948" y2="292.926" fill="none" stroke="#000" stroke-width=".1"/><line id="line14" x1="19.494" x2="8.386" y1="268.314" y2="266.303" fill="none" stroke="#000" stroke-width=".1"/><polygon id="polyline16" fill="none" stroke="#000" stroke-width=".1" points="15.132 305.609 10.981 294.477 9.316 291.502 7.458 289.642 5.786 288.551 3.3 287.588 .83 287.251 -1.111 287.382 -4.447 288.476 -6.637 289.97 -8.453 292.003 -9.787 294.589 -10.382 297.248 -10.296 300.025 -9.745 302.116 -7.303 308.699 -6.954 310.024 -6.932 312.053 -7.947 314.848 -9.299 316.221 -10.058 316.993 -12.131 319.101 -13.211 321.455 -13.4 324.818 -12.669 327.099 -11.374 328.985 -9.581 330.449 -11.589 333.931 -7.783 333.887 -5.048 333.134 -2.697 331.912 -.707 330.314 1.341 327.733 2.18 325.798 2.49 323.827 2.394 322.258 .866 313.433 -4.718 298.438 -3.872 295.789 -2.019 293.987 -.085 293.286 1.587 293.27 3.097 293.714 4.747 294.913 7.681 302.781 9.71 303.884 12.517 304.99"/><polygon id="polygon18" fill="none" stroke="#000" stroke-width=".1" points="11.542 287.564 11.3 288.504 10.459 289.016 9.368 288.685 6.727 286.827 4.43 285.867 3.547 284.834 3.822 283.813 6.183 280.499 8.894 276.69 9.779 276.113 10.746 276.346 11.267 277.193 11.071 281.028 11.151 284.104"/><polygon id="polygon22" fill="none" stroke="#000" stroke-width=".1" points="-1.054 322.863 -1.926 320.844 -3.801 319.409 -6.202 319.122 -8.056 319.866 -9.485 321.487 -9.943 324.271 -9.055 326.315 -7.295 327.69 -4.794 328.012 -2.764 327.139 -1.334 325.267"/><ellipse id="circle24" cx=".655" cy="298.387" r="5" fill="none" stroke="#000" stroke-width=".1"/><ellipse id="center_00" cx=".655" cy="298.387" r="5" fill="none" stroke="#000" stroke-width=".1"/></g></g></svg>