<svg xmlns="http://www.w3.org/2000/svg" width="297mm" height="210mm" viewBox="0 0 297 210"><g id="Ebene_x0020_1"><g id="_129881328"><circle cx="123.585" cy="85.03" r="5" fill="none" stroke="#000" stroke-width=".1"/><polygon id="_129970264" fill="none" stroke="#000" stroke-width=".1" points="114.424 76.291 117.283 73.383 119.823 70.54 122.074 67.734 124.068 64.935 125.834 62.112 127.405 59.236 128.81 56.277 130.081 53.205 134.383 41.864 145.597 46.51 140.662 58.422 136.415 69.659 136.091 70.763 135.986 71.881 136.088 72.985 136.388 74.045 136.876 75.035 137.542 75.925 138.378 76.689 139.372 77.296 139.372 77.296 139.669 77.431 139.97 77.548 140.273 77.648 140.579 77.731 140.886 77.798 141.194 77.848 141.503 77.881 141.811 77.899 153.018 78.484 164.262 78.257 167.241 78.196 167.169 91.779 164.112 91.763 134.344 91.605 133.589 91.551 132.893 91.403 132.262 91.17 131.701 90.862 131.214 90.486 130.807 90.051 130.484 89.567 130.251 89.042 128.307 83.384 127.956 82.605 127.487 81.908 126.914 81.303 126.252 80.803 125.515 80.418 124.716 80.159 123.872 80.038 122.995 80.065 122.995 80.065 122.006 80.285 121.109 80.685 120.32 81.243 119.657 81.937 119.138 82.744 118.78 83.641 118.602 84.608 118.62 85.62 118.62 85.62 118.634 85.73 118.65 85.839 118.669 85.947 118.691 86.055 118.714 86.163 118.741 86.271 118.769 86.378 118.8 86.485 125.451 108.317 125.508 108.514 125.562 108.713 125.613 108.914 125.66 109.116 125.704 109.32 125.745 109.525 125.782 109.732 125.815 109.94 125.815 109.94 125.934 112.308 125.59 114.582 124.821 116.71 123.668 118.638 122.17 120.312 120.367 121.677 118.297 122.682 116 123.271 116 123.271 115.863 123.291 115.727 123.31 115.59 123.326 115.454 123.342 115.318 123.355 115.183 123.367 115.048 123.377 114.914 123.386 114.146 122.417 114.934 118.28 113.923 118.007 112.978 117.584 112.115 117.021 111.349 116.332 110.697 115.53 110.174 114.626 109.796 113.633 109.58 112.563 109.58 112.563 109.535 111.955 109.546 111.356 109.61 110.769 109.724 110.197 109.887 109.644 110.096 109.11 110.349 108.601 110.644 108.118 110.644 108.118 111.427 106.963 112.101 105.737 112.661 104.447 113.101 103.102 113.414 101.708 113.594 100.274 113.635 98.808 113.532 97.318 113.532 97.318 113.504 97.097 113.473 96.877 113.44 96.659 113.406 96.443 113.37 96.229 113.333 96.017 113.295 95.808 113.257 95.603 111.217 87.741 111.185 87.588 111.154 87.435 111.126 87.283 111.1 87.131 111.075 86.98 111.052 86.828 111.032 86.676 111.013 86.524 111.013 86.524 110.923 85.108 110.99 83.719 111.204 82.367 111.56 81.061 112.049 79.81 112.664 78.624 113.399 77.512 114.244 76.484 114.244 76.484 114.267 76.46 114.289 76.435 114.311 76.411 114.334 76.387 114.356 76.363 114.379 76.339 114.401 76.315 114.424 76.291"/><circle id="_130573080" cx="116.139" cy="111.784" r="5" fill="none" stroke="#000" stroke-width=".1"/><circle id="center_00" cx="123.585" cy="85.03" r="5" fill="none" stroke="#000" stroke-width=".1"/></g></g></svg>