<svg xmlns="http://www.w3.org/2000/svg" width="297mm" height="210mm" viewBox="0 0 297 210"><g id="Ebene_x0020_1"><g id="_130661360"><polygon id="_131578024" fill="none" stroke="#000" stroke-width=".1" points="47.17 52.476 46.987 52.898 46.656 53.639 46.307 54.384 45.949 55.13 45.575 55.868 45.194 56.613 44.798 57.356 44.388 58.096 43.969 58.833 43.539 59.566 43.096 60.298 42.642 61.026 42.178 61.747 41.705 62.465 41.221 63.18 40.728 63.887 40.228 64.586 39.714 65.282 39.19 65.971 38.659 66.647 38.122 67.319 37.575 67.979 37.017 68.632 36.453 69.276 35.878 69.908 35.301 70.527 34.713 71.138 34.119 71.736 33.518 72.321 32.91 72.894 32.296 73.449 31.679 73.995 31.051 74.525 30.733 74.797 30.422 75.082 30.127 75.374 29.837 75.674 29.562 75.986 29.294 76.306 29.041 76.637 28.794 76.972 28.561 77.314 28.34 77.668 28.128 78.026 27.931 78.39 27.745 78.761 27.569 79.136 27.403 79.518 27.251 79.903 27.114 80.295 26.987 80.689 26.87 81.092 26.768 81.496 26.68 81.903 26.602 82.314 26.542 82.725 26.491 83.136 26.451 83.553 26.43 83.973 26.417 84.391 26.424 84.811 26.439 85.229 26.469 85.65 26.516 86.068 26.574 86.489 26.689 87.1 26.839 87.723 27.018 88.333 27.215 88.903 30.379 97.465 30.525 97.918 30.628 98.392 30.679 98.921 30.679 99.448 30.618 99.966 30.509 100.473 30.347 100.966 30.135 101.444 29.878 101.891 29.57 102.315 29.226 102.707 28.832 103.056 28.462 103.341 28.011 103.708 27.593 104.107 27.207 104.529 26.853 104.978 26.53 105.45 26.243 105.944 25.995 106.455 25.783 106.984 25.605 107.525 25.467 108.083 25.371 108.644 25.314 109.217 25.299 109.798 25.327 110.381 25.396 110.962 25.478 111.392 25.587 111.82 25.719 112.242 25.876 112.652 26.056 113.058 26.257 113.452 26.48 113.838 26.719 114.206 26.98 114.568 27.261 114.911 27.558 115.238 27.871 115.554 28.2 115.849 28.539 116.124 28.895 116.381 29.265 116.619 27.25 120.069 27.707 120.126 28.171 120.163 28.641 120.182 29.113 120.185 29.587 120.171 30.063 120.141 30.537 120.094 31.012 120.028 31.712 119.894 32.402 119.725 33.077 119.521 33.746 119.276 34.395 118.997 35.026 118.685 35.641 118.338 36.238 117.961 36.811 117.551 37.366 117.112 37.893 116.645 38.397 116.148 38.869 115.626 39.315 115.078 39.732 114.504 40.114 113.907 40.32 113.546 40.552 113.079 40.753 112.599 40.925 112.105 41.061 111.597 41.17 111.085 41.239 110.56 41.281 110.036 41.285 109.508 41.258 108.986 41.193 108.46 39.654 99.585 34.075 84.598 34.129 84.118 34.212 83.651 34.335 83.202 34.497 82.765 34.694 82.345 34.926 81.943 35.19 81.564 35.481 81.208 35.803 80.879 36.152 80.574 36.53 80.302 36.926 80.059 37.342 79.849 37.782 79.678 38.236 79.541 38.702 79.444 39.211 79.391 39.718 79.381 40.219 79.421 40.714 79.505 41.196 79.632 41.667 79.802 42.121 80.013 42.55 80.268 42.961 80.559 43.343 80.892 46.389 88.77 46.81 89.032 47.242 89.282 47.683 89.527 48.127 89.762 48.584 89.99 49.049 90.208 49.517 90.416 49.992 90.613 50.474 90.796 50.955 90.969 51.443 91.132 51.934 91.281 52.422 91.417 52.918 91.542 53.411 91.648 53.886 91.74 54.631 91.848 55.033 91.9 55.441 91.942 55.845 91.98 56.438 92.015 56.996 92.033 72.169 92.099 72.168 91.6 79.356 91.636 79.412 79.642 72.225 79.605 72.229 79.11 67.509 79.085 60.326 79.048 59.659 79.011 59.043 78.918 58.447 78.772 57.87 78.577 57.319 78.336 56.787 78.046 56.286 77.714 55.815 77.34 55.38 76.923 54.981 76.478 54.617 75.994 54.3 75.48 54.019 74.933 53.795 74.363 53.613 73.767 53.488 73.153 53.439 72.731 53.421 72.295 53.422 71.86 53.439 71.446 53.476 70.922 53.523 70.397 53.574 69.875 53.635 69.352 53.7 68.829 53.775 68.308 53.854 67.787 53.943 67.269 54.036 66.746 54.139 66.23 54.246 65.709 54.359 65.196 54.481 64.682 54.608 64.167 54.739 63.656 54.881 63.148 55.027 62.639 55.178 62.135 55.335 61.633 55.501 61.136 55.667 60.638 55.843 60.143 56.025 59.656 56.211 59.169 56.398 58.681 56.594 58.202 56.797 57.726 57.004 57.254 57.216 56.785 57.434 56.321 57.653 55.861 57.881 55.404 58.229 54.595 57.772 54.395 60.58 47.86 51.395 43.913 48.587 50.448 48.127 50.253"/><polyline id="_132163488_1" fill="none" stroke="#000" stroke-width=".1" points="28.735 103.14 28.949 103 29.156 102.847 29.357 102.69 29.549 102.526 29.739 102.352 29.919 102.176 30.088 101.992 30.257 101.803 30.412 101.612 30.565 101.412 30.708 101.204 30.846 100.998 30.974 100.783 31.097 100.565 31.21 100.344 31.313 100.119 31.411 99.891 31.503 99.654 31.581 99.42 31.655 99.182 31.718 98.94 31.777 98.695 31.821 98.452 31.86 98.201 31.89 97.951 31.911 97.703 31.922 97.452 31.923 97.197 31.915 96.944 31.902 96.687 31.876 96.432 31.84 96.174 31.81 96.013 31.779 95.847 31.738 95.677 31.693 95.509 31.648 95.345 31.599 95.181 31.546 95.023 31.495 94.874 29.042 88.234 28.959 87.997 28.878 87.751 28.8 87.495 28.727 87.234 28.657 86.968 28.597 86.704 28.545 86.44 28.5 86.183 28.424 85.617 28.378 85.061 28.363 84.503 28.373 83.951 28.411 83.404 28.479 82.867 28.57 82.334 28.686 81.807 28.83 81.29 28.995 80.783 29.188 80.28 29.402 79.793 29.637 79.317 29.896 78.855 30.176 78.404 30.477 77.967 30.799 77.547 31.142 77.141 31.505 76.75 31.881 76.376 32.282 76.021 32.696 75.688 33.127 75.37 33.575 75.077 34.041 74.804 34.518 74.548 35.014 74.322 35.523 74.116 36.039 73.933 36.574 73.779 37.123 73.65 37.679 73.544 38.169 73.48 38.652 73.436 39.139 73.414 39.619 73.412 40.099 73.433 40.573 73.478 41.045 73.538 41.511 73.621 41.971 73.724 42.429 73.841 42.877 73.983 43.319 74.144 43.754 74.32 44.182 74.516 44.6 74.727 45.006 74.959 45.405 75.201 45.794 75.468 46.167 75.746 46.532 76.04 46.886 76.349 47.225 76.674 47.552 77.016 47.862 77.369 48.156 77.738 48.438 78.119 48.704 78.512 48.954 78.921 49.187 79.342 49.399 79.775 49.594 80.216 49.764 80.637 53.922 91.78"/><line id="_132175664" x1="57.772" x2="47.17" y1="54.395" y2="52.476" fill="none" stroke="#000" stroke-width=".1"/><line id="_132174744" x1="72.168" x2="67.509" y1="91.6" y2="79.085" fill="none" stroke="#000" stroke-width=".1"/><circle id="_132081416" cx="33.295" cy="109.712" r="4.5" fill="none" stroke="#000" stroke-width=".1"/><circle id="rear_axle" cx="39.412" cy="84.45" r="5" fill="none" stroke="#000" stroke-width=".1"/><circle id="center_00" cx="39.412" cy="84.45" r="5" fill="none" stroke="#000" stroke-width=".1"/></g></g></svg>