<svg xmlns="http://www.w3.org/2000/svg" width="297mm" height="300mm" viewBox="0 0 297 300"><g id="Ebene_x0020_1"><circle id="_tag_733_" cx="74.411" cy="207.746" r="5" fill="none" stroke="#000" stroke-width=".1"/><polygon id="_new_694_1" fill="none" stroke="#000" stroke-width=".1" points="84.192 211.876 78.366 204.675 77.641 203.94 76.81 203.383 75.902 203.007 74.945 202.815 73.97 202.808 73.004 202.989 72.078 203.36 71.221 203.924 71.221 203.924 70.494 204.647 69.941 205.474 69.565 206.378 69.371 207.33 69.361 208.3 69.538 209.261 69.906 210.184 70.469 211.04 76.355 218.325 76.598 218.687 76.774 219.065 76.898 219.464 76.981 219.886 77.04 220.334 77.085 220.812 77.132 221.322 77.194 221.869 78.557 230.627 79.135 231.193 79.649 231.815 80.094 232.488 80.466 233.208 80.761 233.969 80.973 234.767 81.099 235.597 81.134 236.454 81.134 236.454 81.112 236.816 81.068 237.171 81.006 237.521 80.929 237.866 80.843 238.208 80.752 238.546 80.661 238.883 80.573 239.219 80.573 239.219 79.054 242.918 77.077 245.357 74.822 246.762 72.47 247.363 70.201 247.388 68.195 247.064 66.633 246.62 65.696 246.285 65.696 246.285 65.212 246.029 64.878 245.706 64.681 245.337 64.606 244.94 64.637 244.535 64.761 244.142 64.962 243.781 65.226 243.471 67.693 241.241 67.289 240.711 66.93 240.146 66.619 239.548 66.361 238.921 66.158 238.268 66.013 237.593 65.931 236.897 65.915 236.185 65.915 236.185 65.94 235.655 66.007 235.137 66.112 234.631 66.251 234.137 66.42 233.655 66.615 233.186 66.831 232.73 67.066 232.286 67.066 232.286 67.794 230.163 67.809 227.918 67.274 225.635 66.355 223.395 65.214 221.282 64.018 219.379 62.929 217.769 62.113 216.535 62.113 216.535 61.531 215.532 60.996 214.495 60.515 213.426 60.097 212.324 59.748 211.191 59.477 210.026 59.292 208.83 59.199 207.603 59.199 207.603 59.444 204.494 60.302 201.634 61.595 199.057 63.139 196.795 64.754 194.881 66.26 193.35 67.474 192.233 68.216 191.564 68.216 191.564 70.77 189.002 73.125 186.463 75.261 183.998 77.155 181.657 78.783 179.491 80.125 177.548 81.158 175.879 81.859 174.535 81.859 174.535 82.41 173.281 83.112 171.65 83.912 169.77 84.756 167.766 85.591 165.765 86.364 163.893 87.02 162.278 87.506 161.044 87.506 161.044 87.852 160.288 88.183 159.818 88.499 159.565 88.797 159.459 89.079 159.43 89.342 159.408 89.586 159.324 89.811 159.106 89.811 159.106 89.963 158.881 90.109 158.634 90.245 158.381 90.367 158.139 90.469 157.923 90.547 157.749 90.598 157.633 90.615 157.591 92.904 151.908 93.119 151.417 93.338 151.01 93.571 150.69 93.829 150.457 94.124 150.312 94.467 150.257 94.868 150.293 95.339 150.422 97.774 151.366 98.044 151.486 98.332 151.64 98.61 151.849 98.848 152.133 99.015 152.511 99.081 153.005 99.018 153.634 98.795 154.418 96.984 159.856 96.789 160.463 96.667 160.949 96.609 161.331 96.606 161.624 96.651 161.844 96.734 162.007 96.847 162.13 96.981 162.229 96.981 162.229 97.179 162.417 97.299 162.648 97.355 162.91 97.361 163.191 97.332 163.48 97.28 163.766 97.221 164.037 97.167 164.281 97.167 164.281 95.363 175.612 96.26 184.108 99.257 190.179 103.752 194.236 109.142 196.691 114.826 197.953 120.201 198.433 124.665 198.541 124.665 198.541 125.273 198.566 125.791 198.604 126.221 198.664 126.566 198.754 126.83 198.881 127.015 199.054 127.123 199.281 127.159 199.569 127.159 199.569 127.168 199.792 127.225 199.951 127.341 200.059 127.529 200.124 127.799 200.159 128.161 200.173 128.628 200.178 129.211 200.184 133.327 200.183 133.834 200.247 134.228 200.408 134.521 200.658 134.728 200.988 134.862 201.389 134.937 201.851 134.968 202.367 134.967 202.927 135.047 206.87 135.01 207.236 134.915 207.615 134.758 207.988 134.537 208.335 134.249 208.637 133.891 208.876 133.46 209.032 132.952 209.087 128.608 209.124 128.277 209.143 127.973 209.161 127.7 209.188 127.465 209.236 127.272 209.314 127.127 209.433 127.036 209.604 127.003 209.838 127.003 209.838 126.98 210.101 126.925 210.331 126.826 210.528 126.672 210.689 126.451 210.814 126.152 210.901 125.762 210.949 125.27 210.956 125.27 210.956 122.721 210.978 118.928 211.095 114.328 211.284 109.359 211.519 104.457 211.776 100.06 212.029 96.606 212.256 94.532 212.43 94.532 212.43 92.824 212.639 91.196 212.825 89.667 212.961 88.256 213.017 86.983 212.965 85.868 212.776 84.931 212.423 84.192 211.876"/><polygon id="_new_695_1" fill="none" stroke="#000" stroke-width=".1" points="84.192 211.876 78.366 204.675 77.641 203.94 76.81 203.383 75.902 203.007 74.945 202.815 73.97 202.808 73.004 202.989 72.078 203.36 71.221 203.924 71.221 203.924 70.494 204.647 69.941 205.474 69.565 206.378 69.371 207.33 69.361 208.3 69.538 209.261 69.906 210.184 70.469 211.04 76.355 218.325 76.598 218.687 76.774 219.065 76.898 219.464 76.981 219.886 77.04 220.334 77.085 220.812 77.132 221.322 77.194 221.869 78.557 230.627 79.135 231.193 79.649 231.815 80.094 232.488 80.466 233.208 80.761 233.969 80.973 234.767 81.099 235.597 81.134 236.454 81.134 236.454 81.112 236.816 81.068 237.171 81.006 237.521 80.929 237.866 80.843 238.208 80.752 238.546 80.661 238.883 80.573 239.219 80.573 239.219 79.054 242.918 77.077 245.357 74.822 246.762 72.47 247.363 70.201 247.388 68.195 247.064 66.633 246.62 65.696 246.285 65.696 246.285 65.212 246.029 64.878 245.706 64.681 245.337 64.606 244.94 64.637 244.535 64.761 244.142 64.962 243.781 65.226 243.471 67.693 241.241 67.289 240.711 66.93 240.146 66.619 239.548 66.361 238.921 66.158 238.268 66.013 237.593 65.931 236.897 65.915 236.185 65.915 236.185 65.94 235.655 66.007 235.137 66.112 234.631 66.251 234.137 66.42 233.655 66.615 233.186 66.831 232.73 67.066 232.286 67.066 232.286 67.794 230.163 67.809 227.918 67.274 225.635 66.355 223.395 65.214 221.282 64.018 219.379 62.929 217.769 62.113 216.535 62.113 216.535 61.531 215.532 60.996 214.495 60.515 213.426 60.097 212.324 59.748 211.191 59.477 210.026 59.292 208.83 59.199 207.603 59.199 207.603 59.444 204.494 60.302 201.634 61.595 199.057 63.139 196.795 64.754 194.881 66.26 193.35 67.474 192.233 68.216 191.564 68.216 191.564 70.77 189.002 73.125 186.463 75.261 183.998 77.155 181.657 78.783 179.491 80.125 177.548 81.158 175.879 81.859 174.535 81.859 174.535 82.41 173.281 83.112 171.65 83.912 169.77 84.756 167.766 85.591 165.765 86.364 163.893 87.02 162.278 87.506 161.044 87.506 161.044 87.852 160.288 88.183 159.818 88.499 159.565 88.797 159.459 89.079 159.43 89.342 159.408 89.586 159.324 89.811 159.106 89.811 159.106 89.963 158.881 90.109 158.634 90.245 158.381 90.367 158.139 90.469 157.923 90.547 157.749 90.598 157.633 90.615 157.591 92.904 151.908 93.119 151.417 93.338 151.01 93.571 150.69 93.829 150.457 94.124 150.312 94.467 150.257 94.868 150.293 95.339 150.422 97.774 151.366 98.044 151.486 98.332 151.64 98.61 151.849 98.848 152.133 99.015 152.511 99.081 153.005 99.018 153.634 98.795 154.418 96.984 159.856 96.789 160.463 96.667 160.949 96.609 161.331 96.606 161.624 96.651 161.844 96.734 162.007 96.847 162.13 96.981 162.229 96.981 162.229 97.179 162.417 97.299 162.648 97.355 162.91 97.361 163.191 97.332 163.48 97.28 163.766 97.221 164.037 97.167 164.281 97.167 164.281 95.363 175.612 96.26 184.108 99.257 190.179 103.752 194.236 109.142 196.691 114.826 197.953 120.201 198.433 124.665 198.541 124.665 198.541 125.273 198.566 125.791 198.604 126.221 198.664 126.566 198.754 126.83 198.881 127.015 199.054 127.123 199.281 127.159 199.569 127.159 199.569 127.168 199.792 127.225 199.951 127.341 200.059 127.529 200.124 127.799 200.159 128.161 200.173 128.628 200.178 129.211 200.184 133.327 200.183 133.834 200.247 134.228 200.408 134.521 200.658 134.728 200.988 134.862 201.389 134.937 201.851 134.968 202.367 134.967 202.927 135.047 206.87 135.01 207.236 134.915 207.615 134.758 207.988 134.537 208.335 134.249 208.637 133.891 208.876 133.46 209.032 132.952 209.087 128.608 209.124 128.277 209.143 127.973 209.161 127.7 209.188 127.465 209.236 127.272 209.314 127.127 209.433 127.036 209.604 127.003 209.838 127.003 209.838 126.98 210.101 126.925 210.331 126.826 210.528 126.672 210.689 126.451 210.814 126.152 210.901 125.762 210.949 125.27 210.956 125.27 210.956 122.721 210.978 118.928 211.095 114.328 211.284 109.359 211.519 104.457 211.776 100.06 212.029 96.606 212.256 94.532 212.43 94.532 212.43 92.824 212.639 91.196 212.825 89.667 212.961 88.256 213.017 86.983 212.965 85.868 212.776 84.931 212.423 84.192 211.876"/><polygon id="_new_696_1" fill="none" stroke="#000" stroke-width=".1" points="85.538 207.026 85.561 208.553 85.391 209.644 85.076 210.362 84.664 210.766 84.205 210.917 83.747 210.876 83.338 210.703 83.028 210.459 78.367 204.704 77.642 203.968 76.811 203.411 75.903 203.036 74.946 202.843 73.971 202.836 73.005 203.017 72.079 203.389 71.222 203.952 71.222 203.952 70.495 204.675 69.942 205.503 69.566 206.407 69.372 207.358 69.362 208.329 69.539 209.29 69.907 210.213 70.47 211.069 74.415 215.962 74.776 216.547 74.924 217.131 74.862 217.681 74.595 218.161 74.127 218.537 73.463 218.774 72.608 218.837 71.565 218.692 71.565 218.692 69.797 218.106 68.186 217.226 66.758 216.088 65.537 214.725 64.552 213.17 63.827 211.456 63.388 209.619 63.262 207.69 63.262 207.69 63.526 205.448 64.211 203.366 65.272 201.489 66.662 199.859 68.336 198.523 70.248 197.524 72.351 196.907 74.6 196.716 74.6 196.716 76.72 196.958 78.699 197.576 80.5 198.531 82.087 199.785 83.421 201.3 84.465 203.037 85.183 204.958 85.538 207.026"/><polygon id="_new_697_1" fill="none" stroke="#000" stroke-width=".1" points="85.538 207.026 85.561 208.553 85.391 209.644 85.076 210.362 84.664 210.766 84.205 210.917 83.747 210.876 83.338 210.703 83.028 210.459 78.367 204.704 77.642 203.968 76.811 203.411 75.903 203.036 74.946 202.843 73.971 202.836 73.005 203.017 72.079 203.389 71.222 203.952 71.222 203.952 70.495 204.675 69.942 205.503 69.566 206.407 69.372 207.358 69.362 208.329 69.539 209.29 69.907 210.213 70.47 211.069 74.415 215.962 74.776 216.547 74.924 217.131 74.862 217.681 74.595 218.161 74.127 218.537 73.463 218.774 72.608 218.837 71.565 218.692 71.565 218.692 69.797 218.106 68.186 217.226 66.758 216.088 65.537 214.725 64.552 213.17 63.827 211.456 63.388 209.619 63.262 207.69 63.262 207.69 63.526 205.448 64.211 203.366 65.272 201.489 66.662 199.859 68.336 198.523 70.248 197.524 72.351 196.907 74.6 196.716 74.6 196.716 76.72 196.958 78.699 197.576 80.5 198.531 82.087 199.785 83.421 201.3 84.465 203.037 85.183 204.958 85.538 207.026"/><polygon id="_new_698_1" fill="none" stroke="#000" stroke-width=".1" points="81.134 236.455 80.95 237.987 80.481 239.409 79.756 240.69 78.808 241.8 77.667 242.709 76.362 243.388 74.927 243.805 73.39 243.93 73.39 243.93 71.858 243.754 70.437 243.289 69.156 242.565 68.045 241.615 67.136 240.47 66.457 239.163 66.04 237.724 65.915 236.186 65.915 236.186 66.091 234.664 66.557 233.249 67.281 231.972 68.231 230.863 69.375 229.952 70.683 229.27 72.121 228.846 73.659 228.711 73.659 228.711 75.191 228.895 76.612 229.364 77.894 230.089 79.004 231.037 79.913 232.178 80.592 233.482 81.008 234.918 81.134 236.455"/><polygon id="_new_699_1" fill="none" stroke="#000" stroke-width=".1" points="81.134 236.455 80.95 237.987 80.481 239.409 79.756 240.69 78.808 241.8 77.667 242.709 76.362 243.388 74.927 243.805 73.39 243.93 73.39 243.93 71.858 243.754 70.437 243.289 69.156 242.565 68.045 241.615 67.136 240.47 66.457 239.163 66.04 237.724 65.915 236.186 65.915 236.186 66.091 234.664 66.557 233.249 67.281 231.972 68.231 230.863 69.375 229.952 70.683 229.27 72.121 228.846 73.659 228.711 73.659 228.711 75.191 228.895 76.612 229.364 77.894 230.089 79.004 231.037 79.913 232.178 80.592 233.482 81.008 234.918 81.134 236.455"/><polygon id="_new_700_1" fill="none" stroke="#000" stroke-width=".1" points="81.124 236.72 80.887 238.245 80.368 239.649 79.6 240.904 78.614 241.981 77.441 242.85 76.114 243.482 74.665 243.848 73.124 243.92 73.124 243.92 71.6 243.691 70.195 243.176 68.94 242.408 67.864 241.42 66.995 240.244 66.362 238.914 65.996 237.461 65.925 235.92 65.925 235.92 66.153 234.405 66.668 233.007 67.436 231.756 68.424 230.681 69.6 229.81 70.931 229.174 72.383 228.801 73.924 228.72 73.924 228.72 75.449 228.957 76.853 229.476 78.108 230.244 79.185 231.231 80.054 232.403 80.686 233.73 81.053 235.18 81.124 236.72"/><polygon id="_new_701_1" fill="none" stroke="#000" stroke-width=".1" points="77.844 236.398 77.735 237.272 77.466 238.079 77.053 238.805 76.513 239.432 75.866 239.945 75.127 240.328 74.315 240.565 73.447 240.64 73.447 240.64 72.581 240.54 71.778 240.277 71.053 239.868 70.424 239.33 69.908 238.681 69.521 237.938 69.281 237.12 69.205 236.242 69.205 236.242 69.304 235.377 69.567 234.574 69.977 233.85 70.515 233.223 71.164 232.71 71.906 232.329 72.726 232.096 73.603 232.029 73.603 232.029 74.468 232.128 75.272 232.391 75.997 232.799 76.626 233.335 77.142 233.981 77.528 234.718 77.768 235.53 77.844 236.398"/><polygon id="_new_702_1" fill="none" stroke="#000" stroke-width=".1" points="77.844 236.398 77.735 237.272 77.466 238.079 77.053 238.805 76.513 239.432 75.866 239.945 75.127 240.328 74.315 240.565 73.447 240.64 73.447 240.64 72.581 240.54 71.778 240.277 71.053 239.868 70.424 239.33 69.908 238.681 69.521 237.938 69.281 237.12 69.205 236.242 69.205 236.242 69.304 235.377 69.567 234.574 69.977 233.85 70.515 233.223 71.164 232.71 71.906 232.329 72.726 232.096 73.603 232.029 73.603 232.029 74.468 232.128 75.272 232.391 75.997 232.799 76.626 233.335 77.142 233.981 77.528 234.718 77.768 235.53 77.844 236.398"/><polygon id="_new_703_1" fill="none" stroke="#000" stroke-width=".1" points="77.839 236.549 77.7 237.418 77.403 238.216 76.964 238.927 76.403 239.535 75.738 240.025 74.986 240.382 74.166 240.59 73.296 240.635 73.296 240.635 72.435 240.505 71.641 240.214 70.931 239.78 70.321 239.22 69.828 238.554 69.467 237.798 69.256 236.971 69.211 236.092 69.211 236.092 69.34 235.231 69.631 234.437 70.065 233.728 70.625 233.12 71.292 232.63 72.047 232.275 72.874 232.071 73.754 232.035 73.754 232.035 74.615 232.164 75.408 232.455 76.118 232.888 76.728 233.445 77.222 234.109 77.582 234.859 77.794 235.679 77.839 236.549"/><polygon id="_new_704_1" fill="none" stroke="#000" stroke-width=".1" points="78.936 192.362 79.489 192.963 80.122 193.443 80.818 193.826 81.557 194.132 82.321 194.386 83.091 194.609 83.849 194.824 84.577 195.053 84.577 195.053 85.309 195.287 86.118 195.488 86.974 195.633 87.847 195.699 88.708 195.666 89.525 195.511 90.27 195.211 90.912 194.745 90.912 194.745 91.442 194.192 91.869 193.64 92.195 193.08 92.424 192.506 92.557 191.907 92.596 191.277 92.544 190.608 92.401 189.891 92.401 189.891 92.221 189.13 92.054 188.352 91.904 187.578 91.772 186.832 91.661 186.136 91.573 185.513 91.509 184.986 91.472 184.577 91.472 184.577 91.392 183.793 91.23 182.929 90.962 182.04 90.564 181.178 90.011 180.397 89.281 179.749 88.349 179.288 87.192 179.066 87.192 179.066 86.652 179.085 86.095 179.212 85.528 179.449 84.962 179.794 84.407 180.249 83.871 180.814 83.366 181.489 82.901 182.275 82.901 182.275 82.56 182.916 82.168 183.641 81.738 184.422 81.282 185.229 80.812 186.037 80.342 186.815 79.883 187.535 79.448 188.17 79.448 188.17 79.142 188.605 78.858 189.072 78.617 189.568 78.446 190.088 78.368 190.632 78.407 191.194 78.589 191.771 78.936 192.362"/><polygon id="_new_705_1" fill="none" stroke="#000" stroke-width=".1" points="78.936 192.362 79.489 192.963 80.122 193.443 80.818 193.826 81.557 194.132 82.321 194.386 83.091 194.609 83.849 194.824 84.577 195.053 84.577 195.053 85.309 195.287 86.118 195.488 86.974 195.633 87.847 195.699 88.708 195.666 89.525 195.511 90.27 195.211 90.912 194.745 90.912 194.745 91.442 194.192 91.869 193.64 92.195 193.08 92.424 192.506 92.557 191.907 92.596 191.277 92.544 190.608 92.401 189.891 92.401 189.891 92.221 189.13 92.054 188.352 91.904 187.578 91.772 186.832 91.661 186.136 91.573 185.513 91.509 184.986 91.472 184.577 91.472 184.577 91.392 183.793 91.23 182.929 90.962 182.04 90.564 181.178 90.011 180.397 89.281 179.749 88.349 179.288 87.192 179.066 87.192 179.066 86.652 179.085 86.095 179.212 85.528 179.449 84.962 179.794 84.407 180.249 83.871 180.814 83.366 181.489 82.901 182.275 82.901 182.275 82.56 182.916 82.168 183.641 81.738 184.422 81.282 185.229 80.812 186.037 80.342 186.815 79.883 187.535 79.448 188.17 79.448 188.17 79.142 188.605 78.858 189.072 78.617 189.568 78.446 190.088 78.368 190.632 78.407 191.194 78.589 191.771 78.936 192.362"/><polygon id="_new_706_1" fill="none" stroke="#000" stroke-width=".1" points="78.936 192.362 79.489 192.963 80.122 193.443 80.818 193.826 81.557 194.132 82.321 194.386 83.091 194.609 83.849 194.824 84.577 195.053 84.577 195.053 85.309 195.287 86.118 195.488 86.974 195.633 87.847 195.699 88.708 195.666 89.525 195.511 90.27 195.211 90.912 194.745 90.912 194.745 91.442 194.192 91.869 193.64 92.195 193.08 92.424 192.506 92.557 191.907 92.596 191.277 92.544 190.608 92.401 189.891 92.401 189.891 92.221 189.13 92.054 188.352 91.904 187.578 91.772 186.832 91.661 186.136 91.573 185.513 91.509 184.986 91.472 184.577 91.472 184.577 91.392 183.793 91.23 182.929 90.962 182.04 90.564 181.178 90.011 180.397 89.281 179.749 88.349 179.288 87.192 179.066 87.192 179.066 86.652 179.085 86.095 179.212 85.528 179.449 84.962 179.794 84.407 180.249 83.871 180.814 83.366 181.489 82.901 182.275 82.901 182.275 82.56 182.916 82.168 183.641 81.738 184.422 81.282 185.229 80.812 186.037 80.342 186.815 79.883 187.535 79.448 188.17 79.448 188.17 79.142 188.605 78.858 189.072 78.617 189.568 78.446 190.088 78.368 190.632 78.407 191.194 78.589 191.771 78.936 192.362"/><polygon id="_new_707_1" fill="none" stroke="#000" stroke-width=".1" points="107.2 203.525 107.186 203.921 107.112 204.33 106.939 204.74 106.627 205.139 106.138 205.514 105.432 205.854 104.47 206.147 103.212 206.38 103.212 206.38 101.762 206.567 100.257 206.717 98.74 206.816 97.253 206.849 95.838 206.8 94.537 206.655 93.394 206.397 92.45 206.013 92.45 206.013 91.738 205.53 91.239 205.025 90.918 204.517 90.736 204.028 90.658 203.579 90.646 203.189 90.664 202.88 90.675 202.673 90.675 202.673 90.719 202.328 90.871 201.675 91.176 200.833 91.679 199.922 92.425 199.061 93.459 198.37 94.826 197.969 96.572 197.978 96.572 197.978 98.231 198.278 100.014 198.767 101.813 199.406 103.516 200.159 105.016 200.985 106.202 201.847 106.967 202.707 107.2 203.525"/><polygon id="_new_708_1" fill="none" stroke="#000" stroke-width=".1" points="107.2 203.525 107.186 203.921 107.112 204.33 106.939 204.74 106.627 205.139 106.138 205.514 105.432 205.854 104.47 206.147 103.212 206.38 103.212 206.38 101.762 206.567 100.257 206.717 98.74 206.816 97.253 206.849 95.838 206.8 94.537 206.655 93.394 206.397 92.45 206.013 92.45 206.013 91.738 205.53 91.239 205.025 90.918 204.517 90.736 204.028 90.658 203.579 90.646 203.189 90.664 202.88 90.675 202.673 90.675 202.673 90.719 202.328 90.871 201.675 91.176 200.833 91.679 199.922 92.425 199.061 93.459 198.37 94.826 197.969 96.572 197.978 96.572 197.978 98.231 198.278 100.014 198.767 101.813 199.406 103.516 200.159 105.016 200.985 106.202 201.847 106.967 202.707 107.2 203.525"/><polygon id="_new_709_1" fill="none" stroke="#000" stroke-width=".1" points="107.2 203.525 107.186 203.921 107.112 204.33 106.939 204.74 106.627 205.139 106.138 205.514 105.432 205.854 104.47 206.147 103.212 206.38 103.212 206.38 101.762 206.567 100.257 206.717 98.74 206.816 97.253 206.849 95.838 206.8 94.537 206.655 93.394 206.397 92.45 206.013 92.45 206.013 91.738 205.53 91.239 205.025 90.918 204.517 90.736 204.028 90.658 203.579 90.646 203.189 90.664 202.88 90.675 202.673 90.675 202.673 90.719 202.328 90.871 201.675 91.176 200.833 91.679 199.922 92.425 199.061 93.459 198.37 94.826 197.969 96.572 197.978 96.572 197.978 98.231 198.278 100.014 198.767 101.813 199.406 103.516 200.159 105.016 200.985 106.202 201.847 106.967 202.707 107.2 203.525"/><polygon id="_new_710_1" fill="none" stroke="#000" stroke-width=".1" points="61.925 211.095 61.56 211.193 61.307 210.25 62.171 210.018 62.213 210.046 62.256 210.078 62.299 210.113 62.341 210.153 62.384 210.197 62.427 210.245 62.469 210.298 62.512 210.354 62.512 210.354 62.553 210.413 62.591 210.473 62.626 210.534 62.658 210.597 62.687 210.66 62.713 210.724 62.735 210.789 62.755 210.856 62.755 210.856 62.775 210.94 62.79 211.022 62.8 211.104 62.805 211.183 62.804 211.261 62.798 211.338 62.787 211.413 62.771 211.487 62.771 211.487 62.75 211.558 62.724 211.626 62.693 211.692 62.657 211.754 62.616 211.814 62.571 211.871 62.52 211.925 62.465 211.976 62.465 211.976 62.406 212.024 62.344 212.068 62.28 212.109 62.213 212.146 62.144 212.179 62.073 212.209 61.998 212.235 61.922 212.258 61.922 212.258 61.838 212.278 61.755 212.293 61.673 212.303 61.592 212.308 61.513 212.308 61.435 212.303 61.358 212.293 61.282 212.277 61.282 212.277 61.208 212.257 61.137 212.231 61.068 212.2 61.002 212.165 60.939 212.124 60.879 212.077 60.822 212.026 60.767 211.97 60.767 211.97 60.727 211.923 60.69 211.872 60.655 211.817 60.623 211.757 60.594 211.694 60.567 211.627 60.542 211.555 60.52 211.48 60.52 211.48 60.496 211.381 60.479 211.286 60.469 211.195 60.466 211.109 60.469 211.026 60.48 210.948 60.497 210.874 60.52 210.804 60.52 210.804 60.55 210.738 60.585 210.676 60.626 210.618 60.672 210.563 60.723 210.513 60.78 210.467 60.842 210.425 60.91 210.386 61.108 210.799 61.072 210.822 61.04 210.847 61.01 210.875 60.983 210.904 60.958 210.935 60.937 210.968 60.918 211.003 60.902 211.039 60.902 211.039 60.889 211.078 60.879 211.117 60.873 211.158 60.871 211.2 60.871 211.243 60.875 211.287 60.883 211.333 60.894 211.38 60.894 211.38 60.915 211.449 60.942 211.512 60.973 211.571 61.008 211.625 61.049 211.673 61.094 211.716 61.143 211.754 61.198 211.787 61.198 211.787 61.257 211.814 61.32 211.834 61.387 211.847 61.458 211.853 61.533 211.853 61.612 211.846 61.696 211.832 61.783 211.811 61.783 211.811 61.876 211.784 61.961 211.752 62.039 211.717 62.109 211.678 62.172 211.635 62.228 211.589 62.276 211.539 62.316 211.485 62.316 211.485 62.349 211.428 62.376 211.37 62.395 211.31 62.408 211.248 62.413 211.185 62.412 211.119 62.404 211.053 62.388 210.984 62.388 210.984 62.378 210.95 62.367 210.916 62.353 210.883 62.338 210.85 62.321 210.817 62.303 210.785 62.282 210.754 62.26 210.722 62.26 210.722 62.238 210.692 62.214 210.663 62.191 210.636 62.166 210.61 62.142 210.585 62.117 210.562 62.092 210.54 62.066 210.52 61.791 210.594 61.925 211.095"/><polygon id="_new_710_2" fill="none" stroke="#000" stroke-width=".1" points="62.468 209.522 62.04 209.567 61.996 209.139 62.423 209.094 62.468 209.522"/><polygon id="_new_710_3" fill="none" stroke="#000" stroke-width=".1" points="62.393 208.674 60.149 208.674 60.149 207.948 60.149 207.849 60.151 207.759 60.154 207.678 60.157 207.606 60.162 207.543 60.168 207.49 60.175 207.445 60.183 207.409 60.183 207.409 60.197 207.362 60.215 207.316 60.237 207.273 60.263 207.231 60.292 207.192 60.325 207.154 60.362 207.119 60.402 207.085 60.402 207.085 60.446 207.055 60.493 207.028 60.543 207.006 60.596 206.988 60.652 206.974 60.711 206.963 60.774 206.957 60.839 206.955 60.839 206.955 60.89 206.957 60.938 206.96 60.985 206.966 61.029 206.974 61.072 206.985 61.112 206.998 61.15 207.013 61.186 207.031 61.186 207.031 61.221 207.05 61.253 207.071 61.284 207.093 61.312 207.116 61.339 207.14 61.364 207.166 61.387 207.193 61.408 207.221 61.408 207.221 61.427 207.25 61.445 207.279 61.46 207.308 61.475 207.338 61.487 207.367 61.498 207.397 61.507 207.426 61.514 207.456 61.514 207.456 61.522 207.499 61.528 207.546 61.534 207.598 61.538 207.655 61.542 207.716 61.544 207.781 61.546 207.851 61.546 207.926 61.546 208.221 62.393 208.221 62.393 208.674"/><polygon id="_new_710_4" fill="none" stroke="#000" stroke-width=".1" points="60.529 208.221 61.165 208.221 61.165 207.974 61.165 207.909 61.163 207.851 61.16 207.797 61.156 207.75 61.151 207.708 61.145 207.671 61.138 207.64 61.13 207.615 61.13 207.615 61.121 207.593 61.11 207.573 61.098 207.553 61.085 207.535 61.071 207.518 61.055 207.502 61.038 207.487 61.02 207.474 61.02 207.474 61.001 207.462 60.981 207.451 60.96 207.442 60.939 207.435 60.916 207.43 60.894 207.426 60.87 207.423 60.845 207.422 60.845 207.422 60.815 207.424 60.787 207.427 60.76 207.433 60.734 207.44 60.709 207.451 60.686 207.463 60.664 207.478 60.643 207.495 60.643 207.495 60.624 207.513 60.607 207.533 60.592 207.554 60.579 207.576 60.567 207.599 60.557 207.624 60.55 207.649 60.544 207.676 60.544 207.676 60.54 207.699 60.537 207.727 60.534 207.76 60.532 207.799 60.531 207.842 60.53 207.89 60.529 207.944 60.529 208.002 60.529 208.221"/><polygon id="_new_710_5" fill="none" stroke="#000" stroke-width=".1" points="62.414 206.985 61.986 206.94 62.031 206.512 62.459 206.557 62.414 206.985"/><polygon id="_new_710_6" fill="none" stroke="#000" stroke-width=".1" points="62.548 205.799 60.241 205.776 60.353 205.326 61.931 205.371 60.534 204.6 60.665 204.077 62.281 204.075 60.843 203.362 60.953 202.919 62.999 203.991 62.883 204.457 61.147 204.485 62.667 205.323 62.548 205.799"/><polygon id="_new_710_7" fill="none" stroke="#000" stroke-width=".1" points="63.332 203.285 61.315 202.302 61.513 201.894 63.53 202.878 63.332 203.285"/><polygon id="_new_710_8" fill="none" stroke="#000" stroke-width=".1" points="63.703 202.476 61.796 201.329 62.029 200.941 63.612 201.893 64.193 200.927 64.517 201.122 63.703 202.476"/><polygon id="_new_710_9" fill="none" stroke="#000" stroke-width=".1" points="64.061 200.445 64.324 200.088 64.372 200.116 64.418 200.139 64.463 200.158 64.508 200.173 64.551 200.183 64.593 200.188 64.635 200.19 64.675 200.187 64.675 200.187 64.714 200.179 64.753 200.168 64.791 200.152 64.828 200.133 64.865 200.109 64.901 200.081 64.937 200.049 64.972 200.012 64.972 200.012 65.006 199.972 65.036 199.932 65.062 199.893 65.083 199.854 65.1 199.816 65.112 199.779 65.12 199.742 65.123 199.705 65.123 199.705 65.123 199.67 65.12 199.637 65.114 199.605 65.105 199.576 65.092 199.549 65.077 199.523 65.058 199.499 65.037 199.478 65.037 199.478 65.022 199.465 65.006 199.454 64.991 199.445 64.974 199.437 64.958 199.431 64.94 199.426 64.923 199.424 64.905 199.422 64.905 199.422 64.886 199.422 64.866 199.424 64.845 199.428 64.823 199.434 64.8 199.442 64.776 199.452 64.75 199.464 64.724 199.478 64.724 199.478 64.703 199.49 64.676 199.506 64.645 199.526 64.608 199.549 64.566 199.577 64.518 199.608 64.466 199.643 64.408 199.682 64.408 199.682 64.332 199.732 64.26 199.775 64.191 199.813 64.126 199.845 64.064 199.871 64.006 199.891 63.952 199.905 63.901 199.913 63.901 199.913 63.833 199.917 63.768 199.915 63.705 199.906 63.645 199.891 63.587 199.869 63.531 199.841 63.478 199.806 63.427 199.765 63.427 199.765 63.397 199.735 63.369 199.704 63.343 199.671 63.32 199.636 63.3 199.599 63.282 199.56 63.267 199.52 63.254 199.478 63.254 199.478 63.244 199.435 63.238 199.391 63.235 199.347 63.236 199.302 63.24 199.257 63.247 199.211 63.258 199.165 63.272 199.118 63.272 199.118 63.29 199.071 63.311 199.024 63.336 198.976 63.364 198.929 63.395 198.881 63.43 198.833 63.468 198.786 63.51 198.738 63.51 198.738 63.581 198.663 63.651 198.598 63.722 198.541 63.792 198.493 63.862 198.454 63.933 198.423 64.003 198.402 64.073 198.389 64.073 198.389 64.143 198.384 64.211 198.386 64.277 198.396 64.343 198.412 64.407 198.437 64.469 198.468 64.531 198.507 64.591 198.553 64.302 198.903 64.266 198.881 64.23 198.863 64.195 198.848 64.161 198.837 64.128 198.83 64.096 198.826 64.065 198.826 64.034 198.829 64.034 198.829 64.004 198.836 63.973 198.847 63.943 198.862 63.912 198.88 63.881 198.902 63.849 198.928 63.818 198.958 63.786 198.992 63.786 198.992 63.755 199.028 63.727 199.065 63.703 199.1 63.683 199.136 63.666 199.171 63.654 199.207 63.644 199.241 63.639 199.276 63.639 199.276 63.638 199.297 63.639 199.318 63.642 199.338 63.648 199.357 63.656 199.374 63.666 199.391 63.679 199.407 63.694 199.422 63.694 199.422 63.709 199.435 63.726 199.445 63.743 199.453 63.76 199.459 63.779 199.464 63.799 199.466 63.819 199.466 63.84 199.464 63.84 199.464 63.871 199.457 63.906 199.445 63.947 199.427 63.994 199.404 64.045 199.375 64.102 199.34 64.163 199.3 64.231 199.254 64.231 199.254 64.299 199.208 64.363 199.166 64.425 199.128 64.482 199.094 64.536 199.064 64.587 199.038 64.634 199.017 64.678 198.999 64.678 198.999 64.72 198.985 64.762 198.974 64.804 198.966 64.846 198.96 64.888 198.958 64.93 198.958 64.972 198.961 65.013 198.967 65.013 198.967 65.055 198.977 65.097 198.99 65.138 199.006 65.179 199.026 65.219 199.049 65.259 199.076 65.299 199.106 65.339 199.14 65.339 199.14 65.373 199.173 65.405 199.209 65.434 199.246 65.46 199.285 65.483 199.326 65.503 199.369 65.521 199.414 65.535 199.461 65.535 199.461 65.547 199.509 65.555 199.558 65.558 199.607 65.558 199.656 65.554 199.705 65.546 199.754 65.534 199.804 65.519 199.854 65.519 199.854 65.499 199.904 65.476 199.955 65.448 200.007 65.417 200.059 65.382 200.111 65.343 200.164 65.3 200.218 65.253 200.272 65.253 200.272 65.181 200.347 65.11 200.413 65.037 200.47 64.965 200.519 64.892 200.559 64.818 200.59 64.744 200.612 64.669 200.626 64.669 200.626 64.595 200.632 64.519 200.629 64.444 200.618 64.368 200.6 64.292 200.573 64.215 200.538 64.138 200.496 64.061 200.445"/><polygon id="_new_710_10" fill="none" stroke="#000" stroke-width=".1" points="65.347 198.434 65.298 198.366 65.253 198.299 65.213 198.232 65.178 198.167 65.147 198.102 65.121 198.038 65.099 197.975 65.082 197.913 65.082 197.913 65.073 197.867 65.066 197.821 65.06 197.775 65.057 197.728 65.056 197.682 65.056 197.635 65.059 197.588 65.064 197.541 65.064 197.541 65.071 197.495 65.08 197.45 65.091 197.406 65.104 197.363 65.118 197.322 65.135 197.282 65.154 197.243 65.174 197.205 65.174 197.205 65.204 197.157 65.238 197.109 65.274 197.062 65.314 197.016 65.358 196.972 65.404 196.928 65.454 196.885 65.507 196.843 65.507 196.843 65.607 196.774 65.707 196.717 65.808 196.671 65.91 196.636 66.013 196.613 66.116 196.601 66.221 196.601 66.326 196.612 66.326 196.612 66.43 196.634 66.532 196.668 66.63 196.713 66.726 196.771 66.818 196.839 66.908 196.92 66.995 197.012 67.079 197.115 67.079 197.115 67.155 197.224 67.219 197.332 67.271 197.439 67.311 197.547 67.34 197.654 67.356 197.76 67.361 197.867 67.354 197.973 67.354 197.973 67.336 198.076 67.307 198.176 67.268 198.272 67.217 198.364 67.156 198.452 67.084 198.536 67.002 198.616 66.909 198.693 66.909 198.693 66.808 198.762 66.707 198.82 66.606 198.867 66.504 198.902 66.401 198.926 66.297 198.938 66.194 198.939 66.089 198.928 66.089 198.928 65.986 198.906 65.885 198.872 65.788 198.828 65.694 198.771 65.602 198.704 65.514 198.625 65.429 198.535 65.347 198.434"/><polygon id="_new_710_11" fill="none" stroke="#000" stroke-width=".1" points="65.711 198.141 65.768 198.213 65.827 198.277 65.887 198.334 65.947 198.382 66.009 198.423 66.071 198.455 66.135 198.48 66.199 198.497 66.199 198.497 66.263 198.506 66.326 198.509 66.387 198.505 66.447 198.494 66.506 198.477 66.563 198.453 66.62 198.422 66.674 198.384 66.674 198.384 66.725 198.342 66.77 198.297 66.809 198.249 66.842 198.197 66.868 198.143 66.889 198.085 66.903 198.025 66.912 197.961 66.912 197.961 66.913 197.895 66.906 197.828 66.892 197.758 66.869 197.688 66.838 197.616 66.8 197.542 66.753 197.466 66.698 197.389 66.698 197.389 66.64 197.316 66.581 197.251 66.522 197.194 66.462 197.146 66.401 197.105 66.34 197.072 66.279 197.047 66.217 197.031 66.217 197.031 66.155 197.022 66.094 197.02 66.033 197.024 65.974 197.036 65.915 197.054 65.857 197.079 65.8 197.111 65.744 197.15 65.744 197.15 65.691 197.193 65.644 197.24 65.604 197.289 65.571 197.34 65.543 197.395 65.522 197.452 65.507 197.512 65.499 197.575 65.499 197.575 65.497 197.64 65.504 197.707 65.519 197.775 65.541 197.845 65.571 197.916 65.61 197.99 65.656 198.065 65.71 198.141"/><polygon id="_new_710_12" fill="none" stroke="#000" stroke-width=".1" points="68.029 197.758 67.046 195.741 67.442 195.548 68.925 196.492 68.268 195.145 68.646 194.961 69.63 196.978 69.221 197.177 67.767 196.258 68.408 197.574 68.029 197.758"/></g><circle id="center_00" cx="74.411" cy="207.746" r="4" fill="none" stroke="#000" stroke-width=".1"/></svg>