<svg xmlns="http://www.w3.org/2000/svg" width="297mm" height="210mm" viewBox="0 0 297 210"><g id="Ebene_x0020_1"><g id="Ebene_x0020_1_0"><polygon id="_new_6_1" fill="none" stroke="#000" stroke-width=".1" points="-21.703 122.66 -21.878 121.142 -21.872 119.801 -21.698 118.594 -21.369 117.481 -20.9 116.419 -20.304 115.368 -19.596 114.286 -18.788 113.131 -17.441 111.402 -15.782 109.491 -13.826 107.28 -11.585 104.651 -9.074 101.485 -6.306 97.663 -3.294 93.067 -.051 87.579 3.294 86.241 9.327 77.795 15.95 80.299 14.224 90.374 16.508 93.841 15.555 98.944 15.574 103.409 16.587 107.218 18.621 110.357 21.7 112.81 25.85 114.559 31.095 115.59 37.46 115.887 39.829 118.601 49.796 121.501 49.622 128.58 39.526 130.99 37.027 133.585 6.502 133.875 5.847 122.412 -11.314 118.831"/><polygon id="_new_2_1" fill="none" stroke="#000" stroke-width=".1" points="-3.724 110.434 -4.708 111.557 -5.785 112.621 -6.949 113.616 -8.194 114.529 -9.515 115.352 -10.905 116.072 -12.359 116.679 -13.871 117.162 -14.376 117.292 -14.882 117.407 -15.387 117.509 -15.891 117.597 -16.395 117.671 -16.898 117.731 -17.399 117.778 -17.898 117.812 -18.327 117.856 -18.765 117.949 -19.505 118.226 -20.159 118.627 -20.717 119.135 -21.168 119.733 -21.502 120.402 -21.709 121.124 -21.78 121.883 -21.703 122.66 -15.975 151.124 -16.431 151.829 -16.809 152.579 -17.103 153.367 -17.31 154.187 -17.426 155.03 -17.446 155.892 -17.368 156.763 -17.187 157.638 -16.951 158.372 -16.649 159.066 -16.286 159.717 -15.866 160.323 -15.394 160.882 -14.874 161.39 -14.311 161.845 -13.709 162.244 -13.51 162.709 -14.381 166.627 -13.968 166.775 -13.325 166.936 -12.602 167.017 -11.782 166.984 -11.331 166.915 -10.849 166.806 -8.201 165.816 -5.878 164.357 -3.92 162.5 -2.366 160.315 -1.255 157.873 -.626 155.243 -.52 152.496 -.974 149.703 -1.084 149.316 -1.241 148.828 -2.138 146.229 -2.996 143.742 -3.854 141.252 -4.713 138.761 -5.572 136.269 -6.432 133.775 -7.291 131.28 -8.151 128.785 -8.416 127.451 -8.378 126.469 -8.152 125.529 -7.754 124.656 -7.197 123.875 -6.496 123.21 -5.665 122.685 -4.718 122.326 -3.76 122.166 -2.817 122.192 -1.912 122.39 -1.064 122.748 -.297 123.255 .368 123.896 .909 124.66 1.305 125.534 2.872 130.079 3.187 130.804 3.587 131.468 4.064 132.067 4.61 132.595 5.215 133.048 5.871 133.421 6.57 133.709 7.303 133.907 11.261 118.312 11.387 117.773 11.479 117.224 11.536 116.668 11.556 116.106 11.54 115.538 11.485 114.968 11.392 114.396 11.259 113.823 10.636 112.18 9.726 110.737 8.571 109.521 7.215 108.554 5.7 107.863 4.069 107.471 2.365 107.405 .63 107.687 -.019 107.887 -.643 108.13 -1.24 108.417 -1.806 108.744 -2.34 109.111 -2.839 109.516 -3.301 109.958"/><circle id="_tag_18_" cx="2.876" cy="116.069" r="6.048" fill="none" stroke="#000" stroke-width=".1"/><circle id="_tag_17_" cx="2.876" cy="116.069" r="3.672" fill="none" stroke="#000" stroke-width=".1"/><circle id="_tag_16_" cx="-9.763" cy="155.649" r="4.5" fill="none" stroke="#000" stroke-width=".1"/><circle cx="-3.424" cy="127.156" r="5" fill="none" stroke="#000" stroke-width=".1"/><circle id="center_00" cx="-3.424" cy="127.156" r="4.5" fill="none" stroke="#000" stroke-width=".1"/></g></g></svg>