<svg xmlns="http://www.w3.org/2000/svg" width="297mm" height="210mm" viewBox="0 0 297 210"><polygon id="_new_1_1" fill="none" stroke="#000" stroke-width=".1" points="42.375 140.679 42.328 140.719 42.306 140.738 42.284 140.757 42.262 140.776 42.239 140.795 42.217 140.814 42.195 140.834 42.173 140.853 42.151 140.872 42.089 140.928 42.063 140.951 42.037 140.974 42.012 140.997 41.986 141.02 41.961 141.044 41.935 141.067 41.91 141.09 41.885 141.114 41.852 141.144 41.837 141.159 41.822 141.173 41.807 141.187 41.792 141.201 41.777 141.215 41.762 141.23 41.747 141.244 41.732 141.258 41.732 141.258 41.717 141.273 41.701 141.288 41.686 141.303 41.67 141.319 41.655 141.334 41.639 141.349 41.624 141.364 41.608 141.379 41.604 141.383 41.591 141.396 41.579 141.408 41.566 141.421 41.554 141.434 41.541 141.446 41.528 141.459 41.516 141.471 41.503 141.484 41.42 141.57 41.401 141.589 41.382 141.609 41.363 141.628 41.344 141.648 41.326 141.668 41.307 141.688 41.288 141.707 41.27 141.727 41.212 141.789 41.192 141.81 41.172 141.832 41.152 141.854 41.133 141.875 41.113 141.897 41.093 141.919 41.073 141.941 41.054 141.963 40.979 142.047 40.965 142.063 40.951 142.079 40.938 142.094 40.924 142.11 40.91 142.126 40.896 142.142 40.883 142.158 40.869 142.174 40.869 142.174 40.856 142.189 40.843 142.205 40.829 142.221 40.816 142.236 40.803 142.252 40.79 142.268 40.777 142.283 40.763 142.299 40.684 142.395 40.668 142.414 40.653 142.433 40.637 142.452 40.621 142.472 40.606 142.491 40.591 142.51 40.575 142.53 40.56 142.549 40.48 142.65 40.468 142.666 40.455 142.683 40.443 142.699 40.431 142.715 40.418 142.731 40.406 142.747 40.394 142.763 40.381 142.78 40.381 142.78 40.369 142.795 40.357 142.811 40.345 142.827 40.333 142.843 40.321 142.859 40.31 142.875 40.298 142.891 40.286 142.907 40.286 142.907 40.275 142.921 40.265 142.936 40.254 142.95 40.244 142.964 40.234 142.978 40.223 142.993 40.213 143.007 40.202 143.021 40.202 143.021 40.19 143.039 40.177 143.057 40.164 143.075 40.152 143.093 40.139 143.11 40.126 143.128 40.114 143.146 40.101 143.164 40.011 143.293 39.953 143.378 39.938 143.402 39.922 143.425 39.907 143.448 39.891 143.472 39.876 143.495 39.861 143.519 39.845 143.542 39.83 143.566 39.775 143.652 39.76 143.675 39.745 143.699 39.73 143.722 39.715 143.746 39.701 143.77 39.686 143.793 39.671 143.817 39.657 143.841 39.604 143.928 39.59 143.952 39.576 143.975 39.561 143.999 39.547 144.023 39.533 144.047 39.519 144.071 39.505 144.095 39.491 144.119 39.438 144.213 39.427 144.231 39.417 144.249 39.407 144.267 39.397 144.285 39.387 144.303 39.377 144.321 39.367 144.339 39.357 144.357 39.291 144.479 39.279 144.5 39.268 144.521 39.257 144.542 39.246 144.562 39.235 144.583 39.224 144.604 39.213 144.625 39.202 144.646 39.163 144.723 39.149 144.749 39.136 144.776 39.122 144.803 39.109 144.83 39.096 144.856 39.082 144.883 39.069 144.91 39.056 144.937 39.019 145.014 39.006 145.041 38.993 145.068 38.981 145.095 38.968 145.122 38.955 145.149 38.943 145.176 38.93 145.203 38.918 145.23 38.881 145.313 38.869 145.339 38.857 145.366 38.845 145.393 38.834 145.419 38.822 145.446 38.81 145.472 38.799 145.499 38.787 145.526 38.749 145.617 38.74 145.639 38.731 145.661 38.722 145.683 38.713 145.705 38.704 145.726 38.695 145.748 38.686 145.77 38.678 145.792 38.634 145.901 38.625 145.927 38.615 145.952 38.606 145.977 38.596 146.002 38.586 146.027 38.577 146.052 38.568 146.077 38.558 146.102 38.535 146.166 38.523 146.197 38.512 146.227 38.501 146.258 38.49 146.289 38.48 146.32 38.469 146.351 38.458 146.382 38.448 146.413 38.427 146.472 38.417 146.503 38.407 146.534 38.397 146.565 38.387 146.596 38.377 146.627 38.367 146.658 38.357 146.689 38.347 146.72 38.326 146.787 38.317 146.819 38.307 146.851 38.297 146.883 38.287 146.915 38.278 146.948 38.268 146.98 38.259 147.013 38.25 147.045 38.24 147.078 38.231 147.112 38.221 147.146 38.212 147.18 38.203 147.214 38.193 147.248 38.184 147.282 38.175 147.316 38.166 147.351 38.163 147.364 38.162 147.365 38.159 147.381 38.15 147.415 38.141 147.449 38.133 147.483 38.125 147.517 38.116 147.551 38.108 147.585 38.1 147.619 38.092 147.653 38.084 147.689 38.076 147.723 38.068 147.757 38.061 147.79 38.053 147.824 38.046 147.858 38.039 147.892 38.032 147.926 38.025 147.96 38.012 148.02 38.006 148.053 37.999 148.087 37.993 148.12 37.986 148.153 37.98 148.187 37.974 148.22 37.967 148.253 37.961 148.287 37.951 148.342 37.945 148.376 37.94 148.41 37.934 148.444 37.928 148.478 37.922 148.512 37.917 148.546 37.912 148.581 37.906 148.615 37.899 148.665 37.894 148.7 37.888 148.736 37.883 148.771 37.878 148.806 37.873 148.842 37.869 148.877 37.864 148.913 37.859 148.948 37.858 148.956 37.858 148.956 37.857 148.964 37.853 149 37.848 149.036 37.844 149.072 37.84 149.108 37.836 149.144 37.832 149.18 37.828 149.216 37.824 149.252 37.819 149.3 37.816 149.334 37.812 149.368 37.809 149.403 37.806 149.437 37.803 149.471 37.8 149.506 37.797 149.54 37.795 149.575 37.789 149.642 37.787 149.676 37.785 149.71 37.782 149.744 37.78 149.778 37.778 149.812 37.776 149.846 37.774 149.88 37.772 149.915 37.769 149.978 37.767 150.013 37.766 150.049 37.764 150.084 37.763 150.12 37.762 150.155 37.76 150.191 37.759 150.226 37.758 150.262 37.758 150.298 37.757 150.337 37.756 150.376 37.755 150.415 37.755 150.454 37.754 150.493 37.754 150.532 37.754 150.571 37.753 150.61 37.753 150.61 37.754 150.629 37.754 150.649 37.754 150.669 37.754 150.688 37.754 150.708 37.754 150.728 37.754 150.747 37.755 150.767 37.755 150.777 37.755 150.784 37.755 150.803 37.755 150.823 37.756 150.842 37.756 150.861 37.756 150.881 37.757 150.9 37.757 150.919 37.758 150.938 37.758 150.954 37.759 150.973 37.759 150.993 37.76 151.012 37.76 151.032 37.761 151.051 37.762 151.07 37.762 151.09 37.763 151.109 37.763 151.112 37.764 151.132 37.765 151.151 37.766 151.17 37.766 151.189 37.767 151.208 37.768 151.227 37.769 151.246 37.77 151.265 37.772 151.296 37.774 151.332 37.776 151.368 37.778 151.403 37.78 151.439 37.782 151.474 37.785 151.51 37.787 151.545 37.79 151.58 37.793 151.629 37.805 151.772 37.805 151.773 37.808 151.805 37.819 151.919 37.822 151.952 37.829 152.011 37.835 152.069 37.842 152.127 37.849 152.186 37.856 152.244 37.863 152.302 37.871 152.36 37.879 152.418 37.88 152.425 37.882 152.443 37.885 152.462 37.888 152.48 37.89 152.499 37.893 152.517 37.896 152.535 37.899 152.554 37.901 152.572 37.907 152.612 37.925 152.72 37.929 152.747 37.93 152.755 37.954 152.89 37.961 152.933 37.967 152.965 37.973 152.996 37.979 153.027 37.985 153.059 37.991 153.09 37.997 153.121 38.003 153.152 38.009 153.183 38.024 153.257 38.048 153.368 38.051 153.384 38.052 153.39 38.056 153.407 38.06 153.424 38.063 153.44 38.067 153.457 38.071 153.474 38.075 153.49 38.078 153.507 38.082 153.523 38.092 153.564 38.092 153.565 38.104 153.614 38.123 153.698 38.127 153.712 38.132 153.731 38.136 153.749 38.141 153.768 38.145 153.786 38.15 153.804 38.154 153.822 38.159 153.841 38.164 153.859 39.921 161.146 39.921 161.146 40.007 161.52 40.082 161.898 40.146 162.279 40.199 162.664 40.24 163.053 40.27 163.445 40.288 163.84 40.294 164.238 40.294 164.238 40.252 165.29 40.127 166.319 39.923 167.321 39.643 168.293 39.29 169.233 38.867 170.135 38.379 170.999 37.828 171.819 37.689 172.012 37.398 172.456 37.172 172.855 36.961 173.282 36.774 173.723 36.614 174.177 36.481 174.643 36.375 175.12 36.299 175.608 36.252 176.105 36.236 176.61 36.236 176.61 36.308 177.681 36.515 178.71 36.85 179.686 37.302 180.601 37.863 181.445 38.523 182.209 39.274 182.885 40.107 183.462 37.877 187.716 39.926 188.008 41.791 187.947 43.5 187.555 45.082 186.852 46.564 185.858 47.974 184.594 49.34 183.08 50.691 181.336 50.69 181.336 51.036 180.825 51.342 180.288 51.606 179.725 51.828 179.139 52.003 178.533 52.132 177.908 52.21 177.266 52.236 176.61 52.236 176.61 52.236 176.526 52.235 176.443 52.232 176.359 52.229 176.276 52.225 176.194 52.221 176.111 52.215 176.029 52.209 175.947 52.209 175.947 52.208 175.943 52.171 175.59 52.119 175.242 52.052 174.9 51.971 174.562 51.876 174.231 51.767 173.905 51.644 173.586 51.509 173.273 45.9 151.881 45.862 151.727 45.83 151.573 45.802 151.416 45.778 151.258 45.76 151.098 45.747 150.936 45.739 150.774 45.737 150.61 45.737 150.61 45.838 149.602 46.13 148.664 46.591 147.814 47.201 147.074 47.941 146.464 48.791 146.003 49.729 145.711 50.736 145.61 50.736 145.61 51.588 145.682 52.393 145.891 53.139 146.224 53.814 146.67 54.408 147.216 54.906 147.851 55.299 148.562 55.573 149.339 55.573 149.339 56.524 152.967 56.526 152.973 56.526 152.973 56.865 153.844 57.303 154.658 57.833 155.41 58.449 156.091 59.142 156.693 59.904 157.21 60.728 157.633 61.607 157.954 61.607 157.955 61.609 157.955 61.934 157.955 71.955 157.955 77.623 157.955 77.824 157.871 78.002 157.719 78.157 157.5 78.291 157.221 78.405 156.884 78.501 156.493 78.579 156.053 78.64 155.568 78.64 155.568 78.703 154.891 78.797 154.224 78.921 153.568 79.075 152.924 79.257 152.293 79.467 151.675 79.705 151.071 79.968 150.482 79.968 150.482 80.86 149.196 81.943 148.031 83.198 147.002 84.607 146.125 86.151 145.416 87.814 144.89 89.576 144.563 91.419 144.45 94.264 144.45 94.264 143.01 91.419 143.01 80.27 143.01 76.535 143.01 71.34 143 71.333 143 70.262 142.892 69.264 142.582 68.361 142.092 67.574 141.443 66.924 140.655 66.434 139.752 66.124 138.754 66.016 137.683 66.016 137.683 66.025 137.366 66.053 137.055 66.098 136.749 66.16 136.449 66.239 136.156 66.334 135.869 66.444 135.59 66.569 135.319 66.566 135.317 66.87 134.695 66.869 134.695 69.088 130.146 69.142 129.948 69.117 129.758 69.032 129.579 68.902 129.413 68.746 129.261 68.581 129.126 68.423 129.01 68.29 128.915 68.29 128.915 68.149 128.813 68.035 128.734 67.933 128.665 67.832 128.595 67.718 128.513 67.578 128.408 67.4 128.267 67.169 128.08 67.169 128.08 66.687 127.668 66.219 127.234 65.766 126.777 65.328 126.299 64.906 125.8 64.501 125.279 64.115 124.738 63.747 124.177 63.747 124.177 63.092 122.622 62.613 120.961 62.316 119.218 62.21 117.416 62.303 115.579 62.603 113.729 63.118 111.89 63.857 110.085 64.397 108.957 63.102 108.326 63.101 108.329 63.102 108.326 53.46 128.035 52.628 129.776 51.678 131.452 50.613 133.055 49.437 134.576 48.155 136.008 46.771 137.343 45.289 138.573 43.713 139.69 43.713 139.69 43.539 139.805 43.366 139.922 43.196 140.041 43.028 140.164 42.862 140.289 42.697 140.416 42.535 140.546 42.375 140.679 42.375 140.679"/><polyline id="_new_1_2" fill="none" stroke="#000" stroke-width=".1" points="41.852 141.144 41.837 141.159 41.822 141.173 41.807 141.187 41.792 141.201 41.777 141.215 41.762 141.23 41.747 141.244 41.732 141.258"/><line id="_tag_23_" x1="91.419" x2="94.264" y1="143.01" y2="143.01" fill="none" stroke="#000" stroke-width=".1"/><polyline id="_new_3_1" fill="none" stroke="#000" stroke-width=".1" points="48.384 161.356 46.593 160.801 44.947 159.963 43.475 158.871 42.206 157.553 41.169 156.04 40.392 154.359 39.905 152.539 39.736 150.609 39.736 150.609 39.96 148.393 40.601 146.328 41.615 144.459 42.959 142.831 44.587 141.488 46.455 140.474 48.52 139.833 50.736 139.609 50.736 139.609 52.953 139.833 55.018 140.474 56.886 141.488 58.514 142.831 59.858 144.459 60.872 146.328 61.513 148.393 61.736 150.609 61.736 150.609 61.701 151.502 61.595 152.375 61.423 153.225 61.187 154.051 60.889 154.848 60.533 155.616 60.12 156.349 59.655 157.047"/><circle id="_tag_24_" cx="50.736" cy="150.61" r="5" fill="none" stroke="#000" stroke-width=".1"/><polyline id="_new_5_1" fill="none" stroke="#000" stroke-width=".1" points="69.387 157.955 70.02 157.576 70.512 156.85 70.879 155.872 71.139 154.739 71.309 153.549 71.405 152.398 71.446 151.382 71.447 150.598 71.447 150.598 71.432 149.956 71.402 149.302 71.346 148.631 71.252 147.942 71.109 147.232 70.905 146.499 70.629 145.739 70.27 144.951 70.27 144.951 69.867 144.272 69.446 143.754 69.005 143.339 68.545 142.971 68.065 142.592 67.564 142.144 67.044 141.57 66.503 140.813 66.503 140.813 66.045 139.984 65.742 139.22 65.548 138.507 65.415 137.83 65.297 137.173 65.145 136.522 64.913 135.861 64.554 135.175 64.554 135.175 64.202 134.653 63.787 134.12 63.314 133.587 62.784 133.066 62.202 132.567 61.57 132.102 60.891 131.682 60.168 131.319 60.168 131.319 59.161 130.9 58.138 130.55 57.102 130.294 56.059 130.156 55.014 130.16 53.971 130.332 52.935 130.694 51.911 131.272"/><polyline id="_new_6_1" fill="none" stroke="#000" stroke-width=".1" points="79.644 151.216 80.497 149.478 81.569 147.898 82.84 146.499 84.288 145.303 85.891 144.334 87.628 143.613 89.478 143.164 91.419 143.01 94.264 143.01"/><polyline id="_new_7_1" fill="none" stroke="#000" stroke-width=".1" points="64.594 125.402 64.379 125.113 64.17 124.818 63.966 124.517 63.769 124.211 63.576 123.898 63.39 123.579 63.21 123.255 63.036 122.925 63.036 122.925 62.275 121.212 61.722 119.471 61.375 117.718 61.229 115.974 61.279 114.257 61.521 112.585 61.951 110.978 62.564 109.455 63.102 108.327"/><circle id="_tag_25_" cx="44.236" cy="176.61" r="8" fill="none" stroke="#000" stroke-width=".1"/><circle id="_tag_26_" cx="44.236" cy="176.61" r="4.5" fill="none" stroke="#000" stroke-width=".1"/><circle id="center_00" cx="50.736" cy="150.61" r="5" fill="none" stroke="#000" stroke-width=".1"/></svg>
