<svg xmlns="http://www.w3.org/2000/svg" width="297mm" height="210mm" viewBox="0 0 297 210"><polygon id="_new_54_1" fill="none" stroke="#000" stroke-width=".1" points="37.877 187.716 39.926 188.008 41.791 187.947 43.5 187.555 45.082 186.852 46.564 185.858 47.974 184.594 49.34 183.08 50.691 181.336 50.69 181.336 51.036 180.825 51.342 180.288 51.606 179.725 51.828 179.139 52.003 178.533 52.132 177.908 52.21 177.266 52.237 176.61 52.237 176.61 52.236 176.526 52.235 176.443 52.232 176.359 52.229 176.276 52.225 176.194 52.221 176.111 52.215 176.029 52.209 175.947 52.21 175.947 52.208 175.943 52.171 175.59 52.119 175.242 52.052 174.9 51.971 174.562 51.876 174.231 51.767 173.905 51.644 173.586 51.509 173.273 45.9 151.881 45.862 151.727 45.83 151.573 45.802 151.416 45.778 151.258 45.76 151.098 45.747 150.936 45.739 150.774 45.737 150.61 45.737 150.61 45.838 149.602 46.13 148.664 46.591 147.814 47.201 147.074 47.941 146.464 48.791 146.003 49.729 145.711 50.736 145.61 50.736 145.61 51.588 145.682 52.393 145.891 53.139 146.224 53.814 146.67 54.408 147.216 54.906 147.851 55.299 148.562 55.573 149.339 55.573 149.339 56.524 152.967 56.526 152.973 56.526 152.973 56.865 153.844 57.303 154.658 57.833 155.41 58.449 156.091 59.142 156.693 59.904 157.21 60.728 157.633 61.607 157.954 61.607 157.955 61.609 157.955 61.934 157.955 71.955 157.955 77.623 157.955 77.824 157.871 78.002 157.719 78.157 157.5 78.291 157.221 78.405 156.884 78.501 156.493 78.579 156.053 78.64 155.568 78.64 155.568 78.703 154.891 78.797 154.224 78.921 153.568 79.075 152.924 79.257 152.293 79.467 151.675 79.705 151.071 79.968 150.482 79.968 150.482 80.86 149.196 81.943 148.031 83.198 147.002 84.607 146.125 86.151 145.416 87.814 144.89 89.576 144.563 91.419 144.45 94.264 144.45 94.264 143.01 91.419 143.01 80.27 143.01 71.968 143.01 70.389 142.851 68.918 142.394 67.586 141.671 66.426 140.714 65.469 139.554 64.746 138.222 64.289 136.751 64.13 135.172 64.13 135.172 64.136 134.853 64.155 134.538 64.186 134.227 64.23 133.919 64.285 133.616 64.352 133.316 64.43 133.021 64.519 132.73 64.515 132.73 64.515 132.73 66.079 127.917 66.105 127.713 66.054 127.528 65.944 127.363 65.793 127.216 65.617 127.088 65.435 126.977 65.263 126.884 65.118 126.808 65.118 126.808 64.964 126.727 64.84 126.665 64.73 126.61 64.62 126.556 64.495 126.49 64.342 126.405 64.146 126.291 63.892 126.138 63.892 126.138 63.357 125.797 62.833 125.432 62.32 125.043 61.82 124.63 61.333 124.194 60.86 123.735 60.402 123.253 59.959 122.749 59.959 122.749 59.095 121.3 58.388 119.722 57.852 118.038 57.496 116.268 57.333 114.435 57.372 112.562 57.627 110.669 58.107 108.778 58.485 107.587 57.115 107.142 57.114 107.145 57.115 107.142 50.013 129.001 49.986 128.995 49.383 130.678 48.672 132.306 47.857 133.875 46.942 135.38 45.933 136.818 44.832 138.183 43.644 139.472 42.375 140.679 42.375 140.679 41.365 141.626 40.461 142.675 39.671 143.817 39.005 145.044 38.471 146.345 38.078 147.712 37.836 149.137 37.754 150.61 37.754 150.61 37.76 151.029 37.78 151.445 37.813 151.857 37.858 152.266 37.916 152.67 37.987 153.071 38.069 153.467 38.164 153.859 39.921 161.147 39.921 161.147 40.007 161.52 40.082 161.898 40.146 162.279 40.199 162.664 40.24 163.053 40.27 163.445 40.288 163.84 40.294 164.238 40.294 164.238 40.252 165.283 40.129 166.304 39.928 167.3 39.652 168.266 39.304 169.2 38.887 170.098 38.405 170.956 37.861 171.773 37.628 172.101 37.447 172.377 37.295 172.63 37.172 172.855 36.961 173.282 36.774 173.723 36.614 174.177 36.481 174.643 36.375 175.12 36.299 175.608 36.252 176.105 36.237 176.61 36.237 176.61 36.308 177.681 36.515 178.71 36.85 179.686 37.302 180.601 37.863 181.445 38.523 182.209 39.274 182.885 40.107 183.462 37.877 187.716"/><polyline id="_new_54_2" fill="none" stroke="#000" stroke-width=".1" points="91.419 143.01 94.264 143.01"/><polyline id="_new_55_1" fill="none" stroke="#000" stroke-width=".1" points="48.384 161.356 46.593 160.801 44.947 159.963 43.475 158.871 42.206 157.553 41.169 156.04 40.392 154.359 39.905 152.539 39.736 150.609 39.736 150.609 39.96 148.393 40.601 146.328 41.615 144.459 42.959 142.831 44.587 141.488 46.455 140.474 48.52 139.833 50.736 139.609 50.736 139.609 52.953 139.833 55.018 140.474 56.886 141.488 58.514 142.831 59.858 144.459 60.872 146.328 61.513 148.393 61.736 150.609 61.736 150.609 61.701 151.502 61.595 152.375 61.423 153.225 61.187 154.051 60.889 154.848 60.533 155.616 60.12 156.349 59.655 157.047"/><circle id="_tag_74_" cx="50.736" cy="150.61" r="5" fill="none" stroke="#000" stroke-width=".1"/><polyline id="_new_57_1" fill="none" stroke="#000" stroke-width=".1" points="49.226 131.423 50.159 130.708 51.135 130.205 52.144 129.89 53.178 129.74 54.23 129.732 55.291 129.841 56.354 130.045 57.409 130.319 57.409 130.319 58.175 130.579 58.906 130.9 59.597 131.273 60.243 131.686 60.84 132.128 61.383 132.59 61.867 133.06 62.289 133.529 62.289 133.529 62.772 134.191 63.175 134.902 63.528 135.653 63.861 136.435 64.202 137.24 64.582 138.058 65.028 138.882 65.571 139.703 65.571 139.703 66.204 140.486 66.854 141.175 67.507 141.799 68.146 142.388 68.758 142.968 69.326 143.57 69.835 144.221 70.27 144.952 70.27 144.952 70.629 145.74 70.905 146.499 71.109 147.233 71.252 147.943 71.346 148.632 71.402 149.302 71.432 149.957 71.448 150.598 71.448 150.598 71.446 151.382 71.405 152.398 71.309 153.55 71.139 154.74 70.879 155.872 70.512 156.85 70.02 157.577 69.387 157.956"/><polyline id="_new_58_1" fill="none" stroke="#000" stroke-width=".1" points="60.968 123.844 60.716 123.588 60.467 123.325 60.224 123.055 59.985 122.779 59.751 122.496 59.523 122.207 59.299 121.91 59.081 121.608 59.081 121.608 58.089 120.018 57.299 118.37 56.712 116.683 56.324 114.976 56.134 113.269 56.141 111.58 56.344 109.929 56.739 108.334 57.115 107.142"/><polyline id="_new_59_1" fill="none" stroke="#000" stroke-width=".1" points="79.644 151.216 80.497 149.478 81.569 147.898 82.84 146.499 84.288 145.303 85.891 144.334 87.628 143.613 89.478 143.164 91.419 143.01 94.264 143.01"/><circle id="_tag_75_" cx="44.236" cy="176.61" r="8" fill="none" stroke="#000" stroke-width=".1"/><circle id="_tag_76_" cx="44.236" cy="176.61" r="4.5" fill="none" stroke="#000" stroke-width=".1"/><circle id="center_00" cx="50.736" cy="150.61" r="5" fill="none" stroke="#000" stroke-width=".1"/></svg>
