<svg xmlns="http://www.w3.org/2000/svg" width="297mm" height="210mm" viewBox="0 0 297 210"><g id="Ebene_x0020_1"><g id="_129884824"><polygon id="_130588456" fill="none" stroke="#000" stroke-width=".1" points="35.635 91.897 37.476 90.203 39.291 88.453 41.048 86.636 42.718 84.741 44.273 82.759 45.681 80.678 46.914 78.488 47.942 76.177 52.298 64.877 53.876 64.501 55.435 64.384 56.956 64.518 58.422 64.895 59.815 65.508 61.116 66.351 62.308 67.416 63.371 68.696 57.027 85.689 56.466 87.955 56.479 90.035 56.977 91.895 57.877 93.497 59.091 94.806 60.534 95.785 62.119 96.399 63.762 96.611 84.129 96.596 83.951 110.503 52.073 110.526 49.477 100.91 49.476 100.91 49.242 100.172 48.899 99.485 48.459 98.862 47.929 98.312 47.318 97.847 46.637 97.478 45.893 97.216 45.096 97.073 45.096 97.073 44.084 97.075 43.121 97.273 42.231 97.649 41.434 98.184 40.754 98.861 40.212 99.661 39.831 100.566 39.631 101.559 39.631 101.559 39.614 101.778 39.607 101.995 39.609 102.211 39.62 102.425 39.641 102.637 39.67 102.846 39.707 103.053 39.754 103.257 39.755 103.262 39.765 103.301 43.456 118.275 43.45 130.567 43.465 130.743 43.476 130.919 43.482 131.096 43.485 131.275 43.482 131.454 43.476 131.634 43.465 131.814 43.449 131.995 43.448 132.004 43.15 134 42.584 135.875 41.766 137.609 40.711 139.181 39.433 140.571 37.947 141.756 36.269 142.718 34.413 143.434 34.413 143.434 34.093 143.44 33.82 143.402 33.596 143.322 33.419 143.198 33.289 143.032 33.208 142.822 33.174 142.57 33.187 142.275 33.611 140.369 33.679 139.988 33.706 139.612 33.688 139.247 33.62 138.894 33.495 138.558 33.308 138.241 33.054 137.947 32.727 137.68 32.727 137.68 32.676 137.651 32.625 137.622 32.574 137.593 32.523 137.564 32.473 137.534 32.423 137.503 32.373 137.473 32.323 137.442 32.317 137.438 32.317 137.438 31.515 136.85 30.804 136.162 30.193 135.386 29.69 134.532 29.307 133.612 29.051 132.637 28.933 131.62 28.961 130.57 28.961 130.57 29.069 129.843 29.246 129.144 29.487 128.475 29.789 127.84 30.148 127.243 30.56 126.686 31.022 126.172 31.529 125.705 31.529 125.705 32.306 124.843 32.996 123.712 33.574 122.356 34.014 120.821 34.289 119.153 34.373 117.396 34.24 115.596 33.864 113.798 31.68 106.115 31.651 106.024 31.624 105.933 31.597 105.842 31.57 105.75 31.544 105.658 31.519 105.566 31.495 105.474 31.471 105.381 31.469 105.373 31.469 105.373 31.34 104.815 31.235 104.248 31.153 103.675 31.096 103.095 31.064 102.509 31.058 101.918 31.077 101.322 31.123 100.722 31.123 100.722 31.315 99.415 31.627 98.155 32.051 96.948 32.581 95.8 33.211 94.716 33.934 93.7 34.744 92.759 35.635 91.898"/><polygon id="_130677584" fill="none" stroke="#000" stroke-width=".1" points="45.6 91.946 47.616 92.352 49.454 93.127 51.079 94.227 52.452 95.608 53.539 97.225 54.302 99.032 54.704 100.986 54.709 103.042 54.709 103.042 54.579 103.95 54.372 104.827 54.092 105.671 53.743 106.478 53.329 107.245 52.853 107.969 52.32 108.647 51.733 109.276 51.733 109.277 51.733 109.276 49.54 101.228 49.517 101.103 49.491 100.978 49.463 100.854 49.431 100.731 49.396 100.61 49.358 100.49 49.318 100.371 49.274 100.253 49.273 100.25 49.273 100.25 48.984 99.632 48.615 99.061 48.174 98.545 47.666 98.093 47.098 97.712 46.476 97.41 45.807 97.194 45.096 97.073 45.096 97.073 44.084 97.075 43.121 97.273 42.231 97.649 41.434 98.184 40.754 98.861 40.212 99.661 39.831 100.566 39.631 101.559 39.631 101.559 39.616 101.741 39.608 101.923 39.607 102.103 39.612 102.281 39.623 102.459 39.641 102.635 39.664 102.809 39.694 102.982 39.693 102.982 39.697 102.994 39.709 103.057 39.722 103.12 39.736 103.183 39.751 103.245 39.767 103.307 39.783 103.369 39.801 103.43 39.819 103.491 41.869 111.824 43.456 118.275 43.45 130.567 43.465 130.743 43.476 130.919 43.482 131.096 43.485 131.275 43.482 131.454 43.476 131.634 43.465 131.814 43.449 131.995 43.448 132.004 43.15 134 42.584 135.875 41.766 137.609 40.711 139.181 39.433 140.571 37.947 141.756 36.269 142.718 34.413 143.434 34.413 143.434 34.093 143.44 33.82 143.402 33.596 143.322 33.419 143.198 33.289 143.032 33.208 142.822 33.174 142.57 33.187 142.274 33.611 140.369 33.679 139.988 33.706 139.612 33.689 139.247 33.62 138.895 33.495 138.558 33.309 138.242 33.055 137.948 32.729 137.68 32.729 137.68 32.677 137.652 32.626 137.623 32.575 137.594 32.525 137.564 32.474 137.535 32.424 137.504 32.375 137.474 32.325 137.443 32.317 137.438 32.317 137.438 31.516 136.85 30.804 136.162 30.193 135.385 29.691 134.532 29.307 133.612 29.051 132.637 28.933 131.62 28.961 130.57 28.961 130.57 29.089 129.748 29.304 128.961 29.601 128.216 29.975 127.516 30.419 126.865 30.927 126.27 31.496 125.733 32.117 125.26 32.117 125.26 32.133 125.25 32.175 125.221 33.548 124.098 34.715 122.713 35.665 121.125 36.388 119.394 36.874 117.582 37.112 115.748 37.092 113.953 36.803 112.257 34.95 105.181 34.906 105.042 34.864 104.902 34.824 104.761 34.785 104.62 34.749 104.477 34.715 104.334 34.683 104.191 34.653 104.046 34.649 104.032 34.65 104.031 34.585 103.67 34.533 103.306 34.494 102.938 34.468 102.567 34.456 102.193 34.458 101.816 34.474 101.436 34.505 101.055 34.505 101.055 34.91 99.039 35.685 97.201 36.786 95.577 38.166 94.203 39.783 93.116 41.591 92.354 43.545 91.951 45.6 91.946"/><circle cx="36.205" cy="131.283" r="5" fill="none" stroke="#000" stroke-width=".1"/><circle cx="44.607" cy="102.049" r="5" fill="none" stroke="#000" stroke-width=".1"/><circle id="center_00" cx="44.607" cy="102.049" r="3" fill="none" stroke="#000" stroke-width=".1"/></g></g></svg>
