<svg xmlns="http://www.w3.org/2000/svg" width="297mm" height="210mm" viewBox="0 0 297 210"><g id="_tag_236_"><polygon id="simplify_211" fill="none" stroke="#000" stroke-width=".1" points="98.818 116.146 104.285 101.087 104.704 100.912 105.099 100.808 105.517 100.663 106.923 100.453 108.335 100.413 109.711 100.593 111.094 100.982 112.361 101.546 113.563 102.324 114.609 103.236 115.527 104.334 115.777 104.683 116.021 105.031 116.242 105.421 108.027 127.986 107.597 129.746 107.597 131.588 108.056 133.342 108.933 134.963 110.13 136.305 111.652 137.363 113.343 138.002 115.138 138.211 134.844 138.211 134.844 139.233 134.844 151.782 134.844 152.805 103.187 152.805 102.908 151.782 102.699 150.946 100.41 142.44 99.841 141.139 98.929 140.012 97.732 139.198 96.349 138.768 94.903 138.739 93.491 139.088 92.265 139.872 91.312 140.93 90.673 142.231 90.423 143.637 90.603 145.089 94.624 160.038 94.693 172.482 94.525 174.736 93.956 176.886 93.003 178.937 91.695 180.767 90.075 182.353 88.245 183.619 86.159 184.572 84.009 185.101 85.526 179.605 84.009 178.966 82.667 178.048 81.581 176.816 80.773 175.37 80.343 173.818 80.239 172.157 80.523 170.571 81.192 169.06 82.139 167.724 82.569 167.265 83.341 166.202 83.98 165.046 84.468 163.843 84.817 162.577 85.038 161.264 85.067 159.927 84.968 158.626 84.677 157.36 82.04 147.373 81.651 145.409 81.54 143.399 81.749 141.377 82.249 139.408 83.022 137.543 84.05 135.811 85.317 134.225 86.798 132.854 88.773 131.158 90.632 129.328 92.364 127.387 93.956 125.307 95.402 123.164 96.704 120.904 97.831 118.533"/><polygon id="simplify_212" cx="95.501" cy="143.776" fill="none" stroke="#000" stroke-width=".1" points="100.501 143.776 100.474 144.299 100.392 144.816 100.256 145.321 100.069 145.81 99.831 146.276 99.546 146.715 99.217 147.122 98.847 147.492 98.44 147.821 98.001 148.106 97.535 148.344 97.046 148.531 96.541 148.667 96.024 148.749 95.501 148.776 94.978 148.749 94.461 148.667 93.956 148.531 93.467 148.344 93.001 148.106 92.562 147.821 92.155 147.492 91.785 147.122 91.456 146.715 91.171 146.276 90.933 145.81 90.746 145.321 90.61 144.816 90.528 144.299 90.501 143.776 90.528 143.253 90.61 142.736 90.746 142.231 90.933 141.742 91.171 141.276 91.456 140.837 91.785 140.43 92.155 140.06 92.562 139.731 93.001 139.446 93.467 139.208 93.956 139.021 94.461 138.885 94.978 138.803 95.501 138.776 96.024 138.803 96.541 138.885 97.046 139.021 97.535 139.208 98.001 139.446 98.44 139.731 98.847 140.06 99.217 140.43 99.546 140.837 99.831 141.276 100.069 141.742 100.256 142.231 100.392 142.736 100.474 143.253"/><polygon id="simplify_213" fill="none" stroke="#000" stroke-width=".1" points="87.425 168.183 86.2 168.392 85.038 168.921 84.079 169.728 83.411 170.821 83.062 172.017 83.097 173.29 83.452 174.487 84.149 175.55 85.107 176.398 86.269 176.886 87.507 177.066 88.773 176.886 89.894 176.357 90.853 175.509 91.527 174.457 91.876 173.22 91.876 171.948 91.486 170.751 90.813 169.694 89.825 168.88 88.698 168.351"/><line id="simplify_214" x1="87.606" x2="85.706" y1="153.513" y2="146.385" stroke="#000" stroke-width=".1"/><polyline id="simplify_SVG__000136" fill="none" stroke="#000" stroke-width=".1" points="85.706 146.385 85.386 144.485 85.415 142.551 85.845 140.68 86.589 138.92 87.675 137.293 89.058 135.951 90.632 134.864 92.404 134.086 94.304 133.697 96.239 133.627 98.15 133.946 99.951 134.655 101.607 135.631 103.019 136.944 104.175 138.49 105.023 140.221 105.517 142.086 105.656 144.026 105.418 145.938 104.849 147.768 103.925 149.452 102.699 150.946"/><polyline id="simplify_SVG__000137" fill="none" stroke="#000" stroke-width=".1" points="82.569 167.265 84.079 166.022 85.386 164.587 86.449 162.954 87.257 161.194 87.786 159.329 88.024 157.388 87.954 155.448 87.606 153.513"/><polyline id="simplify_SVG__000138" fill="none" stroke="#000" stroke-width=".1" points="115.138 139.233 113.343 139.018 111.582 138.461 109.99 137.502 108.654 136.27 107.597 134.754 106.894 133.063 106.545 131.268 106.615 129.438 107.033 127.637"/><polyline id="simplify_SVG__000139" fill="none" stroke="#000" stroke-width=".1" points="99.771 116.494 98.778 118.963 97.581 121.363 96.279 123.692 94.763 125.912 93.142 128.021 91.382 130.036 89.476 131.907 87.425 133.662"/><polyline id="simplify_SVG__000140" fill="none" stroke="#000" stroke-width=".1" points="87.425 133.662 86.06 134.934 84.887 136.381 83.91 138.002 83.202 139.733 82.737 141.557 82.569 143.399 82.638 145.298 82.987 147.134"/><line id="simplify_220" x1="105.517" x2="99.771" y1="100.663" y2="116.494" stroke="#000" stroke-width=".1"/><line id="simplify_221" x1="107.033" x2="115.527" y1="127.637" y2="104.334" stroke="#000" stroke-width=".1"/><line id="simplify_222" x1="134.844" x2="115.138" y1="139.233" y2="139.233" stroke="#000" stroke-width=".1"/><line id="simplify_223" x1="102.908" x2="134.844" y1="151.782" y2="151.782" stroke="#000" stroke-width=".1"/><polyline id="simplify_SVG__000145" fill="none" stroke="#000" stroke-width=".1" points="85.671 157.069 85.88 158.057 86.019 159.05 86.089 160.038 86.06 161.014 85.95 162.007 85.775 162.954 85.491 163.942 85.177 164.866"/><line id="simplify_225" x1="82.987" x2="85.671" y1="147.134" y2="157.069" stroke="#000" stroke-width=".1"/><line id="simplify_226" x1="102.699" x2="102.908" y1="150.946" y2="151.782" stroke="#000" stroke-width=".1"/><line id="simplify_227" x1="103.187" x2="102.908" y1="152.805" y2="151.782" stroke="#000" stroke-width=".1"/><line id="center_00" x2="120.01" y2="184.344" cx="95.501" cy="143.776" stroke="#000" stroke-width=".1"/><line id="simplify_229" x1="95.501" x2="95.501" y1="146.172" y2="141.381" stroke="#000" stroke-width=".1"/><line id="simplify_230" x1="97.824" x2="93.178" y1="143.776" y2="143.776" stroke="#000" stroke-width=".1"/><line id="simplify_231" x1="87.466" x2="87.466" y1="175.017" y2="170.226" stroke="#000" stroke-width=".1"/><line id="simplify_232" x1="89.789" x2="85.143" y1="172.622" y2="172.622" stroke="#000" stroke-width=".1"/></g></svg>