<svg xmlns="http://www.w3.org/2000/svg" width="297mm" height="210mm" viewBox="0 0 297 210"><g id="_tag_38_"><circle id="simplify_34" cx="13" cy="197" r="5"/><circle id="center_00" cx="13" cy="197" r="4.5"/><polygon id="path6848___35_1" fill="none" stroke="#000" stroke-width=".1" points="21.646 203.652 21.313 203.523 21.22 203.466 21.209 203.459 21.197 203.452 21.186 203.445 21.174 203.437 21.162 203.43 21.151 203.423 21.139 203.416 21.128 203.409 21.035 203.351 20.942 203.294 20.85 203.237 20.757 203.179 20.005 199.758 21.33 198.459 19.632 193.17 17.118 190.87 13.104 189.482 8.148 191.203 5.837 194.794 5.551 199.483 7.814 208.059 7.215 212.983 5.965 216.026 -1.327 221.841 -.235 219.795 .429 218.18 .943 216.515 1.305 214.813 1.513 213.085 1.563 211.344 1.452 209.602 1.178 207.871 .996 206.967 .8 206.066 .592 205.168 .373 204.272 .144 203.379 -.093 202.488 -.586 200.71 -1.001 198.694 -1.113 196.661 -.933 194.643 -.471 192.676 .263 190.794 1.26 189.031 2.509 187.421 4 185.999 6.002 184.301 7.947 182.536 9.832 180.707 11.654 178.815 13.41 176.862 15.098 174.85 16.713 172.78 18.253 170.653 18.253 170.653 22.578 164.475 31.23 152.119 35.556 145.941 39.882 139.763 44.208 133.585 48.534 127.407 52.785 121.336 52.86 121.229 52.915 121.164 52.975 121.107 53.041 121.057 53.11 121.015 53.184 120.98 53.261 120.951 53.342 120.928 53.424 120.912 54.306 120.912 55.721 121.047 57.079 121.387 58.36 121.92 59.547 122.629 60.622 123.501 61.565 124.52 62.359 125.673 62.859 126.714 63.232 127.685 63.244 128.215 63.161 128.461 60.64 132.177 58.235 135.968 55.945 139.832 53.772 143.762 51.717 147.756 51.475 148.262 51.233 148.769 50.99 149.275 50.748 149.782 50.506 150.288 50.264 150.795 50.022 151.301 49.78 151.808 47.962 155.914 46.263 160.07 45.153 163.73 44.71 167.51 44.908 171.31 45.716 175.031 47.108 178.574 49.055 181.839 51.529 184.727 54.502 187.139 54.502 187.139 55.84 188.022 57.237 188.794 58.687 189.459 60.18 190.017 61.711 190.47 63.269 190.82 64.849 191.07 66.442 191.22 66.584 191.248 66.715 191.302 66.834 191.38 66.937 191.477 67.022 191.591 67.088 191.717 67.13 191.854 67.148 191.996 67.148 192.243 67.139 205.257 67.096 205.393 67.023 205.522 66.926 205.638 66.811 205.736 66.682 205.809 66.546 205.853 66.407 205.861 64.373 205.845 60.785 205.816 55.163 205.71 49.542 205.54 43.925 205.303 38.31 204.997 32.7 204.619 27.096 204.167 21.646 203.652" class="fil0 str0"/><polygon id="path6848___13_1" fill="none" stroke="#000" stroke-width=".1" points="7.916 198.135 7.732 196.736 7.971 195.393 8.567 194.168 9.453 193.127 10.562 192.333 11.826 191.849 13.178 191.741 14.552 192.072 14.552 192.072 15.123 192.306 15.652 192.612 16.135 192.98 16.57 193.405 16.953 193.879 17.281 194.395 17.55 194.946 17.926 196.159 18.094 196.794 18.261 197.429 18.429 198.064 18.597 198.699 18.764 199.334 18.932 199.969 19.099 200.604 19.222 200.975 19.37 201.334 19.542 201.68 19.739 202.012 19.96 202.329 20.204 202.63 20.47 202.914 20.757 203.18 21.958 201.343 22.685 199.309 22.954 197.169 22.78 195.015 22.181 192.94 21.173 191.035 19.772 189.393 17.994 188.107 17.994 188.107 15.894 187.117 13.653 186.699 11.377 186.812 9.17 187.414 7.138 188.465 5.387 189.923 4.022 191.748 3.148 193.898 3.148 193.898 2.953 194.602 2.817 195.317 2.736 196.04 2.71 196.767 2.734 197.496 2.806 198.222 2.82 198.312 2.835 198.402 2.85 198.492 2.864 198.582 2.879 198.672 2.894 198.762 2.908 198.852 2.923 198.942 3.083 199.652 3.5 201.16 3.824 202.333 4.301 204.853 4.451 207.405 4.283 209.953 3.805 212.46 3.024 214.889 1.95 217.205 .591 219.37 -1.327 221.842 -2.075 223.399 -2.404 225.042 -2.341 226.698 -1.915 228.296 -1.152 229.764 -.082 231.03 1.269 232.023 2.871 232.672 2.722 233.21 2.572 233.748 2.422 234.286 2.272 234.824 2.122 235.362 1.972 235.9 1.822 236.438 1.672 236.976 1.63 237.184 1.651 237.382 1.726 237.563 1.845 237.718 2 237.84 2.182 237.921 2.382 237.953 2.589 237.928 4.439 237.275 6.145 236.35 7.682 235.183 9.026 233.803 10.151 232.241 11.034 230.524 11.65 228.682 12.044 226.146 11.968 222.911 11.787 219.682 11.504 216.46 11.119 213.249 10.633 210.052 10.048 206.87 9.366 203.709 8.586 200.569 7.916 198.135" class="fil2 str0"/><polygon id="path6848___15" fill="none" stroke="#000" stroke-width=".1" points="47.427 189.774 48.071 190.68 48.406 191.682 48.452 192.717 48.231 193.724 47.764 194.641 47.073 195.405 46.177 195.956 45.099 196.23 42.675 196.426 40.245 196.506 37.813 196.47 35.385 196.317 32.968 196.048 30.567 195.662 28.189 195.158 25.837 194.537 25.519 194.441 25.214 194.315 24.925 194.161 24.651 193.982 24.393 193.779 24.152 193.556 23.927 193.314 23.721 193.055 23.271 192.398 22.821 191.741 22.371 191.084 21.921 190.427 21.472 189.77 21.022 189.113 20.572 188.456 20.122 187.798 19.662 186.997 19.323 186.143 19.109 185.254 19.02 184.346 19.057 183.435 19.223 182.538 19.519 181.67 19.946 180.849 21.168 178.924 22.431 177.03 23.736 175.164 25.08 173.328 26.465 171.521 27.887 169.744 29.348 167.997 30.847 166.279 31.742 165.539 32.756 165.136 33.82 165.047 34.866 165.247 35.824 165.712 36.625 166.42 37.199 167.346 37.479 168.466 37.913 171.431 38.596 174.345 39.518 177.192 40.671 179.952 42.047 182.609 43.638 185.144 45.434 187.538"/><polygon id="path6848___25" fill="none" stroke="#000" stroke-width=".1" points="9.313 225.668 9.288 226.139 9.214 226.604 9.092 227.059 8.924 227.499 8.71 227.918 8.453 228.313 8.157 228.679 7.824 229.012 7.458 229.309 7.063 229.565 6.643 229.779 6.203 229.948 5.748 230.07 5.283 230.144 4.813 230.168 4.342 230.144 3.877 230.07 3.422 229.948 2.982 229.779 2.563 229.565 2.168 229.309 1.802 229.012 1.468 228.679 1.172 228.313 .916 227.918 .702 227.499 .533 227.059 .411 226.604 .337 226.139 .313 225.668 .337 225.198 .411 224.733 .533 224.278 .702 223.838 .916 223.418 1.172 223.023 1.468 222.657 1.802 222.324 2.168 222.028 2.563 221.771 2.982 221.557 3.422 221.388 3.877 221.267 4.342 221.193 4.813 221.168 5.283 221.193 5.748 221.267 6.203 221.388 6.643 221.557 7.063 221.771 7.458 222.028 7.824 222.324 8.157 222.657 8.453 223.023 8.71 223.418 8.924 223.838 9.092 224.278 9.214 224.733 9.288 225.198"/></g></svg>
