<svg xmlns="http://www.w3.org/2000/svg" width="297mm" height="210mm" viewBox="0 0 297 210"><g id="_tag_81_"><polygon id="simplify_44" fill="none" stroke="#000" stroke-width=".1" points="69.701 139.826 69.419 139.665 69.136 139.504 68.894 139.302 68.652 139.1 68.491 138.858 68.289 138.616 68.128 138.334 68.007 138.051 66.635 134.38 66.07 133.331 65.264 132.404 64.255 131.677 63.126 131.234 61.875 131.072 60.665 131.234 59.535 131.677 58.527 132.363 57.72 133.291 57.115 134.38 56.832 135.55 56.832 136.76 57.115 137.971 59.414 144.062 59.454 144.183 59.454 144.304 59.414 144.425 59.333 144.506 59.253 144.587 57.756 145.042 56.395 144.873 54.809 144.269 53.252 143.501 51.803 142.635 50.425 141.607 49.145 140.439 47.963 139.202 46.912 137.87 45.969 136.412 45.172 134.949 44.522 133.333 44.004 131.718 43.641 130.023 43.398 128.329 43.318 126.635 43.358 125.384 43.358 124.94 43.398 124.537 43.439 124.053 43.479 123.649 43.52 123.246 43.52 122.802 43.56 122.358 43.56 121.995 43.56 121.552 43.479 121.189 43.358 120.785 43.237 120.422 42.995 120.099 42.793 119.777 42.551 119.454 42.39 119.292 42.148 119.091 41.946 118.97 41.745 118.808 41.543 118.687 41.301 118.566 41.018 118.445 40.776 118.405 39.606 117.881 38.598 117.154 37.751 116.227 37.146 115.097 36.823 113.887 36.782 112.596 37.065 111.386 37.589 110.256 38.356 109.207 39.324 108.441 40.454 107.876 41.704 107.593 43.157 107.392 44.084 106.948 44.891 106.262 45.496 105.375 45.779 104.366 45.819 103.317 45.537 102.309 45.012 101.381 44.246 100.695 43.681 100.171 42.834 99.243 42.269 98.073 41.987 96.822 41.987 95.572 42.269 94.281 42.834 93.151 43.681 92.183 44.689 91.416 45.859 90.892 47.15 90.69 48.401 90.771 49.167 90.932 49.813 91.134 50.458 91.174 51.104 91.094 51.749 90.892 52.314 90.61 52.879 90.206 53.322 89.762 53.686 89.198 55.138 86.697 56.671 84.276 58.244 81.936 59.938 79.596 61.714 77.337 63.569 75.159 65.465 73.021 67.442 70.963 67.569 70.854 67.846 70.739 68.007 70.721 68.128 70.721 68.289 70.762 68.531 70.963 77.164 78.547 77.326 78.749 77.366 78.87 77.406 79.032 77.406 79.193 77.366 79.354 77.245 79.596 76.721 80.201 76.196 80.807 75.712 81.371 75.268 81.977 74.744 82.622 74.3 83.267 73.816 83.873 73.332 84.478 72.364 86.212 71.678 88.068 71.315 90.045 71.275 92.022 71.597 93.958 72.202 95.814 73.211 97.589 74.462 99.081 76.6 101.26 78.818 103.357 81.037 105.455 83.377 107.432 85.717 109.409 88.097 111.265 90.558 113.08 93.019 114.855 97.335 117.598 101.813 120.099 106.452 122.237 111.253 124.053 116.094 125.586 121.096 126.796 126.099 127.643 131.182 128.127 136.265 128.289 162.85 128.289 163.011 128.329 163.173 128.369 163.253 128.45 163.415 128.531 163.495 128.652 163.536 128.773 163.616 128.934 163.616 129.095 163.616 143.417 163.616 143.578 163.536 143.699 163.495 143.861 163.415 143.982 163.253 144.062 163.173 144.143 163.011 144.183 162.85 144.183 79.343 144.183"/><polygon id="simplify_45_1" fill="none" stroke="#000" stroke-width=".1" points="71.355 140.552 70.226 140.028 69.943 139.866 69.701 139.745 69.419 139.544 69.217 139.302 69.015 139.059 68.814 138.817 68.693 138.535 68.572 138.253 67.079 134.259 66.434 133.089 65.586 132.121 64.497 131.354 63.247 130.87 61.956 130.709 60.665 130.87 59.414 131.354 58.325 132.08 57.437 133.049 56.832 134.218 56.51 135.509 56.51 136.841 56.832 138.091 61.472 150.355 63.489 161.126 63.514 161.378 63.539 161.63 63.564 161.883 63.589 162.135 63.615 162.387 63.64 162.639 63.665 162.891 63.69 163.143 63.529 165.241 63.085 167.299 62.278 169.235 61.189 170.97 59.818 172.583 58.164 173.874 56.389 174.923 54.452 175.649 54.291 175.69 54.17 175.649 54.049 175.609 53.968 175.528 53.887 175.448 53.807 175.327 53.802 175.306 53.796 175.286 53.791 175.266 53.786 175.246 53.781 175.226 53.776 175.205 53.771 175.185 53.766 175.165 53.807 175.084 54.371 171.776 54.412 171.292 54.371 170.768 54.25 170.243 54.089 169.8 54.054 169.739 54.018 169.679 53.983 169.618 53.948 169.558 53.912 169.497 53.877 169.437 53.842 169.376 53.807 169.316 53.484 168.952 53.121 168.589 52.677 168.307 51.669 167.621 50.741 166.814 50.015 165.846 49.409 164.757 49.046 163.587 48.885 162.336 48.885 161.126 49.167 159.916 49.611 157.939 49.974 155.922 50.136 153.865 50.136 151.848 49.974 149.79 49.651 147.773 49.167 145.797 48.522 143.86 44.528 133.331 44.004 131.717 43.641 130.023 43.399 128.329 43.318 126.634 43.399 124.9 43.6 123.246 44.004 121.551 44.528 119.938 44.689 119.534 44.851 119.131 66.272 116.145 67.419 116.101 68.451 116.145 69.54 116.226 70.589 116.549 71.557 117.073 72.444 117.759 73.13 118.606 73.655 119.574 74.018 120.623 74.22 121.713 74.26 123.689 72.162 140.512 72.001 140.592 71.88 140.633 71.678 140.633 71.355 140.552" class="fil0 str0"/><polygon id="simplify_46" fill="none" stroke="#000" stroke-width=".1" points="70.387 121.874 70.226 121.148 69.742 120.503 69.136 120.099 68.33 119.938 67.563 120.099 66.918 120.583 66.514 121.229 66.393 121.995 66.555 122.762 66.998 123.407 67.684 123.811 68.451 123.932 69.177 123.77 69.822 123.327 70.226 122.641"/><polygon id="simplify_47" fill="none" stroke="#000" stroke-width=".1" points="52.032 124.497 51.87 123.73 51.426 123.085 50.741 122.641 49.974 122.52 49.208 122.681 48.603 123.165 48.159 123.811 48.038 124.577 48.199 125.344 48.643 125.989 49.288 126.393 50.055 126.554 50.862 126.352 51.467 125.909 51.911 125.223"/><polyline id="simplify_SVG__000030" fill="none" stroke="#000" stroke-width=".1" points="72.122 140.916 74.421 122.681 74.421 121.31 74.139 119.978 73.534 118.728 72.646 117.598 71.557 116.751 70.266 116.227 68.935 115.904 66.272 116.146 42.551 119.454"/><polyline id="simplify_SVG__000031" fill="none" stroke="#000" stroke-width=".1" points="71.073 112.354 72.767 112.112 73.816 111.95"/><g id="simplify_50_1"><polyline id="simplify_50___0" fill="none" stroke="#000" stroke-width=".1" points="53.928 114.815 53.161 114.815 52.395 114.613 51.709 114.291 51.104 113.806 50.62 113.201 50.297 112.516 50.176 111.709 50.216 110.942 51.427 105.496 53.242 100.171 53.968 98.759 54.896 97.549 56.025 96.5 57.357 95.693 58.809 95.169 60.382 94.927 61.915 94.927 63.448 95.249 64.901 95.814 66.192 96.661 67.321 97.71 68.289 98.84 69.298 99.929 70.306 101.059 71.355 102.148 72.404 103.197 73.453 104.246 74.502 105.254 75.631 106.303 76.196 107.029 76.559 107.876 76.68 108.804 76.479 109.732 76.115 110.539 75.47 111.225 74.704 111.709 73.816 111.951" class="fil1 str0"/><polyline id="simplify_50___1" fill="none" stroke="#000" stroke-width=".1" points="71.073 112.354 67.119 112.919" class="fil1 str0"/></g><g id="simplify_51_1"><polyline id="simplify_51___0" fill="none" stroke="#000" stroke-width=".1" points="76.075 133.936 76.196 135.348 76.761 136.357 77.487 137.002 78.254 137.365 78.738 137.526 83.579 138.293 88.46 138.938 93.341 139.382 98.182 139.705 103.104 139.826 107.985 139.826 112.867 139.705 117.748 139.342 118.716 139.14 119.563 138.656 120.249 137.89 120.653 137.002 120.814 136.034 120.612 135.066 120.209 134.138 119.483 133.452 118.635 132.968 114.803 131.475 111.011 129.862 107.299 128.127 103.588 126.271 99.998 124.294 96.407 122.197 92.978 119.978 89.549 117.638 88.823 117.235 88.057 116.952 87.25 116.751 86.403 116.751 85.596 116.791 84.789 117.033 84.022 117.356 83.337 117.88 81.763 119.131 80.634 120.139" class="fil1 str0"/><polyline id="simplify_51___1" fill="none" stroke="#000" stroke-width=".1" points="80.634 120.139 80.311 120.422 79.988 120.744 79.666 121.067 79.343 121.35 79.02 121.672 78.738 121.995 78.415 122.318 78.092 122.64 77.971 122.802 77.81 123.004 77.648 123.246 77.498 123.528 77.4 123.743 77.326 123.972 77.285 124.214 77.245 124.456" class="fil1 str0"/></g><g id="simplify_52_1"><polyline id="simplify_52___0" fill="none" stroke="#000" stroke-width=".1" points="40.776 118.405 39.606 117.881 38.598 117.154 37.751 116.227 37.146 115.097 36.823 113.887 36.782 112.596 37.065 111.386 37.589 110.256 38.356 109.207 39.324 108.441 40.454 107.876 41.704 107.594 42.955 107.594 44.165 107.916 45.295 108.481 46.303 109.288 47.029 110.296 47.095 110.438 47.16 110.579 47.226 110.72 47.291 110.861 47.357 111.002 47.423 111.144 47.488 111.285 47.554 111.426 47.876 112.273 48.361 112.999 48.966 113.645 49.651 114.21 50.418 114.573 51.265 114.815 52.153 114.936 53.04 114.895 53.928 114.815 67.119 112.919 68.814 112.838 70.427 113.08 72.001 113.604 73.493 114.411 74.784 115.46 75.833 116.751 76.68 118.163 77.245 119.777 77.487 121.431 77.406 123.085 77.245 124.456 76.075 133.856" class="fil1 str0"/><polyline id="simplify_52___1" fill="none" stroke="#000" stroke-width=".1" points="75.914 134.945 75.793 135.833 75.631 136.68 75.309 137.527 75.026 138.374 74.663 139.181 74.26 139.947 73.816 140.714 73.292 141.44" class="fil1 str0"/></g><line id="simplify_53" x1="76.075" x2="75.914" y1="133.856" y2="134.945" stroke="#000" stroke-width=".1"/><polygon id="simplify_54" fill="none" stroke="#000" stroke-width=".1" points="52.959 96.217 52.838 94.926 52.395 93.756 51.709 92.627 50.741 91.739 49.651 91.134 48.401 90.771 47.15 90.69 45.859 90.892 44.689 91.416 43.681 92.183 42.834 93.151 42.269 94.281 41.987 95.572 41.987 96.822 42.269 98.073 42.834 99.243 43.681 100.171 44.689 100.977 45.859 101.462 47.15 101.703 48.401 101.623 49.651 101.26 50.741 100.614 51.709 99.727 52.395 98.678 52.838 97.468"/><line id="simplify_55" x1="61.875" x2="61.875" y1="136.155" y2="133.654" stroke="#000" stroke-width=".1"/><line id="simplify_56" x1="61.875" x2="59.374" y1="136.155" y2="136.155" stroke="#000" stroke-width=".1"/><line id="simplify_57" x1="61.875" x2="61.875" y1="136.155" y2="138.697" stroke="#000" stroke-width=".1"/><line id="simplify_58" x1="61.875" x2="64.376" y1="136.155" y2="136.155" stroke="#000" stroke-width=".1"/><line id="simplify_59" x1="61.875" x2="61.875" y1="136.155" y2="133.654" stroke="#000" stroke-width=".1"/><line id="simplify_60" x1="61.875" x2="59.374" y1="136.155" y2="136.155" stroke="#000" stroke-width=".1"/><polygon id="simplify_61" fill="none" stroke="#000" stroke-width=".1" points="69.701 121.955 69.58 121.471 69.298 121.027 68.854 120.745 68.37 120.664 67.886 120.745 67.442 121.027 67.2 121.471 67.119 121.955 67.2 122.439 67.442 122.883 67.886 123.165 68.37 123.246 68.854 123.165 69.298 122.883 69.58 122.439"/><polyline id="simplify_SVG__000041" fill="none" stroke="#000" stroke-width=".1" points="67.402 123.69 67.966 123.851 68.612 123.891 69.217 123.649 69.742 123.246 70.064 122.721 70.226 122.116 70.105 121.511 69.863 120.987 69.419 120.543 68.854 120.301 68.289 120.261 67.725 120.422 67.281 120.745 66.958 121.229 66.837 121.915 66.877 122.358 66.918 122.52 66.998 122.641 67.079 122.762 67.2 122.923 67.281 123.004 66.877 122.843 66.635 122.641 66.433 122.439"/><polyline id="simplify_SVG__000042" fill="none" stroke="#000" stroke-width=".1" points="48.078 125.021 48.28 125.223 48.481 125.424 48.885 125.586 48.804 125.505 48.724 125.384 48.643 125.223 48.603 125.102 48.562 124.94 48.522 124.819 48.481 124.618 48.481 124.497 48.481 124.335 48.603 123.77 48.925 123.327 49.369 123.004 49.934 122.883 50.499 122.923 51.023 123.125 51.467 123.528 51.749 124.053 51.83 124.658 51.709 125.303 51.386 125.828 50.902 126.272 50.257 126.473 49.571 126.433 49.006 126.272"/><polygon id="simplify_64" fill="none" stroke="#000" stroke-width=".1" points="51.306 124.537 51.225 124.053 50.942 123.609 50.539 123.327 50.014 123.246 49.53 123.327 49.127 123.609 48.845 124.053 48.724 124.537 48.845 125.021 49.127 125.465 49.53 125.747 50.014 125.828 50.539 125.747 50.942 125.465 51.225 125.021"/><polyline id="simplify_SVG__000044" fill="none" stroke="#000" stroke-width=".1" points="44.528 119.938 66.313 116.872 68.41 116.872 69.419 116.993 70.306 117.275 71.153 117.719 71.92 118.324 72.525 119.01 73.009 119.898 73.332 120.785 73.547 122.157 73.534 123.649 71.355 140.552"/><line id="center_00" cx="61.875" cy="136.155"/><g id="simplify_69_1"><polyline id="simplify_69___0" fill="none" stroke="#000" stroke-width=".1" points="80.634 120.14 81.239 118.809 82.086 117.639 83.175 116.711 84.547 116.066 85.959 115.743 87.451 115.783 88.823 116.187 90.114 116.832" class="fil1 str0"/><polyline id="simplify_69___1" fill="none" stroke="#000" stroke-width=".1" points="90.114 116.832 93.503 119.131 96.932 121.35 100.482 123.408 104.032 125.384 107.703 127.2 111.414 128.934 115.207 130.548 118.999 132.041" class="fil1 str0"/><polyline id="simplify_69___2" fill="none" stroke="#000" stroke-width=".1" points="118.999 132.041 120.007 132.565 120.814 133.372 121.419 134.381 121.742 135.51 121.742 136.68 121.419 137.769 120.814 138.778 120.007 139.544 118.958 140.109 117.829 140.351" class="fil1 str0"/><polyline id="simplify_69___3" fill="none" stroke="#000" stroke-width=".1" points="117.829 140.351 112.504 140.674 107.138 140.876 101.773 140.835 96.448 140.634 91.082 140.19 85.757 139.585 80.472 138.818 75.228 137.85" class="fil1 str0"/></g><g id="simplify_70_1"><polyline id="simplify_70___0" fill="none" stroke="#000" stroke-width=".1" points="76.317 105.576 77.003 106.463 77.487 107.512 77.648 108.642 77.528 109.771 77.084 110.82 76.398 111.748 75.47 112.474 74.421 112.878 73.251 113.039 72.122 112.837 71.073 112.353" class="fil1 str0"/><polyline id="simplify_70___1" fill="none" stroke="#000" stroke-width=".1" points="68.047 97.104 69.056 98.194 70.024 99.283 71.073 100.372 72.081 101.421 73.09 102.47 74.179 103.519 75.228 104.568 76.317 105.576" class="fil1 str0"/><polyline id="simplify_70___2" fill="none" stroke="#000" stroke-width=".1" points="52.274 99.807 53.121 98.234 54.17 96.862 55.461 95.692 56.953 94.845 58.567 94.24 60.302 93.917 62.036 93.958 63.731 94.28 65.344 94.926 66.797 95.894 68.047 97.104" class="fil1 str0"/><polyline id="simplify_70___3" fill="none" stroke="#000" stroke-width=".1" points="49.208 110.82 49.369 110.014 49.49 109.207 49.692 108.4 49.853 107.633 50.337 105.657 50.902 103.68 51.588 101.703 52.274 99.807" class="fil1 str0"/><polyline id="simplify_70___4" fill="none" stroke="#000" stroke-width=".1" points="50.458 114.572 50.095 114.209 49.813 113.765 49.571 113.362 49.369 112.838 49.248 112.353 49.167 111.829 49.167 111.305 49.208 110.82" class="fil1 str0"/></g><polygon id="simplify_71" fill="none" stroke="#000" stroke-width=".1" points="50.014 96.217 49.853 95.33 49.409 94.563 48.724 93.998 47.876 93.716 46.989 93.716 46.182 93.998 45.537 94.563 45.053 95.33 44.931 96.217 45.053 97.064 45.537 97.831 46.182 98.395 46.989 98.718 47.876 98.718 48.724 98.395 49.409 97.831 49.853 97.064"/><polygon id="simplify_72" fill="none" stroke="#000" stroke-width=".1" points="60.624 161.812 60.423 160.723 59.979 159.674 59.293 158.747 58.446 158.061 57.357 157.617 56.267 157.415 55.138 157.536 54.049 157.899 53.161 158.545 52.354 159.392 51.83 160.36 51.588 161.449 51.628 162.579 51.951 163.668 52.516 164.677 53.282 165.483 54.25 166.089 55.38 166.411 56.51 166.452 57.599 166.21 58.607 165.685 59.454 164.959 60.1 163.991 60.463 162.942"/><polygon id="simplify_73" fill="none" stroke="#000" stroke-width=".1" points="44.851 113.08 44.689 112.233 44.246 111.426 43.56 110.861 42.713 110.538 41.865 110.538 41.018 110.861 40.373 111.426 39.929 112.233 39.768 113.08 39.929 113.967 40.373 114.734 41.018 115.299 41.865 115.581 42.713 115.581 43.56 115.299 44.246 114.734 44.689 113.967"/><line id="simplify_74" x1="56.106" x2="56.106" y1="161.934" y2="159.432" stroke="#000" stroke-width=".1"/><line id="simplify_75" x1="56.106" x2="53.605" y1="161.934" y2="161.934" stroke="#000" stroke-width=".1"/><line id="simplify_76" x1="56.106" x2="56.106" y1="161.934" y2="164.435" stroke="#000" stroke-width=".1"/><line id="simplify_77" x1="56.106" x2="58.567" y1="161.934" y2="161.934" stroke="#000" stroke-width=".1"/></g></svg>