<svg xmlns="http://www.w3.org/2000/svg" width="297mm" height="210mm" viewBox="0 0 297 210"><g id="_tag_38_"><polygon id="simplify_2" fill="none" stroke="#000" stroke-width=".1" points="94.188 135.939 94.15 134.948 94.291 133.96 94.64 133.039 95.169 132.2 95.839 131.459 96.647 130.891 97.568 130.471 98.516 130.263 99.504 130.221 100.495 130.362 101.444 130.722 102.294 131.24 102.993 131.911 103.592 132.729 104.023 133.639 104.231 134.598 104.481 136.496 104.584 136.958 104.763 137.417 105.042 137.805 105.36 138.115 108.39 140.655 110.09 142.062 110.827 141.364 111.846 140.235 112.167 139.815 112.446 139.424 112.866 138.785 113.144 138.295 113.367 137.875 113.536 137.516 113.744 137.068 114.277 135.759 114.524 134.838 114.735 133.889 114.915 132.87 114.986 131.812 114.943 130.122 114.704 128.464 114.277 126.835 113.645 125.255 112.866 123.777 111.878 122.397 110.756 121.128 109.49 120.037 108.111 119.05 106.629 118.27 105.042 117.671 103.423 117.251 101.723 117.043 100.037 117.001 98.375 117.18 96.728 117.572 95.137 118.129 93.621 118.87 92.171 119.819 90.732 121.057 89.673 122.217 89.031 123.029 88.996 123.092 88.961 123.149 88.926 123.202 88.894 123.255 88.823 123.353 88.753 123.456 88.474 123.918 87.984 124.796 87.624 125.537 87.314 126.316 87.063 127.124 86.813 127.932 86.675 128.743 86.534 129.593 86.463 130.433 86.425 131.283 86.425 135.646 87.158 137.988 89.49 140.704 92.499 143.343 95.028 144.39 95.307 144.5"/><polygon id="simplify_3" fill="none" stroke="#000" stroke-width=".1" points="94.188 135.939 94.15 134.948 94.291 133.96 94.64 133.039 95.169 132.2 95.839 131.459 96.647 130.891 97.568 130.471 98.516 130.263 99.504 130.221 100.495 130.362 101.444 130.722 102.294 131.24 102.993 131.911 103.592 132.729 104.023 133.639 104.231 134.598 104.481 136.496 104.584 136.958 104.763 137.417 105.042 137.805 105.36 138.115 108.39 140.655 110.09 142.062 110.827 141.364 111.846 140.235 112.167 139.815 112.446 139.424 112.866 138.785 113.144 138.295 113.367 137.875 113.536 137.516 113.744 137.068 114.277 135.759 114.524 134.838 114.735 133.889 114.915 132.87 114.986 131.812 114.943 130.122 114.704 128.464 114.277 126.835 113.645 125.255 112.866 123.777 111.878 122.397 110.756 121.128 109.49 120.037 108.111 119.05 106.629 118.27 105.042 117.671 103.423 117.251 101.723 117.043 100.037 117.001 98.375 117.18 96.728 117.572 95.137 118.129 93.621 118.87 92.171 119.819 90.732 121.057 89.673 122.217 89.031 123.029 88.996 123.092 88.961 123.149 88.926 123.202 88.894 123.255 88.823 123.353 88.753 123.456 88.474 123.918 87.984 124.796 87.624 125.537 87.314 126.316 87.063 127.124 86.813 127.932 86.675 128.743 86.534 129.593 86.463 130.433 86.425 131.283 86.425 135.646 87.158 137.988 89.49 140.704 92.499 143.343 95.028 144.39 95.307 144.5"/><line id="simplify_4" x1="99.187" x2="99.187" y1="135.269" y2="132.729" stroke="#000" stroke-width=".1"/><line id="simplify_5" x1="99.187" x2="96.647" y1="135.269" y2="135.269" stroke="#000" stroke-width=".1"/><line id="simplify_6" x1="99.187" x2="99.187" y1="135.269" y2="137.805" stroke="#000" stroke-width=".1"/><line id="simplify_7" x1="99.187" x2="101.723" y1="135.269" y2="135.269" stroke="#000" stroke-width=".1"/><polygon id="simplify_8" fill="none" stroke="#000" stroke-width=".1" points="86.425 135.646 86.425 131.283 86.463 130.433 86.534 129.593 86.675 128.743 86.813 127.932 87.063 127.124 87.314 126.316 87.624 125.537 87.984 124.796 90.411 124.376 92.841 124.087 95.278 123.946 97.705 123.918 100.146 123.985 102.612 124.196 105.01 124.546 107.398 124.965 107.829 125.117 108.249 125.286 108.598 125.537 108.958 125.815 109.24 126.136 109.49 126.486 109.698 126.916 109.839 127.293 110.157 128.951 110.368 130.613 110.397 132.299 110.298 133.96 110.047 135.618 109.659 137.237 109.099 138.824 108.428 140.345 105.532 137.907 105.36 137.766 105.222 137.625 105.113 137.445 105.01 137.276 104.901 137.096 104.831 136.888 104.763 136.676 104.721 136.468 104.481 134.598 104.231 133.569 103.811 132.62 103.211 131.769 102.432 131.032 101.554 130.503 100.566 130.122 99.546 129.971 98.485 130.013 97.465 130.221 96.506 130.683 95.666 131.283 94.957 132.059 94.428 132.941 94.04 133.928 93.871 134.948 93.899 135.967 94.929 143.692 95.137 145.202 95.349 146.86 95.599 148.517 95.808 150.278 96.058 151.935 96.086 153.244 96.129 154.683 96.129 156.133 96.086 157.611 95.977 159.061 95.839 160.5 95.666 161.95 95.458 163.396 95.169 164.807 94.788 166.257 94.22 167.625 93.441 168.895 92.492 170.024 91.359 171.011 90.132 171.851 88.792 172.489 87.384 172.951 85.906 173.191 84.418 173.191 82.936 173.022 81.497 172.63 83.398 169.674 82.337 168.863 81.419 167.904 80.679 166.814 80.15 165.614 79.8 164.348 79.698 163.008 79.769 161.699 80.079 160.429 80.608 159.202 81.948 156.454 83.116 153.636 84.135 150.736 84.947 147.78 85.585 144.782 86.044 141.752 86.326 138.715"/><polygon id="simplify_9" fill="none" stroke="#000" stroke-width=".1" points="86.425 135.646 86.425 131.283 86.463 130.433 86.534 129.593 86.675 128.743 86.813 127.932 87.063 127.124 87.314 126.316 87.624 125.537 87.984 124.796 90.411 124.376 92.841 124.087 95.278 123.946 97.705 123.918 100.146 123.985 102.612 124.196 105.01 124.546 107.398 124.965 107.829 125.117 108.249 125.286 108.598 125.537 108.958 125.815 109.24 126.136 109.49 126.486 109.698 126.916 109.839 127.293 110.157 128.951 110.368 130.613 110.397 132.299 110.298 133.96 110.047 135.618 109.659 137.237 109.099 138.824 108.428 140.345 105.532 137.907 105.36 137.766 105.222 137.625 105.113 137.445 105.01 137.276 104.901 137.096 104.831 136.888 104.763 136.676 104.721 136.468 104.481 134.598 104.231 133.569 103.811 132.62 103.211 131.769 102.432 131.032 101.554 130.503 100.566 130.122 99.546 129.971 98.485 130.013 97.465 130.221 96.506 130.683 95.666 131.283 94.957 132.059 94.428 132.941 94.04 133.928 93.871 134.948 93.899 135.967 94.929 143.692 95.137 145.202 95.349 146.86 95.599 148.517 95.808 150.278 96.058 151.935 96.086 153.244 96.129 154.683 96.129 156.133 96.086 157.611 95.977 159.061 95.839 160.5 95.666 161.95 95.458 163.396 95.169 164.807 94.788 166.257 94.22 167.625 93.441 168.895 92.492 170.024 91.359 171.011 90.132 171.851 88.792 172.489 87.384 172.951 85.906 173.191 84.418 173.191 82.936 173.022 81.497 172.63 83.398 169.674 82.337 168.863 81.419 167.904 80.679 166.814 80.15 165.614 79.8 164.348 79.698 163.008 79.769 161.699 80.079 160.429 80.608 159.202 81.948 156.454 83.116 153.636 84.135 150.736 84.947 147.78 85.585 144.782 86.044 141.752 86.326 138.715"/><polygon id="simplify_10" fill="none" stroke="#000" stroke-width=".1" points="99.187 130.253 98.926 130.26 98.672 130.277 98.421 130.309 98.174 130.355 97.931 130.411 97.695 130.479 97.462 130.556 97.233 130.644 97.01 130.747 96.795 130.856 96.584 130.979 96.382 131.11 96.185 131.248 95.994 131.399 95.811 131.554 95.638 131.72 95.472 131.897 95.314 132.076 95.165 132.267 95.024 132.464 94.894 132.669 94.774 132.877 94.665 133.092 94.562 133.315 94.474 133.544 94.393 133.777 94.326 134.016 94.27 134.256 94.227 134.503 94.195 134.754 94.174 135.011 94.171 135.269 94.174 135.526 94.195 135.78 94.227 136.031 94.27 136.278 94.326 136.521 94.393 136.761 94.474 136.994 94.562 137.219 94.665 137.441 94.774 137.66 94.894 137.868 95.024 138.073 95.165 138.27 95.314 138.457 95.472 138.641 95.638 138.814 95.811 138.983 95.994 139.138 96.185 139.286 96.382 139.427 96.584 139.558 96.795 139.678 97.01 139.791 97.233 139.89 97.462 139.981 97.695 140.059 97.931 140.126 98.174 140.182 98.421 140.228 98.672 140.26 98.926 140.278 99.187 140.285 99.444 140.278 99.698 140.26 99.949 140.228 100.196 140.182 100.439 140.126 100.675 140.059 100.912 139.981 101.137 139.89 101.36 139.791 101.575 139.678 101.786 139.558 101.991 139.427 102.185 139.286 102.375 139.138 102.559 138.983 102.732 138.814 102.897 138.641 103.056 138.457 103.204 138.27 103.346 138.073 103.476 137.868 103.596 137.66 103.709 137.441 103.808 137.219 103.899 136.994 103.977 136.761 104.044 136.521 104.1 136.278 104.143 136.031 104.178 135.78 104.196 135.526 104.203 135.269 104.196 135.011 104.178 134.754 104.143 134.503 104.1 134.256 104.044 134.016 103.977 133.777 103.899 133.544 103.808 133.315 103.709 133.092 103.596 132.877 103.476 132.669 103.346 132.464 103.204 132.267 103.056 132.076 102.897 131.897 102.732 131.72 102.559 131.554 102.375 131.399 102.185 131.248 101.991 131.11 101.786 130.979 101.575 130.856 101.36 130.747 101.137 130.644 100.912 130.556 100.675 130.479 100.439 130.411 100.196 130.355 99.949 130.309 99.698 130.277 99.444 130.26"/><line id="simplify_11" x1="99.187" x2="99.187" y1="135.269" y2="132.729" stroke="#000" stroke-width=".1"/><line id="simplify_12" x1="99.187" x2="96.647" y1="135.269" y2="135.269" stroke="#000" stroke-width=".1"/><line id="simplify_13" x1="99.187" x2="99.187" y1="135.269" y2="137.805" stroke="#000" stroke-width=".1"/><line id="simplify_14" x1="99.187" x2="101.723" y1="135.269" y2="135.269" stroke="#000" stroke-width=".1"/><line id="simplify_15" x1="99.187" x2="99.187" y1="135.269" y2="132.729" stroke="#000" stroke-width=".1"/><line id="simplify_16" x1="99.187" x2="96.647" y1="135.269" y2="135.269" stroke="#000" stroke-width=".1"/><line id="simplify_17" x1="99.187" x2="99.187" y1="135.269" y2="137.805" stroke="#000" stroke-width=".1"/><line id="simplify_18" x1="99.187" x2="101.723" y1="135.269" y2="135.269" stroke="#000" stroke-width=".1"/><line id="simplify_19" x1="99.187" x2="99.187" y1="135.269" y2="132.729" stroke="#000" stroke-width=".1"/><line id="simplify_20" x1="99.187" x2="96.647" y1="135.269" y2="135.269" stroke="#000" stroke-width=".1"/><line id="simplify_21" x1="99.187" x2="99.187" y1="135.269" y2="137.805" stroke="#000" stroke-width=".1"/><polyline id="simplify_SVG__000022" fill="none" stroke="#000" stroke-width=".1" points="96.086 153.244 95.458 152.186 94.929 151.025 94.538 149.858 94.329 148.627 94.259 147.36 94.329 146.119 94.569 144.891 94.929 143.692"/><polygon id="simplify_28" fill="none" stroke="#000" stroke-width=".1" points="92.672 162.937 92.559 161.918 92.28 160.958 91.79 160.08 91.12 159.311 90.301 158.673 89.423 158.253 88.442 158.003 87.412 157.932 86.425 158.112 85.476 158.461 84.636 158.99 83.885 159.66 83.328 160.5 82.908 161.421 82.728 162.408 82.728 163.428 82.908 164.415 83.328 165.336 83.885 166.175 84.636 166.884 85.476 167.414 86.425 167.763 87.412 167.904 88.442 167.875 89.423 167.625 90.301 167.163 91.12 166.535 91.79 165.794 92.28 164.905 92.559 163.928"/><line id="simplify_24" x1="87.663" x2="87.663" y1="162.937" y2="160.401" stroke="#000" stroke-width=".1"/><line id="simplify_25" x1="87.663" x2="85.127" y1="162.937" y2="162.937" stroke="#000" stroke-width=".1"/><line id="simplify_26" x1="87.663" x2="87.663" y1="162.937" y2="165.477" stroke="#000" stroke-width=".1"/><line id="simplify_27" x1="87.663" x2="90.203" y1="162.937" y2="162.937" stroke="#000" stroke-width=".1"/><polygon id="simplify_29" fill="none" stroke="#000" stroke-width=".1" points="93.299 128.073 93.201 127.505 92.919 127.015 92.492 126.665 91.931 126.454 91.359 126.454 90.83 126.665 90.382 127.015 90.093 127.505 89.991 128.073 90.093 128.634 90.382 129.163 90.83 129.523 91.359 129.731 91.931 129.731 92.492 129.523 92.919 129.163 93.201 128.634"/><polygon id="simplify_30" fill="none" stroke="#000" stroke-width=".1" points="108.39 128.073 108.291 127.505 107.998 127.015 107.578 126.665 107.021 126.454 106.45 126.454 105.92 126.665 105.501 127.015 105.183 127.505 105.113 128.073 105.183 128.634 105.501 129.163 105.92 129.523 106.45 129.731 107.021 129.731 107.578 129.523 107.998 129.163 108.291 128.634"/><polyline id="simplify_SVG__000030" fill="none" stroke="#000" stroke-width=".1" points="113.257 138.115 113.144 138.017 112.795 137.738 112.266 137.276 112.407 136.958 112.658 136.468 112.905 135.826 113.144 135.05 113.395 134.21 113.575 133.258 113.645 132.761 113.677 132.232 113.716 131.699 113.716 131.142 113.607 129.484 113.257 127.865 112.725 126.316 112.026 124.824 111.106 123.456 110.019 122.189 108.82 121.089 107.441 120.14 105.991 119.399 104.443 118.799 102.823 118.45 101.204 118.27 99.546 118.309 97.917 118.591 96.337 119.05 94.82 119.678 93.021 120.778 92.252 121.378 91.571 122.009 90.622 123.068 90.061 123.805 89.924 124.055 88.862 123.346"/><polyline id="simplify_SVG__000031" fill="none" stroke="#000" stroke-width=".1" points="89.952 124.337 89.952 124.225 89.924 124.087 89.924 124.055"/><polyline id="simplify_SVG__000032" fill="none" stroke="#000" stroke-width=".1" points="110.968 137.516 111.208 137.445 111.458 137.417 111.667 137.378 111.846 137.346 112.058 137.308 112.196 137.276 112.266 137.276"/><polyline id="simplify_SVG__000033" fill="none" stroke="#000" stroke-width=".1" points="87.984 124.796 88.083 124.655 88.333 124.584 88.792 124.517 89.462 124.404 91.053 124.158 93.091 123.946 95.169 123.805 97.218 123.777 99.296 123.805 101.346 123.946 103.384 124.158 105.43 124.475 107.441 124.867 107.899 125.004 108.291 125.184 108.668 125.424 109.028 125.717 109.338 126.066 109.589 126.454 109.797 126.835 109.938 127.293 110.298 128.951 110.467 130.683 110.506 132.411 110.397 134.098 110.118 135.826 109.698 137.487 109.13 139.106 108.39 140.655"/><center id="center_00" cx="99.187" cy="135.269"/></g></svg>
