<svg xmlns="http://www.w3.org/2000/svg" width="297mm" height="210mm" viewBox="0 0 297 210"><g id="_tag_17_"><g id="_tag_18_"><polygon id="_263971600" fill="none" stroke="#000" stroke-width=".1" points="134.522 107.274 184.611 107.274 184.611 110.198 134.522 110.198"/><polygon id="_263970832_1" fill="none" stroke="#000" stroke-width=".1" points="133.011 112.578 132.629 112.499 132.273 112.274 131.951 111.916 131.67 111.443 131.439 110.87 131.264 110.212 131.153 109.485 131.115 108.704 131.115 108.704 131.153 107.923 131.264 107.196 131.439 106.538 131.67 105.965 131.951 105.491 132.273 105.134 132.629 104.909 133.011 104.83 134.095 104.83 134.193 104.83 134.259 104.837 134.321 104.856 134.377 104.886 134.426 104.926 134.466 104.975 134.496 105.031 134.515 105.092 134.522 105.159 134.522 112.249 134.515 112.315 134.496 112.377 134.466 112.433 134.426 112.481 134.377 112.522 134.321 112.552 134.259 112.571 134.193 112.578 134.095 112.578 134.087 112.578 133.011 112.578" class="fil0 str0"/><g id="_tag_19_"><polygon id="_263970856" fill="none" stroke="#000" stroke-width=".1" points="164.785 101.681 164.785 115.751 162.748 115.751 157.489 111.074 157.489 106.397 162.748 101.681"/><line id="_263971144" x1="162.748" x2="162.748" y1="101.681" y2="115.751" stroke="#000" stroke-width=".1"/></g><g id="_tag_20_"><polygon id="_263971432_1" fill="none" stroke="#000" stroke-width=".1" points="191.908 101.722 192.035 101.865 192.153 102.275 192.26 102.924 192.353 103.783 192.43 104.824 192.488 106.019 192.525 107.34 192.537 108.757 192.537 108.757 192.525 110.175 192.488 111.495 192.43 112.69 192.353 113.732 192.26 114.591 192.153 115.24 192.035 115.65 191.908 115.793 189.871 115.793 184.612 111.116 184.612 106.439 189.871 101.722 191.908 101.722" class="fil0 str0"/><g id="_263970976_1"><polyline id="_263970976___0" fill="none" stroke="#000" stroke-width=".1" points="189.87 101.722 189.87 115.793" class="fil1 str0"/><polyline id="_263970976___1" fill="none" stroke="#000" stroke-width=".1" points="191.907 115.793 191.907 101.722" class="fil1 str0"/></g></g></g><polygon id="simplify_4_1" fill="none" stroke="#000" stroke-width=".1" points="107.642 120.715 106.992 120.596 106.391 120.361 105.85 120.024 105.382 119.595 104.997 119.087 104.708 118.512 104.526 117.882 104.462 117.209 104.462 117.209 104.533 116.5 104.737 115.839 105.059 115.241 105.485 114.72 106.002 114.29 106.595 113.966 107.25 113.761 107.954 113.689 107.954 113.689 112.093 113.689 116.214 113.689 120.323 113.689 124.426 113.689 128.527 113.689 132.634 113.689 136.752 113.689 140.886 113.689 140.886 113.689 141.894 113.588 142.832 113.296 143.682 112.835 144.422 112.224 145.032 111.484 145.493 110.635 145.785 109.697 145.886 108.689 145.886 108.689 145.785 107.682 145.493 106.743 145.032 105.894 144.422 105.154 143.682 104.543 142.832 104.082 141.894 103.791 140.886 103.689 140.886 103.689 136.752 103.689 132.634 103.689 128.527 103.689 124.426 103.689 120.323 103.689 116.214 103.689 112.093 103.689 107.954 103.689 107.954 103.689 107.25 103.618 106.595 103.412 106.002 103.088 105.485 102.658 105.059 102.137 104.737 101.539 104.533 100.879 104.462 100.169 104.462 100.169 104.526 99.496 104.708 98.866 104.997 98.291 105.382 97.783 105.85 97.354 106.391 97.017 106.992 96.782 107.642 96.663 118.537 95.971 123.094 95.452 127.456 94.785 131.398 93.798 134.833 92.563 138.763 90.914 141.966 89.266 144.967 87.339 147.945 85.022 153.746 79.676 153.762 79.662 153.777 79.647 153.793 79.633 153.808 79.618 153.824 79.604 153.84 79.59 153.855 79.575 153.871 79.561 153.885 79.548 153.886 79.548 154.318 79.195 154.782 78.881 155.273 78.609 155.79 78.38 156.331 78.198 156.892 78.064 157.471 77.982 158.066 77.955 158.066 77.955 159.332 78.082 160.511 78.448 161.578 79.028 162.508 79.795 163.275 80.725 163.854 81.792 164.22 82.971 164.348 84.237 164.348 84.237 164.329 84.727 164.273 85.207 164.182 85.676 164.057 86.131 163.899 86.572 163.71 86.997 163.491 87.404 163.244 87.793 163.263 87.837 157.337 96.282 156.685 97.393 156.122 98.608 155.782 100.311 155.796 102.119 156.226 103.674 156.908 105.689 157.177 106.48 157.334 107.432 157.456 108.921 157.426 110.245 157.278 112.208 157.352 113.541 157.678 114.8 157.945 115.548 158.589 116.659 159.352 117.615 160.263 118.452 161.085 118.978 161.996 119.422 163.085 119.763 163.399 119.869 164.373 120.194 165.266 120.67 166.064 121.281 166.752 122.012 167.313 122.848 167.733 123.774 167.996 124.774 168.087 125.833 168.087 125.833 167.962 127.07 167.605 128.221 167.039 129.264 166.289 130.172 165.381 130.921 164.339 131.487 163.187 131.845 161.951 131.969 154.937 132.015 153.945 131.867 153.013 131.545 152.122 131.126 144.745 127.422 140.758 125.847 136.493 124.459 132.339 123.222 127.937 122.43 123.683 121.874 119.196 121.393 107.642 120.715" class="fil2 str1"/><polyline id="simplify_SVG__000004" fill="none" stroke="#000" stroke-width=".1" points="151.272 110.459 150.263 106.933 149.255 110.459"/><polyline id="simplify_SVG__000005" fill="none" stroke="#000" stroke-width=".1" points="154.715 106.933 154.715 110.459 156.685 110.459"/><polyline id="simplify_7_1" fill="none" stroke="#000" stroke-width=".1" points="151.974 106.904 151.974 109.415 151.974 109.415 151.995 109.619 152.054 109.809 152.148 109.981 152.272 110.132 152.422 110.256 152.595 110.35 152.785 110.409 152.989 110.43 152.989 110.43 153.193 110.409 153.383 110.35 153.555 110.256 153.706 110.132 153.83 109.981 153.924 109.809 153.983 109.619 154.004 109.415 154.004 109.415 154.004 106.904" class="fil1 str1"/><g id="simplify_8_1"><polyline id="simplify_8___0" fill="none" stroke="#000" stroke-width=".1" points="157.263 112.267 154.135 112.267 153.322 112.341 152.389 112.534 151.434 112.87 150.596 113.319 150.048 113.689 149.211 114.511 148.504 115.293 147.944 115.867 147.085 116.637 145.856 117.452 144.833 117.941 143.856 118.282 142.746 118.556 142.109 118.679 141.263 118.756 136.769 118.756 132.223 118.756 127.64 118.756 123.04 118.756 118.441 118.756 113.858 118.756 109.312 118.756 104.818 118.756" class="fil1 str1"/><polyline id="simplify_8___1" fill="none" stroke="#000" stroke-width=".1" points="156.717 105.126 154.15 105.126 153.337 105.052 152.404 104.859 151.449 104.523 150.611 104.074 150.063 103.704 149.226 102.882 148.519 102.1 147.959 101.526 147.1 100.756 145.87 99.941 144.848 99.452 143.87 99.111 142.761 98.837 142.124 98.714 141.278 98.637 136.744 98.637 132.19 98.637 127.622 98.637 123.048 98.637 118.473 98.637 113.904 98.637 109.346 98.637 104.807 98.637" class="fil1 str1"/></g><line id="simplify_9" x1="146.641" x2="146.641" y1="110.459" y2="106.933" stroke="#000" stroke-width=".1"/><polygon id="simplify_10_1" fill="none" stroke="#000" stroke-width=".1" points="146.641 106.933 147.659 106.933 147.659 106.933 147.835 106.951 147.999 107.002 148.148 107.083 148.278 107.19 148.385 107.32 148.466 107.469 148.517 107.633 148.535 107.809 148.535 107.81 148.517 107.986 148.466 108.15 148.385 108.299 148.278 108.429 148.148 108.536 147.999 108.617 147.835 108.668 147.659 108.686 147.659 108.686 146.641 108.686 146.641 106.933" class="fil1 str1"/><line id="simplify_11" x1="149.695" x2="150.83" y1="108.915" y2="108.915" stroke="#000" stroke-width=".1"/><polygon id="simplify_12" cx="126.035" cy="108.696" fill="none" stroke="#000" stroke-width=".1" points="131.035 108.696 131.008 109.219 130.926 109.736 130.79 110.241 130.603 110.73 130.365 111.196 130.08 111.635 129.751 112.042 129.381 112.412 128.974 112.741 128.535 113.026 128.069 113.264 127.58 113.451 127.075 113.587 126.558 113.669 126.035 113.696 125.512 113.669 124.995 113.587 124.49 113.451 124.001 113.264 123.535 113.026 123.096 112.741 122.689 112.412 122.319 112.042 121.99 111.635 121.705 111.196 121.467 110.73 121.28 110.241 121.144 109.736 121.062 109.219 121.035 108.696 121.062 108.173 121.144 107.656 121.28 107.151 121.467 106.662 121.705 106.196 121.99 105.757 122.319 105.35 122.689 104.98 123.096 104.651 123.535 104.366 124.001 104.128 124.49 103.941 124.995 103.805 125.512 103.723 126.035 103.696 126.558 103.723 127.075 103.805 127.58 103.941 128.069 104.128 128.535 104.366 128.974 104.651 129.381 104.98 129.751 105.35 130.08 105.757 130.365 106.196 130.603 106.662 130.79 107.151 130.926 107.656 131.008 108.173"/><g id="simplify_13_1"><polyline id="simplify_13___0" fill="none" stroke="#000" stroke-width=".1" points="116.628 108.696 135.443 108.696" class="fil1 str0"/><polyline id="simplify_13___1" fill="none" stroke="#000" stroke-width=".1" points="126.036 99.288 126.036 118.104" class="fil1 str0"/></g><center id="center_00" cx="126.036" cy="108.696" r="5"/></g></svg>
