<svg xmlns="http://www.w3.org/2000/svg" version="1.0"><polygon fill="none" stroke="#000" stroke-width=".1" points="58.556 171.993 59.04 170.453 59.627 169.166 60.311 168.092 61.084 167.187 61.939 166.412 62.869 165.724 63.865 165.081 64.92 164.442 64.92 164.442 65.735 163.98 66.726 163.436 67.851 162.781 69.068 161.984 70.337 161.018 71.615 159.851 72.861 158.456 74.035 156.803 74.035 156.803 75.048 155.093 75.916 153.457 76.679 151.868 77.382 150.297 78.066 148.717 78.774 147.1 79.549 145.418 80.434 143.644 81.018 143.515 82.613 144.181 84.588 139.053 84.875 138.51 85.289 138.023 85.81 137.608 86.418 137.283 87.095 137.064 87.821 136.969 88.576 137.015 89.342 137.219 89.342 137.219 90.27 137.676 90.967 138.231 91.461 138.851 91.779 139.504 91.947 140.158 91.991 140.782 91.94 141.343 91.819 141.809 89.974 146.941 91.343 147.64 91.537 147.756 91.709 147.894 91.856 148.052 91.975 148.228 92.061 148.418 92.113 148.62 92.126 148.831 92.098 149.049 92.098 149.049 91.756 151.394 91.799 153.782 92.237 156.162 93.082 158.483 94.343 160.692 96.031 162.738 98.157 164.569 100.732 166.133 100.732 166.133 102.291 166.771 104.036 167.246 105.914 167.586 107.871 167.819 109.853 167.974 111.804 168.078 113.672 168.161 115.402 168.249 115.402 168.249 115.503 168.258 115.613 168.274 115.727 168.298 115.84 168.334 115.946 168.382 116.041 168.446 116.12 168.527 116.178 168.627 116.178 171.84 123.793 171.951 125.073 172.842 124.815 180.055 124.027 181.033 116.178 180.838 116.178 183.954 116.178 184.662 116.095 184.667 116.012 184.672 115.93 184.678 115.848 184.683 115.766 184.689 115.685 184.694 115.604 184.7 115.523 184.705 115.523 184.705 110.985 185.13 107.4 185.689 104.573 186.363 102.31 187.134 100.416 187.986 98.694 188.899 96.951 189.855 94.991 190.836 94.991 190.836 89.565 192.761 83.999 193.68 78.486 193.664 73.221 192.782 68.401 191.104 64.218 188.7 60.868 185.64 58.546 181.993 85.511 181.993 85.511 181.993 86.519 181.891 87.457 181.6 88.306 181.139 89.046 180.528 89.657 179.788 90.118 178.939 90.41 178.001 90.511 176.993 90.511 176.993 90.41 175.985 90.118 175.047 89.657 174.198 89.046 173.458 88.306 172.847 87.457 172.386 86.519 172.095 85.511 171.993 85.502 171.993 58.556 171.993"/><polygon fill="none" stroke="#000" stroke-width=".1" points="58.539 182.001 59.363 183.657 60.404 185.164 61.64 186.5 63.049 187.642 64.611 188.569 66.303 189.258 68.103 189.688 69.991 189.836 88.061 189.836 90.56 189.575 92.891 188.827 95.004 187.643 96.847 186.078 98.369 184.182 99.519 182.01 100.247 179.612 100.501 177.042 100.501 177.042 100.247 174.471 99.519 172.074 98.369 169.901 96.847 168.005 95.004 166.44 92.891 165.257 90.56 164.508 88.061 164.247 69.991 164.247 68.103 164.393 66.304 164.818 64.613 165.499 63.054 166.414 61.647 167.543 60.414 168.864 59.376 170.354 58.556 171.993 87.845 171.993 88.853 172.094 89.791 172.385 90.64 172.847 91.38 173.457 91.991 174.197 92.452 175.046 92.744 175.985 92.845 176.993 92.845 176.993 92.744 178 92.452 178.939 91.991 179.788 91.38 180.528 90.64 181.138 89.791 181.6 88.853 181.891 87.845 181.993 58.54 182.001"/><circle cx="74.407" cy="176.993" r="5" fill="none" stroke="#000" stroke-width=".1"/><line x1="74.407" x2="74.407" y1="168.941" y2="185.045" fill="none" stroke="#000" stroke-width=".1"/><circle cx="69.406" cy="167.522" r="1.789" fill="none" stroke="#000" stroke-width=".1"/><circle cx="89.323" cy="186.077" r="1.789" fill="none" stroke="#000" stroke-width=".1"/><circle cx="89.323" cy="167.522" r="1.789" fill="none" stroke="#000" stroke-width=".1"/><circle cx="69.406" cy="186.077" r="1.789" fill="none" stroke="#000" stroke-width=".1"/><line x1="56.203" x2="96.559" y1="176.993" y2="176.993" fill="none" stroke="#000" stroke-width=".1"/><circle id="center_00" cx="74.407" cy="176.993" r="5" fill="none" stroke="#000" stroke-width=".1"/></svg>