<svg xmlns="http://www.w3.org/2000/svg" width="210mm" height="297mm" version="1.0" viewBox="0 0 210 297" xml:space="preserve" style="shape-rendering:geometricPrecision;text-rendering:geometricPrecision;image-rendering:optimizeQuality;fill-rule:evenodd;clip-rule:evenodd"><defs><style type="text/css">.str0{stroke:#000;stroke-width:.0265}.str1{stroke:#1f1a17;stroke-width:.0762}.fil3{fill:none}.fil2{fill:#4d4948}.fil0{fill:#969594}.fil1{fill:#dededd}</style></defs><g id="Ebene_x0020_1"><metadata id="CorelCorpID_0Corel-Layer"/><polygon points="146.56 163.212 144.379 176.026 134.567 174.286 121.472 174.187 92.727 180.39 67.909 179.126 60.785 176.403 90.379 176.403 91.833 176.306 93.242 176.023 94.593 175.562 95.867 174.933 97.049 174.144 98.124 173.205 99.074 172.126 99.852 170.964 100.528 169.608 100.988 168.244 101.263 166.845 101.355 165.426 101.263 164.008 100.988 162.608 100.528 161.246 99.885 159.938 99.074 158.727 98.124 157.647 97.049 156.709 95.867 155.92 94.593 155.291 93.187 154.818 91.833 154.546 90.379 154.45 60.205 154.45 67.077 151.423 73.656 147.876 79.914 143.833 85.824 139.314 91.359 134.344 96.492 128.943 101.195 123.135 105.442 116.942 110.898 104.194 120.99 108.513 116.082 119.981 114.047 126.507 113.779 131.214 114.318 135.856 115.754 140.576 117.805 144.983 120.42 149.03 123.552 152.664 127.15 155.838 131.165 158.5 135.549 160.602 140.251 162.093" class="fil0 str0"/><polygon points="90.379 170.416 91.04 170.372 91.68 170.243 92.294 170.034 92.873 169.747 93.411 169.389 93.899 168.962 94.331 168.471 94.699 167.921 94.699 167.921 94.992 167.327 95.201 166.708 95.326 166.071 95.368 165.426 95.326 164.782 95.201 164.146 94.992 163.526 94.699 162.932 94.699 162.932 94.331 162.381 93.899 161.891 93.411 161.464 92.873 161.105 92.294 160.819 91.68 160.61 91.04 160.481 90.379 160.437 60.442 160.437 54.455 154.45 54.455 154.45 90.379 154.45 91.833 154.546 93.242 154.829 94.593 155.291 95.867 155.92 97.049 156.709 98.124 157.647 99.074 158.727 99.885 159.938 99.885 159.938 100.528 161.246 100.988 162.608 101.263 164.008 101.355 165.426 101.263 166.845 100.988 168.244 100.528 169.608 99.885 170.915 99.885 170.915 99.074 172.126 98.124 173.205 97.049 174.144 95.867 174.933 94.593 175.562 93.242 176.023 91.833 176.306 90.379 176.403 54.455 176.403 60.442 170.416 90.379 170.416" class="fil1 str0"/><polygon points="101.356 170.915 105.846 170.915 105.846 159.938 101.356 159.938" class="fil1 str0"/><polygon points="115.956 154.596 115.903 154.525 114.178 152.228 112.569 149.754 111.134 147.182 109.878 144.523 108.803 141.785 107.915 138.978 107.216 136.11 106.711 133.192 106.651 132.909 106.552 132.641 106.417 132.392 106.249 132.166 106.051 131.965 105.826 131.795 105.576 131.656 105.305 131.553 105.305 131.553 105.021 131.491 104.736 131.47 104.454 131.489 104.179 131.549 103.914 131.646 103.665 131.78 103.435 131.95 103.229 132.154 101.348 134.257 99.412 136.309 97.422 138.307 95.382 140.252 93.29 142.142 91.148 143.976 88.958 145.754 86.721 147.473 86.481 147.683 86.283 147.924 86.125 148.19 86.011 148.475 85.942 148.774 85.92 149.082 85.946 149.393 86.022 149.702 86.022 149.702 86.145 149.994 86.311 150.259 86.513 150.492 86.748 150.69 87.01 150.85 87.295 150.969 87.598 151.042 87.915 151.068 88.509 151.068 90.631 151.068 91.779 151.094 93.024 151.167 94.332 151.283 95.669 151.436 97.003 151.621 98.299 151.831 99.525 152.061 100.648 152.307 100.648 152.307 101.729 152.588 102.677 152.881 103.516 153.187 104.279 153.507 104.992 153.844 105.685 154.196 106.386 154.565 107.124 154.953 107.561 155.178 108.036 155.424 108.568 155.706 109.176 156.04 109.878 156.44 110.694 156.923 111.64 157.502 112.737 158.194 113.135 158.389 113.551 158.506 113.976 158.549 114.398 158.518 114.809 158.415 115.199 158.241 115.557 157.999 115.874 157.689 115.874 157.689 116.131 157.328 116.315 156.937 116.426 156.525 116.464 156.103 116.43 155.681 116.322 155.268 116.142 154.875" class="fil2 str0"/><polyline points="109.973 149.938 109.783 149.426 109.521 148.957 109.196 148.537 108.814 148.17 108.383 147.864 107.908 147.624 107.398 147.456 106.86 147.364 106.86 147.364 106.313 147.356 105.781 147.428 105.271 147.578 104.791 147.8 104.349 148.09 103.952 148.445 103.609 148.858 103.328 149.326 103.328 149.326 103.121 149.832 102.995 150.354 102.948 150.884 102.98 151.412 103.09 151.929 103.275 152.427 103.535 152.897 103.868 153.33 102.677 152.881 101.729 152.588 100.648 152.307 99.525 152.061 98.299 151.831 97.003 151.621 95.364 151.401 96.017 151.209 96.524 151.004 96.985 150.729 97.396 150.391 97.751 149.999 98.044 149.559 98.27 149.078 98.424 148.563 98.5 148.022 98.5 148.022 98.492 147.476 98.404 146.946 98.24 146.44 98.004 145.967 97.701 145.533 97.336 145.148 96.913 144.817 96.436 144.549 96.436 144.549 95.925 144.357 95.399 144.246 94.868 144.215 94.342 144.262 93.827 144.386 93.335 144.586 92.873 144.859 92.45 145.206 92.479 144.431 92.651 143.695 92.952 143.015 93.369 142.406 93.89 141.883 94.503 141.462 95.193 141.157 95.95 140.984 95.95 140.984 96.725 140.958 97.472 141.076 98.171 141.328 98.808 141.701 99.367 142.183 99.832 142.764 100.185 143.431 100.412 144.173 100.658 142.722 102.348 138.011 104.746 133.035 105.519 131.622 105.475 133.232 105.042 138.739 104.131 143.66 103.613 145.037 104.183 144.51 104.824 144.112 105.518 143.844 106.244 143.708 106.982 143.707 107.713 143.842 108.417 144.115 109.075 144.527 109.075 144.527 109.641 145.058 110.085 145.669 110.402 146.342 110.589 147.056 110.643 147.792 110.56 148.531 110.338 149.253 109.973 149.938" class="fil1 str0"/><path d="M96.0175 151.209l-0.6536 0.1916m0.6536 -0.1916z" class="fil3 str0"/><path d="M93.877 165.426l13.7108 0m-13.7108 0z" class="fil3 str0"/><circle cx="79.591" cy="165.426" r="4.989" class="fil3 str1"/><path d="M79.5907 175.847l0 -20.8421m0 20.8421z" class="fil3 str0"/><path d="M90.0118 165.426l-20.8421 0m20.8421 0z" class="fil3 str0"/><circle id="center_00" cx="79.591" cy="165.426" r="2.5" class="fil0 str1"/></g></svg>