<svg xmlns="http://www.w3.org/2000/svg" width="210mm" height="297mm" viewBox="0 0 210 297" xml:space="preserve" style="shape-rendering:geometricPrecision;text-rendering:geometricPrecision;image-rendering:optimizeQuality;fill-rule:evenodd;clip-rule:evenodd"><defs><style type="text/css">.str0{stroke:#1f1a17;stroke-width:.0762}.str1{stroke:#963;stroke-width:.0776}.str2,.str3{stroke-width:.1764}.str3{stroke:#28166f}.str2{stroke:#da251d}.fil1{fill:none}.fil0{fill:#aaa9a9}</style></defs><g id="Ebene_x0020_1"><metadata id="CorelCorpID_0Corel-Layer"/><polygon points="51.34 49.062 51.093 49.451 50.65 50.131 50.189 50.812 49.718 51.492 49.234 52.164 48.741 52.84 48.234 53.511 47.713 54.178 47.184 54.84 46.645 55.498 46.092 56.151 45.53 56.799 44.959 57.439 44.379 58.074 43.79 58.704 43.192 59.325 42.589 59.937 41.972 60.544 41.347 61.143 40.716 61.727 40.082 62.307 39.438 62.874 38.785 63.431 38.127 63.979 37.46 64.513 36.793 65.034 36.117 65.546 35.437 66.043 34.752 66.528 34.062 66.998 33.368 67.45 32.673 67.893 31.97 68.318 31.614 68.537 31.262 68.77 30.924 69.012 30.591 69.263 30.271 69.528 29.956 69.802 29.654 70.09 29.358 70.382 29.075 70.684 28.8 70.999 28.536 71.319 28.284 71.647 28.042 71.985 27.809 72.328 27.586 72.68 27.375 73.036 27.179 73.401 26.992 73.771 26.814 74.15 26.649 74.534 26.499 74.922 26.357 75.315 26.234 75.712 26.119 76.11 26.015 76.516 25.928 76.927 25.85 77.338 25.791 77.754 25.74 78.169 25.704 78.59 25.686 79.01 25.677 79.434 25.681 79.74 25.695 80.056 25.718 80.375 25.745 80.695 25.782 81.01 25.827 81.325 25.877 81.627 25.932 81.919 27.718 90.871 27.741 90.981 27.759 91.099 27.777 91.218 27.791 91.341 27.8 91.465 27.809 91.588 27.814 91.707 27.819 91.826 27.814 92.004 27.805 92.182 27.787 92.355 27.768 92.529 27.736 92.702 27.704 92.876 27.663 93.045 27.618 93.209 27.563 93.378 27.508 93.543 27.444 93.703 27.375 93.862 27.302 94.022 27.22 94.173 27.138 94.324 27.047 94.475 26.955 94.621 26.855 94.762 26.75 94.899 26.64 95.036 26.531 95.164 26.412 95.292 26.288 95.415 26.161 95.534 26.033 95.648 25.896 95.758 25.759 95.868 25.613 95.968 25.466 96.059 25.316 96.151 25.165 96.237 24.905 96.374 24.653 96.516 24.402 96.667 24.16 96.827 23.927 96.996 23.699 97.169 23.48 97.352 23.265 97.544 23.059 97.74 22.858 97.946 22.667 98.156 22.484 98.375 22.306 98.599 22.141 98.832 21.982 99.064 21.831 99.307 21.689 99.553 21.552 99.804 21.429 100.06 21.315 100.321 21.205 100.59 21.109 100.855 21.023 101.129 20.945 101.408 20.876 101.686 20.817 101.969 20.771 102.257 20.735 102.545 20.707 102.837 20.689 103.129 20.684 103.422 20.689 103.641 20.698 103.86 20.716 104.079 20.739 104.299 20.767 104.518 20.803 104.737 20.844 104.952 20.895 105.166 20.945 105.381 21.009 105.596 21.073 105.806 21.146 106.016 21.219 106.226 21.306 106.432 21.392 106.632 21.484 106.833 21.584 107.034 21.685 107.231 21.794 107.423 21.909 107.614 22.027 107.802 22.151 107.984 22.279 108.167 22.411 108.345 22.548 108.519 22.689 108.688 22.831 108.852 22.982 109.012 23.137 109.172 23.292 109.322 23.457 109.469 23.621 109.615 21.091 112.707 21.31 112.775 21.534 112.835 21.758 112.89 21.986 112.944 22.215 112.995 22.447 113.036 22.68 113.077 22.913 113.113 23.146 113.145 23.384 113.173 23.621 113.2 23.859 113.218 24.096 113.232 24.334 113.246 24.571 113.25 24.813 113.255 25.169 113.25 25.526 113.232 25.877 113.209 26.234 113.173 26.585 113.127 26.933 113.077 27.284 113.013 27.631 112.94 27.974 112.858 28.316 112.766 28.654 112.666 28.988 112.556 29.321 112.437 29.65 112.31 29.979 112.173 30.299 112.031 30.618 111.876 30.929 111.716 31.239 111.547 31.545 111.369 31.847 111.181 32.139 110.99 32.427 110.789 32.715 110.578 32.989 110.359 33.263 110.136 33.528 109.903 33.788 109.665 34.044 109.418 34.29 109.163 34.528 108.902 34.761 108.633 34.911 108.446 35.021 108.309 35.121 108.167 35.222 108.03 35.322 107.884 35.418 107.738 35.51 107.592 35.596 107.441 35.683 107.29 35.761 107.135 35.843 106.98 35.916 106.824 35.989 106.664 36.058 106.5 36.122 106.34 36.186 106.176 36.245 106.011 36.3 105.842 36.35 105.673 36.396 105.504 36.441 105.335 36.483 105.166 36.519 104.993 36.551 104.819 36.578 104.646 36.606 104.472 36.629 104.299 36.647 104.125 36.661 103.952 36.67 103.773 36.674 103.6 36.679 103.422 36.547 94.415 33.381 78.74 33.445 78.503 33.509 78.275 33.582 78.046 33.665 77.827 33.756 77.612 33.856 77.402 33.966 77.197 34.085 76.996 34.213 76.799 34.345 76.612 34.487 76.429 34.637 76.251 34.793 76.082 34.957 75.918 35.126 75.763 35.3 75.612 35.482 75.47 35.67 75.338 35.866 75.21 36.062 75.091 36.268 74.981 36.478 74.881 36.688 74.79 36.907 74.703 37.127 74.63 37.35 74.561 37.579 74.507 37.812 74.461 38.045 74.424 38.282 74.397 38.52 74.383 38.757 74.374 38.931 74.379 39.1 74.388 39.269 74.401 39.438 74.42 39.607 74.443 39.771 74.47 39.935 74.507 40.1 74.543 40.26 74.589 40.419 74.634 40.579 74.689 40.735 74.749 40.89 74.813 41.041 74.876 41.191 74.95 41.342 75.027 41.488 75.105 41.63 75.192 41.771 75.283 41.908 75.374 42.045 75.47 42.178 75.575 42.306 75.68 42.429 75.79 42.552 75.904 42.671 76.023 42.79 76.142 42.9 76.265 43.009 76.397 43.114 76.53 43.215 76.662 43.279 76.754 44.891 84.787 45.074 84.947 45.265 85.112 45.457 85.272 45.654 85.427 45.85 85.582 46.051 85.737 46.252 85.888 46.453 86.039 46.663 86.189 46.868 86.336 47.079 86.482 47.293 86.623 47.508 86.765 47.722 86.902 47.942 87.034 48.161 87.171 48.385 87.299 48.609 87.427 48.832 87.555 49.056 87.674 49.285 87.793 49.513 87.911 49.741 88.025 49.974 88.135 50.207 88.24 50.435 88.345 50.673 88.446 50.906 88.546 51.143 88.638 51.376 88.729 51.614 88.816 51.831 88.893 52.176 89.003 52.55 89.117 52.938 89.231 53.336 89.336 53.728 89.437 54.117 89.524 54.309 89.565 54.496 89.601 54.678 89.638 54.857 89.67 69.832 92.109 69.91 91.615 77.003 92.775 78.935 80.937 71.842 79.777 71.924 79.288 67.266 78.526 60.177 77.365 59.83 77.297 59.524 77.224 59.227 77.137 58.931 77.037 58.647 76.923 58.364 76.799 58.095 76.662 57.825 76.516 57.569 76.361 57.318 76.192 57.076 76.009 56.839 75.822 56.615 75.621 56.396 75.415 56.19 75.196 55.989 74.972 55.802 74.735 55.624 74.493 55.455 74.246 55.3 73.99 55.153 73.725 55.016 73.456 54.893 73.177 54.783 72.899 54.683 72.611 54.592 72.314 54.519 72.017 54.459 71.716 54.409 71.41 54.372 71.099 54.354 70.789 54.345 70.474 54.35 70.263 54.363 70.049 54.386 69.834 54.413 69.615 54.446 69.396 54.482 69.186 54.523 68.976 54.564 68.779 54.683 68.268 54.811 67.756 54.943 67.249 55.085 66.742 55.231 66.235 55.386 65.733 55.546 65.23 55.715 64.733 55.889 64.23 56.072 63.737 56.259 63.239 56.45 62.75 56.651 62.262 56.857 61.773 57.067 61.289 57.286 60.809 57.51 60.33 57.739 59.855 57.971 59.384 58.214 58.919 58.456 58.453 58.707 57.991 58.962 57.539 59.223 57.087 59.483 56.635 59.753 56.192 60.027 55.753 60.305 55.319 60.588 54.89 60.876 54.465 61.164 54.045 61.461 53.63 61.931 52.885 61.511 52.616 65.306 46.601 56.852 41.266 53.057 47.281 52.632 47.016" class="fil1 str3"/><polyline points="25.206 96.219 25.439 96.114 25.667 95.995 25.891 95.872 26.106 95.74 26.32 95.598 26.526 95.452 26.722 95.297 26.919 95.137 27.102 94.972 27.284 94.799 27.458 94.616 27.627 94.433 27.787 94.242 27.942 94.045 28.088 93.844 28.225 93.639 28.358 93.429 28.485 93.209 28.599 92.99 28.709 92.766 28.81 92.538 28.905 92.305 28.988 92.072 29.065 91.83 29.134 91.588 29.193 91.346 29.244 91.099 29.285 90.848 29.317 90.597 29.344 90.341 29.358 90.085 29.362 89.825 29.358 89.661 29.353 89.492 29.339 89.318 29.321 89.144 29.303 88.975 29.28 88.806 29.253 88.642 29.225 88.487 27.841 81.545 27.796 81.298 27.755 81.042 27.718 80.777 27.686 80.508 27.659 80.234 27.64 79.964 27.631 79.695 27.627 79.434 27.64 78.864 27.681 78.306 27.755 77.754 27.851 77.21 27.974 76.676 28.125 76.155 28.298 75.644 28.494 75.141 28.718 74.653 28.96 74.178 29.23 73.712 29.517 73.264 29.823 72.83 30.152 72.415 30.5 72.013 30.865 71.629 31.248 71.264 31.65 70.917 32.071 70.588 32.5 70.277 32.952 69.99 33.413 69.725 33.888 69.478 34.377 69.259 34.88 69.062 35.391 68.884 35.916 68.738 36.451 68.615 36.989 68.514 37.542 68.446 38.104 68.405 38.67 68.386 39.163 68.4 39.648 68.432 40.132 68.487 40.607 68.56 41.077 68.656 41.538 68.775 41.995 68.907 42.443 69.062 42.881 69.236 43.315 69.423 43.735 69.633 44.146 69.862 44.548 70.104 44.941 70.364 45.32 70.638 45.686 70.93 46.042 71.232 46.384 71.556 46.709 71.889 47.024 72.237 47.325 72.597 47.608 72.972 47.878 73.36 48.129 73.757 48.362 74.168 48.581 74.589 48.782 75.018 48.965 75.461 49.129 75.913 49.271 76.374 49.394 76.84 49.497 77.283 51.861 88.939" class="fil1 str1"/><line x1="61.511" x2="51.34" y1="52.616" y2="49.062" class="fil1 str2"/><line x1="69.91" x2="67.266" y1="91.615" y2="78.526" class="fil1 str1"/><_line x1="50.066" x2="27.275" y1="79.434" y2="79.434" class="fil1 str1"/><_line x1="38.67" x2="38.67" y1="90.825" y2="68.039" class="fil1 str1"/><_line x1="39.524" x2="17.834" y1="103.422" y2="103.422" class="fil1 str1"/><_line x1="28.682" x2="28.682" y1="114.269" y2="92.579" class="fil1 str1"/><circle id="rear_axle" cx="38.675" cy="79.429" r="5" class="fil0 str0"/><circle id="center_00" cx="38.675" cy="79.429" r="5" class="fil0 str0"/><circle cx="28.682" cy="103.423" r="4.5" class="fil1 str0"/></g></svg>
