<svg xmlns="http://www.w3.org/2000/svg" xmlns:svg="http://www.w3.org/2000/svg" style="shape-rendering:geometricPrecision;text-rendering:geometricPrecision;image-rendering:optimizeQuality;fill-rule:evenodd;clip-rule:evenodd" width="210mm" height="297mm" viewBox="0 0 210 297" xml:space="preserve"><defs><style type="text/css">.str0{stroke:#202326;stroke-linecap:round;stroke-linejoin:bevel}.str0,.str1,.str2{stroke-width:.0762}.str2{stroke:#2b2828}.str1{stroke:#a36d6c;stroke-linecap:round;stroke-linejoin:bevel}.fil0{fill:none}</style></defs><g id="Ebene_x0020_1"><polygon id="polygon10" points="13.313 306.118 16.577 306.951 31.744 309.425 37.194 309.171 38.764 298.467 33.837 296.595 28.992 295.804 24.684 295.099 20.909 293.145 19.398 290.908 18.849 288.199 18.848 288.009 19.342 282.376 20.42 277.824 21.71 274.171 23.3 270.709 23.716 270.05 24.674 265.264 17.749 261.454 14.414 264.178 12.813 266.715 9.404 271.192 3.933 277.307 -2.116 282.644 -6.677 285.792 -9.416 288.171 -11.318 291.074 -12.24 293.633 -12.618 296.71 -12.363 299.242 -10.575 308.137 -10.476 309.111 -10.787 310.827 -13.298 313.609 -15.465 315.264 -14.277 316.7 -9.613 313.7 -5.731 305.549 -7.308 298.102 -6.44 291.506 1.313 288.522 6.152 291.126 8.443 299.155 11.087 305.183" class="fil0 str0"/><line id="line12" x1="31.744" x2="28.992" y1="309.425" y2="295.804" class="fil0 str0"/><line id="line14" x1="23.716" x2="13.059" y1="270.05" y2="266.326" class="fil0 str0"/><polygon id="polyline16" points="13.573 306.203 11.214 294.559 10.035 291.36 8.491 289.232 7.011 287.893 4.705 286.553 2.319 285.834 .382 285.66 -3.085 286.219 -5.482 287.351 -7.593 289.075 -9.315 291.421 -10.319 293.954 -10.668 296.71 -10.451 298.862 -9.07 305.746 -8.932 307.109 -9.227 309.116 -10.668 311.718 -12.218 312.863 -13.088 313.507 -15.465 315.264 -16.9 317.421 -17.612 320.713 -17.248 323.08 -16.264 325.145 -14.722 326.872 -17.25 329.997 -13.484 330.549 -10.664 330.233 -8.151 329.394 -5.936 328.127 -3.509 325.898 -2.377 324.118 -1.763 322.22 -1.613 320.655 -1.742 311.699 -4.911 296.016 -3.661 293.531 -1.548 292.042 .471 291.652 2.125 291.897 3.547 292.572 4.989 294.015 6.656 302.245 8.488 303.651 11.087 305.183" class="fil0 str0"/><polygon id="polygon18" points="12.85 287.819 12.464 288.71 11.553 289.084 10.527 288.586 8.21 286.338 6.091 285.03 5.38 283.872 5.812 282.907 8.662 280.003 11.935 276.665 12.9 276.233 13.819 276.615 14.2 277.533 14.155 277.868 13.407 281.29 13.005 284.34" class="fil0 str0"/><_path id="path20" d="M-9.6125 322.3l0 -3.175m0 4.763l0 7.675m0 -14.025l0 -7.675m-3.175 10.85l-7.675 0m9.2625 0l3.175 0m1.5875 0l7.675 0" class="fil0 str1"/><polygon id="polygon22" points="-5.112 320.713 -5.659 318.582 -7.285 316.872 -9.612 316.213 -11.56 316.658 -13.224 318.035 -14.112 320.713 -13.555 322.871 -12.032 324.504 -9.612 325.213 -7.47 324.669 -5.765 323.044" class="fil0 str0"/><circle id="circle24" cx=".404" cy="296.806" r="5.047" class="fil0 str2"/><circle id="center_00" cx=".404" cy="296.806" r="5.047" class="fil0 str2"/></g></svg>