<svg xmlns="http://www.w3.org/2000/svg" version="1.0"><polygon fill="none" stroke="#000" stroke-width=".1" points="55.276 118.076 55.166 116.931 55.175 115.669 55.356 114.953 56.054 114.729 86.67 114.729 87.677 114.628 88.616 114.336 89.465 113.875 90.205 113.264 90.816 112.524 91.277 111.675 91.568 110.737 91.67 109.729 91.67 109.729 91.568 108.722 91.277 107.783 90.816 106.934 90.205 106.194 89.465 105.583 88.616 105.122 87.677 104.831 86.67 104.729 56.033 104.729 55.352 104.281 55.095 103.469 55.102 102.267 55.496 101.008 56.052 99.866 57.886 97.356 59.826 94.988 61.691 93.066 63.238 91.585 64.897 90.124 66.913 88.709 68.614 87.191 70.274 85.246 71.406 83.315 72.147 81.64 77.927 63.888 78.307 63.393 78.884 63.012 79.533 62.881 80.202 63.007 93.44 67.303 94.088 67.738 94.446 68.33 94.615 69.066 94.611 69.908 91.406 85.092 91.335 86.379 91.609 87.315 92.19 88.032 92.798 88.603 93.308 88.9 95.774 89.913 98.674 91.431 102.149 93.739 104.929 96.101 107.249 98.257 109.175 100.007 110.807 101.004 112.325 101.665 115.362 102.521 117.993 102.909 125.211 103.306 126.786 103.489 127.827 104.185 128.299 105.207 128.398 106.341 128.286 121.758 128.293 123.044 127.757 124.055 126.849 124.565 125.62 124.585 109.738 124.584 108.66 124.625 107.749 124.905 106.437 125.605 105.538 125.931 104.469 126.086 66.286 126.086 64.153 125.669 61.881 124.89 59.161 123.514 57.378 121.772 56.16 120.038 55.276 118.076"/><circle cx="71.186" cy="109.729" r="5" fill="none" stroke="#000" stroke-width=".1"/><line x1="71.186" x2="71.186" y1="121.278" y2="98.18" fill="none" stroke="#000" stroke-width=".1"/><line x1="113.207" x2="45.905" y1="109.729" y2="109.729" fill="none" stroke="#000" stroke-width=".1"/><circle id="center_00" cx="71.186" cy="109.729" r="5" fill="none" stroke="#000" stroke-width=".1"/></svg>
