<svg xmlns="http://www.w3.org/2000/svg" width="297mm" height="210mm" viewBox="0 0 297 210"><g id="_12"><polygon id="_new_44_1" fill="none" stroke="#000" stroke-width=".1" points="129.227 162.915 131.444 162.915 131.444 177.715 117.286 178.171 115.937 178.054 114.616 177.648 113.348 177.004 112.16 176.172 111.08 175.203 110.132 174.146 109.345 173.051 108.744 171.97 106.987 168.231 106.644 167.591 106.215 167.01 105.711 166.495 105.138 166.056 104.506 165.7 103.822 165.436 103.095 165.272 102.332 165.215 102.332 165.215 101.304 165.319 100.347 165.616 99.481 166.086 98.726 166.709 98.103 167.464 97.633 168.33 97.335 169.287 97.232 170.315 97.232 170.315 97.24 170.612 97.266 170.905 97.307 171.193 97.365 171.476 97.438 171.753 97.525 172.023 97.628 172.287 97.744 172.543 99.573 176.436 100.218 178.12 100.778 180.202 101.246 182.636 101.619 185.375 101.892 188.373 102.059 191.584 102.115 194.962 102.056 198.461 102.056 198.461 102.053 198.691 102.043 198.92 102.026 199.147 102.003 199.372 101.974 199.595 101.938 199.817 101.896 200.036 101.848 200.253 101.847 200.255 101.845 200.265 101.823 200.352 101.801 200.439 101.778 200.525 101.754 200.611 101.728 200.697 101.702 200.782 101.675 200.867 101.647 200.951 101.647 200.951 100.945 202.873 100.049 204.589 98.929 206.075 97.555 207.302 95.899 208.242 93.931 208.87 91.621 209.158 88.941 209.079 90.811 205.378 89.903 204.838 89.081 204.183 88.356 203.424 87.737 202.573 87.237 201.64 86.866 200.636 86.636 199.573 86.556 198.461 86.556 198.461 86.597 197.666 86.715 196.894 86.907 196.149 87.169 195.435 87.498 194.756 87.888 194.116 88.337 193.518 88.84 192.967 88.84 192.967 89.637 192.052 90.344 191.061 90.955 190.003 91.467 188.884 91.874 187.71 92.17 186.489 92.352 185.228 92.414 183.934 92.414 183.934 92.387 183.04 92.307 182.165 92.174 181.31 91.987 180.476 91.747 179.663 91.453 178.875 91.106 178.111 90.705 177.372 90.705 177.372 90.261 176.584 89.869 175.765 89.531 174.916 89.249 174.041 89.026 173.141 88.864 172.218 88.765 171.276 88.732 170.315 88.732 170.315 88.819 168.765 89.075 167.267 89.49 165.829 90.054 164.461 90.758 163.172 91.592 161.973 92.547 160.872 93.614 159.879 93.613 159.878 95.517 158.159 97.378 156.176 99.178 153.961 100.894 151.549 102.509 148.974 104.003 146.27 105.354 143.469 106.544 140.608 120.15 146.105 119.216 148.418 118.493 151.175 118.517 153.819 119.195 156.271 120.438 158.454 122.154 160.288 124.251 161.695 126.639 162.597 129.227 162.915"/><polygon id="_tag_76_" fill="none" stroke="#000" stroke-width=".1" points="108.868 140.448 113.053 130.089 122.881 134.06 118.696 144.419"/><rect id="_tag_77_" width="12.921" height="10.2" x="131.171" y="165.215" fill="none" stroke="#000" stroke-width=".1"/><polyline id="_tag_78_" fill="none" stroke="#000" stroke-width=".1" points="112.562 174.233 116.832 176.769 118.302 178.138"/><line id="_tag_79_" x1="107.864" x2="112.969" y1="170.095" y2="173.128" fill="none" stroke="#000" stroke-width=".1"/><polyline id="_new_49_1" fill="none" stroke="#000" stroke-width=".1" points="99.028 175.275 98.665 175.599 98.316 175.956 97.995 176.336 97.717 176.731 97.495 177.131 97.343 177.526 97.274 177.907 97.303 178.266 97.303 178.266 97.632 179.722 97.934 181.227 98.211 182.771 98.462 184.343 98.687 185.935 98.888 187.534 99.065 189.132 99.218 190.719 99.218 190.719 99.319 191.111 99.538 191.489 99.851 191.853 100.239 192.207 100.68 192.554 101.152 192.896 101.635 193.237 102.106 193.579"/><polyline id="_new_50_1" fill="none" stroke="#000" stroke-width=".1" points="97.751 180.318 96.388 179.571 95.15 178.646 94.056 177.56 93.121 176.329 92.365 174.972 91.803 173.506 91.453 171.948 91.332 170.315 91.332 170.315 91.556 168.098 92.197 166.033 93.211 164.165 94.555 162.537 96.183 161.194 98.051 160.179 100.116 159.538 102.332 159.315 102.332 159.315 104.549 159.538 106.614 160.179 108.482 161.194 110.11 162.537 111.453 164.165 112.468 166.033 113.109 168.098 113.332 170.315 113.332 170.315 113.321 170.828 113.286 171.335 113.228 171.836 113.148 172.329 113.047 172.815 112.924 173.293 112.781 173.762 112.618 174.222"/><polygon id="_new_51_1" fill="none" stroke="#000" stroke-width=".1" points="122.447 176.57 123.379 176.481 124.282 176.209 125.126 175.747 125.882 175.086 126.521 174.22 127.014 173.142 127.331 171.842 127.443 170.315 127.443 170.315 127.331 168.788 127.014 167.488 126.521 166.41 125.882 165.544 125.126 164.883 124.282 164.421 123.379 164.149 122.447 164.06 118.323 164.13 134.759 163.853 134.759 176.777 118.323 176.501 122.447 176.57"/><polygon id="_new_52_1" fill="none" stroke="#000" stroke-width=".1" points="115.761 153.99 116.025 153.101 116.11 152.171 115.999 151.224 115.673 150.285 115.115 149.377 114.307 148.524 113.231 147.75 111.87 147.081 111.87 147.081 110.426 146.617 109.115 146.426 107.941 146.478 106.909 146.744 106.022 147.194 105.284 147.797 104.699 148.525 104.272 149.348 102.906 152.965 108.51 138.06 120.546 142.923 114.185 157.522 115.761 153.99"/><circle id="_tag_80_" cx="94.307" cy="198.461" r="7.75" fill="none" stroke="#000" stroke-width=".1"/><circle id="_tag_81_" cx="102.332" cy="170.315" r="5.1" fill="none" stroke="#000" stroke-width=".1"/><circle id="center_00" cx="102.332" cy="170.315" r="5.1" fill="none" stroke="#000" stroke-width=".1"/><circle id="_tag_82_" cx="94.307" cy="198.461" r="4.5" fill="none" stroke="#000" stroke-width=".1"/><polygon id="_new_56_1" fill="none" stroke="#000" stroke-width=".1" points="119.259 158.893 117.045 158.893 117.045 158.89 117.03 158.89 117.025 158.89 117.027 158.891 117.032 158.891 117.034 158.891 117.031 158.892 117.018 158.893 116.991 158.893 116.991 158.893 116.806 158.905 116.627 158.931 116.454 158.97 116.288 159.024 116.131 159.09 115.982 159.17 115.842 159.263 115.712 159.369 115.712 159.369 115.587 159.492 115.476 159.627 115.38 159.774 115.298 159.931 115.232 160.1 115.182 160.279 115.15 160.468 115.135 160.667 115.135 160.667 115.135 160.673 115.135 160.679 115.135 160.686 115.135 160.693 115.135 160.7 115.135 160.708 115.135 160.717 115.135 160.726 115.135 160.726 115.137 160.806 115.142 160.884 115.15 160.961 115.162 161.036 115.177 161.11 115.196 161.183 115.219 161.256 115.245 161.327 115.245 161.327 115.272 161.394 115.303 161.459 115.336 161.523 115.373 161.587 115.413 161.651 115.456 161.715 115.503 161.779 115.553 161.843 115.809 162.162 115.829 162.191 115.844 162.225 115.855 162.261 115.86 162.299 115.861 162.338 115.857 162.375 115.848 162.411 115.834 162.445 115.039 163.996 114.244 162.445 114.23 162.411 114.221 162.375 114.217 162.338 114.218 162.299 114.223 162.261 114.234 162.225 114.249 162.191 114.269 162.162 114.525 161.843 114.575 161.779 114.622 161.715 114.665 161.651 114.705 161.587 114.742 161.523 114.775 161.459 114.806 161.394 114.833 161.327 114.833 161.327 114.859 161.256 114.882 161.183 114.901 161.11 114.916 161.036 114.928 160.961 114.936 160.884 114.941 160.806 114.943 160.726 114.943 160.726 114.943 160.717 114.943 160.708 114.943 160.7 114.943 160.693 114.943 160.686 114.943 160.679 114.943 160.673 114.943 160.667 114.943 160.667 114.928 160.468 114.896 160.279 114.846 160.1 114.78 159.931 114.698 159.774 114.602 159.627 114.491 159.492 114.366 159.369 114.366 159.369 114.236 159.263 114.096 159.17 113.947 159.09 113.79 159.024 113.624 158.97 113.451 158.931 113.272 158.905 113.087 158.893 113.087 158.893 113.06 158.893 113.047 158.892 113.044 158.891 113.046 158.891 113.051 158.891 113.053 158.89 113.048 158.89 113.033 158.89 113.033 158.893 110.819 158.893 111.547 160.326 113.033 160.326 113.033 160.329 113.056 160.329 113.063 160.328 113.061 160.328 113.052 160.327 113.043 160.327 113.038 160.326 113.042 160.326 113.059 160.327 113.059 160.327 113.115 160.33 113.168 160.336 113.217 160.345 113.264 160.358 113.306 160.373 113.345 160.391 113.38 160.413 113.411 160.437 113.411 160.437 113.432 160.458 113.451 160.483 113.467 160.511 113.481 160.543 113.492 160.578 113.501 160.616 113.507 160.657 113.509 160.701 113.509 160.701 113.509 160.706 113.51 160.71 113.51 160.714 113.51 160.717 113.51 160.72 113.51 160.722 113.51 160.724 113.51 160.726 113.51 160.726 113.51 160.736 113.509 160.747 113.508 160.757 113.506 160.767 113.504 160.776 113.502 160.786 113.499 160.795 113.496 160.805 113.496 160.805 113.489 160.819 113.482 160.835 113.473 160.851 113.462 160.867 113.451 160.885 113.437 160.904 113.423 160.923 113.407 160.944 112.954 161.507 112.898 161.58 112.848 161.653 112.804 161.725 112.767 161.798 112.735 161.872 112.709 161.947 112.689 162.024 112.675 162.103 112.675 162.103 112.666 162.19 112.664 162.275 112.669 162.359 112.682 162.442 112.702 162.524 112.728 162.606 112.762 162.689 112.802 162.773 115.039 167.136 117.276 162.773 117.316 162.689 117.35 162.606 117.376 162.524 117.396 162.442 117.409 162.359 117.414 162.275 117.412 162.19 117.403 162.103 117.403 162.103 117.389 162.024 117.369 161.947 117.343 161.872 117.311 161.798 117.274 161.725 117.23 161.653 117.18 161.58 117.124 161.507 116.671 160.944 116.655 160.923 116.641 160.904 116.627 160.885 116.616 160.867 116.605 160.851 116.596 160.835 116.589 160.819 116.582 160.805 116.582 160.805 116.579 160.795 116.576 160.786 116.574 160.776 116.572 160.767 116.57 160.757 116.569 160.747 116.568 160.736 116.568 160.726 116.568 160.726 116.568 160.724 116.568 160.722 116.568 160.72 116.568 160.717 116.568 160.714 116.568 160.71 116.569 160.706 116.569 160.701 116.569 160.701 116.571 160.657 116.577 160.616 116.586 160.578 116.597 160.543 116.611 160.511 116.627 160.483 116.646 160.458 116.667 160.437 116.667 160.437 116.698 160.413 116.733 160.391 116.772 160.373 116.814 160.358 116.861 160.345 116.91 160.336 116.963 160.33 117.019 160.327 117.019 160.327 117.036 160.326 117.04 160.326 117.035 160.327 117.026 160.327 117.017 160.328 117.015 160.328 117.022 160.329 117.045 160.329 117.045 160.326 118.531 160.326 119.259 158.893"/></g></svg>
