<svg xmlns="http://www.w3.org/2000/svg" width="297mm" height="210mm" viewBox="0 0 297 210"><g id="Ebene_x0020_1"><polygon id="_new_2_1" fill="none" stroke="#000" stroke-width=".1" points="33.158 156.166 32.766 155.227 32.574 154.26 32.573 153.291 32.757 152.347 33.116 151.457 33.643 150.646 34.33 149.944 35.168 149.376 35.168 149.376 36.106 148.984 37.073 148.791 38.041 148.791 38.983 148.975 39.873 149.334 40.683 149.861 41.387 150.548 41.958 151.386 41.958 151.386 42.378 152.476 43.346 154.266 44.532 155.883 44.705 156.061 44.877 156.24 45.05 156.418 45.223 156.597 45.395 156.775 45.568 156.954 45.741 157.132 45.913 157.311 47.467 158.535 49.17 159.539 51 160.307 52.934 160.825 54.938 161.066 82.418 161.066 82.418 158.766 87.418 158.766 87.418 148.766 82.418 148.766 82.418 146.466 87.418 146.466 87.418 144.466 75.908 144.466 73.871 144.204 71.977 143.55 70.276 142.556 68.808 141.265 67.612 139.718 66.727 137.958 66.193 136.027 66.048 133.966 66.048 133.966 66.102 133.204 66.212 132.452 66.377 131.711 66.596 130.985 66.868 130.277 67.193 129.591 67.57 128.93 67.998 128.306 75.328 119.571 73.788 118.286 77.148 114.291 69.568 107.926 66.218 111.926 64.678 110.636 62.545 113.008 60.612 115.157 56.431 119.568 52.138 123.866 47.736 128.051 43.225 132.119 38.609 136.069 37.143 137.258 33.889 139.899 29.653 143.144 29.346 143.381 29.047 143.627 28.755 143.881 28.471 144.143 28.194 144.412 27.926 144.689 27.665 144.974 27.412 145.265 27.412 145.265 27.412 145.265 27.412 145.265 27.412 145.265 27.412 145.266 27.412 145.266 27.411 145.266 27.411 145.266 27.411 145.266 27.411 145.266 26.722 146.196 26.127 147.191 25.632 148.243 25.242 149.345 24.962 150.491 24.799 151.672 24.758 152.882 24.845 154.113 25.145 155.83 25.5 157.353 25.618 157.726 26.213 159.837 26.603 161.989 26.79 164.158 26.774 166.331 26.556 168.492 26.137 170.628 25.517 172.724 25.415 172.979 25.312 173.235 25.21 173.49 25.108 173.745 25.005 174 24.903 174.256 24.801 174.511 24.698 174.766 24.209 176.191 23.994 177.654 24.051 179.108 24.368 180.518 24.932 181.849 25.732 183.064 26.754 184.128 27.988 184.986 27.929 188.57 29.832 188.389 31.671 187.935 33.417 187.224 35.042 186.267 36.519 185.08 37.821 183.675 39.169 181.594 39.516 180.774 39.769 179.927 39.927 179.058 39.988 178.178 39.953 177.294 39.82 176.414 39.588 175.556 33.158 156.156"/><polygon id="path514" fill="none" stroke="#000" stroke-width=".1" points="36.488 178.066 36.397 178.975 36.135 179.821 35.721 180.587 35.172 181.255 34.506 181.806 33.742 182.222 32.896 182.485 31.988 182.576 31.082 182.485 30.237 182.222 29.471 181.806 28.803 181.255 28.251 180.587 27.834 179.821 27.57 178.975 27.478 178.066 27.57 177.158 27.834 176.313 28.251 175.548 28.803 174.882 29.471 174.334 30.237 173.919 31.082 173.657 31.988 173.566 32.896 173.657 33.742 173.919 34.506 174.334 35.172 174.882 35.721 175.548 36.135 176.313 36.397 177.158"/><polygon id="path754" fill="none" stroke="#000" stroke-width=".1" points="68.238 147.266 65.863 145.534 63.941 143.428 62.493 141.028 61.539 138.414 61.099 135.666 61.194 132.863 61.844 130.087 63.068 127.416 63.309 127.024 63.557 126.637 64.088 125.616 64.148 124.776 63.888 123.976 63.358 123.316 62.628 122.906 61.788 122.786 60.958 122.976 60.268 123.456 59.323 124.451 58.364 125.44 57.399 126.424 56.429 127.402 55.455 128.376 54.474 129.344 53.489 130.308 52.503 131.261 51.288 132.204 50.199 133.277 49.247 134.46 48.441 135.741 47.787 137.107 47.294 138.543 46.968 140.038 46.818 141.576 46.976 144.24 47.641 146.742 48.762 149.026 50.289 151.039 52.171 152.724 54.357 154.027 56.796 154.893 59.418 155.256 66.268 155.256 67.388 154.936 68.378 154.336 69.188 153.496 69.758 152.476 70.038 151.346 70.008 150.176 69.668 149.066 69.068 148.066 68.238 147.266"/><circle cx="37.558" cy="153.771" r="5" fill="none" stroke="#000" stroke-width=".1"/><circle id="center_00" cx="37.558" cy="153.771" r="4.5" fill="none" stroke="#000" stroke-width=".1"/></g></svg>