<svg xmlns="http://www.w3.org/2000/svg" width="297mm" height="210mm" viewBox="0 0 297 210"><g id="_tag_429_"><line id="simplify_318" x1="31.019" x2="68.105" y1="135.432" y2="135.432" stroke="#000" stroke-width=".1"/><polygon id="simplify_319" fill="none" stroke="#000" stroke-width=".1" points="65.708 127.964 66.016 129.313 66.35 130.662 66.699 131.994 67.081 133.327 67.178 133.587 67.219 133.693 67.308 133.871 67.406 134.05 67.463 134.14 67.585 134.31 67.715 134.464 67.869 134.619 67.934 134.684 68.088 134.814 68.259 134.936 68.438 135.05 68.625 135.147 68.804 135.228 69.007 135.302 69.202 135.358 69.51 135.432 69.803 135.472 70.518 135.57 70.811 135.61 71.103 135.651 71.404 135.691 71.948 135.765 72.411 135.838 72.72 135.878 72.858 135.895 74.963 136.187 75.109 136.212 75.247 136.252 75.385 136.301 75.515 136.366 75.637 136.439 75.751 136.528 75.857 136.618 75.954 136.724 76.043 136.829 76.117 136.951 76.19 137.073 76.247 137.211 76.295 137.349 76.328 137.487 76.344 137.634 76.352 137.788 76.352 137.869 76.344 137.95 76.336 138.032 76.32 138.113 76.279 138.267 76.222 138.414 76.157 138.552 76.076 138.69 75.987 138.812 75.881 138.926 75.767 139.031 75.645 139.12 75.507 139.202 75.369 139.275 75.223 139.324 75.068 139.364 74.987 139.381 74.906 139.389 74.825 139.397 74.743 139.397 65.708 139.381 65.496 139.551 65.301 139.738 65.115 139.949 64.952 140.153 64.798 140.396 64.651 140.632 64.529 140.884 64.432 141.136 64.343 141.404 64.278 141.672 64.237 141.94 64.204 142.216 64.188 142.501 64.188 170.802 64.188 171.144 64.221 171.566 64.278 171.972 64.294 172.07 64.31 172.176 64.326 172.273 64.343 172.379 64.448 172.785 64.554 173.191 64.7 173.581 64.798 173.833 64.96 174.215 65.131 174.532 65.285 174.833 69.592 182.138 69.746 182.446 69.779 182.519 69.811 182.601 69.835 182.682 69.86 182.771 69.876 182.853 69.892 182.942 69.9 183.031 69.9 183.121 69.9 187.314 69.917 187.5 69.957 187.679 70.006 187.834 70.055 187.947 70.136 188.118 70.234 188.272 70.299 188.346 70.421 188.476 70.494 188.549 70.559 188.606 70.648 188.662 75.751 188.662 75.832 188.662 75.913 188.671 75.995 188.679 76.076 188.695 76.23 188.736 76.377 188.792 76.515 188.857 76.653 188.939 76.775 189.028 76.888 189.134 76.994 189.248 77.084 189.369 77.165 189.507 77.238 189.646 77.287 189.792 77.327 189.946 77.344 190.028 77.352 190.109 77.36 190.19 77.36 190.271 77.352 190.426 77.335 190.572 77.303 190.718 77.254 190.856 77.197 190.986 77.132 191.108 77.051 191.23 76.962 191.336 76.864 191.441 76.759 191.531 76.645 191.62 76.523 191.693 76.393 191.758 76.255 191.807 76.117 191.848 75.97 191.872 71.306 192.278 71.225 192.286 71.152 192.295 70.957 192.335 70.754 192.408 70.656 192.449 70.477 192.547 70.307 192.66 70.226 192.717 70.071 192.855 69.925 193.01 69.803 193.18 69.705 193.359 69.616 193.554 69.567 193.757 69.519 193.952 69.51 194.066 69.494 194.164 29.63 194.164 29.614 194.066 29.605 193.952 29.557 193.757 29.508 193.554 29.419 193.359 29.321 193.18 29.199 193.01 29.053 192.855 28.898 192.717 28.817 192.66 28.647 192.547 28.468 192.449 28.37 192.408 28.167 192.335 27.972 192.295 27.899 192.286 27.818 192.278 23.154 191.872 23.007 191.848 22.861 191.807 22.731 191.758 22.601 191.693 22.479 191.62 22.366 191.531 22.26 191.441 22.162 191.336 22.073 191.23 21.992 191.108 21.927 190.986 21.87 190.856 21.821 190.718 21.789 190.572 21.772 190.426 21.764 190.271 21.764 190.19 21.772 190.109 21.78 190.028 21.797 189.946 21.837 189.792 21.886 189.646 21.959 189.507 22.041 189.369 22.13 189.248 22.235 189.134 22.349 189.028 22.471 188.939 22.609 188.857 22.747 188.792 22.894 188.736 23.048 188.695 23.129 188.679 23.211 188.671 23.292 188.662 23.373 188.662 28.476 188.662 28.565 188.606 28.63 188.549 28.703 188.476 28.825 188.346 28.89 188.272 28.988 188.118 29.069 187.947 29.118 187.834 29.167 187.679 29.207 187.5 29.224 187.314 29.224 183.121 29.224 183.031 29.232 182.942 29.248 182.853 29.264 182.771 29.289 182.682 29.313 182.601 29.345 182.519 29.378 182.446 29.532 182.138 33.839 174.833 33.993 174.532 34.164 174.215 34.326 173.833 34.424 173.581 34.57 173.191 34.676 172.785 34.782 172.379 34.798 172.273 34.814 172.176 34.83 172.07 34.846 171.972 34.903 171.566 34.936 171.144 34.936 170.802 34.936 142.501 34.92 142.216 34.887 141.94 34.846 141.672 34.782 141.404 34.692 141.136 34.595 140.884 34.473 140.632 34.326 140.396 34.172 140.153 34.01 139.949 33.823 139.738 33.628 139.551 33.416 139.381 24.381 139.397 24.299 139.397 24.218 139.389 24.137 139.381 24.056 139.364 23.901 139.324 23.755 139.275 23.617 139.202 23.479 139.12 23.357 139.031 23.243 138.926 23.137 138.812 23.048 138.69 22.967 138.552 22.902 138.414 22.845 138.267 22.804 138.113 22.788 138.032 22.78 137.95 22.772 137.869 22.772 137.788 22.78 137.634 22.796 137.487 22.829 137.349 22.877 137.211 22.934 137.073 23.007 136.951 23.081 136.829 23.17 136.724 23.267 136.618 23.373 136.528 23.487 136.439 23.609 136.366 23.739 136.301 23.877 136.252 24.015 136.212 24.161 136.187 26.266 135.895 26.404 135.878 26.713 135.838 27.176 135.765 27.72 135.691 28.021 135.651 28.314 135.61 28.606 135.57 29.321 135.472 29.614 135.432 29.922 135.358 30.117 135.302 30.32 135.228 30.499 135.147 30.686 135.05 30.865 134.936 31.036 134.814 31.19 134.684 31.255 134.619 31.409 134.464 31.539 134.31 31.661 134.14 31.718 134.05 31.816 133.871 31.905 133.693 31.946 133.587 32.043 133.327 32.425 131.994 32.775 130.662 33.108 129.313 33.416 127.964 34.188 124.811 34.627 124.064 49.562 124.064 64.497 124.064 64.936 124.811"/><polygon id="simplify_320" fill="none" stroke="#000" stroke-width=".1" points="65.708 127.964 66.016 129.313 66.35 130.662 66.699 131.994 67.081 133.327 67.178 133.587 67.219 133.693 67.308 133.871 67.406 134.05 67.463 134.14 67.585 134.31 67.715 134.464 67.869 134.619 67.934 134.684 68.088 134.814 68.259 134.936 68.438 135.05 68.625 135.147 68.804 135.228 69.007 135.302 69.202 135.358 69.51 135.432 69.803 135.472 70.518 135.57 70.811 135.61 71.103 135.651 71.404 135.691 71.948 135.765 72.411 135.838 72.72 135.878 72.858 135.895 74.963 136.187 75.109 136.212 75.247 136.252 75.385 136.301 75.515 136.366 75.637 136.439 75.751 136.528 75.857 136.618 75.954 136.724 76.043 136.829 76.117 136.951 76.19 137.073 76.247 137.211 76.295 137.349 76.328 137.487 76.344 137.634 76.352 137.788 76.352 137.869 76.344 137.95 76.336 138.032 76.32 138.113 76.279 138.267 76.222 138.414 76.157 138.552 76.076 138.69 75.987 138.812 75.881 138.926 75.767 139.031 75.645 139.12 75.507 139.202 75.369 139.275 75.223 139.324 75.068 139.364 74.987 139.381 74.906 139.389 74.825 139.397 74.743 139.397 65.708 139.381 65.496 139.551 65.301 139.738 65.115 139.949 64.952 140.153 64.798 140.396 64.651 140.632 64.529 140.884 64.432 141.136 64.343 141.404 64.278 141.672 64.237 141.94 64.204 142.216 64.188 142.501 64.188 170.802 64.188 171.144 64.221 171.566 64.278 171.972 64.294 172.07 64.31 172.176 64.326 172.273 64.343 172.379 64.448 172.785 64.554 173.191 64.7 173.581 64.798 173.833 64.96 174.215 65.131 174.532 65.285 174.833 69.592 182.138 69.746 182.446 69.779 182.519 69.811 182.601 69.835 182.682 69.86 182.771 69.876 182.853 69.892 182.942 69.9 183.031 69.9 183.121 69.9 187.314 69.917 187.5 69.957 187.679 70.006 187.834 70.055 187.947 70.136 188.118 70.234 188.272 70.299 188.346 70.421 188.476 70.494 188.549 70.559 188.606 70.648 188.662 75.751 188.662 75.832 188.662 75.913 188.671 75.995 188.679 76.076 188.695 76.23 188.736 76.377 188.792 76.515 188.857 76.653 188.939 76.775 189.028 76.888 189.134 76.994 189.248 77.084 189.369 77.165 189.507 77.238 189.646 77.287 189.792 77.327 189.946 77.344 190.028 77.352 190.109 77.36 190.19 77.36 190.271 77.352 190.426 77.335 190.572 77.303 190.718 77.254 190.856 77.197 190.986 77.132 191.108 77.051 191.23 76.962 191.336 76.864 191.441 76.759 191.531 76.645 191.62 76.523 191.693 76.393 191.758 76.255 191.807 76.117 191.848 75.97 191.872 71.306 192.278 71.225 192.286 71.152 192.295 70.957 192.335 70.754 192.408 70.656 192.449 70.477 192.547 70.307 192.66 70.226 192.717 70.071 192.855 69.925 193.01 69.803 193.18 69.705 193.359 69.616 193.554 69.567 193.757 69.519 193.952 69.51 194.066 69.494 194.164 29.63 194.164 29.614 194.066 29.605 193.952 29.557 193.757 29.508 193.554 29.419 193.359 29.321 193.18 29.199 193.01 29.053 192.855 28.898 192.717 28.817 192.66 28.647 192.547 28.468 192.449 28.37 192.408 28.167 192.335 27.972 192.295 27.899 192.286 27.818 192.278 23.154 191.872 23.007 191.848 22.861 191.807 22.731 191.758 22.601 191.693 22.479 191.62 22.366 191.531 22.26 191.441 22.162 191.336 22.073 191.23 21.992 191.108 21.927 190.986 21.87 190.856 21.821 190.718 21.789 190.572 21.772 190.426 21.764 190.271 21.764 190.19 21.772 190.109 21.78 190.028 21.797 189.946 21.837 189.792 21.886 189.646 21.959 189.507 22.041 189.369 22.13 189.248 22.235 189.134 22.349 189.028 22.471 188.939 22.609 188.857 22.747 188.792 22.894 188.736 23.048 188.695 23.129 188.679 23.211 188.671 23.292 188.662 23.373 188.662 28.476 188.662 28.565 188.606 28.63 188.549 28.703 188.476 28.825 188.346 28.89 188.272 28.988 188.118 29.069 187.947 29.118 187.834 29.167 187.679 29.207 187.5 29.224 187.314 29.224 183.121 29.224 183.031 29.232 182.942 29.248 182.853 29.264 182.771 29.289 182.682 29.313 182.601 29.345 182.519 29.378 182.446 29.532 182.138 33.839 174.833 33.993 174.532 34.164 174.215 34.326 173.833 34.424 173.581 34.57 173.191 34.676 172.785 34.782 172.379 34.798 172.273 34.814 172.176 34.83 172.07 34.846 171.972 34.903 171.566 34.936 171.144 34.936 170.802 34.936 142.501 34.92 142.216 34.887 141.94 34.846 141.672 34.782 141.404 34.692 141.136 34.595 140.884 34.473 140.632 34.326 140.396 34.172 140.153 34.01 139.949 33.823 139.738 33.628 139.551 33.416 139.381 24.381 139.397 24.299 139.397 24.218 139.389 24.137 139.381 24.056 139.364 23.901 139.324 23.755 139.275 23.617 139.202 23.479 139.12 23.357 139.031 23.243 138.926 23.137 138.812 23.048 138.69 22.967 138.552 22.902 138.414 22.845 138.267 22.804 138.113 22.788 138.032 22.78 137.95 22.772 137.869 22.772 137.788 22.78 137.634 22.796 137.487 22.829 137.349 22.877 137.211 22.934 137.073 23.007 136.951 23.081 136.829 23.17 136.724 23.267 136.618 23.373 136.528 23.487 136.439 23.609 136.366 23.739 136.301 23.877 136.252 24.015 136.212 24.161 136.187 26.266 135.895 26.404 135.878 26.713 135.838 27.176 135.765 27.72 135.691 28.021 135.651 28.314 135.61 28.606 135.57 29.321 135.472 29.614 135.432 29.922 135.358 30.117 135.302 30.32 135.228 30.499 135.147 30.686 135.05 30.865 134.936 31.036 134.814 31.19 134.684 31.255 134.619 31.409 134.464 31.539 134.31 31.661 134.14 31.718 134.05 31.816 133.871 31.905 133.693 31.946 133.587 32.043 133.327 32.425 131.994 32.775 130.662 33.108 129.313 33.416 127.964 34.188 124.811 34.627 124.064 49.562 124.064 64.497 124.064 64.936 124.811"/><polygon id="simplify_321" fill="none" stroke="#000" stroke-width=".1" points="31.808 194.326 32.002 194.326 31.759 194.765 31.653 194.919 31.442 195.139 31.255 195.293 31.133 195.399 31.101 195.439 31.101 195.464 31.092 196.715 31.141 196.853 32.937 196.853 32.994 196.853 33.083 196.886 33.116 196.918 33.148 196.951 33.205 197.04 33.221 197.137 33.221 197.235 33.181 197.316 33.108 197.389 33.026 197.43 32.937 197.446 32.937 232.216 33.238 232.508 48.254 232.508 49.562 232.508 65.886 232.508 66.187 232.216 66.187 197.446 66.098 197.43 66.016 197.389 65.943 197.316 65.903 197.235 65.903 197.137 65.919 197.04 65.976 196.951 66.008 196.918 66.041 196.886 66.13 196.853 66.187 196.853 67.983 196.853 68.032 196.715 68.032 195.464 68.023 195.439 67.991 195.399 67.869 195.293 67.682 195.139 67.471 194.919 67.365 194.765 67.122 194.326 67.317 194.326 67.463 194.164 66.951 194.164 66.496 194.164 64.375 194.164 62.262 194.164 60.142 194.164 58.029 194.164 55.908 194.164 53.795 194.164 51.675 194.164 49.562 194.164 47.449 194.164 45.328 194.164 43.216 194.164 41.095 194.164 38.982 194.164 36.862 194.164 34.749 194.164 32.628 194.164 32.173 194.164 31.661 194.164"/><line id="simplify_323" x1="28.476" x2="70.648" y1="188.662" y2="188.662" stroke="#000" stroke-width=".1"/><line id="simplify_324" x1="58.72" x2="58.72" y1="197.446" y2="232.508" stroke="#000" stroke-width=".1"/><line id="simplify_325" x1="65.691" x2="33.416" y1="139.397" y2="139.381" stroke="#000" stroke-width=".1"/><line id="simplify_326" x1="29.02" x2="70.104" y1="192.278" y2="192.278" stroke="#000" stroke-width=".1"/><line id="simplify_328" x1="52.382" x2="52.382" y1="232.508" y2="197.446" stroke="#000" stroke-width=".1"/><line id="simplify_329" x1="53.771" x2="53.771" y1="232.508" y2="197.446" stroke="#000" stroke-width=".1"/><line id="simplify_330" x1="51.748" x2="51.748" y1="232.508" y2="197.446" stroke="#000" stroke-width=".1"/><line id="simplify_331" x1="49.562" x2="33.246" y1="196.853" y2="196.853" stroke="#000" stroke-width=".1"/><line id="simplify_332" x1="49.562" x2="65.878" y1="196.853" y2="196.853" stroke="#000" stroke-width=".1"/><line id="simplify_333" x1="54.567" x2="54.567" y1="232.216" y2="197.446" stroke="#000" stroke-width=".1"/><line id="simplify_334" x1="58.508" x2="58.508" y1="232.216" y2="197.446" stroke="#000" stroke-width=".1"/><line id="simplify_335" x1="64.026" x2="64.026" y1="197.446" y2="232.216" stroke="#000" stroke-width=".1"/><line id="simplify_336" x1="49.562" x2="66.187" y1="197.446" y2="197.446" stroke="#000" stroke-width=".1"/><line id="simplify_337" x1="49.562" x2="32.937" y1="197.446" y2="197.446" stroke="#000" stroke-width=".1"/><line id="simplify_338" x1="65.943" x2="65.943" y1="197.446" y2="232.216" stroke="#000" stroke-width=".1"/><line id="simplify_339" x1="65.943" x2="64.026" y1="232.216" y2="232.216" stroke="#000" stroke-width=".1"/><line id="simplify_340" x1="58.72" x2="61.271" y1="232.508" y2="232.508" stroke="#000" stroke-width=".1"/><line id="simplify_341" x1="61.889" x2="61.271" y1="232.508" y2="232.508" stroke="#000" stroke-width=".1"/><line id="simplify_342" x1="61.889" x2="63.156" y1="232.508" y2="232.508" stroke="#000" stroke-width=".1"/><line id="simplify_344" x1="32.002" x2="67.122" y1="194.326" y2="194.326" stroke="#000" stroke-width=".1"/><line id="simplify_347" x1="31.092" x2="68.032" y1="195.464" y2="195.464" stroke="#000" stroke-width=".1"/><line id="simplify_348" x1="31.092" x2="68.032" y1="196.658" y2="196.658" stroke="#000" stroke-width=".1"/><line id="simplify_351" x1="65.943" x2="65.667" y1="232.216" y2="232.508" stroke="#000" stroke-width=".1"/><line id="simplify_352" x1="63.156" x2="63.156" y1="232.508" y2="197.446" stroke="#000" stroke-width=".1"/><line id="simplify_353" x1="61.889" x2="61.889" y1="232.508" y2="197.446" stroke="#000" stroke-width=".1"/><line id="simplify_354" x1="61.271" x2="61.271" y1="232.508" y2="197.446" stroke="#000" stroke-width=".1"/><line id="simplify_355" x1="54.234" x2="54.234" y1="232.508" y2="197.446" stroke="#000" stroke-width=".1"/><line id="simplify_358" x1="58.508" x2="54.567" y1="232.216" y2="232.216" stroke="#000" stroke-width=".1"/><line id="simplify_360" x1="54.567" x2="54.234" y1="232.216" y2="232.508" stroke="#000" stroke-width=".1"/><line id="simplify_362" x1="40.404" x2="40.404" y1="197.446" y2="232.508" stroke="#000" stroke-width=".1"/><line id="simplify_364" x1="75.636" x2="23.457" y1="191.872" y2="191.872" stroke="#000" stroke-width=".1"/><line id="simplify_365" x1="24.509" x2="74.463" y1="136.187" y2="136.187" stroke="#000" stroke-width=".1"/><line id="simplify_366" x1="46.742" x2="46.742" y1="232.508" y2="197.446" stroke="#000" stroke-width=".1"/><line id="simplify_367" x1="45.353" x2="45.353" y1="232.508" y2="197.446" stroke="#000" stroke-width=".1"/><line id="simplify_368" x1="47.376" x2="47.376" y1="232.508" y2="197.446" stroke="#000" stroke-width=".1"/><line id="simplify_369" x1="44.557" x2="44.557" y1="232.216" y2="197.446" stroke="#000" stroke-width=".1"/><line id="simplify_370" x1="40.616" x2="40.616" y1="232.216" y2="197.446" stroke="#000" stroke-width=".1"/><line id="simplify_371" x1="35.098" x2="35.098" y1="197.446" y2="232.216" stroke="#000" stroke-width=".1"/><line id="simplify_372" x1="33.181" x2="33.181" y1="197.446" y2="232.216" stroke="#000" stroke-width=".1"/><line id="simplify_373" x1="33.181" x2="35.098" y1="232.216" y2="232.216" stroke="#000" stroke-width=".1"/><line id="simplify_374" x1="40.404" x2="37.853" y1="232.508" y2="232.508" stroke="#000" stroke-width=".1"/><line id="simplify_375" x1="37.235" x2="37.853" y1="232.508" y2="232.508" stroke="#000" stroke-width=".1"/><line id="simplify_376" x1="37.235" x2="35.968" y1="232.508" y2="232.508" stroke="#000" stroke-width=".1"/><line id="simplify_382" x1="33.181" x2="33.457" y1="232.216" y2="232.508" stroke="#000" stroke-width=".1"/><line id="simplify_383" x1="35.968" x2="35.968" y1="232.508" y2="197.446" stroke="#000" stroke-width=".1"/><line id="simplify_384" x1="37.235" x2="37.235" y1="232.508" y2="197.446" stroke="#000" stroke-width=".1"/><line id="simplify_385" x1="37.853" x2="37.853" y1="232.508" y2="197.446" stroke="#000" stroke-width=".1"/><line id="simplify_386" x1="44.89" x2="44.89" y1="232.508" y2="197.446" stroke="#000" stroke-width=".1"/><line id="simplify_387" x1="31.092" x2="68.032" y1="182.609" y2="182.609" stroke="#000" stroke-width=".1"/><line id="simplify_390" x1="40.616" x2="44.557" y1="232.216" y2="232.216" stroke="#000" stroke-width=".1"/><line id="simplify_392" x1="44.557" x2="44.89" y1="232.216" y2="232.508" stroke="#000" stroke-width=".1"/><line id="simplify_393" x1="63.311" x2="35.813" y1="173.744" y2="173.744" stroke="#000" stroke-width=".1"/><polygon id="center_00" cx="49.562" cy="173.744" fill="none" stroke="#000" stroke-width=".1" points="61.885 173.744 61.818 175.032 61.616 176.306 61.282 177.552 60.82 178.756 60.234 179.906 59.532 180.987 58.72 181.99 57.808 182.902 56.805 183.714 55.724 184.416 54.574 185.002 53.37 185.464 52.124 185.798 50.85 186 49.562 186.067 48.274 186 47 185.798 45.754 185.464 44.55 185.002 43.4 184.416 42.319 183.714 41.316 182.902 40.404 181.99 39.592 180.987 38.89 179.906 38.304 178.756 37.842 177.552 37.508 176.306 37.306 175.032 37.239 173.744 37.306 172.456 37.508 171.182 37.842 169.936 38.304 168.732 38.89 167.582 39.592 166.501 40.404 165.498 41.316 164.586 42.319 163.774 43.4 163.072 44.55 162.486 45.754 162.024 47 161.69 48.274 161.488 49.562 161.421 50.85 161.488 52.124 161.69 53.37 162.024 54.574 162.486 55.724 163.072 56.805 163.774 57.808 164.586 58.72 165.498 59.532 166.501 60.234 167.582 60.82 168.732 61.282 169.936 61.616 171.182 61.818 172.456"/></g></svg>