<svg xmlns="http://www.w3.org/2000/svg" width="297mm" height="210mm" viewBox="0 0 297 210"><g id="_tag_32_"><polygon id="simplify_2" fill="none" stroke="#000" stroke-width=".1" points="247.641 508.737 244.212 507.885 240.724 507.389 237.156 507.33 233.648 507.607 230.22 508.241 226.811 509.292 223.58 510.679 220.508 512.364 217.634 514.385 215.474 516.288 226.038 537.039 226.454 537.752 245.401 558.86 246.591 559.911 247.998 560.743 249.524 561.159 251.129 561.298 252.735 561.1 254.281 560.545 255.608 559.633 256.738 558.504 257.63 557.116 258.125 555.57 258.344 553.965 258.205 552.359 254.697 535.79 248.275 509.351 248.196 509.212 248.196 509.153 248.137 509.014 247.998 508.935 247.918 508.875 247.839 508.796 247.7 508.737"/><polygon id="simplify_3_1" fill="none" stroke="#000" stroke-width=".1" points="297.237 200.662 293.714 197.831 287.248 200.662 286.294 208.072 285.347 215.498 284.406 222.936 283.469 230.379 282.534 237.822 281.6 245.261 280.666 252.689 279.728 260.101 246.966 519.587 246.372 524.315 254.835 535.85 254.914 535.85 255.9 528.028 289.737 260.101 290.641 252.923 291.548 245.745 292.458 238.568 293.37 231.391 294.283 224.215 295.194 217.038 296.104 209.861 297.011 202.684 297.237 200.662" class="fil0 str0"/><polygon id="simplify_4_1" fill="none" stroke="#000" stroke-width=".1" points="298.755 183.816 280.858 183.816 280.858 200.663 298.755 200.663 298.755 198.557 298.755 196.451 298.755 194.345 298.755 192.239 298.755 190.133 298.755 188.028 298.755 185.922 298.755 183.816" class="fil0 str0"/><polygon id="simplify_5" fill="none" stroke="#000" stroke-width=".1" points="73.963 204.448 73.269 204.448 73.269 204.587 73.269 205.142 73.269 206.113 73.269 206.965 74.398 206.185"/><polygon id="simplify_6_1" fill="none" stroke="#000" stroke-width=".1" points="73.269 208.709 73.269 210.413 73.269 212.118 73.269 213.822 73.269 215.527 73.269 217.231 73.269 218.936 73.269 220.64 73.269 222.345 76.262 222.345 76.262 220.526 76.262 218.708 76.262 216.889 76.262 215.071 76.262 213.253 76.262 211.434 76.262 209.616 76.262 207.797 76.262 207.104 76.384 206.345 76.757 205.637 77.451 205.003 78.363 204.448 79.274 203.873 80.186 203.318 86.469 199.473 87.38 198.779 88.153 197.947 88.649 196.956 88.986 195.906 89.125 194.796 89.125 186.253 86.132 186.253 86.132 194.796 86.132 195.271 85.914 195.767 85.716 196.183 85.359 196.619 84.943 196.897 75.925 202.406 75.509 202.684 75.464 202.721 75.419 202.758 75.375 202.795 75.33 202.833 75.286 202.87 75.241 202.907 75.196 202.944 75.152 202.981 74.795 203.318 73.963 204.448 73.408 205.835 73.269 207.104 73.269 207.304 73.269 207.505 73.269 207.706 73.269 207.906 73.269 208.107 73.269 208.308 73.269 208.508 73.269 208.709" class="fil0 str0"/><g id="simplify_7_1"><polygon id="simplify_7___0" fill="none" stroke="#000" stroke-width=".1" points="361.464 188.85 358.451 188.85 358.451 188.017 358.451 187.879 358.392 187.661 358.313 187.443 358.174 187.304 358.035 187.245 357.837 187.106 357.698 187.027 357.48 187.027 339.227 187.027 339.069 187.064 338.949 187.106 338.81 187.165 338.672 187.245 338.575 187.34 338.514 187.472 338.454 187.661 338.454 187.8 338.454 188.018 338.454 188.156 338.454 188.295 338.402 188.535 338.3 188.734 338.068 188.887 337.886 188.959 337.7 188.989 336.155 188.989 335.798 188.85 335.659 188.711 335.52 188.434 335.461 188.156 335.461 186.055 335.52 185.639 335.659 185.282 335.798 184.926 336.095 184.648 336.373 184.371 336.709 184.232 337.066 184.093 337.482 184.093 340 184.093 340.079 184.173 340.218 184.232 340.356 184.311 340.495 184.371 340.634 184.371 340.772 184.371 340.911 184.311 341.05 184.232 341.189 184.173 341.268 184.093 343.012 184.093 343.012 184.173 343.072 184.173 343.21 184.232 343.349 184.311 343.488 184.371 343.646 184.371 343.785 184.371 343.844 184.311 343.983 184.232 344.122 184.173 344.201 184.173 344.201 184.093 352.942 184.093 352.942 184.173 353.001 184.173 353.14 184.232 353.278 184.311 353.358 184.371 353.496 184.371 353.635 184.371 353.774 184.311 353.913 184.232 354.051 184.173 354.131 184.173 354.131 184.093 354.349 184.093 354.567 184.093 354.785 184.093 355.003 184.093 355.221 184.093 355.439 184.093 355.657 184.093 355.875 184.093 355.934 184.173 356.014 184.173 356.073 184.232 356.232 184.311 356.37 184.371 356.509 184.371 356.648 184.371 356.787 184.311 356.925 184.232 356.985 184.173 357.064 184.173 357.123 184.093 357.413 184.093 357.703 184.093 357.993 184.093 358.283 184.093 358.573 184.093 358.863 184.093 359.153 184.093 359.442 184.093 359.859 184.093 360.215 184.232 360.552 184.371 360.83 184.648 361.107 184.926 361.325 185.282 361.404 185.639 361.464 186.055 361.464 188.85" class="fil0 str0"/><polygon id="simplify_7___1" fill="none" stroke="#000" stroke-width=".1" points="361.464 188.85 358.451 188.85 358.451 193.884 358.451 194.023 358.531 194.241 358.59 194.38 358.749 194.518 358.887 194.657 359.026 194.716 359.165 194.716 359.363 194.796 360.493 194.796 360.632 194.716 360.77 194.716 360.968 194.657 361.107 194.518 361.186 194.439 361.325 194.3 361.404 194.102 361.464 193.944 361.464 193.745 361.464 188.85" class="fil0 str0"/></g><line id="simplify_8" x1="358.452" x2="361.464" y1="188.85" y2="188.85" stroke="#000" stroke-width=".1"/><line id="simplify_9" x1="280.858" x2="298.755" y1="185.064" y2="185.064" stroke="#000" stroke-width=".1"/><line id="simplify_10" x1="298.755" x2="280.858" y1="184.093" y2="184.093" stroke="#000" stroke-width=".1"/><polygon id="simplify_11" fill="none" stroke="#000" stroke-width=".1" points="215.474 516.268 215.474 516.288 200.372 486.559 150.03 387.481 95.427 279.96 93.683 276.115 92.415 272.468 91.444 268.762 90.889 265.135 90.532 260.795 90.611 260.101 91.444 250.171 96.339 217.37 97.112 211.92 97.865 206.965 98.499 202.625 98.717 200.94 89.125 198.225 88.847 199.969 88.292 204.012 87.658 208.154 87.044 212.197 86.469 215.983 81.435 250.171 80.681 260.101 80.681 261.013 81.018 266.384 81.791 270.724 82.901 275.263 84.447 279.822 86.548 284.499 136.89 383.497 191.572 491.038 217.837 542.756 226.375 537.752 226.038 537.039"/><polyline id="simplify_SVG__000007" fill="none" stroke="#000" stroke-width=".1" points="254.697 535.79 254.697 535.711 254.697 535.652 254.637 535.572 254.637 535.513 254.558 535.434"/><polygon id="simplify_13" fill="none" stroke="#000" stroke-width=".1" points="238.623 517.953 238.623 517.616 238.405 517.041 238.266 516.843 238.068 516.625 237.85 516.427 237.295 516.129 235.967 515.654 234.56 515.376 233.094 515.158 231.706 515.099 230.22 515.158 228.832 515.376 227.425 515.654 226.038 516.129 225.542 516.427 225.344 516.625 225.126 516.843 224.987 517.041 224.849 517.318 224.769 517.616 224.769 517.953 224.908 519.499 225.404 521.025 226.177 522.353 227.286 523.482 228.614 524.315 230.081 524.87 231.706 525.009 233.232 524.87 234.778 524.315 236.106 523.482 237.156 522.353 237.989 521.025 238.484 519.499"/><polygon id="simplify_14" fill="none" stroke="#000" stroke-width=".1" points="254.003 553.886 253.785 552.855 253.23 551.943 252.457 551.23 251.407 550.893 250.356 550.893 249.385 551.23 248.553 551.943 247.998 552.855 247.839 553.886 247.998 554.936 248.553 555.848 249.385 556.561 250.356 556.898 251.407 556.898 252.457 556.561 253.23 555.848 253.785 554.936"/><polygon id="simplify_17" fill="none" stroke="#000" stroke-width=".1" points="106.962 183.816 89.125 183.816 89.125 200.94 106.962 200.94"/><line id="simplify_18" x1="89.125" x2="106.962" y1="184.173" y2="184.173" stroke="#000" stroke-width=".1"/><line id="simplify_19" x1="89.125" x2="106.962" y1="185.144" y2="185.144" stroke="#000" stroke-width=".1"/><polygon id="simplify_20" fill="none" stroke="#000" stroke-width=".1" points="397.199 140.808 398.17 139.836 399.359 139.202 400.687 139.004 402.015 139.063 403.284 139.48 404.393 140.253 405.246 141.303 405.801 142.571 405.999 143.899 405.801 145.366 405.246 146.476 404.889 147.11 404.393 147.943 391.61 169.348 388.875 173.193 386.14 175.987 384.534 177.375 383.206 178.365 382.017 179.138 379.579 180.605 376.071 182.072 371.533 183.32 366.082 183.816 58.226 183.816 55.431 183.955 53.271 184.232 51.368 184.648 49.763 185.064 48.514 185.421 45.442 186.749 42.351 188.434 40.27 189.9 37.752 192.061 34.938 195.073 32.996 197.868 31.172 201.297 30.201 203.734 29.428 206.251 28.854 209.264 26.138 227.518 26 229.341 26 230.867 26.059 232.473 26.416 234.712 26.971 236.734 27.882 238.914 28.854 240.658 29.706 241.986 31.034 243.591 32.857 245.336 35.295 247.159 37.455 248.348 40.051 249.319 41.875 249.815 43.678 250.092 45.779 250.171 319.477 250.171 320.279 250.171 322.182 249.894 324.065 249.319 325.809 248.427 327.355 247.298 328.742 245.91 329.793 244.444 333.025 243.135 338.346 246.422 338.315 249.537 337.622 250.588 336.016 252.689 334.133 254.512 332.092 256.177 329.872 257.505 327.494 258.634 324.977 259.388 322.38 259.883 319.863 260.101 319.437 260.101 45.779 260.101 43.342 260.022 40.745 259.685 38.307 259.189 35.156 258.139 32.282 256.87 29.21 255.067 26.911 253.323 25.088 251.698 22.987 249.399 20.688 246.327 18.587 242.343 17.259 238.775 16.347 234.851 16.07 231.997 16.07 228.905 16.347 226.111 19.003 207.797 19.637 204.507 20.609 201.158 21.738 198.086 23.681 194.162 25.782 190.812 28.576 187.245 31.093 184.648 33.749 182.349 36.623 180.328 39.556 178.564 42.787 177.037 45.779 175.908 49.426 174.857 53.747 174.164 58.226 173.886 366.082 173.886 368.104 173.748 370.145 173.47 371.81 173.054 373.634 172.42 374.962 171.785 376.646 170.814 378.668 169.407 380.134 168.02 381.68 166.256 383.068 164.234 396.704 141.521"/><polygon id="center_00" cx="250.921" cy="553.895" fill="none" stroke="#000" stroke-width=".1" points="252.075 553.895 252.068 554.016 252.05 554.135 252.018 554.252 251.975 554.364 251.92 554.472 251.854 554.573 251.778 554.667 251.693 554.752 251.599 554.828 251.498 554.894 251.39 554.949 251.278 554.992 251.161 555.024 251.042 555.042 250.921 555.049 250.8 555.042 250.681 555.024 250.564 554.992 250.452 554.949 250.344 554.894 250.243 554.828 250.149 554.752 250.064 554.667 249.988 554.573 249.922 554.472 249.867 554.364 249.824 554.252 249.792 554.135 249.774 554.016 249.767 553.895 249.774 553.774 249.792 553.655 249.824 553.538 249.867 553.426 249.922 553.318 249.988 553.217 250.064 553.123 250.149 553.038 250.243 552.962 250.344 552.896 250.452 552.841 250.564 552.798 250.681 552.766 250.8 552.748 250.921 552.741 251.042 552.748 251.161 552.766 251.278 552.798 251.39 552.841 251.498 552.896 251.599 552.962 251.693 553.038 251.778 553.123 251.854 553.217 251.92 553.318 251.975 553.426 252.018 553.538 252.05 553.655 252.068 553.774"/><polyline id="simplify_SVG__000015" fill="none" stroke="#000" stroke-width=".1" points="339.167 250.092 338.949 249.953 338.533 249.676 338.394 249.617"/><polyline id="simplify_SVG__000016" fill="none" stroke="#000" stroke-width=".1" points="329.793 244.503 330.15 244.721 330.764 245.058 331.616 245.553 332.587 246.188 333.777 246.802 334.906 247.516 336.016 248.209 336.928 248.764 337.701 249.18 338.117 249.478 338.256 249.537"/><line id="simplify_25" x1="335.184" x2="336.095" y1="233.741" y2="234.078" stroke="#000" stroke-width=".1"/><polygon id="simplify_26_1" fill="none" stroke="#000" stroke-width=".1" points="345.391 241.768 345.391 241.768 345.668 241.213 345.668 240.737 345.589 240.242 345.45 240.024 344.261 238.835 342.378 237.229 340.634 235.981 340 235.624 336.987 234.375 335.184 233.741 334.827 233.662 334.609 233.662 334.272 233.741 333.915 233.88 333.579 234.157 333.281 234.514 328.961 243.948 330.217 244.746 331.49 245.517 332.773 246.27 334.063 247.015 335.352 247.761 336.636 248.516 337.91 249.29 339.168 250.092 345.391 241.768" class="fil3 str0"/><line id="simplify_27" x1="335.105" x2="345.113" y1="233.741" y2="239.687" stroke="#000" stroke-width=".1"/><polyline id="simplify_SVG__000019" fill="none" stroke="#000" stroke-width=".1" points="333.281 234.514 345.252 241.629 345.391 241.768"/></g></svg>
