<svg xmlns="http://www.w3.org/2000/svg" width="297mm" height="210mm" viewBox="0 0 297 210"><g id="_tag_11_"><g id="_tag_12_"><polygon id="_190333512_1" fill="none" stroke="#000" stroke-width=".1" points="227.612 479.457 228.189 480.099 228.832 480.674 229.536 481.177 230.295 481.601 231.102 481.942 231.951 482.192 232.838 482.347 233.755 482.4 233.755 482.4 235.344 482.24 236.824 481.78 238.163 481.053 239.33 480.09 240.293 478.923 241.02 477.584 241.479 476.104 241.64 474.516 241.64 474.516 241.639 474.431 241.638 474.347 241.636 474.262 241.633 474.178 241.629 474.095 241.624 474.011 241.618 473.928 241.612 473.845 240.781 461.944 239.531 444.031 207.822 456.521 227.612 479.457" class="fil0 str0"/><g id="_224007272_1"><polyline id="_224007272___0" fill="none" stroke="#000" stroke-width=".1" points="229.476 478.274 225.937 474.807 222.101 470.992" class="fil0 str0"/><polygon id="_224007272___1" fill="none" stroke="#000" stroke-width=".1" points="229.476 478.274" class="fil0 str0"/></g><g id="_224007920_1"><polyline id="_224007920___0" fill="none" stroke="#000" stroke-width=".1" points="239.676 463.987 239.53 469.366 239.468 474.745" class="fil0 str0"/><polygon id="_224007920___1" fill="none" stroke="#000" stroke-width=".1" points="239.676 463.987" class="fil0 str0"/></g><g id="_224010224_1"><polyline id="_224010224___0" fill="none" stroke="#000" stroke-width=".1" points="239.676 463.987 239.759 464.154 239.968 464.154 240.197 463.924 240.427 463.487 240.718 462.528 240.781 461.944" class="fil0 str0"/><polygon id="_224010224___1" fill="none" stroke="#000" stroke-width=".1" points="239.676 463.987" class="fil0 str0"/></g><g id="_224011160_1"><polyline id="_224011160___0" fill="none" stroke="#000" stroke-width=".1" points="219.682 470.179 220.328 470.7 221.287 471.201 221.663 471.284 221.954 471.347 222.1 471.201 222.1 470.992" class="fil0 str0"/><polygon id="_224011160___1" fill="none" stroke="#000" stroke-width=".1" points="219.682 470.179" class="fil0 str0"/></g><line id="_224011688" x1="239.468" x2="241.611" y1="474.745" y2="473.845" stroke="#000" stroke-width=".1"/><line id="_224011448" x1="227.626" x2="229.787" y1="479.436" y2="478.579" stroke="#000" stroke-width=".1"/><polygon id="_190332168" fill="none" stroke="#000" stroke-width=".1" points="233.169 453.271 233.297 453.689 233.349 454.133 233.324 454.598 233.222 455.08 233.045 455.573 232.795 456.071 232.473 456.57 232.085 457.063 231.633 457.545 231.123 458.012 230.561 458.457 229.953 458.877 229.304 459.265 228.624 459.619 227.918 459.935 227.195 460.208 226.462 460.436 225.728 460.616 225 460.746 224.288 460.826 223.597 460.853 222.937 460.829 222.313 460.752 221.734 460.624 221.205 460.447 220.733 460.221 220.322 459.951 219.976 459.638 219.7 459.286 219.497 458.899 219.369 458.481 219.317 458.037 219.342 457.572 219.444 457.09 219.621 456.597 219.871 456.099 220.193 455.6 220.581 455.107 221.033 454.625 221.543 454.158 222.105 453.713 222.713 453.293 223.362 452.905 224.042 452.551 224.748 452.235 225.471 451.962 226.204 451.734 226.938 451.554 227.666 451.424 228.378 451.344 229.069 451.317 229.729 451.341 230.353 451.418 230.932 451.546 231.461 451.723 231.933 451.949 232.344 452.219 232.69 452.532 232.966 452.884"/><polygon id="_190332720" cx="233.755" cy="474.516" fill="none" stroke="#000" stroke-width=".1" points="239.434 474.516 239.403 475.11 239.31 475.697 239.156 476.271 238.943 476.826 238.673 477.356 238.35 477.854 237.976 478.316 237.555 478.737 237.093 479.111 236.595 479.434 236.065 479.704 235.51 479.917 234.936 480.071 234.349 480.164 233.755 480.195 233.161 480.164 232.574 480.071 232 479.917 231.445 479.704 230.915 479.434 230.417 479.111 229.955 478.737 229.534 478.316 229.16 477.854 228.837 477.356 228.567 476.826 228.354 476.271 228.2 475.697 228.107 475.11 228.076 474.516 228.107 473.922 228.2 473.335 228.354 472.761 228.567 472.206 228.837 471.676 229.16 471.178 229.534 470.716 229.955 470.295 230.417 469.921 230.915 469.598 231.445 469.328 232 469.115 232.574 468.961 233.161 468.868 233.755 468.837 234.349 468.868 234.936 468.961 235.51 469.115 236.065 469.328 236.595 469.598 237.093 469.921 237.555 470.295 237.976 470.716 238.35 471.178 238.673 471.676 238.943 472.206 239.156 472.761 239.31 473.335 239.403 473.922"/><line id="_190332696" x1="208.346" x2="239.592" y1="457.216" y2="444.908" stroke="#000" stroke-width=".1"/><polygon id="_190332600" cx="233.755" cy="474.516" fill="none" stroke="#000" stroke-width=".1" points="236.975 474.516 236.958 474.853 236.905 475.186 236.818 475.511 236.697 475.826 236.544 476.126 236.36 476.409 236.148 476.671 235.91 476.909 235.648 477.121 235.365 477.305 235.065 477.458 234.75 477.579 234.425 477.666 234.092 477.719 233.755 477.736 233.418 477.719 233.085 477.666 232.76 477.579 232.445 477.458 232.145 477.305 231.862 477.121 231.6 476.909 231.362 476.671 231.15 476.409 230.966 476.126 230.813 475.826 230.692 475.511 230.605 475.186 230.552 474.853 230.535 474.516 230.552 474.179 230.605 473.846 230.692 473.521 230.813 473.206 230.966 472.906 231.15 472.623 231.362 472.361 231.6 472.123 231.862 471.911 232.145 471.727 232.445 471.574 232.76 471.453 233.085 471.366 233.418 471.313 233.755 471.296 234.092 471.313 234.425 471.366 234.75 471.453 235.065 471.574 235.365 471.727 235.648 471.911 235.91 472.123 236.148 472.361 236.36 472.623 236.544 472.906 236.697 473.206 236.818 473.521 236.905 473.846 236.958 474.179"/><line id="_190332384" x1="222.101" x2="220.742" y1="470.992" y2="469.347" stroke="#000" stroke-width=".1"/><line id="_190332432" x1="239.676" x2="239.429" y1="463.987" y2="462.227" stroke="#000" stroke-width=".1"/></g><polyline id="simplify_SVG__000009" fill="none" stroke="#000" stroke-width=".1" points="248.562 455.253 248.562 455.253 245.557 424.255"/><polygon id="center_00" cx="233.755" cy="474.516" fill="none" stroke="#000" stroke-width=".1" points="235.151 474.516 235.143 474.662 235.121 474.806 235.083 474.947 235.03 475.084 234.964 475.214 234.884 475.337 234.793 475.45 234.689 475.554 234.576 475.645 234.453 475.725 234.323 475.791 234.186 475.844 234.045 475.882 233.901 475.904 233.755 475.912 233.609 475.904 233.465 475.882 233.324 475.844 233.187 475.791 233.057 475.725 232.934 475.645 232.821 475.554 232.717 475.45 232.626 475.337 232.546 475.214 232.48 475.084 232.427 474.947 232.389 474.806 232.367 474.662 232.359 474.516 232.367 474.37 232.389 474.226 232.427 474.085 232.48 473.948 232.546 473.818 232.626 473.695 232.717 473.582 232.821 473.478 232.934 473.387 233.057 473.307 233.187 473.241 233.324 473.188 233.465 473.15 233.609 473.128 233.755 473.12 233.901 473.128 234.045 473.15 234.186 473.188 234.323 473.241 234.453 473.307 234.576 473.387 234.689 473.478 234.793 473.582 234.884 473.695 234.964 473.818 235.03 473.948 235.083 474.085 235.121 474.226 235.143 474.37"/><polygon id="simplify_5_1" fill="none" stroke="#000" stroke-width=".1" points="234.974 384.005 309.773 114.85 316.169 112.096 320.671 114.85 245.091 386.814 245.083 386.818 245.092 386.82 244.656 388.495 244.276 390.191 243.951 391.908 243.682 393.644 243.472 395.398 243.32 397.17 243.228 398.958 243.197 400.762 243.197 400.762 243.2 401.274 243.208 401.785 243.22 402.295 243.238 402.804 243.261 403.312 243.288 403.818 243.32 404.323 243.356 404.827 249.678 461.152 239.429 462.227 232.903 405.83 232.856 405.202 232.814 404.573 232.779 403.941 232.75 403.309 232.727 402.674 232.711 402.038 232.701 401.401 232.697 400.762 232.697 400.762 232.735 398.594 232.845 396.444 233.027 394.315 233.28 392.207 233.603 390.12 233.993 388.057 234.451 386.018 234.974 384.005" class="fil2 str0"/><g id="simplify_6_1"><polygon id="simplify_6___0" fill="none" stroke="#000" stroke-width=".1" points="391.979 104.349 393.037 104.456 394.022 104.762 394.914 105.246 395.691 105.887 396.332 106.664 396.816 107.556 397.122 108.541 397.229 109.599 397.229 109.599 397.122 110.657 396.816 111.642 396.332 112.534 395.691 113.311 394.914 113.952 394.022 114.436 393.037 114.742 391.979 114.849 391.979 114.849 107.726 114.849 101.379 115.489 95.466 117.325 90.115 120.23 85.453 124.076 81.607 128.738 78.702 134.089 76.866 140.002 76.226 146.349 76.226 146.349 76.262 147.865 76.37 149.358 76.546 150.826 76.789 152.271 77.096 153.693 77.465 155.093 77.894 156.471 78.381 157.828 170.889 399.528 171.513 401.082 172.185 402.61 172.904 404.113 173.669 405.588 174.48 407.036 175.335 408.454 176.233 409.843 177.174 411.201 177.173 411.202 220.742 469.347 212.34 475.643 170.098 419.271 169.929 419.052 169.761 418.832 169.593 418.612 169.426 418.391 169.261 418.169 169.096 417.946 168.933 417.722 168.77 417.498 168.767 417.495 168.767 417.495 167.615 415.844 166.515 414.154 165.469 412.427 164.477 410.665 163.541 408.868 162.663 407.037 161.842 405.174 161.081 403.28 68.574 161.58 67.924 159.79 67.354 157.963 66.865 156.102 66.461 154.208 66.143 152.284 65.913 150.331 65.773 148.353 65.726 146.35 65.726 146.35 66.58 137.886 69.027 130.003 72.9 122.869 78.029 116.653 84.245 111.524 91.38 107.651 99.263 105.203 107.726 104.35 391.978 104.349 391.978 104.35" class="fil3 str0"/><polyline id="simplify_6___1" fill="none" stroke="#000" stroke-width=".1" points="391.978 114.85 391.978 114.849" class="fil3 str0"/></g><polygon id="simplify_7_1" fill="none" stroke="#000" stroke-width=".1" points="21.104 214.739 72.132 346.589 72.135 346.591 73.826 350.481 75.819 354.199 78.096 357.729 80.643 361.055 83.443 364.163 86.483 367.036 89.746 369.66 93.217 372.02 128.853 398.08 132.15 400.276 135.616 402.221 139.24 403.902 143.007 405.307 146.906 406.422 150.924 407.235 155.047 407.732 159.262 407.901 254.833 407.901 254.833 418.401 159.262 418.401 154.146 418.194 149.143 417.585 144.27 416.589 139.543 415.223 134.977 413.502 130.589 411.443 126.395 409.063 122.409 406.375 122.832 406.433 87.678 380.94 83.506 378.104 79.585 374.95 75.931 371.497 72.565 367.762 69.504 363.764 66.767 359.521 64.372 355.053 62.339 350.377 11.31 218.524 11.311 218.523 10.781 217.069 10.315 215.586 9.917 214.073 9.587 212.535 9.327 210.971 9.139 209.385 9.025 207.776 8.987 206.148 8.987 206.148 9.678 199.297 11.659 192.915 14.795 187.14 18.947 182.108 23.979 177.956 29.754 174.821 36.136 172.839 42.987 172.148 316.607 172.232 316.607 182.732 42.987 182.648 38.252 183.126 33.841 184.495 29.849 186.662 26.371 189.532 23.501 193.01 21.334 197.002 19.965 201.413 19.487 206.148 19.487 206.148 19.514 207.278 19.593 208.394 19.724 209.496 19.905 210.581 20.135 211.648 20.413 212.697 20.737 213.727 21.107 214.735 21.104 214.738" class="fil0 str0"/><g id="_tag_13_"><polygon id="_223992488" fill="none" stroke="#000" stroke-width=".1" points="336.871 129.84 337.563 127.257 339.727 119.186 340.186 117.643 340.541 116.163 340.916 114.85 323.924 114.85 323.632 115.871 323.34 117.039 322.965 118.29 322.673 118.957 322.236 119.478 321.841 119.699 321.714 119.77 320.985 119.832 318.191 119.832 317.962 123.439 317.232 127.129 316.273 130.653 314.355 137.575 320.866 137.575 326.801 137.575 328.49 137.491 330.179 137.053 331.722 136.386 333.202 135.427 334.432 134.322 335.474 132.925 336.287 131.466"/><polygon id="_190331016" cx="327.521" cy="127.932" fill="none" stroke="#000" stroke-width=".1" points="330.992 127.932 330.973 128.295 330.917 128.654 330.822 129.005 330.692 129.344 330.527 129.668 330.329 129.972 330.101 130.255 329.844 130.512 329.561 130.74 329.257 130.938 328.933 131.103 328.594 131.233 328.243 131.328 327.884 131.384 327.521 131.403 327.158 131.384 326.799 131.328 326.448 131.233 326.109 131.103 325.785 130.938 325.481 130.74 325.198 130.512 324.941 130.255 324.713 129.972 324.515 129.668 324.35 129.344 324.22 129.005 324.125 128.654 324.069 128.295 324.05 127.932 324.069 127.569 324.125 127.21 324.22 126.859 324.35 126.52 324.515 126.196 324.713 125.892 324.941 125.609 325.198 125.352 325.481 125.124 325.785 124.926 326.109 124.761 326.448 124.631 326.799 124.536 327.158 124.48 327.521 124.461 327.884 124.48 328.243 124.536 328.594 124.631 328.933 124.761 329.257 124.926 329.561 125.124 329.844 125.352 330.101 125.609 330.329 125.892 330.527 126.196 330.692 126.52 330.822 126.859 330.917 127.21 330.973 127.569"/></g></g></svg>
