<svg xmlns="http://www.w3.org/2000/svg" width="297mm" height="210mm" viewBox="0 0 297 210"><g id="Ebene_x0020_1"><g id="_130699072"><polygon id="_130705432_1" fill="none" stroke="#000" stroke-width=".1" points="164.417 108.525 184.301 108.525 185.323 108.619 186.277 108.887 187.142 109.311 187.896 109.872 188.518 110.551 188.989 111.33 189.287 112.189 189.391 113.11 189.391 119.78 189.287 120.701 188.989 121.56 188.518 122.338 187.896 123.018 187.142 123.579 186.277 124.003 185.323 124.271 184.301 124.365 171.245 124.365 171.245 129.291 168.395 129.291 164.417 129.291 164.417 108.525"/><polygon id="_130705432" fill="none" stroke="#000" stroke-width=".1" points="181.067 118.777 181.438 118.744 181.783 118.649 182.096 118.498 182.369 118.3 182.595 118.059 182.766 117.783 182.873 117.479 182.911 117.153 182.911 115.651 182.873 115.325 182.766 115.021 182.595 114.745 182.369 114.505 182.096 114.306 181.783 114.156 181.438 114.061 181.067 114.028 181.067 114.028 179.817 114.028 178.573 114.028 177.332 114.028 176.093 114.028 174.854 114.028 173.613 114.028 172.369 114.028 171.119 114.028 171.119 118.777 172.369 118.777 173.613 118.777 174.854 118.777 176.093 118.777 177.332 118.777 178.573 118.777 179.817 118.777 181.067 118.777"/><polygon id="_130705240" fill="none" stroke="#000" stroke-width=".1" points="197.95 108.525 198.722 108.525 198.722 110.712 198.721 110.728 198.721 110.743 198.72 110.759 198.719 110.774 198.719 110.79 198.719 110.805 198.719 110.821 198.719 110.837 198.719 121.497 198.766 121.961 198.901 122.395 199.115 122.787 199.398 123.13 199.74 123.413 200.133 123.626 200.566 123.762 201.03 123.809 210.366 123.809 210.83 123.762 211.263 123.626 211.656 123.413 211.998 123.13 212.281 122.787 212.495 122.395 212.63 121.961 212.677 121.497 212.677 117.308 212.681 117.308 212.681 108.525 213.446 108.525 218.9 108.525 218.9 113.979 218.9 119.601 218.9 123.837 218.788 124.933 218.469 125.955 217.965 126.881 217.298 127.689 216.49 128.356 215.564 128.86 214.542 129.179 213.446 129.291 197.95 129.291 196.854 129.179 195.832 128.86 194.906 128.356 194.098 127.689 193.431 126.881 192.927 125.955 192.608 124.933 192.496 123.837 192.496 119.601 192.496 113.979 192.496 108.525 197.95 108.525"/><polygon id="_130698400" fill="none" stroke="#000" stroke-width=".1" points="227.479 129.291 243.206 129.291 244.249 129.207 245.221 128.965 246.103 128.583 246.872 128.078 247.507 127.467 247.987 126.766 248.29 125.992 248.396 125.163 248.396 121.3 241.865 121.3 241.865 121.669 241.812 122.069 241.659 122.443 241.416 122.781 241.096 123.076 240.708 123.32 240.263 123.505 239.771 123.621 239.245 123.662 231.304 123.662 230.777 123.621 230.286 123.505 229.841 123.32 229.453 123.076 229.132 122.781 228.89 122.443 228.737 122.069 228.684 121.669 228.684 115.628 228.737 115.228 228.89 114.854 229.132 114.516 229.453 114.22 229.841 113.976 230.286 113.792 230.777 113.676 231.304 113.635 239.245 113.635 239.771 113.676 240.263 113.792 240.708 113.976 241.096 114.22 241.416 114.516 241.659 114.854 241.812 115.228 241.865 115.628 241.865 116.126 248.396 116.126 248.396 112.653 248.29 111.824 247.987 111.051 247.507 110.349 246.872 109.738 246.103 109.233 245.221 108.851 244.249 108.609 243.206 108.525 227.479 108.525 226.436 108.609 225.464 108.851 224.582 109.233 223.813 109.738 223.178 110.349 222.698 111.051 222.395 111.824 222.289 112.653 222.289 125.163 222.395 125.992 222.698 126.766 223.178 127.467 223.813 128.078 224.582 128.583 225.464 128.965 226.436 129.207 227.479 129.291"/><polygon id="_130698208" fill="none" stroke="#000" stroke-width=".1" points="271.796 108.525 278.767 108.525 278.767 129.291 271.796 129.291 271.796 122.412 258.267 122.412 258.267 129.291 251.295 129.291 251.295 108.525 258.267 108.525 258.267 116.042 271.796 116.042"/></g><circle id="center_00" cx="212.476" cy="118.908" r="11.921" fill="none" stroke="#000" stroke-width=".1"/></g></svg>
