<svg xmlns="http://www.w3.org/2000/svg" width="297mm" height="210mm" viewBox="0 0 297 210" xml:space="preserve" style="shape-rendering:geometricPrecision;text-rendering:geometricPrecision;image-rendering:optimizeQuality;fill-rule:evenodd;clip-rule:evenodd"><defs><style type="text/css">.str0{stroke:#1f1a17;stroke-width:.0762}.fil1{fill:none}.fil2{fill:#00923f}.fil0{fill:#fff500}</style></defs><g id="Ebene_x0020_1"><metadata id="CorelCorpID_0Corel-Layer"/><polygon points="108.27 71.585 107.795 93.893 107.861 98.154 108.04 101.526 108.631 106.297 106.617 106.489 103.191 103.168 96.227 103.13 92.729 106.6 91.607 105.896 92.298 102.902 92.653 99.639 92.552 94.636 92.25 85.844 97.852 84.676 101.796 83.196 103.819 81.56 105.045 80.085 106.432 77.2 107.582 71.38" class="fil0 str0"/><polyline points="92.946 94.275 94.308 92.366 97.18 91.532 102.733 91.595 106.042 92.76 107.28 94.366" class="fil1 str0"/><polygon points="99.381 100.379 101.936 100.554 103.912 101.186 105.487 102.072 106.868 103.235 108.11 104.786 108.962 106.439 109.494 108.312 109.641 110 109.445 111.864 108.949 113.702 108.189 115.177 107.191 116.545 106.018 117.666 103.744 118.887 102.461 118.698 101.883 117.323 104.185 111.661 104.465 110.575 104.408 109.091 103.955 107.848 103.17 106.804 102.319 106.142 100.76 105.563 99.117 105.587 97.622 106.177 96.688 106.952 96.065 107.814 93.525 112.91 93.145 113.673 91.754 113.909 90.707 112.574 90.488 110.964 90.363 109.726 90.535 108.16 90.878 106.872 91.413 105.422 93.368 103.004 95.189 101.644 96.953 100.851" class="fil2 str0"/><circle cx="100" cy="110" r="4.5" class="fil1 str0"/><circle id="center_00" cx="100" cy="110" r="4.5" class="fil1 str0"/></g></svg>
