<svg xmlns="http://www.w3.org/2000/svg" width="297mm" height="210mm" viewBox="0 0 297 210"><g id="Ebene_x0020_1"><polygon id="_new_634_1" fill="none" stroke="#000" stroke-width=".1" points="151.223 277.878 152.677 278.052 154.141 278.106 155.603 278.029 157.05 277.811 158.47 277.441 159.851 276.909 161.181 276.204 162.448 275.316 162.448 275.316 164.062 273.792 165.366 272.065 166.354 270.181 167.02 268.181 167.36 266.108 167.366 264.004 167.034 261.914 166.357 259.878 166.357 259.878 165.813 258.488 165.014 256.291 164.057 253.463 163.04 250.179 162.059 246.615 161.214 242.948 160.6 239.352 160.316 236.003 160.316 236.003 160.301 235.412 160.277 234.879 160.234 234.409 160.162 234.006 160.05 233.677 159.888 233.425 159.666 233.256 159.374 233.173 159.374 233.173 159.15 233.136 158.949 233.061 158.775 232.946 158.632 232.788 158.523 232.585 158.453 232.335 158.425 232.036 158.443 231.686 158.488 227.666 158.446 227.17 158.33 226.748 158.145 226.398 157.899 226.116 157.601 225.901 157.256 225.75 156.874 225.66 156.46 225.629 151.802 225.289 151.4 225.28 151.015 225.341 150.656 225.471 150.331 225.668 150.051 225.928 149.824 226.251 149.66 226.632 149.569 227.071 149.429 231.752 149.4 231.988 149.362 232.211 149.31 232.417 149.238 232.599 149.14 232.754 149.012 232.877 148.846 232.962 148.638 233.005 148.638 233.005 148.318 233.053 148.059 233.154 147.853 233.305 147.693 233.503 147.572 233.746 147.483 234.03 147.417 234.353 147.369 234.712 147.203 239.268 147.192 240.024 147.17 241.582 147.075 243.758 146.848 246.369 146.426 249.23 145.75 252.158 144.758 254.97 143.389 257.482 143.389 257.482 142.82 258.369 142.328 259.29 141.915 260.24 141.58 261.215 141.324 262.211 141.146 263.225 141.048 264.252 141.028 265.288 141.028 265.288 141.132 266.151 141.382 266.807 141.75 267.268 142.208 267.545 142.728 267.649 143.28 267.593 143.836 267.388 144.369 267.045 151.38 261.449 152.155 260.949 152.987 260.623 153.851 260.468 154.721 260.482 155.574 260.662 156.382 261.004 157.121 261.506 157.765 262.166 157.765 262.166 158.271 262.947 158.601 263.785 158.759 264.653 158.747 265.526 158.569 266.38 158.227 267.189 157.725 267.928 157.066 268.572 149.875 274.311 149.57 274.658 149.357 275.121 149.257 275.657 149.292 276.22 149.485 276.768 149.856 277.257 150.428 277.641 151.223 277.878"/><polygon id="_new_635_1" fill="none" stroke="#000" stroke-width=".1" points="151.372 273.118 150.758 273.736 150.487 274.303 150.5 274.81 150.741 275.253 151.152 275.623 151.676 275.914 152.255 276.118 152.832 276.23 152.832 276.23 153.892 276.297 154.959 276.263 156.024 276.125 157.079 275.883 158.115 275.536 159.124 275.084 160.098 274.524 161.027 273.856 161.027 273.856 162.646 272.275 163.879 270.458 164.72 268.469 165.161 266.372 165.196 264.229 164.817 262.103 164.017 260.058 162.79 258.157 162.79 258.157 161.214 256.546 159.401 255.318 157.416 254.481 155.321 254.042 153.179 254.009 151.054 254.389 149.009 255.189 147.108 256.416 147.108 256.416 146.251 257.174 145.489 257.999 144.824 258.883 144.256 259.816 143.786 260.791 143.416 261.799 143.146 262.832 142.976 263.881 142.976 263.881 142.957 264.468 143.028 265.078 143.195 265.653 143.465 266.136 143.843 266.469 144.335 266.595 144.948 266.456 145.687 265.994 151.225 261.575 152 261.074 152.834 260.746 153.702 260.588 154.577 260.599 155.433 260.775 156.245 261.115 156.987 261.615 157.632 262.274 157.632 262.274 158.137 263.056 158.464 263.895 158.618 264.766 158.603 265.643 158.42 266.5 158.075 267.312 157.57 268.053 156.91 268.698 151.372 273.118"/><polygon id="_new_636_1" fill="none" stroke="#000" stroke-width=".1" points="147.066 254.771 146.854 254.482 147.6 253.934 148.101 254.617 148.092 254.664 148.078 254.712 148.061 254.762 148.041 254.814 148.017 254.867 147.989 254.921 147.957 254.977 147.922 255.034 147.922 255.034 147.884 255.091 147.844 255.145 147.802 255.197 147.759 255.246 147.713 255.294 147.665 255.338 147.615 255.381 147.563 255.421 147.563 255.421 147.496 255.468 147.428 255.509 147.36 255.546 147.291 255.578 147.222 255.604 147.152 255.625 147.082 255.642 147.011 255.653 147.011 255.653 146.941 255.658 146.872 255.659 146.803 255.654 146.736 255.644 146.669 255.629 146.603 255.608 146.538 255.582 146.474 255.551 146.474 255.551 146.411 255.515 146.351 255.476 146.293 255.433 146.237 255.387 146.184 255.337 146.133 255.284 146.084 255.228 146.038 255.168 146.038 255.168 145.991 255.101 145.949 255.033 145.912 254.964 145.88 254.894 145.853 254.824 145.831 254.753 145.813 254.682 145.8 254.609 145.8 254.609 145.793 254.537 145.791 254.466 145.795 254.394 145.804 254.324 145.818 254.254 145.838 254.185 145.864 254.117 145.895 254.049 145.895 254.049 145.923 253.998 145.955 253.947 145.992 253.898 146.033 253.849 146.078 253.801 146.129 253.754 146.183 253.708 146.243 253.662 146.243 253.662 146.322 253.607 146.4 253.56 146.476 253.52 146.551 253.487 146.625 253.461 146.698 253.443 146.769 253.433 146.839 253.43 146.839 253.43 146.908 253.433 146.975 253.443 147.04 253.459 147.104 253.481 147.166 253.509 147.226 253.543 147.285 253.584 147.342 253.63 147.046 253.947 147.013 253.924 146.98 253.903 146.945 253.886 146.91 253.872 146.875 253.862 146.838 253.854 146.801 253.849 146.763 253.848 146.763 253.848 146.724 253.85 146.686 253.855 146.648 253.863 146.61 253.875 146.572 253.891 146.535 253.91 146.497 253.932 146.46 253.958 146.46 253.958 146.406 254.001 146.359 254.046 146.317 254.093 146.282 254.143 146.254 254.196 146.231 254.25 146.215 254.307 146.204 254.367 146.204 254.367 146.201 254.428 146.205 254.49 146.217 254.554 146.235 254.619 146.262 254.685 146.295 254.753 146.336 254.822 146.384 254.892 146.384 254.892 146.441 254.964 146.498 255.029 146.556 255.085 146.614 255.134 146.674 255.175 146.734 255.208 146.795 255.233 146.856 255.25 146.856 255.25 146.918 255.26 146.978 255.263 147.038 255.26 147.097 255.249 147.155 255.232 147.212 255.209 147.268 255.179 147.324 255.142 147.324 255.142 147.35 255.121 147.376 255.099 147.401 255.075 147.425 255.051 147.448 255.025 147.469 254.997 147.49 254.968 147.51 254.938 147.51 254.938 147.529 254.908 147.547 254.877 147.563 254.847 147.577 254.817 147.591 254.787 147.602 254.757 147.613 254.727 147.622 254.697 147.462 254.48 147.066 254.771"/><polygon id="_new_636_2" fill="none" stroke="#000" stroke-width=".1" points="148.642 254.709 148.455 254.347 148.817 254.16 149.004 254.522 148.642 254.709"/><polygon id="_new_636_3" fill="none" stroke="#000" stroke-width=".1" points="149.365 254.35 148.592 252.368 149.234 252.118 149.321 252.085 149.401 252.055 149.473 252.03 149.538 252.008 149.595 251.991 149.645 251.978 149.687 251.968 149.721 251.963 149.721 251.963 149.768 251.959 149.814 251.96 149.86 251.964 149.905 251.972 149.95 251.985 149.995 252.001 150.039 252.021 150.082 252.045 150.082 252.045 150.124 252.074 150.164 252.106 150.201 252.142 150.235 252.183 150.267 252.228 150.297 252.276 150.323 252.329 150.348 252.386 150.348 252.386 150.364 252.431 150.378 252.475 150.388 252.519 150.396 252.561 150.402 252.602 150.404 252.642 150.404 252.681 150.401 252.719 150.401 252.719 150.395 252.756 150.388 252.792 150.379 252.826 150.369 252.859 150.356 252.891 150.342 252.922 150.326 252.952 150.309 252.98 150.309 252.98 150.29 253.007 150.27 253.032 150.25 253.056 150.229 253.079 150.207 253.1 150.185 253.12 150.162 253.138 150.138 253.155 150.138 253.155 150.103 253.176 150.063 253.198 150.019 253.221 149.971 253.244 149.918 253.269 149.861 253.293 149.8 253.319 149.734 253.345 149.473 253.447 149.765 254.194 149.365 254.35"/><polygon id="_new_636_4" fill="none" stroke="#000" stroke-width=".1" points="149.123 252.548 149.342 253.11 149.561 253.025 149.617 253.002 149.668 252.98 149.714 252.96 149.755 252.94 149.791 252.921 149.821 252.903 149.846 252.886 149.865 252.87 149.865 252.87 149.881 252.854 149.896 252.838 149.909 252.821 149.921 252.803 149.931 252.784 149.939 252.765 149.947 252.745 149.952 252.724 149.952 252.724 149.956 252.703 149.958 252.682 149.959 252.661 149.958 252.639 149.955 252.618 149.951 252.596 149.945 252.574 149.937 252.553 149.937 252.553 149.926 252.527 149.913 252.502 149.899 252.48 149.883 252.46 149.866 252.442 149.847 252.426 149.826 252.411 149.804 252.399 149.804 252.399 149.781 252.388 149.758 252.38 149.734 252.374 149.71 252.37 149.685 252.368 149.66 252.368 149.635 252.37 149.609 252.374 149.609 252.374 149.588 252.378 149.562 252.385 149.532 252.394 149.497 252.406 149.459 252.419 149.415 252.435 149.368 252.453 149.316 252.473 149.123 252.548"/><polygon id="_new_636_5" fill="none" stroke="#000" stroke-width=".1" points="150.864 253.787 150.756 253.394 151.149 253.287 151.257 253.68 150.864 253.787"/><polygon id="_new_636_6" fill="none" stroke="#000" stroke-width=".1" points="151.957 253.498 151.183 251.452 151.619 251.397 152.123 252.805 152.323 251.306 152.829 251.242 153.388 252.668 153.523 251.153 153.951 251.098 153.709 253.273 153.258 253.331 152.636 251.808 152.419 253.438 151.957 253.498"/><polygon id="_new_636_7" fill="none" stroke="#000" stroke-width=".1" points="154.447 253.324 154.621 251.204 155.049 251.24 154.875 253.359 154.447 253.324"/><polygon id="_new_636_8" fill="none" stroke="#000" stroke-width=".1" points="155.289 253.374 155.645 251.294 156.068 251.366 155.773 253.093 156.826 253.272 156.765 253.626 155.29 253.374"/><polygon id="_new_636_9" fill="none" stroke="#000" stroke-width=".1" points="157.206 252.99 157.612 253.1 157.604 253.151 157.599 253.2 157.598 253.247 157.6 253.291 157.606 253.332 157.616 253.372 157.629 253.409 157.645 253.443 157.645 253.443 157.665 253.475 157.689 253.506 157.716 253.534 157.746 253.56 157.78 253.584 157.817 253.607 157.857 253.627 157.902 253.645 157.902 253.645 157.949 253.662 157.994 253.675 158.038 253.684 158.079 253.689 158.119 253.691 158.156 253.689 158.192 253.683 158.225 253.673 158.225 253.673 158.256 253.661 158.284 253.647 158.31 253.631 158.333 253.612 158.353 253.592 158.37 253.57 158.384 253.545 158.396 253.519 158.396 253.519 158.402 253.501 158.406 253.484 158.409 253.467 158.41 253.45 158.41 253.433 158.408 253.416 158.405 253.399 158.4 253.383 158.4 253.383 158.393 253.367 158.384 253.35 158.374 253.333 158.361 253.315 158.346 253.297 158.328 253.279 158.309 253.261 158.288 253.242 158.288 253.242 158.27 253.228 158.247 253.21 158.219 253.189 158.185 253.165 158.146 253.137 158.102 253.106 158.053 253.071 157.999 253.034 157.999 253.034 157.929 252.984 157.866 252.935 157.809 252.887 157.758 252.841 157.714 252.795 157.676 252.751 157.645 252.708 157.621 252.666 157.621 252.666 157.593 252.607 157.573 252.549 157.559 252.49 157.552 252.432 157.551 252.373 157.557 252.314 157.569 252.255 157.588 252.196 157.588 252.196 157.604 252.159 157.622 252.123 157.642 252.09 157.665 252.057 157.691 252.027 157.719 251.998 157.749 251.97 157.782 251.944 157.782 251.944 157.817 251.921 157.853 251.9 157.891 251.883 157.931 251.868 157.972 251.856 158.015 251.847 158.06 251.84 158.106 251.837 158.106 251.837 158.154 251.836 158.203 251.839 158.253 251.844 158.305 251.853 158.358 251.864 158.412 251.878 158.467 251.895 158.524 251.916 158.524 251.916 158.614 251.952 158.696 251.992 158.77 252.035 158.837 252.081 158.896 252.129 158.947 252.181 158.99 252.235 159.026 252.293 159.026 252.293 159.054 252.352 159.076 252.413 159.09 252.476 159.098 252.539 159.099 252.604 159.092 252.67 159.079 252.738 159.059 252.807 158.651 252.672 158.657 252.632 158.661 252.595 158.662 252.559 158.66 252.525 158.655 252.493 158.647 252.463 158.637 252.436 158.623 252.41 158.623 252.41 158.607 252.386 158.587 252.363 158.563 252.341 158.537 252.32 158.506 252.3 158.472 252.281 158.435 252.263 158.394 252.247 158.394 252.247 158.351 252.232 158.31 252.22 158.27 252.211 158.232 252.206 158.195 252.203 158.159 252.204 158.125 252.208 158.093 252.215 158.093 252.215 158.074 252.221 158.056 252.229 158.039 252.239 158.025 252.251 158.012 252.264 158 252.279 157.991 252.296 157.983 252.314 157.983 252.314 157.977 252.332 157.973 252.35 157.972 252.367 157.973 252.385 157.976 252.403 157.98 252.421 157.988 252.439 157.997 252.457 157.997 252.457 158.013 252.482 158.036 252.509 158.066 252.539 158.102 252.572 158.146 252.607 158.195 252.646 158.252 252.686 158.316 252.73 158.316 252.73 158.38 252.774 158.44 252.817 158.494 252.858 158.544 252.897 158.589 252.934 158.629 252.97 158.665 253.004 158.695 253.037 158.695 253.037 158.722 253.069 158.746 253.102 158.768 253.137 158.787 253.172 158.804 253.208 158.818 253.245 158.83 253.283 158.839 253.323 158.839 253.323 158.845 253.363 158.848 253.404 158.847 253.446 158.844 253.488 158.837 253.532 158.827 253.577 158.814 253.623 158.798 253.669 158.798 253.669 158.781 253.711 158.761 253.751 158.738 253.789 158.712 253.826 158.684 253.861 158.653 253.893 158.619 253.924 158.582 253.954 158.582 253.954 158.544 253.98 158.503 254.004 158.462 254.024 158.418 254.04 158.374 254.054 158.327 254.064 158.279 254.07 158.23 254.074 158.23 254.074 158.179 254.074 158.126 254.071 158.071 254.064 158.014 254.055 157.955 254.042 157.895 254.025 157.833 254.006 157.769 253.983 157.769 253.983 157.679 253.946 157.596 253.905 157.52 253.861 157.452 253.813 157.392 253.763 157.339 253.708 157.293 253.651 157.256 253.59 157.256 253.59 157.225 253.525 157.201 253.458 157.185 253.388 157.175 253.314 157.172 253.238 157.177 253.158 157.188 253.076 157.206 252.99"/><polygon id="_new_636_10" fill="none" stroke="#000" stroke-width=".1" points="159.425 253.433 159.468 253.366 159.512 253.304 159.556 253.246 159.602 253.192 159.649 253.142 159.696 253.097 159.745 253.056 159.794 253.02 159.794 253.02 159.831 252.996 159.869 252.974 159.908 252.953 159.948 252.934 159.988 252.917 160.03 252.902 160.072 252.888 160.116 252.876 160.116 252.876 160.159 252.866 160.202 252.859 160.244 252.853 160.286 252.85 160.328 252.849 160.369 252.85 160.41 252.853 160.45 252.858 160.45 252.858 160.503 252.868 160.557 252.881 160.611 252.897 160.665 252.917 160.72 252.939 160.774 252.965 160.829 252.995 160.884 253.027 160.884 253.027 160.979 253.091 161.065 253.16 161.14 253.233 161.206 253.311 161.262 253.394 161.308 253.482 161.345 253.574 161.371 253.671 161.371 253.671 161.387 253.77 161.392 253.872 161.386 253.974 161.368 254.078 161.339 254.184 161.299 254.291 161.248 254.399 161.185 254.509 161.185 254.509 161.116 254.613 161.042 254.707 160.965 254.79 160.884 254.862 160.8 254.924 160.711 254.976 160.619 255.017 160.523 255.047 160.523 255.047 160.425 255.067 160.327 255.076 160.229 255.074 160.13 255.061 160.031 255.037 159.932 255.003 159.833 254.957 159.734 254.901 159.734 254.901 159.638 254.837 159.552 254.768 159.476 254.694 159.409 254.616 159.353 254.533 159.307 254.446 159.27 254.355 159.244 254.259 159.244 254.259 159.228 254.16 159.223 254.06 159.229 253.958 159.246 253.856 159.274 253.752 159.313 253.647 159.363 253.541 159.425 253.433"/><polygon id="_new_636_11" fill="none" stroke="#000" stroke-width=".1" points="159.808 253.654 159.765 253.729 159.728 253.803 159.699 253.876 159.677 253.946 159.663 254.014 159.655 254.08 159.655 254.145 159.663 254.207 159.663 254.207 159.676 254.267 159.696 254.323 159.72 254.376 159.75 254.426 159.786 254.472 159.827 254.514 159.873 254.553 159.925 254.588 159.925 254.588 159.98 254.619 160.036 254.643 160.092 254.661 160.148 254.672 160.206 254.677 160.263 254.675 160.322 254.667 160.381 254.652 160.381 254.652 160.44 254.631 160.497 254.601 160.553 254.565 160.607 254.52 160.661 254.468 160.713 254.409 160.763 254.342 160.813 254.267 160.813 254.267 160.857 254.19 160.894 254.116 160.924 254.044 160.946 253.974 160.961 253.907 160.969 253.842 160.97 253.779 160.963 253.719 160.963 253.719 160.95 253.661 160.931 253.606 160.906 253.554 160.875 253.506 160.839 253.46 160.797 253.418 160.749 253.378 160.695 253.342 160.695 253.342 160.639 253.31 160.582 253.285 160.525 253.266 160.467 253.254 160.41 253.249 160.352 253.25 160.293 253.258 160.235 253.272 160.235 253.272 160.177 253.293 160.121 253.322 160.066 253.358 160.012 253.402 159.959 253.453 159.908 253.512 159.857 253.579 159.808 253.654"/><polygon id="_new_636_12" fill="none" stroke="#000" stroke-width=".1" points="160.945 255.569 162.388 254.006 162.695 254.29 162.371 255.924 163.334 254.88 163.628 255.151 162.185 256.714 161.868 256.421 162.179 254.821 161.238 255.84 160.945 255.569"/><circle id="_tag_646_" cx="154.086" cy="265.139" r="4.5" fill="none" stroke="#000" stroke-width=".1"/></g><circle id="center_00" cx="154.086" cy="265.139" r="4" fill="none" stroke="#000" stroke-width=".1"/></svg>