<svg xmlns="http://www.w3.org/2000/svg" width="297mm" height="210mm" viewBox="0 0 297 210"><g id="Ebene_x0020_1"><circle id="center_00" cx="124.508" cy="165.327" r="6.5" fill="none" stroke="#000" stroke-width=".1"/><circle id="_tag_41_" cx="124.508" cy="165.327" r="4.5" fill="none" stroke="#000" stroke-width=".1"/><polygon id="_new_23_1" fill="none" stroke="#000" stroke-width=".1" points="131.739 148.359 131.741 148.359 131.696 149.973 131.743 151.591 131.884 153.211 132.119 154.827 132.452 156.436 132.883 158.033 133.413 159.614 134.045 161.176 129.605 158.392 121.116 158.345 115.207 160.67 115.695 159.431 116.122 158.172 116.488 156.894 116.792 155.6 117.035 154.292 117.217 152.973 117.337 151.645 117.397 150.31 117.398 150.31 117.397 150.293 117.401 150.029 117.403 149.765 117.402 149.501 117.399 149.237 117.393 148.973 117.385 148.709 117.375 148.444 117.361 148.18 117.289 143.901 118.325 143.356 119.316 142.675 120.261 141.854 121.161 140.89 122.017 139.779 122.829 138.519 123.597 137.104 124.323 135.532 124.323 135.532 124.334 135.506 124.344 135.482 124.354 135.459 124.363 135.437 124.372 135.416 124.38 135.396 124.388 135.377 124.396 135.358 124.396 135.358 124.412 135.323 124.428 135.298 124.443 135.28 124.457 135.269 124.47 135.263 124.483 135.26 124.494 135.26 124.504 135.26 124.504 135.26 124.514 135.261 124.524 135.265 124.534 135.273 124.545 135.283 124.556 135.297 124.566 135.314 124.577 135.334 124.588 135.357 124.588 135.357 124.594 135.373 124.6 135.39 124.606 135.407 124.613 135.426 124.619 135.445 124.626 135.465 124.633 135.485 124.64 135.507 124.64 135.507 125.192 136.927 125.839 138.257 126.586 139.488 127.441 140.611 128.407 141.619 129.492 142.503 130.7 143.255 132.037 143.867 131.739 148.359"/><polyline id="_new_25_1" fill="none" stroke="#000" stroke-width=".1" points="130.97 152.045 129.959 150.98 128.434 150.228 126.568 149.776 124.535 149.614 122.509 149.729 120.662 150.111 119.168 150.746 118.201 151.625"/><polygon id="_new_26_1" fill="none" stroke="#000" stroke-width=".1" points="124.346 140.573 124.39 140.516 124.444 140.478 124.503 140.456 124.566 140.451 124.629 140.462 124.69 140.488 124.746 140.529 124.794 140.585 124.794 140.585 125.187 141.153 125.594 141.73 126.016 142.312 126.451 142.894 126.9 143.472 127.361 144.042 127.834 144.6 128.319 145.142 128.319 145.142 128.351 145.199 128.36 145.266 128.349 145.34 128.321 145.413 128.279 145.48 128.227 145.535 128.166 145.573 128.101 145.588 128.101 145.588 127.171 145.602 126.264 145.614 125.377 145.625 124.502 145.636 123.632 145.649 122.763 145.666 121.888 145.686 121.001 145.711 121.001 145.711 120.93 145.702 120.868 145.672 120.815 145.626 120.776 145.569 120.753 145.504 120.748 145.438 120.764 145.373 120.803 145.315 120.803 145.315 121.28 144.801 121.754 144.252 122.222 143.675 122.681 143.075 123.126 142.459 123.554 141.833 123.962 141.202 124.346 140.573"/><polygon id="_new_29_1" fill="none" stroke="#000" stroke-width=".1" points="119.325 156.309 121.247 155.448 123.242 155.001 125.252 154.952 127.219 155.286 129.088 155.988 130.799 157.042 132.298 158.432 133.525 160.144 133.525 160.144 134.386 162.067 134.834 164.061 134.883 166.071 134.548 168.038 133.847 169.907 132.793 171.619 131.402 173.117 129.69 174.344 129.69 174.344 128.813 174.796 127.913 175.156 126.997 175.428 126.07 175.612 125.138 175.71 124.207 175.723 123.282 175.654 122.369 175.504 122.369 175.504 122.259 175.477 122.164 175.444 122.083 175.405 122.012 175.356 121.949 175.297 121.891 175.226 121.834 175.14 121.777 175.039 121.777 175.039 121.728 174.922 121.703 174.803 121.7 174.682 121.718 174.562 121.756 174.444 121.812 174.33 121.885 174.223 121.974 174.123 127.608 168.581 128.107 168.019 128.5 167.391 128.782 166.713 128.951 165.998 129.002 165.263 128.931 164.523 128.733 163.792 128.404 163.087 128.404 163.087 127.874 162.347 127.227 161.747 126.487 161.291 125.679 160.988 124.829 160.844 123.961 160.865 123.099 161.058 122.268 161.43 122.268 161.43 122.131 161.512 121.998 161.598 121.868 161.688 121.743 161.782 121.622 161.88 121.505 161.981 121.392 162.086 121.283 162.194 115.628 167.758 115.544 167.841 115.461 167.919 115.378 167.99 115.291 168.049 115.198 168.094 115.097 168.121 114.983 168.126 114.856 168.107 114.856 168.107 114.731 168.061 114.624 167.99 114.534 167.895 114.458 167.779 114.395 167.641 114.342 167.484 114.298 167.309 114.26 167.117 114.26 167.117 114.108 165.543 114.195 163.977 114.514 162.448 115.057 160.983 115.817 159.609 116.787 158.354 117.958 157.245 119.325 156.309"/></g></svg>
