<svg xmlns="http://www.w3.org/2000/svg" width="297mm" height="210mm" viewBox="0 0 297 210"><g id="Ebene_x0020_1"><polygon id="_new_114_1" fill="none" stroke="#000" stroke-width=".1" points="78.424 71.479 79.899 70.493 81.238 69.269 82.422 67.831 83.433 66.202 84.251 64.404 84.859 62.461 85.237 60.395 85.367 58.23 85.367 56.106 86.581 56.106 86.581 81.637 86.609 83.358 86.687 85.078 86.802 86.796 86.943 88.513 87.1 90.23 87.26 91.946 87.413 93.663 87.547 95.38 82.494 93.545 73.801 93.781 69.283 95.38 69.431 93.663 69.588 91.947 69.747 90.231 69.897 88.514 70.03 86.797 70.137 85.079 70.207 83.359 70.233 81.637 70.233 73.809 70.321 73.576 70.562 73.382 70.926 73.222 71.378 73.092 71.888 72.989 72.421 72.908 72.947 72.847 73.432 72.8 73.432 72.8 73.539 72.789 73.646 72.776 73.751 72.761 73.856 72.745 73.962 72.729 74.067 72.713 74.173 72.698 74.28 72.684 74.28 72.684 74.824 72.607 75.362 72.507 75.892 72.386 76.415 72.245 76.93 72.083 77.437 71.901 77.935 71.699 78.424 71.479"/><polyline id="_new_115_1" fill="none" stroke="#000" stroke-width=".1" points="86.581 58.23 86.428 60.395 85.983 62.461 85.268 64.404 84.305 66.202 83.117 67.831 81.726 69.269 80.152 70.493 78.419 71.479"/><polyline id="_new_116_1" fill="none" stroke="#000" stroke-width=".1" points="86.903 88.053 86.673 86.405 86.448 84.913 86.169 83.588 85.775 82.446 85.207 81.499 84.405 80.762 83.309 80.246 81.858 79.967 81.858 79.967 80.987 79.883 80.115 79.824 79.243 79.789 78.372 79.779 77.5 79.792 76.628 79.828 75.756 79.887 74.885 79.967 74.885 79.967 73.425 80.378 72.322 81.025 71.516 81.878 70.95 82.902 70.567 84.064 70.308 85.332 70.117 86.673 69.935 88.053"/><polygon id="_new_117_1" fill="none" stroke="#000" stroke-width=".1" points="88.419 99.442 88.301 100.982 87.959 102.448 87.41 103.822 86.672 105.088 85.763 106.226 84.701 107.221 83.502 108.054 82.184 108.707 82.184 108.707 82.107 108.742 82.027 108.773 81.945 108.8 81.862 108.822 81.776 108.839 81.689 108.852 81.601 108.86 81.511 108.862 81.511 108.862 81.201 108.831 80.913 108.741 80.652 108.6 80.425 108.412 80.237 108.185 80.095 107.924 80.006 107.636 79.975 107.326 79.975 107.326 79.977 107.238 79.985 107.152 79.997 107.067 80.013 106.983 80.034 106.902 80.06 106.822 80.089 106.744 80.123 106.668 80.12 106.667 82.561 101.444 82.665 101.213 82.756 100.977 82.835 100.734 82.9 100.485 82.951 100.231 82.988 99.972 83.011 99.709 83.019 99.442 83.019 99.442 82.925 98.515 82.657 97.651 82.233 96.87 81.671 96.189 80.99 95.627 80.209 95.203 79.346 94.935 78.419 94.842 78.419 94.842 77.74 94.891 77.093 95.036 76.483 95.268 75.918 95.58 75.406 95.966 74.952 96.419 74.565 96.93 74.251 97.494 74.251 97.494 71.797 102.745 71.694 102.941 71.566 103.12 71.413 103.278 71.24 103.413 71.048 103.522 70.84 103.603 70.619 103.654 70.387 103.671 70.387 103.671 70.119 103.648 69.867 103.581 69.634 103.474 69.423 103.332 69.24 103.157 69.087 102.954 68.969 102.727 68.89 102.48 68.89 102.48 68.782 102.118 68.687 101.75 68.606 101.377 68.539 100.999 68.487 100.616 68.449 100.229 68.426 99.837 68.419 99.442 68.419 99.442 68.622 97.427 69.205 95.55 70.127 93.851 71.348 92.371 72.828 91.15 74.527 90.228 76.404 89.645 78.419 89.442 78.419 89.442 80.434 89.645 82.311 90.228 84.009 91.15 85.489 92.371 86.711 93.851 87.633 95.55 88.215 97.427 88.419 99.442"/><circle id="_tag_128_" cx="78.419" cy="99.442" r="4.5" fill="none" stroke="#000" stroke-width=".1"/><circle id="center_00" cx="78.419" cy="99.442" r="4.6" fill="none" stroke="#000" stroke-width=".1"/></g></svg>
