<svg xmlns="http://www.w3.org/2000/svg" version="1.0"><polygon fill="none" stroke="#000" stroke-width=".1" points="112.963 137.44 112.516 137.44 112.516 123.272 112.963 123.272 112.963 137.44"/><polygon fill="none" stroke="#000" stroke-width=".1" points="112.952 124.895 113.201 124.895 113.278 124.779 113.449 124.517 113.449 122.097 112.953 122.576 112.947 132.587 112.943 138.158 113.46 138.667 113.45 136.25 112.963 135.544 112.973 126.91 114.397 126.925 114.832 126.832 115.189 126.522 115.378 126.135 115.375 125.687 115.192 125.265 114.818 124.972 114.381 124.873 112.952 124.895"/><polygon fill="none" stroke="#000" stroke-width=".1" points="113.452 124.513 113.449 122.097 116.781 122.097 116.781 138.68 113.449 138.68 113.458 136.256 115.904 136.263 115.905 124.515 113.452 124.513"/><polygon fill="none" stroke="#000" stroke-width=".1" points="120.245 123.559 121.258 123.559 122.541 123.376 123.738 122.86 124.721 122.097 124.721 138.68 123.727 137.852 122.538 137.343 121.258 137.191 120.245 137.191 118.964 137.343 117.776 137.852 116.781 138.68 116.781 122.097 117.764 122.86 118.961 123.376 120.245 123.559"/><line x1="129.422" x2="133.817" y1="130.35" y2="130.335" fill="none" stroke="#000" stroke-width=".1"/><rect width="2.774" height="16.583" x="124.721" y="122.097" fill="none" stroke="#000" stroke-width=".1"/><polygon fill="none" stroke="#000" stroke-width=".1" points="99.826 94.666 99.976 94.075 100.382 93.546 101.11 93.143 102.608 92.83 104.068 92.504 108.056 92.5 109.835 92.833 111.114 93.195 111.964 93.727 112.115 94.117 112.318 94.674 112.489 124.003 103.632 125.338 103.668 116.067 103.686 110.642 103.71 107.91 103.574 106.885 103.143 105.85 102.251 104.92 101.16 103.979 100.455 103.164 100.22 101.691 100.004 98.647 99.826 94.666"/><polygon fill="none" stroke="#000" stroke-width=".1" points="104.585 121.818 111.677 121.713 112.179 121.94 112.529 122.502 112.499 140.133 110.748 141.253 103.632 133.563 103.627 122.339 104.086 121.976 104.585 121.818"/><polygon fill="none" stroke="#000" stroke-width=".1" points="113.75 125.252 113.151 125.907 113.1 142.137 113.134 131.004 112.578 130.342 111.617 130.328 111.135 130.981 111.17 145.434 115.083 145.53 115.094 126.003 114.605 125.335 113.75 125.252"/><polygon fill="none" stroke="#000" stroke-width=".1" points="95.252 142.602 95.95 142.583 98.745 143.053 98.045 149.614 95.867 149.24 95.533 149.153 95.275 148.898 95.256 148.632 95.252 142.602"/><polygon fill="none" stroke="#000" stroke-width=".1" points="77.532 171.544 81.086 170.901 84.591 170.398 88.409 169.856 91.975 169.37 96.236 168.818 97.957 168.539 99.377 168.067 100.624 167.912 102.466 167.979 103.631 168.161 104.922 168.234 109.836 167.909 114.59 167.65 120.918 167.426 123.217 167.684 124.703 168.154 125.85 169.094 126.488 170.12 126.796 171.26 126.782 172.207 126.719 172.697 126.581 173.52 126.136 175.964 125.593 177.567 124.877 178.327 123.926 179.21 123.094 179.645 121.888 179.906 117.639 180.216 112.88 180.611 111.844 180.844 110.578 181.61 110.136 181.917 109.514 182.432 106.386 185.02 104.509 186.644 103.3 187.75 101.976 188.947 100.619 190.12 99.4 190.994 98.049 191.6 96.754 191.847 95.37 192.014 93.861 192.102 92.716 192.034 91.466 191.518 90.72 190.888 90.252 190.008 89.915 189.047 89.499 187.78 88.942 186.29 88.447 184.993 87.996 184.212 87.554 183.661 86.898 183.061 86.275 182.801 83.138 182.981 79.27 183.314 76.914 183.479 75.491 183.312 74.549 182.816 73.778 182.118 73.39 181.544 73.13 180.861 72.983 180.159 72.885 178.722 72.779 177.403 72.825 176.465 73.042 175.6 73.66 174.321 74.346 173.418 74.75 173.06 75.599 172.408 76.531 171.902 77.532 171.544"/><polyline fill="none" stroke="#000" stroke-width=".1" points="77.069 175.971 78.312 174.62 80.02 173.855 92.702 172.296"/><polyline fill="none" stroke="#000" stroke-width=".1" points="122.766 170.822 113.318 171.179 111.17 171.667 109.035 172.84 107.062 174.547"/><polygon fill="none" stroke="#000" stroke-width=".1" points="93.931 123.9 96.623 122.899 99.363 122.275 101.432 122.073 102.396 122.258 102.39 123.195 105.814 123.22 106.446 123.638 107.043 124.557 108.021 126.73 109.693 130.706 111.121 134.741 112.23 137.99 113.414 141.184 114.34 143.111 115.464 145 116.546 146.525 117.727 148.369 118.226 149.917 118.281 151.256 118.105 152.521 117.754 153.537 116.898 154.89 115.248 156.326 113.911 157.555 112.829 159.506 111.82 162.611 111.141 165.137 106.671 181.781 106.014 184.188 105.339 185.642 104.323 186.932 103.168 187.665 101.307 188.34 99.223 188.388 96.426 188.172 94.208 187.355 93.189 186.683 92.304 185.863 91.566 184.919 90.968 183.872 90.537 182.741 90.29 181.563 90.224 180.357 90.46 178.548 93.491 167.315 93.956 166.017 94.553 165.294 95.8 164.047 97.953 162.113 99.272 161.071 100.403 159.69 100.735 158.54 100.688 157.501 100.288 155.516 98.912 151.615 96.811 146.764 94.081 141.187 91.176 136.053 91.171 135.348 91.632 132.687 91.925 124.92 92.561 124.542 93.931 123.9 93.931 123.9"/><polygon fill="none" stroke="#000" stroke-width=".1" points="101.924 181.305 101.609 182.076 101.127 182.772 100.478 183.328 99.699 183.693 98.893 183.879 98.046 183.86 97.237 183.66 96.478 183.243 95.858 182.658 95.404 181.957 95.129 181.164 95.02 180.319 95.142 179.485 98.171 168.194 98.486 167.423 98.993 166.714 99.617 166.171 100.383 165.781 101.202 165.62 102.048 165.64 102.858 165.839 103.617 166.256 104.237 166.841 104.716 167.529 104.991 168.322 105.075 169.18 104.953 170.014 101.924 181.305 101.924 181.305"/><polyline fill="none" stroke="#000" stroke-width=".1" points="94.92 124.994 95.079 126.543 95.527 127.753 96.109 128.421"/><polyline fill="none" stroke="#000" stroke-width=".1" points="95.919 126.935 97.129 128.438 97.952 129.831 100.904 137.871 102.42 142.393 102.665 143.216 103.886 146.957"/><polyline fill="none" stroke="#000" stroke-width=".1" points="105.313 151.326 103.828 149.496 103.014 147.916 102.823 146.405 102.837 144.98"/><polyline fill="none" stroke="#000" stroke-width=".1" points="112.205 160.049 112.373 159.287 112.215 158.804 111.589 158.54 110.833 158.463 109.148 158.726 106.771 159.11 104.693 159.612 103.179 160.184 101.423 161.075 99.758 162.02 97.897 163.207 96.49 164.152 95.071 165.11 94.288 165.991 93.69 167.423"/><polyline fill="none" stroke="#000" stroke-width=".1" points="94.264 129.609 94.978 131.559 95.919 132.217 96.618 132.417 97.276 132.509 97.443 132.775 97.489 133.126 96.932 133.587 94.277 134.441 92.796 135.063 92.365 135.314 91.993 135.601 91.904 135.743 91.944 135.916 92.021 136.006 94.082 139.471"/><circle cx="99.932" cy="175.335" r="6.5" fill="none" stroke="#000" stroke-width=".1"/><circle cx="99.932" cy="175.335" r="3.9" fill="none" stroke="#000" stroke-width=".1"/><polygon fill="none" stroke="#000" stroke-width=".1" points="89.486 127.935 90.219 126.596 91.134 125.422 91.134 125.422 91.465 125.188 91.925 124.92 91.632 132.687 91.171 135.348 90.225 134.124 89.497 132.821 89.486 127.935"/><rect width="1.927" height="13.733" x="127.495" y="123.484" fill="none" stroke="#000" stroke-width=".1"/><rect width="1.927" height=".143" x="127.495" y="123.484" fill="none" stroke="#000" stroke-width=".1"/><rect width="1.927" height=".971" x="127.495" y="124.198" fill="none" stroke="#000" stroke-width=".1"/><rect width="1.927" height=".971" x="127.495" y="126.416" fill="none" stroke="#000" stroke-width=".1"/><rect width="1.927" height=".971" x="127.495" y="127.995" fill="none" stroke="#000" stroke-width=".1"/><rect width="1.927" height="1.599" x="127.495" y="129.679" fill="none" stroke="#000" stroke-width=".1"/><rect width="1.927" height=".971" x="127.495" y="135.789" fill="none" stroke="#000" stroke-width=".1"/><rect width="1.927" height=".971" x="127.495" y="133.57" fill="none" stroke="#000" stroke-width=".1"/><rect width="1.927" height=".971" x="127.495" y="131.992" fill="none" stroke="#000" stroke-width=".1"/><polyline fill="none" stroke="#000" stroke-width=".1" points="105.101 106.962 104.935 102.745 104.298 100.295 103.57 98.993 102.843 97.754 102.18 96.644 101.739 95.967 101.388 95.406 101.954 94.917 104.474 95.534 107.561 95.498 109.992 94.887"/><polygon fill="none" stroke="#000" stroke-width=".1" points="109.292 93.138 108.864 93.336 107.995 93.466 106.072 93.521 104.232 93.469 103.607 93.333 103.048 93.198 103.065 89.953 109.292 89.933 109.292 93.138"/><polyline fill="none" stroke="#000" stroke-width=".1" points="108.253 84.123 108.134 84.076 107.551 83.998 107.124 83.966 106.128 83.939 105.457 83.951 104.968 83.976 104.478 84.022 104.026 84.096 103.762 84.238"/><polygon fill="none" stroke="#000" stroke-width=".1" points="99.922 90.254 99.922 85.896 103.762 84.238 101.245 80.314 102.816 73.624 102.988 73.498 103.418 73.393 104.287 73.29 104.286 73.639 105.01 73.802 106.115 73.866 107.075 73.765 107.859 73.633 107.859 73.28 108.173 73.302 108.848 73.386 109.396 73.531 109.518 73.629 111.103 80.353 108.449 84.2 112.418 85.896 112.422 90.254 112.119 90.412 111.644 90.545 111.194 90.631 110.618 90.713 109.289 90.79 108.575 90.843 107.767 90.881 106.225 90.905 104.437 90.876 103.589 90.835 103.048 90.8 101.785 90.72 100.808 90.567 100.244 90.416 99.922 90.254"/><polygon fill="none" stroke="#000" stroke-width=".1" points="99.223 89.443 99.465 89.588 99.762 89.683 100.304 89.802 101.005 89.91 101.312 89.948 101.765 89.996 102.456 90.056 103.265 90.108 103.961 90.14 104.809 90.166 106.304 90.177 107.621 90.158 109.388 90.075 110.746 89.954 112.032 89.758 112.668 89.58 112.921 89.443 114.138 88.534 114.122 87.136 112.985 86.308 112.734 86.242 112.418 86.159 112.417 86.308 112.28 86.538 111.931 86.695 111.199 86.86 110.539 86.956 109.896 87.042 109.109 87.089 108.024 87.149 107.112 87.174 106.214 87.183 104.869 87.17 103.711 87.132 102.384 87.031 101.291 86.904 100.381 86.723 99.999 86.578 99.922 86.158 99.566 86.199 99.177 86.308 97.928 87.4 97.938 88.543 99.223 89.443"/><polyline fill="none" stroke="#000" stroke-width=".1" points="97.976 87.237 98.141 87.437 98.612 87.624 99.359 87.793 100.347 87.941 101.545 88.062 102.919 88.154 104.438 88.212 106.069 88.232 107.7 88.212 109.219 88.154 110.594 88.062 111.791 87.941 112.78 87.793 113.526 87.624 113.997 87.437 114.162 87.237"/><polyline fill="none" stroke="#000" stroke-width=".1" points="97.952 88.534 98.116 88.735 98.588 88.922 99.334 89.091 100.322 89.238 101.52 89.36 102.895 89.452 104.414 89.51 106.045 89.53 107.675 89.51 109.194 89.452 110.569 89.36 111.767 89.238 112.755 89.091 113.501 88.922 113.973 88.735 114.138 88.534"/><polyline fill="none" stroke="#000" stroke-width=".1" points="112.418 85.896 111.666 86.154 110.398 86.346 109.081 86.457 107.847 86.516 106.105 86.543 104.257 86.505 102.618 86.406 101.354 86.264 100.355 86.059 99.986 85.899"/><polyline fill="none" stroke="#000" stroke-width=".1" points="108.348 84.147 108.075 84.284 107.614 84.385 107.135 84.444 106.686 84.475 106.052 84.49 105.38 84.47 104.784 84.417 104.324 84.342 103.961 84.233 103.827 84.148"/><polyline fill="none" stroke="#000" stroke-width=".1" points="110.993 80.264 110.411 80.567 109.431 80.791 108.413 80.922 107.459 80.991 106.112 81.022 104.683 80.978 103.416 80.861 102.438 80.695 101.666 80.455 101.381 80.267"/><polyline fill="none" stroke="#000" stroke-width=".1" points="109.254 73.858 108.878 73.987 108.244 74.083 107.585 74.139 106.969 74.168 106.098 74.181 105.173 74.163 104.354 74.113 103.722 74.042 103.223 73.939 103.039 73.859"/><polyline fill="none" stroke="#000" stroke-width=".1" points="99.197 86.505 99.337 86.675 99.737 86.834 100.369 86.977 101.207 87.102 102.223 87.205 103.389 87.283 104.677 87.332 106.06 87.349 107.442 87.332 108.73 87.283 109.896 87.205 110.912 87.102 111.75 86.977 112.382 86.834 112.782 86.675 112.922 86.505"/><polyline fill="none" stroke="#000" stroke-width=".1" points="109.449 3.267 108.185 33.965 107.861 66.768 107.859 73.633 107.075 73.765 106.115 73.866 105.01 73.802 104.286 73.639 104.294 67.105 104.666 33.767 105.714 6.322"/><polygon fill="none" stroke="#000" stroke-width=".1" points="96.547 173.381 99.932 171.426 103.317 173.381 103.317 177.29 99.932 179.244 96.547 177.289 96.547 173.381"/><circle cx="112.3" cy="150.865" r="1.7" fill="none" stroke="#000" stroke-width=".1"/><circle id="center_00" cx="99.932" cy="175.335" r="15" fill="none" stroke="#000" stroke-width=".1"/></svg>