<svg xmlns="http://www.w3.org/2000/svg" version="1.0"><polygon fill="none" stroke="#000" stroke-width=".1" points="65.781 216.014 65.896 216.019 65.986 216.025 66.147 216.043 66.431 216.096 66.921 216.251 67.439 216.521 67.899 216.882 68.285 217.32 68.585 217.82 68.787 218.368 68.885 218.942 69.436 225.899 69.419 226.563 69.264 227.212 68.979 227.812 68.573 228.34 68.065 228.772 67.48 229.089 66.839 229.277 66.174 229.329 56.089 229.254 46.007 229.543 40.016 229.895 37.024 230.117 34.035 230.369 23.096 231.559 15.533 232.646 8.001 233.938 7.337 233.991 6.674 233.905 6.046 233.684 5.477 233.338 4.993 232.879 4.617 232.333 4.362 231.717 4.241 231.063 3.69 224.106 3.689 224.095 3.688 224.086 3.687 224.07 3.686 224.042 3.683 223.992 3.68 223.902 3.682 223.741 3.705 223.453 3.811 222.951 4.027 222.409 4.34 221.916 4.737 221.488 5.207 221.14 5.732 220.883 6.295 220.726 14.099 219.406 21.935 218.297 32.874 217.108 35.863 216.856 38.855 216.634 44.846 216.281 55.312 215.96"/><polygon fill="none" stroke="#000" stroke-width=".1" points="8.559 233.527 11.275 233.048 15.8 232.298 23.07 231.258 34.009 230.068 36.998 229.816 39.989 229.594 45.981 229.242 55.773 228.955 65.567 229.011 66.188 228.959 66.787 228.779 67.335 228.484 67.811 228.081 68.187 227.585 68.453 227.023 68.599 226.417 68.617 225.795 68.189 220.39 68.18 220.029 67.985 218.973 67.763 218.476 67.451 218.015 67.047 217.614 66.556 217.296 65.996 217.086 65.399 217.005 55.164 216.963 44.934 217.279 38.941 217.63 35.95 217.853 32.961 218.105 22.023 219.295 14.413 220.369 6.834 221.644 6.252 221.821 5.736 222.115 5.301 222.506 4.965 222.968 4.731 223.47 4.59 223.999 4.537 224.532 4.566 225.068 4.614 225.426 5.041 230.831 5.157 231.441 5.397 232.017 5.748 232.531 6.198 232.961 6.731 233.284 7.318 233.49 7.938 233.572"/><line x1="30.607" x2="30.592" y1="225.624" y2="225.447" fill="none" stroke="#000" stroke-width=".1"/><polygon fill="none" stroke="#000" stroke-width=".1" points="17.643 223.233 17.867 223.201 18.596 223.298 19.22 223.685 19.63 224.294 19.715 224.572 19.754 224.887 19.666 225.487 19.378 226.021 18.925 226.425 18.36 226.649 17.753 226.668 17.176 226.478 16.698 226.103 16.379 225.588 16.255 224.995 16.256 224.875 16.342 224.397 16.628 223.863 17.08 223.459"/><polyline fill="none" stroke="#000" stroke-width=".1" points="16.256 224.875 16.292 225.015 16.341 225.153 16.708 225.719 17.264 226.105 17.924 226.251 18.591 226.136 19.165 225.777 19.559 225.228 19.715 224.572"/><polygon fill="none" stroke="#000" stroke-width=".1" points="16.256 224.875"/><polyline fill="none" stroke="#000" stroke-width=".1" points="17.867 223.201 17.754 223.213 17.643 223.233"/><polygon fill="none" stroke="#000" stroke-width=".1" points="17.867 223.201"/><line x1="68.886" x2="68.865" y1="218.942" y2="218.94" fill="none" stroke="#000" stroke-width=".1"/><polygon fill="none" stroke="#000" stroke-width=".1" points="54.977 220.276 54.751 220.279 54.123 220.45 53.601 220.838 53.257 221.39 53.139 222.029 53.263 222.666 53.583 223.181 54.06 223.556 54.637 223.747 55.245 223.728 55.809 223.503 56.263 223.099 56.551 222.565 56.638 221.965 56.6 221.651 56.515 221.372 56.158 220.817 55.62 220.432"/><polyline fill="none" stroke="#000" stroke-width=".1" points="56.6 221.651 56.443 222.307 56.049 222.857 55.476 223.215 54.809 223.33 54.148 223.184 53.593 222.798 53.225 222.231 53.177 222.094 53.14 221.954"/><polygon fill="none" stroke="#000" stroke-width=".1" points="56.6 221.651"/><polyline fill="none" stroke="#000" stroke-width=".1" points="54.977 220.276 54.864 220.274 54.751 220.28"/><polygon fill="none" stroke="#000" stroke-width=".1" points="54.977 220.276"/><polyline fill="none" stroke="#000" stroke-width=".1" points="68.189 220.39 61.584 220.258 54.751 220.28 49.986 220.391 45.223 220.579 39.231 220.932 36.24 221.153 33.251 221.406 22.312 222.596 20.088 222.89 17.643 223.233 11.116 224.255 4.614 225.426"/><polygon fill="none" stroke="#000" stroke-width=".1" points="68.189 220.39"/><polyline fill="none" stroke="#000" stroke-width=".1" points="33.768 227.461 33.772 227.491 33.78 227.519"/><polygon fill="none" stroke="#000" stroke-width=".1" points="33.768 227.461"/><polygon fill="none" stroke="#000" stroke-width=".1" points="26.586 104.952 25.271 87 18.29 87.511 19.605 105.463"/><polygon fill="none" stroke="#000" stroke-width=".1" points="21.101 105.354 25.09 105.062 27.627 139.709 23.642 139.984"/><polygon fill="none" stroke="#000" stroke-width=".1" points="29.234 139.724 29.786 140.004 30.351 140.374 30.351 140.374 30.649 140.677 30.855 140.712 31.001 140.746 31.091 140.778 31.145 140.835 31.145 149.335 20.867 149.335 20.869 140.811 20.898 140.778 20.988 140.746 21.135 140.712 21.34 140.677 21.639 140.374 21.639 140.374 22.203 140.004 22.756 139.724 23.029 139.613 23.303 139.505 23.578 139.403 23.854 139.307 24.133 139.219 24.416 139.142 24.703 139.075 24.995 139.022 24.993 141.972 26.993 141.972 26.995 139.022 27.287 139.075 27.574 139.142 27.856 139.22 28.135 139.307 28.412 139.403 28.687 139.505 28.96 139.613 29.234 139.724"/><polygon fill="none" stroke="#000" stroke-width=".1" points="22.52 265.456 22.52 257.95 22.52 247.719 22.52 235.67 22.52 222.712 22.52 209.754 22.52 197.705 22.52 187.474 22.52 179.968 26.539 179.866 26.226 228.881 32.242 241.033 36.52 241.033 38.02 241.033 38.02 265.456 22.52 265.456"/><polyline fill="none" stroke="#000" stroke-width=".1" points="31.099 245.838 31.647 245.808"/><polyline fill="none" stroke="#000" stroke-width=".1" points="31.647 245.808 31.936 245.91 32.068 246.185"/><polyline fill="none" stroke="#000" stroke-width=".1" points="32.068 246.185 32.068 246.268"/><polygon fill="none" stroke="#000" stroke-width=".1" points="30.531 201.436 30.52 152.096 30.52 151.588 30.489 151.401 30.445 151.284 30.392 151.196 30.327 151.119 30.269 151.068 30.208 151.025 30.161 150.998 30.113 150.976 30.039 150.947 28.9 150.62 28.735 150.544 28.607 150.444 28.499 150.318 28.409 150.172 28.342 150.015 28.3 149.847 28.285 149.671 28.284 140.588 28.264 140.385 28.206 140.197 28.113 140.027 27.991 139.878 27.843 139.756 27.673 139.663 27.486 139.605 27.284 139.584 24.564 139.583 24.564 152.015 22.519 152.015 22.519 153.243 22.519 154.44 22.519 155.614 22.519 156.777 22.519 157.941 22.519 159.115 22.519 160.311 22.519 161.54 22.519 167.663 22.519 173.814 22.519 180.181 22.555 180.321 22.598 180.434 22.854 180.882 22.914 181.122 22.963 181.361 23.003 181.593 23.197 182.315 23.326 183.087 23.416 183.906 23.477 184.854 23.52 186.101 23.52 243.171 28.3 241.032 38.02 241.032 38.02 243.171 40.52 243.171 41.578 243.057 42.588 242.723 43.505 242.183 44.286 241.462 44.897 240.591 45.309 239.612 45.467 238.903 45.52 238.178 45.52 211.219 45.52 210.971 45.467 210.246 45.309 209.537 44.897 208.558 44.286 207.687 43.505 206.966 42.588 206.426 41.578 206.092 40.52 205.978 35.52 205.978 34.443 205.861 33.417 205.516 32.484 204.96 32.312 204.822 32.146 204.679 31.988 204.529 31.837 204.375 31.693 204.214 31.56 204.053 31.342 203.756 31.104 203.366 30.906 202.964 30.73 202.491 30.613 202.037 30.587 201.895 30.573 201.811 30.573 201.811 30.573 201.811 30.573 201.811 30.573 201.811 30.573 201.811 30.573 201.811 30.573 201.81 30.573 201.81 30.573 201.808 30.572 201.805 30.571 201.799 30.569 201.786 30.566 201.762 30.559 201.713 30.548 201.618 30.531 201.436"/><polygon fill="none" stroke="#000" stroke-width=".1" points="43.52 234.461 43.52 213.244 43.394 212.133 43.024 211.078 42.429 210.131 41.637 209.341 40.689 208.746 39.632 208.376 38.52 208.251 35.52 208.251 34.376 208.259 33.293 208.28 32.328 208.315 31.533 208.361 30.948 208.416 30.628 208.47 30.52 208.528 30.52 208.997 30.372 209.007 30.02 209.015 30.02 239.399 38.478 239.399 39.291 239.367 39.632 239.329 40.689 238.959 41.637 238.365 42.429 237.574 43.024 236.627 43.394 235.572"/><polygon fill="none" stroke="#000" stroke-width=".1" points="33.52 233.089 33.52 214.311 33.622 213.536 33.659 213.446 33.697 213.355 33.734 213.265 33.772 213.175 33.809 213.085 33.846 212.994 33.884 212.904 33.921 212.814 34.398 212.193 35.02 211.717 35.743 211.418 36.52 211.316 37.296 211.418 38.02 211.717 38.641 212.193 39.118 212.814 39.417 213.536 39.52 214.311 39.52 233.089 39.52 233.282 39.398 234.125 39.045 234.899 38.488 235.543 37.772 236.004 36.955 236.246 36.103 236.249 35.284 236.012 34.565 235.555 34.004 234.915 33.646 234.142 33.551 233.717 33.519 233.089"/><polygon fill="none" stroke="#000" stroke-width=".1" points="36.52 240.09 36.52 241.033 36.52 252.561 24.52 252.561 24.338 252.524 24.178 252.43 23.888 252.101 23.69 251.719 23.52 250.908 23.52 241.191 23.654 240.722 24.02 240.378 24.52 240.252 30.02 240.252 30.02 240.456 30.02 239.399 35.02 239.399 35.02 240.035 35.034 240.037 35.145 240.057 35.145 240.057 35.538 240.077 35.976 240.087"/><line x1="24.52" x2="36.52" y1="249.223" y2="249.223" fill="none" stroke="#000" stroke-width=".1"/><polygon fill="none" stroke="#000" stroke-width=".1" points="35.59 246.938 35.591 246.936 35.909 246.133 36.02 245.241 35.983 244.699 35.872 244.202 35.503 243.378 34.934 242.676 34.204 242.143 33.362 241.814 32.463 241.712 31.569 241.843 30.737 242.198 30.025 242.755 29.479 243.475 29.136 244.31 29.032 245.109 29.02 245.206 29.02 245.31 29.165 246.254 29.18 246.304 29.189 246.336 29.245 246.505 29.315 246.668 29.341 246.721 29.368 246.773 29.419 246.881 29.475 246.986 29.566 247.138 29.666 247.286 29.773 247.428 29.886 247.565 30.007 247.695 30.134 247.82 30.267 247.938 30.406 248.048 30.55 248.152 30.7 248.249 30.854 248.337 31.013 248.418 31.175 248.49 31.341 248.554 31.511 248.609 31.682 248.656 31.856 248.696 32.031 248.724 32.119 248.733 32.207 248.741 32.295 248.749 32.339 248.751 32.426 248.755 32.47 248.755 32.558 248.756 32.602 248.755 32.656 248.753 32.71 248.751 32.797 248.745 32.885 248.737 32.928 248.732 33.015 248.721 33.059 248.714 33.102 248.707 33.206 248.688 33.304 248.668 33.401 248.645 33.572 248.597 33.74 248.539 33.905 248.472 34.067 248.398 34.224 248.315 34.377 248.225 34.526 248.127 34.669 248.021 34.806 247.908 34.938 247.789 35.063 247.663 35.182 247.531 35.294 247.392 35.399 247.249 35.499 247.101 35.586 246.947 35.588 246.942"/><polygon fill="none" stroke="#000" stroke-width=".1" points="32.124 247.302 32.621 247.334 33.123 247.248 33.708 246.95 34.164 246.48 34.444 245.887 34.517 245.236 34.374 244.596 34.031 244.037 33.526 243.618 32.913 243.386 32.411 243.365 31.914 243.441 31.33 243.739 30.874 244.209 30.595 244.802 30.522 245.452 30.665 246.092 31.007 246.65 31.512 247.069"/><polygon fill="none" stroke="#000" stroke-width=".1" points="31.831 241.835 31.831 241.835 31.968 244.345 31.97 244.391 31.97 244.474 31.869 244.762 31.593 244.895 31.044 244.924 31.099 245.921 31.647 245.892 31.936 245.993 32.064 246.261 32.068 246.269 32.207 248.741 32.295 248.749 32.339 248.751 32.426 248.755 32.47 248.756 32.558 248.756 32.602 248.755 32.656 248.753 32.71 248.751 32.797 248.745 32.885 248.737 32.928 248.732 33.015 248.721 33.059 248.714 33.102 248.707 33.206 248.688 33.204 248.675 33.204 248.675 33.185 248.368 33.166 248.06 33.149 247.753 33.132 247.445 33.116 247.137 33.099 246.83 33.083 246.522 33.067 246.214 33.168 245.926 33.444 245.794 33.992 245.764 33.94 244.767 33.39 244.797 33.138 244.725 32.985 244.513 32.969 244.42 32.951 244.096 32.933 243.772 32.915 243.448 32.897 243.123 32.88 242.799 32.863 242.475 32.846 242.151 32.831 241.827 32.83 241.78 32.742 241.774 32.654 241.769 32.61 241.768 32.523 241.767 32.479 241.767 32.435 241.768 32.329 241.772 32.286 241.775 32.242 241.778 32.154 241.786 32.111 241.791 32.024 241.802 31.98 241.809 31.906 241.821 31.831 241.835"/><polyline fill="none" stroke="#000" stroke-width=".1" points="31.099 245.838 31.647 245.808"/><polyline fill="none" stroke="#000" stroke-width=".1" points="31.647 245.808 31.936 245.91 32.068 246.185"/><polyline fill="none" stroke="#000" stroke-width=".1" points="32.068 246.185 32.068 246.268"/><polyline fill="none" stroke="#000" stroke-width=".1" points="33.066 246.11 33.176 245.835 33.444 245.711"/><polyline fill="none" stroke="#000" stroke-width=".1" points="33.99 245.682 33.444 245.711"/><polyline fill="none" stroke="#000" stroke-width=".1" points="33.066 246.193 33.066 246.11"/><polyline fill="none" stroke="#000" stroke-width=".1" points="30.52 208.528 30.531 201.436"/><polyline fill="none" stroke="#000" stroke-width=".1" points="30.02 180.707 30.02 195.774 30.02 209.015"/><polyline fill="none" stroke="#000" stroke-width=".1" points="23.02 152.015 23.02 154.22 23.02 160.752 23.02 167.335 23.02 173.947 23.02 180.56 23.324 180.858 23.538 181.169 23.7 181.474 23.848 181.816 24.069 182.481 24.233 183.165"/><polygon fill="none" stroke="#000" stroke-width=".1" points="23.02 152.015"/><polyline fill="none" stroke="#000" stroke-width=".1" points="28.194 151.404 27.604 151.136 27.122 150.685 26.805 150.094 26.694 149.422 26.694 148.421 26.694 147.419 26.694 146.417 26.694 145.416 26.694 144.414 26.694 143.412 26.694 142.411 26.694 141.409"/><polygon fill="none" stroke="#000" stroke-width=".1" points="44.019 243.632 44.019 264.232 43.999 264.433 43.941 264.621 43.848 264.79 43.726 264.938 43.578 265.061 43.408 265.153 43.221 265.212 43.02 265.232 38.02 265.232 38.02 242.632 43.02 242.632 43.221 242.652 43.408 242.711 43.578 242.803 43.726 242.925 43.848 243.073 43.941 243.243 43.999 243.431 44.019 243.632"/><polyline fill="none" stroke="#000" stroke-width=".1" points="43.02 246.594 43.02 246.099 43.02 245.603 43.02 245.108 43.02 244.613 43.02 244.118 43.02 243.622 43.02 243.127 43.02 242.632"/><polyline fill="none" stroke="#000" stroke-width=".1" points="43.02 265.232 43.02 265.118 43.02 264.78 43.02 264.225 43.02 263.462 43.02 262.509 43.02 261.383"/><polygon fill="none" stroke="#000" stroke-width=".1" points="43.02 265.232"/><polygon fill="none" stroke="#000" stroke-width=".1" points="19.02 263.403 19.021 263.405 19.023 263.407 19.025 263.409 19.026 263.411 19.028 263.413 19.029 263.414 19.03 263.415 19.03 263.416 19.03 263.416 19.392 263.788 19.779 264.128 20.189 264.436 20.62 264.711 21.071 264.95 21.539 265.153 22.022 265.318 22.52 265.444 22.52 265.444 22.52 262.567 22.52 259.69 22.52 256.812 22.52 253.935 22.52 251.058 22.52 248.18 22.52 245.303 22.52 242.425 22.52 242.425 22.021 242.562 21.535 242.738 21.064 242.951 20.611 243.2 20.178 243.483 19.769 243.798 19.386 244.144 19.031 244.518 19.031 244.518 19.031 244.518 19.029 244.52 19.027 244.522 19.025 244.524 19.023 244.527 19.021 244.529 19.02 244.531 19.02 244.531 19.02 244.531 19.02 246.89 19.02 249.249 19.02 251.608 19.02 253.967 19.02 256.326 19.02 258.685 19.02 261.044 19.02 263.403"/><polygon fill="none" stroke="#000" stroke-width=".1" points="19.02 248.008 19.015 248.009 19.006 248.011 18.994 248.013 18.98 248.016 18.966 248.019 18.954 248.021 18.945 248.023 18.941 248.024 18.941 248.024 18.346 248.16 17.771 248.359 17.22 248.619 16.7 248.936 16.215 249.306 15.769 249.725 15.369 250.189 15.019 250.694 15.019 250.694 15.019 251.509 15.019 252.322 15.019 253.132 15.019 253.941 15.019 254.751 15.019 255.561 15.019 256.374 15.02 257.189 15.02 257.189 15.021 257.191 15.025 257.196 15.029 257.202 15.033 257.209 15.038 257.216 15.042 257.222 15.045 257.227 15.047 257.229 15.047 257.229 15.403 257.731 15.808 258.191 16.258 258.605 16.749 258.971 17.275 259.283 17.832 259.537 18.415 259.731 19.019 259.86 19.02 248.008"/><polygon fill="none" stroke="#000" stroke-width=".1" points="30.521 225.256 30.535 224.111 30.766 222.989 31.206 221.932 31.839 220.977 32.642 220.159 33.585 219.508 34.635 219.047 35.754 218.794 36.9 218.757 38.079 218.951 39.197 219.373 40.209 220.007 41.076 220.828 41.763 221.804 42.243 222.897 42.498 224.063 42.518 225.256 42.452 226.001 31.233 226.085"/><polygon fill="none" stroke="#000" stroke-width=".1" points="30.774 226.829 31.089 227.65 31.522 228.416 31.979 229.017 32.919 229.892 34.024 230.547 35.244 230.952 36.077 231.052 36.859 231.086 37.706 230.971 38.925 230.587 40.035 229.955 40.985 229.102 41.496 228.448 42.11 227.278 42.452 226.001 42.518 225.256 42.504 224.681 42.265 223.381 41.85 222.358 41.253 221.428 40.495 220.623 39.601 219.971 38.603 219.493 37.533 219.207 36.429 219.122 35.329 219.24 34.268 219.558 33.285 220.065 32.411 220.744 31.678 221.571 31.109 222.518 30.725 223.554 30.538 224.642 30.521 225.256 30.554 225.746"/><polygon fill="none" stroke="#000" stroke-width=".1" points="32.995 226.999 33.32 227.755 33.804 228.419 34.425 228.96 35.151 229.349 35.946 229.567 36.769 229.604 37.58 229.457 38.337 229.133 39.004 228.65 39.545 228.031 39.936 227.307 40.154 226.514 40.191 225.693 40.044 224.885 39.719 224.129 39.234 223.464 38.614 222.924 37.888 222.535 37.093 222.317 36.27 222.28 35.459 222.427 34.702 222.75 34.035 223.234 33.493 223.853 33.103 224.577 32.885 225.369 32.848 226.19"/><polygon fill="none" stroke="#000" stroke-width=".1" points="36.648 222.545 39.434 224.181 39.507 224.254 39.533 224.354 39.506 227.579 39.478 227.678 39.405 227.751 36.591 229.34 36.491 229.366 36.391 229.338 33.605 227.703 33.549 227.654 33.515 227.589 33.506 227.529 33.533 224.305 33.56 224.205 33.634 224.133 36.448 222.544 36.548 222.518"/><line x1="30.52" x2="30.52" y1="225.105" y2="224.927" fill="none" stroke="#000" stroke-width=".1"/><line x1="39.506" x2="39.506" y1="227.258" y2="227.579" fill="none" stroke="#000" stroke-width=".1"/><line x1="36.591" x2="36.591" y1="228.489" y2="229.34" fill="none" stroke="#000" stroke-width=".1"/><polyline fill="none" stroke="#000" stroke-width=".1" points="33.515 226.739 33.527 226.77 33.56 226.818 33.566 226.822 33.571 226.827 33.577 226.831 33.583 226.835 33.588 226.839 33.594 226.844 33.599 226.848 33.605 226.852 34.182 227.179 34.788 227.53 35.467 227.93 35.809 228.134 36.149 228.339 36.391 228.488 36.425 228.504 36.479 228.516 36.538 228.511 36.591 228.489 37.174 228.148 37.786 227.798 38.471 227.412 38.817 227.22 39.16 227.032 39.405 226.9 39.435 226.879 39.472 226.839 39.497 226.785 39.506 226.728"/><polyline fill="none" stroke="#000" stroke-width=".1" points="33.508 227.21 33.51 227.24 33.515 227.269"/><polygon fill="none" stroke="#000" stroke-width=".1" points="33.508 227.21"/><polygon fill="none" stroke="#000" stroke-width=".1" points="22.564 150.964 22.568 151.004 22.58 151.042 22.598 151.076 22.623 151.105 22.652 151.13 22.686 151.148 22.724 151.16 22.764 151.164 24.564 151.164 24.564 151.057 24.564 149.561 24.564 148.065 24.564 146.569 24.564 145.074 24.564 143.578 24.564 142.082 24.564 140.586 24.564 139.09 22.764 139.09 22.724 139.094 22.686 139.106 22.652 139.124 22.623 139.149 22.598 139.179 22.58 139.213 22.568 139.25 22.564 139.29 22.564 141.206 22.564 150.964"/><polygon fill="none" stroke="#000" stroke-width=".1" points="31.038 150.059 30.192 150.127 30.152 150.123 30.114 150.111 30.08 150.093 30.051 150.068 30.026 150.039 30.008 150.005 29.996 149.967 29.992 149.927 29.992 140.327 29.996 140.287 30.008 140.249 30.026 140.215 30.051 140.186 30.08 140.161 30.114 140.143 30.152 140.131 30.192 140.127 30.884 140.127 30.909 140.129 30.934 140.134 30.958 140.142 30.981 140.152 31.002 140.166 31.021 140.182 31.039 140.2 31.053 140.221 31.108 140.302 31.266 140.562 31.419 140.837 31.565 141.122 31.703 141.415 31.831 141.713 31.947 142.013 32.05 142.312 32.137 142.608 32.137 142.608 32.214 142.907 32.283 143.216 32.343 143.533 32.395 143.854 32.436 144.177 32.467 144.499 32.486 144.817 32.492 145.127 32.492 145.127 32.468 145.779 32.395 146.427 32.275 147.068 32.111 147.7 31.903 148.318 31.654 148.919 31.365 149.501 31.037 150.059"/><polygon fill="none" stroke="#000" stroke-width=".1" points="31.052 150.036 30.884 150.127 30.909 150.125 30.933 150.121 30.957 150.113 30.979 150.102 31.001 150.089 31.02 150.074 31.037 150.056 31.052 150.036"/><polyline fill="none" stroke="#000" stroke-width=".1" points="30.192 150.127 30.884 150.127"/><polygon fill="none" stroke="#000" stroke-width=".1" points="30.192 150.127 30.192 150.127 30.192 150.127"/><polyline fill="none" stroke="#000" stroke-width=".1" points="30.884 142.533 30.884 142.232 30.884 141.932 30.884 141.631 30.884 141.33 30.884 141.029 30.884 140.728 30.884 140.428 30.884 140.127"/><polyline fill="none" stroke="#000" stroke-width=".1" points="30.884 150.127 30.884 149.825 30.884 149.522 30.884 149.22 30.884 148.917 30.884 148.614 30.884 148.312 30.884 148.009 30.884 147.707"/><polygon fill="none" stroke="#000" stroke-width=".1" points="28.342 141.627 28.342 142.591 28.342 143.479 28.342 144.316 28.342 145.127 28.342 145.938 28.342 146.775 28.342 147.663 28.342 148.627 29.992 148.627 29.992 147.752 29.992 146.877 29.992 146.002 29.992 145.127 29.992 144.252 29.992 143.377 29.992 142.502 29.992 141.627 28.342 141.627"/><polygon fill="none" stroke="#000" stroke-width=".1" points="25.267 146.335 25.277 146.189 25.413 145.495 25.656 144.861 26.077 144.329 26.638 143.946 27.288 143.748 27.967 143.753 28.614 143.961 29.17 144.351 29.584 144.89 29.817 145.527 29.85 146.205 29.811 146.448 29.622 147.205 29.576 147.321 29.524 147.435 29.456 147.56 29.38 147.681 29.296 147.797 29.205 147.907 29.108 148.011 29.004 148.109 28.894 148.2 28.779 148.284 28.658 148.36 28.533 148.428 28.404 148.489 28.271 148.541 28.135 148.584 27.997 148.619 27.856 148.646 27.715 148.663 27.572 148.671 27.43 148.67 27.287 148.66 27.146 148.641 27.006 148.613 26.868 148.577 26.733 148.531 26.601 148.477 26.472 148.415 26.348 148.345 26.229 148.268 26.114 148.182 26.005 148.09 25.903 147.991 25.806 147.886 25.717 147.775 25.635 147.658 25.561 147.537 25.494 147.411 25.435 147.281 25.385 147.147 25.343 147.011 25.31 146.872 25.286 146.732 25.273 146.607 25.267 146.482"/><polyline fill="none" stroke="#000" stroke-width=".1" points="26.181 145.191 26.838 144.939 27.541 144.901 28.221 145.083 28.812 145.465 29.136 145.864"/><polygon fill="none" stroke="#000" stroke-width=".1" points="26.181 145.191"/><polygon fill="none" stroke="#000" stroke-width=".1" points="18.54 139.944 18.584 139.939 21.455 139.939 21.5 139.944 22.511 140.162 22.539 140.177 22.564 140.205 22.564 150.006 22.27 150.077 18.008 150.156 12.019 148.604 12.019 141.649"/><polygon fill="none" stroke="#000" stroke-width=".1" points="18.433 144.772 18.41 144.725 18.387 144.679 18.364 144.632 18.341 144.585 18.319 144.538 18.297 144.491 18.275 144.443 18.254 144.396 18.244 144.371 17.887 143.298 17.792 142.183 17.995 141.073 18.433 140.023 18.462 139.987 18.498 139.961 18.54 139.945 18.584 139.94 21.455 139.94 21.5 139.945 21.541 139.961 21.577 139.987 21.607 140.023 22.044 141.073 22.247 142.183 22.152 143.298 21.796 144.371 21.785 144.396 21.764 144.443 21.743 144.491 21.72 144.538 21.698 144.585 21.675 144.632 21.653 144.679 21.63 144.725 21.607 144.772 21.875 145.397 22.073 146.005 22.252 147.313 22.208 147.958 22.074 148.608 21.607 149.835 21.577 149.871 21.541 149.9 21.5 149.918 21.456 149.925 21.797 149.963 22.043 149.999 22.213 150.039 22.27 150.078 22.214 150.116 22.045 150.156 21.455 150.231 18.584 150.231 18.249 150.192 18.008 150.156 17.787 150.078 17.842 150.039 18.009 149.999 18.261 149.961 18.584 149.925 18.54 149.918 18.498 149.9 18.462 149.871 18.433 149.835 17.965 148.608 17.832 147.958 17.787 147.313 17.967 146.005 18.165 145.397 18.433 144.772"/><line x1="21.455" x2="18.584" y1="150.231" y2="150.231" fill="none" stroke="#000" stroke-width=".1"/><polyline fill="none" stroke="#000" stroke-width=".1" points="18.584 150.231 18.581 150.231 18.578 150.231 18.574 150.231 18.571 150.231 18.568 150.23 18.565 150.23 18.562 150.23 18.559 150.229"/><line x1="18.433" x2="21.607" y1="144.753" y2="144.753" fill="none" stroke="#000" stroke-width=".1"/><polyline fill="none" stroke="#000" stroke-width=".1" points="21.51 150.221 21.499 150.226 21.499 150.226 21.455 150.23"/><polygon fill="none" stroke="#000" stroke-width=".1" points="21.51 150.221"/><line x1="18.584" x2="21.455" y1="149.924" y2="149.924" fill="none" stroke="#000" stroke-width=".1"/><polyline fill="none" stroke="#000" stroke-width=".1" points="18.584 150.23 18.584 150.231 18.584 150.231"/><polygon fill="none" stroke="#000" stroke-width=".1" points="18.584 150.23"/><polyline fill="none" stroke="#000" stroke-width=".1" points="18.584 150.23 18.54 150.226 18.529 150.221"/><polygon fill="none" stroke="#000" stroke-width=".1" points="18.584 150.23"/><polyline fill="none" stroke="#000" stroke-width=".1" points="16.131 149.256 16.131 149.263 16.131 149.262"/><polygon fill="none" stroke="#000" stroke-width=".1" points="16.131 149.256"/><rect width="2" height="15" x="45.019" y="246.432" fill="none" stroke="#000" stroke-width=".1"/><polygon fill="none" stroke="#000" stroke-width=".1" points="47.019 246.432 63.116 244.422 63.116 263.441 47.019 261.432"/><rect width="1" height="8" x="44.019" y="249.932" fill="none" stroke="#000" stroke-width=".1"/><polyline fill="none" stroke="#000" stroke-width=".1" points="19.181 87.446 18.788 82.068 18.443 76.987 18.161 72.187 17.959 67.655 17.852 63.374 17.855 59.33 17.984 55.508 18.255 51.892"/><polyline fill="none" stroke="#000" stroke-width=".1" points="24.255 87.075 23.862 81.696 23.517 76.615 23.235 71.816 23.033 67.283 22.926 63.003 22.929 58.959 23.058 55.137 23.329 51.521"/><polyline fill="none" stroke="#000" stroke-width=".1" points="39.511 218.745 38.736 218.331 38.736 218.331 37.81 218.034 36.801 217.894 35.933 217.917 35.055 218.077 33.518 218.732"/><polygon fill="none" stroke="#000" stroke-width=".1" points="39.511 218.745"/><polyline fill="none" stroke="#000" stroke-width=".1" points="33.485 217.083 36.475 216.831 39.466 216.609"/><polygon fill="none" stroke="#000" stroke-width=".1" points="33.485 217.083"/><polyline fill="none" stroke="#000" stroke-width=".1" points="33.573 218.08 36.562 217.828 39.553 217.605"/><polygon fill="none" stroke="#000" stroke-width=".1" points="33.573 218.08"/><polyline fill="none" stroke="#000" stroke-width=".1" points="33.52 219.354 34.666 218.846 35.892 218.587 37.146 218.587 38.373 218.846 39.519 219.354"/><polygon fill="none" stroke="#000" stroke-width=".1" points="33.52 219.354"/><circle id="center_00" cx="36.5" cy="223.5" r="12.5" fill="none" stroke="#000" stroke-width=".1"/></svg>