<svg xmlns="http://www.w3.org/2000/svg" xmlns:svg="http://www.w3.org/2000/svg" style="shape-rendering:geometricPrecision;text-rendering:geometricPrecision;image-rendering:optimizeQuality;fill-rule:evenodd;clip-rule:evenodd" id="svg2" width="297mm" height="210mm" viewBox="0 0 297 210" xml:space="preserve"><metadata id="metadata42"/><defs id="defs4"><style id="style6" type="text/css">.str0{stroke:#da251d;stroke-width:.0762}.fil0{fill:#dededd}</style><metadata id="CorelCorpID_0Corel-Layer"/></defs><polygon style="fill:#dededd;stroke:#da251d;stroke-width:.0762" id="polygon16" points="190.812 154.895 190.812 156.189 189.827 156.386 189.07 156.503 188.123 156.62 187.209 156.689 186.205 156.71 185.201 156.689 184.287 156.62 183.341 156.503 182.583 156.386 181.599 156.189 181.599 154.895 190.812 154.895" class="fil0 str0"/><circle style="fill:#dededd;stroke:#da251d;stroke-width:.0762" id="center_00" cx="250.205" cy="156.189" r="2.592" class="fil0 str0"/><polygon style="fill:#dededd;stroke:#da251d;stroke-width:.0762" id="polygon19" points="254.812 154.895 254.812 156.189 253.827 156.386 253.07 156.503 252.123 156.62 251.209 156.689 250.205 156.71 249.201 156.689 248.287 156.62 247.341 156.503 246.583 156.386 245.599 156.189 245.599 154.895 254.812 154.895" class="fil0 str0"/><rect style="fill:#dededd;stroke:#da251d;stroke-width:.0762" id="rect23" width="18" height="8" x="177.205" y="146.895" class="fil0 str0"/><rect style="fill:#dededd;stroke:#da251d;stroke-width:.0762" id="rect25" width="18" height="8" x="241.205" y="146.895" class="fil0 str0"/><polygon style="fill:#dededd;stroke:#da251d;stroke-width:.0762" id="polygon27" points="187.166 65.296 184.857 89.275 184.768 90.831 184.776 91.05 184.812 91.273 184.908 91.542 185.095 91.833 185.294 92.03 185.554 92.197 185.839 92.302 186.115 92.342 186.991 92.332 272.686 84.177 273.525 84.162 274.598 84.33 275.427 84.621 275.977 84.907 276.579 85.332 277.154 85.893 277.397 86.199 277.689 86.685 277.702 86.684 277.741 86.77 277.782 86.838 277.777 86.851 277.967 87.277 278.144 87.948 278.205 88.653 278.205 90.857 278.205 143.895 278.154 143.895 278.171 144.35 277.957 145.091 277.638 145.65 277.006 146.295 276.448 146.626 275.61 146.868 275.205 146.895 142.821 146.895 142.168 146.868 141.635 146.808 140.963 146.63 140.429 146.378 129.636 141.582 129.044 141.233 128.492 140.69 128.063 139.943 127.854 138.84 127.951 138.081 128.197 137.447 128.689 136.764 129.592 136.118 130.462 135.866 131.302 135.874 132.072 136.099 142.865 140.895 142.866 140.895 271.281 140.895 271.623 140.795 271.852 140.649 272.016 140.472 272.093 140.346 272.148 140.22 272.205 139.843 272.205 93.44 272.205 91.881 272.14 91.48 271.961 91.1 271.746 90.84 271.452 90.618 271.016 90.452 270.609 90.408 185.431 98.507 183.986 98.645 183.874 98.612 183.884 98.651 182.93 98.642 182.226 98.517 181.428 98.241 180.626 97.793 179.888 97.173 179.383 96.572 178.963 95.869 178.696 95.21 178.476 94.143 178.453 93.179 178.563 92.038 181.214 64.502 181.621 63.342 182.258 62.599 183.023 62.13 184.189 61.895 185.499 62.196 186.43 62.901 187.024 63.912 187.166 65.296" class="fil0 str0"/></svg>