<svg xmlns="http://www.w3.org/2000/svg" width="297mm" height="210mm" viewBox="0 0 297 210" xml:space="preserve" style="shape-rendering:geometricPrecision;text-rendering:geometricPrecision;image-rendering:optimizeQuality;fill-rule:evenodd;clip-rule:evenodd"><defs><style type="text/css">.str0,.str1{stroke-width:.0762}.str1{stroke:#1f1a17}.str0{stroke:#da251d}.fil1{fill:none}.fil0{fill:#dededd}</style></defs><g id="Ebene_x0020_1"><metadata id="CorelCorpID_0Corel-Layer"/><polygon points="271.194 140.999 270.569 141.466 269.697 141.809 268.954 141.895 157.205 141.895 157.205 104.895 157.205 67.895 268.954 67.895 269.697 67.981 270.569 68.324 271.194 68.79 271.686 69.383 272.048 70.147 272.205 71.146 272.205 104.895 272.205 138.644 272.048 139.643 271.686 140.406" class="fil0 str0"/><polygon points="164.703 142.395 147.205 142.395 147.205 104.895 147.205 104.895 147.205 104.895 147.205 67.395 164.703 67.395 164.703 104.895 164.703 104.895 164.703 104.895" class="fil0 str0"/><polygon points="62.026 133.122 61.63 133.458 61.197 133.695 60.653 133.856 60.22 133.895 43.642 133.895 42.878 133.8 42.252 133.471 41.748 133.025 41.411 132.522 41.206 131.956 39.205 122.895 39.205 104.895 39.209 104.893 39.205 104.895 39.205 86.894 41.206 77.834 41.411 77.267 41.748 76.765 42.252 76.319 42.878 75.99 43.642 75.894 60.22 75.894 60.653 75.934 61.197 76.095 61.63 76.332 62.026 76.668 62.205 76.894 63.643 78.132 64.814 78.864 66.03 79.394 67.444 79.752 68.59 79.873 69.705 79.894 70.835 79.873 72.241 79.702 73.559 79.33 74.756 78.778 76.143 77.846 77.205 76.894 77.818 73.834 78.211 72.32 78.67 70.966 79.332 69.627 79.879 68.907 80.473 68.396 81.273 68.022 82.205 67.894 117.205 67.894 118.269 68.027 119.462 68.55 120.147 69.123 120.833 69.696 122.035 71.016 123.412 72.492 124.521 73.474 125.939 74.427 127.376 75.097 129.19 75.614 130.777 75.836 132.958 75.862 135.419 75.572 137.082 75.079 138.651 74.324 139.687 73.63 140.921 72.567 142.874 70.46 144.512 68.854 145.814 68.127 147.205 67.894 147.205 104.895 147.205 141.896 145.814 141.662 144.512 140.936 142.874 139.33 140.921 137.223 139.687 136.16 138.651 135.466 137.082 134.711 135.419 134.218 132.958 133.928 130.777 133.954 129.19 134.176 127.376 134.693 125.939 135.363 124.521 136.316 123.412 137.298 122.035 138.774 120.833 140.094 120.147 140.667 119.462 141.24 118.269 141.763 117.205 141.896 82.205 141.896 81.273 141.768 80.473 141.394 79.879 140.883 79.332 140.162 78.67 138.824 78.211 137.47 77.818 135.956 77.205 132.896 76.143 131.944 74.756 131.012 73.559 130.46 72.241 130.088 70.835 129.917 69.705 129.896 68.59 129.917 67.444 130.038 66.03 130.396 64.814 130.926 63.643 131.659 62.205 132.896" class="fil0 str0"/><polygon points="190.812 154.895 190.812 156.189 189.827 156.386 189.07 156.503 188.123 156.62 187.209 156.689 186.205 156.71 185.201 156.689 184.287 156.62 183.341 156.503 182.583 156.386 181.599 156.189 181.599 154.895" class="fil0 str0"/><circle id="center_00" cx="250.205" cy="156.189" r="2.592" class="fil0 str0"/><polygon points="254.812 154.895 254.812 156.189 253.827 156.386 253.07 156.503 252.123 156.62 251.209 156.689 250.205 156.71 249.201 156.689 248.287 156.62 247.341 156.503 246.583 156.386 245.599 156.189 245.599 154.895" class="fil0 str0"/><rect width="5.934" height="58.001" x="54.286" y="75.894" class="fil0 str0"/><rect width="18" height="8.001" x="177.205" y="146.895" class="fil0 str0"/><rect width="18" height="8.001" x="241.205" y="146.895" class="fil0 str0"/><polygon points="187.166 65.296 184.857 89.275 184.768 90.831 184.776 91.05 184.812 91.273 184.908 91.542 185.095 91.833 185.294 92.03 185.554 92.197 185.839 92.302 186.115 92.342 186.991 92.332 272.686 84.177 273.525 84.162 274.598 84.33 275.427 84.621 275.977 84.907 276.579 85.332 277.154 85.893 277.397 86.199 277.689 86.685 277.702 86.684 277.741 86.77 277.782 86.838 277.777 86.851 277.967 87.277 278.144 87.948 278.205 88.653 278.205 90.857 278.205 143.895 278.154 143.895 278.171 144.35 277.957 145.091 277.638 145.65 277.006 146.295 276.448 146.626 275.61 146.868 275.205 146.895 142.821 146.895 142.168 146.868 141.635 146.808 140.963 146.63 140.429 146.378 129.636 141.582 129.044 141.233 128.492 140.69 128.063 139.943 127.854 138.84 127.951 138.081 128.197 137.447 128.689 136.764 129.592 136.118 130.462 135.866 131.302 135.874 132.072 136.099 142.865 140.895 142.866 140.895 271.281 140.895 271.623 140.795 271.852 140.649 272.016 140.472 272.093 140.346 272.148 140.22 272.205 139.843 272.205 93.44 272.205 91.881 272.14 91.48 271.961 91.1 271.746 90.84 271.452 90.618 271.016 90.452 270.609 90.408 185.431 98.507 183.986 98.645 183.874 98.612 183.884 98.651 182.93 98.642 182.226 98.517 181.428 98.241 180.626 97.793 179.888 97.173 179.383 96.572 178.963 95.869 178.696 95.21 178.476 94.143 178.453 93.179 178.563 92.038 181.214 64.502 181.621 63.342 182.258 62.599 183.023 62.13 184.189 61.895 185.499 62.196 186.43 62.901 187.024 63.912" class="fil0 str0"/><polygon points="22.8 95.699 23.214 95.477 23.705 95.395 24.256 95.5 24.648 95.729 24.905 95.995 25.124 96.408 25.205 96.895 25.205 104.895 25.205 112.895 25.124 113.382 24.905 113.795 24.648 114.061 24.256 114.29 23.705 114.395 23.214 114.313 22.8 114.092 22.501 113.79 22.301 113.425 22.205 112.895 22.205 104.895 22.205 96.895 22.301 96.365 22.501 96" class="fil0 str0"/><polygon points="37.205 86.894 39.205 86.894 39.205 104.895 39.204 104.893 39.205 104.895 39.205 122.895 37.205 122.895 35.505 113.395 35.505 104.895 35.505 96.395" class="fil0 str0"/><polygon points="25.205 113.395 35.505 113.395 35.505 104.895 35.505 96.395 25.205 96.395 25.205 104.895" class="fil0 str0"/><rect width=".959" height="58.001" x="53.328" y="75.894" class="fil0 str0"/><line x1="77.205" x2="77.205" y1="79.895" y2="129.895" class="fil1 str1"/><line x1="121.962" x2="121.962" y1="74.895" y2="134.895" class="fil1 str1"/></g></svg>
