<svg xmlns="http://www.w3.org/2000/svg" xmlns:svg="http://www.w3.org/2000/svg" style="shape-rendering:geometricPrecision;text-rendering:geometricPrecision;image-rendering:optimizeQuality;fill-rule:evenodd;clip-rule:evenodd" id="svg2" width="297mm" height="210mm" viewBox="0 0 297 210" xml:space="preserve"><metadata id="metadata24"/><defs id="defs4"><style id="style6" type="text/css">.str0{stroke:#da251d;stroke-width:.0762}.fil1{fill:#dededd}</style><metadata id="CorelCorpID_0Corel-Layer"/></defs><polygon style="fill:#dededd;stroke:#da251d;stroke-width:.0762" id="polygon12" points="137.496 154.895 137.496 156.189 136.512 156.386 135.755 156.503 134.807 156.62 133.893 156.689 132.889 156.71 131.886 156.689 130.971 156.62 130.025 156.503 129.268 156.386 128.283 156.189 128.283 154.895 137.496 154.895" class="fil1 str0"/><circle style="fill:#dededd;stroke:#da251d;stroke-width:.0762" id="center_00" cx="196.89" cy="156.189" r="2.592" class="fil1 str0"/><polygon style="fill:#dededd;stroke:#da251d;stroke-width:.0762" id="polygon15" points="201.497 154.895 201.497 156.189 200.512 156.386 199.755 156.503 198.808 156.62 197.894 156.689 196.89 156.71 195.886 156.689 194.972 156.62 194.026 156.503 193.268 156.386 192.284 156.189 192.284 154.895 201.497 154.895" class="fil1 str0"/></svg>
