<svg xmlns="http://www.w3.org/2000/svg" width="297mm" height="210mm" viewBox="0 0 297 210"><g id="Ebene_x0020_1"><polygon id="polygon8" fill="none" stroke="#000" stroke-width=".1" points="191.23 104.34 191.681 103.1 192.793 101.887 194.312 101.258 196.972 100 196.746 96.982 193.928 96.134 192.332 95.738 191.052 94.705 190.421 93.546 190.224 92.241 190.486 90.947 191.404 89.582 192.813 88.733 195.256 87.093 194.582 84.142 191.67 83.724 190.032 83.571 188.613 82.739 187.816 81.687 187.427 80.426 187.492 79.108 188.197 77.622 189.464 76.572 191.635 74.586 190.529 71.769 187.587 71.79 185.944 71.882 184.417 71.271 183.472 70.35 182.899 69.161 182.768 67.848 183.243 66.273 184.339 65.046 186.19 62.759 184.676 60.138 181.77 60.597 180.16 60.933 178.559 60.557 177.487 59.786 176.744 58.696 176.418 57.417 176.653 55.789 177.554 54.413 179.043 51.875 177.156 49.509 174.351 50.396 172.808 50.968 171.169 50.835 169.995 50.233 169.097 49.266 168.584 48.049 168.574 46.405 169.26 44.909 170.354 42.178 168.135 40.119 165.494 41.415 164.054 42.211 162.413 42.323 161.162 41.903 160.13 41.08 159.442 39.954 159.187 38.329 159.642 36.748 160.317 33.885 157.816 32.179 155.397 33.854 154.092 34.856 152.486 35.212 151.186 34.982 150.043 34.323 149.195 33.312 148.701 31.743 148.915 30.112 149.156 27.179 146.429 25.866 144.286 27.883 143.145 29.067 141.61 29.659 140.291 29.626 139.062 29.144 138.073 28.27 137.35 26.793 137.319 25.148 137.12 22.213 134.228 21.321 132.41 23.634 131.458 24.975 130.028 25.789 128.719 25.953 127.432 25.659 126.323 24.943 125.388 23.59 125.113 21.968 124.478 19.095 121.485 18.644 120.032 21.203 119.291 22.671 117.999 23.689 116.728 24.046 115.412 23.947 114.209 23.405 113.083 22.206 112.569 20.643 111.513 17.897 108.486 17.897 107.431 20.643 106.917 22.206 105.79 23.405 104.588 23.947 103.271 24.046 102.001 23.689 100.709 22.671 99.967 21.203 98.514 18.644 95.521 19.095 94.887 21.968 94.611 23.59 93.676 24.943 92.568 25.659 91.281 25.953 89.972 25.789 88.542 24.975 87.59 23.634 85.772 21.321 82.88 22.213 82.681 25.148 82.65 26.793 81.927 28.27 80.937 29.144 79.709 29.626 78.39 29.659 76.855 29.067 75.713 27.883 73.571 25.866 70.844 27.179 71.084 30.112 71.299 31.743 70.805 33.312 69.956 34.323 68.813 34.982 67.514 35.212 65.908 34.856 64.603 33.854 62.183 32.179 59.683 33.885 60.358 36.748 60.813 38.329 60.558 39.954 59.87 41.08 58.838 41.903 57.587 42.323 55.946 42.211 54.506 41.415 51.864 40.119 49.645 42.178 50.74 44.909 51.426 46.405 51.415 48.049 50.903 49.266 50.005 50.233 48.831 50.835 47.191 50.968 45.649 50.396 42.844 49.509 40.956 51.875 42.446 54.413 43.347 55.789 43.582 57.417 43.256 58.696 42.513 59.786 41.441 60.557 39.84 60.933 38.229 60.597 35.323 60.138 33.81 62.759 35.661 65.046 36.757 66.273 37.232 67.848 37.1 69.161 36.528 70.35 35.583 71.271 34.055 71.882 32.413 71.79 29.471 71.769 28.365 74.586 30.536 76.572 31.803 77.622 32.507 79.108 32.573 80.426 32.184 81.687 31.387 82.739 29.968 83.571 28.33 83.724 25.418 84.142 24.744 87.093 27.187 88.733 28.596 89.582 29.514 90.947 29.775 92.241 29.579 93.546 28.947 94.705 27.668 95.738 26.071 96.134 23.254 96.982 23.027 100 25.687 101.258 27.207 101.887 28.318 103.1 28.77 104.34 28.77 105.66 28.318 106.9 27.207 108.113 25.687 108.742 23.027 110 23.254 113.018 26.071 113.866 27.668 114.261 28.947 115.295 29.579 116.454 29.775 117.759 29.514 119.053 28.596 120.418 27.187 121.267 24.744 122.907 25.418 125.858 28.33 126.276 29.968 126.429 31.387 127.26 32.184 128.312 32.573 129.574 32.507 130.892 31.803 132.378 30.536 133.428 28.365 135.413 29.471 138.231 32.413 138.21 34.055 138.118 35.583 138.728 36.528 139.65 37.1 140.839 37.232 142.152 36.757 143.727 35.661 144.953 33.81 147.241 35.323 149.862 38.229 149.403 39.84 149.067 41.441 149.443 42.513 150.213 43.256 151.304 43.582 152.583 43.347 154.211 42.446 155.587 40.956 158.124 42.844 160.491 45.649 159.604 47.191 159.031 48.831 159.165 50.005 159.767 50.903 160.734 51.415 161.95 51.426 163.595 50.74 165.09 49.645 167.821 51.864 169.88 54.506 168.585 55.946 167.789 57.587 167.676 58.838 168.097 59.87 168.92 60.558 170.046 60.813 171.671 60.358 173.251 59.683 176.115 62.183 177.82 64.603 176.146 65.908 175.144 67.514 174.788 68.813 175.017 69.956 175.677 70.805 176.688 71.299 178.257 71.084 179.888 70.844 182.82 73.571 184.134 75.713 182.117 76.855 180.932 78.39 180.341 79.709 180.374 80.937 180.856 81.927 181.729 82.65 183.207 82.681 184.851 82.88 187.787 85.772 188.679 87.59 186.366 88.542 185.024 89.972 184.211 91.281 184.047 92.568 184.34 93.676 185.056 94.611 186.41 94.887 188.031 95.521 190.904 98.514 191.355 99.967 188.797 100.709 187.329 102.001 186.311 103.271 185.954 104.588 186.052 105.79 186.595 106.917 187.794 107.431 189.356 108.486 192.103 111.513 192.103 112.569 189.356 113.083 187.794 114.209 186.595 115.412 186.052 116.728 185.954 117.999 186.311 119.291 187.329 120.032 188.797 121.485 191.355 124.478 190.904 125.113 188.031 125.388 186.41 126.323 185.056 127.432 184.34 128.719 184.047 130.028 184.211 131.458 185.024 132.41 186.366 134.228 188.679 137.12 187.787 137.319 184.851 137.35 183.207 138.073 181.729 139.062 180.856 140.291 180.374 141.61 180.341 143.145 180.932 144.286 182.117 146.429 184.134 149.156 182.82 148.915 179.888 148.701 178.257 149.195 176.688 150.043 175.677 151.186 175.017 152.486 174.788 154.092 175.144 155.397 176.146 157.816 177.82 160.317 176.115 159.642 173.251 159.187 171.671 159.442 170.046 160.13 168.92 161.162 168.097 162.413 167.676 164.054 167.789 165.494 168.585 168.135 169.88 170.354 167.821 169.26 165.09 168.574 163.595 168.584 161.95 169.097 160.734 169.995 159.767 171.169 159.165 172.809 159.031 174.351 159.604 177.156 160.491 179.043 158.124 177.554 155.587 176.653 154.211 176.418 152.583 176.744 151.304 177.487 150.213 178.559 149.443 180.16 149.067 181.77 149.403 184.676 149.862 186.19 147.241 184.339 144.953 183.243 143.727 182.768 142.152 182.899 140.839 183.472 139.65 184.417 138.728 185.944 138.118 187.587 138.21 190.529 138.231 191.635 135.413 189.464 133.428 188.197 132.378 187.492 130.892 187.427 129.574 187.816 128.312 188.613 127.26 190.032 126.429 191.67 126.276 194.582 125.858 195.256 122.907 192.813 121.267 191.404 120.418 190.486 119.053 190.224 117.759 190.421 116.454 191.052 115.295 192.332 114.261 193.929 113.866 196.746 113.018 196.972 110 194.312 108.742 192.793 108.113 191.681 106.9 191.23 105.66 183.647 105.737 183.527 109.284 183.242 112.787 182.796 116.242 182.191 119.645 181.432 122.992 180.524 126.28 179.469 129.504 178.272 132.661 178.272 132.661 177.608 133.893 176.778 134.96 175.758 135.81 174.523 136.386 173.048 136.635 171.307 136.5 169.278 135.928 166.934 134.864 155.995 149.92 157.686 151.763 158.845 153.468 159.526 155.041 159.783 156.489 159.671 157.816 159.244 159.03 158.556 160.136 157.662 161.14 157.662 161.14 152.671 165.027 147.351 168.482 141.728 171.478 135.829 173.989 129.681 175.989 123.309 177.45 116.74 178.346 110 178.65 110 178.65 109.315 178.647 108.631 178.637 107.949 178.621 107.269 178.599 106.59 178.571 105.913 178.536 105.237 178.496 104.563 178.45 104.563 178.45 103.227 178.176 101.997 177.697 100.915 176.974 100.023 175.97 99.363 174.646 98.976 172.965 98.905 170.887 99.191 168.376 81.492 162.625 80.245 164.828 78.965 166.468 77.661 167.601 76.347 168.282 75.034 168.568 73.732 168.514 72.454 168.176 71.21 167.61 71.21 167.61 65.386 163.594 59.985 159.052 55.044 154.021 50.599 148.537 46.687 142.637 43.346 136.359 40.611 129.738 38.521 122.811 38.521 122.811 38.325 121.416 38.359 120.056 38.678 118.759 39.333 117.558 40.378 116.482 41.867 115.56 43.851 114.824 46.386 114.304 46.386 95.694 43.87 95.18 41.896 94.453 40.41 93.543 39.362 92.479 38.698 91.292 38.368 90.01 38.32 88.664 38.501 87.282 38.501 87.282 40.587 80.34 43.319 73.705 46.66 67.412 50.573 61.5 55.022 56.005 59.969 50.963 65.377 46.413 71.21 42.39 71.21 42.39 72.453 41.824 73.732 41.485 75.034 41.431 76.348 41.717 77.662 42.398 78.965 43.531 80.246 45.171 81.493 47.374 99.192 41.624 98.906 39.118 98.976 37.045 99.36 35.365 100.016 34.042 100.903 33.037 101.979 32.313 103.204 31.831 104.535 31.554 104.535 31.554 105.212 31.507 105.891 31.466 106.572 31.431 107.255 31.402 107.938 31.379 108.624 31.363 109.311 31.353 110 31.349 110 31.349 116.739 31.654 123.308 32.55 129.68 34.011 135.829 36.01 141.728 38.521 147.35 41.517 152.67 44.972 157.66 48.859 157.66 48.859 158.555 49.863 159.243 50.969 159.671 52.183 159.784 53.51 159.527 54.958 158.846 56.532 157.688 58.237 155.996 60.081 166.935 75.137 169.277 74.073 171.306 73.501 173.045 73.366 174.52 73.613 175.755 74.188 176.775 75.036 177.605 76.103 178.269 77.332 178.269 77.332 179.465 80.485 180.519 83.704 181.427 86.987 182.185 90.328 182.791 93.726 183.238 97.175 183.525 100.672 183.646 104.214 191.23 104.34"/><polyline id="_new_40_1" fill="none" stroke="#000" stroke-width=".1" points="187.939 108.004 185.94 123.358 181.112 137.62 173.755 150.492 164.169 161.677 152.657 170.876 139.519 177.792 125.055 182.126 109.568 183.582 109.568 183.582 93.858 181.914 79.242 177.292 66.031 170.031 54.536 160.445 45.072 148.851 37.949 135.564 33.48 120.9 31.977 105.174 31.977 105.174 33.644 89.465 38.267 74.849 45.528 61.637 55.114 50.143 66.708 40.678 79.995 33.555 94.659 29.087 110.384 27.584 110.384 27.584 125.819 29.194 140.205 33.658 153.247 40.679 164.649 49.957 174.117 61.193 181.354 74.089 186.064 88.345 187.953 103.664"/><g id="_131153184"><polygon id="_130324960" fill="none" stroke="#000" stroke-width=".1" points="37.594 114.561 47.834 114.562 48.054 113.749 48.405 113.001 48.876 112.33 49.453 111.751 50.121 111.276 50.867 110.92 51.678 110.697 52.54 110.619 52.54 110.619 52.6 110.62 52.659 110.621 52.718 110.623 52.777 110.625 52.836 110.629 52.895 110.633 52.953 110.637 53.011 110.642 82.38 113.392 82.738 113.431 83.094 113.479 83.446 113.537 83.795 113.604 84.141 113.681 84.483 113.767 84.821 113.862 85.156 113.966 85.154 113.966 85.339 114.028 85.522 114.092 85.703 114.159 85.883 114.228 86.062 114.299 86.238 114.373 86.414 114.449 86.587 114.528 86.61 114.538 86.635 114.55 86.659 114.561 86.684 114.573 86.709 114.585 86.734 114.597 86.758 114.609 86.783 114.62 86.808 114.632 86.808 114.632 86.823 114.64 86.838 114.647 86.853 114.655 86.869 114.662 86.884 114.669 86.899 114.677 86.914 114.684 86.929 114.692 87.025 114.74 87.725 115.126 88.399 115.553 89.043 116.02 89.657 116.524 90.238 117.065 90.785 117.64 91.296 118.248 91.769 118.887 91.772 118.891 92.13 119.438 92.46 120.003 92.761 120.583 93.032 121.178 93.274 121.786 93.484 122.406 93.663 123.038 93.81 123.678 93.815 123.7 93.82 123.725 93.824 123.749 93.829 123.774 93.834 123.799 93.838 123.823 93.843 123.848 93.847 123.872 93.852 123.897 93.852 123.897 93.855 123.916 93.859 123.934 93.862 123.953 93.866 123.972 93.869 123.99 93.872 124.009 93.876 124.028 93.879 124.047 93.89 124.113 93.93 124.373 93.965 124.633 93.995 124.896 94.02 125.16 94.039 125.425 94.053 125.692 94.061 125.961 94.064 126.23 94.066 126.228 94.061 126.579 94.047 126.93 94.023 127.282 93.989 127.634 93.945 127.987 93.891 128.34 93.828 128.693 93.753 129.046 87.293 157.827 87.28 157.883 87.267 157.94 87.252 157.997 87.237 158.054 87.221 158.111 87.205 158.169 87.188 158.225 87.17 158.282 87.17 158.282 86.83 159.078 86.366 159.78 85.797 160.38 85.14 160.869 84.411 161.238 83.627 161.478 82.806 161.582 81.966 161.539 78.802 171.278 96.434 177.007 99.599 167.269 98.894 166.809 98.291 166.243 97.799 165.588 97.425 164.861 97.181 164.079 97.073 163.259 97.111 162.418 97.304 161.575 97.304 161.575 97.322 161.518 97.342 161.462 97.362 161.406 97.383 161.351 97.404 161.296 97.426 161.241 97.448 161.187 97.471 161.134 109.162 134.052 109.309 133.723 109.465 133.4 109.629 133.083 109.801 132.771 109.981 132.466 110.168 132.167 110.363 131.875 110.565 131.588 110.565 131.591 110.68 131.436 110.796 131.283 110.915 131.132 111.035 130.983 111.157 130.837 111.28 130.693 111.406 130.551 111.533 130.411 111.567 130.374 111.584 130.356 111.602 130.337 111.619 130.318 111.637 130.299 111.655 130.281 111.673 130.262 111.691 130.244 111.709 130.225 111.813 130.118 111.867 130.063 111.888 130.042 111.909 130.021 111.931 130 111.952 129.979 111.973 129.958 111.994 129.937 112.016 129.916 112.037 129.895 112.059 129.874 112.623 129.364 113.214 128.89 113.83 128.452 114.471 128.051 115.133 127.688 115.815 127.364 116.515 127.081 117.231 126.838 117.231 126.838 117.867 126.662 118.511 126.519 119.161 126.408 119.816 126.331 120.474 126.287 121.134 126.276 121.796 126.3 122.456 126.357 122.514 126.364 122.534 126.366 122.555 126.369 122.576 126.371 122.596 126.374 122.617 126.377 122.638 126.38 122.659 126.382 122.68 126.385 122.68 126.385 122.7 126.388 122.72 126.39 122.741 126.393 122.761 126.396 122.782 126.399 122.802 126.401 122.823 126.404 122.843 126.407 122.931 126.421 123.188 126.462 123.445 126.51 123.702 126.562 123.958 126.62 124.215 126.684 124.471 126.753 124.727 126.827 124.982 126.907 124.981 126.904 125.312 127.017 125.642 127.139 125.969 127.271 126.294 127.412 126.616 127.563 126.935 127.723 127.251 127.893 127.564 128.073 152.94 143.11 152.99 143.14 153.04 143.171 153.09 143.202 153.139 143.234 153.189 143.267 153.238 143.3 153.286 143.334 153.335 143.369 153.335 143.369 153.986 143.938 154.511 144.596 154.906 145.322 155.168 146.099 155.293 146.906 155.28 147.726 155.125 148.538 154.824 149.324 163.109 155.343 174.006 140.344 165.722 134.325 165.068 134.853 164.343 135.252 163.568 135.518 162.761 135.648 161.941 135.639 161.128 135.488 160.341 135.192 159.598 134.748 159.598 134.748 159.55 134.713 159.503 134.677 159.456 134.641 159.41 134.604 159.364 134.567 159.319 134.529 159.274 134.491 159.23 134.453 137.087 114.965 136.819 114.723 136.56 114.475 136.309 114.221 136.066 113.962 135.831 113.697 135.605 113.426 135.387 113.15 135.177 112.87 135.18 112.87 135.067 112.713 134.957 112.554 134.85 112.394 134.745 112.233 134.643 112.072 134.544 111.909 134.447 111.745 134.353 111.58 134.335 111.547 134.322 111.524 134.309 111.5 134.296 111.476 134.283 111.452 134.27 111.429 134.257 111.405 134.245 111.381 134.232 111.357 134.166 111.233 134.127 111.156 134.113 111.13 134.1 111.104 134.087 111.077 134.074 111.051 134.061 111.025 134.048 110.999 134.035 110.973 134.022 110.947 134.009 110.919 133.697 110.222 133.427 109.51 133.2 108.785 133.017 108.049 132.877 107.303 132.78 106.551 132.728 105.794 132.72 105.034 132.72 105.034 132.75 104.378 132.814 103.725 132.91 103.075 133.039 102.432 133.201 101.795 133.395 101.167 133.621 100.548 133.878 99.941 133.9 99.893 133.909 99.874 133.918 99.855 133.927 99.836 133.936 99.817 133.945 99.798 133.954 99.779 133.963 99.76 133.972 99.741 133.972 99.741 133.981 99.722 133.99 99.703 133.998 99.685 134.007 99.666 134.016 99.647 134.025 99.629 134.034 99.61 134.044 99.592 134.084 99.512 134.203 99.28 134.327 99.051 134.457 98.823 134.591 98.597 134.731 98.372 134.876 98.15 135.025 97.93 135.181 97.712 135.177 97.712 135.387 97.431 135.605 97.156 135.831 96.885 136.066 96.62 136.309 96.36 136.56 96.106 136.819 95.858 137.087 95.616 159.23 76.129 159.274 76.091 159.318 76.053 159.364 76.015 159.409 75.978 159.456 75.941 159.502 75.905 159.55 75.869 159.598 75.834 159.598 75.834 160.34 75.39 161.128 75.094 161.941 74.943 162.76 74.934 163.567 75.064 164.343 75.33 165.067 75.729 165.722 76.257 174.006 70.238 163.109 55.239 154.824 61.258 155.124 62.044 155.28 62.856 155.293 63.676 155.167 64.483 154.905 65.26 154.511 65.986 153.986 66.644 153.335 67.213 153.335 67.213 153.286 67.248 153.237 67.282 153.188 67.315 153.139 67.348 153.089 67.38 153.04 67.411 152.99 67.441 152.94 67.471 127.563 82.509 127.251 82.689 126.935 82.859 126.616 83.019 126.294 83.17 125.969 83.311 125.642 83.443 125.312 83.565 124.98 83.678 124.982 83.675 124.762 83.744 124.543 83.809 124.323 83.87 124.103 83.927 123.883 83.98 123.662 84.028 123.442 84.073 123.221 84.114 123.139 84.128 122.989 84.153 122.966 84.156 122.943 84.16 122.92 84.163 122.897 84.167 122.874 84.17 122.851 84.174 122.828 84.177 122.805 84.18 122.745 84.189 121.999 84.268 121.252 84.304 120.506 84.296 119.762 84.246 119.023 84.153 118.291 84.018 117.567 83.841 116.854 83.622 116.854 83.622 116.227 83.391 115.614 83.128 115.016 82.834 114.434 82.51 113.868 82.156 113.321 81.773 112.794 81.362 112.288 80.923 112.237 80.877 112.134 80.779 112.117 80.763 112.1 80.747 112.083 80.731 112.066 80.715 112.049 80.698 112.032 80.682 112.015 80.666 111.998 80.65 111.937 80.589 111.754 80.404 111.574 80.215 111.397 80.022 111.224 79.824 111.054 79.622 110.887 79.416 110.724 79.205 110.565 78.99 110.565 78.994 110.362 78.708 110.168 78.416 109.98 78.117 109.8 77.811 109.629 77.5 109.465 77.183 109.309 76.859 109.161 76.53 97.471 49.449 97.448 49.395 97.425 49.341 97.404 49.286 97.382 49.231 97.361 49.176 97.341 49.12 97.322 49.064 97.303 49.008 97.303 49.008 97.11 48.164 97.072 47.324 97.18 46.504 97.425 45.722 97.798 44.995 98.29 44.339 98.894 43.773 99.599 43.314 96.433 33.575 78.802 39.304 81.965 49.043 82.806 49.001 83.626 49.104 84.41 49.345 85.139 49.714 85.797 50.203 86.366 50.803 86.829 51.505 87.169 52.3 87.169 52.3 87.187 52.357 87.204 52.414 87.221 52.471 87.237 52.528 87.252 52.585 87.266 52.642 87.28 52.699 87.293 52.756 93.753 81.537 93.827 81.89 93.891 82.243 93.945 82.596 93.988 82.948 94.022 83.301 94.046 83.653 94.06 84.004 94.065 84.354 94.064 84.353 94.062 84.547 94.058 84.741 94.051 84.934 94.041 85.127 94.028 85.319 94.012 85.51 93.994 85.7 93.973 85.889 93.97 85.915 93.966 85.944 93.963 85.973 93.959 86.002 93.955 86.031 93.951 86.06 93.947 86.089 93.943 86.117 93.939 86.146 93.925 86.248 93.901 86.401 93.897 86.425 93.893 86.448 93.889 86.472 93.886 86.495 93.882 86.518 93.878 86.542 93.874 86.565 93.87 86.589 93.865 86.617 93.71 87.356 93.512 88.082 93.273 88.795 92.994 89.492 92.675 90.17 92.317 90.83 91.922 91.467 91.489 92.082 91.489 92.082 91.076 92.605 90.637 93.105 90.173 93.581 89.685 94.034 89.174 94.461 88.641 94.862 88.088 95.235 87.514 95.58 87.474 95.603 87.454 95.614 87.434 95.625 87.414 95.636 87.394 95.647 87.374 95.658 87.354 95.669 87.334 95.679 87.314 95.69 87.18 95.762 87.098 95.805 86.866 95.922 86.63 96.035 86.392 96.143 86.15 96.247 85.905 96.346 85.658 96.441 85.407 96.531 85.154 96.616 85.157 96.618 84.822 96.721 84.483 96.816 84.141 96.902 83.796 96.979 83.447 97.046 83.094 97.104 82.739 97.152 82.38 97.191 53.011 99.941 52.953 99.946 52.895 99.95 52.836 99.954 52.777 99.958 52.718 99.96 52.659 99.962 52.6 99.963 52.54 99.964 52.54 99.964 51.678 99.886 50.867 99.663 50.121 99.307 49.453 98.832 48.876 98.253 48.405 97.582 48.054 96.834 47.835 96.021 37.594 96.022 37.594 114.561"/><polygon id="_130324104" fill="none" stroke="#000" stroke-width=".1" points="136.932 128.122 136.743 127.995 136.564 127.851 136.398 127.692 136.246 127.518 136.109 127.33 135.987 127.128 135.883 126.913 135.797 126.685 135.797 126.685 135.684 126.162 135.677 125.642 135.77 125.14 135.956 124.668 136.229 124.24 136.58 123.87 137.005 123.57 137.494 123.354 137.494 123.354 137.816 123.272 138.137 123.23 138.456 123.228 138.77 123.265 139.074 123.338 139.367 123.445 139.645 123.586 139.905 123.759 139.905 123.759 139.939 123.786 139.944 123.789 154.407 134.873 154.719 135.166 154.961 135.507 155.13 135.882 155.225 136.28 155.244 136.69 155.186 137.099 155.048 137.496 154.829 137.869 154.829 137.869 154.542 138.192 154.207 138.446 153.836 138.628 153.441 138.736 153.033 138.769 152.624 138.724 152.225 138.599 151.849 138.393 136.936 128.146 136.935 128.145 136.934 128.143 136.933 128.141 136.933 128.138 136.932 128.135 136.932 128.131 136.932 128.127 136.932 128.122"/><polygon id="_131152592" fill="none" stroke="#000" stroke-width=".1" points="83.681 105.291 83.624 105.858 83.46 106.386 83.2 106.863 82.857 107.28 82.441 107.623 81.963 107.883 81.435 108.046 80.868 108.104 80.868 108.104 80.844 108.103 80.82 108.103 80.796 108.103 80.772 108.102 80.748 108.101 80.724 108.1 80.7 108.099 80.676 108.097 56.667 107.467 56.241 107.413 55.845 107.279 55.488 107.075 55.177 106.809 54.921 106.489 54.728 106.123 54.606 105.721 54.564 105.291 54.564 105.291 54.606 104.861 54.728 104.459 54.921 104.093 55.177 103.773 55.488 103.507 55.845 103.303 56.241 103.169 56.667 103.115 80.676 102.485 80.7 102.483 80.724 102.482 80.748 102.481 80.772 102.48 80.796 102.479 80.82 102.479 80.844 102.478 80.868 102.478 80.868 102.478 81.435 102.535 81.963 102.699 82.441 102.959 82.857 103.302 83.2 103.718 83.46 104.196 83.624 104.724 83.681 105.291"/><polygon id="_131151968" fill="none" stroke="#000" stroke-width=".1" points="101.859 130.312 102.38 130.541 102.832 130.861 103.206 131.255 103.496 131.71 103.694 132.212 103.793 132.747 103.786 133.299 103.665 133.856 103.665 133.856 103.657 133.879 103.65 133.902 103.642 133.925 103.633 133.947 103.625 133.97 103.617 133.992 103.608 134.014 103.599 134.036 95.581 156.676 95.398 157.064 95.149 157.399 94.844 157.676 94.495 157.89 94.111 158.034 93.704 158.105 93.284 158.097 92.861 158.004 92.861 158.004 92.465 157.831 92.12 157.591 91.833 157.294 91.607 156.952 91.45 156.574 91.366 156.171 91.362 155.753 91.442 155.331 98.262 132.302 98.268 132.279 98.274 132.256 98.28 132.233 98.287 132.21 98.293 132.187 98.3 132.164 98.308 132.141 98.315 132.118 98.315 132.118 98.544 131.596 98.863 131.145 99.258 130.771 99.713 130.481 100.215 130.283 100.75 130.184 101.302 130.191 101.859 130.312"/><polygon id="_131151584" fill="none" stroke="#000" stroke-width=".1" points="101.859 80.27 101.302 80.391 100.75 80.398 100.215 80.299 99.713 80.101 99.258 79.812 98.863 79.437 98.544 78.986 98.315 78.465 98.315 78.465 98.308 78.442 98.3 78.419 98.293 78.396 98.287 78.373 98.28 78.349 98.274 78.326 98.268 78.303 98.262 78.28 91.442 55.251 91.362 54.83 91.366 54.412 91.45 54.009 91.607 53.631 91.833 53.288 92.12 52.992 92.465 52.752 92.861 52.578 92.861 52.578 93.284 52.486 93.704 52.477 94.111 52.548 94.495 52.693 94.844 52.906 95.149 53.183 95.398 53.518 95.581 53.907 103.599 76.546 103.608 76.568 103.617 76.59 103.625 76.613 103.633 76.635 103.642 76.658 103.65 76.681 103.657 76.703 103.665 76.726 103.665 76.726 103.786 77.283 103.793 77.836 103.694 78.37 103.496 78.872 103.206 79.328 102.832 79.722 102.38 80.041 101.859 80.27"/><polygon id="_131153456" fill="none" stroke="#000" stroke-width=".1" points="140.029 86.722 139.849 86.863 139.658 86.988 139.456 87.097 139.243 87.188 139.021 87.261 138.792 87.314 138.555 87.346 138.312 87.357 138.312 87.357 137.779 87.303 137.283 87.149 136.834 86.906 136.443 86.583 136.12 86.192 135.876 85.743 135.722 85.247 135.669 84.714 135.669 84.714 135.689 84.383 135.749 84.064 135.846 83.76 135.977 83.473 136.141 83.206 136.334 82.961 136.554 82.74 136.798 82.547 136.799 82.547 136.834 82.522 136.839 82.519 151.849 72.189 152.225 71.982 152.624 71.857 153.033 71.812 153.441 71.845 153.836 71.954 154.207 72.136 154.542 72.39 154.83 72.713 154.83 72.713 155.048 73.086 155.186 73.483 155.244 73.892 155.225 74.301 155.13 74.7 154.961 75.075 154.719 75.415 154.407 75.709 140.053 86.725 140.052 86.726 140.05 86.727 140.047 86.727 140.045 86.726 140.041 86.726 140.038 86.725 140.033 86.724 140.029 86.722"/></g><g id="_131171536"><g id="_tag_66_"><polygon id="_130207680" fill="none" stroke="#000" stroke-width=".1" points="203.755 106.775 203.656 109.69 203.468 112.582 203.194 115.45 202.834 118.292 202.389 121.106 201.862 123.893 201.254 126.649 200.565 129.375 200.55 129.363 198.747 133.013 196.209 136.039 192.961 138.328 189.026 139.773 184.429 140.262 179.194 139.687 173.344 137.938 166.904 134.904 166.904 134.904 166.36 135.922 165.797 136.931 165.215 137.93 164.613 138.92 163.992 139.9 163.352 140.872 162.691 141.834 162.011 142.788 162.011 142.788 161.306 143.74 160.587 144.675 159.855 145.593 159.109 146.494 158.349 147.377 157.577 148.242 156.793 149.09 155.996 149.92 155.996 149.92 160.888 155.104 164.369 160.126 166.538 164.928 167.492 169.451 167.329 173.64 166.148 177.435 164.046 180.781 161.122 183.618 161.122 183.618 155.97 186.745 150.608 189.543 145.05 191.998 139.311 194.097 133.403 195.826 127.341 197.17 121.139 198.116 114.812 198.65 114.812 198.647 110.783 198.06 107.121 196.581 103.94 194.199 101.35 190.904 99.464 186.683 98.394 181.526 98.25 175.422 99.145 168.36 99.145 168.36 98.008 168.157 96.875 167.934 95.745 167.689 94.618 167.422 93.493 167.135 92.371 166.825 91.252 166.495 90.134 166.143 90.134 166.143 89.011 165.767 87.9 165.372 86.8 164.959 85.713 164.527 84.639 164.078 83.577 163.611 82.528 163.127 81.493 162.626 81.493 162.626 78.091 168.853 74.411 173.702 70.536 177.246 66.549 179.561 62.535 180.719 58.577 180.797 54.759 179.868 51.164 178.006 51.164 178.006 46.521 174.002 42.149 169.707 38.064 165.136 34.28 160.304 30.813 155.226 27.678 149.917 24.89 144.391 22.462 138.664 22.462 138.664 21.739 134.635 21.984 130.677 23.245 126.895 25.566 123.394 28.995 120.28 33.578 117.657 39.359 115.63 46.386 114.305 46.386 114.305 46.229 113.166 46.093 112.019 45.977 110.865 45.882 109.704 45.808 108.537 45.754 107.364 45.722 106.185 45.712 105.001 45.712 105.001 45.722 103.829 45.754 102.662 45.806 101.499 45.88 100.341 45.975 99.187 46.091 98.036 46.229 96.889 46.388 95.746 46.388 95.746 39.394 94.415 33.633 92.392 29.06 89.78 25.628 86.682 23.294 83.2 22.012 79.439 21.737 75.5 22.424 71.486 22.405 71.487 24.832 65.737 27.622 60.189 30.76 54.859 34.233 49.761 38.024 44.911 42.12 40.324 46.504 36.014 51.162 31.997 51.162 31.997 54.757 30.134 58.575 29.204 62.533 29.281 66.548 30.44 70.535 32.754 74.41 36.298 78.091 41.147 81.493 47.375 81.493 47.375 82.528 46.874 83.577 46.39 84.639 45.923 85.713 45.474 86.8 45.042 87.9 44.629 89.011 44.234 90.134 43.858 90.134 43.858 91.252 43.506 92.371 43.176 93.493 42.866 94.618 42.579 95.745 42.312 96.875 42.067 98.008 41.844 99.145 41.641 99.145 41.641 98.25 34.579 98.394 28.475 99.464 23.318 101.35 19.097 103.94 15.802 107.121 13.42 110.783 11.941 114.812 11.354 114.812 11.351 121.147 11.886 127.357 12.834 133.425 14.182 139.339 15.915 145.085 18.02 150.648 20.482 156.014 23.287 161.171 26.421 161.171 26.421 164.079 29.261 166.166 32.606 167.335 36.399 167.489 40.582 166.529 45.099 164.359 49.893 160.88 54.906 155.996 60.082 155.996 60.082 156.793 60.911 157.577 61.759 158.349 62.624 159.109 63.507 159.855 64.408 160.587 65.326 161.306 66.261 162.011 67.213 162.011 67.213 162.691 68.167 163.352 69.129 163.992 70.101 164.613 71.081 165.215 72.071 165.797 73.07 166.36 74.079 166.904 75.097 166.904 75.097 173.344 72.063 179.194 70.314 184.429 69.739 189.026 70.228 192.961 71.673 196.209 73.962 198.747 76.988 200.55 80.638 200.564 80.627 201.27 83.429 201.892 86.264 202.428 89.129 202.877 92.025 203.236 94.949 203.505 97.9 203.682 100.877 203.765 103.878 211.439 104.049 211.89 102.809 213.002 101.597 214.521 100.967 217.181 99.709 217.003 96.755 214.21 95.827 212.626 95.385 211.377 94.315 210.779 93.139 210.62 91.829 210.919 90.543 211.876 89.205 213.308 88.397 215.797 86.828 215.264 83.917 212.38 83.332 210.754 83.084 209.385 82.173 208.65 81.077 208.334 79.795 208.475 78.483 209.264 77.04 210.589 76.065 212.871 74.207 211.99 71.381 209.057 71.149 207.413 71.099 205.944 70.359 205.082 69.36 204.614 68.126 204.596 66.806 205.205 65.278 206.403 64.151 208.444 62.031 207.229 59.332 204.29 59.455 202.651 59.604 201.104 59.046 200.128 58.158 199.514 56.989 199.338 55.681 199.758 54.091 200.811 52.828 202.582 50.478 201.051 47.945 198.147 48.421 196.539 48.766 194.935 48.399 193.859 47.635 193.11 46.549 192.777 45.272 193.002 43.642 193.896 42.261 195.37 39.715 193.545 37.385 190.72 38.208 189.165 38.744 187.529 38.573 186.369 37.944 185.493 36.956 185.009 35.729 185.037 34.084 185.757 32.605 186.914 29.9 184.821 27.807 182.115 28.964 180.637 29.684 178.992 29.712 177.764 29.227 176.776 28.352 176.148 27.192 175.977 25.556 176.513 24.001 177.336 21.176 175.006 19.351 172.46 20.825 171.078 21.718 169.449 21.944 168.172 21.611 167.086 20.861 166.322 19.785 165.955 18.182 166.3 16.573 166.776 13.67 164.243 12.139 161.893 13.909 160.63 14.963 159.039 15.383 157.731 15.206 156.563 14.593 155.675 13.617 155.117 12.069 155.266 10.431 155.388 7.492 152.689 6.277 150.57 8.318 149.443 9.516 147.915 10.125 146.595 10.107 145.361 9.639 144.362 8.777 143.622 7.308 143.572 5.664 143.339 2.731 140.513 1.85 138.656 4.132 137.681 5.457 136.237 6.245 134.925 6.387 133.644 6.071 132.548 5.336 131.636 3.967 131.389 2.341 130.804 -.543 127.893 -1.076 126.324 1.412 125.516 2.845 124.178 3.802 122.892 4.101 121.582 3.942 120.405 3.344 119.335 2.095 118.894 .51 117.966 -2.282 115.011 -2.461 113.754 .199 113.124 1.719 111.911 2.83 110.671 3.282 109.352 3.282 108.111 2.83 106.899 1.719 106.269 .199 105.011 -2.461 102.057 -2.282 101.129 .51 100.687 2.095 99.617 3.344 98.441 3.942 97.131 4.101 95.845 3.802 94.507 2.845 93.699 1.412 92.13 -1.076 89.219 -.543 88.634 2.341 88.387 3.967 87.475 5.336 86.379 6.071 85.098 6.387 83.785 6.245 82.342 5.457 81.367 4.132 79.509 1.85 76.684 2.731 76.451 5.664 76.401 7.308 75.661 8.777 74.662 9.639 73.428 10.107 72.108 10.125 70.58 9.516 69.453 8.318 67.333 6.277 64.634 7.492 64.757 10.431 64.906 12.069 64.348 13.617 63.46 14.593 62.291 15.206 60.984 15.383 59.393 14.963 58.13 13.909 55.78 12.139 53.247 13.67 53.723 16.573 54.068 18.182 53.701 19.785 52.937 20.861 51.851 21.611 50.574 21.944 48.945 21.718 47.563 20.825 45.017 19.351 42.687 21.176 43.51 24.001 44.046 25.556 43.875 27.192 43.246 28.352 42.259 29.227 41.031 29.712 39.386 29.684 37.907 28.964 35.202 27.807 33.109 29.9 34.266 32.605 34.986 34.084 35.014 35.729 34.529 36.956 33.654 37.944 32.494 38.573 30.858 38.744 29.303 38.208 26.478 37.385 24.653 39.715 26.127 42.261 27.02 43.642 27.246 45.272 26.913 46.549 26.163 47.635 25.087 48.399 23.484 48.766 21.876 48.421 18.972 47.945 17.441 50.478 19.212 52.828 20.265 54.091 20.685 55.681 20.508 56.989 19.895 58.158 18.919 59.046 17.371 59.604 15.733 59.455 12.794 59.332 11.579 62.031 13.62 64.151 14.818 65.278 15.427 66.806 15.409 68.126 14.941 69.36 14.079 70.359 12.61 71.099 10.966 71.149 8.033 71.381 7.152 74.207 9.434 76.065 10.759 77.04 11.548 78.483 11.689 79.795 11.373 81.077 10.638 82.173 9.269 83.084 7.643 83.332 4.759 83.917 4.226 86.828 6.715 88.397 8.147 89.205 9.104 90.543 9.403 91.829 9.244 93.139 8.646 94.315 7.397 95.385 5.812 95.827 3.02 96.755 2.842 99.709 5.501 100.967 7.021 101.597 8.132 102.809 8.584 104.049 8.584 105.369 8.132 106.609 7.021 107.822 5.501 108.452 2.842 109.709 3.02 112.664 5.812 113.592 7.397 114.033 8.646 115.103 9.244 116.28 9.403 117.59 9.104 118.876 8.147 120.214 6.715 121.022 4.226 122.591 4.759 125.502 7.643 126.087 9.269 126.334 10.638 127.246 11.373 128.342 11.689 129.623 11.548 130.935 10.759 132.379 9.434 133.354 7.152 135.211 8.033 138.037 10.966 138.27 12.61 138.32 14.079 139.06 14.941 140.059 15.409 141.293 15.427 142.613 14.818 144.141 13.62 145.268 11.579 147.387 12.794 150.086 15.733 149.964 17.371 149.815 18.919 150.373 19.895 151.261 20.508 152.429 20.685 153.737 20.265 155.328 19.212 156.591 17.441 158.941 18.972 161.474 21.876 160.998 23.484 160.653 25.087 161.02 26.163 161.784 26.913 162.87 27.246 164.147 27.02 165.776 26.127 167.158 24.653 169.704 26.478 172.034 29.303 171.211 30.858 170.675 32.494 170.845 33.654 171.474 34.529 172.462 35.014 173.69 34.986 175.335 34.266 176.813 33.109 179.519 35.202 181.612 37.907 180.455 39.386 179.735 41.031 179.707 42.259 180.191 43.246 181.067 43.875 182.227 44.046 183.863 43.51 185.418 42.687 188.243 45.017 190.068 47.563 188.594 48.945 187.7 50.574 187.475 51.851 187.808 52.937 188.557 53.701 189.633 54.068 191.237 53.723 192.845 53.247 195.749 55.78 197.28 58.13 195.509 59.393 194.456 60.984 194.036 62.291 194.212 63.46 194.826 64.348 195.802 64.906 197.349 64.757 198.988 64.634 201.927 67.333 203.142 69.453 201.101 70.58 199.903 72.108 199.294 73.428 199.312 74.662 199.78 75.661 200.642 76.401 202.111 76.451 203.755 76.684 206.688 79.509 207.568 81.367 205.287 82.342 203.962 83.785 203.173 85.098 203.032 86.379 203.348 87.475 204.083 88.387 205.452 88.634 207.078 89.219 209.962 92.13 210.495 93.699 208.006 94.507 206.574 95.845 205.617 97.131 205.318 98.441 205.477 99.617 206.075 100.687 207.324 101.129 208.908 102.057 211.701 105.011 211.879 106.269 209.219 106.899 207.7 108.111 206.588 109.352 206.137 110.671 206.137 111.911 206.588 113.124 207.7 113.754 209.219 115.011 211.879 117.966 211.701 118.894 208.908 119.335 207.324 120.405 206.075 121.582 205.477 122.892 205.318 124.178 205.617 125.516 206.574 126.324 208.006 127.893 210.495 130.804 209.962 131.389 207.078 131.636 205.452 132.548 204.083 133.644 203.348 134.925 203.032 136.237 203.173 137.681 203.962 138.656 205.287 140.513 207.568 143.339 206.688 143.572 203.755 143.622 202.111 144.362 200.642 145.361 199.78 146.595 199.312 147.915 199.294 149.443 199.903 150.57 201.101 152.689 203.142 155.388 201.927 155.266 198.988 155.117 197.349 155.675 195.802 156.563 194.826 157.731 194.212 159.039 194.036 160.63 194.456 161.893 195.509 164.243 197.28 166.776 195.749 166.3 192.845 165.955 191.237 166.322 189.633 167.086 188.557 168.172 187.808 169.449 187.475 171.078 187.7 172.46 188.594 175.006 190.068 177.336 188.243 176.513 185.418 175.977 183.863 176.148 182.227 176.776 181.067 177.764 180.191 178.992 179.707 180.637 179.735 182.115 180.455 184.821 181.612 186.914 179.519 185.757 176.813 185.037 175.335 185.009 173.69 185.493 172.462 186.369 171.474 187.529 170.845 189.165 170.675 190.72 171.211 193.545 172.034 195.37 169.704 193.896 167.158 193.002 165.776 192.777 164.147 193.11 162.87 193.859 161.784 194.935 161.02 196.539 160.653 198.147 160.998 201.051 161.474 202.582 158.941 200.811 156.591 199.758 155.328 199.338 153.737 199.514 152.429 200.128 151.261 201.104 150.373 202.651 149.815 204.29 149.964 207.229 150.086 208.444 147.387 206.403 145.268 205.205 144.141 204.596 142.613 204.614 141.293 205.082 140.059 205.944 139.06 207.413 138.32 209.057 138.27 211.99 138.037 212.871 135.211 210.589 133.354 209.264 132.379 208.475 130.935 208.334 129.623 208.65 128.342 209.385 127.246 210.754 126.334 212.38 126.087 215.264 125.502 215.797 122.591 213.308 121.022 211.876 120.214 210.919 118.876 210.62 117.59 210.779 116.28 211.377 115.103 212.626 114.033 214.21 113.592 217.003 112.664 217.181 109.709 214.521 108.452 213.002 107.822 211.89 106.609 203.755 106.775"/><polygon id="_130207296" fill="none" stroke="#000" stroke-width=".1" points="18.937 120.503 19.916 119.311 21.006 118.159 22.209 117.048 23.525 115.981 24.956 114.963 26.504 113.994 28.168 113.08 29.952 112.221 29.952 112.221 29.999 112.196 30.042 112.165 30.079 112.128 30.112 112.086 30.138 112.04 30.157 111.99 30.169 111.938 30.173 111.882 30.173 111.882 30.173 111.877 30.173 111.871 30.172 111.865 30.172 111.859 30.171 111.853 30.171 111.847 30.17 111.842 30.17 111.836 30.17 111.836 30.102 110.989 30.043 110.14 29.993 109.288 29.952 108.434 29.92 107.578 29.897 106.721 29.883 105.861 29.879 105 29.879 105 29.883 104.14 29.897 103.28 29.92 102.423 29.952 101.567 29.993 100.713 30.043 99.861 30.102 99.012 30.17 98.165 30.17 98.165 30.17 98.16 30.171 98.154 30.172 98.148 30.172 98.142 30.172 98.136 30.173 98.13 30.173 98.124 30.173 98.118 30.173 98.118 30.169 98.063 30.157 98.011 30.138 97.961 30.111 97.915 30.079 97.873 30.042 97.837 29.999 97.805 29.952 97.78 29.952 97.78 28.168 96.922 26.504 96.007 24.956 95.039 23.525 94.02 22.209 92.953 21.006 91.842 19.916 90.69 18.937 89.498 18.937 89.498 18.877 89.42 18.809 89.351 18.732 89.289 18.648 89.237 18.558 89.195 18.463 89.164 18.363 89.145 18.259 89.139 18.259 89.139 18.107 89.153 17.964 89.195 17.833 89.261 17.715 89.349 17.615 89.455 17.535 89.578 17.477 89.713 17.445 89.859 17.445 89.859 17.192 91.516 16.968 93.183 16.772 94.858 16.606 96.543 16.47 98.236 16.364 99.937 16.288 101.647 16.243 103.364 16.243 103.364 16.241 103.475 16.239 103.586 16.238 103.698 16.236 103.809 16.235 103.92 16.234 104.031 16.233 104.142 16.232 104.253 16.231 104.255 16.23 104.33 16.23 104.405 16.229 104.48 16.229 104.555 16.229 104.63 16.229 104.705 16.229 104.78 16.229 104.855 16.229 104.887 16.229 104.892 16.229 104.924 16.229 104.929 16.229 104.961 16.229 104.966 16.229 104.999 16.229 105.004 16.229 105.036 16.229 105.041 16.229 105.073 16.229 105.078 16.229 105.111 16.229 105.116 16.229 105.147 16.229 105.222 16.229 105.297 16.229 105.372 16.229 105.447 16.229 105.522 16.23 105.596 16.23 105.671 16.231 105.746 16.232 105.748 16.233 105.859 16.234 105.97 16.235 106.081 16.236 106.193 16.238 106.304 16.239 106.415 16.241 106.526 16.243 106.637 16.243 106.637 16.288 108.355 16.364 110.064 16.47 111.765 16.606 113.458 16.772 115.143 16.968 116.818 17.192 118.485 17.445 120.142 17.445 120.142 17.477 120.288 17.535 120.423 17.615 120.546 17.715 120.652 17.833 120.74 17.964 120.806 18.107 120.848 18.259 120.862 18.259 120.862 18.363 120.856 18.463 120.837 18.558 120.806 18.648 120.764 18.732 120.712 18.809 120.651 18.877 120.581 18.937 120.503"/><polygon id="_130206104" fill="none" stroke="#000" stroke-width=".1" points="67.116 23.185 68.552 23.747 69.985 24.428 71.414 25.228 72.834 26.151 74.246 27.197 75.645 28.369 77.029 29.67 78.397 31.101 78.397 31.101 78.435 31.138 78.478 31.169 78.525 31.193 78.574 31.211 78.626 31.222 78.679 31.225 78.733 31.22 78.787 31.207 78.787 31.207 78.793 31.205 78.798 31.203 78.804 31.201 78.809 31.198 78.815 31.196 78.82 31.194 78.825 31.191 78.83 31.189 78.83 31.189 79.615 30.863 80.404 30.544 81.199 30.233 81.998 29.931 82.802 29.636 83.611 29.349 84.424 29.07 85.241 28.8 85.241 28.8 86.061 28.538 86.883 28.286 87.706 28.042 88.53 27.808 89.354 27.583 90.18 27.368 91.006 27.162 91.832 26.964 91.832 26.964 91.837 26.963 91.843 26.962 91.849 26.961 91.855 26.96 91.86 26.958 91.866 26.957 91.872 26.955 91.877 26.953 91.877 26.953 91.929 26.932 91.975 26.905 92.016 26.871 92.052 26.832 92.082 26.788 92.105 26.741 92.122 26.691 92.131 26.638 92.131 26.638 92.396 24.677 92.752 22.811 93.194 21.04 93.721 19.364 94.329 17.783 95.014 16.296 95.773 14.903 96.604 13.604 96.604 13.604 96.659 13.523 96.704 13.436 96.739 13.344 96.763 13.248 96.775 13.15 96.775 13.05 96.762 12.948 96.736 12.847 96.736 12.847 96.675 12.708 96.591 12.585 96.488 12.48 96.368 12.395 96.236 12.333 96.095 12.294 95.948 12.282 95.799 12.296 95.799 12.296 94.145 12.568 92.491 12.869 90.837 13.201 89.184 13.564 87.532 13.957 85.881 14.382 84.231 14.838 82.584 15.326 82.584 15.326 82.478 15.358 82.371 15.391 82.265 15.424 82.159 15.457 82.053 15.49 81.947 15.524 81.841 15.557 81.735 15.59 81.733 15.59 81.662 15.612 81.59 15.635 81.519 15.658 81.447 15.681 81.376 15.704 81.305 15.727 81.233 15.75 81.162 15.773 81.131 15.783 81.126 15.785 81.096 15.795 81.091 15.796 81.06 15.806 81.056 15.808 81.025 15.818 81.02 15.819 80.989 15.829 80.985 15.831 80.954 15.841 80.949 15.842 80.919 15.852 80.914 15.854 80.884 15.864 80.813 15.887 80.741 15.91 80.67 15.933 80.599 15.957 80.528 15.98 80.457 16.003 80.386 16.027 80.315 16.051 80.313 16.052 80.208 16.087 80.102 16.123 79.997 16.158 79.892 16.194 79.787 16.229 79.681 16.265 79.576 16.301 79.471 16.337 79.471 16.337 77.852 16.911 76.249 17.511 74.664 18.138 73.096 18.791 71.545 19.469 70.012 20.173 68.497 20.901 66.999 21.654 66.999 21.654 66.87 21.73 66.759 21.826 66.667 21.94 66.597 22.069 66.55 22.207 66.527 22.353 66.532 22.502 66.565 22.65 66.565 22.65 66.603 22.747 66.653 22.837 66.711 22.918 66.779 22.991 66.854 23.054 66.936 23.108 67.024 23.152 67.116 23.185"/><polygon id="_130205736" fill="none" stroke="#000" stroke-width=".1" points="174.559 38.933 174.467 40.472 174.263 42.046 173.943 43.651 173.505 45.288 172.946 46.953 172.263 48.646 171.454 50.365 170.516 52.107 170.516 52.107 170.493 52.155 170.477 52.206 170.468 52.258 170.466 52.31 170.472 52.363 170.486 52.415 170.507 52.464 170.536 52.511 170.536 52.511 170.54 52.516 170.543 52.521 170.547 52.525 170.551 52.53 170.555 52.534 170.558 52.539 170.562 52.543 170.566 52.547 170.566 52.547 171.119 53.192 171.666 53.844 172.207 54.504 172.742 55.171 173.271 55.844 173.794 56.525 174.31 57.212 174.819 57.906 174.819 57.906 175.322 58.605 175.816 59.308 176.301 60.016 176.779 60.727 177.247 61.442 177.707 62.16 178.159 62.882 178.602 63.607 178.602 63.607 178.604 63.612 178.607 63.617 178.61 63.622 178.613 63.627 178.616 63.632 178.62 63.637 178.623 63.642 178.626 63.647 178.626 63.647 178.662 63.689 178.703 63.724 178.748 63.753 178.796 63.775 178.846 63.79 178.898 63.797 178.951 63.798 179.004 63.791 179.004 63.791 180.952 63.437 182.836 63.198 184.657 63.072 186.414 63.055 188.105 63.144 189.731 63.336 191.291 63.628 192.783 64.016 192.783 64.016 192.877 64.044 192.974 64.06 193.072 64.065 193.17 64.058 193.268 64.039 193.363 64.008 193.455 63.964 193.543 63.908 193.543 63.908 193.657 63.808 193.748 63.69 193.816 63.559 193.86 63.419 193.878 63.274 193.871 63.128 193.838 62.984 193.778 62.847 193.778 62.847 193.009 61.358 192.211 59.878 191.384 58.408 190.528 56.947 189.643 55.498 188.729 54.059 187.786 52.631 186.813 51.215 186.813 51.215 186.749 51.124 186.685 51.033 186.621 50.942 186.557 50.851 186.492 50.761 186.428 50.67 186.364 50.58 186.299 50.49 186.299 50.487 186.255 50.426 186.212 50.365 186.168 50.305 186.124 50.244 186.08 50.183 186.036 50.122 185.992 50.061 185.948 50.001 185.929 49.975 185.926 49.97 185.907 49.945 185.904 49.94 185.885 49.914 185.882 49.91 185.863 49.884 185.86 49.88 185.841 49.854 185.838 49.85 185.819 49.824 185.816 49.82 185.798 49.794 185.794 49.79 185.776 49.764 185.732 49.704 185.688 49.643 185.644 49.583 185.6 49.522 185.555 49.462 185.511 49.401 185.467 49.341 185.422 49.281 185.42 49.279 185.354 49.19 185.288 49.101 185.222 49.012 185.156 48.923 185.089 48.834 185.023 48.745 184.956 48.656 184.889 48.567 184.889 48.567 183.843 47.204 182.777 45.866 181.691 44.552 180.585 43.262 179.461 41.997 178.318 40.756 177.157 39.54 175.978 38.348 175.978 38.348 175.867 38.249 175.74 38.173 175.603 38.121 175.46 38.094 175.313 38.092 175.168 38.116 175.028 38.166 174.897 38.244 174.897 38.244 174.816 38.31 174.747 38.384 174.687 38.465 174.639 38.552 174.602 38.643 174.576 38.738 174.562 38.835 174.559 38.933"/><polygon id="_22761408" fill="none" stroke="#000" stroke-width=".1" points="96.604 196.396 95.773 195.097 95.014 193.704 94.329 192.217 93.721 190.635 93.194 188.959 92.752 187.189 92.396 185.323 92.131 183.361 92.131 183.361 92.122 183.309 92.105 183.258 92.081 183.211 92.052 183.168 92.016 183.129 91.975 183.095 91.928 183.067 91.877 183.046 91.877 183.046 91.872 183.044 91.866 183.043 91.86 183.041 91.854 183.04 91.849 183.039 91.843 183.037 91.837 183.036 91.832 183.035 91.832 183.035 91.006 182.838 90.18 182.632 89.354 182.416 88.529 182.191 87.705 181.957 86.883 181.714 86.061 181.461 85.241 181.2 85.241 181.2 84.424 180.929 83.611 180.651 82.802 180.364 81.998 180.069 81.198 179.766 80.404 179.455 79.614 179.137 78.83 178.811 78.83 178.811 78.825 178.808 78.82 178.806 78.814 178.803 78.809 178.801 78.804 178.799 78.798 178.797 78.792 178.795 78.787 178.793 78.787 178.793 78.733 178.78 78.679 178.775 78.626 178.778 78.574 178.789 78.525 178.806 78.478 178.831 78.435 178.862 78.397 178.899 78.397 178.899 77.029 180.33 75.645 181.63 74.246 182.803 72.834 183.849 71.413 184.771 69.985 185.571 68.552 186.252 67.116 186.815 67.116 186.815 67.024 186.848 66.936 186.892 66.854 186.945 66.779 187.009 66.711 187.082 66.652 187.163 66.603 187.252 66.565 187.349 66.565 187.349 66.532 187.498 66.527 187.647 66.549 187.792 66.597 187.931 66.667 188.059 66.758 188.173 66.87 188.27 66.999 188.346 66.999 188.346 68.496 189.098 70.012 189.827 71.545 190.53 73.096 191.208 74.664 191.861 76.249 192.488 77.852 193.089 79.471 193.662 79.471 193.662 79.576 193.699 79.681 193.734 79.787 193.77 79.892 193.806 79.997 193.841 80.102 193.877 80.208 193.912 80.313 193.947 80.314 193.949 80.385 193.973 80.457 193.996 80.528 194.02 80.599 194.043 80.67 194.067 80.742 194.09 80.813 194.113 80.884 194.136 80.915 194.146 80.92 194.148 80.95 194.158 80.955 194.159 80.986 194.169 80.99 194.171 81.021 194.181 81.026 194.182 81.057 194.192 81.062 194.194 81.092 194.204 81.097 194.205 81.128 194.215 81.133 194.217 81.162 194.227 81.234 194.25 81.305 194.273 81.376 194.296 81.447 194.319 81.519 194.342 81.59 194.364 81.661 194.387 81.733 194.41 81.735 194.409 81.841 194.443 81.947 194.476 82.053 194.51 82.159 194.543 82.265 194.576 82.371 194.609 82.477 194.641 82.584 194.674 82.584 194.674 84.231 195.162 85.881 195.618 87.531 196.042 89.184 196.436 90.837 196.798 92.491 197.13 94.145 197.432 95.799 197.703 95.799 197.703 95.948 197.718 96.095 197.705 96.236 197.667 96.368 197.604 96.488 197.52 96.591 197.415 96.675 197.292 96.736 197.152 96.736 197.152 96.762 197.051 96.774 196.95 96.775 196.85 96.763 196.751 96.739 196.656 96.704 196.564 96.659 196.477 96.604 196.396"/><polygon id="_22761008" fill="none" stroke="#000" stroke-width=".1" points="192.783 145.984 191.291 146.372 189.731 146.664 188.105 146.856 186.414 146.945 184.657 146.928 182.836 146.802 180.952 146.564 179.004 146.21 179.004 146.21 178.951 146.203 178.898 146.203 178.846 146.211 178.795 146.225 178.747 146.247 178.703 146.276 178.662 146.311 178.626 146.354 178.626 146.354 178.623 146.359 178.619 146.364 178.616 146.369 178.613 146.374 178.61 146.379 178.607 146.384 178.604 146.389 178.601 146.394 178.601 146.394 178.159 147.119 177.707 147.84 177.247 148.559 176.778 149.274 176.301 149.985 175.815 150.692 175.321 151.396 174.819 152.095 174.819 152.095 174.31 152.788 173.793 153.475 173.271 154.156 172.742 154.83 172.207 155.496 171.666 156.156 171.119 156.808 170.566 157.453 170.566 157.453 170.562 157.458 170.558 157.462 170.554 157.466 170.55 157.471 170.547 157.475 170.543 157.48 170.539 157.484 170.536 157.489 170.536 157.489 170.507 157.536 170.485 157.586 170.472 157.637 170.466 157.69 170.468 157.743 170.476 157.794 170.493 157.845 170.516 157.893 170.516 157.893 171.454 159.636 172.263 161.354 172.946 163.047 173.505 164.713 173.943 166.349 174.263 167.955 174.467 169.528 174.559 171.067 174.559 171.067 174.562 171.166 174.576 171.262 174.602 171.357 174.639 171.448 174.687 171.535 174.746 171.616 174.816 171.69 174.897 171.757 174.897 171.757 175.028 171.834 175.168 171.885 175.313 171.908 175.46 171.907 175.603 171.879 175.74 171.828 175.866 171.752 175.978 171.652 175.978 171.652 177.157 170.46 178.318 169.244 179.461 168.004 180.585 166.738 181.69 165.449 182.777 164.135 183.843 162.796 184.889 161.434 184.889 161.434 184.956 161.345 185.023 161.256 185.089 161.167 185.155 161.077 185.222 160.988 185.288 160.899 185.354 160.81 185.42 160.721 185.422 160.72 185.467 160.66 185.511 160.599 185.555 160.539 185.6 160.478 185.644 160.418 185.688 160.357 185.732 160.296 185.776 160.236 185.795 160.21 185.798 160.205 185.817 160.179 185.82 160.175 185.839 160.149 185.842 160.145 185.861 160.119 185.864 160.115 185.883 160.089 185.886 160.085 185.905 160.059 185.908 160.055 185.927 160.029 185.93 160.024 185.948 159.999 185.992 159.938 186.036 159.878 186.08 159.817 186.124 159.757 186.168 159.696 186.211 159.635 186.255 159.574 186.299 159.513 186.299 159.511 186.364 159.421 186.428 159.33 186.492 159.24 186.557 159.149 186.621 159.058 186.685 158.968 186.749 158.877 186.813 158.786 186.813 158.786 187.786 157.37 188.729 155.942 189.643 154.503 190.528 153.053 191.384 151.593 192.211 150.123 193.008 148.643 193.778 147.153 193.778 147.153 193.838 147.016 193.871 146.873 193.878 146.726 193.859 146.581 193.816 146.441 193.748 146.311 193.657 146.193 193.543 146.092 193.543 146.092 193.455 146.036 193.363 145.993 193.267 145.962 193.17 145.943 193.072 145.936 192.974 145.94 192.877 145.956 192.783 145.984"/><polyline id="_22760624" fill="none" stroke="#000" stroke-width=".1" points="209.37 106.906 208.962 114.276 208.004 121.623 206.49 128.914 204.415 136.117 201.774 143.202 198.562 150.134 194.774 156.884 190.405 163.418 190.405 163.418 187.767 166.889 185.007 170.213 182.13 173.388 179.143 176.414 176.05 179.29 172.857 182.014 169.569 184.587 166.192 187.006 166.167 186.99 156.63 192.76 146.514 197.431 135.92 200.952 124.948 203.273 113.698 204.342 102.271 204.107 90.767 202.518 79.287 199.522 79.287 199.522 75.17 198.086 71.156 196.488 67.248 194.734 63.447 192.827 59.756 190.775 56.178 188.58 52.716 186.248 49.371 183.784 49.378 183.754 40.944 176.467 33.376 168.29 26.753 159.303 21.155 149.585 16.662 139.216 13.355 128.275 11.311 116.843 10.612 104.999 10.612 104.999 10.706 100.64 10.986 96.329 11.446 92.069 12.085 87.865 12.897 83.721 13.879 79.64 15.026 75.626 16.336 71.684 16.367 71.682 20.691 61.409 26.129 51.684 32.63 42.608 40.142 34.281 48.615 26.804 57.998 20.277 68.239 14.801 79.287 10.477 79.287 10.477 83.462 9.219 87.649 8.152 91.842 7.274 96.038 6.582 100.23 6.074 104.415 5.747 108.587 5.598 112.741 5.626 112.752 5.653 123.859 6.592 134.788 8.759 145.429 12.137 155.67 16.708 165.399 22.456 174.506 29.363 182.879 37.41 190.405 46.581 190.405 46.581 192.892 50.163 195.2 53.815 197.331 57.532 199.285 61.308 201.064 65.138 202.669 69.017 204.099 72.939 205.357 76.899 205.334 76.918 206.195 80.036 206.954 83.178 207.611 86.342 208.166 89.525 208.618 92.724 208.966 95.936 209.21 99.16 209.35 102.391"/></g><polyline id="_22759968" fill="none" stroke="#000" stroke-width=".1" points="35.984 47.695 35.947 47.742 35.911 47.789 35.874 47.836 35.838 47.883 35.801 47.931 35.765 47.978 35.728 48.025 35.692 48.072"/><polyline id="_22759584" fill="none" stroke="#000" stroke-width=".1" points="141.894 17.109 141.838 17.089 141.782 17.069 141.727 17.049 141.671 17.029 141.615 17.009 141.559 16.989 141.503 16.969 141.448 16.949"/><polyline id="_22759200" fill="none" stroke="#000" stroke-width=".1" points="135.996 195.39 136.055 195.373 136.113 195.356 136.172 195.339 136.231 195.322 136.289 195.305 136.348 195.287 136.406 195.27 136.465 195.253"/><g id="_tag_67_"><circle id="_22758736" cx="37.986" cy="105.291" r="6.047" fill="none" stroke="#000" stroke-width=".1"/><polygon id="_22758048" fill="none" stroke="#000" stroke-width=".1" points="37.986 101.962 40.869 103.626 40.869 106.956 37.986 108.621 35.102 106.956 35.102 103.626"/></g><g id="_tag_68_"><circle id="_131178296" cx="168.241" cy="147.614" r="6.047" fill="none" stroke="#000" stroke-width=".1"/><polygon id="_131177608" fill="none" stroke="#000" stroke-width=".1" points="166.284 150.307 164.93 147.266 166.887 144.572 170.198 144.92 171.552 147.962 169.595 150.655"/></g><g id="_tag_69_"><circle id="_131176872" cx="87.739" cy="173.77" r="6.047" fill="none" stroke="#000" stroke-width=".1"/><polygon id="_131176048" fill="none" stroke="#000" stroke-width=".1" points="84.572 172.741 87.047 170.514 90.213 171.542 90.906 174.799 88.431 177.027 85.264 175.998"/></g><g id="_tag_70_"><circle id="_131175312" cx="87.739" cy="36.812" r="6.047" fill="none" stroke="#000" stroke-width=".1"/><polygon id="_131174624" fill="none" stroke="#000" stroke-width=".1" points="90.906 35.783 90.213 39.04 87.047 40.069 84.572 37.841 85.264 34.584 88.431 33.555"/></g><g id="_tag_71_"><circle id="_131173888" cx="168.241" cy="62.969" r="6.047" fill="none" stroke="#000" stroke-width=".1"/><polygon id="_131173200" fill="none" stroke="#000" stroke-width=".1" points="170.198 65.662 166.887 66.01 164.93 63.317 166.284 60.275 169.595 59.927 171.552 62.621"/></g><polyline id="_131172544" fill="none" stroke="#000" stroke-width=".1" points="35.995 47.403 35.958 47.451 35.922 47.498 35.885 47.545 35.849 47.592 35.812 47.639 35.776 47.687 35.739 47.734 35.703 47.781"/><polyline id="_131172160" fill="none" stroke="#000" stroke-width=".1" points="141.905 16.817 141.849 16.797 141.793 16.777 141.738 16.757 141.682 16.737 141.626 16.717 141.57 16.697 141.514 16.678 141.459 16.658"/><polyline id="_131171776" fill="none" stroke="#000" stroke-width=".1" points="136.007 195.099 136.066 195.082 136.124 195.065 136.183 195.048 136.242 195.031 136.3 195.014 136.359 194.996 136.417 194.979 136.476 194.962"/></g><g id="_131018584"><ellipse id="center_00" cx="109.989" cy="105.291" fill="none" stroke="#000" stroke-width=".1" rx="4.477" ry="4.523"/><circle id="center_00_0" cx="110" cy="105" r="4.5" fill="none" stroke="#000" stroke-width=".1"/><polygon id="_131021768" fill="none" stroke="#000" stroke-width=".1" points="296.424 105.001 296.091 108.308 295.134 111.389 293.621 114.177 291.616 116.606 289.187 118.61 286.4 120.123 283.319 121.08 280.012 121.413 280.012 121.413 278.801 121.369 277.614 121.239 276.455 121.026 275.326 120.734 274.232 120.365 273.174 119.922 272.158 119.409 271.185 118.829 271.185 118.829 269.784 118.037 268.326 117.335 266.816 116.727 265.259 116.217 263.657 115.809 262.016 115.505 260.34 115.311 258.632 115.23 142.264 117.242 142.052 117.295 141.875 117.432 141.735 117.63 141.637 117.867 141.584 118.12 141.581 118.369 141.632 118.589 141.74 118.759 129.156 118.989 127.892 119.029 126.649 119.151 125.43 119.35 124.239 119.625 123.076 119.973 121.946 120.391 120.85 120.879 119.792 121.432 119.792 121.432 118.695 122.039 117.556 122.575 116.378 123.036 115.163 123.421 113.915 123.725 112.637 123.946 111.331 124.08 110 124.126 110 124.126 106.146 123.737 102.557 122.623 99.308 120.859 96.477 118.524 94.142 115.693 92.378 112.445 91.264 108.855 90.875 105.001 90.875 105.001 91.264 101.147 92.378 97.557 94.142 94.309 96.477 91.478 99.308 89.143 102.557 87.379 106.146 86.265 110 85.876 110 85.876 111.331 85.922 112.637 86.056 113.915 86.277 115.163 86.581 116.378 86.966 117.556 87.427 118.695 87.963 119.792 88.57 119.792 88.57 120.85 89.123 121.946 89.611 123.076 90.029 124.239 90.377 125.43 90.652 126.649 90.851 127.892 90.973 129.156 91.014 141.737 91.243 141.629 91.413 141.578 91.633 141.581 91.882 141.634 92.135 141.732 92.372 141.872 92.57 142.049 92.707 142.26 92.76 258.631 94.772 260.339 94.691 262.016 94.497 263.657 94.193 265.259 93.785 266.816 93.275 268.326 92.667 269.784 91.965 271.185 91.173 271.185 91.173 272.158 90.593 273.174 90.08 274.231 89.637 275.326 89.268 276.455 88.976 277.614 88.763 278.801 88.633 280.012 88.589 280.012 88.589 283.319 88.922 286.399 89.879 289.187 91.392 291.616 93.396 293.62 95.825 295.134 98.613 296.09 101.694 296.424 105.001"/><circle id="center_00_1" cx="109.989" cy="105.291" r="4.5" fill="none" stroke="#000" stroke-width=".1"/><polygon id="_131020568" fill="none" stroke="#000" stroke-width=".1" points="293.221 105.001 292.953 107.663 292.183 110.142 290.965 112.386 289.352 114.341 287.397 115.954 285.153 117.172 282.673 117.942 280.012 118.211 280.012 118.211 279.041 118.175 278.09 118.071 277.161 117.901 276.258 117.666 275.382 117.37 274.537 117.014 273.725 116.6 272.949 116.132 272.949 116.132 271.634 115.378 270.263 114.711 268.84 114.134 267.37 113.65 265.858 113.262 264.306 112.975 262.721 112.791 261.105 112.714 126.105 115.049 126.06 115.049 126.015 115.049 125.97 115.049 125.925 115.05 125.88 115.051 125.835 115.051 125.79 115.052 125.745 115.053 125.745 115.053 124.651 115.112 123.578 115.241 122.528 115.437 121.505 115.699 120.51 116.027 119.545 116.418 118.613 116.872 117.715 117.387 117.715 117.387 116.856 117.88 115.962 118.317 115.036 118.695 114.079 119.01 113.095 119.26 112.085 119.442 111.053 119.554 110.001 119.591 110.001 119.591 107.06 119.295 104.322 118.445 101.843 117.099 99.684 115.318 97.902 113.158 96.557 110.68 95.706 107.941 95.41 105.001 95.41 105.001 95.706 102.061 96.557 99.322 97.902 96.844 99.684 94.684 101.843 92.903 104.322 91.557 107.06 90.707 110.001 90.41 110.001 90.41 111.053 90.448 112.085 90.56 113.095 90.742 114.079 90.992 115.036 91.307 115.962 91.685 116.856 92.122 117.715 92.615 117.715 92.615 118.613 93.13 119.545 93.584 120.51 93.975 121.505 94.303 122.528 94.565 123.578 94.761 124.651 94.89 125.745 94.949 125.745 94.949 125.79 94.95 125.835 94.951 125.88 94.951 125.925 94.952 125.97 94.952 126.015 94.953 126.06 94.953 126.105 94.953 261.105 97.288 262.721 97.211 264.306 97.027 265.858 96.74 267.37 96.352 268.84 95.868 270.263 95.291 271.634 94.624 272.949 93.87 272.949 93.87 273.725 93.402 274.537 92.988 275.382 92.632 276.258 92.336 277.161 92.101 278.09 91.931 279.041 91.827 280.012 91.791 280.012 91.791 282.673 92.06 285.153 92.83 287.397 94.048 289.352 95.661 290.965 97.616 292.183 99.86 292.953 102.339 293.221 105.001"/><circle id="_131020224" cx="109.989" cy="105.292" r="10.822" fill="none" stroke="#000" stroke-width=".1"/><circle id="_131019880" cx="280" cy="105" r="6.698" fill="none" stroke="#000" stroke-width=".1"/><polygon id="_131019688" fill="none" stroke="#000" stroke-width=".1" points="147.994 105.001 148.085 105.905 148.347 106.747 148.76 107.509 149.308 108.173 149.972 108.721 150.734 109.135 151.576 109.396 152.481 109.488 152.481 109.488 152.499 109.487 152.518 109.487 152.537 109.487 152.556 109.487 152.575 109.487 152.594 109.486 152.612 109.486 152.631 109.486 251.526 108.362 252.177 108.269 252.781 108.057 253.326 107.739 253.8 107.328 254.19 106.836 254.484 106.276 254.67 105.66 254.735 105.001 254.735 105.001 254.67 104.342 254.484 103.726 254.19 103.165 253.8 102.674 253.326 102.263 252.781 101.945 252.177 101.733 251.526 101.64 152.631 100.516 152.612 100.516 152.594 100.516 152.575 100.515 152.556 100.515 152.537 100.515 152.518 100.515 152.499 100.515 152.481 100.514 152.481 100.514 151.576 100.606 150.734 100.867 149.972 101.281 149.308 101.829 148.76 102.493 148.347 103.255 148.085 104.097 147.994 105.001"/><g id="_tag_72_"><circle id="_131019496" cx="109.989" cy="105.291" r="5.994" fill="none" stroke="#000" stroke-width=".1"/><polygon id="_131018944" fill="none" stroke="#000" stroke-width=".1" points="109.989 102.534 112.377 103.913 112.377 106.67 109.989 108.048 107.601 106.67 107.601 103.913"/></g></g><g id="_132483688"><polygon id="_133344088" fill="none" stroke="#000" stroke-width=".1" points="123.856 105.002 123.988 103.666 124.366 102.419 124.966 101.287 125.761 100.294 126.726 99.467 127.836 98.831 129.064 98.412 130.387 98.235 139.033 97.936 139.11 98.945 139.274 99.917 139.525 100.854 139.863 101.755 140.288 102.621 140.8 103.45 141.399 104.244 142.084 105.002 142.084 105.002 141.399 105.76 140.8 106.554 140.288 107.383 139.863 108.249 139.525 109.15 139.274 110.087 139.11 111.059 139.033 112.068 130.387 111.769 129.064 111.592 127.836 111.173 126.726 110.537 125.761 109.71 124.966 108.717 124.366 107.585 123.988 106.338 123.856 105.002"/><circle id="_133343824" cx="130.627" cy="105.002" r="3.067" fill="none" stroke="#000" stroke-width=".1"/><polygon id="_133343560" fill="none" stroke="#000" stroke-width=".1" points="132.498 104.635 132.594 104.704 132.809 104.851 133.125 105.057 133.524 105.305 133.989 105.577 134.504 105.857 135.051 106.126 135.612 106.367 135.612 106.367 135.833 106.453 136.053 106.535 136.271 106.613 136.486 106.687 136.697 106.756 136.904 106.818 137.106 106.873 137.3 106.921 137.3 106.921 137.627 106.99 137.923 107.046 138.183 107.092 138.404 107.134 138.582 107.175 138.712 107.219 138.791 107.27 138.813 107.333 138.813 107.333 138.757 107.402 138.61 107.464 138.383 107.514 138.088 107.546 137.736 107.555 137.341 107.534 136.913 107.479 136.464 107.383 136.464 107.383 136.419 107.381 136.499 107.409 136.663 107.461 136.871 107.531 137.082 107.611 137.254 107.696 137.346 107.779 137.318 107.853 137.318 107.853 137.108 107.934 136.84 107.955 136.534 107.93 136.207 107.873 135.881 107.795 135.574 107.712 135.306 107.635 135.095 107.579 135.095 107.579 135.036 107.581 135.081 107.624 135.197 107.697 135.35 107.788 135.506 107.885 135.63 107.977 135.69 108.051 135.65 108.096 135.65 108.096 135.445 108.123 135.211 108.112 134.957 108.068 134.689 107.997 134.414 107.904 134.14 107.795 133.874 107.675 133.623 107.551 133.623 107.551 133.554 107.521 133.594 107.557 133.709 107.642 133.864 107.757 134.024 107.883 134.156 108.004 134.225 108.099 134.196 108.152 134.196 108.152 133.976 108.151 133.659 108.069 133.271 107.92 132.837 107.722 132.384 107.489 131.937 107.238 131.522 106.984 131.164 106.744 131.164 106.744 131.076 106.687 130.993 106.644 130.916 106.613 130.845 106.591 130.78 106.578 130.722 106.571 130.671 106.568 130.627 106.567 130.627 106.567 130.577 106.575 130.525 106.596 130.471 106.625 130.415 106.657 130.355 106.686 130.291 106.707 130.221 106.716 130.145 106.708 130.145 106.708 130.098 106.686 130.058 106.649 130.023 106.601 129.991 106.546 129.961 106.488 129.929 106.432 129.895 106.382 129.855 106.343 129.855 106.343 129.799 106.307 129.739 106.28 129.678 106.259 129.617 106.24 129.557 106.221 129.5 106.199 129.448 106.171 129.403 106.134 129.403 106.134 129.377 106.098 129.359 106.053 129.345 106.003 129.335 105.95 129.326 105.896 129.315 105.844 129.3 105.796 129.28 105.756 129.28 105.756 129.235 105.711 129.166 105.664 129.082 105.613 128.992 105.558 128.906 105.496 128.833 105.427 128.782 105.349 128.763 105.261 128.763 105.261 128.776 105.196 128.809 105.134 128.857 105.074 128.913 105.014 128.969 104.954 129.02 104.893 129.06 104.83 129.081 104.764 129.081 104.764 129.146 104.491 129.257 104.24 129.411 104.014 129.6 103.819 129.822 103.659 130.07 103.539 130.34 103.464 130.627 103.438 130.627 103.438 130.678 103.439 130.728 103.442 130.777 103.446 130.826 103.452 130.875 103.459 130.923 103.468 130.971 103.477 131.018 103.487 131.018 103.487 131.178 103.544 131.344 103.641 131.517 103.77 131.697 103.924 131.885 104.095 132.081 104.276 132.285 104.458 132.498 104.635"/><circle id="_133343368" cx="130.627" cy="105.002" r=".698" fill="none" stroke="#000" stroke-width=".1"/><polyline id="_133343104" fill="none" stroke="#000" stroke-width=".1" points="133.656 104.712 133.934 104.764 134.241 104.815 134.571 104.863 134.92 104.907 135.282 104.945 135.652 104.975 136.025 104.994 136.397 105.002 136.397 105.002 136.634 105.002 136.868 105.001 137.1 104.998 137.327 104.991 137.549 104.982 137.764 104.967 137.972 104.947 138.171 104.921 138.171 104.921 138.507 104.868 138.819 104.816 139.1 104.772 139.342 104.742 139.538 104.732 139.682 104.748 139.766 104.797 139.783 104.884 139.783 104.884 139.736 104.99 139.631 105.094 139.469 105.192 139.251 105.286 138.977 105.372 138.647 105.451 138.263 105.521 137.823 105.581 137.823 105.581 137.772 105.603 137.836 105.619 137.98 105.634 138.166 105.653 138.358 105.682 138.52 105.724 138.616 105.786 138.609 105.873 138.609 105.873 138.466 106.013 138.284 106.102 138.074 106.149 137.847 106.167 137.612 106.167 137.38 106.159 137.163 106.157 136.969 106.169 136.969 106.169 136.845 106.191 136.805 106.212 136.826 106.236 136.887 106.265 136.964 106.302 137.034 106.352 137.076 106.418 137.066 106.502 137.066 106.502 137.039 106.547 137.002 106.588 136.957 106.624 136.906 106.656 136.851 106.685 136.793 106.71 136.735 106.731 136.678 106.749"/><polygon id="_133342840" fill="none" stroke="#000" stroke-width=".1" points="131.327 105.002 131.73 105.002 131.774 105.008 131.816 105.026 131.855 105.053 131.891 105.087 131.922 105.127 131.946 105.171 131.963 105.216 131.971 105.26 132.289 109.481 132.287 109.522 132.273 109.56 132.25 109.595 132.22 109.625 132.184 109.65 132.144 109.669 132.102 109.68 132.061 109.684 132.061 109.684 132.007 109.676 131.957 109.657 131.913 109.627 131.874 109.588 131.843 109.543 131.819 109.493 131.804 109.439 131.799 109.384 131.769 105.228 131.746 105.166 131.693 105.141 131.314 105.138 131.327 105.002"/><g id="_tag_73_"><g id="_tag_74_"><polyline id="_133342648" fill="none" stroke="#000" stroke-width=".1" points="125.102 103.887 126.538 104.55 124.955 104.861"/><line id="_132138928" x1="125.37" x2="125.452" y1="104.78" y2="104.049" fill="none" stroke="#000" stroke-width=".1"/></g><polygon id="_133173792" fill="none" stroke="#000" stroke-width=".1" points="126.989 108.588 127.03 108.537 127.071 108.491 127.112 108.448 127.154 108.409 127.195 108.374 127.237 108.342 127.279 108.315 127.321 108.291 127.321 108.291 127.362 108.271 127.404 108.254 127.444 108.24 127.485 108.229 127.524 108.221 127.564 108.216 127.602 108.214 127.641 108.216 127.641 108.216 127.678 108.22 127.716 108.228 127.753 108.238 127.79 108.252 127.827 108.269 127.863 108.289 127.899 108.312 127.935 108.339 127.935 108.339 127.983 108.381 128.026 108.426 128.062 108.473 128.091 108.524 128.115 108.579 128.132 108.636 128.143 108.696 128.148 108.759 128.148 108.759 128.146 108.825 128.137 108.891 128.12 108.958 128.096 109.026 128.065 109.096 128.027 109.166 127.981 109.237 127.927 109.31 127.927 109.31 127.869 109.38 127.81 109.442 127.75 109.497 127.688 109.545 127.626 109.585 127.562 109.618 127.497 109.644 127.431 109.662 127.431 109.662 127.372 109.672 127.315 109.675 127.258 109.671 127.202 109.661 127.147 109.644 127.093 109.62 127.04 109.589 126.988 109.552 126.988 109.552 126.939 109.51 126.896 109.466 126.86 109.419 126.83 109.37 126.806 109.318 126.788 109.265 126.777 109.208 126.772 109.15 126.772 109.15 126.773 109.081 126.782 109.012 126.798 108.943 126.822 108.873 126.853 108.802 126.891 108.731 126.936 108.66 126.989 108.588"/><polygon id="_132206848" fill="none" stroke="#000" stroke-width=".1" points="129.678 109.872 129.683 109.807 129.691 109.745 129.701 109.687 129.713 109.631 129.727 109.579 129.744 109.529 129.763 109.483 129.784 109.44 129.784 109.44 129.807 109.399 129.831 109.362 129.857 109.327 129.884 109.295 129.912 109.266 129.942 109.24 129.973 109.217 130.005 109.197 130.005 109.197 130.039 109.179 130.074 109.164 130.111 109.152 130.149 109.142 130.189 109.136 130.23 109.132 130.273 109.13 130.317 109.132 130.317 109.132 130.381 109.139 130.441 109.152 130.498 109.171 130.551 109.196 130.601 109.228 130.648 109.265 130.691 109.308 130.731 109.358 130.731 109.358 130.766 109.413 130.796 109.473 130.82 109.538 130.839 109.608 130.853 109.683 130.861 109.762 130.863 109.847 130.86 109.937 130.86 109.937 130.852 110.027 130.838 110.112 130.82 110.192 130.796 110.266 130.767 110.335 130.733 110.398 130.694 110.456 130.649 110.508 130.649 110.508 130.607 110.549 130.561 110.584 130.512 110.613 130.46 110.636 130.405 110.653 130.348 110.664 130.286 110.669 130.222 110.668 130.222 110.668 130.158 110.661 130.098 110.648 130.041 110.631 129.989 110.607 129.94 110.578 129.895 110.544 129.854 110.504 129.816 110.458 129.816 110.458 129.779 110.401 129.747 110.339 129.721 110.273 129.701 110.202 129.687 110.126 129.678 110.046 129.675 109.961 129.678 109.872"/><circle id="_132218472" cx="130.627" cy="105.002" r=".698" fill="none" stroke="#000" stroke-width=".1"/><polyline id="_132927112" fill="none" stroke="#000" stroke-width=".1" points="129.464 99.807 129.474 99.764 129.486 99.724 129.499 99.686 129.514 99.651 129.53 99.618 129.549 99.587 129.568 99.558 129.59 99.532 129.59 99.532 129.621 99.5 129.654 99.471 129.69 99.446 129.728 99.425 129.769 99.406 129.811 99.392 129.857 99.381 129.904 99.373 129.904 99.373 129.965 99.368 130.023 99.37 130.079 99.378 130.132 99.393 130.184 99.414 130.233 99.44 130.28 99.474 130.325 99.513 130.325 99.513 130.373 99.565 130.417 99.622 130.455 99.685 130.488 99.753 130.517 99.827 130.541 99.906 130.559 99.99 130.573 100.08 130.573 100.08 130.582 100.176 130.585 100.267 130.581 100.353 130.572 100.434 130.556 100.511 130.534 100.584 130.506 100.651 130.472 100.715 130.472 100.715 130.437 100.764 130.399 100.809 130.356 100.847 130.31 100.881 130.259 100.908 130.204 100.93 130.146 100.946 130.083 100.957 130.083 100.957 130.031 100.961 129.981 100.961 129.932 100.955 129.885 100.945 129.84 100.93 129.796 100.91 129.753 100.886 129.713 100.857 129.713 100.857 129.693 100.84 129.675 100.822 129.657 100.803 129.639 100.782 129.623 100.76 129.606 100.736 129.591 100.71 129.576 100.683"/><g id="_tag_75_"><polyline id="_130297648" fill="none" stroke="#000" stroke-width=".1" points="128.637 99.654 128.864 101.234 127.689 100.127"/><line id="_132663256" x1="127.996" x2="128.687" y1="100.416" y2="100.007" fill="none" stroke="#000" stroke-width=".1"/></g><polyline id="_133338128" fill="none" stroke="#000" stroke-width=".1" points="126.972 100.549 128.019 101.6 126.547 100.989 127.203 102.527 126.108 101.491"/><polyline id="_130319152" fill="none" stroke="#000" stroke-width=".1" points="128.752 108.834 128.254 110.19 128.955 110.455"/><polyline id="_132259936" fill="none" stroke="#000" stroke-width=".1" points="125.524 107.622 126.851 106.935 125.997 108.484 127.331 107.751"/><polyline id="_132215552" fill="none" stroke="#000" stroke-width=".1" points="125.564 102.359 126.939 103 126.866 103.161 126.841 103.217 126.818 103.266 126.798 103.309 126.78 103.346 126.765 103.379 126.751 103.406 126.739 103.43 126.728 103.45 126.728 103.45 126.649 103.549 126.551 103.605 126.441 103.624 126.328 103.611 126.22 103.569 126.128 103.505 126.059 103.421 126.022 103.324 126.022 103.324 126.012 103.25 126.012 103.182 126.018 103.118 126.031 103.058 126.048 103 126.07 102.943 126.095 102.887 126.122 102.828 126.202 102.657"/><polyline id="_133072632" fill="none" stroke="#000" stroke-width=".1" points="125.729 106.235 125.811 106.603 125.396 106.695 125.34 106.671 125.285 106.634 125.232 106.587 125.183 106.532 125.138 106.472 125.101 106.411 125.071 106.352 125.05 106.297 125.05 106.297 125.036 106.238 125.029 106.181 125.028 106.124 125.033 106.069 125.045 106.015 125.064 105.962 125.089 105.91 125.12 105.859 125.12 105.859 125.162 105.804 125.208 105.754 125.258 105.709 125.314 105.669 125.375 105.632 125.444 105.599 125.521 105.569 125.605 105.542 125.605 105.542 125.698 105.518 125.788 105.5 125.873 105.49 125.956 105.486 126.034 105.489 126.109 105.499 126.18 105.516 126.248 105.539 126.248 105.539 126.303 105.565 126.353 105.596 126.398 105.632 126.438 105.672 126.474 105.717 126.504 105.768 126.53 105.823 126.551 105.883 126.551 105.883 126.563 105.934 126.571 105.983 126.573 106.032 126.571 106.081 126.563 106.128 126.551 106.174 126.534 106.22 126.511 106.265 126.511 106.265 126.497 106.29 126.48 106.314 126.461 106.337 126.44 106.36 126.416 106.383 126.391 106.405 126.363 106.427 126.334 106.448"/></g></g><polyline id="polygon8_2_1" fill="none" stroke="#000" stroke-width=".1" points="185.956 63.049 186.191 62.759 184.677 60.138 181.771 60.597 180.161 60.933 178.559 60.557 177.488 59.787 176.744 58.696 176.419 57.417 176.654 55.789 177.555 54.413 179.044 51.875 177.157 49.509 174.351 50.396 172.809 50.968 171.211 50.839"/><polyline id="polygon8_2_2" fill="none" stroke="#000" stroke-width=".1" points="92.241 25.734 91.282 25.953 89.972 25.789 88.543 24.976 87.591 23.634 85.773 21.321 82.88 22.213 82.681 25.148 82.651 26.793 81.928 28.271 80.938 29.144 79.71 29.626 78.39 29.659 76.855 29.067 75.714 27.883 73.572 25.866 72.895 26.192"/><polyline id="polygon8_2_3" fill="none" stroke="#000" stroke-width=".1" points="26.529 96.021 26.072 96.134 23.254 96.982 23.028 100 25.688 101.258 27.208 101.887 28.319 103.1 28.77 104.34 28.77 105.66 28.319 106.9 27.208 108.113 25.688 108.742 23.028 110 23.254 113.018 26.072 113.866 26.529 113.979"/><polyline id="polygon8_2_4" fill="none" stroke="#000" stroke-width=".1" points="72.895 183.808 73.572 184.134 75.714 182.117 76.855 180.932 78.39 180.341 79.71 180.374 80.938 180.856 81.928 181.729 82.651 183.207 82.681 184.852 82.88 187.787 85.773 188.679 87.591 186.366 88.543 185.024 89.972 184.211 91.282 184.047 92.241 184.266"/><polyline id="polygon8_2" fill="none" stroke="#000" stroke-width=".1" points="171.211 159.161 172.809 159.032 174.351 159.604 177.157 160.491 179.044 158.124 177.555 155.587 176.654 154.211 176.419 152.583 176.744 151.304 177.488 150.213 178.559 149.443 180.161 149.067 181.771 149.403 184.677 149.862 186.191 147.241 185.914 146.951"/></g></svg>
