<svg xmlns="http://www.w3.org/2000/svg" width="297mm" height="210mm" viewBox="0 0 297 210"><g id="Ebene_x0020_1"><polygon id="_131600816" fill="none" stroke="#000" stroke-width=".1" points="81.227 131.836 87.661 124.552 90.274 123.367 92.595 120.793 93.226 116.561 91.668 111.091 88.888 104.056 85.481 97.618 82.179 92.631 78.458 87.951 73.387 82.72 67.555 77.903 62.834 74.731 58.616 74.023 55.451 75.435 53.516 77.555 38.765 72.762 38.445 69.909 36.714 66.907 32.885 65 27.202 64.791 19.652 65.26 12.476 66.512 6.712 68.11 1.111 70.205 -5.429 73.41 -11.815 77.468 -16.288 80.978 -18.267 84.772 -17.901 88.218 -16.483 90.714 -25.599 103.261 -28.412 102.683 -31.802 103.402 -34.799 106.454 -36.754 111.795 -38.641 119.121 -39.668 126.332 -39.928 132.307 -39.668 138.281 -38.641 145.493 -36.754 152.818 -34.799 158.159 -31.802 161.212 -28.412 161.93 -25.599 161.352 -16.483 173.9 -17.901 176.395 -18.267 179.841 -16.288 183.635 -11.815 187.146 -5.429 191.203 1.111 194.409 6.712 196.503 12.476 198.101 19.652 199.353 27.202 199.822 32.885 199.613 36.714 197.706 38.445 194.704 38.766 191.851 53.516 187.058 55.451 189.179 58.616 190.59 62.834 189.882 67.555 186.711 73.387 181.893 78.458 176.662 82.18 171.982 85.481 166.995 88.888 160.557 91.668 153.522 93.226 148.052 92.595 143.82 90.274 141.247 87.661 140.061 81.227 132.777 102.744 132.967 103.196 134.207 104.307 135.419 105.827 136.049 108.487 137.307 108.241 140.351 105.414 141.166 103.813 141.543 102.521 142.562 101.876 143.714 101.665 145.016 101.911 146.313 102.814 147.688 104.213 148.553 106.637 150.222 105.905 153.187 102.985 153.538 101.344 153.654 99.905 154.452 99.084 155.485 98.667 156.737 98.702 158.057 99.372 159.559 100.614 160.637 102.738 162.672 101.542 165.482 98.601 165.36 96.964 165.211 95.416 165.768 94.44 166.657 93.827 167.825 93.65 169.133 94.071 170.723 95.124 171.987 96.894 174.337 95.262 176.918 92.381 176.326 90.786 175.916 89.17 176.218 88.065 176.938 87.272 177.993 86.887 179.256 87.047 180.893 87.884 182.309 89.255 184.913 87.23 187.199 84.48 186.152 82.973 185.492 81.328 185.531 80.122 186.064 79.17 186.978 78.588 188.163 78.482 189.805 79.082 191.337 80.017 194.126 77.652 196.058 75.106 194.583 73.724 193.69 72.094 193.465 70.818 193.798 69.731 194.547 68.968 195.623 68.601 197.227 68.945 198.835 69.422 201.739 66.777 203.266 64.5 201.402 63.279 200.299 61.707 199.815 60.393 199.938 59.202 200.504 58.274 201.443 57.655 202.967 57.738 204.61 57.742 207.553 54.887 208.636 52.938 206.431 51.911 205.146 50.437 204.416 49.119 204.328 47.852 204.695 46.786 205.473 45.93 206.878 45.749 208.513 45.28 211.418 42.289 212.029 40.719 209.54 39.911 208.107 38.574 207.15 37.287 206.852 35.977 207.01 34.801 207.608 33.731 208.858 33.289 210.442 32.361 213.234 29.31 213.357 28.159 210.649 27.592 209.105 26.424 207.946 25.203 207.445 23.885 207.392 22.629 207.793 21.372 208.854 20.682 210.347 19.318 212.954 16.286 212.586 15.586 209.729 15.272 208.114 14.307 206.782 13.182 206.092 11.888 205.828 10.584 206.022 9.173 206.868 8.251 208.231 6.488 210.586 3.554 209.736 3.322 206.803 3.271 205.159 2.531 203.69 1.531 202.828 .298 202.36 -1.021 202.342 -2.55 202.951 -3.678 204.149 -5.796 206.19 -8.556 204.881 -8.315 201.949 -8.101 200.318 -8.595 198.749 -9.444 197.738 -10.586 197.078 -11.886 196.849 -13.492 197.205 -14.796 198.206 -17.216 199.881 -19.73 198.146 -19.021 195.29 -18.549 193.715 -18.785 192.087 -19.459 190.953 -20.483 190.118 -21.729 189.684 -23.37 189.777 -24.82 190.556 -27.476 191.821 -29.678 189.706 -28.521 187 -27.802 185.521 -27.773 183.877 -28.259 182.649 -29.134 181.661 -30.294 181.032 -31.93 180.861 -33.484 181.398 -36.31 182.221 -38.145 179.779 -36.569 177.294 -35.621 175.95 -35.33 174.331 -35.611 173.041 -36.316 171.926 -37.361 171.119 -38.948 170.688 -40.569 170.968 -43.489 171.327 -44.909 168.622 -42.955 166.423 -41.803 165.248 -41.256 163.697 -41.327 162.379 -41.844 161.165 -42.746 160.201 -44.243 159.521 -45.888 159.537 -48.828 159.423 -49.795 156.526 -47.514 154.668 -46.189 153.693 -45.4 152.249 -45.259 150.937 -45.575 149.656 -46.31 148.56 -47.679 147.648 -49.305 147.401 -52.189 146.816 -52.678 143.801 -50.129 142.334 -48.664 141.584 -47.654 140.286 -47.304 139.013 -47.41 137.698 -47.96 136.498 -49.165 135.378 -50.731 134.873 -53.483 133.834 -53.483 130.78 -50.731 129.74 -49.165 129.235 -47.96 128.115 -47.41 126.916 -47.304 125.6 -47.654 124.328 -48.664 123.029 -50.129 122.28 -52.678 120.812 -52.189 117.797 -49.305 117.213 -47.679 116.965 -46.31 116.053 -45.575 114.957 -45.259 113.676 -45.4 112.364 -46.189 110.92 -47.514 109.945 -49.795 108.088 -48.828 105.191 -45.888 105.076 -44.243 105.093 -42.746 104.413 -41.844 103.449 -41.327 102.234 -41.256 100.917 -41.803 99.365 -42.955 98.191 -44.909 95.991 -43.489 93.286 -40.569 93.645 -38.948 93.925 -37.361 93.494 -36.316 92.687 -35.611 91.572 -35.33 90.282 -35.621 88.663 -36.569 87.319 -38.145 84.835 -36.31 82.393 -33.484 83.215 -31.93 83.752 -30.294 83.581 -29.134 82.952 -28.259 81.964 -27.773 80.736 -27.802 79.092 -28.521 77.613 -29.678 74.908 -27.476 72.792 -24.82 74.057 -23.37 74.836 -21.729 74.93 -20.483 74.495 -19.459 73.66 -18.785 72.526 -18.549 70.899 -19.021 69.323 -19.73 66.467 -17.216 64.732 -14.796 66.407 -13.492 67.408 -11.886 67.764 -10.586 67.535 -9.444 66.875 -8.595 65.864 -8.101 64.296 -8.315 62.665 -8.556 59.732 -5.796 58.423 -3.678 60.464 -2.55 61.662 -1.021 62.271 .298 62.253 1.531 61.785 2.531 60.923 3.271 59.454 3.322 57.81 3.554 54.877 6.488 54.027 8.251 56.382 9.173 57.745 10.584 58.591 11.888 58.785 13.182 58.521 14.307 57.831 15.272 56.499 15.586 54.884 16.286 52.027 19.318 51.659 20.682 54.266 21.372 55.759 22.629 56.82 23.885 57.221 25.203 57.168 26.424 56.667 27.592 55.508 28.159 53.964 29.31 51.256 32.361 51.379 33.289 54.171 33.731 55.755 34.801 57.005 35.977 57.602 37.287 57.761 38.574 57.463 39.911 56.506 40.719 55.073 42.289 52.584 45.28 53.195 45.749 56.1 45.93 57.735 46.786 59.14 47.852 59.919 49.119 60.286 50.437 60.197 51.911 59.467 52.938 58.182 54.887 55.977 57.742 57.06 57.738 60.003 57.655 61.646 58.274 63.17 59.202 64.109 60.393 64.675 61.707 64.799 63.279 64.315 64.5 63.212 66.777 61.348 69.422 62.875 68.945 65.778 68.601 67.387 68.968 68.99 69.731 70.066 70.818 70.816 72.094 71.149 73.724 70.923 75.106 70.03 77.652 68.555 80.017 70.487 79.082 73.277 78.482 74.809 78.588 76.45 79.17 77.635 80.122 78.549 81.328 79.083 82.973 79.121 84.48 78.461 87.23 77.414 89.255 79.701 87.884 82.304 87.047 83.72 86.887 85.357 87.272 86.62 88.065 87.675 89.17 88.395 90.786 88.697 92.381 88.287 95.262 87.695 96.894 90.276 95.124 92.626 94.071 93.89 93.65 95.48 93.827 96.788 94.44 97.956 95.416 98.845 96.964 99.402 98.601 99.253 101.542 99.131 102.738 101.941 100.614 103.976 99.372 105.054 98.702 106.557 98.667 107.876 99.084 109.128 99.905 110.161 101.344 110.96 102.985 111.076 105.905 111.426 106.637 114.392 104.213 116.06 102.814 116.925 101.911 118.3 101.665 119.597 101.876 120.899 102.521 122.051 103.813 123.07 105.414 123.447 108.241 124.262 108.487 127.307 105.827 128.564 104.307 129.194 103.196 130.407 102.744 131.647"/><polygon id="_130578768" fill="none" stroke="#000" stroke-width=".1" points="131.019 132.967 131.471 134.207 132.582 135.419 134.101 136.049 136.762 137.307 136.587 140.256 133.797 141.19 132.214 141.636 130.965 142.708 130.372 143.887 130.215 145.197 130.517 146.482 131.476 147.817 132.911 148.622 135.404 150.186 134.882 153.094 132 153.692 130.375 153.946 129.011 154.864 128.28 155.964 127.971 157.246 128.118 158.558 128.912 159.998 130.243 160.967 132.533 162.814 131.67 165.64 128.738 165.893 127.095 165.953 125.631 166.703 124.775 167.709 124.315 168.946 124.307 170.265 124.927 171.789 126.132 172.909 128.188 175.014 126.997 177.718 124.055 177.622 122.416 177.488 120.874 178.06 119.905 178.957 119.304 180.131 119.138 181.44 119.574 183.027 120.637 184.281 122.429 186.614 120.928 189.158 118.018 188.715 116.406 188.389 114.808 188.774 113.741 189.55 113.004 190.645 112.685 191.925 112.929 193.552 113.838 194.923 115.34 197.452 113.548 199.801 110.713 199.017 109.15 198.502 107.517 198.695 106.366 199.34 105.504 200.339 105.036 201.574 105.086 203.218 105.827 204.687 107.021 207.376 104.963 209.496 102.238 208.382 100.749 207.686 99.104 207.684 97.884 208.188 96.911 209.079 96.299 210.249 96.155 211.888 96.717 213.434 97.583 216.246 95.29 218.107 92.717 216.679 91.32 215.812 89.687 215.616 88.416 215.972 87.344 216.741 86.599 217.831 86.262 219.441 86.636 221.043 87.165 223.937 84.666 225.514 82.28 223.792 80.995 222.765 79.398 222.377 78.094 222.581 76.938 223.218 76.07 224.212 75.543 225.771 75.726 227.406 75.909 230.342 73.242 231.613 71.077 229.621 69.922 228.449 68.38 227.875 67.062 227.923 65.839 228.419 64.858 229.303 64.153 230.789 64.141 232.433 63.975 235.371 61.176 236.317 59.262 234.083 58.254 232.783 56.791 232.031 55.476 231.922 54.202 232.27 53.125 233.032 52.249 234.424 52.041 236.056 51.529 238.953 48.638 239.562 47.001 237.117 46.154 235.707 44.791 234.786 43.498 234.523 42.193 234.718 41.033 235.348 39.998 236.626 39.599 238.222 38.748 241.038 35.804 241.3 34.469 238.679 33.795 237.179 32.549 236.104 31.296 235.689 29.977 235.728 28.751 236.216 27.572 237.363 26.988 238.901 25.809 241.597 22.856 241.509 21.84 238.748 21.348 237.179 20.238 235.964 19.043 235.404 17.729 235.287 16.453 235.627 15.146 236.626 14.385 238.084 12.896 240.621 9.974 240.185 9.291 237.323 8.988 235.706 8.03 234.369 6.909 233.672 5.618 233.4 4.311 233.586 2.896 234.424 1.967 235.782 .188 238.125 -2.662 237.347 -3.002 234.424 -3.111 232.783 -3.904 231.341 -4.935 230.517 -6.185 230.094 -7.504 230.124 -9.009 230.789 -10.092 232.027 -12.135 234.144 -14.873 233.033 -14.865 230.091 -14.78 228.448 -15.397 226.924 -16.322 225.983 -17.514 225.415 -18.827 225.289 -20.4 225.771 -21.622 226.872 -23.901 228.733 -26.489 227.306 -26.132 224.386 -25.853 222.765 -26.286 221.178 -27.093 220.134 -28.209 219.429 -29.499 219.149 -31.118 219.441 -32.461 220.39 -34.945 221.968 -37.345 220.246 -36.646 217.388 -36.177 215.811 -36.419 214.184 -37.097 213.052 -38.122 212.22 -39.369 211.789 -41.011 211.888 -42.458 212.672 -45.11 213.945 -47.29 211.95 -46.258 209.195 -45.606 207.685 -45.653 206.041 -46.193 204.837 -47.113 203.89 -48.3 203.314 -49.942 203.218 -51.471 203.825 -54.256 204.775 -56.185 202.537 -54.834 199.924 -54.008 198.501 -53.86 196.863 -54.254 195.603 -55.055 194.554 -56.166 193.842 -57.785 193.553 -59.375 193.974 -62.253 194.589 -63.903 192.138 -62.252 189.703 -61.264 188.388 -60.924 186.779 -61.166 185.481 -61.837 184.345 -62.856 183.507 -64.43 183.027 -66.059 183.258 -68.989 183.528 -70.338 180.899 -68.41 178.676 -67.273 177.487 -66.745 175.93 -66.832 174.613 -67.364 173.405 -68.277 172.452 -69.783 171.79 -71.428 171.827 -74.369 171.748 -75.398 168.978 -73.221 166.998 -71.951 165.953 -71.243 164.468 -71.173 163.15 -71.559 161.888 -72.353 160.834 -73.77 159.998 -75.407 159.84 -78.318 159.414 -79.012 156.542 -76.617 154.834 -75.232 153.946 -74.353 152.555 -74.128 151.255 -74.362 149.956 -75.025 148.815 -76.334 147.818 -77.941 147.467 -80.781 146.7 -81.13 143.766 -78.55 142.353 -77.07 141.635 -76.032 140.358 -75.655 139.094 -75.734 137.776 -76.258 136.565 -77.439 135.42 -78.993 134.882 -81.723 133.784 -81.723 130.829 -78.993 129.731 -77.439 129.193 -76.258 128.048 -75.734 126.837 -75.655 125.52 -76.032 124.255 -77.07 122.978 -78.55 122.26 -81.13 120.847 -80.781 117.913 -77.941 117.146 -76.334 116.795 -75.025 115.798 -74.362 114.657 -74.128 113.358 -74.353 112.058 -75.232 110.668 -76.617 109.779 -79.012 108.071 -78.318 105.199 -75.407 104.773 -73.77 104.615 -72.353 103.779 -71.559 102.725 -71.173 101.463 -71.243 100.145 -71.951 98.66 -73.221 97.615 -75.398 95.635 -74.369 92.865 -71.428 92.786 -69.783 92.823 -68.277 92.161 -67.364 91.208 -66.832 90 -66.745 88.683 -67.273 87.126 -68.41 85.937 -70.338 83.714 -68.989 81.085 -66.059 81.355 -64.43 81.586 -62.856 81.106 -61.837 80.268 -61.166 79.132 -60.924 77.835 -61.264 76.225 -62.252 74.91 -63.903 72.475 -62.253 70.024 -59.375 70.638 -57.785 71.06 -56.166 70.771 -55.055 70.059 -54.254 69.01 -53.86 67.75 -54.008 66.112 -54.834 64.689 -56.185 62.076 -54.256 59.838 -51.471 60.788 -49.942 61.395 -48.3 61.299 -47.113 60.723 -46.193 59.776 -45.653 58.572 -45.606 56.928 -46.258 55.418 -47.29 52.663 -45.11 50.668 -42.458 51.941 -41.011 52.725 -39.369 52.824 -38.122 52.393 -37.097 51.561 -36.419 50.429 -36.177 48.802 -36.646 47.225 -37.345 44.367 -34.945 42.645 -32.461 44.223 -31.118 45.172 -29.499 45.464 -28.209 45.184 -27.093 44.479 -26.286 43.435 -25.853 41.848 -26.132 40.227 -26.489 37.307 -23.901 35.88 -21.622 37.741 -20.4 38.842 -18.827 39.324 -17.514 39.198 -16.322 38.63 -15.397 37.689 -14.78 36.165 -14.865 34.522 -14.873 31.58 -12.135 30.469 -10.092 32.586 -9.009 33.824 -7.504 34.489 -6.185 34.519 -4.935 34.096 -3.904 33.272 -3.111 31.83 -3.002 30.189 -2.662 27.267 .188 26.488 1.967 28.831 2.896 30.189 4.311 31.027 5.618 31.213 6.909 30.941 8.03 30.244 8.988 28.907 9.291 27.29 9.974 24.428 12.896 23.992 14.385 26.529 15.146 27.987 16.453 28.986 17.729 29.326 19.043 29.209 20.238 28.649 21.348 27.434 21.84 25.865 22.856 23.104 25.809 23.016 26.988 25.712 27.572 27.25 28.751 28.397 29.977 28.885 31.296 28.924 32.549 28.509 33.795 27.434 34.469 25.934 35.804 23.313 38.748 23.575 39.599 26.391 39.998 27.987 41.033 29.265 42.193 29.895 43.498 30.09 44.791 29.827 46.154 28.907 47.001 27.496 48.638 25.051 51.529 25.66 52.041 28.557 52.249 30.189 53.125 31.581 54.202 32.343 55.476 32.691 56.791 32.583 58.254 31.83 59.262 30.53 61.176 28.296 63.975 29.242 64.141 32.18 64.153 33.825 64.858 35.31 65.839 36.194 67.062 36.691 68.38 36.738 69.922 36.164 71.077 34.992 73.242 33 75.909 34.271 75.726 37.208 75.543 38.842 76.07 40.401 76.938 41.395 78.094 42.032 79.398 42.236 80.995 41.848 82.28 40.821 84.666 39.099 87.165 40.676 86.636 43.57 86.262 45.172 86.599 46.782 87.344 47.872 88.416 48.641 89.687 48.997 91.32 48.801 92.717 47.934 95.29 46.506 97.583 48.367 96.717 51.179 96.155 52.725 96.299 54.364 96.911 55.534 97.884 56.425 99.104 56.929 100.749 56.927 102.238 56.231 104.963 55.117 107.021 57.237 105.827 59.926 105.086 61.395 105.036 63.039 105.504 64.274 106.366 65.273 107.517 65.918 109.15 66.111 110.713 65.596 113.548 64.812 115.34 67.161 113.838 69.69 112.929 71.061 112.685 72.688 113.004 73.968 113.741 75.063 114.808 75.839 116.406 76.225 118.018 75.898 120.928 75.455 122.429 77.999 120.637 80.332 119.574 81.586 119.138 83.173 119.304 84.482 119.905 85.656 120.874 86.553 122.416 87.125 124.055 86.991 126.997 86.895 128.188 89.599 126.132 91.704 124.927 92.824 124.307 94.347 124.315 95.667 124.775 96.904 125.631 97.91 127.095 98.66 128.738 98.721 131.67 98.973 132.533 101.799 130.243 103.647 128.912 104.615 128.118 106.055 127.971 107.367 128.28 108.65 129.011 109.749 130.375 110.667 132 110.922 134.882 111.52 135.404 114.428 132.911 115.991 131.476 116.796 130.517 118.132 130.215 119.416 130.372 120.727 130.965 121.905 132.214 122.978 133.797 123.423 136.587 124.357 136.762 127.307 134.101 128.564 132.582 129.194 131.471 130.407 131.019 131.647 87.754 130.908 87.717 124.503 90.71 123.918 93.36 123.13 95.723 122.12 97.859 120.867 99.827 119.355 101.684 117.562 103.49 115.471 105.304 113.061 107.465 109.557 109.009 105.783 109.881 101.752 110.025 97.475 109.385 92.962 107.905 88.224 105.53 83.272 102.204 78.118 98.324 73.365 94.343 69.578 90.288 66.707 86.188 64.704 82.071 63.519 77.964 63.103 73.897 63.407 69.896 64.383 67.045 65.361 64.496 66.422 62.215 67.619 60.165 69.004 58.312 70.63 56.619 72.549 55.051 74.814 53.572 77.477 46.156 75.156 38.792 72.771 39.161 69.743 39.231 66.98 39 64.42 38.469 62.001 37.638 59.663 36.507 57.342 35.076 54.978 33.345 52.509 30.68 49.371 27.569 46.736 24.004 44.661 19.981 43.202 15.491 42.416 10.527 42.36 5.084 43.088 -.846 44.659 -6.565 46.88 -11.397 49.496 -15.38 52.466 -18.553 55.746 -20.952 59.295 -22.616 63.072 -23.584 67.035 -23.892 71.141 -23.843 74.156 -23.621 76.907 -23.188 79.447 -22.504 81.824 -21.531 84.089 -20.229 86.292 -18.559 88.484 -16.484 90.713 -20.982 97.048 -25.526 103.315 -28.292 102.028 -30.898 101.109 -33.404 100.537 -35.868 100.295 -38.35 100.362 -40.906 100.72 -43.596 101.351 -46.479 102.234 -50.288 103.799 -53.755 105.944 -56.83 108.693 -59.461 112.069 -61.596 116.096 -63.183 120.799 -64.172 126.201 -64.511 132.326 -64.166 138.452 -63.171 143.856 -61.578 148.561 -59.439 152.592 -56.804 155.971 -53.727 158.721 -50.257 160.865 -46.447 162.428 -43.565 163.312 -40.879 163.952 -38.33 164.324 -35.858 164.409 -33.403 164.183 -30.905 163.626 -28.305 162.715 -25.543 161.43 -16.483 173.9 -18.556 176.133 -20.221 178.331 -21.519 180.542 -22.487 182.815 -23.165 185.2 -23.593 187.745 -23.81 190.502 -23.856 193.518 -23.544 197.623 -22.576 201.584 -20.912 205.358 -18.514 208.903 -15.343 212.178 -11.361 215.141 -6.529 217.751 -.809 219.966 5.124 221.53 10.571 222.254 15.539 222.193 20.033 221.404 24.06 219.943 27.627 217.865 30.739 215.228 33.402 212.087 35.128 209.618 36.549 207.256 37.668 204.939 38.485 202.605 39.002 200.192 39.22 197.637 39.141 194.877 38.766 191.851 53.635 187.019 55.116 189.685 56.685 191.961 58.376 193.897 60.227 195.541 62.274 196.945 64.553 198.158 67.1 199.229 69.952 200.209 73.953 201.182 78.018 201.484 82.122 201.068 86.234 199.883 90.329 197.88 94.378 195.008 98.353 191.219 102.227 186.463 105.548 181.305 107.92 176.348 109.397 171.604 110.035 167.086 109.89 162.804 109.017 158.77 107.47 154.996 105.306 151.493 103.494 149.083 101.698 146.987 99.855 145.187 97.904 143.666 95.785 142.405 93.437 141.388 90.798 140.597 87.808 140.013 87.77 133.558"/><polygon id="_129378032" fill="none" stroke="#000" stroke-width=".1" points="-33.891 87.611 -31.476 84.38 -31.285 83.99 -31.126 83.548 -30.998 83.067 -30.899 82.564 -30.825 82.053 -30.775 81.55 -30.746 81.07 -30.736 80.628 -30.721 78.748 -30.683 76.861 -30.619 74.965 -30.526 73.059 -30.399 71.142 -30.236 69.214 -30.033 67.273 -29.786 65.319 -29.748 64.405 -29.895 63.679 -30.199 63.144 -30.635 62.806 -31.176 62.669 -31.795 62.738 -32.467 63.017 -33.164 63.512 -35.024 65.204 -36.837 66.945 -38.602 68.734 -40.318 70.572 -41.983 72.455 -43.598 74.384 -45.16 76.357 -46.668 78.374 -48.11 80.438 -49.494 82.54 -50.819 84.677 -52.086 86.85 -53.292 89.055 -54.439 91.292 -55.523 93.56 -56.546 95.856 -56.798 96.673 -56.852 97.399 -56.724 98.008 -56.424 98.479 -55.966 98.787 -55.363 98.908 -54.627 98.82 -53.772 98.498 -51.993 97.65 -50.214 96.848 -48.434 96.089 -46.654 95.368 -44.874 94.682 -43.093 94.027 -41.313 93.399 -39.532 92.795 -39.115 92.647 -38.668 92.469 -38.206 92.264 -37.745 92.034 -37.298 91.781 -36.882 91.509 -36.511 91.22 -36.201 90.916"/><polygon id="_129362704" fill="none" stroke="#000" stroke-width=".1" points="-33.873 177.026 -36.199 173.731 -36.51 173.429 -36.883 173.141 -37.3 172.871 -37.748 172.621 -38.211 172.393 -38.673 172.19 -39.121 172.014 -39.539 171.868 -41.322 171.272 -43.105 170.653 -44.889 170.007 -46.673 169.329 -48.456 168.616 -50.24 167.865 -52.023 167.072 -53.805 166.233 -54.662 165.915 -55.398 165.83 -56.001 165.954 -56.457 166.264 -56.755 166.736 -56.881 167.347 -56.822 168.072 -56.567 168.888 -55.533 171.179 -54.438 173.442 -53.281 175.673 -52.064 177.873 -50.787 180.039 -49.452 182.171 -48.057 184.266 -46.606 186.323 -45.088 188.332 -43.517 190.298 -41.894 192.22 -40.219 194.095 -38.495 195.924 -36.721 197.706 -34.9 199.438 -33.032 201.121 -32.332 201.612 -31.659 201.888 -31.04 201.954 -30.499 201.815 -30.065 201.475 -29.763 200.938 -29.62 200.211 -29.662 199.298 -29.919 197.345 -30.131 195.405 -30.304 193.478 -30.439 191.562 -30.542 189.656 -30.614 187.761 -30.661 185.873 -30.685 183.994 -30.697 183.551 -30.728 183.071 -30.781 182.568 -30.857 182.058 -30.959 181.555 -31.089 181.076 -31.25 180.634 -31.443 180.245"/><polygon id="_21553040" fill="none" stroke="#000" stroke-width=".1" points="51.171 204.64 47.319 205.834 46.935 206.037 46.547 206.302 46.161 206.616 45.785 206.964 45.425 207.334 45.089 207.711 44.783 208.083 44.515 208.435 43.398 209.947 42.258 211.452 41.092 212.948 39.896 214.435 38.667 215.911 37.402 217.375 36.096 218.826 34.748 220.262 34.18 220.979 33.872 221.653 33.804 222.264 33.958 222.794 34.315 223.223 34.856 223.531 35.564 223.699 36.419 223.709 38.918 223.434 41.408 223.091 43.888 222.68 46.356 222.203 48.81 221.658 51.25 221.046 53.674 220.368 56.079 219.623 58.459 218.801 60.814 217.914 63.143 216.964 65.444 215.951 67.717 214.876 69.959 213.739 72.17 212.543 74.347 211.286 75.031 210.772 75.501 210.218 75.755 209.649 75.79 209.092 75.6 208.574 75.184 208.121 74.536 207.76 73.655 207.518 71.718 207.159 69.807 206.761 67.921 206.33 66.057 205.866 64.213 205.375 62.388 204.858 60.578 204.32 58.783 203.762 58.359 203.636 57.893 203.518 57.398 203.412 56.889 203.327 56.38 203.269 55.883 203.244 55.413 203.26 54.984 203.324"/><polygon id="_130445224" fill="none" stroke="#000" stroke-width=".1" points="103.714 132.291 103.66 136.324 103.734 136.751 103.866 137.203 104.045 137.667 104.261 138.132 104.501 138.589 104.756 139.025 105.015 139.431 105.267 139.795 106.36 141.324 107.438 142.873 108.501 144.445 109.546 146.041 110.57 147.666 111.572 149.322 112.548 151.012 113.497 152.738 114.003 153.499 114.549 154.001 115.109 154.255 115.661 154.272 116.179 154.065 116.639 153.645 117.018 153.024 117.292 152.214 117.802 149.752 118.245 147.278 118.621 144.793 118.93 142.298 119.17 139.795 119.342 137.286 119.446 134.771 119.481 132.254 119.434 129.736 119.319 127.222 119.134 124.714 118.882 122.212 118.562 119.718 118.174 117.235 117.719 114.762 117.197 112.303 116.92 111.494 116.538 110.875 116.075 110.458 115.556 110.253 115.005 110.274 114.446 110.53 113.903 111.034 113.4 111.797 112.459 113.528 111.491 115.223 110.497 116.883 109.481 118.513 108.444 120.114 107.388 121.691 106.317 123.245 105.232 124.78 104.981 125.145 104.724 125.552 104.471 125.989 104.233 126.447 104.02 126.914 103.843 127.378 103.713 127.83 103.641 128.258"/><polygon id="_131566488" fill="none" stroke="#000" stroke-width=".1" points="51.142 59.963 54.961 61.261 55.391 61.322 55.861 61.336 56.357 61.309 56.867 61.249 57.375 61.161 57.869 61.053 58.335 60.932 58.759 60.805 60.551 60.239 62.358 59.691 64.181 59.166 66.022 58.666 67.884 58.194 69.768 57.753 71.677 57.347 73.612 56.978 74.492 56.731 75.138 56.368 75.552 55.913 75.739 55.394 75.703 54.837 75.446 54.27 74.972 53.717 74.286 53.207 72.103 51.961 69.887 50.775 67.639 49.649 65.362 48.585 63.055 47.583 60.722 46.644 58.363 45.768 55.979 44.956 53.57 44.223 51.144 43.556 48.701 42.956 46.244 42.423 43.773 41.957 41.291 41.558 38.8 41.227 36.3 40.964 35.445 40.977 34.738 41.149 34.198 41.46 33.843 41.891 33.692 42.421 33.763 43.032 34.074 43.705 34.645 44.419 36 45.848 37.313 47.293 38.585 48.751 39.821 50.221 41.024 51.702 42.197 53.193 43.344 54.693 44.468 56.199 44.738 56.55 45.045 56.92 45.383 57.296 45.745 57.664 46.123 58.011 46.51 58.322 46.9 58.586 47.285 58.787"/><circle id="_131661200" cx="48.43" cy="196.503" r="6.29" fill="none" stroke="#000" stroke-width=".1"/><circle id="_130858992" cx="48.43" cy="196.503" r="2.621" fill="none" stroke="#000" stroke-width=".1"/><circle id="_131736160" cx="-27.038" cy="171.982" r="6.29" fill="none" stroke="#000" stroke-width=".1"/><circle id="_131567160" cx="-27.038" cy="171.982" r="2.621" fill="none" stroke="#000" stroke-width=".1"/><circle id="_130949192" cx="48.429" cy="68.11" r="6.29" fill="none" stroke="#000" stroke-width=".1"/><circle id="_129524456" cx="48.429" cy="68.11" r="2.621" fill="none" stroke="#000" stroke-width=".1"/><circle id="_130606792" cx="-27.038" cy="92.631" r="6.29" fill="none" stroke="#000" stroke-width=".1"/><circle id="_129093472" cx="-27.038" cy="92.631" r="2.621" fill="none" stroke="#000" stroke-width=".1"/><polyline id="_131660064_1" fill="none" stroke="#000" stroke-width=".1" points="128.881 135.742 127.638 149.951 123.054 167.059 115.568 183.112 105.409 197.62 92.885 210.144 78.377 220.303 62.324 227.789 45.216 232.373 27.572 233.916 9.927 232.373 -7.181 227.788 -23.233 220.303 -37.742 210.144 -50.266 197.62 -60.425 183.111 -67.91 167.059 -72.494 149.951 -74.038 132.306 -72.494 114.662 -67.91 97.554 -60.424 81.502 -50.265 66.993 -37.741 54.469 -23.233 44.31 -7.18 36.825 9.928 32.241 27.572 30.697 45.216 32.241 62.325 36.825 78.377 44.31 92.886 54.469 105.41 66.993 115.569 81.502 123.054 97.554 127.638 114.663 128.863 128.661"/><circle id="_128938392" cx="27.572" cy="132.313" r="10" fill="none" stroke="#000" stroke-width=".1"/><polygon id="_130473968" fill="none" stroke="#000" stroke-width=".1" points="38.766 191.851 35.034 179.785 30.9 169.934 25.904 159.731 22.756 156.741 20.022 155.541 17.105 154.906 12.801 155.474 2.762 160.791 -6.372 166.331 -16.483 173.9 -21.041 167.626 -25.599 161.352 -15.277 154.075 -7.186 147.1 .974 139.195 2.845 135.277 3.141 132.307 2.845 129.336 .974 125.418 -7.186 117.513 -15.277 110.538 -25.526 103.315 -16.497 90.733 -6.372 98.282 2.762 103.822 12.801 109.139 17.105 109.707 20.022 109.072 22.756 107.872 25.904 104.882 30.9 94.679 35.034 84.828 38.765 72.762 53.572 77.477 49.441 89.509 46.995 99.908 46.923 102.201 47.59 105.205 48.6 107.503 50.69 109.116 54.015 110.811 57.996 111.934 62.943 112.91 68.533 113.781 90.989 116.01 145.541 117.422 176.427 116.886 187.676 116.395 198.24 115.478 202.572 115.285 205.084 115.452 207.844 116.117 210.701 117.349 213.707 119.433 216.37 122.338 217.572 124.257 219.096 128.204 219.594 132.307 219.096 136.41 217.572 140.356 216.37 142.275 213.707 145.18 210.701 147.265 207.844 148.496 205.084 149.161 202.572 149.328 198.24 149.135 187.676 148.219 176.427 147.727 145.541 147.191 90.989 148.603 68.533 150.832 62.943 151.703 57.996 152.679 54.015 153.802 50.69 155.497 48.6 157.11 47.59 159.409 46.923 162.412 46.995 164.705 49.441 175.103 53.516 187.058"/><circle id="_128938368" cx="202.572" cy="132.307" r="7.5" fill="none" stroke="#000" stroke-width=".1"/><circle id="_128923920" cx="27.572" cy="132.313" r="10" fill="none" stroke="#000" stroke-width=".1"/><circle id="_131022856" cx="27.572" cy="132.313" r="10" fill="none" stroke="#000" stroke-width=".1"/><circle id="center_00" cx="27.572" cy="132.313" r="6.032" fill="none" stroke="#000" stroke-width=".1"/><polyline id="_tag_96_" fill="none" stroke="#000" stroke-width=".1" points="-35.417 89.795 -35.621 88.663 -36.569 87.319 -38.145 84.835 -36.31 82.393 -33.484 83.215 -31.93 83.752 -31.171 83.673"/><polyline id="_tag_97_" fill="none" stroke="#000" stroke-width=".1" points="-44.066 94.385 -43.489 93.286 -41.637 93.514"/><polyline id="_tag_98_" fill="none" stroke="#000" stroke-width=".1" points="-41.772 171.116 -43.489 171.327 -44.016 170.323"/><polyline id="_tag_99_" fill="none" stroke="#000" stroke-width=".1" points="-31.111 180.947 -31.93 180.861 -33.484 181.398 -36.31 182.221 -38.145 179.779 -36.569 177.294 -35.621 175.95 -35.42 174.834"/><polyline id="_tag_100_" fill="none" stroke="#000" stroke-width=".1" points="45.997 206.767 45.749 208.513 45.28 211.418 42.289 212.029 42.074 211.688"/><polyline id="_tag_101_" fill="none" stroke="#000" stroke-width=".1" points="57.681 203.473 57.738 204.61 57.742 207.553 54.887 208.636 52.938 206.431 51.911 205.146 50.998 204.694"/><polyline id="_tag_102_" fill="none" stroke="#000" stroke-width=".1" points="50.998 59.919 51.911 59.467 52.938 58.182 54.887 55.977 57.742 57.06 57.738 60.003 57.683 61.094"/><polyline id="_tag_103_" fill="none" stroke="#000" stroke-width=".1" points="42.035 52.987 42.289 52.584 45.28 53.195 45.749 56.1 45.93 57.735"/></g></svg>