<svg xmlns="http://www.w3.org/2000/svg" width="210mm" height="297mm" viewBox="0 0 210 297" xml:space="preserve" style="shape-rendering:geometricPrecision;text-rendering:geometricPrecision;image-rendering:optimizeQuality;fill-rule:evenodd;clip-rule:evenodd"><defs><style type="text/css">.str0{stroke:red;stroke-width:.3528}.fil0{fill:#fff}</style></defs><g id="Ebene_x0020_1"><metadata id="CorelCorpID_0Corel-Layer"/><circle id="circle5" cx="56.5" cy="153.5" r="35" class="fil0 str0"/><circle id="center_00" cx="56.5" cy="153.5" r="4.5" class="fil0 str0"/><polygon id="polygon26" points="60.867 180.261 50.793 180.261 50.793 170.187 60.867 170.187" class="fil0 str0"/><polygon id="polygon26_0" points="73.728 137.687 74.427 140.49 74.497 143.248 73.76 146.38 72.656 148.556 71.29 150.36 69.956 151.809 68.343 153.383 66.604 154.954 64.828 156.471 63.218 157.867 62.006 159.065 61.144 160.098 60.345 161.732 59.986 164.156 59.937 166.71 50.793 166.71 50.768 165.322 50.761 163.788 50.88 161.844 51.275 159.575 52.101 157.241 53.178 155.461 54.108 154.303 56.153 152.221 58.352 150.332 60.829 148.267 62.605 146.664 63.751 145.29 64.445 143.781 64.711 141.958 64.51 140.31 63.934 138.856 62.361 136.914 60.642 135.766 58.763 135.11 56.513 134.829 54.148 134.965 52.616 135.334 51.714 135.683 50.722 136.206 49.605 137.012 48.77 137.829 47.507 139.635 46.664 141.527 46.056 143.684 36.813 142.533 37.348 139.262 38.457 136.426 40.022 133.999 41.599 132.25 43.812 130.422 47.026 128.683 49.74 127.805 52.114 127.364 55.603 127.147 59.174 127.358 62.405 127.987 64.98 128.887 67.709 130.374 69.767 132.01 71.782 134.213 73.043 136.171" class="fil0 str0"/></g></svg>
