<svg xmlns="http://www.w3.org/2000/svg" width="297mm" height="210mm" viewBox="0 0 297 210"><g id="Ebene_x0020_1"><g id="_132896520"><polygon id="path21309" fill="none" stroke="#000" stroke-width=".1" points="170.584 110.107 170.486 113.218 170.233 116.289 169.835 119.313 169.301 122.282 168.641 125.19 167.865 128.029 166.98 130.792 165.997 133.472 165.997 133.472 165.482 134.279 164.694 135.176 163.613 136.027 162.222 136.693 160.501 137.035 158.431 136.915 155.993 136.194 153.17 134.733 153.17 134.733 152.226 136.523 151.199 138.276 150.097 139.986 148.933 141.648 147.717 143.256 146.459 144.807 145.169 146.294 143.859 147.712 143.859 147.712 146.021 149.952 147.396 152.059 148.113 154.004 148.302 155.755 148.091 157.282 147.611 158.555 146.991 159.541 146.359 160.212 146.359 160.212 141.827 163.749 136.982 166.899 131.848 169.633 126.446 171.923 120.8 173.743 114.932 175.064 108.865 175.86 102.621 176.102 102.621 176.102 102.035 176.167 101.459 176.205 100.891 176.219 100.33 176.213 99.773 176.191 99.221 176.158 98.672 176.116 98.124 176.071 98.124 176.071 97.164 175.94 96.049 175.528 94.897 174.786 93.825 173.666 92.951 172.12 92.393 170.102 92.268 167.562 92.694 164.452 92.694 164.452 90.721 164.042 88.766 163.594 86.835 163.101 84.934 162.557 83.071 161.955 81.252 161.289 79.483 160.553 77.771 159.738 77.771 159.738 76.319 162.499 74.75 164.467 73.13 165.757 71.526 166.484 70.004 166.764 68.631 166.712 67.472 166.442 66.595 166.071 66.595 166.071 61.245 162.259 56.297 158.004 51.782 153.332 47.729 148.273 44.169 142.853 41.131 137.1 38.647 131.043 36.745 124.71 36.745 124.71 36.539 123.769 36.556 122.614 36.879 121.335 37.593 120.021 38.78 118.764 40.526 117.652 42.912 116.777 46.024 116.228 46.024 116.228 45.947 115.216 45.87 114.203 45.792 113.191 45.715 112.178 45.638 111.165 45.56 110.153 45.483 109.14 45.405 108.128 45.405 108.128 45.454 107.158 45.503 106.189 45.552 105.219 45.601 104.25 45.65 103.28 45.699 102.311 45.748 101.341 45.796 100.372 45.796 100.372 42.766 99.836 40.444 98.94 38.746 97.789 37.586 96.492 36.88 95.156 36.543 93.888 36.489 92.796 36.633 91.987 36.633 91.987 38.479 85.582 40.946 79.446 43.993 73.623 47.579 68.154 51.663 63.085 56.204 58.458 61.16 54.315 66.491 50.701 66.491 50.701 67.263 50.229 68.347 49.89 69.674 49.792 71.176 50.045 72.786 50.756 74.436 52.037 76.057 53.994 77.582 56.737 77.582 56.737 79.3 55.932 81.071 55.18 82.895 54.481 84.77 53.835 86.698 53.242 88.678 52.702 90.711 52.216 92.796 51.782 92.796 51.782 92.292 48.703 92.343 46.192 92.833 44.2 93.646 42.68 94.667 41.583 95.781 40.86 96.871 40.465 97.823 40.347 97.823 40.347 98.409 40.281 98.986 40.239 99.559 40.213 100.129 40.194 100.699 40.176 101.271 40.149 101.849 40.107 102.435 40.041 102.435 40.041 108.68 40.354 114.752 41.189 120.628 42.521 126.286 44.324 131.704 46.574 136.859 49.245 141.729 52.312 146.293 55.749 146.293 55.749 146.956 56.526 147.598 57.568 148.086 58.857 148.285 60.373 148.061 62.097 147.28 64.01 145.807 66.092 143.507 68.324 143.507 68.324 144.936 69.816 146.293 71.328 147.578 72.868 148.793 74.446 149.938 76.071 151.017 77.753 152.029 79.499 152.975 81.321 152.975 81.321 155.791 79.917 158.233 79.21 160.312 79.074 162.041 79.387 163.43 80.024 164.491 80.862 165.234 81.777 165.673 82.645 165.673 82.645 166.77 85.443 167.728 88.286 168.546 91.175 169.226 94.109 169.766 97.088 170.166 100.113 170.428 103.183 170.55 106.299 177.76 107.546 178.212 106.306 179.323 105.093 180.843 104.464 182.077 103.881 183.503 103.206 183.257 100.162 180.43 99.347 178.829 98.97 177.537 97.951 176.893 96.799 176.681 95.496 176.928 94.2 177.83 92.825 179.229 91.959 181.653 90.291 180.922 87.326 178.001 86.975 176.36 86.859 174.922 86.061 174.101 85.027 173.683 83.776 173.718 82.456 174.388 80.954 175.631 79.876 177.755 77.84 176.558 75.031 173.618 75.153 171.98 75.302 170.433 74.744 169.457 73.856 168.843 72.688 168.666 71.38 169.087 69.789 170.14 68.526 171.911 66.176 170.278 63.595 167.396 64.187 165.803 64.597 164.186 64.295 163.08 63.574 162.288 62.519 161.903 61.257 162.063 59.62 162.9 58.203 164.271 55.6 162.246 53.314 159.496 54.361 157.989 55.021 156.345 54.982 155.138 54.449 154.186 53.535 153.604 52.35 153.499 50.708 154.098 49.176 155.034 46.387 152.668 44.455 150.122 45.93 148.74 46.823 147.111 47.048 145.834 46.715 144.748 45.966 143.984 44.89 143.617 43.286 143.962 41.678 144.438 38.774 141.793 37.247 139.516 39.111 138.296 40.214 136.724 40.698 135.41 40.575 134.218 40.009 133.291 39.069 132.672 37.545 132.754 35.903 132.758 32.96 129.902 31.877 127.954 34.082 126.927 35.367 125.453 36.097 124.136 36.185 122.868 35.818 121.803 35.04 120.947 33.635 120.765 32 120.297 29.095 117.305 28.484 115.736 30.973 114.927 32.406 113.59 33.363 112.304 33.661 110.994 33.502 109.817 32.905 108.747 31.655 108.306 30.071 107.378 27.279 104.326 27.156 103.176 29.864 102.608 31.408 101.441 32.567 100.22 33.068 98.902 33.121 97.645 32.72 96.388 31.659 95.698 30.166 94.334 27.558 91.302 27.927 90.602 30.784 90.289 32.399 89.323 33.731 88.198 34.421 86.905 34.685 85.6 34.491 84.189 33.644 83.268 32.281 81.504 29.927 78.57 30.777 78.338 33.71 78.288 35.354 77.548 36.823 76.548 37.685 75.315 38.153 73.995 38.17 72.467 37.561 71.339 36.364 69.22 34.323 66.461 35.632 66.702 38.564 66.916 40.195 66.422 41.764 65.573 42.775 64.43 43.435 63.131 43.664 61.525 43.308 60.22 42.307 57.801 40.632 55.287 42.367 55.995 45.223 56.468 46.798 56.232 48.426 55.557 49.56 54.534 50.395 53.288 50.829 51.646 50.735 50.197 49.956 47.541 48.692 45.338 50.807 46.495 53.513 47.215 54.991 47.243 56.636 46.758 57.864 45.883 58.852 44.723 59.481 43.087 59.651 41.532 59.115 38.707 58.292 36.872 60.734 38.448 63.219 39.396 64.563 39.687 66.182 39.406 67.471 38.7 68.587 37.656 69.394 36.069 69.825 34.448 69.545 31.527 69.186 30.108 71.89 32.062 74.09 33.213 75.265 33.76 76.816 33.69 78.134 33.172 79.348 32.271 80.312 30.773 80.992 29.128 80.976 26.188 81.09 25.221 83.987 27.503 85.845 28.828 86.82 29.616 88.263 29.758 89.576 29.442 90.857 28.707 91.953 27.338 92.865 25.712 93.112 22.828 93.697 22.338 96.712 24.888 98.179 26.352 98.929 27.362 100.227 27.712 101.5 27.606 102.815 27.057 104.015 25.851 105.134 24.286 105.639 21.533 106.679 21.533 109.733 24.286 110.773 25.851 111.278 27.057 112.398 27.606 113.597 27.712 114.913 27.362 116.185 26.352 117.483 24.888 118.233 22.338 119.701 22.828 122.716 25.712 123.3 27.338 123.548 28.707 124.459 29.442 125.555 29.758 126.837 29.616 128.149 28.828 129.592 27.503 130.567 25.221 132.425 26.188 135.322 29.128 135.437 30.773 135.42 32.271 136.1 33.172 137.064 33.69 138.278 33.76 139.596 33.213 141.147 32.062 142.322 30.108 144.522 31.527 147.226 34.448 146.868 36.069 146.588 37.656 147.019 38.7 147.826 39.406 148.941 39.687 150.23 39.396 151.849 38.448 153.194 36.872 155.678 38.707 158.12 41.532 157.298 43.087 156.761 44.723 156.932 45.883 157.561 46.758 158.549 47.243 159.776 47.215 161.421 46.495 162.9 45.338 165.605 47.541 167.721 50.197 166.456 51.646 165.677 53.288 165.583 54.534 166.018 55.557 166.852 56.232 167.986 56.468 169.614 55.995 171.19 55.287 174.045 57.801 175.78 60.22 174.106 61.525 173.104 63.131 172.748 64.43 172.978 65.573 173.637 66.422 174.648 66.916 176.217 66.702 177.848 66.461 180.78 69.22 182.09 71.339 180.049 72.467 178.851 73.995 178.242 75.315 178.26 76.548 178.728 77.548 179.589 78.288 181.058 78.338 182.703 78.57 185.636 81.504 186.485 83.268 184.131 84.189 182.768 85.6 181.922 86.905 181.727 88.198 181.991 89.323 182.682 90.289 184.013 90.602 185.628 91.302 188.486 94.334 188.854 95.698 186.247 96.388 184.754 97.645 183.692 98.902 183.291 100.22 183.344 101.441 183.845 102.608 185.004 103.176 186.548 104.326 189.257 107.378 189.134 108.306 186.341 108.747 184.757 109.817 183.508 110.994 182.91 112.304 182.751 113.59 183.05 114.927 184.007 115.736 185.439 117.305 187.928 120.297 187.317 120.765 184.412 120.947 182.778 121.803 181.373 122.868 180.594 124.136 180.227 125.453 180.316 126.927 181.046 127.954 182.33 129.902 184.535 132.758 183.452 132.754 180.51 132.672 178.867 133.291 177.343 134.218 176.404 135.41 175.838 136.724 175.714 138.296 176.198 139.516 177.301 141.793 179.165 144.438 177.638 143.962 174.735 143.617 173.126 143.984 171.523 144.748 170.447 145.834 169.697 147.111 169.364 148.74 169.59 150.122 170.483 152.668 171.957 155.034 170.026 154.098 167.236 153.499 165.704 153.604 164.062 154.186 162.878 155.138 161.964 156.345 161.43 157.989 161.391 159.496 162.051 162.246 163.098 164.271 160.812 162.9 158.209 162.063 156.793 161.903 155.156 162.288 153.893 163.08 152.838 164.186 152.118 165.803 151.816 167.396 152.225 170.278 152.818 171.911 150.236 170.14 147.887 169.087 146.623 168.666 145.033 168.843 143.725 169.457 142.556 170.433 141.668 171.98 141.111 173.618 141.259 176.558 141.382 177.755 138.572 175.631 136.537 174.388 135.458 173.718 133.956 173.683 132.637 174.101 131.385 174.922 130.351 176.36 129.553 178.001 129.437 180.922 129.087 181.653 126.121 179.229 124.453 177.83 123.588 176.928 122.212 176.681 120.916 176.893 119.613 177.537 118.462 178.829 117.443 180.43 117.065 183.257 116.251 183.503 113.206 180.843 111.948 179.323 111.319 178.212 110.106 177.76 108.866 170.584 110.107"/><g id="_tag_38_"><circle id="center_00" cx="102.587" cy="108.206" r="4.5" fill="none" stroke="#000" stroke-width=".1"/></g><polyline id="_178426088" fill="none" stroke="#000" stroke-width=".1" points="175.375 106.637 173.634 92.228 169.224 78.825 162.427 66.71 153.527 56.166 142.803 47.474 130.539 40.916 117.017 36.775 102.517 35.332 102.517 35.332 87.833 36.813 74.155 41.06 61.776 47.779 50.99 56.679 42.091 67.464 35.371 79.843 31.124 93.521 29.643 108.206 29.643 108.206 31.124 122.891 35.371 136.569 42.091 148.947 50.99 159.733 61.776 168.632 74.155 175.352 87.833 179.599 102.517 181.08 102.517 181.08 117.004 179.639 130.515 175.505 142.771 168.959 153.49 160.282 162.391 149.754 169.193 137.658 173.613 124.274 175.373 109.884"/></g><polygon id="path21395_6" fill="none" stroke="#000" stroke-width=".1" points="206.053 108.74 206.504 109.98 207.616 111.193 209.135 111.822 211.795 113.08 211.62 116.029 208.83 116.964 207.247 117.409 206 118.482 205.405 119.66 205.249 120.97 205.55 122.255 206.51 123.591 207.945 124.396 210.438 125.959 209.915 128.867 207.034 129.465 205.409 129.72 204.044 130.638 203.314 131.737 203.004 133.02 203.151 134.331 203.947 135.771 205.276 136.74 207.566 138.587 206.703 141.413 203.772 141.666 202.128 141.727 200.664 142.477 199.809 143.482 199.349 144.719 199.341 146.039 199.96 147.563 201.166 148.682 203.221 150.787 202.03 153.491 199.089 153.396 197.45 153.262 195.907 153.833 194.94 154.73 194.337 155.904 194.172 157.214 194.607 158.8 195.672 160.054 197.464 162.388 195.961 164.932 193.053 164.489 191.44 164.162 189.841 164.547 188.774 165.323 188.037 166.418 187.718 167.699 187.963 169.326 188.871 170.697 190.375 173.226 188.582 175.574 185.746 174.791 184.184 174.275 182.55 174.468 181.399 175.113 180.537 176.113 180.07 177.347 180.12 178.991 180.86 180.46 182.054 183.149 179.996 185.269 177.272 184.156 175.782 183.459 174.137 183.458 172.918 183.962 171.944 184.853 171.333 186.023 171.189 187.661 171.75 189.208 172.617 192.019 170.323 193.881 167.751 192.453 166.353 191.585 164.72 191.389 163.449 191.745 162.377 192.515 161.633 193.604 161.295 195.214 161.67 196.816 162.198 199.71 159.7 201.288 157.314 199.565 156.029 198.538 154.431 198.151 153.127 198.354 151.971 198.991 151.103 199.985 150.577 201.544 150.76 203.179 150.943 206.115 148.275 207.386 146.11 205.394 144.956 204.222 143.414 203.648 142.095 203.696 140.872 204.192 139.893 205.076 139.186 206.562 139.174 208.207 139.008 211.144 136.209 212.091 134.295 209.856 133.287 208.556 131.825 207.804 130.509 207.696 129.236 208.043 128.159 208.806 127.282 210.197 127.075 211.829 126.563 214.727 123.672 215.335 122.035 212.89 121.188 211.48 119.825 210.56 118.532 210.297 117.226 210.491 116.066 211.121 115.031 212.399 114.633 213.995 113.782 216.812 110.839 217.074 109.503 214.453 108.828 212.952 107.583 211.877 106.33 211.463 105.011 211.502 103.785 211.99 102.606 213.137 102.021 214.674 100.843 217.37 97.89 217.283 96.873 214.522 96.381 212.952 95.272 211.737 94.077 211.178 92.762 211.061 91.487 211.4 90.18 212.399 89.418 213.857 87.929 216.395 85.007 215.959 84.324 213.097 84.021 211.48 83.064 210.143 81.943 209.445 80.652 209.174 79.345 209.36 77.929 210.198 77 211.555 75.222 213.899 72.372 213.12 72.032 210.197 71.922 208.556 71.129 207.115 70.099 206.29 68.849 205.868 67.53 205.898 66.025 206.562 64.942 207.8 62.898 209.917 60.16 208.807 60.169 205.865 60.254 204.222 59.637 202.697 58.712 201.756 57.52 201.189 56.207 201.063 54.634 201.545 53.412 202.646 51.132 204.506 48.545 203.08 48.901 200.159 49.18 198.538 48.748 196.951 47.94 195.907 46.824 195.203 45.535 194.923 43.916 195.215 42.573 196.164 40.089 197.742 37.689 196.019 38.388 193.161 38.857 191.585 38.615 189.957 37.937 188.826 36.912 187.994 35.664 187.563 34.022 187.662 32.576 188.445 29.923 189.718 27.743 187.724 28.776 184.969 29.428 183.459 29.38 181.814 28.84 180.61 27.921 179.663 26.733 179.088 25.091 178.992 23.562 179.599 20.778 180.549 18.849 178.311 20.2 175.697 21.026 174.275 21.174 172.636 20.78 171.377 19.979 170.328 18.868 169.616 17.248 169.326 15.659 169.748 12.781 170.362 11.131 167.912 12.781 165.476 13.77 164.161 14.11 162.552 13.868 161.255 13.197 160.118 12.177 159.28 10.604 158.801 8.975 159.032 6.045 159.301 4.696 156.673 6.623 154.45 7.76 153.261 8.288 151.703 8.202 150.386 7.67 149.178 6.757 148.226 5.251 147.564 3.606 147.6 .665 147.521 -.364 144.752 1.813 142.772 3.082 141.726 3.791 140.242 3.861 138.924 3.475 137.662 2.681 136.607 1.264 135.772 -.373 135.614 -3.284 135.188 -3.978 132.316 -1.583 130.607 -.199 129.719 .681 128.329 .906 127.028 .672 125.729 .009 124.589 -1.3 123.592 -2.907 123.241 -5.747 122.474 -6.097 119.54 -3.516 118.127 -2.036 117.408 -.999 116.132 -.622 114.867 -.7 113.55 -1.224 112.338 -2.405 111.194 -3.959 110.655 -6.689 109.557 -6.689 106.603 -3.959 105.505 -2.405 104.966 -1.224 103.822 -.7 102.61 -.622 101.293 -.999 100.028 -2.036 98.752 -3.516 98.033 -6.097 96.62 -5.747 93.687 -2.907 92.919 -1.3 92.568 .009 91.571 .672 90.431 .906 89.132 .681 87.831 -.199 86.441 -1.583 85.553 -3.978 83.844 -3.284 80.972 -.373 80.546 1.264 80.388 2.681 79.553 3.475 78.499 3.861 77.236 3.791 75.918 3.082 74.434 1.813 73.388 -.364 71.408 .665 68.639 3.606 68.56 5.251 68.597 6.757 67.935 7.67 66.982 8.202 65.774 8.288 64.457 7.76 62.899 6.623 61.711 4.696 59.487 6.045 56.859 8.975 57.128 10.604 57.359 12.177 56.88 13.197 56.042 13.868 54.906 14.11 53.608 13.77 51.999 12.781 50.684 11.131 48.248 12.781 45.798 15.659 46.412 17.248 46.834 18.868 46.544 19.979 45.832 20.78 44.783 21.174 43.524 21.026 41.886 20.2 40.463 18.849 37.849 20.778 35.611 23.562 36.562 25.091 37.168 26.733 37.072 27.921 36.497 28.84 35.55 29.38 34.346 29.428 32.702 28.776 31.191 27.743 28.436 29.923 26.442 32.576 27.715 34.022 28.498 35.664 28.597 36.912 28.166 37.937 27.335 38.615 26.203 38.857 24.576 38.388 22.999 37.689 20.141 40.089 18.419 42.573 19.996 43.916 20.945 45.535 21.238 46.824 20.957 47.94 20.253 48.748 19.209 49.18 17.622 48.901 16.001 48.545 13.08 51.132 11.654 53.412 13.514 54.634 14.616 56.207 15.097 57.52 14.971 58.712 14.404 59.637 13.463 60.254 11.938 60.169 10.295 60.16 7.353 62.898 6.243 64.942 8.36 66.025 9.598 67.53 10.262 68.849 10.293 70.099 9.87 71.129 9.045 71.922 7.604 72.032 5.963 72.372 3.04 75.222 2.261 77 4.605 77.929 5.963 79.345 6.8 80.652 6.987 81.943 6.715 83.064 6.018 84.021 4.68 84.324 3.064 85.007 .202 87.929 -.235 89.418 2.303 90.18 3.761 91.487 4.76 92.762 5.1 94.077 4.982 95.272 4.423 96.381 3.208 96.873 1.638 97.89 -1.123 100.843 -1.21 102.021 1.486 102.606 3.024 103.785 4.17 105.011 4.658 106.33 4.697 107.583 4.283 108.828 3.208 109.503 1.708 110.839 -.914 113.782 -.651 114.633 2.165 115.031 3.761 116.066 5.039 117.226 5.669 118.532 5.864 119.825 5.6 121.188 4.68 122.035 3.27 123.672 .825 126.563 1.434 127.075 4.331 127.282 5.963 128.159 7.355 129.236 8.117 130.509 8.465 131.825 8.356 133.287 7.604 134.295 6.304 136.209 4.069 139.008 5.016 139.174 7.953 139.186 9.598 139.893 11.084 140.872 11.968 142.095 12.464 143.414 12.512 144.956 11.938 146.11 10.766 148.275 8.774 150.943 10.045 150.76 12.981 150.577 14.616 151.103 16.175 151.971 17.169 153.127 17.806 154.431 18.009 156.029 17.622 157.314 16.595 159.7 14.873 162.198 16.45 161.67 19.344 161.295 20.946 161.633 22.556 162.377 23.645 163.449 24.415 164.72 24.771 166.353 24.575 167.751 23.707 170.323 22.28 172.617 24.141 171.75 26.953 171.189 28.499 171.333 30.137 171.944 31.308 172.918 32.198 174.137 32.702 175.782 32.701 177.272 32.005 179.996 30.891 182.054 33.011 180.86 35.7 180.12 37.169 180.07 38.813 180.537 40.047 181.399 41.047 182.55 41.692 184.184 41.885 185.746 41.37 188.582 40.586 190.375 42.934 188.871 45.464 187.963 46.835 187.718 48.461 188.037 49.742 188.774 50.837 189.841 51.613 191.44 51.998 193.053 51.671 195.961 51.228 197.464 53.772 195.672 56.106 194.607 57.36 194.172 58.946 194.337 60.256 194.94 61.43 195.907 62.327 197.45 62.899 199.089 62.765 202.03 62.669 203.221 65.373 201.166 67.478 199.96 68.597 199.341 70.121 199.349 71.441 199.809 72.678 200.664 73.683 202.128 74.433 203.772 74.494 206.703 74.747 207.566 77.573 205.276 79.42 203.947 80.389 203.151 81.829 203.004 83.14 203.314 84.423 204.044 85.522 205.409 86.44 207.034 86.695 209.915 87.293 210.438 90.201 207.945 91.764 206.51 92.569 205.55 93.905 205.249 95.19 205.405 96.5 206 97.678 207.247 98.751 208.83 99.196 211.62 100.131 211.795 103.08 209.135 104.338 207.616 104.967 206.504 106.18 206.053 107.42 194.528 106.682 194.499 105.572 194.452 104.456 194.389 103.335 194.313 102.21 194.227 101.081 194.134 99.95 194.035 98.817 193.934 97.683 193.934 97.683 193.716 96.232 193.25 94.538 192.468 92.666 191.297 90.678 189.668 88.641 187.511 86.616 184.754 84.67 181.329 82.865 181.329 82.865 177.674 81.218 173.963 79.901 170.24 78.958 166.545 78.434 162.921 78.374 159.409 78.824 156.051 79.828 152.89 81.432 152.89 81.432 151.943 79.611 150.931 77.864 149.853 76.183 148.707 74.558 147.492 72.98 146.207 71.44 144.851 69.928 143.422 68.435 143.422 68.435 146.018 65.964 148.064 63.103 149.598 59.909 150.659 56.439 151.284 52.75 151.511 48.899 151.377 44.943 150.92 40.938 150.92 40.938 150.248 37.263 149.24 34.143 147.979 31.535 146.545 29.396 145.018 27.684 143.479 26.355 142.008 25.366 140.688 24.675 140.688 24.675 138.239 23.594 135.772 22.582 133.289 21.643 130.791 20.784 128.283 20.008 125.766 19.322 123.243 18.731 120.717 18.24 120.717 18.24 119.244 17.995 117.463 17.918 115.415 18.084 113.139 18.568 110.675 19.446 108.065 20.794 105.348 22.687 102.565 25.2 102.565 25.2 99.956 28.282 97.611 31.482 95.595 34.775 93.972 38.142 92.808 41.559 92.166 45.004 92.112 48.457 92.711 51.894 92.711 51.894 90.626 52.327 88.593 52.814 86.613 53.354 84.685 53.946 82.809 54.592 80.986 55.292 79.215 56.044 77.496 56.849 77.496 56.849 75.916 53.769 73.791 51.036 71.188 48.642 68.178 46.58 64.828 44.843 61.207 43.422 57.384 42.311 53.427 41.502 53.427 41.502 49.68 41.002 46.351 41.009 43.428 41.428 40.898 42.161 38.753 43.113 36.979 44.188 35.566 45.289 34.503 46.32 34.503 46.32 32.759 48.278 31.093 50.293 29.498 52.359 27.967 54.469 26.493 56.616 25.071 58.794 23.694 60.996 22.354 63.215 22.354 63.215 21.679 64.563 21.076 66.242 20.628 68.24 20.42 70.539 20.538 73.125 21.065 75.983 22.085 79.097 23.683 82.453 23.683 82.453 25.686 85.961 27.936 89.245 30.417 92.238 33.114 94.873 36.008 97.082 39.083 98.798 42.323 99.955 45.711 100.483 45.711 100.483 45.662 101.453 45.613 102.422 45.564 103.392 45.516 104.361 45.467 105.331 45.418 106.3 45.369 107.27 45.32 108.239 45.32 108.239 45.397 109.252 45.475 110.264 45.552 111.277 45.63 112.29 45.707 113.302 45.784 114.315 45.862 115.327 45.939 116.34 45.939 116.34 42.447 116.863 39.146 118.015 36.041 119.727 33.138 121.93 30.443 124.557 27.962 127.538 25.7 130.805 23.664 134.29 23.664 134.29 22.07 137.729 21.07 140.896 20.574 143.776 20.488 146.356 20.72 148.622 21.179 150.56 21.772 152.156 22.407 153.397 22.407 153.397 23.73 155.768 25.119 158.061 26.578 160.28 28.108 162.432 29.712 164.52 31.393 166.552 33.154 168.531 34.996 170.463 34.996 170.463 35.975 171.503 37.328 172.608 39.061 173.685 41.18 174.638 43.69 175.372 46.597 175.793 49.908 175.805 53.629 175.314 53.629 175.314 57.629 174.444 61.48 173.29 65.115 171.842 68.465 170.089 71.465 168.024 74.046 165.635 76.142 162.914 77.686 159.85 77.686 159.85 79.397 160.664 81.166 161.401 82.986 162.067 84.849 162.669 86.749 163.212 88.681 163.705 90.636 164.153 92.609 164.564 92.609 164.564 92.085 167.974 92.205 171.446 92.907 174.94 94.129 178.419 95.811 181.842 97.89 185.172 100.305 188.37 102.993 191.397 102.993 191.397 105.764 193.961 108.446 195.857 111.008 197.174 113.419 198.005 115.649 198.438 117.665 198.566 119.438 198.479 120.937 198.267 120.937 198.267 123.507 197.7 126.062 197.062 128.596 196.356 131.104 195.583 133.581 194.746 136.021 193.849 138.42 192.893 140.772 191.882 140.772 191.882 142.166 191.209 143.68 190.238 145.241 188.923 146.778 187.215 148.216 185.07 149.486 182.439 150.514 179.277 151.229 175.538 151.229 175.538 151.62 171.492 151.703 167.487 151.442 163.585 150.803 159.848 149.752 156.341 148.253 153.126 146.272 150.266 143.774 147.824 143.774 147.824 145.084 146.406 146.373 144.919 147.631 143.368 148.848 141.759 150.012 140.097 151.113 138.387 152.141 136.635 153.084 134.845 153.084 134.845 156.191 136.515 159.521 137.556 163.028 138.024 166.669 137.974 170.396 137.461 174.167 136.54 177.934 135.265 181.654 133.692 181.654 133.692 184.914 131.762 187.547 129.75 189.619 127.705 191.196 125.676 192.346 123.713 193.136 121.865 193.632 120.18 193.901 118.709 193.901 118.709 194.041 117.537 194.153 116.376 194.242 115.222 194.312 114.071 194.367 112.919 194.412 111.76 194.451 110.591 194.489 109.408 206.053 108.74"/><polyline id="_new_3_1" fill="none" stroke="#000" stroke-width=".1" points="203.531 108.206 201.48 87.865 195.597 68.918 186.289 51.772 173.962 36.831 159.022 24.504 141.875 15.196 122.928 9.313 102.587 7.262 102.587 7.262 82.246 9.313 63.299 15.196 46.152 24.504 31.212 36.831 18.885 51.771 9.577 68.918 3.694 87.865 1.643 108.206 1.643 108.206 3.694 128.547 9.577 147.494 18.885 164.641 31.212 179.581 46.152 191.908 63.299 201.216 82.246 207.099 102.587 209.15 102.587 209.15 122.928 207.099 141.875 201.216 159.021 191.908 173.962 179.581 186.289 164.641 195.597 147.494 201.48 128.547 203.531 108.206"/><polygon id="path21395_7" fill="none" stroke="#000" stroke-width=".1" points="13.892 83.622 14.258 82.803 14.739 82.138 15.313 81.663 15.96 81.415 16.657 81.431 17.384 81.748 18.119 82.403 18.841 83.431 26.948 98.217 27.59 99.395 28.111 100.504 28.523 101.594 28.842 102.714 29.081 103.912 29.255 105.238 29.378 106.74 29.463 108.467 29.463 108.467 29.396 110.16 29.296 111.644 29.146 112.961 28.932 114.156 28.64 115.271 28.255 116.349 27.761 117.435 27.145 118.571 18.722 133.356 17.986 134.448 17.248 135.148 16.533 135.495 15.867 135.529 15.278 135.289 14.79 134.815 14.43 134.147 14.224 133.325 14.224 133.325 13.347 130.314 12.611 127.28 12.006 124.221 11.525 121.134 11.16 118.016 10.904 114.864 10.748 111.677 10.685 108.45 10.685 108.45 10.713 105.219 10.84 102.022 11.069 98.86 11.405 95.735 11.852 92.646 12.412 89.597 13.091 86.589 13.892 83.622"/><polygon id="path21395_8" fill="none" stroke="#000" stroke-width=".1" points="98.885 200.139 99.806 200.104 100.603 199.904 101.235 199.541 101.661 199.02 101.841 198.345 101.733 197.519 101.297 196.545 100.491 195.428 89.218 183.318 88.211 182.323 87.254 181.451 86.305 180.687 85.319 180.016 84.254 179.424 83.065 178.896 81.711 178.416 80.147 177.971 80.147 177.971 78.488 177.441 77.015 177.049 75.684 176.785 74.449 176.638 73.266 176.597 72.091 176.65 70.878 176.788 69.583 176.999 53.031 180.37 51.854 180.703 51.01 181.184 50.474 181.77 50.22 182.417 50.224 183.082 50.462 183.721 50.909 184.29 51.539 184.745 51.539 184.745 56.811 188.021 62.295 190.937 67.975 193.48 73.841 195.638 79.877 197.395 86.072 198.74 92.412 199.659 98.885 200.139"/><polygon id="path21395_9" fill="none" stroke="#000" stroke-width=".1" points="159.388 35.936 158.682 35.503 157.94 35.243 157.209 35.18 156.539 35.34 155.978 35.749 155.574 36.432 155.376 37.414 155.434 38.72 157.566 55.601 157.708 56.852 157.911 58.014 158.194 59.124 158.574 60.218 159.07 61.335 159.7 62.51 160.483 63.782 161.435 65.186 161.435 65.186 162.549 66.591 163.57 67.775 164.532 68.771 165.467 69.613 166.408 70.334 167.389 70.967 168.44 71.545 169.596 72.101 184.84 79.178 186.072 79.605 187.08 79.719 187.872 79.565 188.452 79.189 188.829 78.638 189.007 77.958 188.994 77.194 188.795 76.394 188.795 76.394 186.334 70.395 183.51 64.66 180.331 59.191 176.805 53.991 172.94 49.063 168.743 44.409 164.223 40.033 159.388 35.936"/><polygon id="path21395_10" fill="none" stroke="#000" stroke-width=".1" points="188.919 139.927 189.092 139.166 189.089 138.429 188.904 137.762 188.53 137.211 187.96 136.822 187.187 136.641 186.203 136.715 185.004 137.088 169.773 144.292 168.546 144.832 167.461 145.394 166.48 146.009 165.568 146.709 164.687 147.525 163.799 148.489 162.867 149.632 161.856 150.985 161.856 150.985 160.851 152.482 160.034 153.815 159.381 155.027 158.869 156.165 158.472 157.271 158.168 158.391 157.932 159.57 157.74 160.852 155.826 177.48 155.742 178.795 155.903 179.802 156.27 180.517 156.8 180.959 157.454 181.143 158.189 181.086 158.965 180.805 159.742 180.318 159.742 180.318 164.457 176.296 168.917 171.936 173.097 167.26 176.972 162.291 180.517 157.051 183.707 151.563 186.516 145.847 188.919 139.927"/><polygon id="path21395_11" fill="none" stroke="#000" stroke-width=".1" points="51.469 31.818 50.785 32.44 50.281 33.115 49.99 33.81 49.946 34.493 50.182 35.129 50.73 35.688 51.625 36.135 52.899 36.439 69.405 39.813 70.697 39.968 71.907 40.068 73.077 40.102 74.253 40.058 75.476 39.925 76.79 39.691 78.24 39.344 79.869 38.874 79.869 38.874 81.486 38.329 82.895 37.763 84.13 37.163 85.226 36.521 86.217 35.825 87.137 35.065 88.021 34.231 88.903 33.313 100.232 21.022 100.979 19.99 101.377 19.077 101.469 18.288 101.296 17.629 100.901 17.105 100.325 16.722 99.612 16.486 98.802 16.402 98.802 16.402 92.291 16.909 85.926 17.84 79.719 19.186 73.682 20.938 67.826 23.086 62.164 25.621 56.708 28.535 51.469 31.818"/><polygon id="path21395_20_1" fill="none" stroke="#000" stroke-width=".1" points="77.475 56.866 79.193 56.06 80.964 55.308 82.787 54.609 84.663 53.963 86.591 53.37 88.571 52.831 90.604 52.344 92.689 51.911 92.689 51.911 93.698 55.539 94.899 59.286 96.267 63.089 97.772 66.887 99.389 70.617 101.09 74.217 102.847 77.625 104.634 80.779 104.634 80.779 105.57 82.362 106.706 83.705 108.032 84.777 109.535 85.55 111.203 85.991 113.026 86.071 114.991 85.759 117.086 85.025 117.086 85.025 120.344 83.452 123.733 81.663 127.192 79.695 130.659 77.585 134.074 75.369 137.377 73.084 140.506 70.766 143.4 68.452 143.4 68.452 144.829 69.945 146.186 71.456 147.471 72.997 148.685 74.575 149.831 76.2 150.909 77.881 151.921 79.628 152.868 81.449 152.868 81.449 152.525 81.63 152.172 81.839 151.811 82.072 151.443 82.324 151.07 82.592 150.692 82.872 150.312 83.16 149.931 83.452 149.931 83.452 148.542 84.657 147.659 85.965 147.254 87.294 147.296 88.564 147.754 89.695 148.601 90.606 149.805 91.217 151.338 91.446 235.086 94.835 238.776 94.817 242.976 94.713 247.497 94.517 252.154 94.221 256.759 93.82 261.125 93.306 265.064 92.674 268.39 91.916 268.39 91.916 268.87 91.798 269.376 91.694 269.902 91.606 270.445 91.536 270.998 91.488 271.556 91.463 272.114 91.465 272.666 91.495 272.666 91.495 275.962 91.854 279.052 92.84 281.865 94.381 284.327 96.411 286.364 98.859 287.903 101.657 288.871 104.736 289.194 108.026 289.194 108.026 288.835 111.322 287.85 114.412 286.308 117.225 284.279 119.687 281.83 121.724 279.032 123.263 275.954 124.231 272.663 124.555 272.663 124.555 272.116 124.508 271.574 124.459 271.043 124.405 270.528 124.343 270.034 124.27 269.566 124.185 269.13 124.084 268.731 123.965 268.731 123.965 265.285 123.254 261.287 122.676 256.904 122.223 252.301 121.884 247.644 121.649 243.1 121.511 238.835 121.459 235.015 121.483 151.556 124.956 149.929 125.127 148.68 125.695 147.825 126.583 147.377 127.71 147.349 128.999 147.756 130.369 148.61 131.743 149.926 133.041 149.926 133.041 150.277 133.3 150.652 133.564 151.046 133.825 151.451 134.078 151.863 134.314 152.273 134.528 152.675 134.713 153.063 134.862 153.063 134.862 152.119 136.652 151.091 138.404 149.99 140.114 148.826 141.776 147.61 143.385 146.352 144.935 145.062 146.422 143.752 147.841 143.752 147.841 140.736 145.566 137.513 143.277 134.14 141.017 130.673 138.826 127.167 136.745 123.681 134.815 120.27 133.079 116.99 131.577 116.99 131.577 115.264 130.974 113.548 130.638 111.864 130.595 110.234 130.87 108.681 131.488 107.228 132.474 105.895 133.854 104.706 135.652 104.706 135.652 102.944 138.861 101.184 142.312 99.46 145.942 97.805 149.689 96.256 153.489 94.847 157.28 93.612 160.998 92.587 164.58 92.587 164.58 90.614 164.17 88.659 163.722 86.728 163.229 84.827 162.685 82.964 162.084 81.144 161.418 79.375 160.681 77.664 159.867 77.664 159.867 78.851 156.231 79.989 152.43 81.059 148.517 82.042 144.548 82.92 140.579 83.674 136.664 84.285 132.858 84.734 129.218 84.734 129.218 84.819 127.367 84.622 125.623 84.134 124.008 83.347 122.546 82.253 121.262 80.843 120.178 79.111 119.319 77.048 118.708 77.048 118.708 73.491 118.02 69.692 117.438 65.722 116.965 61.658 116.606 57.571 116.362 53.536 116.237 49.627 116.234 45.917 116.356 45.917 116.356 45.84 115.344 45.762 114.331 45.685 113.319 45.608 112.306 45.53 111.294 45.453 110.281 45.376 109.269 45.298 108.256 45.298 108.256 45.347 107.287 45.396 106.317 45.445 105.348 45.494 104.378 45.543 103.409 45.592 102.439 45.64 101.47 45.689 100.5 45.689 100.5 49.541 100.586 53.546 100.544 57.636 100.381 61.744 100.105 65.799 99.723 69.733 99.243 73.478 98.672 76.966 98.017 76.966 98.017 78.728 97.528 80.353 96.795 81.798 95.815 83.02 94.587 83.974 93.11 84.618 91.381 84.908 89.4 84.8 87.164 84.8 87.164 84.316 83.647 83.673 79.9 82.888 75.999 81.98 72.021 80.967 68.042 79.867 64.139 78.696 60.388 77.475 56.866"/><polygon id="path21395_20" fill="none" stroke="#000" stroke-width=".1" points="45.689 100.5 45.689 100.5 45.689 100.5"/><polyline id="path21452_1" fill="none" stroke="#000" stroke-width=".1" points="117.496 123.485 118.139 123.299 118.797 123.148 119.462 123.026 120.128 122.927 120.789 122.843 121.438 122.769 122.069 122.697 122.674 122.621 122.674 122.621 125.431 122.302 128.672 121.919 132.322 121.499 136.305 121.07 140.546 120.659 144.97 120.292 149.502 119.997 154.066 119.801 232.789 118.095 236.213 118.172 239.92 118.425 243.806 118.827 247.764 119.351 251.69 119.969 255.479 120.655 259.025 121.382 262.223 122.122"/><polygon id="path21452" fill="none" stroke="#000" stroke-width=".1" points="117.496 123.485 117.496 123.485 117.496 123.485"/><polyline id="path21458_1" fill="none" stroke="#000" stroke-width=".1" points="117.368 93.011 118.037 93.114 118.698 93.241 119.354 93.384 120.007 93.535 120.66 93.685 121.316 93.828 121.977 93.956 122.646 94.059 122.646 94.059 125.361 94.368 128.567 94.734 132.187 95.127 136.143 95.516 140.358 95.869 144.754 96.157 149.253 96.347 153.777 96.411 232.929 97.855 236.311 97.857 239.979 97.665 243.828 97.306 247.751 96.805 251.643 96.188 255.399 95.481 258.913 94.708 262.079 93.896"/><polygon id="path21458" fill="none" stroke="#000" stroke-width=".1" points="117.368 93.011 117.368 93.011 117.368 93.011"/><polygon id="path17730_1" fill="none" stroke="#000" stroke-width=".1" points="150.893 108.539 151.524 107.665 148.854 107.665 148.854 108.539 150.893 108.539"/><polygon id="path17730_2" fill="none" stroke="#000" stroke-width=".1" points="158.028 108.102 158.076 108.596 158.228 108.963 158.497 109.219 158.896 109.382 159.438 109.471 160.137 109.501 161.006 109.492 162.057 109.461 162.057 110.335 160.828 110.38 159.764 110.389 158.863 110.332 158.125 110.183 157.552 109.913 157.142 109.495 156.897 108.901 156.815 108.102 156.815 108.102 156.897 107.303 157.142 106.709 157.552 106.291 158.125 106.021 158.863 105.872 159.764 105.815 160.828 105.824 162.057 105.869 162.057 106.743 161.006 106.712 160.137 106.703 159.438 106.734 158.896 106.822 158.497 106.985 158.228 107.241 158.076 107.608 158.028 108.102"/><polygon id="path17730_3" fill="none" stroke="#000" stroke-width=".1" points="134.681 110.432 135.365 110.404 135.93 110.317 136.385 110.166 136.738 109.947 136.998 109.655 137.173 109.285 137.271 108.834 137.302 108.296 137.302 105.821 136.137 105.821 136.137 108.393 136.121 108.68 136.067 108.924 135.971 109.125 135.828 109.285 135.632 109.407 135.38 109.492 135.064 109.542 134.681 109.558 134.681 109.558 134.3 109.542 133.99 109.492 133.745 109.407 133.559 109.285 133.425 109.125 133.336 108.924 133.288 108.68 133.274 108.393 133.274 105.821 132.06 105.821 132.06 108.296 132.093 108.834 132.197 109.285 132.377 109.655 132.642 109.947 132.999 110.166 133.452 110.317 134.011 110.404 134.681 110.432"/><polygon id="path17730_4" fill="none" stroke="#000" stroke-width=".1" points="126.138 110.383 126.221 110.383 126.445 110.383 126.773 110.383 127.17 110.383 127.598 110.383 128.022 110.383 128.405 110.383 128.711 110.383 128.711 110.383 129.361 110.361 129.929 110.286 130.412 110.148 130.81 109.934 131.122 109.634 131.346 109.237 131.481 108.73 131.526 108.102 131.526 108.102 131.481 107.488 131.346 106.988 131.122 106.591 130.81 106.288 130.412 106.069 129.929 105.925 129.361 105.845 128.711 105.821 128.711 105.821 128.405 105.821 128.022 105.821 127.598 105.821 127.17 105.821 126.773 105.821 126.445 105.821 126.221 105.821 126.138 105.821 126.138 106.743 126.215 106.743 126.421 106.743 126.724 106.743 127.091 106.743 127.487 106.743 127.879 106.743 128.233 106.743 128.517 106.743 128.517 106.743 128.9 106.754 129.248 106.792 129.554 106.866 129.815 106.986 130.026 107.16 130.182 107.398 130.279 107.709 130.313 108.102 130.313 108.102 130.279 108.495 130.182 108.806 130.026 109.044 129.815 109.219 129.554 109.338 129.248 109.413 128.9 109.451 128.517 109.461 128.517 109.461 128.355 109.461 128.171 109.461 127.977 109.461 127.789 109.461 127.618 109.461 127.479 109.461 127.386 109.461 127.352 109.461 127.352 107.617 126.138 107.617 126.138 110.383"/><polygon id="path17730_5" fill="none" stroke="#000" stroke-width=".1" points="150.359 110.383 151.718 110.383 152.457 109.267 153.026 108.409 153.465 107.775 153.811 107.332 154.106 107.045 154.387 106.882 154.695 106.809 155.067 106.792 155.067 109.461 153.563 109.461 152.98 110.383 156.281 110.383 156.281 105.869 155.232 105.834 154.434 105.872 153.806 106.031 153.265 106.361 152.732 106.912 152.124 107.733 151.36 108.873 150.359 110.383"/><polygon id="path17730_6" fill="none" stroke="#000" stroke-width=".1" points="143.709 110.383 144.448 109.267 145.018 108.409 145.456 107.775 145.803 107.332 146.097 107.045 146.378 106.882 146.686 106.809 147.059 106.792 147.059 109.461 145.602 109.461 144.971 110.383 148.272 110.383 148.272 105.869 147.28 105.833 146.515 105.86 145.908 105.992 145.39 106.27 144.893 106.734 144.347 107.426 143.684 108.386 142.836 109.655 142.059 108.442 142.286 108.36 142.492 108.258 142.674 108.136 142.83 107.993 142.955 107.827 143.049 107.636 143.107 107.421 143.127 107.18 143.127 107.18 143.087 106.843 142.97 106.558 142.781 106.323 142.526 106.136 142.21 105.995 141.837 105.897 141.413 105.839 140.943 105.821 140.943 105.821 140.425 105.821 139.907 105.821 139.408 105.821 138.952 105.821 138.56 105.821 138.253 105.821 138.053 105.821 137.982 105.821 137.982 106.695 138.061 106.695 138.278 106.695 138.604 106.695 139.007 106.695 139.458 106.695 139.927 106.695 140.383 106.695 140.797 106.695 140.797 106.695 141.026 106.697 141.238 106.709 141.427 106.733 141.592 106.773 141.726 106.834 141.828 106.92 141.891 107.034 141.913 107.18 141.913 107.18 141.891 107.326 141.828 107.44 141.726 107.525 141.592 107.586 141.427 107.627 141.238 107.651 141.026 107.662 140.797 107.665 140.797 107.665 140.369 107.665 139.907 107.665 139.437 107.665 138.989 107.665 138.591 107.665 138.271 107.665 138.059 107.665 137.982 107.665 137.933 110.383 139.147 110.383 139.147 108.539 140.7 108.539 141.962 110.383 143.709 110.383"/><polygon id="path17730_7" fill="none" stroke="#000" stroke-width=".1" points="167.882 105.821 167.882 106.743 162.591 106.743 162.591 105.821 167.882 105.821"/><polygon id="path17730" fill="none" stroke="#000" stroke-width=".1" points="162.639 107.617 162.639 108.248 162.67 108.785 162.769 109.237 162.944 109.606 163.204 109.898 163.557 110.117 164.011 110.268 164.576 110.355 165.261 110.383 167.882 110.383 167.882 109.461 165.406 109.461 165.031 109.449 164.705 109.412 164.43 109.346 164.205 109.249 164.03 109.118 163.904 108.949 163.829 108.741 163.804 108.49 167.882 108.49 167.882 107.617 162.639 107.617"/><polyline id="path21355_1" fill="none" stroke="#000" stroke-width=".1" points="78.345 158.972 79.718 155.572 81.072 151.854 82.374 147.95 83.593 143.996 84.695 140.126 85.648 136.473 86.419 133.173 86.976 130.358 86.976 130.358 87.095 128.159 86.829 125.917 86.17 123.717 85.11 121.645 83.643 119.785 81.762 118.225 79.459 117.05 76.727 116.344 76.727 116.344 73.857 116.047 70.476 115.791 66.715 115.591 62.706 115.46 58.58 115.413 54.469 115.463 50.505 115.625 46.82 115.913"/><polygon id="path21355" fill="none" stroke="#000" stroke-width=".1" points="78.345 158.972 78.345 158.972 78.345 158.972"/><polyline id="path21367_1" fill="none" stroke="#000" stroke-width=".1" points="143.309 146.939 140.413 144.548 137.247 142.095 133.921 139.649 130.543 137.279 127.221 135.051 124.066 133.033 121.185 131.294 118.689 129.902"/><polygon id="path21367" fill="none" stroke="#000" stroke-width=".1" points="143.309 146.939 143.309 146.939 143.309 146.939"/><polyline id="path21373_1" fill="none" stroke="#000" stroke-width=".1" points="143.056 69.462 140.248 71.852 137.153 74.293 133.876 76.726 130.522 79.088 127.196 81.319 124.001 83.357 121.042 85.14 118.424 86.609"/><polygon id="path21373" fill="none" stroke="#000" stroke-width=".1" points="143.056 69.462 143.056 69.462 143.056 69.462"/><polyline id="path21450_1" fill="none" stroke="#000" stroke-width=".1" points="92.595 163.456 93.454 159.897 94.517 156.116 95.73 152.229 97.042 148.348 98.401 144.59 99.754 141.067 101.049 137.894 102.235 135.186 102.235 135.186 102.971 134.012 103.813 132.848 104.763 131.703 105.823 130.586 106.992 129.507 108.274 128.475 109.669 127.5 111.177 126.589"/><polygon id="path21450" fill="none" stroke="#000" stroke-width=".1" points="92.595 163.456 92.595 163.456 92.595 163.456"/><polyline id="path21456_1" fill="none" stroke="#000" stroke-width=".1" points="92.345 52.92 93.234 56.569 94.317 60.425 95.547 64.367 96.877 68.272 98.261 72.019 99.653 75.488 101.004 78.555 102.27 81.1 102.27 81.1 103.023 82.447 103.942 83.771 105.014 85.06 106.226 86.299 107.565 87.477 109.018 88.578 110.572 89.591 112.213 90.501"/><polygon id="path21456" fill="none" stroke="#000" stroke-width=".1" points="92.345 52.92 92.345 52.92 92.345 52.92"/><circle id="_tag_39_" cx="102.588" cy="108.206" r="11.078" fill="none" stroke="#000" stroke-width=".1"/><circle id="_tag_40_" cx="102.588" cy="108.206" r="6.404" fill="none" stroke="#000" stroke-width=".1"/><polyline id="_new_6_1" fill="none" stroke="#000" stroke-width=".1" points="102.078 127.933 98.191 127.448 94.577 126.245 91.31 124.401 88.468 121.991 86.126 119.09 84.359 115.776 83.243 112.122 82.854 108.206 82.854 108.206 83.249 104.26 84.382 100.582 86.175 97.248 88.551 94.338 91.432 91.928 94.741 90.095 98.401 88.919 102.332 88.475"/><circle id="_tag_41_" cx="272.739" cy="108.206" r="5" fill="none" stroke="#000" stroke-width=".1"/><circle id="center_00_21" cx="102.605" cy="108.08" r="4.5" fill="none" stroke="#000" stroke-width=".1"/><g id="_178114320"><g id="_tag_42_"><circle id="_173709816" cx="33.931" cy="178.552" r="3.007" fill="none" stroke="#000" stroke-width=".1"/><circle id="_172006040" cx="33.931" cy="178.552" r="1.526" fill="none" stroke="#000" stroke-width=".1"/></g><g id="_tag_43_"><circle id="_132036080" cx="9.569" cy="139.814" r="3.007" fill="none" stroke="#000" stroke-width=".1"/><circle id="_132723800" cx="9.569" cy="139.814" r="1.526" fill="none" stroke="#000" stroke-width=".1"/></g><g id="_tag_44_"><circle id="_133756408" cx="185.571" cy="160.597" r="3.007" fill="none" stroke="#000" stroke-width=".1"/><circle id="_174445448" cx="185.571" cy="160.597" r="1.526" fill="none" stroke="#000" stroke-width=".1"/></g><g id="_tag_45_"><circle id="_131879848" cx="91.138" cy="10.784" r="3.007" fill="none" stroke="#000" stroke-width=".1"/><circle id="_132834368" cx="91.138" cy="10.784" r="1.526" fill="none" stroke="#000" stroke-width=".1"/></g><g id="_tag_46_"><circle id="_174903064" cx="136.978" cy="16.272" r="3.007" fill="none" stroke="#000" stroke-width=".1"/><circle id="_184206656" cx="136.978" cy="16.272" r="1.526" fill="none" stroke="#000" stroke-width=".1"/></g></g><g id="_182407672"><g id="_tag_47_"><circle id="_131652144" cx="155.134" cy="69.877" r="6.079" fill="none" stroke="#000" stroke-width=".1"/><circle id="_180678144" cx="155.134" cy="69.877" r="3.084" fill="none" stroke="#000" stroke-width=".1"/></g><g id="_tag_48_"><circle id="_173567936" cx="37.559" cy="108.08" r="6.079" fill="none" stroke="#000" stroke-width=".1"/><circle id="_182687808" cx="37.559" cy="108.08" r="3.084" fill="none" stroke="#000" stroke-width=".1"/></g><g id="_tag_49_"><circle id="_173840792" cx="82.469" cy="46.267" r="6.079" fill="none" stroke="#000" stroke-width=".1"/><circle id="_200327432" cx="82.469" cy="46.267" r="3.084" fill="none" stroke="#000" stroke-width=".1"/></g><g id="_tag_50_"><circle id="_174397248" cx="82.469" cy="169.892" r="6.079" fill="none" stroke="#000" stroke-width=".1"/><circle id="_184082488" cx="82.469" cy="169.892" r="3.084" fill="none" stroke="#000" stroke-width=".1"/></g><g id="_tag_51_"><circle id="_179220672" cx="155.133" cy="146.282" r="6.079" fill="none" stroke="#000" stroke-width=".1"/><circle id="_176711344" cx="155.133" cy="146.282" r="3.084" fill="none" stroke="#000" stroke-width=".1"/></g></g><polyline id="path21389" fill="none" stroke="#000" stroke-width=".1" points="46.699 100.844 50.417 101.135 54.405 101.294 58.531 101.333 62.663 101.263 66.669 101.098 70.418 100.849 73.777 100.529 76.614 100.15 76.614 100.15 78.786 99.686 80.858 98.792 82.748 97.501 84.374 95.847 85.655 93.864 86.509 91.585 86.853 89.045 86.605 86.276 86.605 86.276 86.081 83.459 85.338 80.162 84.405 76.519 83.311 72.662 82.087 68.725 80.76 64.842 79.361 61.145 77.919 57.768"/><g id="_183484240"><polygon id="path21309_33_1" fill="none" stroke="#000" stroke-width=".1" points="157.677 161.399 157.989 161.392 159.496 162.052 162.245 163.099 164.271 160.813 162.9 158.209 162.063 156.793 161.903 155.156 162.287 153.893 163.08 152.838 164.186 152.118 165.803 151.816 167.396 152.226 170.278 152.818 171.91 150.237 170.14 147.887 169.087 146.623 168.666 145.033 168.703 144.758 167.714 145.253 166.816 145.785 165.982 146.375 165.186 147.046 164.401 147.82 163.603 148.72 162.763 149.768 161.856 150.985 161.856 150.985 160.851 152.482 160.034 153.815 159.381 155.028 158.869 156.165 158.472 157.271 158.168 158.391 157.932 159.57 157.74 160.852 157.677 161.399"/><polygon id="path21309_33" fill="none" stroke="#000" stroke-width=".1" points="175.977 141.358 176.558 141.382 176.717 141.008 175.977 141.358"/><polygon id="path21309_34_1" fill="none" stroke="#000" stroke-width=".1" points="176.718 75.407 176.557 75.031 175.96 75.055 176.718 75.407"/><polygon id="path21309_34" fill="none" stroke="#000" stroke-width=".1" points="168.706 71.679 168.666 71.38 169.086 69.79 170.139 68.526 171.91 66.176 170.278 63.595 167.396 64.187 165.803 64.597 164.186 64.295 163.08 63.575 162.287 62.52 161.903 61.257 162.063 59.62 162.9 58.204 164.27 55.6 162.245 53.314 159.495 54.361 157.989 55.021 157.491 55.009 157.566 55.601 157.708 56.852 157.911 58.014 158.194 59.124 158.574 60.218 159.07 61.335 159.7 62.51 160.482 63.782 161.435 65.186 161.435 65.186 162.447 66.467 163.381 67.565 164.261 68.504 165.112 69.309 165.958 70.005 166.823 70.615 167.731 71.165 168.706 71.679"/><polygon id="path21309_35_1" fill="none" stroke="#000" stroke-width=".1" points="94.191 27.576 91.301 27.927 90.601 30.784 90.433 31.653 94.191 27.576"/><polygon id="path21309_35" fill="none" stroke="#000" stroke-width=".1" points="87.731 34.516 86.904 34.685 85.599 34.491 84.189 33.645 83.268 32.281 81.504 29.927 78.57 30.777 78.337 33.71 78.287 35.354 77.547 36.823 76.548 37.685 75.314 38.153 73.994 38.17 72.466 37.561 71.339 36.364 69.22 34.323 66.46 35.632 66.701 38.564 66.795 39.28 69.405 39.813 70.697 39.968 71.907 40.068 73.077 40.102 74.253 40.058 75.476 39.925 76.79 39.691 78.24 39.344 79.869 38.874 79.869 38.874 81.232 38.421 82.447 37.954 83.533 37.467 84.511 36.954 85.399 36.408 86.219 35.824 86.989 35.195 87.731 34.516"/><polygon id="path21395_36_1" fill="none" stroke="#000" stroke-width=".1" points="94.347 188.828 90.4 184.587 90.601 185.629 91.301 188.486 94.333 188.854 94.347 188.828"/><polygon id="path21395_36" fill="none" stroke="#000" stroke-width=".1" points="87.762 181.903 86.987 181.225 86.209 180.617 85.404 180.07 84.548 179.576 83.619 179.127 82.591 178.715 81.441 178.332 80.147 177.971 80.147 177.971 78.488 177.441 77.015 177.049 75.684 176.785 74.449 176.638 73.266 176.597 72.091 176.65 70.878 176.788 69.583 176.999 66.737 177.579 66.701 177.849 66.46 180.781 69.22 182.09 71.339 180.049 72.466 178.851 73.994 178.242 75.314 178.26 76.548 178.728 77.547 179.59 78.287 181.059 78.337 182.703 78.57 185.636 81.504 186.486 83.268 184.131 84.189 182.768 85.599 181.922 86.905 181.728 87.762 181.903"/><polygon id="path21395_37" fill="none" stroke="#000" stroke-width=".1" points="24.305 93.397 26.948 98.217 27.59 99.395 28.111 100.504 28.523 101.594 28.842 102.714 29.081 103.912 29.255 105.238 29.378 106.74 29.463 108.467 29.463 108.467 29.396 110.16 29.296 111.644 29.146 112.961 28.932 114.156 28.64 115.271 28.255 116.349 27.761 117.435 27.145 118.571 24.581 123.071 22.827 122.716 22.338 119.701 24.888 118.233 26.352 117.483 27.362 116.185 27.712 114.913 27.606 113.597 27.056 112.398 25.851 111.278 24.285 110.773 21.533 109.733 21.533 106.679 24.285 105.639 25.851 105.134 27.056 104.015 27.606 102.815 27.712 101.5 27.362 100.227 26.352 98.929 24.888 98.179 22.338 96.712 22.827 93.697 24.305 93.397"/></g></g></svg>
