<svg xmlns="http://www.w3.org/2000/svg" width="420mm" height="297mm" viewBox="0 0 420 297" xml:space="preserve" style="shape-rendering:geometricPrecision;text-rendering:geometricPrecision;image-rendering:optimizeQuality;fill-rule:evenodd;clip-rule:evenodd"><defs><style type="text/css"><![CDATA[
    .str0 {stroke:black;stroke-width:0.1}
    .fil3 {fill:none}
    .fil0 {fill:#4D4948}
    .fil1 {fill:#605D5C}
    .fil2 {fill:#72706F}
    .fil4 {fill:#838281}
    .fil5 {fill:#AAA9A9}
    .fil7 {fill:#C2C1C1}
    .fil6 {fill:#DEDEDD}
   ]]></style></defs><g id="CRANKIMBUS"><metadata id="CorelCorpID_0Corel-Layer"/><polygon fill="none" stroke="#000" stroke-width=".1" points="157.811 130.916 155.301 132.577 153.854 133.435 152.905 134.825 152.628 136.147 152.676 136.478 144.707 136.478 144.645 136.138 144.58 135.798 144.511 135.459 144.439 135.121 144.363 134.784 144.284 134.446 144.201 134.11 144.115 133.774 144.115 133.774 144.01 133.405 143.889 133.041 143.754 132.683 143.603 132.331 143.437 131.987 143.256 131.649 143.061 131.319 142.852 130.997 140.559 129.381 137.022 134.914 137.073 136.478 115.256 136.478 115.256 116.182 116.692 116.134 123.975 111.568 121.964 110.455 121.655 110.27 121.339 110.097 121.017 109.937 120.689 109.79 120.355 109.656 120.016 109.536 119.672 109.429 119.323 109.337 119.323 109.337 117.255 108.898 115.169 108.59 113.072 108.411 110.971 108.363 108.87 108.445 106.776 108.656 104.696 108.998 102.634 109.469 102.634 109.469 102.265 109.574 101.901 109.695 101.543 109.831 101.192 109.982 100.847 110.148 100.509 110.328 100.179 110.523 99.857 110.732 98.241 113.025 103.775 116.563 106.905 116.459 106.905 136.478 84.734 136.478 80.428 129.61 79.316 131.62 79.13 131.929 78.957 132.245 78.797 132.567 78.65 132.896 78.516 133.229 78.396 133.569 78.29 133.913 78.197 134.261 78.197 134.261 77.758 136.33 77.45 138.415 77.272 140.512 77.223 142.614 77.305 144.715 77.517 146.809 77.858 148.889 78.33 150.95 78.33 150.95 78.435 151.319 78.555 151.683 78.691 152.041 78.842 152.393 79.008 152.738 79.189 153.075 79.383 153.405 79.593 153.727 81.886 155.343 85.423 149.81 85.369 148.169 106.905 148.169 106.905 168.552 105.752 168.59 98.47 173.156 100.48 174.269 100.789 174.455 101.105 174.628 101.427 174.787 101.756 174.934 102.09 175.068 102.429 175.188 102.773 175.295 103.121 175.387 103.121 175.387 105.19 175.826 107.275 176.134 109.372 176.313 111.474 176.361 113.575 176.279 115.669 176.068 117.749 175.726 119.81 175.255 119.81 175.255 120.18 175.15 120.543 175.029 120.901 174.893 121.253 174.742 121.598 174.577 121.936 174.396 122.265 174.201 122.587 173.992 124.204 171.699 118.67 168.161 115.256 168.274 115.256 148.169 137.662 148.169 142.017 155.115 143.129 153.104 143.315 152.795 143.488 152.479 143.648 152.157 143.795 151.829 143.928 151.495 144.048 151.156 144.155 150.812 144.248 150.463 144.248 150.463 144.316 150.178 144.382 149.892 144.446 149.606 144.507 149.319 144.565 149.032 144.622 148.745 144.675 148.457 144.726 148.169 152.803 148.169 152.628 149.386 152.905 150.708 153.854 152.098 155.301 152.957 157.811 154.617 156.839 157.926 153.83 157.966 152.148 157.906 150.598 158.563 149.652 159.525 149.09 160.753 148.984 162.099 149.502 163.7 150.649 164.931 152.59 167.233 150.725 170.134 147.826 169.324 146.23 168.793 144.558 168.986 143.378 169.642 142.493 170.663 142.012 171.924 142.058 173.606 142.812 175.111 144.026 177.865 141.419 180.124 138.866 178.53 137.483 177.571 135.825 177.285 134.508 177.582 133.372 178.312 132.554 179.387 132.125 181.014 132.424 182.67 132.813 185.655 129.676 187.087 127.674 184.839 126.619 183.529 125.108 182.787 123.76 182.702 122.465 183.082 121.378 183.883 120.507 185.323 120.328 186.996 119.86 189.97 116.446 190.46 115.159 187.739 114.515 186.185 113.275 185.048 112.006 184.586 110.656 184.586 109.387 185.048 108.146 186.185 107.502 187.739 106.215 190.461 102.802 189.97 102.334 186.996 102.154 185.323 101.284 183.883 100.197 183.082 98.901 182.702 97.554 182.787 96.043 183.529 94.987 184.839 92.986 187.088 89.849 185.655 90.237 182.67 90.536 181.014 90.107 179.387 89.29 178.312 88.154 177.582 86.837 177.285 85.178 177.571 83.796 178.53 81.242 180.124 78.636 177.866 79.85 175.111 80.603 173.606 80.65 171.924 80.168 170.662 79.284 169.642 78.104 168.986 76.432 168.792 74.835 169.324 71.936 170.133 70.072 167.232 72.013 164.932 73.159 163.7 73.678 162.099 73.571 160.753 73.01 159.525 72.063 158.563 70.514 157.906 68.832 157.967 65.822 157.927 64.85 154.617 67.361 152.956 68.808 152.098 69.757 150.708 70.033 149.386 69.841 148.05 69.204 146.86 67.901 145.793 66.271 145.378 63.394 144.491 63.394 141.042 66.271 140.156 67.902 139.74 69.204 138.673 69.841 137.483 70.033 136.147 69.757 134.826 68.808 133.435 67.361 132.577 64.85 130.916 65.822 127.607 68.832 127.567 70.513 127.627 72.063 126.971 73.01 126.008 73.571 124.78 73.678 123.434 73.159 121.834 72.013 120.602 70.072 118.301 71.936 115.4 74.835 116.209 76.432 116.741 78.104 116.547 79.284 115.891 80.168 114.87 80.65 113.609 80.603 111.927 79.85 110.422 78.636 107.668 81.242 105.409 83.796 107.003 85.178 107.963 86.837 108.249 88.154 107.951 89.289 107.221 90.107 106.147 90.536 104.519 90.237 102.863 89.849 99.879 92.986 98.446 94.987 100.694 96.043 102.004 97.554 102.746 98.901 102.831 100.197 102.451 101.284 101.65 102.154 100.21 102.334 98.537 102.802 95.564 106.216 95.073 107.502 97.794 108.146 99.349 109.387 100.486 110.656 100.947 112.006 100.947 113.275 100.486 114.515 99.349 115.159 97.794 116.446 95.073 119.86 95.564 120.328 98.537 120.508 100.21 121.378 101.651 122.465 102.451 123.76 102.832 125.108 102.746 126.619 102.005 127.674 100.694 129.676 98.446 132.813 99.878 132.424 102.863 132.125 104.519 132.555 106.147 133.372 107.221 134.508 107.951 135.825 108.248 137.483 107.963 138.866 107.003 141.419 105.41 144.026 107.668 142.812 110.423 142.059 111.927 142.012 113.61 142.494 114.871 143.378 115.891 144.557 116.548 146.23 116.741 147.826 116.209 150.725 115.4 152.59 118.301 150.649 120.602 149.502 121.833 148.984 123.435 149.09 124.78 149.651 126.008 150.598 126.97 152.148 127.627 153.83 127.567 156.84 127.607"/><polygon fill="none" stroke="#000" stroke-width=".1" points="183.003 130.988 180.412 132.52 178.923 133.305 178.86 133.389 165.483 133.389 165.192 131.78 164.852 130.179 164.465 128.585 164.029 127.002 163.545 125.429 163.013 123.867 162.433 122.318 161.805 120.783 161.805 120.783 161.578 120.321 161.308 119.887 160.997 119.486 160.647 119.119 160.262 118.789 159.845 118.499 159.398 118.252 158.924 118.051 158.924 118.051 158.433 117.899 157.932 117.799 157.426 117.751 156.919 117.755 156.415 117.809 155.918 117.915 155.432 118.072 154.961 118.279 147.791 120.573 136.188 133.389 116.17 133.389 116.17 118.015 117.463 117.998 131.547 106.633 132.836 100.424 133.715 99.501 134.111 99.031 134.443 98.521 134.709 97.978 134.907 97.41 135.036 96.821 135.092 96.22 135.075 95.612 134.983 95.003 134.983 95.003 134.818 94.41 134.583 93.849 134.284 93.324 133.926 92.84 133.512 92.403 133.047 92.017 132.535 91.689 131.98 91.422 131.98 91.422 126.812 89.612 121.528 88.332 116.17 87.583 110.776 87.364 105.387 87.674 100.042 88.514 94.781 89.882 89.644 91.779 89.644 91.779 89.181 92.006 88.748 92.276 88.346 92.587 87.979 92.937 87.65 93.322 87.36 93.739 87.113 94.186 86.911 94.66 86.911 94.66 86.76 95.152 86.66 95.653 86.612 96.158 86.615 96.665 86.67 97.169 86.776 97.666 86.932 98.152 87.14 98.623 89.433 105.793 103.119 118.183 106.022 118.146 106.022 133.389 84.654 133.389 75.493 122.037 69.285 120.748 68.362 119.869 67.891 119.473 67.381 119.141 66.839 118.875 66.27 118.677 65.682 118.549 65.08 118.492 64.472 118.509 63.864 118.601 63.864 118.601 63.271 118.767 62.71 119.001 62.184 119.3 61.7 119.658 61.263 120.072 60.878 120.537 60.549 121.049 60.282 121.604 60.282 121.604 58.472 126.772 57.193 132.056 56.444 137.414 56.224 142.808 56.535 148.197 57.374 153.542 58.743 158.803 60.64 163.941 60.64 163.941 60.866 164.403 61.136 164.836 61.448 165.238 61.797 165.605 62.182 165.935 62.6 166.224 63.047 166.471 63.52 166.673 63.52 166.673 64.012 166.825 64.513 166.924 65.019 166.972 65.526 166.969 66.03 166.914 66.527 166.808 67.013 166.652 67.484 166.445 74.654 164.151 85.528 152.14 106.022 152.14 106.022 166.712 104.982 166.726 90.898 178.091 89.609 184.299 88.729 185.222 88.333 185.693 88.001 186.203 87.735 186.745 87.537 187.314 87.409 187.902 87.353 188.504 87.369 189.112 87.461 189.721 87.461 189.721 87.627 190.313 87.862 190.875 88.16 191.4 88.519 191.884 88.933 192.321 89.398 192.706 89.91 193.035 90.464 193.302 90.464 193.302 95.633 195.112 100.916 196.391 106.275 197.141 111.669 197.36 117.058 197.05 122.403 196.21 127.664 194.841 132.801 192.944 132.801 192.944 133.263 192.718 133.697 192.448 134.098 192.136 134.465 191.787 134.795 191.402 135.085 190.984 135.332 190.537 135.533 190.064 135.533 190.064 135.685 189.572 135.785 189.071 135.833 188.565 135.829 188.058 135.775 187.555 135.669 187.058 135.512 186.572 135.305 186.1 133.011 178.93 119.326 166.54 116.17 166.581 116.17 152.14 138.441 152.14 146.951 162.686 153.16 163.976 154.083 164.855 154.553 165.251 155.063 165.583 155.606 165.849 156.174 166.047 156.763 166.175 157.364 166.232 157.973 166.215 158.581 166.123 158.581 166.123 159.174 165.957 159.735 165.723 160.26 165.424 160.744 165.065 161.181 164.652 161.567 164.186 161.896 163.674 162.162 163.12 162.162 163.12 162.689 161.777 163.178 160.424 163.631 159.062 164.048 157.692 164.428 156.314 164.772 154.929 165.079 153.537 165.349 152.14 178.856 152.14 178.923 152.228 180.412 153.013 183.003 154.545 182.418 157.674 179.449 158.167 177.777 158.361 176.344 159.243 175.553 160.337 175.183 161.636 175.28 162.982 176.034 164.487 177.353 165.532 179.618 167.514 178.468 170.483 175.459 170.422 173.78 170.305 172.209 170.909 171.231 171.839 170.629 173.047 170.477 174.389 170.941 176.007 172.046 177.276 173.908 179.641 172.232 182.347 169.286 181.734 167.657 181.311 166.001 181.616 164.868 182.35 164.055 183.428 163.659 184.719 163.818 186.394 164.671 187.845 166.067 190.511 163.922 192.864 161.138 191.72 159.615 191.005 157.932 191 156.683 191.514 155.686 192.424 155.059 193.619 154.908 195.295 155.48 196.879 156.362 199.756 153.822 201.674 151.295 200.039 149.929 199.056 148.276 198.742 146.954 199.018 145.806 199.728 144.97 200.789 144.514 202.408 144.785 204.069 145.123 207.06 142.274 208.479 140.091 206.407 138.929 205.189 137.361 204.577 136.011 204.606 134.752 205.093 133.736 205.982 132.99 207.49 132.951 209.173 132.734 212.175 129.672 213.046 127.907 210.608 126.989 209.198 125.56 208.308 124.228 208.088 122.901 208.336 121.739 209.023 120.728 210.368 120.381 212.015 119.616 214.926 116.446 215.22 115.159 212.498 114.515 210.944 113.274 209.807 112.006 209.345 110.656 209.345 109.387 209.807 108.146 210.944 107.502 212.498 106.215 215.22 103.046 214.926 102.281 212.015 101.934 210.368 100.923 209.023 99.76 208.335 98.433 208.088 97.101 208.308 95.673 209.198 94.754 210.608 92.989 213.046 89.927 212.175 89.711 209.173 89.672 207.49 88.925 205.982 87.909 205.093 86.65 204.605 85.3 204.577 83.733 205.19 82.571 206.407 80.388 208.479 77.538 207.06 77.877 204.069 78.148 202.408 77.691 200.788 76.855 199.728 75.708 199.017 74.386 198.742 72.732 199.055 71.367 200.038 68.84 201.675 66.299 199.756 67.182 196.878 67.753 195.295 67.602 193.619 66.976 192.423 65.978 191.514 64.73 191 63.047 191.005 61.523 191.72 58.739 192.864 56.594 190.511 57.991 187.845 58.843 186.394 59.003 184.718 58.606 183.427 57.793 182.35 56.66 181.616 55.005 181.311 53.376 181.734 50.429 182.347 48.753 179.64 50.616 177.276 51.72 176.006 52.185 174.389 52.033 173.047 51.431 171.839 50.452 170.909 48.881 170.305 47.202 170.422 44.193 170.483 43.043 167.514 45.308 165.532 46.628 164.487 47.381 162.982 47.478 161.636 47.109 160.337 46.318 159.243 44.885 158.361 43.213 158.167 40.243 157.674 39.658 154.545 42.249 153.012 43.738 152.228 44.755 150.887 45.099 149.582 44.974 148.237 44.397 147.016 43.15 145.886 41.543 145.388 38.714 144.358 38.715 141.174 41.543 140.144 43.151 139.647 44.397 138.516 44.974 137.295 45.098 135.951 44.756 134.645 43.738 133.304 42.249 132.52 39.659 130.988 40.244 127.858 43.213 127.365 44.884 127.171 46.318 126.289 47.109 125.196 47.479 123.897 47.381 122.55 46.628 121.046 45.308 120.001 43.043 118.019 44.193 115.05 47.203 115.111 48.881 115.228 50.452 114.624 51.431 113.694 52.033 112.485 52.185 111.144 51.721 109.526 50.616 108.257 48.753 105.892 50.429 103.185 53.376 103.798 55.005 104.221 56.66 103.917 57.793 103.182 58.607 102.105 59.003 100.814 58.843 99.139 57.99 97.688 56.595 95.021 58.739 92.668 61.523 93.813 63.047 94.528 64.729 94.532 65.978 94.019 66.976 93.109 67.603 91.913 67.754 90.237 67.182 88.654 66.3 85.777 68.84 83.858 71.367 85.494 72.733 86.477 74.386 86.791 75.708 86.515 76.856 85.805 77.691 84.744 78.148 83.124 77.877 81.463 77.538 78.472 80.388 77.053 82.571 79.126 83.733 80.343 85.301 80.955 86.65 80.927 87.909 80.44 88.926 79.551 89.672 78.042 89.711 76.36 89.928 73.358 92.99 72.486 94.754 74.925 95.673 76.335 97.102 77.225 98.433 77.445 99.761 77.197 100.923 76.51 101.934 75.165 102.281 73.518 103.046 70.607 106.216 70.313 107.503 73.034 108.146 74.589 109.387 75.726 110.656 76.188 112.006 76.188 113.275 75.726 114.516 74.589 115.159 73.034 116.446 70.313 119.616 70.607 120.381 73.518 120.728 75.165 121.739 76.51 122.901 77.197 124.229 77.445 125.56 77.225 126.989 76.335 127.908 74.925 129.672 72.487 132.734 73.358 132.951 76.36 132.99 78.043 133.736 79.551 134.753 80.44 136.011 80.927 137.361 80.955 138.929 80.343 140.091 79.126 142.274 77.054 145.124 78.473 144.785 81.463 144.514 83.124 144.971 84.744 145.806 85.805 146.954 86.516 148.276 86.791 149.929 86.477 151.295 85.494 153.822 83.858 156.362 85.777 155.48 88.654 154.908 90.237 155.059 91.913 155.686 93.109 156.683 94.019 157.932 94.533 159.615 94.528 161.139 93.813 163.923 92.669 166.067 95.021 164.671 97.688 163.818 99.139 163.659 100.814 164.055 102.105 164.869 103.182 166.002 103.917 167.657 104.222 169.286 103.799 172.232 103.186 173.908 105.892 172.046 108.257 170.941 109.526 170.477 111.144 170.629 112.486 171.231 113.694 172.21 114.624 173.78 115.228 175.459 115.111 178.468 115.05 179.618 118.019 177.353 120.001 176.034 121.046 175.28 122.551 175.183 123.897 175.553 125.196 176.344 126.29 177.777 127.172 179.449 127.366 182.418 127.859"/><polygon fill="none" stroke="#000" stroke-width=".1" points="203.838 130.746 201.215 132.224 199.71 132.977 199.357 133.422 187.964 133.422 187.812 132.17 187.64 130.92 187.447 129.672 187.233 128.426 186.999 127.184 186.744 125.944 186.469 124.708 186.173 123.475 186.173 123.475 185.495 121.351 184.558 119.36 183.382 117.52 181.986 115.852 180.388 114.376 178.608 113.111 176.665 112.078 174.577 111.298 174.577 111.298 172.405 110.796 170.215 110.584 168.032 110.655 165.885 111.003 163.8 111.623 161.803 112.507 159.923 113.65 158.185 115.046 150.419 122.169 150.381 122.218 148.594 119.094 146.567 116.137 144.313 113.36 141.844 110.775 139.175 108.398 136.318 106.24 133.287 104.315 130.096 102.637 130.313 102.462 137.199 96.147 138.802 94.462 140.143 92.601 141.212 90.593 142.002 88.47 142.503 86.261 142.705 83.995 142.601 81.704 142.181 79.416 142.181 79.416 141.454 77.207 140.447 75.145 139.184 73.254 137.687 71.554 135.976 70.069 134.076 68.819 132.007 67.828 129.793 67.116 129.793 67.116 125.19 66.125 120.548 65.418 115.881 64.994 111.2 64.855 106.52 64.999 101.853 65.427 97.212 66.139 92.611 67.135 92.611 67.135 90.487 67.813 88.496 68.75 86.656 69.926 84.988 71.322 83.512 72.92 82.247 74.7 81.214 76.644 80.433 78.731 80.433 78.731 79.932 80.903 79.719 83.094 79.791 85.276 80.139 87.423 80.759 89.508 81.643 91.505 82.786 93.385 84.182 95.123 91.304 102.89 91.508 103.046 88.357 104.789 85.37 106.776 82.56 108.991 79.942 111.424 77.527 114.059 75.33 116.884 73.364 119.885 71.641 123.049 71.598 122.995 65.283 116.109 63.598 114.506 61.736 113.166 59.729 112.096 57.606 111.306 55.397 110.806 53.131 110.603 50.84 110.707 48.552 111.127 48.552 111.127 46.343 111.854 44.281 112.861 42.39 114.124 40.69 115.622 39.205 117.332 37.955 119.232 36.964 121.301 36.252 123.516 36.252 123.516 35.261 128.118 34.553 132.76 34.13 137.427 33.99 142.108 34.135 146.788 34.563 151.455 35.275 156.096 36.271 160.698 36.271 160.698 36.949 162.821 37.886 164.813 39.062 166.652 40.458 168.32 42.056 169.797 43.836 171.061 45.779 172.094 47.867 172.875 47.867 172.875 50.039 173.376 52.229 173.589 54.412 173.518 56.559 173.169 58.644 172.55 60.641 171.665 62.521 170.522 64.259 169.126 71.786 162.223 73.528 165.368 75.511 168.349 77.723 171.153 80.151 173.767 82.782 176.178 85.601 178.372 88.596 180.336 91.753 182.057 85.245 188.025 83.642 189.71 82.301 191.572 81.232 193.579 80.442 195.702 79.942 197.911 79.739 200.177 79.843 202.469 80.263 204.756 80.263 204.756 80.99 206.966 81.997 209.027 83.26 210.918 84.758 212.618 86.468 214.104 88.368 215.353 90.437 216.345 92.651 217.056 92.651 217.056 97.254 218.048 101.896 218.755 106.563 219.178 111.244 219.318 115.924 219.173 120.591 218.745 125.232 218.033 129.834 217.037 129.834 217.037 131.957 216.359 133.949 215.422 135.788 214.247 137.456 212.85 138.932 211.252 140.197 209.472 141.23 207.529 142.011 205.441 142.011 205.441 142.512 203.269 142.725 201.079 142.653 198.897 142.305 196.749 141.685 194.664 140.801 192.668 139.658 190.787 138.262 189.049 131.482 181.656 134.603 179.873 137.558 177.849 140.333 175.598 142.916 173.134 145.293 170.469 147.451 167.617 149.376 164.592 151.056 161.406 157.161 168.063 158.846 169.666 160.707 171.007 162.715 172.076 164.838 172.866 167.047 173.367 169.313 173.569 171.604 173.465 173.892 173.046 173.892 173.046 176.101 172.318 178.163 171.312 180.054 170.048 181.754 168.551 183.239 166.84 184.489 164.94 185.481 162.871 186.192 160.657 186.192 160.657 186.522 159.27 186.826 157.879 187.103 156.483 187.355 155.084 187.581 153.681 187.781 152.276 187.955 150.868 188.103 149.458 198.315 149.458 198.665 150.686 199.71 152.005 201.215 152.758 203.837 154.235 203.399 157.284 200.467 157.963 198.81 158.262 197.436 159.232 196.715 160.374 196.428 161.693 196.61 163.031 197.457 164.485 198.839 165.445 201.225 167.281 200.357 170.237 197.357 170.491 195.675 170.551 194.177 171.316 193.301 172.344 192.829 173.609 192.818 174.959 193.45 176.518 194.681 177.665 196.782 179.822 195.502 182.624 192.497 182.449 190.824 182.269 189.231 182.813 188.218 183.705 187.571 184.89 187.368 186.225 187.771 187.859 188.827 189.169 190.599 191.603 188.933 194.194 185.984 193.593 184.354 193.177 182.7 193.489 181.57 194.228 180.761 195.309 180.37 196.601 180.537 198.276 181.396 199.723 182.803 202.384 180.786 204.712 177.951 203.698 176.397 203.053 174.715 203.127 173.492 203.698 172.537 204.652 171.967 205.876 171.893 207.557 172.537 209.112 173.551 211.946 171.224 213.963 168.563 212.555 167.116 211.697 165.441 211.53 164.149 211.921 163.068 212.73 162.329 213.86 162.017 215.514 162.433 217.144 163.034 220.094 160.442 221.759 158.009 219.987 156.699 218.932 155.065 218.528 153.73 218.731 152.545 219.378 151.653 220.392 151.109 221.984 151.289 223.657 151.464 226.662 148.662 227.942 146.505 225.842 145.358 224.61 143.798 223.979 142.448 223.989 141.183 224.461 140.156 225.337 139.391 226.836 139.331 228.517 139.076 231.517 136.121 232.385 134.285 229.999 133.325 228.617 131.871 227.77 130.533 227.588 129.214 227.875 128.072 228.596 127.102 229.971 126.803 231.627 126.124 234.559 123.075 234.998 121.597 232.375 120.844 230.87 119.525 229.825 118.227 229.455 116.88 229.551 115.648 230.102 114.491 231.325 113.96 232.921 112.871 235.728 109.79 235.728 108.701 232.921 108.169 231.325 107.013 230.102 105.781 229.551 104.434 229.455 103.135 229.825 101.817 230.87 101.063 232.375 99.586 234.998 96.537 234.559 95.858 231.627 95.559 229.971 94.589 228.596 93.447 227.875 92.128 227.588 90.79 227.77 89.336 228.617 88.376 229.999 86.54 232.385 83.585 231.517 83.33 228.518 83.27 226.836 82.505 225.337 81.478 224.461 80.213 223.989 78.862 223.978 77.303 224.61 76.156 225.842 73.999 227.942 71.197 226.662 71.373 223.657 71.552 221.984 71.008 220.391 70.116 219.378 68.931 218.731 67.596 218.528 65.962 218.932 64.652 219.987 62.218 221.759 59.627 220.094 60.228 217.144 60.644 215.514 60.332 213.86 59.593 212.73 58.513 211.921 57.22 211.531 55.545 211.697 54.098 212.556 51.437 213.963 49.109 211.946 50.124 209.112 50.768 207.557 50.694 205.876 50.124 204.652 49.169 203.697 47.945 203.127 46.264 203.053 44.709 203.697 41.876 204.712 39.858 202.384 41.266 199.723 42.124 198.276 42.291 196.601 41.9 195.309 41.091 194.228 39.961 193.489 38.308 193.177 36.677 193.593 33.727 194.194 32.062 191.603 33.834 189.169 34.89 187.859 35.293 186.225 35.09 184.89 34.443 183.705 33.43 182.813 31.837 182.269 30.164 182.449 27.159 182.624 25.879 179.822 27.979 177.665 29.211 176.518 29.843 174.959 29.832 173.608 29.36 172.344 28.484 171.316 26.985 170.551 25.304 170.491 22.304 170.236 21.437 167.281 23.822 165.445 25.204 164.485 26.052 163.031 26.233 161.693 25.946 160.374 25.225 159.232 23.851 158.262 22.195 157.963 19.262 157.284 18.823 154.235 21.446 152.757 22.951 152.004 23.996 150.686 24.366 149.387 24.27 148.041 23.719 146.808 22.497 145.651 20.9 145.12 18.094 144.031 18.094 140.951 20.9 139.862 22.497 139.33 23.719 138.173 24.27 136.941 24.366 135.594 23.997 134.296 22.951 132.977 21.446 132.224 18.824 130.746 19.262 127.697 22.195 127.019 23.851 126.72 25.225 125.749 25.946 124.607 26.233 123.288 26.052 121.95 25.204 120.496 23.822 119.536 21.436 117.701 22.304 114.745 25.304 114.491 26.986 114.43 28.484 113.665 29.36 112.638 29.832 111.373 29.843 110.023 29.211 108.463 27.98 107.316 25.879 105.16 27.159 102.358 30.164 102.533 31.837 102.712 33.43 102.168 34.443 101.276 35.09 100.091 35.293 98.756 34.89 97.122 33.834 95.812 32.062 93.379 33.728 90.787 36.677 91.388 38.307 91.804 39.961 91.492 41.091 90.754 41.9 89.673 42.291 88.38 42.124 86.705 41.265 85.259 39.858 82.597 41.875 80.27 44.71 81.284 46.264 81.928 47.946 81.854 49.169 81.284 50.124 80.329 50.694 79.106 50.768 77.424 50.124 75.87 49.11 73.036 51.437 71.019 54.098 72.426 55.545 73.284 57.22 73.451 58.512 73.06 59.593 72.251 60.332 71.121 60.644 69.468 60.228 67.837 59.627 64.888 62.219 63.222 64.652 64.994 65.962 66.05 67.596 66.453 68.931 66.25 70.116 65.603 71.008 64.59 71.552 62.998 71.373 61.324 71.197 58.319 73.999 57.04 76.156 59.14 77.303 60.371 78.863 61.003 80.213 60.992 81.478 60.52 82.505 59.645 83.27 58.145 83.33 56.464 83.585 53.465 86.54 52.597 88.376 54.982 89.336 56.364 90.79 57.212 92.128 57.393 93.447 57.106 94.589 56.385 95.559 55.011 95.858 53.355 96.537 50.422 99.586 49.984 101.064 52.606 101.817 54.111 103.135 55.157 104.434 55.527 105.781 55.43 107.013 54.879 108.17 53.657 108.701 52.06 109.79 49.254 112.87 49.254 113.96 52.06 114.492 53.657 115.648 54.879 116.88 55.43 118.227 55.527 119.525 55.157 120.844 54.111 121.598 52.606 123.075 49.984 126.124 50.422 126.803 53.355 127.102 55.011 128.072 56.386 129.214 57.106 130.533 57.393 131.871 57.212 133.325 56.365 134.285 54.982 136.121 52.597 139.076 53.465 139.331 56.464 139.391 58.146 140.156 59.644 141.183 60.521 142.448 60.992 143.799 61.003 145.358 60.371 146.505 59.14 148.661 57.04 151.464 58.319 151.289 61.324 151.109 62.998 151.653 64.59 152.545 65.603 153.73 66.25 155.065 66.453 156.699 66.05 158.009 64.994 160.443 63.222 163.034 64.888 162.433 67.837 162.017 69.468 162.329 71.121 163.068 72.252 164.149 73.06 165.441 73.451 167.116 73.285 168.563 72.426 171.224 71.018 173.552 73.036 172.537 75.87 171.893 77.424 171.967 79.106 172.537 80.329 173.492 81.284 174.716 81.854 176.397 81.928 177.952 81.284 180.785 80.27 182.803 82.598 181.395 85.258 180.537 86.706 180.37 88.38 180.761 89.672 181.57 90.754 182.7 91.493 184.353 91.804 185.984 91.388 188.934 90.787 190.599 93.379 188.827 95.812 187.771 97.123 187.368 98.756 187.571 100.091 188.218 101.276 189.231 102.168 190.824 102.713 192.497 102.533 195.502 102.358 196.782 105.16 194.682 107.316 193.45 108.463 192.818 110.023 192.829 111.373 193.301 112.638 194.177 113.665 195.676 114.43 197.357 114.491 200.357 114.745 201.224 117.701 198.839 119.536 197.457 120.496 196.609 121.95 196.428 123.288 196.715 124.607 197.436 125.749 198.81 126.72 200.467 127.019 203.399 127.697"/><polygon fill="none" stroke="#000" stroke-width=".1" points="43.642 183.203 46.32 187.31 49.239 191.233 52.388 194.961 55.758 198.485 59.339 201.794 63.12 204.88 67.092 207.731 71.245 210.339 71.245 210.339 71.502 210.466 71.772 210.554 72.048 210.602 72.327 210.612 72.605 210.582 72.877 210.514 73.139 210.407 73.388 210.262 73.388 210.262 73.612 210.082 73.806 209.876 73.968 209.646 74.095 209.397 74.186 209.133 74.24 208.858 74.255 208.575 74.229 208.289 71.852 193.833 71.827 193.703 71.797 193.575 71.762 193.448 71.721 193.323 71.675 193.201 71.624 193.08 71.567 192.963 71.505 192.847 71.505 192.847 71.454 192.759 71.399 192.673 71.342 192.589 71.281 192.507 71.218 192.426 71.152 192.348 71.084 192.272 71.012 192.198 61.19 182.381 60.999 182.205 60.795 182.048 60.58 181.91 60.357 181.791 60.127 181.692 59.892 181.614 59.655 181.557 59.417 181.523 45.544 180.172 45.263 180.165 44.987 180.196 44.721 180.264 44.468 180.368 44.232 180.505 44.015 180.674 43.822 180.873 43.656 181.1 43.656 181.1 43.524 181.348 43.429 181.608 43.371 181.876 43.35 182.149 43.367 182.422 43.421 182.691 43.513 182.953"/><polygon fill="none" stroke="#000" stroke-width=".1" points="152.339 209.667 156.446 206.988 160.369 204.07 164.097 200.92 167.621 197.55 170.93 193.97 174.016 190.188 176.867 186.216 179.475 182.064 179.475 182.064 179.602 181.806 179.69 181.536 179.738 181.26 179.748 180.981 179.718 180.703 179.65 180.431 179.543 180.169 179.398 179.921 179.398 179.921 179.218 179.696 179.012 179.502 178.782 179.34 178.533 179.213 178.269 179.122 177.994 179.068 177.711 179.053 177.424 179.08 162.969 181.457 162.839 181.481 162.711 181.511 162.584 181.546 162.459 181.587 162.337 181.633 162.216 181.685 162.098 181.741 161.983 181.803 161.983 181.803 161.895 181.855 161.809 181.909 161.725 181.966 161.642 182.027 161.562 182.09 161.484 182.156 161.408 182.225 161.334 182.296 151.517 192.118 151.341 192.31 151.184 192.513 151.045 192.728 150.926 192.951 150.827 193.181 150.75 193.416 150.693 193.653 150.659 193.891 149.308 207.764 149.301 208.046 149.332 208.321 149.4 208.587 149.504 208.84 149.641 209.077 149.81 209.293 150.008 209.486 150.236 209.652 150.236 209.652 150.483 209.785 150.744 209.88 151.012 209.938 151.285 209.958 151.558 209.941 151.827 209.887 152.089 209.796"/><polygon fill="none" stroke="#000" stroke-width=".1" points="178.803 100.97 176.124 96.862 173.206 92.939 170.056 89.211 166.686 85.687 163.106 82.378 159.324 79.293 155.352 76.441 151.2 73.833 151.2 73.833 150.942 73.706 150.672 73.618 150.396 73.57 150.117 73.561 149.839 73.59 149.567 73.658 149.304 73.765 149.056 73.911 149.056 73.911 148.832 74.09 148.638 74.297 148.476 74.526 148.349 74.775 148.258 75.039 148.204 75.314 148.189 75.597 148.215 75.884 150.592 90.339 150.617 90.469 150.647 90.598 150.682 90.724 150.723 90.849 150.769 90.972 150.821 91.092 150.877 91.21 150.939 91.325 150.939 91.325 150.991 91.413 151.045 91.499 151.102 91.583 151.163 91.666 151.226 91.746 151.292 91.825 151.36 91.901 151.432 91.975 161.254 101.792 161.445 101.967 161.649 102.124 161.864 102.263 162.087 102.382 162.317 102.481 162.552 102.559 162.789 102.615 163.027 102.649 176.9 104 177.181 104.008 177.457 103.976 177.723 103.908 177.976 103.805 178.212 103.667 178.429 103.499 178.622 103.3 178.788 103.073 178.788 103.073 178.92 102.825 179.015 102.564 179.073 102.296 179.094 102.023 179.077 101.75 179.023 101.481 178.932 101.22"/><polygon fill="none" stroke="#000" stroke-width=".1" points="131.482 181.657 134.603 179.873 137.558 177.85 140.333 175.599 142.916 173.134 145.293 170.47 147.451 167.618 149.376 164.592 151.056 161.406 150.846 161.177 150.644 160.927 150.187 160.387 149.714 159.862 149.227 159.349 148.731 158.846 148.226 158.35 147.716 157.86 147.203 157.373 146.69 156.885 146.69 156.885 146.434 156.641 146.18 156.395 145.926 156.149 145.675 155.9 145.425 155.649 145.179 155.396 144.935 155.139 144.694 154.88 144.694 154.88 144.458 154.616 144.225 154.348 143.997 154.076 143.775 153.799 143.559 153.518 143.349 153.233 143.147 152.944 142.953 152.651 142.953 152.651 142.767 152.353 142.59 152.052 142.421 151.746 142.262 151.436 142.112 151.121 141.971 150.803 141.839 150.479 141.717 150.151 141.717 150.151 141.687 150.066 141.658 149.98 141.63 149.894 141.602 149.807 141.575 149.72 141.548 149.633 141.523 149.546 141.498 149.458 81.262 149.458 81.227 149.624 81.189 149.789 81.149 149.953 81.107 150.117 81.062 150.281 81.015 150.445 80.966 150.607 80.913 150.77 80.913 150.77 80.797 151.105 80.671 151.435 80.536 151.761 80.391 152.082 80.237 152.398 80.074 152.709 79.903 153.015 79.724 153.315 79.724 153.315 79.343 153.902 78.933 154.471 78.498 155.024 78.043 155.564 77.571 156.091 77.085 156.607 76.59 157.116 76.09 157.618 76.09 157.618 75.594 158.11 75.099 158.602 74.606 159.097 74.118 159.596 73.638 160.103 73.168 160.619 72.711 161.147 72.269 161.689 72.269 161.689 72.263 161.697 72.257 161.705 72.251 161.712 72.245 161.72 72.239 161.727 72.233 161.735 72.227 161.742 72.221 161.75 72.025 162.004 71.786 162.224 73.527 165.368 75.511 168.349 77.723 171.154 80.151 173.768 82.781 176.178 85.6 178.372 88.595 180.336 91.753 182.057 92.131 181.71 92.381 181.509 92.921 181.052 93.447 180.578 93.96 180.092 94.463 179.596 94.958 179.091 95.448 178.581 95.936 178.068 96.423 177.555 96.423 177.555 96.668 177.299 96.913 177.044 97.16 176.791 97.409 176.539 97.659 176.29 97.913 176.043 98.169 175.8 98.429 175.559 98.429 175.559 98.693 175.322 98.96 175.09 99.233 174.862 99.509 174.64 99.79 174.423 100.075 174.214 100.364 174.012 100.658 173.817 100.658 173.817 100.955 173.632 101.257 173.454 101.563 173.286 101.873 173.127 102.187 172.976 102.506 172.836 102.829 172.704 103.157 172.582 103.157 172.582 103.49 172.47 103.827 172.368 104.168 172.276 104.512 172.193 104.858 172.118 105.206 172.052 105.556 171.992 105.905 171.939 105.905 171.939 106.254 171.892 106.605 171.851 106.955 171.813 107.306 171.779 107.657 171.748 108.009 171.72 108.361 171.693 108.713 171.667 108.713 171.667 108.889 171.654 109.065 171.641 109.24 171.626 109.416 171.611 109.591 171.594 109.767 171.576 109.942 171.556 110.117 171.534 110.117 171.534 110.222 171.521 110.328 171.508 110.433 171.497 110.539 171.487 110.645 171.477 110.751 171.469 110.857 171.462 110.963 171.455 110.963 171.455 111.033 171.451 111.103 171.448 111.174 171.445 111.244 171.442 111.314 171.44 111.384 171.438 111.455 171.437 111.525 171.436 111.525 171.436 111.701 171.435 111.878 171.437 112.054 171.441 112.23 171.449 112.406 171.458 112.582 171.47 112.758 171.485 112.934 171.503 112.934 171.503 113.11 171.521 113.285 171.537 113.461 171.552 113.637 171.565 113.813 171.576 113.99 171.587 114.166 171.596 114.342 171.606 114.342 171.606 114.695 171.623 115.048 171.643 115.4 171.663 115.752 171.687 116.104 171.713 116.455 171.743 116.805 171.777 117.155 171.816 117.155 171.816 117.503 171.861 117.851 171.912 118.197 171.97 118.542 172.036 118.885 172.111 119.227 172.195 119.567 172.29 119.905 172.395 119.905 172.395 120.24 172.511 120.571 172.637 120.896 172.773 121.217 172.918 121.533 173.072 121.844 173.234 122.15 173.405 122.451 173.584 122.451 173.584 123.037 173.965 123.606 174.375 124.159 174.81 124.699 175.265 125.226 175.738 125.743 176.223 126.251 176.718 126.753 177.219 126.753 177.219 127.245 177.714 127.737 178.21 128.232 178.703 128.731 179.19 129.238 179.67 129.754 180.14 130.282 180.598 130.825 181.04 130.825 181.04 130.832 181.046 130.84 181.052 130.847 181.058 130.855 181.064 130.863 181.07 130.87 181.076 130.878 181.081 130.885 181.087 131.14 181.283"/><polygon fill="none" stroke="#000" stroke-width=".1" points="150.381 122.218 148.594 119.095 146.567 116.137 144.312 113.36 141.844 110.776 139.174 108.398 136.318 106.24 133.287 104.316 130.096 102.637 130.063 102.664 129.522 103.122 128.997 103.595 128.484 104.081 127.981 104.578 127.486 105.082 126.995 105.592 126.508 106.105 126.02 106.618 126.02 106.618 125.776 106.874 125.531 107.129 125.284 107.382 125.035 107.634 124.784 107.883 124.531 108.13 124.274 108.374 124.015 108.614 124.015 108.614 123.751 108.851 123.483 109.083 123.211 109.311 122.934 109.533 122.654 109.75 122.369 109.959 122.079 110.161 121.786 110.356 121.786 110.356 121.489 110.542 121.187 110.719 120.881 110.887 120.571 111.046 120.257 111.197 119.938 111.338 119.614 111.469 119.286 111.591 119.286 111.591 118.954 111.703 118.617 111.805 118.275 111.897 117.932 111.98 117.585 112.055 117.237 112.122 116.888 112.181 116.539 112.234 116.539 112.234 116.189 112.281 115.839 112.323 115.489 112.36 115.138 112.394 114.786 112.425 114.435 112.454 114.083 112.48 113.731 112.506 113.731 112.506 113.555 112.519 113.379 112.533 113.203 112.547 113.028 112.563 112.852 112.579 112.677 112.598 112.502 112.618 112.327 112.639 112.327 112.639 112.221 112.653 112.116 112.665 112.01 112.676 111.905 112.686 111.799 112.696 111.693 112.704 111.587 112.712 111.481 112.718 111.481 112.718 111.411 112.722 111.34 112.725 111.27 112.728 111.2 112.731 111.129 112.733 111.059 112.735 110.989 112.736 110.919 112.737 110.919 112.737 110.742 112.738 110.566 112.736 110.39 112.732 110.214 112.725 110.037 112.715 109.861 112.703 109.686 112.688 109.51 112.67 109.51 112.67 109.334 112.652 109.158 112.636 108.982 112.622 108.806 112.609 108.63 112.597 108.454 112.586 108.277 112.577 108.101 112.568 108.101 112.568 107.748 112.55 107.396 112.531 107.043 112.51 106.691 112.487 106.34 112.46 105.989 112.43 105.638 112.396 105.289 112.357 105.289 112.357 104.941 112.312 104.593 112.261 104.247 112.203 103.902 112.137 103.559 112.062 103.217 111.978 102.877 111.884 102.539 111.778 102.539 111.778 102.203 111.662 101.873 111.536 101.547 111.4 101.226 111.256 100.91 111.102 100.599 110.939 100.293 110.768 99.993 110.589 99.993 110.589 99.406 110.208 98.837 109.798 98.284 109.363 97.745 108.908 97.218 108.435 96.701 107.95 96.192 107.455 95.69 106.955 95.69 106.955 95.198 106.459 94.706 105.963 94.212 105.47 93.712 104.983 93.206 104.503 92.689 104.033 92.161 103.576 91.619 103.133 91.619 103.133 91.611 103.127 91.604 103.122 91.596 103.116 91.589 103.11 91.581 103.104 91.574 103.098 91.566 103.092 91.558 103.086 91.507 103.046 88.356 104.79 85.37 106.776 82.56 108.992 79.941 111.424 77.527 114.059 75.33 116.884 73.363 119.885 71.641 123.049 71.799 123.246 72.257 123.786 72.73 124.312 73.216 124.825 73.713 125.328 74.218 125.823 74.728 126.313 75.24 126.801 75.754 127.288 75.754 127.288 76.009 127.532 76.264 127.778 76.517 128.025 76.769 128.273 77.018 128.524 77.265 128.778 77.509 129.034 77.749 129.294 77.749 129.294 77.986 129.557 78.219 129.825 78.446 130.098 78.669 130.374 78.885 130.655 79.095 130.94 79.297 131.229 79.491 131.522 79.491 131.522 79.635 131.751 79.774 131.982 79.907 132.216 80.036 132.452 80.159 132.691 80.276 132.932 80.389 133.176 80.495 133.423 141.524 133.423 141.53 133.403 141.646 133.068 141.772 132.738 141.908 132.412 142.053 132.091 142.207 131.775 142.369 131.464 142.54 131.158 142.719 130.858 142.719 130.858 143.101 130.271 143.511 129.702 143.945 129.149 144.401 128.61 144.873 128.083 145.358 127.566 145.853 127.057 146.354 126.555 146.354 126.555 146.85 126.063 147.345 125.571 147.838 125.077 148.326 124.577 148.806 124.07 149.276 123.554 149.733 123.026 150.175 122.484 150.175 122.484 150.181 122.476 150.187 122.469 150.193 122.461 150.199 122.453 150.205 122.446 150.211 122.438 150.217 122.431 150.223 122.423"/><polygon fill="none" stroke="#000" stroke-width=".1" points="99.954 165.742 101.412 166.012 102.866 166.268 104.317 166.51 105.764 166.739 107.208 166.955 108.649 167.158 110.086 167.35 111.52 167.529 111.52 167.529 112.951 167.697 114.38 167.854 115.807 168 117.232 168.135 118.655 168.26 120.078 168.375 121.5 168.481 122.923 168.577 122.923 168.577 124.346 168.665 125.769 168.743 127.195 168.813 128.621 168.874 130.05 168.928 131.48 168.973 132.912 169.01 134.347 169.04 134.347 169.04 135.784 169.063 137.222 169.078 138.661 169.087 140.102 169.089 141.544 169.084 142.986 169.073 144.43 169.056 145.875 169.033 145.875 169.033 148.766 168.971 151.661 168.888 154.559 168.787 157.459 168.669 160.362 168.536 163.266 168.39 166.173 168.233 169.081 168.066 169.081 168.066 171.99 167.893 174.902 167.715 177.815 167.533 180.73 167.347 183.648 167.159 186.567 166.968 189.489 166.776 192.414 166.583 192.414 166.583 195.34 166.39 198.268 166.197 201.197 166.005 204.128 165.813 207.059 165.622 209.992 165.433 212.925 165.246 215.859 165.062 215.859 165.062 215.951 165.056 216.043 165.05 216.134 165.045 216.226 165.039 216.318 165.033 216.41 165.028 216.501 165.022 216.593 165.016 216.593 165.016 219.437 164.842 222.281 164.67 225.127 164.503 227.974 164.34 230.822 164.181 233.67 164.028 236.52 163.88 239.37 163.737 239.37 163.737 245.258 163.464 251.149 163.222 257.043 163.014 262.94 162.844 268.838 162.715 274.737 162.631 280.637 162.596 286.537 162.613 286.537 162.613 286.564 162.614 286.591 162.613 286.617 162.612 286.644 162.609 286.671 162.606 286.697 162.602 286.724 162.597 286.75 162.592 286.753 162.591 288.721 162.127 290.665 161.58 292.582 160.952 294.47 160.243 296.326 159.453 298.148 158.585 299.934 157.639 301.681 156.616 301.681 156.616 303.514 153.287 304.822 149.785 305.608 146.167 305.87 142.491 305.608 138.815 304.822 135.197 303.514 131.695 301.681 128.367 301.681 128.367 299.934 127.343 298.147 126.397 296.321 125.528 294.456 124.738 292.555 124.028 290.619 123.397 288.649 122.848 286.645 122.38 286.645 122.38 280.709 122.394 274.783 122.356 268.864 122.27 262.954 122.14 257.049 121.969 251.151 121.76 245.259 121.518 239.371 121.245 239.371 121.245 236.428 121.098 233.487 120.945 230.546 120.786 227.607 120.622 224.668 120.453 221.731 120.279 218.795 120.101 215.86 119.92 215.86 119.92 212.925 119.736 209.992 119.549 207.059 119.36 204.128 119.17 201.198 118.978 198.268 118.785 195.341 118.592 192.414 118.399 192.414 118.399 189.489 118.206 186.567 118.014 183.648 117.823 180.73 117.635 177.815 117.449 174.902 117.267 171.991 117.089 169.081 116.916 169.081 116.916 166.173 116.749 163.266 116.592 160.362 116.446 157.459 116.313 154.559 116.195 151.661 116.093 148.766 116.011 145.875 115.949 145.875 115.949 144.43 115.926 142.986 115.909 141.544 115.898 140.102 115.893 138.661 115.895 137.222 115.903 135.784 115.919 134.347 115.941 134.347 115.941 132.913 115.971 131.48 116.009 130.05 116.054 128.622 116.107 127.195 116.169 125.769 116.239 124.346 116.317 122.923 116.404 122.923 116.404 121.5 116.501 120.078 116.606 118.655 116.721 117.232 116.846 115.807 116.982 114.38 117.128 112.951 117.284 111.52 117.452 111.52 117.452 110.086 117.632 108.649 117.823 107.208 118.027 105.764 118.243 104.317 118.472 102.866 118.714 101.412 118.97 99.954 119.239 99.954 119.239 99.773 119.274 99.592 119.309 99.41 119.344 99.229 119.379 99.048 119.414 98.867 119.45 98.686 119.485 98.505 119.521 98.505 119.521 98.464 119.53 98.424 119.539 98.383 119.549 98.343 119.56 98.304 119.572 98.264 119.585 98.225 119.599 98.186 119.613 98.186 119.613 96.029 120.464 93.896 121.369 91.788 122.329 89.706 123.343 87.65 124.409 85.622 125.528 83.623 126.7 81.654 127.923 81.654 127.923 81.165 128.238 80.677 128.556 80.192 128.877 79.71 129.201 79.229 129.528 78.75 129.858 78.273 130.192 77.799 130.529 77.799 130.529 77.792 130.578 77.785 130.627 77.779 130.676 77.772 130.725 77.765 130.774 77.758 130.822 77.752 130.872 77.745 130.921 77.745 130.921 77.405 133.804 77.163 136.696 77.017 139.592 76.969 142.491 77.017 145.389 77.163 148.286 77.405 151.177 77.745 154.061 77.745 154.061 77.749 154.089 77.753 154.115 77.756 154.14 77.759 154.164 77.762 154.187 77.765 154.209 77.768 154.229 77.771 154.249 77.771 154.249 77.773 154.267 77.776 154.285 77.778 154.301 77.78 154.317 77.782 154.331 77.784 154.345 77.786 154.357 77.787 154.369 77.787 154.369 77.79 154.39 77.793 154.407 77.795 154.422 77.796 154.433 77.797 154.442 77.798 154.448 77.799 154.451 77.799 154.452 77.799 154.452 78.273 154.789 78.75 155.123 79.229 155.453 79.709 155.78 80.192 156.105 80.677 156.426 81.165 156.744 81.654 157.059 81.654 157.059 83.623 158.282 85.622 159.453 87.65 160.572 89.706 161.639 91.788 162.652 93.896 163.612 96.029 164.518 98.186 165.368 98.186 165.368 98.225 165.383 98.264 165.396 98.303 165.409 98.343 165.421 98.383 165.432 98.424 165.442 98.464 165.452 98.505 165.46 98.505 165.46 98.505 165.46 98.507 165.461 98.51 165.461 98.513 165.462 98.517 165.463 98.522 165.464 98.528 165.465 98.535 165.466 98.535 165.466 98.542 165.468 98.55 165.469 98.558 165.471 98.567 165.472 98.576 165.474 98.585 165.476 98.595 165.478 98.604 165.48 98.604 165.48 98.625 165.484 98.645 165.488 98.667 165.492 98.689 165.497 98.711 165.501 98.734 165.506 98.757 165.51 98.78 165.515 98.78 165.515 98.826 165.524 98.873 165.533 98.921 165.542 98.969 165.552 99.017 165.561 99.066 165.571 99.115 165.58 99.163 165.59 99.163 165.59 99.261 165.609 99.359 165.628 99.458 165.647 99.557 165.666 99.656 165.685 99.755 165.704 99.855 165.723"/><polygon fill="none" stroke="#000" stroke-width=".1" points="70.106 74.506 65.998 77.184 62.075 80.103 58.347 83.252 54.823 86.622 51.514 90.203 48.428 93.984 45.577 97.956 42.969 102.109 42.969 102.109 42.842 102.367 42.754 102.636 42.706 102.912 42.696 103.191 42.726 103.469 42.794 103.741 42.901 104.004 43.047 104.252 43.047 104.252 43.226 104.477 43.432 104.671 43.662 104.832 43.911 104.959 44.175 105.05 44.45 105.104 44.733 105.119 45.019 105.093 59.475 102.716 59.605 102.691 59.733 102.662 59.86 102.626 59.985 102.585 60.107 102.539 60.228 102.488 60.346 102.431 60.461 102.369 60.461 102.369 60.549 102.318 60.635 102.263 60.719 102.206 60.802 102.146 60.882 102.083 60.96 102.017 61.037 101.948 61.111 101.876 70.927 92.054 71.103 91.863 71.26 91.659 71.399 91.444 71.518 91.221 71.617 90.991 71.694 90.757 71.751 90.519 71.785 90.281 73.136 76.408 73.144 76.127 73.112 75.852 73.044 75.586 72.94 75.332 72.803 75.096 72.635 74.879 72.436 74.686 72.208 74.52 72.208 74.52 71.96 74.388 71.7 74.293 71.432 74.235 71.159 74.214 70.886 74.231 70.617 74.285 70.355 74.377"/><circle cx="148.093" cy="105.748" r="6" fill="none" stroke="#000" stroke-width=".1"/><ellipse cx="148.093" cy="105.748" fill="none" stroke="#000" stroke-width=".1" rx="5.757" ry="5.757"/><circle cx="148.093" cy="105.748" r="5" fill="none" stroke="#000" stroke-width=".1"/><polygon fill="none" stroke="#000" stroke-width=".1" points="150.515 103.979 150.836 106.961 148.414 108.731 145.67 107.519 145.348 104.536 147.771 102.766"/><circle cx="74.478" cy="105.619" r="6" fill="none" stroke="#000" stroke-width=".1"/><circle cx="74.479" cy="105.619" r="5.757" fill="none" stroke="#000" stroke-width=".1"/><circle cx="74.479" cy="105.619" r="5" fill="none" stroke="#000" stroke-width=".1"/><polygon fill="none" stroke="#000" stroke-width=".1" points="72.709 103.197 75.691 102.875 77.462 105.297 76.249 108.041 73.266 108.363 71.496 105.941"/><circle cx="147.963" cy="179.363" r="6" fill="none" stroke="#000" stroke-width=".1"/><circle cx="147.963" cy="179.363" r="5.757" fill="none" stroke="#000" stroke-width=".1"/><circle cx="74.349" cy="179.233" r="6" fill="none" stroke="#000" stroke-width=".1"/><ellipse cx="74.349" cy="179.233" fill="none" stroke="#000" stroke-width=".1" rx="5.757" ry="5.757"/><polygon fill="none" stroke="#000" stroke-width=".1" points="295.193 151.091 296.753 149.194 297.869 147.088 298.541 144.843 298.77 142.528 298.555 140.212 297.896 137.963 296.793 135.85 295.245 133.944 295.245 133.944 293.348 132.384 291.242 131.268 288.997 130.595 286.682 130.367 284.366 130.582 282.117 131.241 280.004 132.344 278.098 133.892 278.098 133.892 276.538 135.789 275.422 137.895 274.749 140.14 274.52 142.455 274.736 144.771 275.395 147.02 276.498 149.132 278.046 151.039 278.046 151.039 279.943 152.599 282.049 153.715 284.294 154.387 286.609 154.616 288.925 154.402 291.174 153.742 293.286 152.639 295.193 151.091"/><polygon fill="none" stroke="#000" stroke-width=".1" points="291.316 147.19 292.168 146.153 292.778 145.003 293.146 143.776 293.271 142.511 293.153 141.245 292.793 140.017 292.19 138.863 291.345 137.821 291.345 137.821 290.308 136.969 289.157 136.359 287.931 135.991 286.666 135.866 285.4 135.984 284.171 136.344 283.017 136.947 281.975 137.793 281.975 137.793 281.123 138.829 280.514 139.98 280.146 141.206 280.021 142.471 280.138 143.737 280.499 144.966 281.101 146.12 281.947 147.162 281.947 147.162 282.984 148.014 284.134 148.624 285.361 148.991 286.626 149.116 287.892 148.999 289.12 148.639 290.274 148.036"/><circle cx="74.479" cy="105.619" r="2.499" fill="none" stroke="#000" stroke-width=".1"/><circle cx="148.092" cy="105.749" r="2.499" fill="none" stroke="#000" stroke-width=".1"/><circle cx="147.963" cy="179.363" r="5" fill="none" stroke="#000" stroke-width=".1"/><polygon fill="none" stroke="#000" stroke-width=".1" points="149.733 181.785 146.75 182.106 144.98 179.684 146.193 176.94 149.175 176.619 150.945 179.041"/><circle cx="147.963" cy="179.363" r="2.499" fill="none" stroke="#000" stroke-width=".1"/><circle cx="74.349" cy="179.233" r="5" fill="none" stroke="#000" stroke-width=".1"/><polygon fill="none" stroke="#000" stroke-width=".1" points="71.927 181.003 71.605 178.02 74.027 176.25 76.771 177.463 77.093 180.446 74.671 182.215"/><circle cx="74.349" cy="179.233" r="2.499" fill="none" stroke="#000" stroke-width=".1"/><circle cx="111.221" cy="142.491" r="14" fill="none" stroke="#000" stroke-width=".1"/><circle cx="111.221" cy="142.491" r="13.25" fill="none" stroke="#000" stroke-width=".1"/><circle cx="111.221" cy="142.491" r="11.8" fill="none" stroke="#000" stroke-width=".1"/><circle cx="111.221" cy="142.491" r="9.5" fill="none" stroke="#000" stroke-width=".1"/><polyline fill="none" stroke="#000" stroke-width=".1" points="77.744 130.925 77.746 131.102 77.763 131.276 77.796 131.448 77.844 131.616 77.906 131.779 77.983 131.937 78.073 132.087 78.177 132.23"/><polygon fill="none" stroke="#000" stroke-width=".1" points="77.744 130.925"/><polyline fill="none" stroke="#000" stroke-width=".1" points="78.179 152.76 78.076 152.903 77.985 153.053 77.909 153.211 77.847 153.374 77.799 153.542 77.766 153.714 77.749 153.888 77.747 154.065"/><polygon fill="none" stroke="#000" stroke-width=".1" points="78.179 152.76"/><polyline fill="none" stroke="#000" stroke-width=".1" points="82.974 153.747 82.703 153.831 82.434 153.919 82.166 154.012 81.899 154.108 81.634 154.209 81.37 154.313 81.108 154.422 80.847 154.534 80.847 154.534 80.51 154.318 80.174 154.1 79.839 153.881 79.505 153.66 79.172 153.437 78.84 153.213 78.509 152.987 78.179 152.76 78.179 152.76 77.902 150.2 77.704 147.635 77.585 145.066 77.545 142.495 77.585 139.924 77.703 137.355 77.9 134.79 78.177 132.23 78.177 132.23 78.507 132.002 78.838 131.777 79.17 131.553 79.503 131.33 79.837 131.109 80.171 130.889 80.507 130.671 80.844 130.455 80.844 130.455 81.105 130.567 81.367 130.676 81.631 130.78 81.896 130.881 82.163 130.977 82.431 131.069 82.701 131.157 82.972 131.241"/><polygon fill="none" stroke="#000" stroke-width=".1" points="82.974 153.747"/><polyline fill="none" stroke="#000" stroke-width=".1" points="300.347 128.331 300.126 128.279 299.904 128.228 299.682 128.18 299.46 128.133 299.237 128.089 299.014 128.046 298.791 128.005 298.791 128.005 296.486 128.067 294.182 128.11 291.876 128.137 289.571 128.148 287.266 128.143 284.96 128.126 282.655 128.095 280.351 128.053 280.351 128.053 278.046 128.001 275.742 127.939 273.438 127.869 271.134 127.792 268.83 127.708 266.526 127.62 264.223 127.527 261.919 127.432 261.919 127.432 259.616 127.335 257.313 127.237 255.01 127.139 252.706 127.042 250.403 126.947 248.099 126.855 245.796 126.767 243.492 126.683 243.492 126.683 241.188 126.604 238.884 126.531 236.58 126.465 234.275 126.405 231.97 126.352 229.665 126.305 227.36 126.266 225.054 126.235 225.054 126.235 222.851 126.197 220.651 126.135 218.454 126.053 216.26 125.952 214.068 125.834 211.879 125.703 209.692 125.56 207.506 125.409 207.506 125.409 205.323 125.25 203.141 125.083 200.96 124.91 198.781 124.732 196.603 124.55 194.427 124.365 192.251 124.178 190.076 123.989 190.076 123.989 187.902 123.801 185.728 123.613 183.556 123.428 181.384 123.245 179.212 123.066 177.04 122.892 174.869 122.724 172.698 122.563 172.698 122.563 170.527 122.409 168.356 122.264 166.184 122.13 164.012 122.007 161.839 121.898 159.664 121.804 157.489 121.725 155.312 121.665 155.312 121.665 153.133 121.624 150.952 121.604 148.77 121.606 146.587 121.628 144.404 121.671 142.221 121.735 140.039 121.821 137.858 121.928 137.858 121.928 135.679 122.056 133.5 122.202 131.322 122.367 129.145 122.547 126.969 122.742 124.793 122.95 122.617 123.169 120.441 123.399 120.441 123.399 116.09 123.887 111.741 124.418 107.395 124.997 103.054 125.627 98.72 126.313 94.394 127.058 90.079 127.868 85.775 128.746 84.862 129.148 84.567 129.35 84.287 129.571 84.023 129.81 83.776 130.065 83.547 130.337 83.336 130.623 83.144 130.924 82.973 131.238 82.973 153.743 83.144 154.057 83.336 154.358 83.547 154.645 83.776 154.916 84.023 155.172 84.287 155.41 84.567 155.631 84.862 155.834 85.775 156.236 90.079 157.113 94.394 157.923 98.72 158.668 103.054 159.354 107.395 159.984 111.741 160.563 116.09 161.094 120.441 161.583 120.441 161.583 122.617 161.812 124.793 162.032 126.969 162.24 129.145 162.435 131.322 162.615 133.5 162.779 135.678 162.926 137.858 163.054 137.858 163.054 140.039 163.161 142.221 163.246 144.404 163.311 146.587 163.354 148.77 163.376 150.952 163.377 153.133 163.357 155.312 163.317 155.312 163.317 157.489 163.256 159.664 163.178 161.838 163.084 164.012 162.974 166.184 162.852 168.356 162.717 170.527 162.573 172.698 162.419 172.698 162.419 174.869 162.258 177.04 162.09 179.212 161.916 181.383 161.737 183.555 161.554 185.728 161.369 187.902 161.181 190.076 160.993 190.076 160.993 192.251 160.804 194.427 160.617 196.603 160.432 198.781 160.25 200.96 160.072 203.141 159.899 205.322 159.732 207.506 159.573 207.506 159.573 209.691 159.422 211.879 159.279 214.068 159.148 216.26 159.031 218.454 158.929 220.651 158.847 222.851 158.785 225.054 158.747 225.054 158.747 227.36 158.716 229.665 158.677 231.97 158.631 234.275 158.577 236.58 158.517 238.884 158.451 241.189 158.378 243.493 158.299 243.493 158.299 245.797 158.215 248.1 158.127 250.404 158.035 252.708 157.94 255.011 157.843 257.315 157.745 259.618 157.648 261.922 157.55 261.922 157.55 266.529 157.363 271.137 157.191 275.744 157.043 280.353 156.929 284.961 156.857 289.57 156.835 294.18 156.872 298.791 156.977 298.791 156.977 299.014 156.936 299.237 156.894 299.46 156.849 299.682 156.803 299.904 156.754 300.126 156.704 300.347 156.652 300.567 156.598"/><ellipse id="center_00" cx="111.221" cy="142.491" fill="none" stroke="#000" stroke-width=".1" rx="4.64" ry="4.567"/></g></svg>