<svg width="210mm" height="297mm" viewBox="0 0 210 297"><defs id="_tag_3_"><style type="text/css"/></defs><g id="Ebene_x0020_1"><g id="_212003352"><polygon id="path3974_0" fill="none" stroke="#000" stroke-width=".1" points="196.344 136.528 186.962 136.528 186.962 135.988 187.64 135.417 188.035 134.643 188.201 133.816 188.3 131.119 188.08 129.874 187.799 128.85 186.882 126.725 185.776 125.184 184.562 124.136 183.324 123.49 182.143 123.154 181.102 123.039 179.769 123.106 178.998 123.234 178.117 123.462 177.267 123.679 176.59 123.775 175.889 123.68 174.584 123.356 173.913 123.162 173.208 122.223 172.582 121.461 172.133 120.95 171.827 120.638 171.508 120.34 170.55 119.517 169.619 118.812 169.368 118.024 169.196 117.33 169.117 116.693 169.314 115.631 169.55 114.75 169.742 113.917 169.839 113.054 169.854 112.228 169.739 111.176 169.403 109.98 168.757 108.725 167.709 107.493 166.167 106.366 164.043 105.429 163 105.166 161.742 104.96 160.378 104.803 159.017 104.69 157.769 104.613 156.742 104.566 154.837 104.566 153.81 104.613 152.562 104.69 151.201 104.803 149.837 104.96 148.579 105.166 147.537 105.429 145.412 106.366 143.871 107.493 142.822 108.725 142.176 109.98 141.84 111.176 141.725 112.228 141.793 113.57 141.921 114.317 142.148 115.194 142.365 116.04 142.462 116.693 142.211 118.024 141.96 118.812 141.475 119.168 140.631 119.846 139.795 120.592 139.486 120.909 139.191 121.238 138.371 122.223 137.666 123.162 136.995 123.356 136.13 123.581 134.99 123.775 133.017 123.342 131.81 123.106 130.477 123.039 129.436 123.154 128.255 123.49 127.017 124.136 125.803 125.184 124.697 126.725 123.78 128.85 123.279 131.119 122.993 133.827 122.863 136.096 122.863 137.999 122.993 140.268 123.279 142.977 123.78 145.246 124.697 147.37 125.803 148.911 127.017 149.959 128.255 150.606 129.436 150.941 130.477 151.056 132.173 150.944 133.462 150.634 134.99 150.32 135.69 150.416 136.995 150.739 137.666 150.933 138.371 151.873 138.997 152.634 139.446 153.145 139.791 153.496 140.631 154.249 141.475 154.927 141.96 155.283 142.211 156.071 142.384 156.765 142.462 157.402 142.365 158.055 142.148 158.901 141.921 159.778 141.793 160.525 141.74 161.042 141.725 161.868 141.84 162.92 142.176 164.115 142.822 165.37 143.871 166.603 145.412 167.729 147.537 168.667 148.579 168.929 149.837 169.135 151.201 169.292 152.562 169.406 153.81 169.483 154.837 169.53 156.046 169.553 157.769 169.483 159.017 169.406 160.378 169.292 161.742 169.135 163 168.929 164.043 168.667 166.167 167.729 167.709 166.603 168.757 165.37 169.403 164.115 169.739 162.92 169.854 161.868 169.786 160.525 169.659 159.778 169.431 158.901 169.214 158.055 169.117 157.402 169.276 156.413 169.46 155.762 169.619 155.283 170.104 154.927 170.949 154.249 171.784 153.503 172.093 153.187 172.388 152.857 173.208 151.873 173.557 151.421 173.913 150.933 175.001 150.627 175.449 150.514 176.59 150.32 177.267 150.417 178.117 150.634 178.998 150.861 179.769 150.989 180.283 151.042 181.102 151.056 182.143 150.941 183.324 150.606 184.562 149.959 185.776 148.911 186.882 147.37 187.799 145.245 188.08 144.221 188.3 142.976 188.201 140.28 188.035 139.453 187.64 138.678 186.962 138.107 186.962 137.585 196.51 137.585 196.981 138.038 198.118 139.227 199.651 139.824 202.337 141.025 201.928 144.371 199.032 144.89 197.401 145.101 196.011 145.981 195.252 147.06 194.907 148.334 195.019 149.649 195.775 151.11 197.077 152.115 199.316 154.024 197.981 157.119 195.056 156.802 193.432 156.544 191.85 156.997 190.817 157.819 190.128 158.944 189.864 160.237 190.178 161.852 191.145 163.183 192.755 165.645 190.602 168.239 187.885 167.11 186.399 166.406 184.754 166.395 183.532 166.892 182.553 167.777 181.936 168.944 181.782 170.582 182.335 172.131 183.186 174.947 180.39 176.83 178.101 174.981 176.873 173.886 175.298 173.412 173.985 173.545 172.796 174.119 171.876 175.064 171.267 176.592 171.36 178.235 171.384 181.177 168.17 182.195 166.495 179.777 165.626 178.38 164.248 177.482 162.95 177.239 161.648 177.455 160.499 178.103 159.484 179.397 159.111 180.999 158.305 183.829 154.934 183.901 154.008 181.108 153.568 179.523 152.498 178.273 151.322 177.675 150.012 177.515 148.727 177.812 147.388 178.768 146.579 180.201 145.008 182.689 141.754 181.808 141.652 178.867 141.676 177.223 141.002 175.722 140.042 174.816 138.83 174.294 137.513 174.217 135.959 174.758 134.78 175.904 132.571 177.848 129.697 176.087 130.428 173.237 130.914 171.665 130.691 170.035 130.025 168.896 129.009 168.053 127.766 167.609 126.123 167.689 124.669 168.457 122.002 169.7 119.741 167.2 121.245 164.672 122.154 163.301 122.399 161.674 122.081 160.393 121.344 159.299 120.277 158.522 118.677 158.136 117.065 158.463 114.156 158.905 112.691 155.869 114.847 153.867 116.105 152.807 116.798 151.316 116.854 149.997 116.455 148.739 115.65 147.693 114.224 146.873 112.586 146.732 109.67 146.336 109.119 143.011 111.752 141.697 113.258 141.035 114.343 139.799 114.768 138.549 114.74 137.23 114.262 136 113.125 134.811 111.592 134.214 108.906 133.013 109.315 129.667 112.211 129.148 113.842 128.937 115.232 128.056 115.992 126.977 116.336 125.703 116.225 124.389 115.469 122.928 114.166 121.923 111.927 120.014 113.262 116.918 116.187 117.236 117.812 117.494 119.393 117.04 120.426 116.219 121.116 115.094 121.379 113.801 121.065 112.186 120.098 110.855 118.488 108.393 120.641 105.798 123.358 106.927 124.844 107.632 126.489 107.643 127.712 107.146 128.69 106.26 129.307 105.094 129.461 103.456 128.909 101.907 128.057 99.09 130.854 97.208 133.143 99.057 134.37 100.152 135.945 100.625 137.258 100.493 138.447 99.919 139.368 98.974 139.977 97.445 139.883 95.803 139.859 92.861 143.073 91.843 144.748 94.261 145.618 95.658 146.996 96.556 148.293 96.799 149.595 96.583 150.745 95.935 151.76 94.641 152.132 93.039 152.939 90.209 156.309 90.137 157.235 92.93 157.676 94.515 158.745 95.765 159.921 96.363 161.231 96.523 162.517 96.225 163.855 95.269 164.664 93.837 166.235 91.349 169.489 92.23 169.591 95.17 169.567 96.815 170.241 98.316 171.201 99.221 172.413 99.744 173.73 99.82 175.284 99.28 176.464 98.134 178.672 96.189 181.546 97.951 180.815 100.801 180.329 102.373 180.553 104.002 181.219 105.142 182.234 105.984 183.477 106.429 185.12 106.348 186.575 105.581 189.241 104.337 191.503 106.837 189.998 109.366 189.089 110.737 188.845 112.364 189.163 113.644 189.9 114.739 190.967 115.516 192.566 115.901 194.178 115.575 197.087 115.133 198.552 118.169 196.397 120.171 195.138 121.23 194.445 122.722 194.389 124.041 194.788 125.299 195.593 126.345 197.019 127.165 198.658 127.306 201.573 127.702 202.124 131.027 199.491 132.341 197.985 133.003 196.9 134.239 196.475 135.489 196.344 136.528"/><polyline id="_212003712" fill="none" stroke="#000" stroke-width=".1" points="193.624 136.528 192.879 129.139 190.66 121.99 187.149 115.528 182.5 109.905 176.87 105.269 170.41 101.772 163.276 99.563 155.622 98.794 147.931 99.566 140.77 101.78 134.29 105.284 128.646 109.926 123.99 115.553 120.474 122.013 118.253 129.155 117.479 136.825 118.253 144.498 120.474 151.646 123.99 158.115 128.646 163.753 134.29 168.405 140.77 171.918 147.931 174.139 155.622 174.913 163.276 174.141 170.41 171.926 176.87 168.42 182.5 163.774 187.149 158.14 190.66 151.669 192.879 144.513 193.577 137.586"/></g><g id="_211978752"><polygon id="_212002968" fill="none" stroke="#000" stroke-width=".1" points="216.986 131.855 217.995 130.637 219.482 129.933 222.076 128.545 221.613 125.439 218.727 124.867 217.1 124.626 215.727 123.721 214.987 122.628 214.666 121.348 214.801 120.035 215.584 118.588 216.905 117.608 219.178 115.74 218.119 112.784 215.176 112.786 213.533 112.867 212.01 112.247 211.071 111.32 210.506 110.127 210.383 108.813 210.869 107.241 211.972 106.022 213.838 103.746 212.222 101.054 209.337 101.63 207.741 102.03 206.126 101.719 205.024 100.993 204.238 99.933 203.861 98.668 204.03 97.032 204.875 95.621 206.26 93.025 204.15 90.7 201.433 91.827 199.946 92.531 198.301 92.541 197.079 92.044 196.101 91.158 195.484 89.991 195.331 88.353 195.884 86.804 196.737 83.988 194.214 82.119 191.768 83.755 190.448 84.736 188.836 85.066 187.54 84.817 186.408 84.139 185.576 83.115 185.106 81.538 185.346 79.911 185.634 76.983 182.794 75.642 180.715 77.724 179.611 78.943 178.095 79.582 176.775 79.59 175.532 79.146 174.516 78.303 173.748 76.849 173.666 75.206 173.377 72.278 170.33 71.517 168.697 73.964 167.852 75.376 166.49 76.298 165.197 76.563 163.892 76.37 162.731 75.742 161.694 74.466 161.293 72.87 160.438 70.055 157.301 69.903 156.177 72.622 155.624 74.171 154.467 75.341 153.251 75.853 151.933 75.919 150.672 75.53 149.406 74.48 148.702 72.993 147.313 70.399 144.207 70.862 143.635 73.748 143.395 75.375 142.489 76.748 141.396 77.488 140.116 77.809 138.803 77.674 137.357 76.891 136.376 75.57 134.508 73.297 131.552 74.357 131.554 77.299 131.636 78.942 131.016 80.465 130.088 81.404 128.895 81.969 127.581 82.092 126.01 81.607 124.79 80.503 122.515 78.637 119.822 80.253 120.398 83.138 120.799 84.734 120.488 86.349 119.761 87.451 118.701 88.238 117.437 88.615 115.8 88.445 114.389 87.6 111.794 86.215 109.468 88.325 110.596 91.042 111.3 92.529 111.31 94.174 110.812 95.396 109.926 96.375 108.759 96.991 107.122 97.144 105.573 96.591 102.757 95.738 100.887 98.261 102.524 100.707 103.504 102.027 103.835 103.639 103.585 104.935 102.907 106.067 101.883 106.899 100.307 107.369 98.679 107.129 95.751 106.842 94.41 109.681 96.492 111.76 97.712 112.864 98.35 114.38 98.358 115.7 97.914 116.943 97.072 117.959 95.618 118.727 93.975 118.809 91.047 119.098 90.285 122.145 92.733 123.778 94.144 124.623 95.066 125.985 95.332 127.278 95.139 128.583 94.511 129.744 93.234 130.782 91.639 131.182 88.824 132.038 88.671 135.174 91.39 136.298 92.939 136.852 94.11 138.008 94.622 139.224 94.688 140.542 94.298 141.803 93.249 143.07 91.762 143.774 89.168 145.162 89.63 148.268 92.516 148.84 94.144 149.08 95.517 149.986 96.257 151.079 96.578 152.359 96.442 153.672 95.66 155.119 94.339 156.099 92.066 157.967 93.125 160.923 96.067 160.921 97.71 160.839 99.234 161.459 100.173 162.387 100.738 163.58 100.86 164.894 100.375 166.465 99.271 167.685 97.406 169.96 99.022 172.653 101.907 172.077 103.502 171.676 105.118 171.988 106.219 172.714 107.006 173.774 107.383 175.039 107.214 176.675 106.369 178.086 104.983 180.682 107.093 183.007 109.811 181.879 111.298 181.175 112.942 181.165 114.165 181.663 115.143 182.549 115.759 183.716 115.913 185.353 115.359 186.903 114.507 189.719 117.03 191.588 119.475 189.952 120.796 188.971 122.407 188.64 123.703 188.89 124.836 189.568 125.668 190.592 126.138 192.168 125.897 193.796 125.61 196.724 128.45 198.065 130.529 195.983 131.633 194.764 133.149 194.125 134.468 194.117 135.711 194.561 136.727 195.403 137.495 196.858 137.577 198.5 137.867 201.428 140.914 202.19 142.546 199.742 143.391 198.331 144.754 197.409 146.046 197.144 147.352 197.336 148.513 197.964 149.55 199.241 149.951 200.836 150.806 203.651 153.943 203.804 155.067 201.085 155.62 199.536 156.776 198.366 157.992 197.853 159.311 197.788 160.572 198.177 161.838 199.227 162.542 200.713 163.93 203.307 167.036 202.845 167.608 199.959 167.849 198.332 168.754 196.958 169.847 196.219 171.127 195.897 172.44 196.033 173.887 196.815 174.868 198.136 176.735 200.41 179.691 199.35 179.689 196.408 179.608 194.765 180.228 193.241 181.156 192.303 182.348 191.738 183.662 191.615 185.234 192.1 186.453 193.204 188.729 195.069 191.421 193.453 190.845 190.568 190.445 188.973 190.756 187.357 191.483 186.256 192.542 185.469 193.807 185.092 195.443 185.261 196.855 186.106 199.45 187.492 201.776 185.382 200.648 182.664 199.944 181.178 199.934 179.533 200.431 178.31 201.317 177.332 202.484 176.716 204.122 176.563 205.671 177.116 208.487 177.968 210.356 175.445 208.72 173 207.739 171.679 207.409 170.068 207.658 168.772 208.336 167.64 209.36 166.807 210.937 166.338 212.564 166.578 215.492 166.865 216.833 164.025 214.751 161.946 213.532 160.842 212.893 159.327 212.886 158.007 213.329 156.764 214.172 155.748 215.626 154.98 217.269 154.898 220.197 154.608 220.958 151.562 218.511 149.929 217.099 149.084 216.177 147.721 215.912 146.429 216.105 145.123 216.733 143.962 218.009 142.925 219.605 142.524 222.42 141.669 222.572 138.533 219.853 137.408 218.304 136.855 217.134 135.699 216.622 134.483 216.556 133.165 216.857 132.19 204.137 131.806 204.137 133.145 204.185 133.592 202.855 135.319 202.855 138.219 204.194 139.948 204.111 141.274 203.985 142.755 203.808 144.349 203.573 146.012 203.273 147.702 202.9 149.374 202.447 150.986 201.907 152.495 200.876 154.705 199.753 156.583 198.547 158.153 197.265 159.438 195.914 160.461 194.504 161.246 193.041 161.817 191.535 162.198 190.057 162.585 188.693 163.12 187.469 163.741 186.411 164.387 185.544 164.996 184.892 165.507 184.483 165.859 183.884 166.489 183.4 167.086 182.821 167.893 182.206 168.889 181.612 170.06 181.096 171.385 180.716 172.849 180.336 174.34 179.765 175.795 178.98 177.204 177.956 178.558 176.672 179.846 175.102 181.06 173.224 182.188 171.014 183.222 168.65 184.013 166.097 184.608 163.51 185.034 161.045 185.319 158.857 185.492 157.101 185.581 155.934 185.614 155.51 185.619 155.084 185.614 153.91 185.581 152.143 185.492 149.941 185.319 147.459 185.034 144.854 184.608 142.281 184.013 139.897 183.222 137.686 182.188 135.808 181.06 134.238 179.846 132.953 178.558 131.93 177.204 131.144 175.795 130.573 174.34 130.193 172.849 129.82 171.385 129.324 170.06 128.756 168.889 128.171 167.893 127.624 167.086 127.166 166.489 126.852 166.117 126.231 165.491 125.621 164.966 124.791 164.345 123.754 163.692 122.524 163.072 121.116 162.553 119.542 162.198 118.035 161.865 116.573 161.317 115.165 160.534 113.819 159.5 112.543 158.197 111.347 156.607 110.238 154.712 109.225 152.495 108.415 150.131 107.807 147.579 107.371 144.992 107.078 142.527 106.901 140.339 106.81 138.583 106.777 137.416 106.772 136.993 106.777 136.569 106.81 135.401 106.901 133.643 107.078 131.451 107.371 128.979 107.807 126.382 108.415 123.816 109.225 121.434 110.24 119.224 111.355 117.345 112.558 115.775 113.84 114.491 115.19 113.467 116.597 112.682 118.051 112.111 119.542 111.73 121.02 111.343 122.383 110.809 123.607 110.188 124.665 109.542 125.533 108.933 126.184 108.421 126.593 108.07 127.166 107.413 127.624 106.789 128.171 105.952 128.756 104.924 129.324 103.727 129.82 102.383 130.193 100.912 130.573 99.403 131.144 97.934 131.93 96.515 132.953 95.154 134.238 93.862 135.808 92.647 137.686 91.518 139.897 90.484 142.281 89.693 144.854 89.098 147.459 88.671 149.941 88.386 152.143 88.213 153.91 88.124 155.084 88.091 155.51 88.086 155.934 88.091 157.101 88.124 158.857 88.213 161.045 88.386 163.51 88.671 166.097 89.098 168.65 89.693 171.014 90.484 173.224 91.518 175.102 92.647 176.672 93.862 177.956 95.154 178.98 96.515 179.765 97.934 180.336 99.403 180.716 100.912 181.103 102.39 181.638 103.754 182.259 104.977 182.905 106.036 183.514 106.903 184.025 107.554 184.377 107.964 184.955 108.562 185.511 109.047 186.286 109.625 187.277 110.241 188.484 110.835 189.904 111.351 191.535 111.73 193.041 112.095 194.504 112.659 195.914 113.443 197.265 114.47 198.547 115.761 199.753 117.338 200.876 119.221 201.907 121.434 202.321 122.581 202.685 123.793 203.004 125.05 203.28 126.334 203.517 127.626 203.719 128.907 203.887 130.158 204.026 131.36"/><polyline id="_211996728_1" fill="none" stroke="#000" stroke-width=".1" points="213.23 132.392 213.27 133.488 213.394 136.881 213.23 141.367 212.778 145.492 212.103 149.245 211.268 152.614 210.336 155.588 209.371 158.156 208.436 160.308 207.595 162.031 206.904 163.217 206.219 164.158 205.553 164.881 204.918 165.412 204.324 165.779 203.783 166.007 203.308 166.125 202.441 166.176 201.972 166.197 201.503 166.22 201.034 166.245 200.565 166.271 200.096 166.298 199.628 166.325 199.159 166.352 198.499 166.392 197.84 166.432 197.181 166.472 196.521 166.512 195.862 166.553 195.203 166.593 194.543 166.634 193.884 166.675 192.37 166.771 190.985 166.913 189.69 167.318 188.516 167.959 187.491 168.806 186.644 169.831 186.003 171.005 185.598 172.3 185.456 173.685 185.43 174.099 185.36 175.199 185.262 176.77 185.149 178.6 185.037 180.474 184.939 182.179 184.869 183.5 184.843 184.226 184.7 185.098 184.478 185.639 184.118 186.233 183.59 186.869 182.866 187.535 181.918 188.219 180.716 188.91 178.993 189.751 176.841 190.686 174.273 191.651 171.299 192.583 167.93 193.418 164.177 194.093 160.052 194.545 155.566 194.71 154.837 194.704 154.113 194.69 153.396 194.665 152.687 194.633 151.985 194.592 151.292 194.544 150.608 194.49 149.933 194.43 149.974 193.916 149.95 193.181 149.886 192.76 149.773 192.333 149.599 191.921"/><polyline id="_211996728_2" fill="none" stroke="#000" stroke-width=".1" points="212.988 130.183 212.778 128.261 212.103 124.499 211.268 121.12 210.337 118.135 209.371 115.558 208.436 113.4 207.595 111.675 206.904 110.489 206.219 109.548 205.553 108.826 204.918 108.294 204.324 107.928 203.783 107.699 203.308 107.582 202.185 107.522 200.864 107.453 199.159 107.355 197.285 107.242 195.455 107.13 193.884 107.031 192.784 106.962 192.37 106.935 190.985 106.794 189.69 106.388 188.517 105.747 187.491 104.9 186.644 103.875 186.003 102.7 185.598 101.406 185.456 100.02 185.43 99.606 185.36 98.506 185.262 96.935 185.15 95.105 185.037 93.232 184.939 91.527 184.869 90.205 184.843 89.48 184.7 88.607 184.478 88.067 184.118 87.473 183.59 86.837 182.866 86.171 181.918 85.486 180.716 84.795 179.717 84.307 178.563 83.77 177.253 83.201 175.788 82.614 174.168 82.024 172.396 81.447 170.47 80.898 168.918 80.519 168.265 80.372 168.098 80.95 167.89 81.409 167.609 81.818 167.263 82.168 166.859 82.453 166.405 82.666 165.91 82.799 165.381 82.844 164.792 82.784 164.245 82.611 163.753 82.339 163.325 81.98 162.972 81.548 162.707 81.056 162.539 80.517 162.481 79.944 162.536 79.443 161.676 79.306 160.852 79.232 160.009 79.165 159.149 79.108 158.273 79.061 157.384 79.026 156.481 79.004 155.566 78.997 151.08 79.164 146.955 79.62 143.202 80.302 139.833 81.143 136.859 82.079 134.291 83.043 132.139 83.97 130.416 84.795 129.23 85.486 128.289 86.171 127.566 86.837 127.035 87.473 126.669 88.067 126.44 88.607 126.322 89.082 126.263 90.205 126.193 91.527 126.095 93.231 125.982 95.105 125.87 96.935 125.772 98.506 125.702 99.606 125.676 100.02 125.534 101.406 125.129 102.7 124.488 103.874 123.64 104.899 122.615 105.747 121.441 106.388 120.147 106.793 118.761 106.935"/><polyline id="_211996728_3" fill="none" stroke="#000" stroke-width=".1" points="118.761 106.935 117.248 107.031 115.677 107.129 113.847 107.242 111.973 107.355 110.268 107.453 108.947 107.522 108.221 107.549 107.349 107.699 106.808 107.928 106.214 108.294 105.578 108.826 104.912 109.548 104.228 110.489 103.537 111.675 102.693 113.4 101.752 115.558 100.778 118.135 99.836 121.12 98.991 124.499 98.307 128.261 97.849 132.392 97.682 136.881 97.849 141.367 98.307 145.492 98.991 149.245 99.836 152.614 100.778 155.588 101.752 158.156 102.693 160.308 103.537 162.031 104.228 163.217 104.912 164.158 105.578 164.881 106.214 165.412 106.808 165.778 107.349 166.007 107.823 166.125 108.947 166.184 110.268 166.254 111.973 166.352 113.847 166.464 115.677 166.577 117.248 166.675 118.347 166.745 118.761 166.771 120.147 166.913 121.441 167.318 122.615 167.959 123.64 168.806 124.488 169.831 125.129 171.005 125.534 172.3 125.676 173.685 125.702 174.099 125.772 175.199 125.87 176.77 125.982 178.6 126.095 180.474 126.193 182.179 126.263 183.5 126.289 184.226 126.44 185.098 126.669 185.639 127.035 186.233 127.566 186.869 128.289 187.535 129.23 188.219 130.416 188.91 131.346 189.373 132.419 189.876 133.632 190.406 134.982 190.952 136.464 191.5 138.077 192.038 139.817 192.554 141.736 193.064 141.869 192.568 142.102 191.845 142.31 191.445 142.592 191.053 142.963 190.694"/><polygon id="_211995848" fill="none" stroke="#000" stroke-width=".1" points="145.751 192.199 146.267 192.308 146.693 192.604 146.983 193.047 147.09 193.594 146.983 194.109 146.693 194.535 146.267 194.825 145.751 194.933 145.205 194.825 144.762 194.535 144.466 194.109 144.358 193.594 144.466 193.047 144.762 192.604 145.205 192.308"/><polygon id="_211994968" fill="none" stroke="#000" stroke-width=".1" points="165.548 78.495 166.063 78.602 166.489 78.899 166.779 79.341 166.886 79.888 166.779 80.403 166.489 80.829 166.063 81.12 165.548 81.227 165.009 81.12 164.586 80.829 164.308 80.403 164.209 79.888 164.308 79.341 164.586 78.899 165.009 78.602"/><polygon id="_211994584" fill="none" stroke="#000" stroke-width=".1" points="204.193 133.758 204.241 134.825 204.264 135.902 204.267 136.942 204.256 137.899 204.237 138.725 204.217 139.373 204.2 139.796 202.855 138.219 202.855 135.319"/><polygon id="_211993776" fill="none" stroke="#000" stroke-width=".1" points="103.314 155.562 103.767 155.757 104.279 155.844 104.932 155.785 105.342 155.67 105.871 155.506 106.47 155.311 107.092 155.102 107.688 154.899 108.209 154.719 108.608 154.581 109.081 154.38 109.381 154.073 109.504 153.666"/><polygon id="_211992968" fill="none" stroke="#000" stroke-width=".1" points="103.314 118.813 103.767 118.618 104.279 118.53 104.932 118.59 105.342 118.702 105.871 118.86 106.47 119.046 107.092 119.245 107.688 119.438 108.209 119.609 108.608 119.741 109.081 119.947 109.381 120.271 109.504 120.653"/><polygon id="_211992088" fill="none" stroke="#000" stroke-width=".1" points="129.636 190.583 130.15 190.681 130.576 190.952 130.866 191.359 130.973 191.865 130.866 192.404 130.576 192.827 130.15 193.105 129.636 193.204 129.112 193.105 128.666 192.827 128.357 192.404 128.241 191.865 128.357 191.359 128.666 190.952 129.112 190.681"/><polygon id="_211991208" fill="none" stroke="#000" stroke-width=".1" points="119.598 184.449 120.084 184.661 120.434 185.02 120.617 185.483 120.601 186.01 120.412 186.497 120.051 186.853 119.574 187.053 119.04 187.07 118.577 186.857 118.225 186.498 118.028 186.034 118.036 185.508 118.226 185.013 118.587 184.644 119.064 184.442"/><polygon id="_211990192" fill="none" stroke="#000" stroke-width=".1" points="110.954 176.53 111.412 176.824 111.693 177.248 111.786 177.745 111.679 178.259 111.385 178.694 110.961 178.976 110.464 179.082 109.95 178.983 109.515 178.69 109.232 178.266 109.127 177.768 109.225 177.255 109.519 176.797 109.943 176.516 110.441 176.423"/><polygon id="_211989312" fill="none" stroke="#000" stroke-width=".1" points="104.096 166.994 104.469 167.369 104.66 167.859 104.652 168.39 104.43 168.89 104.064 169.256 103.593 169.434 103.081 169.423 102.59 169.224 102.223 168.85 102.045 168.36 102.056 167.829 102.255 167.328 102.62 166.955 103.091 166.764 103.604 166.772"/><polygon id="_211988424" fill="none" stroke="#000" stroke-width=".1" points="99.188 156.398 99.502 156.828 99.606 157.326 99.502 157.834 99.188 158.295 98.759 158.577 98.268 158.671 97.776 158.577 97.347 158.295 97.034 157.834 96.929 157.326 97.034 156.828 97.347 156.398 97.776 156.116 98.268 156.022 98.759 156.116"/><polygon id="_211987544" fill="none" stroke="#000" stroke-width=".1" points="96.455 144.911 96.645 145.402 96.636 145.915 96.439 146.386 96.065 146.752 95.581 146.974 95.082 146.981 94.614 146.79 94.225 146.417 94.035 145.925 94.044 145.413 94.24 144.942 94.615 144.577 95.106 144.354 95.618 144.346 96.089 144.537"/><polygon id="_211986664" fill="none" stroke="#000" stroke-width=".1" points="96.009 132.754 96.107 133.267 96.002 133.765 95.719 134.189 95.284 134.482 94.771 134.581 94.273 134.476 93.849 134.193 93.555 133.758 93.481 133.245 93.59 132.747 93.877 132.322 94.336 132.029 94.848 131.931 95.34 132.036 95.748 132.319"/><polygon id="_211985784" fill="none" stroke="#000" stroke-width=".1" points="97.85 121.656 97.856 122.183 97.654 122.646 97.285 123.005 96.79 123.218 96.288 123.202 95.828 123.002 95.472 122.646 95.284 122.158 95.269 121.632 95.452 121.169 95.802 120.81 96.288 120.597 96.822 120.614 97.299 120.813 97.66 121.169"/><polygon id="_212246280" fill="none" stroke="#000" stroke-width=".1" points="102.031 110.504 101.924 111.042 101.634 111.466 101.208 111.743 100.694 111.842 100.179 111.735 99.752 111.445 99.462 111.019 99.355 110.504 99.462 109.989 99.752 109.563 100.179 109.272 100.694 109.165 101.208 109.296 101.634 109.584 101.924 109.997"/><polygon id="_212246016" fill="none" stroke="#000" stroke-width=".1" points="108.221 100.577 108 101.064 107.622 101.414 107.139 101.597 106.605 101.582 106.142 101.392 105.789 101.031 105.593 100.554 105.6 100.02 105.813 99.533 106.173 99.183 106.636 99 107.162 99.016 107.649 99.205 108.006 99.567 108.205 100.043"/><polygon id="_212245136" fill="none" stroke="#000" stroke-width=".1" points="116.14 92.045 115.846 92.48 115.422 92.763 114.925 92.869 114.411 92.77 113.977 92.477 113.694 92.052 113.588 91.555 113.687 91.041 113.98 90.607 114.405 90.324 114.902 90.218 115.415 90.317 115.85 90.61 116.133 91.035 116.239 91.532"/><polygon id="_212244256" fill="none" stroke="#000" stroke-width=".1" points="125.565 85.298 125.199 85.64 124.728 85.821 124.216 85.823 123.724 85.633 123.35 85.266 123.159 84.796 123.167 84.283 123.39 83.792 123.756 83.418 124.226 83.228 124.738 83.236 125.23 83.458 125.604 83.824 125.795 84.294 125.787 84.806"/><polygon id="_212243240" fill="none" stroke="#000" stroke-width=".1" points="136.049 80.502 135.62 80.784 135.128 80.878 134.637 80.784 134.208 80.502 133.894 80.041 133.79 79.533 133.894 79.035 134.208 78.606 134.637 78.324 135.128 78.23 135.62 78.324 136.049 78.606 136.362 79.035 136.467 79.533 136.362 80.041"/><polygon id="_212242360" fill="none" stroke="#000" stroke-width=".1" points="147.313 77.769 146.822 77.991 146.309 77.999 145.839 77.809 145.472 77.435 145.283 76.944 145.291 76.431 145.488 75.961 145.863 75.595 146.347 75.373 146.846 75.365 147.314 75.556 147.703 75.929 147.893 76.421 147.885 76.933 147.688 77.403"/><polygon id="_212241480" fill="none" stroke="#000" stroke-width=".1" points="158.968 77.324 158.454 77.422 157.957 77.317 157.533 77.033 157.239 76.599 157.14 76.085 157.246 75.588 157.529 75.163 157.964 74.87 158.477 74.771 158.975 74.877 159.399 75.16 159.693 75.595 159.791 76.108 159.686 76.605 159.402 77.03"/><polygon id="_212240600" fill="none" stroke="#000" stroke-width=".1" points="170.511 79.108 169.985 79.115 169.521 78.913 169.162 78.543 168.949 78.048 168.943 77.522 169.145 77.059 169.514 76.7 170.009 76.487 170.512 76.503 170.978 76.703 171.35 77.059 171.571 77.546 171.554 78.073 171.354 78.536 170.998 78.895"/><polygon id="_212239720" fill="none" stroke="#000" stroke-width=".1" points="181.553 83.179 181.037 83.072 180.611 82.781 180.321 82.355 180.214 81.84 180.321 81.326 180.611 80.9 181.037 80.609 181.553 80.502 182.068 80.609 182.494 80.9 182.784 81.326 182.891 81.84 182.784 82.355 182.494 82.781 182.068 83.072"/><polygon id="_212238840" fill="none" stroke="#000" stroke-width=".1" points="191.59 89.313 191.128 89.124 190.775 88.762 190.579 88.286 190.587 87.752 190.799 87.289 191.158 86.936 191.622 86.74 192.148 86.747 192.635 86.96 192.991 87.319 193.191 87.783 193.207 88.309 192.986 88.796 192.608 89.146 192.125 89.328"/><polygon id="_212237960" fill="none" stroke="#000" stroke-width=".1" points="200.01 97.12 199.576 96.827 199.293 96.402 199.188 95.905 199.286 95.392 199.58 94.933 200.004 94.652 200.502 94.56 201.015 94.666 201.473 94.96 201.753 95.384 201.846 95.882 201.739 96.395 201.446 96.83 201.022 97.113 200.524 97.219"/><polygon id="_212237080" fill="none" stroke="#000" stroke-width=".1" points="207.037 106.712 206.662 106.346 206.465 105.875 206.457 105.362 206.647 104.871 207.013 104.497 207.483 104.3 207.996 104.291 208.487 104.481 208.862 104.87 209.059 105.338 209.068 105.837 208.878 106.321 208.488 106.696 208.02 106.893 207.521 106.902"/><polygon id="_212236200" fill="none" stroke="#000" stroke-width=".1" points="211.833 117.084 211.551 116.655 211.456 116.164 211.551 115.672 211.833 115.244 212.262 114.929 212.753 114.818 213.245 114.906 213.673 115.188 213.988 115.649 214.099 116.157 214.011 116.654 213.729 117.084 213.268 117.367 212.76 117.461 212.263 117.367"/><polygon id="_212235320" fill="none" stroke="#000" stroke-width=".1" points="214.621 128.572 214.431 128.08 214.433 127.568 214.613 127.098 214.956 126.732 215.447 126.541 215.96 126.55 216.43 126.747 216.796 127.122 217.018 127.605 217.026 128.104 216.835 128.572 216.461 128.962 215.97 129.152 215.458 129.143 214.987 128.946"/><polygon id="_212234304" fill="none" stroke="#000" stroke-width=".1" points="215.068 140.226 214.969 139.713 215.074 139.216 215.357 138.791 215.792 138.498 216.305 138.399 216.803 138.505 217.227 138.788 217.521 139.223 217.627 139.736 217.535 140.234 217.254 140.658 216.796 140.952 216.283 141.058 215.785 140.966 215.361 140.685"/><polygon id="_212233424" fill="none" stroke="#000" stroke-width=".1" points="213.227 151.993 213.244 151.459 213.443 150.983 213.799 150.621 214.286 150.431 214.813 150.425 215.277 150.627 215.636 150.996 215.848 151.491 215.832 151.994 215.632 152.46 215.276 152.832 214.788 153.053 214.262 153.036 213.799 152.837 213.44 152.48"/><polygon id="_212232544" fill="none" stroke="#000" stroke-width=".1" points="209.101 163.147 209.2 162.608 209.477 162.184 209.9 161.907 210.439 161.808 210.945 161.915 211.352 162.205 211.623 162.631 211.721 163.147 211.614 163.66 211.324 164.08 210.898 164.354 210.383 164.429 209.869 164.331 209.449 164.06 209.175 163.653"/><polygon id="_212231664" fill="none" stroke="#000" stroke-width=".1" points="202.911 173.128 203.1 172.642 203.461 172.292 203.938 172.109 204.473 172.125 204.958 172.314 205.309 172.675 205.492 173.152 205.476 173.685 205.287 174.172 204.925 174.522 204.449 174.706 203.914 174.69 203.428 174.501 203.078 174.139 202.895 173.662"/><polygon id="_212230784" fill="none" stroke="#000" stroke-width=".1" points="195.048 181.548 195.366 181.114 195.794 180.831 196.295 180.725 196.832 180.824 197.258 181.118 197.522 181.542 197.608 182.04 197.501 182.553 197.208 182.988 196.783 183.271 196.286 183.376 195.772 183.277 195.338 182.984 195.054 182.559 194.949 182.062"/><polygon id="_212229904" fill="none" stroke="#000" stroke-width=".1" points="185.567 188.408 185.957 188.033 186.425 187.836 186.924 187.827 187.408 188.017 187.783 188.407 187.98 188.875 187.988 189.374 187.798 189.857 187.409 190.232 186.941 190.43 186.442 190.438 185.958 190.249 185.583 189.859 185.386 189.391 185.378 188.891"/><polygon id="_211977896" fill="none" stroke="#000" stroke-width=".1" points="174.972 193.259 175.433 192.977 175.941 192.883 176.438 192.977 176.868 193.259 177.151 193.689 177.245 194.186 177.151 194.695 176.868 195.156 176.408 195.437 175.9 195.525 175.402 195.414 174.972 195.1 174.69 194.671 174.596 194.179 174.69 193.688"/><polygon id="_211977032" fill="none" stroke="#000" stroke-width=".1" points="163.986 195.88 164.478 195.69 164.991 195.699 165.461 195.896 165.827 196.27 166.017 196.762 166.008 197.274 165.811 197.745 165.437 198.111 164.976 198.301 164.474 198.292 163.993 198.096 163.596 197.721 163.406 197.237 163.415 196.738 163.612 196.27"/><polygon id="_211980016" fill="none" stroke="#000" stroke-width=".1" points="152.053 196.382 152.566 196.284 153.064 196.389 153.488 196.672 153.781 197.107 153.88 197.62 153.775 198.118 153.492 198.542 153.057 198.836 152.544 198.934 152.046 198.829 151.622 198.546 151.328 198.111 151.23 197.598 151.335 197.1 151.618 196.676"/><polygon id="_211979632" fill="none" stroke="#000" stroke-width=".1" points="140.788 194.654 141.322 194.646 141.799 194.842 142.161 195.194 142.35 195.657 142.365 196.191 142.182 196.668 141.832 197.03 141.346 197.219 140.82 197.234 140.356 197.051 139.997 196.701 139.785 196.215 139.777 195.681 139.973 195.204 140.325 194.843"/><polyline id="_211979112" fill="none" stroke="#000" stroke-width=".1" points="210.682 131.532 210.375 128.725 209.774 125.333 209.052 122.354 208.281 119.825 207.53 117.781 206.869 116.261 206.369 115.299 205.316 114.086 203.929 113.313 202.353 112.897 200.736 112.749 199.224 112.784 197.962 112.916 197.098 113.059 196.248 112.703 195.59 112.312 194.814 111.946 193.932 111.599 192.957 111.264 191.899 110.937 190.77 110.612 189.583 110.281 188.373 109.841 187.153 109.163 185.96 108.273 184.829 107.193 183.797 105.949 182.902 104.564 182.179 103.063 181.665 101.47 181.217 99.872 180.732 98.504 180.239 97.361 179.768 96.437 179.35 95.728 179.013 95.228 178.708 94.834 178.095 92.004 177.334 89.707 176.478 87.886 175.579 86.483 174.687 85.441 173.854 84.702 173.133 84.209 172.574 83.904 172.052 83.689 171.438 83.469 170.783 83.253 170.135 83.054 169.545 82.88 169.062 82.744 168.615 82.622 168.106 83.046 167.725 83.265 167.263 83.465 166.722 83.625 166.106 83.727 165.416 83.752 164.656 83.681 163.904 83.487 163.277 83.183 162.765 82.81 162.363 82.412 162.062 82.03 161.738 81.479 157.509 81.183 153.295 81.274 149.176 81.624 145.271 82.189 141.697 82.927 138.574 83.794 136.02 84.748 134.152 85.744 132.906 86.913 132.118 88.329 131.7 89.867 131.559 91.404 131.607 92.816 131.753 93.978 131.907 94.766 131.91 95.175 131.717 95.529 131.416 96.121 131.023 96.953 130.554 98.025 130.025 99.339 129.453 100.896 128.854 102.697 128.139 104.479 127.23 106.024 126.162 107.344 124.972 108.448 123.696 109.345 122.369 110.045 121.028 110.558 119.709 110.894 118.599 111.178 117.512 111.545 116.487 111.958 115.562 112.379 114.775 112.771 114.165 113.098 113.771 113.321 111.963 113.678 110.396 114.008 108.942 114.41 107.615 114.896 106.426 115.481 105.389 116.18 104.515 117.007 103.816 117.977 103.201 119.205 102.585 120.788 101.994 122.707 101.453 124.947 100.988 127.491 100.624 130.32 100.387 133.419 100.303 136.77 100.396 140.209 100.666 143.549 101.094 146.739 101.662 149.728 102.353 152.463 103.149 154.892 104.033 156.965 104.987 158.629 106.137 159.844 107.539 160.616 109.068 161.033 110.599 161.181 112.006 161.146 113.167 161.013 113.954 160.871 114.595 161.17 115.027 161.545 115.625 161.975 116.384 162.405 117.303 162.78 118.375 163.046 119.598 163.147 120.953 163.29 122.202 163.669 123.322 164.205 124.289 164.819 125.081 165.434 125.675 165.969 126.049 166.348 126.593 166.947 127.037 167.51 127.572 168.291 128.149 169.286 128.719 170.492 129.231 171.904 129.636 173.518 129.922 174.661 130.295 175.696 130.717 176.609 131.148 177.387 131.551 178.016 131.886 178.483 132.201 178.872 132.486 180.065 132.845 181.333 133.351 182.852 134.006 184.473 134.812 186.047 135.771 187.427 136.885 188.464 138.075 189.184 139.199 189.73 140.229 190.125 141.137 190.394 141.893 190.562 142.468 190.651 142.963 190.694 143.404 190.356 144.221 190 144.798 189.871 145.493 189.813 146.309 189.857 147.123 190.01 147.811 190.274 148.379 190.608 148.832 190.973 149.176 191.327 149.554 191.842 150.215 192.036 151.075 192.132 152.079 192.209 153.126 192.27 154.116 192.315 154.947 192.345 155.52 192.362 158.544 192.305 161.382 192.117 164.204 191.803 166.963 191.363 169.615 190.799 172.115 190.108 174.418 189.293 176.478 188.352 178.045 187.171 179.02 185.724 179.52 184.141 179.664 182.552 179.57 181.089 179.356 179.882 179.141 179.062 179.137 178.644 179.388 178.313 179.749 177.793 180.173 177.108 180.612 176.285 181.02 175.349 181.349 174.325 181.553 173.239 182.036 171.173 182.887 169.327 184.024 167.706 185.366 166.318 186.83 165.167 188.336 164.261 189.801 163.604 191.144 163.202 192.517 162.861 193.744 162.446 194.812 161.994 195.71 161.543 196.429 161.128 196.955 160.786 197.39 160.469 198.879 160.351 200.455 159.981 202.047 159.403 203.587 158.657 205.004 157.786 206.228 156.831 207.189 155.834 207.818 154.838 208.305 153.786 208.824 152.514 209.345 150.955 209.839 149.045 210.276 146.719 210.625 143.913 210.857 140.563 210.941 136.602 210.788 132.494 210.734 132.005"/></g><g id="_212287472"><polygon id="_211978368" fill="none" stroke="#000" stroke-width=".1" points="164.098 104.983 165.367 104.465 167.219 103.619 169.422 102.569 171.745 101.435 173.956 100.34 175.822 99.407 177.112 98.758 177.594 98.514 180.044 100.018 182.375 101.68 184.581 103.492 186.655 105.443 188.594 107.525 190.392 109.728 192.043 112.044 193.542 114.463 193.214 114.823 192.341 115.786 191.089 117.177 189.625 118.82 188.113 120.538 186.719 122.156 185.611 123.499 184.954 124.39 184.616 125 184.348 125.603 184.143 126.176 183.993 126.697 183.889 127.141 183.793 127.711 184.108 128.933 184.408 129.996 184.672 131.011 184.891 132.008 185.056 133.018 185.155 134.072 185.18 135.201 185.121 136.434 185.18 137.731 185.155 138.957 185.056 140.129 184.891 141.265 184.672 142.383 184.408 143.5 184.108 144.634 183.784 145.803 183.889 146.468 183.993 146.918 184.143 147.442 184.348 148.014 184.616 148.61 184.954 149.204 185.611 150.095 186.719 151.438 188.113 153.056 189.625 154.774 191.089 156.417 192.341 157.808 193.214 158.771 193.542 159.131 192.043 161.566 190.392 163.889 188.594 166.094 186.655 168.172 184.581 170.117 182.375 171.921 180.044 173.578 177.594 175.08 177.112 174.836 175.822 174.187 173.956 173.254 171.745 172.159 169.422 171.025 167.219 169.974 165.367 169.129 164.098 168.611 163.303 168.367 162.392 168.117 161.212 167.83 159.818 167.543 158.264 167.293 156.605 167.116 154.897 167.049 153.452 167.116 152.036 167.293 150.7 167.543 149.494 167.83 148.469 168.117 147.674 168.367 147.16 168.544 145.707 169.129 143.849 169.974 141.637 171.025 139.304 172.159 137.083 173.254 135.208 174.187 133.911 174.836 133.427 175.08 130.974 173.578 128.637 171.921 126.425 170.117 124.344 168.172 122.402 166.094 120.606 163.889 118.962 161.566 117.479 159.131 117.806 158.771 118.679 157.808 119.928 156.417 121.389 154.774 122.894 153.056 124.277 151.438 125.372 150.095 126.011 149.204 126.352 148.61 126.626 148.014 126.84 147.442 127 146.918 127.114 146.468 127.226 145.885 126.91 144.663 126.605 143.605 126.334 142.595 126.108 141.6 125.94 140.586 125.842 139.521 125.824 138.372 125.899 137.104 125.824 135.841 125.842 134.637 125.94 133.476 126.108 132.343 126.334 131.223 126.605 130.101 126.91 128.962 127.237 127.791 127.114 127.141 127 126.697 126.84 126.176 126.626 125.603 126.352 125 126.011 124.39 125.372 123.499 124.277 122.156 122.894 120.538 121.389 118.82 119.928 117.177 118.679 115.786 117.806 114.823 117.479 114.463 118.962 112.044 120.606 109.728 122.402 107.525 124.344 105.443 126.425 103.492 128.637 101.68 130.974 100.018 133.427 98.514 133.911 98.758 135.208 99.407 137.083 100.34 139.304 101.435 141.637 102.569 143.849 103.619 145.707 104.465 146.978 104.983 147.728 105.175 148.581 105.371 149.676 105.596 150.956 105.822 152.366 106.018 153.847 106.157 155.343 106.21 156.856 106.157 158.381 106.018 159.853 105.822 161.205 105.596 162.372 105.371 163.287 105.175 163.884 105.036"/><polygon id="_211975880" fill="none" stroke="#000" stroke-width=".1" points="164.098 104.983 165.367 104.465 167.219 103.619 169.422 102.569 171.745 101.435 173.956 100.34 175.822 99.407 177.112 98.758 177.594 98.514 180.044 100.018 182.375 101.68 184.581 103.492 186.655 105.443 188.594 107.525 190.392 109.728 192.043 112.044 193.542 114.463 193.214 114.823 192.341 115.786 191.089 117.177 189.625 118.82 188.113 120.538 186.719 122.156 185.611 123.499 184.954 124.39 184.616 125 184.348 125.603 184.143 126.176 183.993 126.697 183.889 127.141 183.793 127.711 184.108 128.933 184.408 129.996 184.672 131.011 184.891 132.008 185.056 133.018 185.155 134.072 185.18 135.201 185.121 136.434 185.18 137.731 185.155 138.957 185.056 140.129 184.891 141.265 184.672 142.383 184.408 143.5 184.108 144.634 183.784 145.803 183.889 146.468 183.993 146.918 184.143 147.442 184.348 148.014 184.616 148.61 184.954 149.204 185.611 150.095 186.719 151.438 188.113 153.056 189.625 154.774 191.089 156.417 192.341 157.808 193.214 158.771 193.542 159.131 192.043 161.566 190.392 163.889 188.594 166.094 186.655 168.172 184.581 170.117 182.375 171.921 180.044 173.578 177.594 175.08 177.112 174.836 175.822 174.187 173.956 173.254 171.745 172.159 169.422 171.025 167.219 169.974 165.367 169.129 164.098 168.611 163.303 168.367 162.392 168.117 161.212 167.83 159.818 167.543 158.264 167.293 156.605 167.116 154.897 167.049 153.452 167.116 152.036 167.293 150.7 167.543 149.494 167.83 148.469 168.117 147.674 168.367 147.16 168.544 145.707 169.129 143.849 169.974 141.637 171.025 139.304 172.159 137.083 173.254 135.208 174.187 133.911 174.836 133.427 175.08 130.974 173.578 128.637 171.921 126.425 170.117 124.344 168.172 122.402 166.094 120.606 163.889 118.962 161.566 117.479 159.131 117.806 158.771 118.679 157.808 119.928 156.417 121.389 154.774 122.894 153.056 124.277 151.438 125.372 150.095 126.011 149.204 126.352 148.61 126.626 148.014 126.84 147.442 127 146.918 127.114 146.468 127.226 145.885 126.91 144.663 126.605 143.605 126.334 142.595 126.108 141.6 125.94 140.586 125.842 139.521 125.824 138.372 125.899 137.104 125.824 135.841 125.842 134.637 125.94 133.476 126.108 132.343 126.334 131.223 126.605 130.101 126.91 128.962 127.237 127.791 127.114 127.141 127 126.697 126.84 126.176 126.626 125.603 126.352 125 126.011 124.39 125.372 123.499 124.277 122.156 122.894 120.538 121.389 118.82 119.928 117.177 118.679 115.786 117.806 114.823 117.479 114.463 118.962 112.044 120.606 109.728 122.402 107.525 124.344 105.443 126.425 103.492 128.637 101.68 130.974 100.018 133.427 98.514 133.911 98.758 135.208 99.407 137.083 100.34 139.304 101.435 141.637 102.569 143.849 103.619 145.707 104.465 146.978 104.983 147.728 105.175 148.581 105.371 149.676 105.596 150.956 105.822 152.366 106.018 153.847 106.157 155.343 106.21 156.856 106.157 158.381 106.018 159.853 105.822 161.205 105.596 162.372 105.371 163.287 105.175 163.884 105.036"/><polyline id="_211975288_1" fill="none" stroke="#000" stroke-width=".1" points="161.087 158.127 182.724 171.176 164.768 155.953"/><polyline id="_211974696_1" fill="none" stroke="#000" stroke-width=".1" points="177.147 149.317 189.527 164.652 174.693 152.663"/><polyline id="_211974104_1" fill="none" stroke="#000" stroke-width=".1" points="161.254 115.299 182.724 102.418 164.935 117.53"/><polyline id="_211973512_1" fill="none" stroke="#000" stroke-width=".1" points="177.147 124.39 189.527 108.943 174.693 120.988"/><polyline id="_211968800_1" fill="none" stroke="#000" stroke-width=".1" points="150.492 116.136 128.297 102.418 146.923 118.423"/><polyline id="_211968208_1" fill="none" stroke="#000" stroke-width=".1" points="137.163 127.735 121.493 108.942 139.617 124.333"/><polyline id="_212943592_1" fill="none" stroke="#000" stroke-width=".1" points="149.989 158.016 128.297 171.176 146.42 155.785"/><polyline id="_212943000_1" fill="none" stroke="#000" stroke-width=".1" points="136.662 146.473 121.494 164.653 139.115 149.875"/></g><g id="_211907600"><polygon id="_212942552" fill="none" stroke="#000" stroke-width=".1" points="238.433 132.977 221.425 133.145 221.182 130.032 220.789 126.931 220.246 123.847 220.02 122.843 219.557 120.785 218.72 117.753 217.739 114.755 216.613 111.797 215.346 108.886 215.158 108.51 214.899 108.181 214.509 107.883 214.04 107.71 213.217 107.463 212.169 107.171 211.025 106.865 209.911 106.574 208.958 106.33 208.292 106.161 206.87 106.377 193.598 114.686 192.885 113.502 192.125 112.335 191.322 111.186 190.475 110.057 189.586 108.949 188.657 107.863 187.689 106.801 186.683 105.763 185.607 104.714 184.544 103.734 183.483 102.816 182.41 101.951 181.314 101.13 180.182 100.345 179.002 99.587 177.761 98.848 186.07 85.577 186.404 84.405 186.163 83.49 185.91 82.538 185.609 81.429 185.293 80.291 184.992 79.253 184.739 78.444 184.564 77.992 184.266 77.571 183.937 77.296 183.56 77.101 180.289 75.686 176.962 74.455 173.586 73.407 170.17 72.541 166.719 71.859 163.242 71.36 159.745 71.044 156.235 70.911 154.897 70.911 151.387 71.044 147.89 71.36 144.413 71.859 140.962 72.541 137.546 73.407 134.17 74.455 130.843 75.686 127.572 77.101 127.196 77.296 126.866 77.571 126.568 77.992 126.396 78.444 126.148 79.253 125.857 80.291 125.55 81.429 125.26 82.538 125.015 83.49 124.846 84.155 125.118 85.577 133.371 98.848 132.187 99.562 131.021 100.321 129.872 101.125 128.743 101.972 127.635 102.86 126.549 103.789 125.487 104.757 124.449 105.763 123.445 106.801 122.483 107.863 121.56 108.949 120.678 110.057 119.835 111.186 119.03 112.335 118.263 113.502 117.534 114.686 104.262 106.377 103.036 106.098 102.12 106.33 101.168 106.574 100.059 106.865 98.921 107.171 97.883 107.463 97.074 107.71 96.623 107.883 96.21 108.181 95.954 108.51 95.786 108.886 94.354 112.158 93.109 115.485 92.05 118.86 91.178 122.277 90.492 125.727 89.991 129.205 89.674 132.702 89.54 136.211 89.54 137.55 89.674 141.059 89.991 144.556 90.492 148.033 91.178 151.484 92.05 154.9 93.109 158.276 94.354 161.603 95.786 164.875 95.954 165.251 96.21 165.581 96.623 165.878 97.074 166.053 97.883 166.307 98.921 166.607 100.059 166.924 101.168 167.224 102.12 167.478 102.785 167.653 104.262 167.384 117.534 159.075 118.263 160.259 119.03 161.426 119.835 162.575 120.678 163.703 121.56 164.812 122.483 165.898 123.445 166.96 124.449 167.997 125.525 169.049 126.588 170.034 127.649 170.959 128.722 171.831 129.818 172.656 130.95 173.44 132.13 174.19 133.371 174.913 125.118 188.184 124.783 189.356 125.015 190.272 125.26 191.226 125.55 192.339 125.857 193.483 126.148 194.531 126.396 195.354 126.568 195.824 126.866 196.214 127.196 196.472 127.572 196.66 130.843 198.075 134.17 199.306 137.546 200.354 140.962 201.22 144.413 201.902 147.89 202.401 151.387 202.717 154.897 202.85 156.235 202.85 159.745 202.717 163.242 202.401 166.719 201.902 170.17 201.22 173.586 200.354 176.962 199.306 180.289 198.075 183.56 196.66 183.937 196.472 184.266 196.214 184.564 195.824 184.739 195.354 184.992 194.531 185.293 193.483 185.609 192.339 185.91 191.226 186.163 190.272 186.338 189.606 186.07 188.184 177.761 174.913 178.945 174.199 180.112 173.44 181.26 172.636 182.389 171.789 183.497 170.901 184.583 169.972 185.645 169.004 186.683 167.997 187.689 166.96 188.657 165.898 189.586 164.812 190.475 163.703 191.322 162.575 192.125 161.426 192.885 160.259 193.598 159.075 206.87 167.384 208.041 167.718 208.958 167.478 209.911 167.224 211.025 166.924 212.169 166.607 213.217 166.307 214.04 166.053 214.509 165.878 214.899 165.581 215.158 165.251 215.346 164.875 216.723 161.706 217.928 158.477 218.961 155.197 219.821 151.875 220.508 148.518 221.023 145.136 221.366 141.738 221.536 138.33 238.099 138.107 239.995 138.82 242.68 140.022 242.518 143.044 239.719 143.951 238.131 144.38 236.873 145.44 236.266 146.612 236.097 147.921 236.386 149.209 237.332 150.554 238.759 151.373 241.236 152.962 240.624 155.926 237.721 156.405 236.087 156.593 234.686 157.454 233.911 158.523 233.549 159.792 233.642 161.108 234.378 162.58 235.666 163.602 237.879 165.542 236.832 168.382 233.89 168.423 232.246 168.365 230.732 169.008 229.807 169.949 229.26 171.15 229.156 172.466 229.664 174.03 230.786 175.233 232.684 177.481 231.226 180.134 228.311 179.736 226.694 179.434 225.101 179.843 224.046 180.636 223.325 181.742 223.027 183.028 223.296 184.65 224.226 186.007 225.768 188.513 223.931 190.919 221.108 190.091 219.554 189.551 217.917 189.719 216.756 190.345 215.879 191.331 215.392 192.558 215.416 194.203 216.134 195.683 217.285 198.391 215.11 200.496 212.442 199.256 210.986 198.491 209.343 198.413 208.101 198.859 207.086 199.704 206.422 200.844 206.201 202.474 206.69 204.045 207.425 206.894 204.96 208.651 202.506 207.028 201.181 206.054 199.568 205.732 198.273 205.988 197.144 206.672 196.317 207.701 195.856 209.28 196.105 210.906 196.407 213.832 193.708 215.203 191.524 213.232 190.358 212.071 188.811 211.512 187.493 211.573 186.274 212.081 185.304 212.975 184.612 214.467 184.616 216.112 184.479 219.051 181.606 220.004 179.739 217.73 178.759 216.408 177.313 215.625 176 215.489 174.72 215.809 173.627 216.548 172.72 217.921 172.479 219.548 171.905 222.434 168.922 222.948 167.416 220.421 166.644 218.968 165.33 217.978 164.053 217.648 162.739 217.774 161.548 218.342 160.447 219.564 159.966 221.137 158.968 223.905 155.942 223.969 154.829 221.245 154.282 219.694 153.131 218.519 151.917 218.002 150.599 217.931 149.336 218.315 148.065 219.359 147.355 220.843 145.957 223.432 142.955 223.043 142.26 220.185 141.95 218.569 140.987 217.236 139.863 216.543 138.571 216.277 137.265 216.468 135.853 217.312 134.93 218.673 133.161 221.024 130.25 220.193 129.989 217.262 129.924 215.618 129.17 214.156 128.162 213.304 126.924 212.848 125.604 212.843 124.082 213.467 122.966 214.675 120.867 216.736 118.112 215.481 118.291 212.544 118.471 210.909 117.944 209.351 117.075 208.358 115.918 207.722 114.614 207.52 113.016 207.91 111.732 208.939 109.349 210.664 106.813 209.012 107.427 206.135 107.849 204.545 107.56 202.925 106.848 201.814 105.799 201.013 104.539 200.619 102.901 200.766 101.479 201.592 98.865 202.943 96.603 200.931 97.639 198.178 98.294 196.668 98.249 195.024 97.711 193.819 96.793 192.871 95.606 192.294 93.964 192.195 92.434 192.799 89.648 193.746 87.712 191.419 89.147 188.851 90.019 187.456 90.22 185.823 89.867 184.552 89.101 183.477 88.014 182.729 86.405 182.387 84.802 182.757 81.906 183.277 80.338 180.688 82.14 178.363 83.21 177.113 83.652 175.529 83.493 174.219 82.895 173.042 81.931 172.141 80.391 171.562 78.751 171.689 75.81 171.772 74.645 168.978 76.774 166.947 78.018 165.871 78.691 164.37 78.729 163.051 78.314 161.798 77.495 160.763 76.058 159.962 74.418 159.843 71.497 159.487 70.762 156.551 73.169 154.859 74.56 153.981 75.449 152.597 75.684 151.298 75.46 149.998 74.804 148.852 73.503 147.846 71.898 147.483 69.064 146.696 68.774 143.683 71.407 142.369 72.913 141.708 73.998 140.472 74.424 139.223 74.396 137.903 73.918 136.673 72.782 135.484 71.249 134.887 68.563 133.685 68.726 130.662 71.525 129.756 73.113 129.327 74.371 128.266 74.977 127.094 75.147 125.785 74.858 124.498 73.911 123.152 72.485 122.333 70.008 120.745 70.619 117.78 73.522 117.301 75.156 117.113 76.558 116.252 77.332 115.184 77.695 113.915 77.601 112.599 76.866 111.127 75.577 110.105 73.365 108.165 74.411 105.325 77.353 105.284 78.997 105.341 80.511 104.699 81.437 103.757 81.984 102.557 82.088 101.241 81.58 99.677 80.458 98.473 78.559 96.225 80.017 93.573 82.933 93.971 84.55 94.273 86.143 93.863 87.198 93.07 87.918 91.965 88.217 90.679 87.948 89.056 87.018 87.699 85.475 85.194 87.313 82.788 90.136 83.616 91.69 84.156 93.326 83.988 94.488 83.361 95.365 82.375 95.852 81.149 95.827 79.504 95.11 78.023 93.958 75.316 96.133 73.211 98.802 74.451 100.258 75.216 101.901 75.294 103.143 74.847 104.157 74.003 104.822 72.862 105.043 71.233 104.554 69.662 103.819 66.813 106.283 65.055 108.737 66.679 110.063 67.653 111.676 67.975 112.971 67.718 114.099 67.034 114.926 66.006 115.388 64.427 115.139 62.801 114.837 59.874 117.535 58.504 119.72 60.475 120.886 61.635 122.433 62.194 123.751 62.133 124.969 61.626 125.94 60.732 126.632 59.239 126.628 57.594 126.765 54.655 129.638 53.703 131.504 55.977 132.484 57.298 133.931 58.082 135.243 58.218 136.524 57.897 137.617 57.158 138.523 55.785 138.765 54.158 139.338 51.273 142.321 50.759 143.828 53.286 144.6 54.738 145.913 55.728 147.191 56.059 148.505 55.933 149.696 55.365 150.797 54.142 151.278 52.569 152.275 49.801 155.302 49.738 156.415 52.461 156.962 54.013 158.113 55.188 159.327 55.705 160.645 55.776 161.907 55.392 163.178 54.347 163.888 52.864 165.287 50.275 168.289 50.663 168.984 53.522 169.293 55.138 170.257 56.471 171.38 57.163 172.673 57.43 173.978 57.238 175.391 56.395 176.314 55.034 178.083 52.683 180.993 53.514 181.254 56.444 181.32 58.088 182.074 59.55 183.081 60.402 184.32 60.858 185.639 60.864 187.161 60.24 188.278 59.032 190.377 56.97 193.131 58.226 192.952 61.163 192.772 62.798 193.3 64.356 194.169 65.349 195.326 65.984 196.63 66.186 198.228 65.796 199.511 64.768 201.895 63.043 204.431 64.695 203.816 67.572 203.394 69.162 203.684 70.781 204.396 71.893 205.445 72.694 206.704 73.087 208.342 72.94 209.765 72.114 212.379 70.764 214.641 72.775 213.604 75.529 212.95 77.038 212.995 78.682 213.533 79.888 214.451 80.836 215.637 81.413 217.279 81.512 218.809 80.907 221.595 79.961 223.532 82.287 222.096 84.856 221.225 86.251 221.024 87.883 221.376 89.155 222.142 90.23 223.23 90.977 224.839 91.319 226.442 90.95 229.338 90.429 230.906 93.018 229.104 95.344 228.034 96.593 227.592 98.178 227.751 99.488 228.348 100.665 229.312 101.566 230.852 102.144 232.492 102.017 235.434 101.935 236.598 104.728 234.47 106.76 233.225 107.835 232.552 109.336 232.514 110.655 232.93 111.908 233.749 112.943 235.185 113.744 236.826 113.863 239.746 114.22 240.482 117.156 238.074 118.847 236.683 119.726 235.794 121.11 235.56 122.408 235.784 123.709 236.44 124.854 237.741 125.861 239.345 126.223 242.18 127.011 242.47 130.024 239.837 131.337"/><polyline id="_212942168" fill="none" stroke="#000" stroke-width=".1" points="233.26 131.425 232.213 121.055 227.649 106.368 220.427 93.078 210.864 81.499 199.275 71.946 185.976 64.734 171.283 60.175 155.51 58.586 139.759 60.175 125.085 64.734 111.805 71.946 100.233 81.499 90.684 93.078 83.474 106.368 78.917 121.055 77.328 136.825 78.917 152.597 83.474 167.291 90.684 180.59 100.233 192.179 111.805 201.742 125.085 208.963 139.759 213.528 155.51 215.119 171.283 213.528 185.976 208.963 199.275 201.742 210.864 192.179 220.427 180.59 227.649 167.291 232.213 152.597 233.584 139.012"/><polygon id="_212941288" fill="none" stroke="#000" stroke-width=".1" points="187.575 100.02 187.674 100.979 187.956 101.875 188.402 102.689 188.99 103.4 189.702 103.989 190.516 104.435 191.412 104.717 192.371 104.815 193.345 104.717 194.25 104.435 195.065 103.989 195.773 103.4 196.355 102.689 196.794 101.875 197.071 100.979 197.167 100.02 197.071 99.045 196.794 98.141 196.355 97.326 195.773 96.618 195.065 96.036 194.25 95.597 193.345 95.321 192.371 95.225 191.412 95.321 190.516 95.597 189.702 96.036 188.99 96.618 188.402 97.326 187.956 98.141 187.674 99.045"/><polygon id="_212940408" fill="none" stroke="#000" stroke-width=".1" points="186.572 100.02 186.691 101.198 187.031 102.29 187.569 103.276 188.279 104.133 189.139 104.837 190.124 105.368 191.209 105.703 192.371 105.82 193.551 105.703 194.65 105.368 195.645 104.837 196.512 104.133 197.227 103.276 197.766 102.29 198.107 101.198 198.226 100.02 198.107 98.84 197.766 97.74 197.227 96.746 196.512 95.879 195.645 95.164 194.65 94.624 193.551 94.283 192.371 94.164 191.209 94.283 190.124 94.624 189.139 95.164 188.279 95.879 187.569 96.746 187.031 97.74 186.691 98.84"/><polygon id="_211967536" fill="none" stroke="#000" stroke-width=".1" points="123.557 100.02 123.458 100.979 123.176 101.875 122.73 102.689 122.142 103.4 121.43 103.989 120.616 104.435 119.72 104.717 118.762 104.815 117.787 104.717 116.883 104.435 116.067 103.989 115.359 103.4 114.777 102.689 114.338 101.875 114.062 100.979 113.965 100.02 114.062 99.045 114.338 98.141 114.777 97.326 115.359 96.618 116.067 96.036 116.883 95.597 117.787 95.321 118.762 95.225 119.72 95.321 120.616 95.597 121.43 96.036 122.142 96.618 122.73 97.326 123.176 98.141 123.458 99.045"/><polygon id="_211966656" fill="none" stroke="#000" stroke-width=".1" points="124.616 100.02 124.498 101.198 124.156 102.29 123.617 103.276 122.902 104.133 122.036 104.837 121.041 105.368 119.942 105.703 118.762 105.82 117.581 105.703 116.482 105.368 115.487 104.837 114.621 104.133 113.906 103.276 113.366 102.29 113.025 101.198 112.906 100.02 113.025 98.84 113.366 97.74 113.906 96.746 114.621 95.879 115.487 95.164 116.482 94.624 117.581 94.283 118.762 94.164 119.942 94.283 121.041 94.624 122.036 95.164 122.902 95.879 123.617 96.746 124.156 97.74 124.498 98.84"/><polygon id="_211965776" fill="none" stroke="#000" stroke-width=".1" points="187.575 173.685 187.674 172.727 187.956 171.831 188.402 171.017 188.99 170.305 189.702 169.717 190.516 169.271 191.412 168.989 192.371 168.89 193.345 168.989 194.25 169.271 195.065 169.717 195.773 170.305 196.355 171.017 196.794 171.831 197.071 172.727 197.167 173.685 197.071 174.66 196.794 175.565 196.355 176.38 195.773 177.088 195.065 177.67 194.25 178.109 193.345 178.386 192.371 178.482 191.412 178.386 190.516 178.109 189.702 177.67 188.99 177.088 188.402 176.38 187.956 175.565 187.674 174.66"/><polygon id="_211964896" fill="none" stroke="#000" stroke-width=".1" points="186.572 173.685 186.691 172.524 187.031 171.439 187.569 170.454 188.279 169.594 189.139 168.884 190.124 168.346 191.209 168.006 192.371 167.887 193.551 168.006 194.65 168.346 195.645 168.884 196.512 169.594 197.227 170.454 197.766 171.439 198.107 172.524 198.226 173.685 198.107 174.866 197.766 175.965 197.227 176.96 196.512 177.826 195.645 178.541 194.65 179.081 193.551 179.422 192.371 179.541 191.209 179.422 190.124 179.081 189.139 178.541 188.279 177.826 187.569 176.96 187.031 175.965 186.691 174.866"/><polygon id="_211964016" fill="none" stroke="#000" stroke-width=".1" points="123.557 173.685 123.458 172.727 123.176 171.831 122.73 171.017 122.142 170.305 121.43 169.717 120.616 169.271 119.72 168.989 118.762 168.89 117.787 168.989 116.883 169.271 116.067 169.717 115.359 170.305 114.777 171.017 114.338 171.831 114.062 172.727 113.965 173.685 114.062 174.66 114.338 175.565 114.777 176.38 115.359 177.088 116.067 177.67 116.883 178.109 117.787 178.386 118.762 178.482 119.72 178.386 120.616 178.109 121.43 177.67 122.142 177.088 122.73 176.38 123.176 175.565 123.458 174.66"/><polygon id="_211963000" fill="none" stroke="#000" stroke-width=".1" points="124.616 173.685 124.498 172.524 124.156 171.439 123.617 170.454 122.902 169.594 122.036 168.884 121.041 168.346 119.942 168.006 118.762 167.887 117.581 168.006 116.482 168.346 115.487 168.884 114.621 169.594 113.906 170.454 113.366 171.439 113.025 172.524 112.906 173.685 113.025 174.866 113.366 175.965 113.906 176.96 114.621 177.826 115.487 178.541 116.482 179.081 117.581 179.422 118.762 179.541 119.942 179.422 121.041 179.081 122.036 178.541 122.902 177.826 123.617 176.96 124.156 175.965 124.498 174.866"/><polygon id="_211962120" fill="none" stroke="#000" stroke-width=".1" points="118.762 104.815 119.72 104.717 120.616 104.435 121.43 103.989 122.142 103.4 122.73 102.689 123.176 101.875 123.458 100.979 123.557 100.02 123.458 99.045 123.176 98.141 122.73 97.326 122.142 96.618 121.43 96.036 120.616 95.597 119.72 95.321 118.762 95.225 117.787 95.321 116.883 95.597 116.067 96.036 115.359 96.618 114.777 97.326 114.338 98.141 114.062 99.045 113.965 100.02 114.062 100.979 114.338 101.875 114.777 102.689 115.359 103.4 116.067 103.989 116.883 104.435 117.787 104.717"/><polygon id="_211961256" fill="none" stroke="#000" stroke-width=".1" points="118.762 105.82 119.942 105.703 121.041 105.368 122.036 104.837 122.902 104.133 123.617 103.276 124.156 102.29 124.498 101.198 124.616 100.02 124.498 98.84 124.156 97.74 123.617 96.746 122.902 95.879 122.036 95.164 121.041 94.624 119.942 94.283 118.762 94.164 117.581 94.283 116.482 94.624 115.487 95.164 114.621 95.879 113.906 96.746 113.366 97.74 113.025 98.84 112.906 100.02 113.025 101.198 113.366 102.29 113.906 103.276 114.621 104.133 115.487 104.837 116.482 105.368 117.581 105.703"/><polygon id="_212955072" fill="none" stroke="#000" stroke-width=".1" points="118.762 168.89 119.72 168.989 120.616 169.271 121.43 169.717 122.142 170.305 122.73 171.017 123.176 171.831 123.458 172.727 123.557 173.685 123.458 174.66 123.176 175.565 122.73 176.38 122.142 177.088 121.43 177.67 120.616 178.109 119.72 178.386 118.762 178.482 117.787 178.386 116.883 178.109 116.067 177.67 115.359 177.088 114.777 176.38 114.338 175.565 114.062 174.66 113.965 173.685 114.062 172.727 114.338 171.831 114.777 171.017 115.359 170.305 116.067 169.717 116.883 169.271 117.787 168.989"/><polygon id="_212954808" fill="none" stroke="#000" stroke-width=".1" points="118.762 167.887 119.942 168.006 121.041 168.346 122.036 168.884 122.902 169.594 123.617 170.454 124.156 171.439 124.498 172.524 124.616 173.685 124.498 174.866 124.156 175.965 123.617 176.96 122.902 177.826 122.036 178.541 121.041 179.081 119.942 179.422 118.762 179.541 117.581 179.422 116.482 179.081 115.487 178.541 114.621 177.826 113.906 176.96 113.366 175.965 113.025 174.866 112.906 173.685 113.025 172.524 113.366 171.439 113.906 170.454 114.621 169.594 115.487 168.884 116.482 168.346 117.581 168.006"/><polygon id="_212953928" fill="none" stroke="#000" stroke-width=".1" points="192.371 104.815 191.412 104.717 190.516 104.435 189.702 103.989 188.99 103.4 188.402 102.689 187.956 101.875 187.674 100.979 187.575 100.02 187.674 99.045 187.956 98.141 188.402 97.326 188.99 96.618 189.702 96.036 190.516 95.597 191.412 95.321 192.371 95.225 193.345 95.321 194.25 95.597 195.065 96.036 195.773 96.618 196.355 97.326 196.794 98.141 197.071 99.045 197.167 100.02 197.071 100.979 196.794 101.875 196.355 102.689 195.773 103.4 195.065 103.989 194.25 104.435 193.345 104.717"/><polygon id="_212953048" fill="none" stroke="#000" stroke-width=".1" points="192.371 105.82 191.209 105.703 190.124 105.368 189.139 104.837 188.279 104.133 187.569 103.276 187.031 102.29 186.691 101.198 186.572 100.02 186.691 98.84 187.031 97.74 187.569 96.746 188.279 95.879 189.139 95.164 190.124 94.624 191.209 94.283 192.371 94.164 193.551 94.283 194.65 94.624 195.645 95.164 196.512 95.879 197.227 96.746 197.766 97.74 198.107 98.84 198.226 100.02 198.107 101.198 197.766 102.29 197.227 103.276 196.512 104.133 195.645 104.837 194.65 105.368 193.551 105.703"/><polygon id="_212952168" fill="none" stroke="#000" stroke-width=".1" points="192.371 168.89 191.412 168.989 190.516 169.271 189.702 169.717 188.99 170.305 188.402 171.017 187.956 171.831 187.674 172.727 187.575 173.685 187.674 174.66 187.956 175.565 188.402 176.38 188.99 177.088 189.702 177.67 190.516 178.109 191.412 178.386 192.371 178.482 193.345 178.386 194.25 178.109 195.065 177.67 195.773 177.088 196.355 176.38 196.794 175.565 197.071 174.66 197.167 173.685 197.071 172.727 196.794 171.831 196.355 171.017 195.773 170.305 195.065 169.717 194.25 169.271 193.345 168.989"/><polygon id="_212951288" fill="none" stroke="#000" stroke-width=".1" points="192.371 167.887 191.209 168.006 190.124 168.346 189.139 168.884 188.279 169.594 187.569 170.454 187.031 171.439 186.691 172.524 186.572 173.685 186.691 174.866 187.031 175.965 187.569 176.96 188.279 177.826 189.139 178.541 190.124 179.081 191.209 179.422 192.371 179.541 193.551 179.422 194.65 179.081 195.645 178.541 196.512 177.826 197.227 176.96 197.766 175.965 198.107 174.866 198.226 173.685 198.107 172.524 197.766 171.439 197.227 170.454 196.512 169.594 195.645 168.884 194.65 168.346 193.551 168.006"/><polygon id="_212950408" fill="none" stroke="#000" stroke-width=".1" points="118.762 106.154 119.983 106.03 121.123 105.674 122.155 105.113 123.055 104.369 123.798 103.469 124.36 102.437 124.715 101.298 124.84 100.076 124.715 98.854 124.36 97.714 123.798 96.682 123.055 95.781 122.155 95.038 121.123 94.476 119.983 94.121 118.762 93.997 117.539 94.121 116.4 94.476 115.367 95.038 114.467 95.781 113.724 96.682 113.162 97.714 112.807 98.854 112.683 100.076 112.807 101.298 113.162 102.437 113.724 103.469 114.467 104.369 115.367 105.113 116.4 105.674 117.539 106.03"/><polygon id="_212949392" fill="none" stroke="#000" stroke-width=".1" points="192.26 179.652 193.481 179.529 194.621 179.173 195.653 178.611 196.553 177.868 197.297 176.968 197.858 175.936 198.214 174.796 198.338 173.575 198.214 172.353 197.858 171.213 197.297 170.181 196.553 169.28 195.653 168.537 194.621 167.975 193.481 167.62 192.26 167.496 191.038 167.62 189.898 167.975 188.866 168.537 187.966 169.28 187.222 170.181 186.66 171.213 186.305 172.353 186.181 173.575 186.305 174.796 186.66 175.936 187.222 176.968 187.966 177.868 188.866 178.611 189.898 179.173 191.038 179.529"/><polygon id="_212948512" fill="none" stroke="#000" stroke-width=".1" points="192.26 106.154 193.481 106.03 194.621 105.674 195.653 105.113 196.553 104.369 197.297 103.469 197.858 102.437 198.214 101.298 198.338 100.076 198.214 98.854 197.858 97.714 197.297 96.682 196.553 95.781 195.653 95.038 194.621 94.476 193.481 94.121 192.26 93.997 191.038 94.121 189.898 94.476 188.866 95.038 187.966 95.781 187.222 96.682 186.66 97.714 186.305 98.854 186.181 100.076 186.305 101.298 186.66 102.437 187.222 103.469 187.966 104.369 188.866 105.113 189.898 105.674 191.038 106.03"/><polygon id="_212947632" fill="none" stroke="#000" stroke-width=".1" points="118.762 179.652 119.983 179.529 121.123 179.173 122.155 178.611 123.055 177.868 123.798 176.968 124.36 175.936 124.715 174.796 124.84 173.575 124.715 172.353 124.36 171.213 123.798 170.181 123.055 169.28 122.155 168.537 121.123 167.975 119.983 167.62 118.762 167.496 117.539 167.62 116.4 167.975 115.367 168.537 114.467 169.28 113.724 170.181 113.162 171.213 112.807 172.353 112.683 173.575 112.807 174.796 113.162 175.936 113.724 176.968 114.467 177.868 115.367 178.611 116.4 179.173 117.539 179.529"/><polygon id="_212946752" fill="none" stroke="#000" stroke-width=".1" points="118.762 177.032 119.454 176.961 120.102 176.759 120.689 176.438 121.201 176.014 121.625 175.502 121.946 174.915 122.148 174.267 122.219 173.575 122.148 172.882 121.946 172.234 121.625 171.647 121.201 171.135 120.689 170.711 120.102 170.39 119.454 170.188 118.762 170.117 118.069 170.188 117.421 170.39 116.834 170.711 116.322 171.135 115.898 171.647 115.578 172.234 115.375 172.882 115.304 173.575 115.375 174.267 115.578 174.915 115.898 175.502 116.322 176.014 116.834 176.438 117.421 176.759 118.069 176.961"/><polyline id="_212945704_1" fill="none" stroke="#000" stroke-width=".1" points="89.82 130.021 89.312 129.405 88.778 128.753 88.146 127.979 87.483 127.159 86.855 126.375 86.329 125.704 85.972 125.226 85.741 124.759 85.52 124.131 85.322 123.367 85.163 122.493 85.055 121.535 85.015 120.52 85.055 119.474 85.19 118.422 85.476 117.151 85.958 115.516 86.577 113.65 87.275 111.689 87.99 109.763 88.664 108.008 89.238 106.556 89.652 105.54 89.987 104.82 90.413 104.159 90.936 103.547 91.562 102.975 92.297 102.435 93.149 101.918 94.124 101.413 95.228 100.912 96.554 100.369 98.106 99.819 99.825 99.377 101.648 99.155 103.516 99.268 105.368 99.829 107.143 100.953 108.78 102.752 110.326 104.897 111.836 106.979 113.257 108.928 114.537 110.678 115.624 112.157 116.464 113.299 117.007 114.035"/><polyline id="_212944656_1" fill="none" stroke="#000" stroke-width=".1" points="147.982 70.632 147.356 70.142 146.694 69.626 145.905 69.014 145.068 68.371 144.265 67.761 143.574 67.248 143.075 66.895 142.611 66.667 141.988 66.453 141.23 66.267 140.363 66.121 139.409 66.031 138.393 66.009 137.339 66.07 136.271 66.227 135.002 66.554 133.374 67.077 131.52 67.736 129.572 68.471 127.664 69.222 125.927 69.928 124.495 70.529 123.5 70.966 122.835 71.33 122.283 71.796 121.817 72.366 121.41 73.043 121.034 73.831 120.662 74.731 120.267 75.745 119.821 76.878 119.329 78.237 118.846 79.876 118.479 81.715 118.336 83.674 118.525 85.672 119.154 87.629 120.331 89.464 122.163 91.098 124.317 92.562 126.321 93.924 128.13 95.156 129.705 96.228 131.002 97.112 131.981 97.779 132.599 98.2"/><polygon id="_211904432" fill="none" stroke="#000" stroke-width=".1" points="102.645 84.461 102.96 84.132 103.309 83.773 103.746 83.332 104.241 82.844 104.762 82.344 105.282 81.867 105.768 81.45 106.222 81.174 106.689 81.07 107.147 81.097 107.573 81.213 107.945 81.376 108.431 81.676 109.197 82.518 109.932 83.355 110.808 84.357 111.732 85.424 112.617 86.458 113.373 87.359 113.909 88.03 114.234 88.525 114.397 88.996 114.435 89.43 114.28 90.137 114.062 90.54 111.679 93.105 109.17 95.559 108.741 95.838 108.053 96.024 107.617 96.006 107.131 95.863 106.605 95.559 105.926 95.025 105.006 94.275 103.945 93.399 102.847 92.484 101.815 91.62 100.95 90.893 100.356 90.392 99.942 89.959 99.592 89.32 99.466 88.901 99.43 88.441 99.527 87.958 99.801 87.473 100.228 86.991 100.693 86.485 101.167 85.981 101.62 85.507 102.024 85.091 102.349 84.759"/><polyline id="_211903624_1" fill="none" stroke="#000" stroke-width=".1" points="124.728 92.659 123.861 91.945 123.013 91.071 122.1 89.871 121.278 88.357 120.705 86.542 120.539 84.44 120.936 82.063 121.643 79.802 122.225 78.003 122.689 76.617 123.048 75.595 123.31 74.886 123.484 74.441 123.655 74.002 123.798 73.612 124.062 73.03 124.47 72.311 125.042 71.512 125.8 70.687 126.767 69.892 127.963 69.182"/><polygon id="_211902744" fill="none" stroke="#000" stroke-width=".1" points="121.271 73.141 121.891 73.276 122.386 73.636 122.714 74.153 122.833 74.759 122.714 75.355 122.386 75.853 121.891 76.193 121.271 76.319 120.65 76.193 120.155 75.853 119.828 75.355 119.709 74.759 119.828 74.153 120.155 73.636 120.65 73.276"/><polygon id="_211901704" fill="none" stroke="#000" stroke-width=".1" points="121.271 73.141 121.891 73.276 122.386 73.636 122.714 74.153 122.833 74.759 122.714 75.355 122.386 75.853 121.891 76.193 121.271 76.319 120.65 76.193 120.155 75.853 119.828 75.355 119.709 74.759 119.828 74.153 120.155 73.636 120.65 73.276"/><polyline id="_212939528_1" fill="none" stroke="#000" stroke-width=".1" points="221.313 143.684 221.811 144.291 222.337 144.934 222.958 145.699 223.612 146.508 224.231 147.284 224.751 147.948 225.106 148.424 225.355 148.89 225.589 149.519 225.797 150.283 225.963 151.157 226.074 152.114 226.117 153.129 226.078 154.176 225.942 155.228 225.638 156.502 225.143 158.142 224.516 160.014 223.816 161.982 223.103 163.911 222.437 165.665 221.876 167.11 221.481 168.109 221.127 168.829 220.687 169.491 220.155 170.103 219.522 170.674 218.782 171.215 217.928 171.732 216.953 172.237 215.848 172.738 214.539 173.281 212.994 173.83 211.277 174.273 209.449 174.494 207.575 174.381 205.717 173.82 203.937 172.696 202.298 170.897 200.749 168.752 199.232 166.67 197.802 164.721 196.512 162.972 195.415 161.492 194.565 160.35 194.016 159.615"/><polyline id="_212938480_1" fill="none" stroke="#000" stroke-width=".1" points="163.095 203.13 163.712 203.611 164.365 204.118 165.144 204.719 165.97 205.352 166.765 205.953 167.45 206.46 167.946 206.811 168.412 207.039 169.041 207.252 169.805 207.439 170.679 207.584 171.636 207.675 172.651 207.697 173.698 207.636 174.75 207.48 176.019 207.153 177.647 206.629 179.501 205.97 181.448 205.235 183.357 204.485 185.093 203.778 186.525 203.177 187.52 202.74 188.188 202.376 188.746 201.909 189.219 201.337 189.632 200.656 190.012 199.862 190.382 198.952 190.77 197.924 191.201 196.773 191.708 195.414 192.199 193.775 192.567 191.935 192.706 189.977 192.511 187.979 191.875 186.022 190.693 184.186 188.858 182.553 186.72 181.089 184.724 179.727 182.915 178.495 181.337 177.423 180.033 176.539 179.048 175.872 178.425 175.45"/><polygon id="_212938096" fill="none" stroke="#000" stroke-width=".1" points="208.487 189.3 208.173 189.63 207.826 189.988 207.393 190.43 206.905 190.918 206.393 191.418 205.888 191.894 205.42 192.312 204.929 192.588 204.434 192.691 203.956 192.664 203.517 192.548 203.137 192.385 202.645 192.086 201.887 191.244 201.158 190.406 200.29 189.404 199.369 188.338 198.483 187.304 197.72 186.402 197.167 185.731 196.844 185.234 196.688 184.757 196.659 184.314 196.834 183.587 197.068 183.168 199.397 180.601 199.813 180.226 200.216 179.842 200.673 179.402 201.128 178.961 201.523 178.577 201.907 178.203 202.351 177.923 203.048 177.737 203.483 177.756 203.962 177.899 204.473 178.203 205.151 178.737 206.071 179.486 207.131 180.362 208.229 181.277 209.262 182.142 210.126 182.869 210.72 183.37 211.134 183.803 211.484 184.441 211.611 184.86 211.647 185.321 211.549 185.803 211.276 186.289 210.884 186.77 210.44 187.277 209.977 187.781 209.526 188.254 209.119 188.671 208.79 189.002"/><polyline id="_212937712_1" fill="none" stroke="#000" stroke-width=".1" points="148.763 202.572 148.147 203.079 147.496 203.613 146.72 204.245 145.901 204.908 145.116 205.536 144.445 206.062 143.967 206.42 143.503 206.666 142.88 206.896 142.12 207.096 141.249 207.256 140.288 207.364 139.262 207.408 138.194 207.376 137.108 207.256 135.837 206.952 134.202 206.457 132.336 205.83 130.375 205.13 128.449 204.417 126.694 203.751 125.242 203.19 124.226 202.795 123.506 202.423 122.845 201.969 122.233 201.427 121.661 200.787 121.121 200.044 120.604 199.187 120.099 198.211 119.598 197.106 119.055 195.781 118.505 194.228 118.063 192.51 117.841 190.687 117.954 188.819 118.515 186.967 119.639 185.193 121.438 183.556 123.583 182.009 125.665 180.499 127.614 179.078 129.364 177.798 130.843 176.712 131.985 175.871 132.721 175.328"/><polyline id="_212937328_1" fill="none" stroke="#000" stroke-width=".1" points="89.82 143.684 89.312 144.291 88.778 144.934 88.146 145.699 87.483 146.508 86.855 147.284 86.329 147.948 85.972 148.424 85.741 148.89 85.52 149.519 85.322 150.283 85.163 151.157 85.055 152.114 85.015 153.129 85.055 154.176 85.19 155.228 85.476 156.502 85.958 158.142 86.577 160.014 87.275 161.982 87.99 163.911 88.664 165.665 89.238 167.11 89.652 168.109 89.987 168.829 90.413 169.491 90.936 170.103 91.562 170.674 92.297 171.215 93.149 171.732 94.124 172.237 95.228 172.738 96.554 173.281 98.106 173.83 99.825 174.273 101.648 174.494 103.516 174.381 105.368 173.82 107.143 172.696 108.78 170.897 110.326 168.752 111.836 166.67 113.257 164.721 114.537 162.972 115.624 161.492 116.464 160.35 117.007 159.615"/><polygon id="_212936112" fill="none" stroke="#000" stroke-width=".1" points="103.091 189.802 102.762 189.487 102.403 189.138 101.962 188.701 101.474 188.207 100.974 187.685 100.497 187.166 100.08 186.679 99.803 186.225 99.7 185.758 99.727 185.3 99.843 184.874 100.006 184.502 100.306 184.016 101.147 183.257 101.985 182.526 102.987 181.653 104.054 180.725 105.088 179.83 105.989 179.053 106.661 178.482 107.171 178.143 107.649 177.979 108.084 177.949 108.781 178.135 109.172 178.38 111.735 180.768 114.188 183.277 114.482 183.721 114.679 184.418 114.659 184.854 114.509 185.332 114.188 185.842 113.638 186.518 112.881 187.433 112.004 188.484 111.093 189.572 110.235 190.594 109.514 191.45 109.019 192.037 108.589 192.449 107.956 192.799 107.544 192.926 107.094 192.962 106.626 192.864 106.158 192.591 105.658 192.182 105.138 191.731 104.624 191.267 104.144 190.82 103.723 190.42 103.39 190.097"/><polyline id="_212935728_1" fill="none" stroke="#000" stroke-width=".1" points="162.369 71.078 162.977 70.579 163.622 70.054 164.39 69.433 165.206 68.78 165.992 68.161 166.671 67.641 167.165 67.286 167.613 67.04 168.227 66.811 168.981 66.613 169.848 66.456 170.802 66.355 171.815 66.321 172.861 66.367 173.912 66.505 175.186 66.79 176.827 67.272 178.699 67.892 180.667 68.589 182.596 69.305 184.35 69.979 185.794 70.552 186.794 70.966 187.514 71.302 188.176 71.729 188.788 72.253 189.359 72.883 189.899 73.626 190.417 74.487 190.922 75.476 191.423 76.599 191.966 77.924 192.516 79.477 192.96 81.195 193.186 83.019 193.08 84.887 192.528 86.738 191.419 88.513 189.638 90.149 187.46 91.708 185.327 93.249 183.313 94.715 181.496 96.046 179.951 97.184 178.753 98.069 177.979 98.644"/><polyline id="_212935344_1" fill="none" stroke="#000" stroke-width=".1" points="221.313 130.077 221.811 129.461 222.337 128.81 222.958 128.034 223.612 127.215 224.231 126.43 224.751 125.759 225.106 125.281 225.352 124.815 225.582 124.186 225.782 123.422 225.942 122.548 226.05 121.591 226.094 120.576 226.062 119.529 225.942 118.477 225.638 117.203 225.143 115.563 224.516 113.691 223.816 111.723 223.103 109.794 222.437 108.04 221.876 106.596 221.481 105.596 221.127 104.876 220.687 104.214 220.155 103.602 219.522 103.031 218.782 102.491 217.928 101.973 216.953 101.469 215.848 100.968 214.539 100.425 212.993 99.875 211.274 99.433 209.442 99.211 207.562 99.324 205.693 99.885 203.899 101.009 202.242 102.808 200.695 104.953 199.185 107.035 197.764 108.984 196.484 110.734 195.397 112.213 194.556 113.355 194.013 114.091"/><polygon id="_212934960" fill="none" stroke="#000" stroke-width=".1" points="207.929 83.904 208.259 84.219 208.617 84.569 209.059 85.005 209.547 85.5 210.047 86.021 210.523 86.54 210.941 87.027 211.235 87.482 211.353 87.956 211.336 88.423 211.226 88.86 211.067 89.241 210.771 89.743 209.92 90.503 209.074 91.232 208.062 92.101 206.984 93.023 205.942 93.909 205.034 94.672 204.36 95.225 203.848 95.547 203.363 95.703 202.918 95.732 202.201 95.556 201.795 95.323 199.23 92.993 196.832 90.484 196.553 90.022 196.366 89.305 196.385 88.861 196.528 88.376 196.832 87.863 197.364 87.187 198.107 86.273 198.974 85.221 199.878 84.134 200.733 83.112 201.451 82.256 201.945 81.668 202.385 81.256 203.043 80.906 203.472 80.78 203.941 80.744 204.43 80.842 204.918 81.116 205.4 81.524 205.906 81.975 206.41 82.439 206.884 82.886 207.3 83.286 207.631 83.609"/><polyline id="_212934152_1" fill="none" stroke="#000" stroke-width=".1" points="186.349 181.047 187.224 181.762 188.078 182.635 188.998 183.835 189.823 185.349 190.395 187.163 190.554 189.266 190.141 191.642 189.449 193.904 188.875 195.703 188.411 197.089 188.049 198.111 187.781 198.82 187.6 199.265 187.421 199.703 187.279 200.093 187.017 200.676 186.613 201.394 186.048 202.194 185.299 203.02 184.347 203.815 183.169 204.524"/><polygon id="_212933136" fill="none" stroke="#000" stroke-width=".1" points="189.862 200.564 189.209 200.437 188.698 200.091 188.364 199.577 188.245 198.948 188.364 198.327 188.698 197.832 189.209 197.504 189.862 197.386 190.45 197.512 190.928 197.853 191.25 198.351 191.367 198.948 191.25 199.553 190.928 200.07 190.45 200.429"/><polygon id="_212932256" fill="none" stroke="#000" stroke-width=".1" points="189.862 200.564 189.209 200.437 188.698 200.091 188.364 199.577 188.245 198.948 188.364 198.327 188.698 197.832 189.209 197.504 189.862 197.386 190.45 197.512 190.928 197.853 191.25 198.351 191.367 198.948 191.25 199.553 190.928 200.07 190.45 200.429"/><polygon id="_212931376" fill="none" stroke="#000" stroke-width=".1" points="161.533 64.108 162.13 64.226 162.627 64.553 162.968 65.048 163.095 65.668 162.968 66.256 162.627 66.735 162.13 67.056 161.533 67.174 160.936 67.056 160.438 66.735 160.098 66.256 159.971 65.668 160.098 65.048 160.438 64.553 160.936 64.226"/><polygon id="_212930496" fill="none" stroke="#000" stroke-width=".1" points="149.879 205.528 150.475 205.645 150.972 205.967 151.313 206.445 151.439 207.034 151.313 207.654 150.972 208.149 150.475 208.476 149.879 208.594 149.282 208.476 148.784 208.149 148.443 207.654 148.317 207.034 148.443 206.445 148.784 205.967 149.282 205.645"/><polygon id="_212929616" fill="none" stroke="#000" stroke-width=".1" points="212.502 187.85 212.053 188.106 211.733 188.485 212.335 190.639 212.77 190.816 213.276 190.834 213.761 190.679 214.147 190.387 214.439 190.001 213.729 187.906 213.272 187.747 212.804 187.757"/><polygon id="_212928736" fill="none" stroke="#000" stroke-width=".1" points="98.017 82.008 97.522 82.267 97.17 82.666 97.737 84.852 98.239 85.029 98.741 85.048 99.236 84.893 99.627 84.608 99.9 84.252 99.188 82.063 98.773 81.928 98.317 81.922"/><polygon id="_212927856" fill="none" stroke="#000" stroke-width=".1" points="98.017 82.008 97.522 82.267 97.17 82.666 97.737 84.852 98.239 85.029 98.741 85.048 99.236 84.893 99.627 84.608 99.9 84.252 99.188 82.063 98.773 81.928 98.317 81.922"/><polyline id="_212927472_1" fill="none" stroke="#000" stroke-width=".1" points="79.391 137.327 79.393 137.863 79.402 138.521 79.417 139.254 79.44 140.018 79.47 140.765 79.508 141.452 79.556 142.031 79.614 142.457 79.882 142.979 80.255 143.203 80.691 143.243 81.227 143.238 81.75 143.238 82.368 143.238 83.014 143.238 83.624 143.238 84.129 143.238 84.657 143.225 85.051 143.043 85.257 142.672 85.328 142.224 85.361 141.722 85.397 141.059 85.435 140.283 85.469 139.444 85.498 138.592 85.518 137.777 85.526 137.048"/><polyline id="_212927088_1" fill="none" stroke="#000" stroke-width=".1" points="79.391 137.327 79.393 136.791 79.402 136.133 79.417 135.4 79.44 134.636 79.47 133.889 79.508 133.202 79.556 132.623 79.614 132.197 79.882 131.698 80.255 131.472 80.691 131.413 81.227 131.416 81.75 131.416 82.368 131.416 83.014 131.416 83.624 131.416 84.129 131.416 84.657 131.429 85.051 131.611 85.257 131.981 85.328 132.43 85.361 132.932 85.397 133.595 85.435 134.371 85.469 135.21 85.498 136.062 85.518 136.877 85.526 137.606"/><polygon id="_212925952" fill="none" stroke="#000" stroke-width=".1" points="80.283 142.345 81.12 141.119 81.12 140.372 81.12 139.864 81.12 139.273 81.12 138.625 81.12 137.949 81.12 137.271 81.135 136.662 81.185 136.136 81.27 135.694 81.553 135.078 82.001 134.841 82.609 134.985 83.142 135.468 83.35 135.898 83.517 136.492 83.64 137.281 83.715 138.292 83.741 139.557 82.124 139 82.124 141.398 84.577 142.234 84.577 141.746 84.577 141.196 84.577 140.499 84.577 139.694 84.577 138.823 84.577 137.927 84.577 137.048 84.546 136.206 84.455 135.406 84.307 134.664 84.103 133.995 83.847 133.415 83.542 132.939 83.19 132.583 82.793 132.364 82.354 132.237 81.924 132.166 81.52 132.175 80.845 132.528 80.605 132.92 80.45 133.49 80.395 134.26 80.39 135.296 80.378 136.535 80.36 137.872 80.339 139.202 80.319 140.419 80.3 141.419 80.288 142.096"/><line id="_212925240" x1="117.2" x2="120.378" y1="176.363" y2="176.363" fill="none" stroke="#000" stroke-width=".1"/><line id="_212924664" x1="120.378" x2="121.94" y1="176.363" y2="173.631" fill="none" stroke="#000" stroke-width=".1"/><line id="_212924088" x1="117.2" x2="115.638" y1="176.363" y2="173.631" fill="none" stroke="#000" stroke-width=".1"/><line id="_212923512" x1="117.2" x2="120.378" y1="170.897" y2="170.897" fill="none" stroke="#000" stroke-width=".1"/><line id="_212922936" x1="120.378" x2="121.94" y1="170.897" y2="173.631" fill="none" stroke="#000" stroke-width=".1"/><line id="_212922360" x1="117.2" x2="115.638" y1="170.897" y2="173.631" fill="none" stroke="#000" stroke-width=".1"/><polygon id="_212921976" fill="none" stroke="#000" stroke-width=".1" points="118.817 103.534 119.51 103.463 120.157 103.26 120.744 102.939 121.257 102.516 121.68 102.003 122.001 101.416 122.203 100.769 122.274 100.076 122.203 99.383 122.001 98.736 121.68 98.149 121.257 97.636 120.744 97.212 120.157 96.892 119.51 96.689 118.817 96.618 118.124 96.689 117.477 96.892 116.89 97.212 116.377 97.636 115.954 98.149 115.633 98.736 115.431 99.383 115.36 100.076 115.431 100.769 115.633 101.416 115.954 102.003 116.377 102.516 116.89 102.939 117.477 103.26 118.124 103.463"/><line id="_212921400" x1="117.2" x2="120.378" y1="102.808" y2="102.808" fill="none" stroke="#000" stroke-width=".1"/><line id="_212920824" x1="120.378" x2="121.94" y1="102.808" y2="100.076" fill="none" stroke="#000" stroke-width=".1"/><line id="_212920248" x1="117.2" x2="115.638" y1="102.808" y2="100.076" fill="none" stroke="#000" stroke-width=".1"/><line id="_212919536" x1="117.2" x2="120.378" y1="97.344" y2="97.344" fill="none" stroke="#000" stroke-width=".1"/><line id="_212918960" x1="120.378" x2="121.94" y1="97.344" y2="100.076" fill="none" stroke="#000" stroke-width=".1"/><line id="_212918384" x1="117.2" x2="115.638" y1="97.344" y2="100.076" fill="none" stroke="#000" stroke-width=".1"/><polygon id="_212918000" fill="none" stroke="#000" stroke-width=".1" points="192.316 103.534 193.009 103.463 193.656 103.26 194.243 102.939 194.755 102.516 195.178 102.003 195.499 101.416 195.702 100.769 195.772 100.076 195.702 99.383 195.499 98.736 195.178 98.149 194.755 97.636 194.243 97.212 193.656 96.892 193.009 96.689 192.316 96.618 191.623 96.689 190.975 96.892 190.388 97.212 189.875 97.636 189.452 98.149 189.131 98.736 188.929 99.383 188.858 100.076 188.929 100.769 189.131 101.416 189.452 102.003 189.875 102.516 190.388 102.939 190.975 103.26 191.623 103.463"/><line id="_212917424" x1="193.876" x2="195.438" y1="102.808" y2="100.076" fill="none" stroke="#000" stroke-width=".1"/><line id="_212916848" x1="190.698" x2="189.136" y1="102.808" y2="100.076" fill="none" stroke="#000" stroke-width=".1"/><line id="_212916272" x1="190.698" x2="193.876" y1="97.344" y2="97.344" fill="none" stroke="#000" stroke-width=".1"/><line id="_212915696" x1="190.698" x2="193.876" y1="102.808" y2="102.808" fill="none" stroke="#000" stroke-width=".1"/><line id="_212915120" x1="190.698" x2="193.876" y1="176.363" y2="176.363" fill="none" stroke="#000" stroke-width=".1"/><line id="_212914544" x1="193.876" x2="195.438" y1="97.344" y2="100.076" fill="none" stroke="#000" stroke-width=".1"/><line id="_212913832" x1="190.698" x2="189.136" y1="97.344" y2="100.076" fill="none" stroke="#000" stroke-width=".1"/><polygon id="_212913448" fill="none" stroke="#000" stroke-width=".1" points="192.316 177.087 193.009 177.016 193.656 176.814 194.243 176.493 194.755 176.07 195.178 175.557 195.499 174.971 195.702 174.323 195.772 173.631 195.702 172.937 195.499 172.29 195.178 171.703 194.755 171.19 194.243 170.767 193.656 170.446 193.009 170.244 192.316 170.173 191.623 170.244 190.975 170.446 190.388 170.767 189.875 171.19 189.452 171.703 189.131 172.29 188.929 172.937 188.858 173.631 188.929 174.323 189.131 174.971 189.452 175.557 189.875 176.07 190.388 176.493 190.975 176.814 191.623 177.016"/><line id="_212912872" x1="193.876" x2="195.438" y1="176.363" y2="173.631" fill="none" stroke="#000" stroke-width=".1"/><line id="_212912296" x1="190.698" x2="189.136" y1="176.363" y2="173.631" fill="none" stroke="#000" stroke-width=".1"/><line id="_212911720" x1="190.698" x2="193.876" y1="170.897" y2="170.897" fill="none" stroke="#000" stroke-width=".1"/><line id="_211910440" x1="193.876" x2="195.438" y1="170.897" y2="173.631" fill="none" stroke="#000" stroke-width=".1"/><line id="_211910056" x1="190.698" x2="189.136" y1="170.897" y2="173.631" fill="none" stroke="#000" stroke-width=".1"/><polyline id="_211909672_1" fill="none" stroke="#000" stroke-width=".1" points="111.735 180.768 111.331 180.771 110.876 180.789 110.299 180.831 109.633 180.907 108.912 181.027 108.17 181.2 107.441 181.437 107.053 181.29 106.515 180.931 106.217 180.638 105.925 180.253 105.656 179.764"/><polyline id="_211908864_1" fill="none" stroke="#000" stroke-width=".1" points="111.345 93.496 111.283 92.702 111.226 92.185 111.146 91.606 111.039 91.002 110.901 90.411 110.731 89.871 110.616 89.411 110.597 88.993 110.787 88.288 111.186 87.761 111.679 87.417 112.212 87.241 112.676 87.18 113.096 87.189"/><polyline id="_211908480_1" fill="none" stroke="#000" stroke-width=".1" points="199.342 92.937 199.789 92.891 200.453 92.807 201.263 92.682 201.684 92.603 202.094 92.514 202.484 92.42 203.189 92.269 203.77 92.243 204.193 92.436 204.613 92.825 205.086 93.328 205.432 93.832"/><polyline id="_211907960_1" fill="none" stroke="#000" stroke-width=".1" points="198.114 186.512 198.689 186.537 199.23 186.272 199.565 186.01 199.877 185.72 200.269 185.158 200.408 184.625 200.361 184.126 200.191 183.608 200.072 183.205 199.941 182.726 199.808 182.211 199.683 181.705 199.576 181.249 199.453 180.657"/></g><g id="_212021576"><polygon id="_211907216" fill="none" stroke="#000" stroke-width=".1" points="263.193 153.442 273.313 153.385 283.313 153.385 292.976 153.233 302.003 153.019 310.214 152.773 317.428 152.528 323.467 152.313 328.151 152.162 331.3 152.104 333.674 151.839 336.081 151.058 338.413 149.784 340.564 148.041 342.424 145.85 343.886 143.235 344.843 140.219 345.185 136.824 344.843 133.432 343.886 130.423 342.424 127.817 340.564 125.637 338.413 123.903 336.081 122.638 333.674 121.864 331.3 121.601 328.151 121.543 323.467 121.392 317.428 121.177 310.214 120.931 302.003 120.686 292.976 120.471 283.313 120.32 280.719 120.307 278.182 120.299 275.686 120.294 273.212 120.291 270.744 120.287 268.263 120.282 265.752 120.274 263.193 120.262 252.684 120.145 241.92 119.823 231.18 119.345 220.742 118.757 210.884 118.106 201.884 117.439 194.022 116.804 187.576 116.247 181.877 115.808 176.222 115.482 170.831 115.253 165.924 115.104 161.724 115.017 158.45 114.977 156.324 114.965 155.566 114.965 151.169 115.41 147.069 116.686 143.357 118.705 140.12 121.378 137.447 124.615 135.429 128.327 134.152 132.427 133.707 136.824 134.152 141.224 135.429 145.33 137.447 149.052 140.12 152.299 143.357 154.982 147.069 157.009 151.169 158.292 155.566 158.74 156.324 158.739 158.45 158.727 161.724 158.687 165.924 158.6 170.831 158.451 176.222 158.222 181.877 157.896 187.576 157.457 194.022 156.9 201.884 156.265 210.884 155.599 220.742 154.948 231.18 154.36 241.92 153.881 252.684 153.56 263.193 153.442"/><polyline id="_211905016" fill="none" stroke="#000" stroke-width=".1" points="316.62 149.26 311.769 148.937 306.368 148.556 300.436 148.124 293.993 147.644 286.681 147.194 278.284 146.856 269.159 146.643 259.663 146.57 254.798 146.61 249.663 146.57 244.859 146.609 240.154 146.648 230.99 146.89 222.527 147.311 215.124 147.922 198.831 149.535 185.937 150.667 176.023 151.398 168.671 151.812 163.462 151.99 159.979 152.015 157.802 151.97 156.515 151.937 153.565 151.638 150.82 150.782 148.338 149.428 146.177 147.636 144.395 145.464 143.049 142.974 142.2 140.222 141.904 137.271 142.2 134.285 143.049 131.446 144.395 128.83 146.177 126.515 148.338 124.58 150.82 123.101 153.565 122.156 156.515 121.824 157.802 121.789 159.979 121.738 163.462 121.757 168.671 121.929 176.023 122.339 185.937 123.071 198.831 124.21 215.124 125.839 222.527 126.45 230.99 126.871 240.154 127.113 249.663 127.191 254.807 127.152 259.663 127.191 269.159 127.118 278.284 126.906 286.681 126.568 293.993 126.118 300.436 125.641 306.368 125.214 311.769 124.842 316.62 124.529"/><polyline id="_212025216" fill="none" stroke="#000" stroke-width=".1" points="288.858 151.442 278.993 151.442 269.234 151.436 259.234 151.436 248.028 151.733 234.378 152.516 219.496 153.624 204.597 154.893 190.896 156.162"/><polyline id="_212024832" fill="none" stroke="#000" stroke-width=".1" points="288.508 122.3 278.993 122.265 269.234 122.271 259.234 122.271 248.028 121.969 234.378 121.173 219.496 120.047 204.597 118.757 190.896 117.467"/><circle id="_212024280" cx="155.622" cy="136.853" r="12.297" fill="none" stroke="#000" stroke-width=".1"/><circle id="_212023728" cx="155.622" cy="136.853" r="10.958" fill="none" stroke="#000" stroke-width=".1"/><circle id="_212023176" cx="155.622" cy="136.853" r="8.332" fill="none" stroke="#000" stroke-width=".1"/><circle id="_212022488" cx="155.622" cy="136.853" r="7.556" fill="none" stroke="#000" stroke-width=".1"/><circle id="center_00" cx="155.622" cy="136.853" r="5" fill="none" stroke="#000" stroke-width=".1"/><circle id="_212021936" cx="330.622" cy="136.853" r="5" fill="none" stroke="#000" stroke-width=".1"/></g></g></svg>
