<svg xmlns="http://www.w3.org/2000/svg" width="297mm" height="210mm" viewBox="0 0 297 210"><g id="_tag_232_"><polygon id="simplify_217_1" fill="none" stroke="#000" stroke-width=".1" points="217.7 98.887 221.252 101.73 224.576 104.83 227.656 108.172 230.479 111.741 233.028 115.523 235.289 119.501 237.248 123.662 238.888 127.99 239.145 130.264 238.701 132.215 237.896 134.011 235.513 136.205 232.716 137.657 228.744 138.495 225.945 143.725 253.225 143.725 254.352 143.258 257.012 142 256.743 138.925 253.905 138.148 252.299 137.792 250.994 136.791 250.334 135.648 250.105 134.348 250.334 133.049 251.218 131.661 252.605 130.777 255.007 129.077 254.208 126.095 251.278 125.823 249.635 125.752 248.176 124.992 247.327 123.981 246.876 122.741 246.876 121.421 247.505 119.901 248.718 118.79 250.787 116.699 249.483 113.901 246.551 114.142 244.92 114.356 243.351 113.862 242.34 113.014 241.68 111.871 241.451 110.571 241.807 108.965 242.808 107.66 244.483 105.241 242.713 102.712 239.866 103.459 238.298 103.953 236.667 103.739 235.524 103.079 234.676 102.068 234.224 100.828 234.296 99.184 235.056 97.725 236.285 95.052 234.102 92.869 231.429 94.098 229.97 94.858 228.326 94.93 227.086 94.478 226.075 93.63 225.415 92.487 225.201 90.856 225.695 89.287 226.441 86.441 223.913 84.671 221.494 86.346 220.189 87.347 218.583 87.703 217.283 87.474 216.14 86.814 215.292 85.803 214.797 84.234 215.012 82.603 215.253 79.671 212.455 78.366 210.364 80.436 209.252 81.649 207.733 82.278 206.413 82.278 205.173 81.827 204.162 80.978 203.402 79.519 203.331 77.876 203.058 74.946 200.077 74.147 198.376 76.548 197.493 77.936 196.105 78.82 194.806 79.049 193.506 78.82 192.363 78.16 191.362 76.855 191.006 75.249 190.229 72.411 187.154 72.142 185.896 74.802 185.267 76.321 184.054 77.433 182.814 77.884 181.494 77.884 180.254 77.433 179.041 76.321 178.412 74.802 177.154 72.142 174.079 72.411 173.302 75.249 172.946 76.855 171.945 78.16 170.802 78.82 169.502 79.049 168.203 78.82 166.815 77.936 165.931 76.548 164.231 74.147 161.249 74.946 160.977 77.876 160.905 79.519 160.146 80.978 159.135 81.827 157.895 82.278 156.575 82.278 155.055 81.649 153.944 80.436 151.852 78.366 149.055 79.671 149.296 82.603 149.51 84.234 149.016 85.803 148.167 86.814 147.024 87.474 145.725 87.703 144.119 87.347 142.814 86.346 140.395 84.671 137.866 86.441 138.612 89.287 139.107 90.856 138.892 92.487 138.233 93.63 137.222 94.478 135.981 94.93 134.338 94.858 132.879 94.098 130.206 92.869 128.023 95.052 129.252 97.725 130.012 99.184 130.084 100.828 129.632 102.068 128.784 103.079 127.641 103.739 126.01 103.953 124.441 103.459 121.595 102.712 119.825 105.241 121.499 107.66 122.501 108.965 122.857 110.571 122.628 111.871 121.968 113.014 120.957 113.862 119.388 114.356 117.757 114.142 114.825 113.901 113.52 116.699 115.59 118.79 116.802 119.901 117.432 121.421 117.432 122.741 116.981 123.981 116.132 124.992 114.673 125.752 113.03 125.823 110.1 126.095 109.301 129.077 111.702 130.777 113.09 131.661 113.973 133.049 114.203 134.348 113.973 135.648 113.314 136.791 112.009 137.792 110.403 138.148 107.565 138.925 107.296 142 109.956 143.258 111.475 143.887 112.587 145.1 113.038 146.34 113.038 147.66 112.587 148.9 111.475 150.113 109.956 150.742 107.296 152 107.565 155.075 110.403 155.852 112.009 156.208 113.314 157.209 113.973 158.352 114.203 159.652 113.973 160.951 113.09 162.339 111.702 163.223 109.301 164.923 110.1 167.905 113.03 168.177 114.673 168.248 116.132 169.008 116.981 170.019 117.432 171.259 117.432 172.579 116.802 174.099 115.59 175.21 113.52 177.301 114.825 180.099 117.757 179.858 119.388 179.644 120.957 180.138 121.968 180.986 122.628 182.129 122.857 183.429 122.501 185.035 121.499 186.34 119.825 188.759 121.595 191.288 124.441 190.541 126.01 190.047 127.641 190.261 128.784 190.921 129.632 191.932 130.084 193.172 130.012 194.816 129.252 196.275 128.023 198.948 130.206 201.131 132.879 199.902 134.338 199.142 135.981 199.07 137.222 199.522 138.233 200.37 138.892 201.513 139.107 203.144 138.612 204.713 137.866 207.559 140.395 209.329 142.814 207.654 144.119 206.653 145.725 206.297 147.024 206.526 148.167 207.186 149.016 208.197 149.51 209.766 149.296 211.397 149.055 214.329 151.852 215.634 153.944 213.564 155.055 212.351 156.575 211.722 157.895 211.722 159.135 212.173 160.146 213.022 160.905 214.481 160.977 216.124 161.249 219.054 164.231 219.853 165.931 217.452 166.815 216.064 168.203 215.18 169.502 214.951 170.802 215.18 171.945 215.84 172.946 217.145 173.302 218.751 174.079 221.589 177.154 221.858 178.412 219.198 179.041 217.679 180.254 216.567 181.494 216.116 182.814 216.116 184.054 216.567 185.267 217.679 185.896 219.198 187.154 221.858 190.229 221.589 191.006 218.751 191.362 217.145 192.363 215.84 193.506 215.18 194.806 214.951 196.105 215.18 197.493 216.064 198.376 217.452 200.077 219.853 203.058 219.054 203.331 216.124 203.402 214.481 204.162 213.022 205.173 212.173 206.413 211.722 207.733 211.722 209.252 212.351 210.364 213.564 212.455 215.634 215.253 214.329 215.012 211.397 214.797 209.766 215.292 208.197 216.14 207.186 217.283 206.526 218.583 206.297 220.189 206.653 221.494 207.654 223.913 209.329 226.441 207.559 225.695 204.713 225.201 203.144 225.415 201.513 226.075 200.37 227.086 199.522 228.326 199.07 229.97 199.142 231.429 199.902 234.102 201.131 236.285 198.948 235.056 196.275 234.296 194.816 234.224 193.172 234.676 191.932 235.524 190.921 236.667 190.261 238.298 190.047 239.866 190.541 242.713 191.288 244.483 188.759 242.808 186.34 241.807 185.035 241.451 183.429 241.68 182.129 242.34 180.986 243.351 180.138 244.92 179.644 246.551 179.858 249.483 180.099 250.787 177.301 248.718 175.21 247.505 174.099 246.876 172.579 246.876 171.259 247.327 170.019 248.176 169.008 249.635 168.248 251.278 168.177 254.208 167.905 255.007 164.923 252.605 163.223 251.218 162.339 250.334 160.951 250.105 159.652 250.334 158.352 250.994 157.209 252.299 156.208 253.905 155.852 256.743 155.075 257.012 152 254.352 150.742 253.225 150.275 225.948 150.275 228.744 155.504 232.716 156.343 235.513 157.795 237.896 159.989 238.701 161.785 239.145 163.736 238.888 166.009 237.248 170.337 235.289 174.499 233.028 178.477 230.478 182.259 227.655 185.828 224.574 189.17 221.25 192.27 217.698 195.114 215.682 196.03 213.689 196.211 211.733 196 208.91 194.412 206.664 192.201 204.639 188.682 195.149 186.982 188.463 193.938 188.893 197.975 188.376 201.084 187.026 204.028 185.567 205.348 183.849 206.373 181.67 206.819 176.924 206.595 172.282 206.009 167.757 205.076 163.364 203.808 159.116 202.221 155.028 200.328 151.113 198.143 147.386 195.68 145.884 194.038 145.097 192.198 144.692 190.273 145.33 187.097 146.739 184.278 149.461 181.265 148.145 171.714 139.463 167.505 135.756 169.162 132.64 169.63 129.423 169.256 127.716 168.276 126.21 166.959 125.082 164.97 124.451 162.826 123.899 160.649 123.428 158.442 123.038 156.206 122.732 153.941 122.511 151.651 122.377 149.337 122.332 147 122.332 147 122.377 144.662 122.511 142.347 122.732 140.057 123.039 137.792 123.429 135.555 123.901 133.348 124.453 131.171 125.084 129.027 126.21 127.041 127.716 125.723 129.423 124.744 132.64 124.369 135.756 124.838 139.463 126.495 148.14 122.292 149.461 112.735 146.739 109.722 145.33 106.902 144.692 103.727 145.097 101.801 145.884 99.962 147.38 98.326 151.11 95.862 155.027 93.675 159.118 91.781 163.368 90.193 167.764 88.926 172.292 87.992 176.937 87.407 181.686 87.184 183.848 87.627 185.567 88.652 187.026 89.972 188.376 92.916 188.893 96.025 188.463 100.062 195.141 107.015 204.639 105.318 206.664 101.799 208.91 99.588 211.733 98 213.689 97.789 215.682 97.97 217.7 98.887" class="fil0 str0"/><g id="_tag_233_"><g id="_130839272_1"><polygon id="_130839272___0" fill="none" stroke="#000" stroke-width=".1" points="287.41 152.335 287.248 154.96 284.454 155.881 282.868 156.319 281.616 157.386 281.016 158.561 280.854 159.871 281.149 161.157 282.103 162.497 283.534 163.309 286.019 164.884 285.474 167.798 282.588 168.369 280.961 168.609 279.587 169.514 278.847 170.607 278.525 171.887 278.66 173.2 279.442 174.647 280.762 175.628 283.035 177.496 282.136 180.322 279.202 180.534 277.557 180.572 276.083 181.301 275.214 182.295 274.737 183.525 274.71 184.845 275.308 186.377 276.498 187.513 278.524 189.647 277.285 192.341 274.346 192.19 272.709 192.026 271.157 192.569 270.172 193.448 269.548 194.61 269.359 195.917 269.764 197.511 270.805 198.784 272.554 201.151 270.993 203.672 268.095 203.162 266.491 202.797 264.883 203.145 263.798 203.896 263.036 204.974 262.688 206.247 262.894 207.879 263.771 209.27 265.215 211.834 263.356 214.144 260.543 213.281 258.996 212.723 257.357 212.87 256.188 213.483 255.299 214.458 254.797 215.679 254.802 217.324 255.501 218.813 256.619 221.534 254.49 223.598 251.805 222.397 250.338 221.652 248.694 221.597 247.458 222.061 246.456 222.92 245.808 224.07 245.61 225.703 246.121 227.266 246.896 230.104 244.53 231.891 242.012 230.369 240.648 229.45 239.023 229.193 237.74 229.502 236.64 230.231 235.856 231.292 235.458 232.888 235.773 234.503 236.194 237.415 233.626 238.898 231.314 237.077 230.074 235.997 228.493 235.543 227.181 235.692 226 236.28 225.091 237.237 224.501 238.772 224.615 240.413 224.674 243.355 221.944 244.511 219.873 242.42 218.775 241.196 217.261 240.551 215.942 240.537 214.697 240.976 213.677 241.814 212.903 243.265 212.814 244.908 212.512 247.834 209.66 248.646 207.862 246.317 206.922 244.967 205.5 244.141 204.192 243.965 202.903 244.247 201.788 244.954 200.841 246.299 200.551 247.918 199.892 250.785 196.961 251.24 195.464 248.707 194.697 247.252 193.386 246.258 192.11 245.923 190.796 246.044 189.603 246.608 188.498 247.827 188.011 249.398 187.004 252.163 184.04 252.254 182.865 249.557 182.283 248.018 181.105 246.87 179.879 246.381 178.56 246.34 177.307 246.753 176.06 247.826 175.384 249.326 174.045 251.946 171.093 251.672 170.258 248.851 169.869 247.253 168.841 245.969 167.685 245.332 166.38 245.13 165.086 245.386 163.717 246.298 162.862 247.703 161.211 250.138 158.314 249.504 157.833 246.602 157.643 244.968 156.781 243.567 155.711 242.793 154.442 242.432 153.126 242.527 151.655 243.264 150.634 244.553 148.696 246.767 145.899 245.782 145.778 242.842 145.791 241.197 145.107 239.701 144.141 238.802 142.925 238.288 141.608 238.22 140.057 238.771 138.885 239.925 136.69 241.884 134.036 240.562 134.277 237.63 134.491 235.999 133.997 234.43 133.149 233.419 132.006 232.76 130.706 232.53 129.1 232.886 127.795 233.888 125.376 235.562 122.904 233.925 123.503 231.044 123.917 229.452 123.619 227.834 122.901 226.727 121.848 225.931 120.586 225.544 118.949 225.7 117.53 226.534 114.924 227.898 112.672 225.969 113.621 223.184 114.227 221.655 114.13 220.013 113.554 218.825 112.606 217.907 111.402 217.367 109.757 217.321 108.247 217.974 105.493 219.008 103.495 216.816 104.779 214.169 105.568 212.726 105.674 211.084 105.248 209.835 104.421 208.807 103.292 208.124 101.665 207.876 100.087 208.338 97.226 209.026 95.513 206.605 97.112 204.136 98.073 202.8 98.379 201.184 98.11 199.892 97.415 198.77 96.379 197.954 94.796 197.507 93.172 197.772 90.248 198.103 88.846 195.491 90.736 193.236 91.854 192.029 92.357 190.463 92.248 189.148 91.697 187.949 90.768 187.011 89.252 186.374 87.608 186.437 84.666 186.406 83.595 183.641 85.748 181.636 87.006 180.576 87.697 179.083 87.751 177.764 87.351 176.507 86.545 175.462 85.118 174.643 83.479 174.504 80.563 174.112 79.84 171.236 82.224 169.511 83.602 168.613 84.471 167.217 84.687 165.915 84.445 164.617 83.773 163.481 82.458 162.493 80.848 162.154 78.003 161.406 77.638 158.464 80.216 157.044 81.694 156.323 82.728 155.044 83.103 153.778 83.021 152.461 82.494 151.251 81.311 150.109 79.755 149.574 77.023 148.483 77.023 145.517 79.755 144.426 81.311 143.891 82.494 142.749 83.021 141.539 83.103 140.222 82.728 138.956 81.694 137.677 80.216 136.956 77.638 135.536 78.003 132.594 80.848 131.846 82.458 131.507 83.773 130.519 84.445 129.383 84.687 128.085 84.471 126.783 83.602 125.387 82.224 124.489 79.84 122.764 80.563 119.888 83.479 119.496 85.118 119.357 86.545 118.538 87.351 117.493 87.751 116.236 87.697 114.917 87.006 113.424 85.748 112.364 83.595 110.359 84.666 107.594 87.608 107.563 89.252 107.626 90.768 106.989 91.697 106.051 92.248 104.852 92.357 103.537 91.854 101.971 90.736 100.764 88.846 98.509 90.248 95.897 93.172 96.228 94.796 96.493 96.379 96.046 97.415 95.23 98.11 94.108 98.379 92.816 98.073 91.2 97.112 89.864 95.513 87.395 97.226 84.974 100.087 85.662 101.665 86.124 103.292 85.876 104.421 85.193 105.248 84.165 105.674 82.916 105.568 81.274 104.779 79.831 103.495 77.184 105.493 74.992 108.247 76.026 109.757 76.679 111.402 76.633 112.606 76.093 113.554 75.175 114.13 73.987 114.227 72.345 113.621 70.816 112.672 68.031 114.924 66.102 117.53 67.466 118.949 68.3 120.586 68.456 121.848 68.069 122.901 67.273 123.619 66.166 123.917 64.548 123.503 62.956 122.904 60.075 125.376 58.438 127.795 60.112 129.1 61.114 130.706 61.47 132.006 61.24 133.149 60.581 133.997 59.57 134.491 58.001 134.277 56.37 134.036 53.438 136.69 52.116 138.885 54.075 140.057 55.229 141.608 55.78 142.925 55.712 144.141 55.198 145.107 54.299 145.791 52.803 145.778 51.158 145.899 48.218 148.696 47.233 150.634 49.447 151.655 50.736 153.126 51.473 154.442 51.568 155.711 51.207 156.781 50.433 157.643 49.032 157.833 47.398 158.314 44.496 161.211 43.862 162.862 46.297 163.717 47.702 165.086 48.614 166.38 48.87 167.685 48.668 168.841 48.031 169.869 46.747 170.258 45.149 171.093 42.328 174.045 42.054 175.384 44.674 176.06 46.174 177.307 47.247 178.56 47.66 179.879 47.619 181.105 47.13 182.283 45.982 182.865 44.443 184.04 41.746 187.004 41.837 188.011 44.602 188.498 46.173 189.603 47.392 190.796 47.956 192.11 48.077 193.386 47.742 194.697 46.748 195.464 45.293 196.961 42.76 199.892 43.215 200.551 46.082 200.841 47.701 201.788 49.046 202.903 49.753 204.192 50.035 205.5 49.859 206.922 49.033 207.862 47.683 209.66 45.354 212.512 46.166 212.814 49.092 212.903 50.735 213.677 52.186 214.697 53.024 215.942 53.463 217.261 53.449 218.775 52.804 219.873 51.58 221.944 49.489 224.674 50.645 224.615 53.587 224.501 55.228 225.091 56.763 226 57.72 227.181 58.308 228.493 58.457 230.074 58.003 231.315 56.923 233.626 55.102 236.194 56.585 235.773 59.497 235.458 61.112 235.856 62.708 236.64 63.769 237.74 64.498 239.023 64.807 240.648 64.55 242.012 63.631 244.53 62.109 246.896 63.896 246.121 66.734 245.61 68.297 245.808 69.93 246.456 71.08 247.458 71.939 248.694 72.403 250.338 72.348 251.805 71.603 254.49 70.402 256.619 72.466 255.501 75.187 254.802 76.676 254.797 78.321 255.299 79.542 256.188 80.517 257.357 81.13 258.996 81.277 260.543 80.719 263.356 79.856 265.215 82.166 263.771 84.73 262.894 86.121 262.688 87.753 263.036 89.026 263.798 90.104 264.883 90.855 266.491 91.203 268.095 90.838 270.993 90.328 272.554 92.849 270.805 95.216 269.764 96.489 269.359 98.083 269.548 99.39 270.172 100.552 271.157 101.431 272.709 101.974 274.346 101.81 277.285 101.659 278.524 104.353 276.498 106.487 275.308 107.623 274.71 109.155 274.737 110.475 275.214 111.705 276.083 112.699 277.557 113.428 279.202 113.466 282.136 113.678 283.035 116.504 280.762 118.372 279.442 119.353 278.66 120.8 278.525 122.113 278.847 123.393 279.587 124.486 280.961 125.391 282.588 125.631 285.474 126.202 286.019 129.116 283.534 130.691 282.103 131.503 281.149 132.843 280.854 134.129 281.016 135.439 281.616 136.614 282.868 137.681 284.454 138.119 287.248 139.04 287.41 141.665 271.057 141.665 270.888 139.341 270.66 137.035 270.374 134.746 270.03 132.475 269.63 130.224 269.173 127.992 268.661 125.781 268.095 123.591 268.095 123.591 267.552 122.995 266.12 122.677 264.999 123.023 264.349 123.666 263.851 124.647 263.134 126.743 262.217 128.665 260.177 132.423 257.707 135.437 254.798 137.833 251.908 140.2 250.578 141.665 227.989 141.665 228.86 138.748 228.931 138.511 238.543 137.506 244.049 135.877 247.336 134.258 247.336 134.258 250.024 132.801 250.024 132.801 253.188 130.197 256.135 127.707 258.146 125.264 259.837 122.331 261.163 119.749 261.642 118.061 262.067 116.213 262.414 113.716 262.288 111.174 261.816 108.333 260.866 105.382 260.678 104.977 259.266 102.447 257.775 99.968 256.206 97.543 254.561 95.172 252.842 92.859 251.052 90.603 249.19 88.408 247.26 86.274 246.089 85.184 243.575 83.368 241.019 82.042 238.641 81.137 236.159 80.695 234.269 80.528 232.517 80.462 229.65 80.925 226.338 81.627 223.394 82.785 220.115 84.818 216.661 87.023 214.444 89.129 211.889 91.754 208.639 96.487 204.712 105.318 204.709 105.318 202.864 104.373 200.974 103.507 199.04 102.723 197.065 102.023 195.052 101.409 193.001 100.883 190.915 100.448 188.798 100.104 188.586 99.958 190.6 90.506 190.753 84.766 190.228 81.14 189.673 78.133 188.174 74.319 186.717 70.748 185.015 68.08 182.748 65.565 180.702 63.506 179.245 62.529 177.618 61.554 175.35 60.452 172.895 59.787 170.047 59.357 166.946 59.348 166.43 59.411 163.607 59.966 160.816 60.608 158.06 61.338 155.34 62.152 152.657 63.05 150.012 64.031 147.408 65.092 144.845 66.231 143.17 67.161 140.667 68.991 138.616 71.012 137.02 72.994 135.833 75.219 135.09 76.964 134.485 78.61 134.041 81.479 133.685 84.846 133.876 88.004 134.796 91.751 135.826 95.717 137.144 98.476 138.851 101.718 142.348 106.272 149.533 112.735 149.526 112.757 148.042 114.238 146.626 115.783 145.278 117.389 144 119.055 142.797 120.778 141.668 122.556 140.618 124.386 139.648 126.266 139.452 126.415 131.085 121.579 125.673 119.66 122.063 119.038 119.032 118.638 114.941 118.884 111.094 119.167 108.031 119.961 104.939 121.339 102.348 122.649 100.969 123.733 99.539 124.979 97.79 126.795 96.398 128.925 95.11 131.501 94.143 134.447 94.079 134.775 93.885 136.278 93.716 137.788 93.571 139.306 93.452 140.831 93.359 142.363 93.293 143.902 93.252 145.448 93.239 147 93.239 147 93.249 148.358 93.28 149.711 93.332 151.059 93.403 152.402 93.494 153.74 93.605 155.072 93.735 156.398 93.884 157.719 94.227 159.473 95.193 162.419 96.482 164.995 97.873 167.125 99.622 168.941 101.052 170.188 102.431 171.271 105.023 172.581 108.114 173.96 111.177 174.754 115.025 175.036 119.115 175.282 122.146 174.882 125.757 174.26 131.169 172.341 139.535 167.505 140.495 169.39 141.536 171.226 142.655 173.009 143.85 174.738 145.118 176.41 146.458 178.023 147.866 179.575 149.341 181.063 149.432 181.32 142.246 187.783 138.749 192.337 137.042 195.579 135.724 198.338 134.694 202.304 133.774 206.051 133.583 209.209 133.939 212.575 134.384 215.445 134.988 217.091 135.731 218.836 136.918 221.06 138.514 223.042 140.565 225.064 143.069 226.893 143.556 227.164 146.101 228.345 148.688 229.447 151.317 230.468 153.986 231.408 156.692 232.264 159.436 233.036 162.214 233.721 165.025 234.32 166.896 234.548 169.996 234.539 172.844 234.109 175.3 233.444 177.568 232.342 179.195 231.367 180.652 230.39 182.698 228.331 184.965 225.816 186.666 223.149 188.124 219.577 189.622 215.763 190.178 212.756 190.702 209.13 190.55 203.39 188.536 193.938 188.545 193.931 190.665 193.599 192.753 193.174 194.807 192.659 196.823 192.055 198.802 191.366 200.739 190.592 202.633 189.737 204.482 188.802 204.732 188.796 208.659 197.626 211.909 202.36 214.465 204.985 216.682 207.091 220.136 209.296 223.414 211.329 226.359 212.487 229.671 213.189 232.537 213.652 234.29 213.586 236.179 213.418 238.661 212.977 241.039 212.072 243.596 210.745 246.109 208.93 246.171 208.872 248.15 206.76 250.06 204.585 251.899 202.348 253.667 200.05 255.36 197.695 256.978 195.282 258.518 192.815 259.979 190.295 260.752 188.634 261.702 185.683 262.173 182.841 262.299 180.3 261.952 177.803 261.528 175.954 261.049 174.267 259.722 171.684 258.031 168.751 256.02 166.309 253.074 163.819 249.909 161.215 247.221 159.758 247.221 159.758 243.935 158.139 241.182 157.324 238.429 156.51 228.817 155.504 227.87 152.335 250.449 152.335 251.794 153.816 254.684 156.183 257.592 158.578 260.062 161.593 262.102 165.35 263.019 167.273 263.737 169.369 264.234 170.35 264.884 170.993 266.006 171.338 267.438 171.021 267.438 171.021 268.138 170.252 268.695 168.081 269.199 165.888 269.649 163.676 270.044 161.444 270.383 159.193 270.665 156.924 270.89 154.638 271.057 152.335 287.41 152.335" class="fil1 str0"/><polygon id="_130839272___1" fill="none" stroke="#000" stroke-width=".1" points="99.056 178.688 99.171 177.652 100.143 176.554 101.253 176.174 102.157 176.312 103.136 176.814 104.948 178.087 106.82 179.104 110.679 180.945 114.449 181.932 118.21 182.161 121.94 182.376 124.558 182.922 126.691 184.354 128.24 186.192 128.166 186.284 129.437 188.33 130.141 190.8 129.851 193.46 128.903 197.073 127.959 200.72 127.732 204.611 128.29 208.85 128.679 210.945 129.33 213.062 129.504 214.148 129.356 215.05 128.652 215.989 127.307 216.574 126.564 216.42 122.102 212.589 117.904 208.477 113.983 204.096 110.354 199.463 107.033 194.591 104.033 189.494 101.369 184.189 99.056 178.688" class="fil1 str0"/><polygon id="_130839272___2" fill="none" stroke="#000" stroke-width=".1" points="186.466 58.115 192.543 58.608 198.498 59.501 204.318 60.781 209.988 62.434 215.495 64.447 220.826 66.806 225.967 69.496 230.904 72.506 231.404 73.382 231.263 74.842 230.588 75.802 229.776 76.222 228.689 76.392 226.474 76.427 224.362 76.704 220.158 77.484 216.528 78.901 213.351 80.927 210.207 82.944 207.767 84.042 205.2 84.136 202.866 83.56 202.873 83.442 200.642 82.535 198.62 80.95 197.292 78.627 195.934 75.147 194.555 71.641 192.451 68.36 189.508 65.259 187.962 63.793 186.191 62.463 185.412 61.686 185.001 60.87 185.019 59.696 185.763 58.433 186.466 58.115" class="fil1 str0"/><polygon id="_130839272___3" fill="none" stroke="#000" stroke-width=".1" points="231.041 221.404 226.109 224.422 220.973 227.123 215.647 229.492 210.143 231.515 204.476 233.179 198.66 234.47 192.707 235.375 186.633 235.879 185.713 235.463 184.969 234.199 184.951 233.026 185.362 232.209 186.141 231.433 187.912 230.103 189.458 228.637 192.4 225.535 194.504 222.255 195.884 218.749 197.242 215.268 198.57 212.946 200.591 211.361 202.818 210.455 202.882 210.555 205.221 209.977 207.788 210.072 210.227 211.17 213.371 213.187 216.548 215.213 220.179 216.63 224.382 217.409 226.495 217.687 228.709 217.722 229.796 217.892 230.609 218.312 231.284 219.271 231.424 220.731 231.041 221.404" class="fil1 str0"/><polygon id="_130839272___4" fill="none" stroke="#000" stroke-width=".1" points="98.998 115.464 101.301 109.959 103.956 104.648 106.946 99.546 110.259 94.668 113.879 90.027 117.791 85.64 121.982 81.52 126.437 77.682 127.408 77.481 128.753 78.066 129.458 79.004 129.606 79.907 129.431 80.993 128.78 83.11 128.392 85.205 127.834 89.443 128.06 93.334 129.005 96.982 129.952 100.595 130.242 103.255 129.539 105.725 128.269 107.767 128.159 107.724 126.607 109.566 124.475 110.998 121.856 111.544 118.126 111.76 114.365 111.989 110.595 112.976 106.736 114.816 104.864 115.833 103.052 117.107 102.073 117.608 101.169 117.746 100.059 117.366 99.087 116.268 98.998 115.464" class="fil1 str0"/></g><polyline id="_130637784_1" fill="none" stroke="#000" stroke-width=".1" points="280.102 141.665 277.247 122.854 270.999 105.394 261.715 89.642 249.751 75.954 235.464 64.688 219.21 56.198 201.345 50.843 182.227 48.979 182.227 48.979 162.475 50.971 144.077 56.683 127.426 65.722 112.919 77.692 100.949 92.199 91.91 108.85 86.198 127.248 84.206 147 84.206 147 86.198 166.752 91.91 185.15 100.949 201.801 112.919 216.308 127.426 228.278 144.077 237.317 162.475 243.029 182.227 245.021 182.227 245.021 201.34 243.158 219.2 237.805 235.451 229.32 249.737 218.059 261.701 204.377 270.987 188.632 277.238 171.179 280.099 152.376" class="fil2 str1"/></g><polygon id="simplify_218_1" fill="none" stroke="#000" stroke-width=".1" points="198.916 123.467 199.18 124.84 200 126.286 201.855 127.137 207.081 128.587 214.609 129.895 221.795 130.627 227.902 131.007 272.463 132.356 313.061 133.177 324.355 133.2 335.617 132.749 342.665 132.007 348.118 131.081 354.416 130.233 357.154 130.014 359.394 130.16 361.791 130.655 364.579 131.719 367.105 133.234 368.947 134.776 370.636 136.668 371.749 138.307 372.655 140.047 372.755 140.318 372.856 140.589 372.956 140.86 373.056 141.131 373.156 141.402 373.256 141.673 373.356 141.944 373.456 142.215 373.971 144.596 374.14 147 373.971 149.403 373.456 151.784 373.356 152.055 373.256 152.326 373.156 152.597 373.056 152.868 372.956 153.139 372.856 153.41 372.755 153.681 372.655 153.953 371.749 155.692 370.636 157.331 368.947 159.223 367.105 160.766 364.579 162.28 361.791 163.344 359.394 163.839 357.154 163.986 354.416 163.766 348.118 162.918 342.665 161.992 335.617 161.251 324.355 160.799 313.061 160.822 272.463 161.643 227.902 162.992 221.794 163.372 214.609 164.104 207.081 165.412 201.855 166.862 200 167.713 199.18 169.159 198.916 170.532 199.698 174.945 201.35 180.815 201.604 181.597 203.061 185.428 204.571 188.657 204.477 188.755 202.622 189.695 200.727 190.553 198.796 191.328 196.831 192.018 194.835 192.623 192.811 193.14 190.762 193.568 188.69 193.905 188.485 193.869 187.814 190.368 186.738 186.376 186.499 185.64 184.385 179.92 182.234 175.499 180.04 172.046 178.752 170.269 177.58 169.235 176.32 168.389 175.341 167.966 174.3 167.733 172.784 167.677 171.228 167.825 169.142 168.506 165.337 170.009 160.998 172.321 155.926 175.706 155.26 176.19 152.067 178.759 149.462 181.192 149.34 181.133 147.873 179.659 146.472 178.123 145.138 176.526 143.874 174.87 142.682 173.159 141.565 171.393 140.525 169.577 139.564 167.711 139.535 167.505 142.657 165.784 146.12 163.528 146.747 163.073 151.534 159.295 155.074 155.883 157.679 152.729 158.971 150.955 159.593 149.521 160.008 148.061 160.108 147 160.008 145.938 159.593 144.478 158.971 143.044 157.679 141.27 155.074 138.117 151.534 134.704 146.747 130.926 146.08 130.441 142.651 128.2 139.532 126.474 139.551 126.34 140.499 124.49 141.527 122.682 142.634 120.92 143.818 119.206 145.077 117.544 146.411 115.936 147.818 114.385 149.295 112.894 149.482 112.803 152.083 115.241 155.299 117.838 155.926 118.293 160.998 121.678 165.337 123.991 169.142 125.494 171.228 126.174 172.784 126.322 174.3 126.266 175.341 126.033 176.32 125.61 176.32 125.61 177.58 124.764 178.752 123.73 180.04 121.953 182.234 118.501 184.385 114.079 186.499 108.359 186.754 107.577 187.827 103.621 188.504 100.121 188.637 100.098 190.69 100.428 192.727 100.847 194.745 101.355 196.741 101.952 198.711 102.636 200.652 103.407 202.562 104.266 204.436 105.21 204.58 105.36 203.066 108.587 201.59 112.447 201.35 113.184 199.698 119.055 198.916 123.467" class="fil0 str0"/><polygon id="simplify_219" cx="137.657" cy="179.329" fill="none" stroke="#000" stroke-width=".1" points="143.5 179.329 143.468 179.94 143.372 180.544 143.214 181.134 142.994 181.705 142.717 182.25 142.384 182.763 141.999 183.238 141.566 183.671 141.091 184.056 140.578 184.389 140.033 184.666 139.462 184.886 138.872 185.044 138.268 185.14 137.657 185.172 137.046 185.14 136.442 185.044 135.852 184.886 135.281 184.666 134.736 184.389 134.223 184.056 133.748 183.671 133.315 183.238 132.93 182.763 132.597 182.25 132.32 181.705 132.1 181.134 131.942 180.544 131.846 179.94 131.814 179.329 131.846 178.718 131.942 178.114 132.1 177.524 132.32 176.953 132.597 176.408 132.93 175.895 133.315 175.42 133.748 174.987 134.223 174.602 134.736 174.269 135.281 173.992 135.852 173.772 136.442 173.614 137.046 173.518 137.657 173.486 138.268 173.518 138.872 173.614 139.462 173.772 140.033 173.992 140.578 174.269 141.091 174.602 141.566 174.987 141.999 175.42 142.384 175.895 142.717 176.408 142.994 176.953 143.214 177.524 143.372 178.114 143.468 178.718"/><polygon id="simplify_220" cx="137.657" cy="179.329" fill="none" stroke="#000" stroke-width=".1" points="143.5 179.329 143.468 179.94 143.372 180.544 143.214 181.134 142.994 181.705 142.717 182.25 142.384 182.763 141.999 183.238 141.566 183.671 141.091 184.056 140.578 184.389 140.033 184.666 139.462 184.886 138.872 185.044 138.268 185.14 137.657 185.172 137.046 185.14 136.442 185.044 135.852 184.886 135.281 184.666 134.736 184.389 134.223 184.056 133.748 183.671 133.315 183.238 132.93 182.763 132.597 182.25 132.32 181.705 132.1 181.134 131.942 180.544 131.846 179.94 131.814 179.329 131.846 178.718 131.942 178.114 132.1 177.524 132.32 176.953 132.597 176.408 132.93 175.895 133.315 175.42 133.748 174.987 134.223 174.602 134.736 174.269 135.281 173.992 135.852 173.772 136.442 173.614 137.046 173.518 137.657 173.486 138.268 173.518 138.872 173.614 139.462 173.772 140.033 173.992 140.578 174.269 141.091 174.602 141.566 174.987 141.999 175.42 142.384 175.895 142.717 176.408 142.994 176.953 143.214 177.524 143.372 178.114 143.468 178.718"/><g id="_tag_234_"><polygon id="_130186344" fill="none" stroke="#000" stroke-width=".1" points="137.657 176.221 140.348 177.775 140.348 180.883 137.657 182.437 134.966 180.883 134.966 177.775"/><polygon id="_130600448" cx="137.657" cy="179.329" fill="none" stroke="#000" stroke-width=".1" points="143.5 179.329 143.468 179.94 143.372 180.544 143.214 181.134 142.994 181.705 142.717 182.25 142.384 182.763 141.999 183.238 141.566 183.671 141.091 184.056 140.578 184.389 140.033 184.666 139.462 184.886 138.872 185.044 138.268 185.14 137.657 185.172 137.046 185.14 136.442 185.044 135.852 184.886 135.281 184.666 134.736 184.389 134.223 184.056 133.748 183.671 133.315 183.238 132.93 182.763 132.597 182.25 132.32 181.705 132.1 181.134 131.942 180.544 131.846 179.94 131.814 179.329 131.846 178.718 131.942 178.114 132.1 177.524 132.32 176.953 132.597 176.408 132.93 175.895 133.315 175.42 133.748 174.987 134.223 174.602 134.736 174.269 135.281 173.992 135.852 173.772 136.442 173.614 137.046 173.518 137.657 173.486 138.268 173.518 138.872 173.614 139.462 173.772 140.033 173.992 140.578 174.269 141.091 174.602 141.566 174.987 141.999 175.42 142.384 175.895 142.717 176.408 142.994 176.953 143.214 177.524 143.372 178.114 143.468 178.718"/></g><polygon id="simplify_221" cx="137.657" cy="179.329" fill="none" stroke="#000" stroke-width=".1" points="143.5 179.329 143.468 179.94 143.372 180.544 143.214 181.134 142.994 181.705 142.717 182.25 142.384 182.763 141.999 183.238 141.566 183.671 141.091 184.056 140.578 184.389 140.033 184.666 139.462 184.886 138.872 185.044 138.268 185.14 137.657 185.172 137.046 185.14 136.442 185.044 135.852 184.886 135.281 184.666 134.736 184.389 134.223 184.056 133.748 183.671 133.315 183.238 132.93 182.763 132.597 182.25 132.32 181.705 132.1 181.134 131.942 180.544 131.846 179.94 131.814 179.329 131.846 178.718 131.942 178.114 132.1 177.524 132.32 176.953 132.597 176.408 132.93 175.895 133.315 175.42 133.748 174.987 134.223 174.602 134.736 174.269 135.281 173.992 135.852 173.772 136.442 173.614 137.046 173.518 137.657 173.486 138.268 173.518 138.872 173.614 139.462 173.772 140.033 173.992 140.578 174.269 141.091 174.602 141.566 174.987 141.999 175.42 142.384 175.895 142.717 176.408 142.994 176.953 143.214 177.524 143.372 178.114 143.468 178.718"/><g id="_tag_235_"><polygon id="_130620664" fill="none" stroke="#000" stroke-width=".1" points="137.657 176.221 140.348 177.775 140.348 180.883 137.657 182.437 134.966 180.883 134.966 177.775"/><polygon id="_130864128" cx="137.657" cy="179.329" fill="none" stroke="#000" stroke-width=".1" points="143.5 179.329 143.468 179.94 143.372 180.544 143.214 181.134 142.994 181.705 142.717 182.25 142.384 182.763 141.999 183.238 141.566 183.671 141.091 184.056 140.578 184.389 140.033 184.666 139.462 184.886 138.872 185.044 138.268 185.14 137.657 185.172 137.046 185.14 136.442 185.044 135.852 184.886 135.281 184.666 134.736 184.389 134.223 184.056 133.748 183.671 133.315 183.238 132.93 182.763 132.597 182.25 132.32 181.705 132.1 181.134 131.942 180.544 131.846 179.94 131.814 179.329 131.846 178.718 131.942 178.114 132.1 177.524 132.32 176.953 132.597 176.408 132.93 175.895 133.315 175.42 133.748 174.987 134.223 174.602 134.736 174.269 135.281 173.992 135.852 173.772 136.442 173.614 137.046 173.518 137.657 173.486 138.268 173.518 138.872 173.614 139.462 173.772 140.033 173.992 140.578 174.269 141.091 174.602 141.566 174.987 141.999 175.42 142.384 175.895 142.717 176.408 142.994 176.953 143.214 177.524 143.372 178.114 143.468 178.718"/></g><g id="_tag_236_"><polygon id="_130602352" cx="137.657" cy="179.329" fill="none" stroke="#000" stroke-width=".1" points="143.5 179.329 143.468 179.94 143.372 180.544 143.214 181.134 142.994 181.705 142.717 182.25 142.384 182.763 141.999 183.238 141.566 183.671 141.091 184.056 140.578 184.389 140.033 184.666 139.462 184.886 138.872 185.044 138.268 185.14 137.657 185.172 137.046 185.14 136.442 185.044 135.852 184.886 135.281 184.666 134.736 184.389 134.223 184.056 133.748 183.671 133.315 183.238 132.93 182.763 132.597 182.25 132.32 181.705 132.1 181.134 131.942 180.544 131.846 179.94 131.814 179.329 131.846 178.718 131.942 178.114 132.1 177.524 132.32 176.953 132.597 176.408 132.93 175.895 133.315 175.42 133.748 174.987 134.223 174.602 134.736 174.269 135.281 173.992 135.852 173.772 136.442 173.614 137.046 173.518 137.657 173.486 138.268 173.518 138.872 173.614 139.462 173.772 140.033 173.992 140.578 174.269 141.091 174.602 141.566 174.987 141.999 175.42 142.384 175.895 142.717 176.408 142.994 176.953 143.214 177.524 143.372 178.114 143.468 178.718"/><polygon id="_130820648" fill="none" stroke="#000" stroke-width=".1" points="137.657 176.221 140.348 177.775 140.348 180.883 137.657 182.437 134.966 180.883 134.966 177.775"/></g><g id="_tag_237_"><polygon id="_130599096" fill="none" stroke="#000" stroke-width=".1" points="200.955 193.752 201.526 193.972 202.071 194.249 202.584 194.582 203.059 194.967 203.492 195.4 203.877 195.875 204.21 196.388 204.487 196.933 204.707 197.504 204.865 198.094 204.961 198.698 204.993 199.309 204.961 199.92 204.865 200.524 204.707 201.114 204.487 201.685 204.21 202.23 203.877 202.743 203.492 203.218 203.059 203.651 202.584 204.036 202.071 204.369 201.526 204.646 200.955 204.866 200.365 205.024 199.761 205.12 199.15 205.152 198.539 205.12 197.935 205.024 197.345 204.866 196.774 204.646 196.229 204.369 195.716 204.036 195.241 203.651 194.808 203.218 194.423 202.743 194.09 202.23 193.813 201.685 193.593 201.114 193.435 200.524 193.339 199.92 193.307 199.309 193.339 198.698 193.435 198.094 193.593 197.504 193.813 196.933 194.09 196.388 194.423 195.875 194.808 195.4 195.241 194.967 195.716 194.582 196.229 194.249 196.774 193.972 197.345 193.752 197.935 193.594 198.539 193.498 199.15 193.466 199.761 193.498 200.365 193.594"/><polygon id="_129694680" fill="none" stroke="#000" stroke-width=".1" points="196.195 198.349 198.504 196.27 201.46 197.23 202.106 200.27 199.796 202.349 196.841 201.389"/></g><g id="_tag_238_"><polygon id="_130602280" fill="none" stroke="#000" stroke-width=".1" points="139.462 120.228 138.872 120.386 138.268 120.482 137.657 120.514 137.046 120.482 136.442 120.386 135.852 120.228 135.281 120.008 134.736 119.731 134.223 119.398 133.748 119.013 133.315 118.58 132.93 118.105 132.597 117.592 132.32 117.047 132.1 116.476 131.942 115.886 131.846 115.282 131.814 114.671 131.846 114.06 131.942 113.456 132.1 112.866 132.32 112.295 132.597 111.75 132.93 111.237 133.315 110.762 133.748 110.329 134.223 109.944 134.736 109.611 135.281 109.334 135.852 109.114 136.442 108.956 137.046 108.86 137.657 108.828 138.268 108.86 138.872 108.956 139.462 109.114 140.033 109.334 140.578 109.611 141.091 109.944 141.566 110.329 141.999 110.762 142.384 111.237 142.717 111.75 142.994 112.295 143.214 112.866 143.372 113.456 143.468 114.06 143.5 114.671 143.468 115.282 143.372 115.886 143.214 116.476 142.994 117.047 142.717 117.592 142.384 118.105 141.999 118.58 141.566 119.013 141.091 119.398 140.578 119.731 140.033 120.008"/><polygon id="_130623704" fill="none" stroke="#000" stroke-width=".1" points="140.613 113.711 139.967 116.751 137.011 117.711 134.702 115.631 135.348 112.592 138.303 111.631"/></g><g id="_tag_239_"><polygon id="_129199336" fill="none" stroke="#000" stroke-width=".1" points="194.423 98.125 194.09 97.612 193.813 97.067 193.593 96.496 193.435 95.905 193.339 95.301 193.307 94.691 193.339 94.08 193.435 93.476 193.593 92.885 193.813 92.314 194.09 91.769 194.423 91.257 194.808 90.781 195.241 90.349 195.716 89.964 196.229 89.631 196.774 89.353 197.345 89.134 197.935 88.976 198.539 88.88 199.15 88.848 199.761 88.88 200.365 88.976 200.955 89.134 201.526 89.353 202.071 89.631 202.584 89.964 203.059 90.349 203.492 90.781 203.877 91.257 204.21 91.769 204.487 92.314 204.707 92.885 204.865 93.476 204.961 94.08 204.993 94.691 204.961 95.301 204.865 95.905 204.707 96.496 204.487 97.067 204.21 97.612 203.877 98.125 203.492 98.6 203.059 99.033 202.584 99.417 202.071 99.751 201.526 100.028 200.955 100.247 200.365 100.406 199.761 100.501 199.15 100.533 198.539 100.501 197.935 100.406 197.345 100.247 196.774 100.028 196.229 99.751 195.716 99.417 195.241 99.033 194.808 98.6"/><polygon id="_129199312" fill="none" stroke="#000" stroke-width=".1" points="200.977 97.205 197.886 97.53 196.06 95.016 197.324 92.177 200.414 91.852 202.241 94.366"/></g><polygon id="simplify_222" cx="357.154" cy="147" fill="none" stroke="#000" stroke-width=".1" points="364.118 147 364.08 147.728 363.966 148.448 363.778 149.152 363.516 149.833 363.185 150.482 362.788 151.094 362.33 151.66 361.814 152.176 361.248 152.634 360.636 153.031 359.987 153.362 359.306 153.624 358.602 153.812 357.882 153.926 357.154 153.964 356.426 153.926 355.706 153.812 355.002 153.624 354.321 153.362 353.672 153.031 353.06 152.634 352.494 152.176 351.978 151.66 351.52 151.094 351.123 150.482 350.792 149.833 350.53 149.152 350.342 148.448 350.228 147.728 350.19 147 350.228 146.272 350.342 145.552 350.53 144.848 350.792 144.167 351.123 143.518 351.52 142.906 351.978 142.34 352.494 141.824 353.06 141.366 353.672 140.969 354.321 140.638 355.002 140.376 355.706 140.188 356.426 140.074 357.154 140.036 357.882 140.074 358.602 140.188 359.306 140.376 359.987 140.638 360.636 140.969 361.248 141.366 361.814 141.824 362.33 142.34 362.788 142.906 363.185 143.518 363.516 144.167 363.778 144.848 363.966 145.552 364.08 146.272"/><g id="simplify_223_1"><polyline id="simplify_223___0" fill="none" stroke="#000" stroke-width=".1" points="195.234 136.386 210 141.156 221.912 143.475 227.424 143.816" class="fil2 str0"/><polyline id="simplify_223___1" fill="none" stroke="#000" stroke-width=".1" points="318.482 140.086 330.908 138.326 341.712 135.689" class="fil2 str0"/><polyline id="simplify_223___2" fill="none" stroke="#000" stroke-width=".1" points="341.712 158.311 330.908 155.674 318.482 153.914" class="fil2 str0"/><polyline id="simplify_223___3" fill="none" stroke="#000" stroke-width=".1" points="227.424 150.184 221.912 150.525 210 152.845 195.234 157.614" class="fil2 str0"/></g><polyline id="simplify_224_1" fill="none" stroke="#000" stroke-width=".1" points="188.5 158.375 187.783 158.747 187.04 159.076 186.274 159.359 185.487 159.594 184.679 159.78 183.854 159.915 183.011 159.997 182.154 160.025 182.154 160.025 179.529 159.76 177.085 159.001 174.872 157.8 172.945 156.21 171.354 154.282 170.153 152.069 169.394 149.625 169.129 147 169.129 147 169.394 144.375 170.153 141.931 171.354 139.718 172.945 137.791 174.872 136.2 177.085 134.999 179.529 134.24 182.154 133.975 182.154 133.975 183.011 134.003 183.854 134.085 184.679 134.22 185.487 134.406 186.274 134.641 187.04 134.924 187.783 135.252 188.5 135.625" class="fil2 str0"/><polygon id="simplify_225" cx="182.154" cy="147" fill="none" stroke="#000" stroke-width=".1" points="192.422 147 192.366 148.073 192.198 149.135 191.92 150.173 191.535 151.176 191.047 152.134 190.461 153.036 189.785 153.871 189.025 154.631 188.19 155.307 187.288 155.893 186.33 156.381 185.327 156.766 184.289 157.044 183.227 157.212 182.154 157.268 181.081 157.212 180.019 157.044 178.981 156.766 177.978 156.381 177.02 155.893 176.118 155.307 175.283 154.631 174.523 153.871 173.847 153.036 173.261 152.134 172.773 151.176 172.388 150.173 172.11 149.135 171.942 148.073 171.886 147 171.942 145.927 172.11 144.865 172.388 143.827 172.773 142.824 173.261 141.866 173.847 140.964 174.523 140.129 175.283 139.369 176.118 138.693 177.02 138.107 177.978 137.619 178.981 137.234 180.019 136.956 181.081 136.788 182.154 136.732 183.227 136.788 184.289 136.956 185.327 137.234 186.33 137.619 187.288 138.107 188.19 138.693 189.025 139.369 189.785 140.129 190.461 140.964 191.047 141.866 191.535 142.824 191.92 143.827 192.198 144.865 192.366 145.927"/><polygon id="simplify_226" cx="182.154" cy="147" fill="none" stroke="#000" stroke-width=".1" points="188.504 147 188.469 147.664 188.365 148.32 188.193 148.962 187.955 149.583 187.653 150.175 187.291 150.732 186.873 151.249 186.403 151.719 185.886 152.137 185.329 152.499 184.737 152.801 184.116 153.039 183.474 153.211 182.818 153.315 182.154 153.35 181.49 153.315 180.834 153.211 180.192 153.039 179.571 152.801 178.979 152.499 178.422 152.137 177.905 151.719 177.435 151.249 177.017 150.732 176.655 150.175 176.353 149.583 176.115 148.962 175.943 148.32 175.839 147.664 175.804 147 175.839 146.336 175.943 145.68 176.115 145.038 176.353 144.417 176.655 143.825 177.017 143.268 177.435 142.751 177.905 142.281 178.422 141.863 178.979 141.501 179.571 141.199 180.192 140.961 180.834 140.789 181.49 140.685 182.154 140.65 182.818 140.685 183.474 140.789 184.116 140.961 184.737 141.199 185.329 141.501 185.886 141.863 186.403 142.281 186.873 142.751 187.291 143.268 187.653 143.825 187.955 144.417 188.193 145.038 188.365 145.68 188.469 146.336"/><polygon id="simplify_227" fill="none" stroke="#000" stroke-width=".1" points="182.227 142.647 185.997 144.824 185.997 149.176 182.227 151.353 178.458 149.176 178.458 144.824"/><g id="simplify_228_1"><polygon id="simplify_228___0" fill="none" stroke="#000" stroke-width=".1" points="215.249 79.716 215.253 79.671 212.455 78.366 210.364 80.436 209.252 81.649 207.733 82.278 206.413 82.278 205.173 81.827 204.162 80.978 203.402 79.519 203.331 77.876 203.058 74.946 200.077 74.147 198.376 76.548 197.492 77.936 197.116 78.176 197.292 78.627 198.62 80.95 200.642 82.535 202.873 83.442 202.866 83.56 205.2 84.136 207.767 84.042 210.207 82.944 213.351 80.927 215.249 79.716" class="fil0 str0"/><polygon id="simplify_228___1" fill="none" stroke="#000" stroke-width=".1" points="128.406 94.669 128.023 95.052 129.131 97.461 129.005 96.982 128.406 94.669" class="fil0 str0"/><polygon id="simplify_228___2" fill="none" stroke="#000" stroke-width=".1" points="130.002 101.051 129.632 102.068 128.784 103.079 127.641 103.739 126.01 103.953 124.441 103.459 121.595 102.712 119.825 105.241 121.499 107.66 122.501 108.965 122.857 110.571 122.717 111.365 124.475 110.998 126.607 109.566 128.16 107.724 128.27 107.767 129.539 105.725 130.243 103.254 130.002 101.051" class="fil0 str0"/><polygon id="simplify_228___3" fill="none" stroke="#000" stroke-width=".1" points="122.699 182.534 122.857 183.429 122.501 185.035 121.499 186.34 119.825 188.759 121.595 191.288 124.441 190.541 126.01 190.047 127.641 190.261 128.784 190.921 129.632 191.932 129.929 192.746 130.141 190.8 129.437 188.33 128.166 186.284 128.24 186.192 126.691 184.354 124.559 182.922 122.699 182.534" class="fil0 str0"/><polygon id="simplify_228___4" fill="none" stroke="#000" stroke-width=".1" points="128.927 196.982 128.023 198.948 128.337 199.262 128.903 197.073 128.927 196.982" class="fil0 str0"/><polygon id="simplify_228___5" fill="none" stroke="#000" stroke-width=".1" points="197.043 215.778 197.493 216.064 198.376 217.451 200.077 219.853 203.058 219.054 203.331 216.124 203.402 214.481 204.162 213.022 205.173 212.173 206.413 211.722 207.733 211.722 209.252 212.351 210.364 213.564 212.455 215.633 215.201 214.353 213.371 213.187 210.227 211.17 207.788 210.072 205.221 209.977 202.882 210.555 202.818 210.455 200.591 211.361 198.57 212.946 197.242 215.268 197.043 215.778" class="fil0 str0"/></g></g><polygon id="center_00" cx="182.154" cy="147" fill="none" stroke="#000" stroke-width=".1" points="188.504 147 188.469 147.664 188.365 148.32 188.193 148.962 187.955 149.583 187.653 150.175 187.291 150.732 186.873 151.249 186.403 151.719 185.886 152.137 185.329 152.499 184.737 152.801 184.116 153.039 183.474 153.211 182.818 153.315 182.154 153.35 181.49 153.315 180.834 153.211 180.192 153.039 179.571 152.801 178.979 152.499 178.422 152.137 177.905 151.719 177.435 151.249 177.017 150.732 176.655 150.175 176.353 149.583 176.115 148.962 175.943 148.32 175.839 147.664 175.804 147 175.839 146.336 175.943 145.68 176.115 145.038 176.353 144.417 176.655 143.825 177.017 143.268 177.435 142.751 177.905 142.281 178.422 141.863 178.979 141.501 179.571 141.199 180.192 140.961 180.834 140.789 181.49 140.685 182.154 140.65 182.818 140.685 183.474 140.789 184.116 140.961 184.737 141.199 185.329 141.501 185.886 141.863 186.403 142.281 186.873 142.751 187.291 143.268 187.653 143.825 187.955 144.417 188.193 145.038 188.365 145.68 188.469 146.336"/></svg>