<svg xmlns="http://www.w3.org/2000/svg" xmlns:svg="http://www.w3.org/2000/svg" id="svg2" width="297mm" height="210mm" version="1.1" viewBox="0 0 297 210"><metadata id="metadata67"/><polygon id="_190784808___1" points="-26.327 333.55 -25.256 332.418 -24.549 330.983 -24.185 329.408 -24.266 327.852 -24.69 326.357 -28.844 316.853 -42.086 334.539 -30.752 335.125 -29.176 334.984 -27.681 334.398" style="fill:none;stroke:#000;stroke-width:.1"/><polygon id="_190774008" points="196.909 6.322 195.758 5.251 194.404 4.403 192.909 3.898 191.353 3.675 189.777 3.898 188.282 4.403 186.928 5.251 185.777 6.322 -95.89 382.868 -98.113 386.222 -100.113 389.717 -101.749 393.354 -103.022 397.132 -103.952 401.052 -104.598 404.971 -104.881 408.952 -104.8 412.952 -104.376 416.952 -103.527 420.872 -102.457 424.711 -100.961 428.408 -99.183 432.045 -97.042 435.48 -94.678 438.672 -91.97 441.601 -89.061 444.39 -85.929 446.814 -82.576 449.017 -78.999 450.875 -75.302 452.431 -71.524 453.643 -67.604 454.573 -63.604 455.078 -59.624 455.28 -14.993 455.28 -14.993 441.096 -59.624 441.096 -63.119 440.894 -66.533 440.329 -69.887 439.399 -73.16 438.046 -76.151 436.328 -78.999 434.328 -81.646 431.984 -83.929 429.418 -85.99 426.57 -87.627 423.499 -88.98 420.286 -89.991 416.952 -90.556 413.457 -90.758 410.022 -90.617 407.537 -90.334 405.032 -89.849 402.547 -89.122 400.183 -88.273 397.839 -87.202 395.556 -85.99 393.414 -84.576 391.354 197.103 14.81 197.677 13.798 198.263 12.303 198.404 10.747 198.263 9.171 197.677 7.676" style="fill:none;stroke:#000;stroke-width:.1"/><polygon id="_190779144___0___0" points="75.017 170.683 75.017 173.108 74.957 173.815 74.593 175.108 73.886 176.239 72.876 177.169 71.663 177.815 70.31 178.098 68.956 177.957 67.683 177.533 67.178 177.25 -174.02 177.25 -174.02 177.25 -174.02 167.188 67.977 167.188" style="fill:none;stroke:#000;stroke-width:.1"/><g id="_190777896___0___0_1"><polyline style="fill:none;stroke:#000;stroke-width:.1" id="_190777896___0___0___0" points="64.895 171.33 65.036 172.32 65.319 173.33 65.764 174.239 66.39 175.108 67.178 175.896 68.027 176.462 68.956 176.947 69.966 177.169" class="fil0 str0"/><polygon id="_190777896___0___0___1" points="64.895 171.33" style="fill:none;stroke:#000;stroke-width:.1"/></g><line style="stroke:#000;stroke-width:.1" id="_190779144___0_0" x1="67.238" x2="69.097" y1="177.25" y2="177.25"/><polygon id="_190779360" points="66.531 174.967 67.683 175.755 68.956 176.179 70.31 176.32 71.663 176.037 72.876 175.391 73.886 174.462 74.593 173.33 74.957 172.037 74.957 170.683 74.593 169.33 73.886 168.198 72.876 167.269 71.663 166.622 70.31 166.339 68.956 166.481 67.683 166.905 66.531 167.693 65.683 168.764 65.117 169.976 64.895 171.33 65.117 172.684 65.683 173.896" style="fill:none;stroke:#000;stroke-width:.1"/><polygon id="_190783488" points="-29.257 326.498 -30.186 326.215 -31.176 326.276 -32.045 326.7 -32.671 327.428 -33.035 328.337 -33.035 329.266 -32.671 330.196 -32.045 330.903 -31.176 331.347 -30.186 331.408 -29.257 331.206 -28.469 330.62 -27.964 329.771 -27.822 328.842 -27.964 327.852 -28.469 327.064" style="fill:none;stroke:#000;stroke-width:.1"/><polygon id="_190784232___0___0_1" points="-53.785 306.112 -55.199 306.456 -56.492 307.244 -57.482 308.314 -58.189 309.608 -58.553 311.022 -58.553 312.517 -58.128 313.951 -58.037 314.103 -57.946 314.254 -57.855 314.406 -57.764 314.557 -57.674 314.709 -57.583 314.861 -57.492 315.012 -57.401 315.164 -56.351 316.235 -49.713 321.136 -42.935 312.093 -49.562 307.183 -49.562 307.183 -50.855 306.456 -52.269 306.112" style="fill:none;stroke:#000;stroke-width:.1"/><polygon id="_190784232___0___2" points="-49.562 307.183 -49.562 307.183" style="fill:none;stroke:#000;stroke-width:.1"/><polygon id="_190784808___2" points="-30.752 335.125 -30.752 335.125" style="fill:none;stroke:#000;stroke-width:.1"/><g id="_190784760___0___0_1"><polyline style="fill:none;stroke:#000;stroke-width:.1" id="_190784760___0___0___0" points="69.825 178.947 68.754 179.028 67.4 178.805 66.188 178.159 65.319 177.31 65.319 177.25" class="fil0 str0"/><polygon id="_190784760___0___0___1" points="69.825 178.947" style="fill:none;stroke:#000;stroke-width:.1"/></g><g id="_190785720___0___0_1"><polyline style="fill:none;stroke:#000;stroke-width:.1" id="_190785720___0___0___0" points="73.522 176.603 73.158 177.028 72.168 177.957 70.31 178.805 69.825 178.947" class="fil0 str0"/><polygon id="_190785720___0___0___1" points="73.522 176.603" style="fill:none;stroke:#000;stroke-width:.1"/></g><polygon id="_190779240" points="73.32 174.179 73.946 173.108 74.31 171.976 74.31 170.683 73.946 169.552 73.32 168.481 72.391 167.693 71.239 167.188 69.966 166.986 68.754 167.188 67.602 167.693 66.673 168.481 65.966 169.552 65.622 170.683 65.622 171.976 65.966 173.108 66.673 174.179 67.602 174.967 68.754 175.452 69.966 175.674 71.239 175.452 72.391 174.967" style="fill:none;stroke:#000;stroke-width:.1"/><polygon id="_190778424" points="67.602 170.4 67.966 172.886 70.31 173.815 72.31 172.259 71.946 169.754 69.603 168.825" style="fill:none;stroke:#000;stroke-width:.1"/><g id="_190780896___0___0_1"><polyline style="fill:none;stroke:#000;stroke-width:.1" id="_190780896___0___0___0" points="-174.02 161.349 -174.02 171.33 -172.444 171.33 -172.444 161.349" class="fil0 str0"/><polygon id="_190780896___0___0___1" points="-174.02 161.349" style="fill:none;stroke:#000;stroke-width:.1"/></g><g id="_190780896___0___1_1"><polyline style="fill:none;stroke:#000;stroke-width:.1" id="_190780896___0___1___0" points="-172.444 161.349 -174.02 161.349" class="fil0 str0"/><polygon id="_190780896___0___1___1" points="-172.444 161.349" style="fill:none;stroke:#000;stroke-width:.1"/></g><polygon id="_190780896___0___2" points="-172.444 161.349 -172.444 161.349" style="fill:none;stroke:#000;stroke-width:.1"/><g id="_190780224___0___0_1"><polygon id="_190780224___0___0___0" points="-98.315 185.291 -98.759 186.16 -99.385 186.928 -100.173 187.574 -101.022 187.998 -101.951 188.281 -102.962 188.423 -120.782 188.423 -121.772 188.281 -122.701 187.998 -123.55 187.574 -124.338 186.928 -124.984 186.16 -125.409 185.291 -125.691 184.362 -125.833 183.372 -125.833 177.25 -97.89 177.25 -97.89 177.25 -97.89 183.372 -98.032 184.362" style="fill:none;stroke:#000;stroke-width:.1"/></g><polygon id="_190780824" points="-109.508 182.382 -109.225 183.291 -109.366 184.301 -109.791 185.15 -110.518 185.796 -111.367 186.16 -112.357 186.16 -113.225 185.796 -113.933 185.15 -114.357 184.301 -114.498 183.291 -114.215 182.382 -113.65 181.594 -112.801 181.089 -111.872 180.947 -110.942 181.089 -110.074 181.594" style="fill:none;stroke:#000;stroke-width:.1"/><polygon id="_190780680" points="-117.771 182.382 -117.569 183.291 -117.63 184.301 -118.074 185.15 -118.782 185.796 -119.63 186.16 -120.64 186.16 -121.55 185.796 -122.277 185.15 -122.701 184.301 -122.762 183.291 -122.479 182.382 -121.913 181.594 -121.125 181.089 -120.135 180.947 -119.206 181.089 -118.357 181.594" style="fill:none;stroke:#000;stroke-width:.1"/><g id="_190781040___0___0_1"><polygon id="_190781040___0___0___0" points="-101.244 182.382 -100.962 183.291 -101.022 184.301 -101.467 185.15 -102.174 185.796 -103.103 186.16 -104.093 186.16 -104.942 185.796 -105.669 185.15 -106.093 184.301 -106.154 183.291 -105.952 182.382 -105.386 181.594 -104.517 181.089 -103.588 180.947 -102.598 181.089 -101.81 181.594 -101.244 182.382 -100.962 183.291 -100.962 183.594 -103.588 180.947 -102.598 181.089 -101.81 181.594" style="fill:none;stroke:#000;stroke-width:.1"/><polygon id="_190781040___0___0___1" points="-103.588 180.947" style="fill:none;stroke:#000;stroke-width:.1"/></g><g id="_190780920___0___0_1"><polyline style="fill:none;stroke:#000;stroke-width:.1" id="_190780920___0___0___0" points="-106.235 183.594 -106.154 183.291 -105.952 182.382 -105.386 181.594 -104.518 181.089 -103.588 180.947" class="fil0 str0"/><polygon id="_190780920___0___0___1" points="-106.235 183.594" style="fill:none;stroke:#000;stroke-width:.1"/></g><g id="_190781064___0___0_1"><polyline style="fill:none;stroke:#000;stroke-width:.1" id="_190781064___0___0___0" points="-111.872 180.947 -110.943 181.089 -110.074 181.594 -109.508 182.382 -109.225 183.291 -109.225 183.594" class="fil0 str0"/><polygon id="_190781064___0___0___1" points="-111.872 180.947" style="fill:none;stroke:#000;stroke-width:.1"/></g><g id="_190781376___0___0_1"><polyline style="fill:none;stroke:#000;stroke-width:.1" id="_190781376___0___0___0" points="-114.498 183.594 -114.498 183.291 -114.215 182.382 -113.649 181.594 -112.801 181.089 -111.871 180.947" class="fil0 str0"/><polygon id="_190781376___0___0___1" points="-114.498 183.594" style="fill:none;stroke:#000;stroke-width:.1"/></g><g id="_190781640___0___0_1"><polyline style="fill:none;stroke:#000;stroke-width:.1" id="_190781640___0___0___0" points="-120.135 180.947 -119.206 181.089 -118.357 181.594 -117.771 182.382 -117.569 183.291 -117.488 183.594" class="fil0 str0"/><polygon id="_190781640___0___0___1" points="-120.135 180.947" style="fill:none;stroke:#000;stroke-width:.1"/></g><g id="_190781856___0___0_1"><polyline style="fill:none;stroke:#000;stroke-width:.1" id="_190781856___0___0___0" points="-122.762 183.594 -122.762 183.291 -122.479 182.382 -121.913 181.594 -121.126 181.089 -120.136 180.947" class="fil0 str0"/><polygon id="_190781856___0___0___1" points="-122.762 183.594" style="fill:none;stroke:#000;stroke-width:.1"/></g><g id="_190781928___0___0_1"><polyline style="fill:none;stroke:#000;stroke-width:.1" id="_190781928___0___0___0" points="-97.89 183.372 -98.032 184.362 -98.315 185.291 -98.759 186.16 -99.386 186.928 -100.173 187.574 -101.022 187.998 -101.951 188.281 -102.962 188.423" class="fil0 str0"/><polygon id="_190781928___0___0___1" points="-97.89 183.372" style="fill:none;stroke:#000;stroke-width:.1"/></g><g id="_190782312___0___0_1"><polyline style="fill:none;stroke:#000;stroke-width:.1" id="_190782312___0___0___0" points="-120.782 188.423 -121.772 188.281 -122.701 187.998 -123.55 187.574 -124.338 186.928 -124.984 186.16 -125.409 185.291 -125.692 184.362 -125.833 183.372" class="fil0 str0"/><polygon id="_190782312___0___0___1" points="-120.782 188.423" style="fill:none;stroke:#000;stroke-width:.1"/></g><line style="stroke:#000;stroke-width:.1" id="_190782480" x1="-102.962" x2="-120.782" y1="188.423" y2="188.423"/><polygon id="_190783656" points="-51.784 309.325 -52.714 309.102 -53.704 309.183 -54.552 309.608 -55.199 310.315 -55.563 311.244 -55.563 312.173 -55.199 313.103 -54.552 313.81 -53.704 314.234 -52.714 314.315 -51.784 314.012 -50.996 313.446 -50.491 312.658 -50.35 311.668 -50.491 310.739 -50.996 309.89" style="fill:none;stroke:#000;stroke-width:.1"/><circle id="center_00" cx="-30.428" cy="328.812" r="5"/></svg>