<svg xmlns="http://www.w3.org/2000/svg" width="297mm" height="210mm" viewBox="0 0 297 210"><g id="Ebene_x0020_1"><g id="Ebene_x0020_1-4"><polygon id="_tag_260_" fill="none" stroke="#000" stroke-width=".1" points="136.442 152.808 133.016 155.225 128.544 157.861 124.152 158.901 115.906 159.132 55.267 162.063 49.201 162.374 44.669 162.821 40.496 161.71 37.548 158.929 34.5 154.428 31.315 149.743 27.99 145.527 22.532 141.176 8.248 136.609 4.181 139.265 16.466 146.394 24.931 152.16 28.374 157.225 31.457 162.272 35.132 166.129 38.751 168.429 43.87 170.208 49.582 170.556 57.687 170.522 120.642 167.174 125.563 166.514 129.013 164.993 131.743 163.239 139.079 158.363 145.993 154.617 154.815 151.663 167.548 148.281 185.721 145.893 180.97 139.821 174.543 139.588 160.702 144.316 145.386 148.633 140.389 150.562"/><polygon id="_tag_261_" fill="none" stroke="#000" stroke-width=".1" points="185.003 151.389 187.896 152.467 190.603 152.416 197.533 151.843 237.023 149.294 237.922 148.553 237.596 147.335 227.194 141.445 171.99 137.955 174.125 142.505 180.371 147.67"/><polygon id="_tag_262_" fill="none" stroke="#000" stroke-width=".1" points="-33.955 132.25 -34.887 130.57 -31.381 127.749 -2.235 134.35 1.126 141.18 .774 142.248 -.613 146.461 -25.652 141.435 -27.91 139.391"/><polygon id="_tag_263_" fill="none" stroke="#000" stroke-width=".1" points="245.562 136.771 242.584 132.875 236.598 129.225 228.346 126.532 216.388 123.863 200.426 121.455 188.647 120.15 176.635 119.129 160.633 118.179 146.617 117.844 132.134 117.841 109.218 118.137 86.935 117.966 66.407 117.444 46.535 116.652 13.662 114.719 -19.226 112.254 -21.202 112.486 -29.096 116.141 -36.236 121.427 -37.32 123.888 -37.363 127.141 -36.651 129.044 -35.559 130.355 -31.493 131.657 -27.183 135.636 -23.824 137.753 -20.014 139.115 -15.861 139.837 -6.852 140.743 5.507 141.754 15.461 143.578 27.045 146.478 38.547 150.1 49.699 153.018 60.798 153.957 67.307 152.096 77.085 147.563 92.727 140.285 97.219 138.385 102.593 137.408 108.68 136.891 134.755 137.604 151.573 138.794 171.594 140.482 190.087 142.886 193.726 144.312 198.378 147.957 200.689 149.101 237.596 147.335 242.122 147.096 244.187 145.076 245.422 142.395 246.429 139.437"/><polyline id="_tag_264__1" fill="none" stroke="#000" stroke-width=".1" points="-12.883 115.054 -.515 118.872 18.384 125.992 41.006 133.759 47.722 136.427 53.794 140.107 57.934 144.247 60.878 147.927 61.89 150.411 61.89 151.975"/><polyline id="_tag_265__1" fill="none" stroke="#000" stroke-width=".1" points="74.131 131.365 86.116 125.867 94.439 124.106 105.795 123.118 125.265 122.042 139.668 121.131 157.649 121.036 184.759 122.247 190.507 123.774"/><polyline id="_tag_266__1" fill="none" stroke="#000" stroke-width=".1" points="17.732 122.899 28.12 125.751 46.699 128.851 57.753 129.239 64.808 128.349 75.149 125.665"/><line id="_tag_267_" x1="60.645" x2="60.956" y1="164.177" y2="169.168" fill="none" stroke="#000" stroke-width=".1"/><line id="_tag_268_" x1="70.629" x2="70.94" y1="163.608" y2="168.599" fill="none" stroke="#000" stroke-width=".1"/><line id="_tag_269_" x1="80.613" x2="80.924" y1="163.039" y2="168.03" fill="none" stroke="#000" stroke-width=".1"/><line id="_tag_270_" x1="90.597" x2="90.908" y1="162.47" y2="167.461" fill="none" stroke="#000" stroke-width=".1"/><line id="_tag_271_" x1="100.581" x2="100.892" y1="161.901" y2="166.892" fill="none" stroke="#000" stroke-width=".1"/><polyline id="_tag_272__1" fill="none" stroke="#000" stroke-width=".1" points="119.147 134.686 144.313 134.281 164.24 134.085 184.79 134.72 200.707 135.972"/><circle id="center_00" cx="95.337" cy="118.031" r="14.855" fill="none" stroke="#000" stroke-width=".1"/><polyline id="_tag_274__1" fill="none" stroke="#000" stroke-width=".1" points="208.936 136.779 228.487 138.528 243.174 140.857 243.93 139.48"/></g><g id="_129821232-9"><polygon id="path159-4" fill="none" stroke="#000" stroke-width=".1" points="109.277 177.829 109.597 178.124 109.733 178.508 109.662 178.952 109.432 179.292 108.562 179.983 107.725 180.711 106.924 181.475 106.161 182.276 105.439 183.115 104.76 183.992 104.128 184.908 103.543 185.862 89.671 185.982 89.065 185.034 88.416 184.126 87.724 183.258 86.991 182.429 86.218 181.639 85.405 180.887 84.555 180.172 83.668 179.494 83.421 179.149 83.362 178.753 83.472 178.338 83.821 178.059 86.864 176.655 90.018 175.649 93.248 175.038 96.518 174.819 99.792 174.991 103.033 175.552 106.208 176.498"/><polyline id="path171-8_1" fill="none" stroke="#000" stroke-width=".1" points="102.499 185.872 91.265 185.969 91.278 186.378 91.458 186.917 92.027 187.332 92.518 187.407 93.311 187.386 94.431 187.366 95.756 187.347 97.164 187.332 98.535 187.32 99.747 187.31 100.677 187.303 101.205 187.3 101.668 187.242 102.234 186.869 102.452 186.369 102.481 185.938"/><polygon id="path1045-8" fill="none" stroke="#000" stroke-width=".1" points="91.95 155.772 92.857 155.83 93.687 155.81 94.632 155.766 95.59 155.703 96.459 155.63 97.138 155.553 97.653 155.392 97.515 154.978 96.957 154.797 96.568 154.703 96.126 154.604 95.67 154.514 95.238 154.444 94.6 154.414 94.026 154.536 93.284 154.781 92.593 155.05 92.167 155.248 91.83 155.507"/><polygon id="path1073-2" fill="none" stroke="#000" stroke-width=".1" points="88.858 170.979 88.824 170.109 88.787 169.194 88.75 168.325 88.715 167.592 88.686 167.087 88.456 166.545 87.937 166.295 87.231 166.239 86.442 166.28 82.483 166.455 79.489 166.612 77.325 166.752 75.858 166.879 74.952 166.995 74.473 167.101 74.586 175.46 74.778 175.841 75.181 175.977 81.267 175.749 82.382 175.125 83.271 174.648 84.178 174.199 85.099 173.78 86.035 173.391 86.984 173.032 87.943 172.705 88.91 172.41 88.885 171.714"/><polygon id="path1085-4" fill="none" stroke="#000" stroke-width=".1" points="104.338 172.525 105.304 172.805 106.255 173.118 107.191 173.462 108.113 173.838 109.022 174.245 109.918 174.682 116.362 174.479 116.743 174.312 116.882 173.933 116.557 165.77 116.371 165.389 104.199 165.732 103.713 165.702 103.293 165.728 102.65 165.944 102.271 166.37 102.153 166.996 102.18 167.475 102.212 168.172 102.247 169 102.281 169.872 102.312 170.702 102.337 171.402 102.354 171.885 103.357 172.279"/><polygon id="path1033-5" fill="none" stroke="#000" stroke-width=".1" points="100.766 155.386 107.458 156.501 115.365 156.855 115.797 157.085 115.96 160.658 115.811 161.076 115.387 161.523 114.546 161.795 113.789 161.845 112.669 161.912 111.315 161.984 109.855 162.045 108.418 162.083 107.138 162.084 106.141 162.036 105.555 161.924 105.001 161.54 104.555 161.086 104.032 160.609 103.683 160.377 103.244 160.156 102.767 159.996 102.212 159.907 101.59 159.882 100.914 159.915 100.192 159.998 99.438 160.126 98.663 160.291 97.877 160.486 97.179 160.663 96.636 160.786 96.215 160.863 95.618 160.928 95.136 160.941 94.483 160.97 94.004 160.995 93.411 160.977 92.99 160.93 92.445 160.846 91.742 160.718 90.935 160.579 90.144 160.469 89.381 160.396 88.654 160.365 87.972 160.384 87.348 160.458 86.789 160.594 86.307 160.799 85.9 161.061 85.579 161.322 85.103 161.831 84.691 162.308 84.157 162.731 83.574 162.891 82.577 163.02 81.294 163.121 79.855 163.195 78.39 163.245 77.03 163.272 75.905 163.28 75.144 163.269 74.656 163.22 74.02 162.902 73.726 162.474 73.628 161.597 73.626 161.079 73.632 160.575 73.642 160.109 73.655 159.704 73.675 159.177 74.199 158.502 73.679 159.102 73.81 158.718 82.06 157.541 88.654 155.904 89.082 155.767 89.457 155.567 89.77 155.295 90.01 154.943 90.218 154.5 90.35 154.119 90.668 153.849 98.654 153.516 99.055 153.642 99.275 154.019 99.453 154.387 99.678 154.743 99.996 155.028 100.363 155.241"/></g></g></svg>