<svg xmlns="http://www.w3.org/2000/svg" width="297mm" height="210mm" viewBox="0 0 297 210"><g id="_tag_69_"><g id="_tag_70_"><polygon id="polygon3025" fill="none" stroke="#000" stroke-width=".1" points="74.262 99.758 77.451 100.302 80.575 97.346 77.451 100.302 78.463 101.359 81.35 103.801 86.74 107.906 92.695 110.077 100.097 111.133 108.045 110.468 167.88 105.106 176.709 103.871 181.656 102.473 186.965 100.19 215.903 87.423 220.94 85.765 234.952 84.691 233.822 81.783 234.952 84.691 237.14 86.146 251.322 86.496 267.735 80.312 239.815 75.606 230.685 74.616 232.678 78.487 232.934 79.296 220.259 80.054 216.329 80.879 212.493 82.205 184.161 94.557 178.912 96.589 172.727 98.174 100.677 104.34 94.332 103.628 89.463 101.101 85.274 97.974 82.722 95.473 84.219 91.445 50.126 83.712"/><polygon id="polygon3027" fill="none" stroke="#000" stroke-width=".1" points="112.295 63.493 146.297 63.794 204.435 62.784 231.158 62.808 252.384 63.035 271.269 65.28 283.733 70.294 288.788 74.998 290.105 78.868 288.523 83.45 286.087 85.704 281.162 85.669 251.492 80.288 231.961 79.798 206.154 80.899 176.849 81.999 151.183 84.159 125.993 88.519 103.617 95.408 88.677 95.664 73.477 92.543 52.351 87.058 33.474 82.585 20.557 80.101 12.045 79.285 9.866 77.508 9.866 73.556 10.765 69.572 17.52 65.277 28.549 63.087 40.729 61.593 58.945 61.17 75.848 61.68"/></g><g id="_tag_71_"><polygon id="path159" fill="none" stroke="#000" stroke-width=".1" points="114.068 121.728 113.307 121.026 112.511 120.362 111.682 119.733 110.821 119.142 110.572 118.831 110.499 118.463 110.582 118.07 110.895 117.792 113.673 116.335 116.577 115.243 119.569 114.517 122.617 114.156 125.687 114.162 128.746 114.532 131.76 115.266 134.695 116.364 135.007 116.625 135.153 116.979 135.108 117.397 134.909 117.725 134.128 118.414 133.38 119.134 132.667 119.887 131.992 120.673 131.356 121.492 130.763 122.345 130.215 123.232 129.713 124.151 116.745 124.924 116.131 124.066 115.481 123.248 114.793 122.469"/><polygon id="path1045" fill="none" stroke="#000" stroke-width=".1" points="120.838 96.32 121.647 96.21 122.279 96.106 122.754 95.931 122.605 95.551 122.075 95.408 121.706 95.338 121.288 95.267 120.857 95.205 120.45 95.16 119.851 95.162 119.32 95.304 118.638 95.568 118.004 95.853 117.616 96.057 117.312 96.315 118.289 96.57 119.064 96.511 119.946 96.424"/><polygon id="path1073" fill="none" stroke="#000" stroke-width=".1" points="102.914 107.713 102.072 107.865 101.63 107.988 102.133 115.801 102.332 116.147 102.715 116.256 108.396 115.753 109.409 115.116 110.218 114.627 111.045 114.165 111.887 113.728 112.744 113.321 113.614 112.94 114.496 112.588 115.387 112.266 115.329 111.615 115.269 110.93 115.196 110.118 115.118 109.263 115.042 108.452 114.974 107.769 114.923 107.298 114.682 106.802 114.185 106.592 113.522 106.574 112.786 106.65 109.091 107.002 106.298 107.29 104.281 107.525"/><polygon id="path1085" fill="none" stroke="#000" stroke-width=".1" points="140.929 104.738 140.737 104.391 129.369 105.292 128.912 105.286 128.522 105.331 127.93 105.563 127.596 105.98 127.515 106.571 127.564 107.018 127.627 107.668 127.699 108.441 127.772 109.255 127.84 110.03 127.897 110.683 127.937 111.135 128.893 111.455 129.823 111.639 130.739 111.855 131.643 112.101 132.536 112.379 133.416 112.687 134.286 113.024 135.144 113.39 141.162 112.894 141.511 112.719 141.622 112.359"/><polygon id="path1033" fill="none" stroke="#000" stroke-width=".1" points="108.27 98.684 114.361 96.839 114.754 96.69 115.096 96.485 115.375 96.216 115.583 95.875 115.756 95.451 115.862 95.088 116.146 94.82 123.6 94.128 123.982 94.227 124.204 94.57 124.389 94.906 124.617 95.228 124.927 95.479 125.281 95.661 125.665 95.778 131.978 96.502 139.391 96.457 139.805 96.651 140.128 99.985 140.008 100.383 139.633 100.821 138.86 101.115 138.153 101.199 137.109 101.316 135.846 101.447 134.483 101.573 133.142 101.677 131.944 101.74 131.009 101.742 130.456 101.665 129.919 101.332 129.481 100.929 128.969 100.507 128.631 100.307 128.21 100.122 127.756 99.994 127.233 99.937 126.65 99.943 126.019 100.006 125.348 100.119 124.649 100.274 123.931 100.465 123.206 100.685 122.561 100.884 122.06 101.024 121.669 101.117 121.114 101.205 120.663 101.241 120.053 101.3 119.608 101.347 119.052 101.357 118.656 101.334 118.142 101.281 117.478 101.194 116.717 101.103 115.972 101.039 115.255 101.006 114.573 101.012 113.937 101.062 113.356 101.16 112.84 101.315 112.399 101.528 112.03 101.792 111.742 102.053 111.322 102.551 110.958 103.018 110.479 103.439 109.942 103.615 109.016 103.784 107.82 103.939 106.478 104.078 105.11 104.194 103.839 104.285 102.787 104.345 102.074 104.37 101.616 104.348 101.005 104.081 100.71 103.695 100.577 102.879 100.55 102.395 100.533 101.923 100.519 101.487 100.512 101.107 100.505 100.613 100.963 99.957 100.505 100.543 100.61 100.178"/></g><polygon id="center_00" cx="140.105" cy="63.739" fill="none" stroke="#000" stroke-width=".1" points="160.105 63.739 159.995 65.83 159.668 67.897 159.126 69.92 158.376 71.874 157.426 73.739 156.285 75.495 154.968 77.122 153.488 78.602 151.861 79.92 150.105 81.06 148.24 82.01 146.285 82.76 144.263 83.302 142.196 83.63 140.105 83.739 138.014 83.63 135.947 83.302 133.925 82.76 131.97 82.01 130.105 81.06 128.349 79.92 126.722 78.602 125.242 77.122 123.925 75.495 122.784 73.739 121.834 71.874 121.084 69.92 120.542 67.897 120.215 65.83 120.105 63.739 120.215 61.649 120.542 59.581 121.084 57.559 121.834 55.604 122.784 53.739 123.925 51.983 125.242 50.357 126.722 48.876 128.349 47.559 130.105 46.419 131.97 45.468 133.925 44.718 135.947 44.176 138.014 43.849 140.105 43.739 142.196 43.849 144.263 44.176 146.285 44.718 148.24 45.468 150.105 46.419 151.861 47.559 153.488 48.876 154.968 50.357 156.285 51.983 157.426 53.739 158.376 55.604 159.126 57.559 159.668 59.581 159.995 61.649"/></g></svg>