<svg xmlns="http://www.w3.org/2000/svg" width="297mm" height="210mm" viewBox="0 0 297 210"><polygon id="polygon10" fill="none" stroke="#000" stroke-width=".1" points="85.142 140.472 87.149 140.941 89.053 141.248 91.209 141.254 123.732 136.516 154.681 132.007 156.849 131.39 158.713 130.513 201.064 103.559 198.379 99.34 156.106 126.245 155.099 126.698 153.897 127.07 123.014 131.569 90.744 136.27 89.175 136.221 87.752 135.977 86.682 135.707 85.508 135.253 58.498 119.618 51.393 115.506 48.886 119.831 83.059 139.612"/><g id="_129821232"><polygon id="path159" fill="none" stroke="#000" stroke-width=".1" points="116.059 151.777 115.192 151.089 114.29 150.441 113.354 149.832 113.081 149.507 112.992 149.116 113.07 148.695 113.397 148.39 116.324 146.759 119.393 145.515 122.567 144.66 125.811 144.193 129.088 144.116 132.363 144.428 135.6 145.13 138.762 146.223 139.103 146.493 139.268 146.867 139.231 147.314 139.028 147.671 138.213 148.426 137.433 149.215 136.693 150.038 135.993 150.895 135.337 151.787 134.727 152.713 134.166 153.674 133.655 154.67 119.833 155.845 119.156 154.945 118.44 154.09 117.684 153.277 116.89 152.506"/><polyline id="path171_1_1" fill="none" stroke="#000" stroke-width=".1" points="132.615 154.759 121.421 155.71 121.465 156.117 121.686 156.641 122.284 157.011 122.78 157.049 123.569 156.967 124.684 156.862 126.004 156.743 127.407 156.621 128.773 156.504 129.98 156.402 130.907 156.324 131.433 156.281 131.891 156.188 132.427 155.773 132.606 155.258 132.602 154.826"/><polygon id="path1045" fill="none" stroke="#000" stroke-width=".1" points="124.292 125.064 124.963 124.936 125.465 124.736 125.296 124.334 124.726 124.196 124.33 124.132 123.882 124.067 123.421 124.012 122.985 123.975 122.346 123.993 121.783 124.159 121.062 124.459 120.393 124.78 119.984 125.009 119.667 125.293 120.716 125.538 121.542 125.455 122.481 125.338 123.431 125.203"/><polygon id="path1073" fill="none" stroke="#000" stroke-width=".1" points="103.712 138.032 103.243 138.175 103.991 146.501 104.212 146.866 104.624 146.971 110.675 146.281 111.739 145.574 112.589 145.03 113.459 144.514 114.346 144.026 115.25 143.567 116.168 143.137 117.1 142.738 118.042 142.37 117.964 141.677 117.881 140.947 117.781 140.082 117.674 139.172 117.571 138.308 117.481 137.581 117.413 137.08 117.143 136.557 116.606 136.347 115.898 136.345 115.114 136.446 111.18 136.921 108.207 137.305 106.06 137.61 104.607 137.848"/><polygon id="path1085" fill="none" stroke="#000" stroke-width=".1" points="144.889 133.281 132.778 134.548 132.291 134.555 131.875 134.613 131.25 134.877 130.904 135.331 130.834 135.964 130.898 136.44 130.983 137.132 131.081 137.955 131.181 138.822 131.275 139.647 131.353 140.343 131.407 140.824 132.437 141.14 133.434 141.311 134.418 141.517 135.39 141.756 136.35 142.028 137.298 142.333 138.235 142.669 139.162 143.037 145.571 142.344 145.939 142.149 146.048 141.761 145.103 133.646"/><polygon id="path1033" fill="none" stroke="#000" stroke-width=".1" points="116.531 125.931 116.947 125.762 117.306 125.534 117.597 125.239 117.81 124.87 117.983 124.412 118.086 124.022 118.382 123.728 126.32 122.789 126.73 122.884 126.977 123.243 127.183 123.597 127.435 123.935 127.773 124.195 128.155 124.379 128.568 124.494 135.326 125.096 143.237 124.848 143.685 125.044 144.119 128.594 144.002 129.022 143.614 129.5 142.796 129.835 142.045 129.943 140.933 130.096 139.588 130.27 138.137 130.442 136.708 130.589 135.431 130.688 134.433 130.715 133.841 130.648 133.259 130.307 132.78 129.889 132.222 129.453 131.856 129.248 131.402 129.061 130.914 128.938 130.354 128.891 129.732 128.913 129.06 128.998 128.347 129.136 127.605 129.321 126.844 129.544 126.076 129.798 125.393 130.028 124.861 130.191 124.447 130.301 123.857 130.41 123.377 130.46 122.728 130.539 122.253 130.601 121.66 130.627 121.237 130.613 120.687 130.571 119.976 130.496 119.161 130.419 118.364 130.37 117.597 130.355 116.87 130.38 116.192 130.45 115.575 130.571 115.028 130.75 114.563 130.99 114.177 131.282 113.877 131.567 113.441 132.111 113.066 132.618 112.566 133.081 111.997 133.284 111.013 133.489 109.741 133.687 108.312 133.871 106.855 134.032 105.501 134.163 104.38 134.255 103.62 134.302 103.13 134.291 102.471 134.022 102.146 133.618 101.981 132.751 101.94 132.234 101.908 131.731 101.882 131.266 101.864 130.861 101.844 130.334 102.315 129.621 101.842 130.259 101.944 129.866 110.08 128.065"/></g><g id="_130768296"><polygon id="_129541080" fill="none" stroke="#000" stroke-width=".1" points="18.3 99.101 18.451 100.868 18.666 102.381 18.943 103.684 19.278 104.824 19.665 105.847 20.102 106.797 20.585 107.722 21.108 108.667 21.108 108.667 21.739 109.645 22.546 110.641 23.53 111.663 24.69 112.716 26.029 113.809 27.545 114.946 29.24 116.135 31.115 117.382 31.115 117.382 33.158 118.661 35.365 119.944 37.741 121.237 40.291 122.544 43.021 123.873 45.938 125.228 49.047 126.615 52.353 128.04 52.353 128.04 55.679 129.397 58.819 130.58 61.741 131.596 64.411 132.454 66.797 133.159 68.866 133.72 70.584 134.143 71.919 134.436 71.919 134.436 73.788 134.777 75.955 135.11 78.311 135.423 80.745 135.701 83.145 135.933 85.401 136.105 87.402 136.205 89.037 136.22 89.037 136.22 88.551 133.645 88.065 131.069 87.579 128.493 87.093 125.918 86.607 123.342 86.121 120.767 85.635 118.191 85.149 115.616 37.192 97.367 18.3 99.101"/><polygon id="_131538080" fill="none" stroke="#000" stroke-width=".1" points="18.792 101.376 18.288 98.999 18.168 96.122 18.454 92.963 19.167 89.742 20.329 86.677 21.962 83.988 24.087 81.893 26.726 80.611 26.726 80.611 29.893 79.964 33.522 79.6 37.522 79.473 41.8 79.541 46.265 79.758 50.824 80.081 55.386 80.465 59.857 80.867 59.857 80.867 69.121 81.704 78.299 82.52 87.373 83.279 96.325 83.943 105.135 84.477 113.784 84.843 122.253 85.006 130.523 84.928 130.523 84.928 141.782 84.569 153.042 84.101 164.035 83.574 174.494 83.041 184.151 82.55 192.738 82.154 199.988 81.902 205.634 81.845 205.634 81.845 210.548 82.097 215.669 82.706 220.822 83.625 225.831 84.806 230.524 86.202 234.724 87.766 238.259 89.451 240.952 91.21 240.952 91.21 243.042 92.954 244.877 94.661 246.453 96.387 247.763 98.185 248.804 100.112 249.569 102.221 250.054 104.567 250.254 107.205 250.254 107.205 249.443 108.82 247.454 109.931 244.541 110.625 240.96 110.991 236.967 111.116 232.818 111.088 228.767 110.995 225.07 110.926 225.07 110.926 223.085 110.833 221.164 110.615 219.185 110.315 217.025 109.977 214.564 109.641 211.679 109.353 208.248 109.153 204.151 109.085 204.151 109.085 181.244 110.314 162.49 113.436 147.03 117.816 134.002 122.813 122.549 127.79 111.81 132.109 100.926 135.132 89.038 136.221 84.541 133.12 79.905 130.782 75.05 128.959 69.892 127.405 64.351 125.872 58.342 124.113 51.786 121.883 44.599 118.933 44.599 118.933 39.447 116.576 34.796 114.34 30.669 112.188 27.093 110.082 24.092 107.985 21.692 105.86 19.917 103.67 18.792 101.376"/></g><circle id="center_00" cx="116.59" cy="84.921" r="20.161" fill="none" stroke="#000" stroke-width=".1"/></svg>
