<svg xmlns="http://www.w3.org/2000/svg" width="297mm" height="210mm" viewBox="0 0 297 210"><g id="_tag_32_"><g id="_tag_33_"><polygon id="polygon3025" fill="none" stroke="#000" stroke-width=".1" points="74.262 99.758 77.451 100.302 80.575 97.346 77.451 100.302 78.463 101.359 81.35 103.801 86.74 107.906 92.695 110.077 100.097 111.133 108.045 110.468 167.88 105.106 176.709 103.871 181.656 102.473 186.965 100.19 215.903 87.423 220.94 85.765 234.952 84.691 233.822 81.783 234.952 84.691 237.14 86.146 251.322 86.496 267.735 80.312 239.815 75.606 230.685 74.616 232.678 78.487 232.934 79.296 220.259 80.054 216.329 80.879 212.493 82.205 184.161 94.557 178.912 96.589 172.727 98.174 100.677 104.34 94.332 103.628 89.463 101.101 85.274 97.974 82.722 95.473 84.219 91.445 50.126 83.712"/><polygon id="polygon3027" fill="none" stroke="#000" stroke-width=".1" points="112.295 63.493 146.297 63.794 204.435 62.784 231.158 62.808 252.384 63.035 271.269 65.28 283.733 70.294 288.788 74.998 290.105 78.868 288.523 83.45 286.087 85.704 281.162 85.669 251.492 80.288 231.961 79.798 206.154 80.899 176.849 81.999 151.183 84.159 125.993 88.519 103.617 95.408 88.677 95.664 73.477 92.543 52.351 87.058 33.474 82.585 20.557 80.101 12.045 79.285 9.866 77.508 9.866 73.556 10.765 69.572 17.52 65.277 28.549 63.087 40.729 61.593 58.945 61.17 75.848 61.68"/></g><g id="_tag_34_"><polygon id="path159" fill="none" stroke="#000" stroke-width=".1" points="129.068 121.728 128.307 121.026 127.511 120.362 126.682 119.733 125.821 119.142 125.572 118.831 125.499 118.463 125.582 118.07 125.895 117.792 128.673 116.335 131.577 115.243 134.569 114.517 137.617 114.156 140.687 114.162 143.746 114.532 146.76 115.266 149.695 116.364 150.007 116.625 150.153 116.979 150.108 117.397 149.909 117.725 149.128 118.414 148.38 119.134 147.667 119.887 146.992 120.673 146.356 121.492 145.763 122.345 145.215 123.232 144.713 124.151 131.744 124.924 131.131 124.066 130.481 123.248 129.793 122.469"/><polygon id="path1045" fill="none" stroke="#000" stroke-width=".1" points="135.838 96.32 136.648 96.21 137.279 96.106 137.754 95.931 137.605 95.551 137.075 95.408 136.706 95.338 136.288 95.267 135.857 95.205 135.45 95.16 134.851 95.162 134.32 95.304 133.638 95.568 133.004 95.853 132.616 96.057 132.312 96.315 133.289 96.57 134.064 96.511 134.946 96.424"/><polygon id="path1073" fill="none" stroke="#000" stroke-width=".1" points="117.914 107.713 117.072 107.865 116.63 107.988 117.133 115.801 117.332 116.147 117.715 116.256 123.396 115.753 124.409 115.116 125.218 114.627 126.045 114.165 126.887 113.728 127.744 113.321 128.614 112.94 129.496 112.588 130.387 112.266 130.329 111.615 130.269 110.93 130.196 110.118 130.118 109.263 130.042 108.452 129.974 107.769 129.923 107.298 129.682 106.802 129.185 106.592 128.522 106.574 127.786 106.65 124.091 107.002 121.298 107.29 119.281 107.525"/><polygon id="path1085" fill="none" stroke="#000" stroke-width=".1" points="155.929 104.738 155.737 104.391 144.369 105.292 143.912 105.286 143.522 105.331 142.93 105.563 142.596 105.98 142.515 106.571 142.564 107.018 142.627 107.668 142.699 108.441 142.772 109.255 142.84 110.03 142.897 110.683 142.937 111.135 143.893 111.455 144.823 111.639 145.739 111.855 146.643 112.101 147.536 112.379 148.417 112.687 149.286 113.024 150.144 113.39 156.162 112.894 156.511 112.719 156.622 112.359"/><polygon id="path1033" fill="none" stroke="#000" stroke-width=".1" points="123.27 98.684 129.361 96.839 129.754 96.69 130.096 96.485 130.375 96.216 130.583 95.875 130.756 95.451 130.862 95.088 131.146 94.82 138.6 94.128 138.982 94.227 139.204 94.57 139.389 94.906 139.617 95.228 139.927 95.479 140.28 95.661 140.665 95.778 146.978 96.502 154.391 96.457 154.805 96.651 155.128 99.985 155.008 100.383 154.633 100.821 153.86 101.115 153.153 101.199 152.109 101.316 150.846 101.447 149.483 101.573 148.142 101.677 146.944 101.74 146.009 101.742 145.456 101.665 144.919 101.332 144.481 100.929 143.969 100.507 143.631 100.307 143.21 100.122 142.756 99.994 142.233 99.937 141.65 99.943 141.018 100.006 140.348 100.119 139.649 100.274 138.931 100.465 138.206 100.685 137.561 100.884 137.06 101.024 136.669 101.117 136.114 101.205 135.663 101.241 135.053 101.3 134.608 101.347 134.052 101.357 133.656 101.334 133.142 101.281 132.478 101.194 131.717 101.103 130.972 101.039 130.255 101.006 129.573 101.012 128.937 101.062 128.356 101.16 127.84 101.315 127.399 101.528 127.03 101.792 126.742 102.053 126.322 102.551 125.958 103.018 125.479 103.439 124.942 103.615 124.016 103.784 122.82 103.939 121.478 104.078 120.11 104.194 118.839 104.285 117.787 104.345 117.074 104.37 116.616 104.348 116.005 104.081 115.71 103.695 115.577 102.879 115.55 102.395 115.533 101.923 115.519 101.487 115.512 101.107 115.505 100.613 115.963 99.957 115.505 100.543 115.61 100.178"/></g><polygon id="center_00" cx="140.105" cy="63.739" fill="none" stroke="#000" stroke-width=".1" points="160.105 63.739 159.995 65.83 159.668 67.897 159.126 69.92 158.376 71.874 157.426 73.739 156.285 75.495 154.968 77.122 153.488 78.602 151.861 79.92 150.105 81.06 148.24 82.01 146.285 82.76 144.263 83.302 142.196 83.63 140.105 83.739 138.014 83.63 135.947 83.302 133.925 82.76 131.97 82.01 130.105 81.06 128.349 79.92 126.722 78.602 125.242 77.122 123.925 75.495 122.784 73.739 121.834 71.874 121.084 69.92 120.542 67.897 120.215 65.83 120.105 63.739 120.215 61.649 120.542 59.581 121.084 57.559 121.834 55.604 122.784 53.739 123.925 51.983 125.242 50.357 126.722 48.876 128.349 47.559 130.105 46.419 131.97 45.468 133.925 44.718 135.947 44.176 138.014 43.849 140.105 43.739 142.196 43.849 144.263 44.176 146.285 44.718 148.24 45.468 150.105 46.419 151.861 47.559 153.488 48.876 154.968 50.357 156.285 51.983 157.426 53.739 158.376 55.604 159.126 57.559 159.668 59.581 159.995 61.649"/></g></svg>
