<svg xmlns="http://www.w3.org/2000/svg" width="297mm" height="210mm" viewBox="0 0 297 210"><g id="_tag_8_"><g id="_tag_9_"><polygon id="polygon3025" fill="none" stroke="#000" stroke-width=".1" points="74.262 99.758 77.451 100.302 80.575 97.346 77.451 100.302 78.463 101.359 81.35 103.801 86.74 107.906 92.695 110.077 100.097 111.133 108.045 110.468 167.88 105.106 176.709 103.871 181.656 102.473 186.965 100.19 215.903 87.423 220.94 85.765 234.952 84.691 233.822 81.783 234.952 84.691 237.14 86.146 251.322 86.496 267.735 80.312 239.815 75.606 230.685 74.616 232.678 78.487 232.934 79.296 220.259 80.054 216.329 80.879 212.493 82.205 184.161 94.557 178.912 96.589 172.727 98.174 100.677 104.34 94.332 103.628 89.463 101.101 85.274 97.974 82.722 95.473 84.219 91.445 50.126 83.712"/><polygon id="polygon3027" fill="none" stroke="#000" stroke-width=".1" points="112.295 63.493 146.297 63.794 204.435 62.784 231.158 62.808 252.384 63.035 271.269 65.28 283.733 70.294 288.788 74.998 290.105 78.868 288.523 83.45 286.087 85.704 281.162 85.669 251.492 80.288 231.961 79.798 206.154 80.899 176.849 81.999 151.183 84.159 125.993 88.519 103.617 95.408 88.677 95.664 73.477 92.543 52.351 87.058 33.474 82.585 20.557 80.101 12.045 79.285 9.866 77.508 9.866 73.556 10.765 69.572 17.52 65.277 28.549 63.087 40.729 61.593 58.945 61.17 75.848 61.68"/></g><g id="_tag_10_"><polygon id="path159" fill="none" stroke="#000" stroke-width=".1" points="134.068 121.728 133.307 121.026 132.511 120.362 131.682 119.733 130.821 119.142 130.572 118.831 130.499 118.463 130.582 118.07 130.895 117.792 133.673 116.335 136.577 115.243 139.569 114.517 142.617 114.156 145.687 114.162 148.746 114.532 151.76 115.266 154.695 116.364 155.007 116.625 155.153 116.979 155.108 117.397 154.909 117.725 154.128 118.414 153.38 119.134 152.667 119.887 151.992 120.673 151.356 121.492 150.763 122.345 150.215 123.232 149.713 124.151 136.744 124.924 136.131 124.066 135.481 123.248 134.793 122.469"/><polygon id="path1045" fill="none" stroke="#000" stroke-width=".1" points="140.838 96.32 141.648 96.21 142.279 96.106 142.754 95.931 142.605 95.551 142.075 95.408 141.706 95.338 141.288 95.267 140.857 95.205 140.45 95.16 139.851 95.162 139.32 95.304 138.638 95.568 138.004 95.853 137.616 96.057 137.312 96.315 138.289 96.57 139.064 96.511 139.946 96.424"/><polygon id="path1073" fill="none" stroke="#000" stroke-width=".1" points="122.914 107.713 122.072 107.865 121.63 107.988 122.133 115.801 122.332 116.147 122.715 116.256 128.396 115.753 129.409 115.116 130.218 114.627 131.045 114.165 131.887 113.728 132.744 113.321 133.614 112.94 134.496 112.588 135.387 112.266 135.329 111.615 135.269 110.93 135.196 110.118 135.118 109.263 135.042 108.452 134.974 107.769 134.923 107.298 134.682 106.802 134.185 106.592 133.522 106.574 132.786 106.65 129.091 107.002 126.298 107.29 124.281 107.525"/><polygon id="path1085" fill="none" stroke="#000" stroke-width=".1" points="160.929 104.738 160.737 104.391 149.369 105.292 148.912 105.286 148.522 105.331 147.93 105.563 147.596 105.98 147.515 106.571 147.564 107.018 147.627 107.668 147.699 108.441 147.772 109.255 147.84 110.03 147.897 110.683 147.937 111.135 148.893 111.455 149.823 111.639 150.739 111.855 151.643 112.101 152.536 112.379 153.417 112.687 154.286 113.024 155.144 113.39 161.162 112.894 161.511 112.719 161.622 112.359"/><polygon id="path1033" fill="none" stroke="#000" stroke-width=".1" points="128.27 98.684 134.361 96.839 134.754 96.69 135.096 96.485 135.375 96.216 135.583 95.875 135.756 95.451 135.862 95.088 136.146 94.82 143.6 94.128 143.982 94.227 144.204 94.57 144.389 94.906 144.617 95.228 144.927 95.479 145.28 95.661 145.665 95.778 151.978 96.502 159.391 96.457 159.805 96.651 160.128 99.985 160.008 100.383 159.633 100.821 158.86 101.115 158.153 101.199 157.109 101.316 155.846 101.447 154.483 101.573 153.142 101.677 151.944 101.74 151.009 101.742 150.456 101.665 149.919 101.332 149.481 100.929 148.969 100.507 148.631 100.307 148.21 100.122 147.756 99.994 147.233 99.937 146.65 99.943 146.018 100.006 145.348 100.119 144.649 100.274 143.931 100.465 143.206 100.685 142.561 100.884 142.06 101.024 141.669 101.117 141.114 101.205 140.663 101.241 140.053 101.3 139.608 101.347 139.052 101.357 138.656 101.334 138.142 101.281 137.478 101.194 136.717 101.103 135.972 101.039 135.255 101.006 134.573 101.012 133.937 101.062 133.356 101.16 132.84 101.315 132.399 101.528 132.03 101.792 131.742 102.053 131.322 102.551 130.958 103.018 130.479 103.439 129.942 103.615 129.016 103.784 127.82 103.939 126.478 104.078 125.11 104.194 123.839 104.285 122.787 104.345 122.074 104.37 121.616 104.348 121.005 104.081 120.71 103.695 120.577 102.879 120.55 102.395 120.533 101.923 120.519 101.487 120.512 101.107 120.505 100.613 120.963 99.957 120.505 100.543 120.61 100.178"/></g><polygon id="center_00" cx="140.105" cy="63.739" fill="none" stroke="#000" stroke-width=".1" points="160.105 63.739 159.995 65.83 159.668 67.897 159.126 69.92 158.376 71.874 157.426 73.739 156.285 75.495 154.968 77.122 153.488 78.602 151.861 79.92 150.105 81.06 148.24 82.01 146.285 82.76 144.263 83.302 142.196 83.63 140.105 83.739 138.014 83.63 135.947 83.302 133.925 82.76 131.97 82.01 130.105 81.06 128.349 79.92 126.722 78.602 125.242 77.122 123.925 75.495 122.784 73.739 121.834 71.874 121.084 69.92 120.542 67.897 120.215 65.83 120.105 63.739 120.215 61.649 120.542 59.581 121.084 57.559 121.834 55.604 122.784 53.739 123.925 51.983 125.242 50.357 126.722 48.876 128.349 47.559 130.105 46.419 131.97 45.468 133.925 44.718 135.947 44.176 138.014 43.849 140.105 43.739 142.196 43.849 144.263 44.176 146.285 44.718 148.24 45.468 150.105 46.419 151.861 47.559 153.488 48.876 154.968 50.357 156.285 51.983 157.426 53.739 158.376 55.604 159.126 57.559 159.668 59.581 159.995 61.649"/></g></svg>
