<svg xmlns="http://www.w3.org/2000/svg" width="210mm" height="297mm" viewBox="0 0 210 297" xml:space="preserve" style="shape-rendering:geometricPrecision;text-rendering:geometricPrecision;image-rendering:optimizeQuality;fill-rule:evenodd;clip-rule:evenodd"><defs><style type="text/css">.str1{stroke:#1f1a17;stroke-width:.0762}.str0{stroke:#000;stroke-width:.1}.fil0{fill:none}</style></defs><g id="Ebene_x0020_1"><g id="_tag_10_"><polygon id="polygon3025" points="24.059 196.526 27.248 197.07 30.372 194.114 27.248 197.07 28.261 198.127 31.147 200.569 36.537 204.674 42.493 206.845 49.895 207.901 57.842 207.236 117.677 201.874 126.507 200.639 131.454 199.241 136.763 196.958 165.7 184.191 170.738 182.533 184.749 181.459 183.619 178.551 184.749 181.459 186.937 182.914 201.12 183.264 217.532 177.08 189.613 172.374 180.483 171.384 182.476 175.255 182.731 176.064 170.056 176.822 166.126 177.647 162.29 178.973 133.959 191.325 128.71 193.357 122.525 194.942 50.475 201.108 44.13 200.396 39.26 197.869 35.072 194.742 32.519 192.241 34.016 188.213 -.077 180.48" class="fil0 str0"/><polygon id="polygon3027" points="62.092 160.261 96.094 160.562 154.233 159.552 180.955 159.576 202.181 159.803 221.067 162.048 233.53 167.062 238.585 171.766 239.902 175.636 238.32 180.218 235.884 182.472 230.959 182.437 201.289 177.056 181.758 176.566 155.951 177.667 126.646 178.767 100.98 180.927 75.79 185.287 53.415 192.176 38.474 192.432 23.275 189.311 2.149 183.826 -16.729 179.353 -29.645 176.869 -38.158 176.053 -40.337 174.276 -40.337 170.324 -39.438 166.34 -32.682 162.045 -21.654 159.855 -9.474 158.361 8.742 157.938 25.646 158.448" class="fil0 str0"/></g><g id="_tag_11_"><polygon id="path159" points="78.356 219.819 77.544 219.069 76.694 218.36 75.809 217.689 74.889 217.057 74.624 216.725 74.545 216.332 74.634 215.913 74.968 215.616 77.935 214.06 81.035 212.894 84.23 212.119 87.484 211.734 90.762 211.74 94.028 212.135 97.246 212.919 100.38 214.091 100.714 214.37 100.869 214.748 100.821 215.194 100.609 215.545 99.775 216.28 98.976 217.049 98.215 217.853 97.494 218.692 96.815 219.567 96.182 220.477 95.597 221.424 95.061 222.406 81.214 223.231 80.559 222.315 79.865 221.442 79.13 220.61" class="fil0 str0"/><polygon id="path1045" points="85.585 192.69 86.449 192.573 87.123 192.462 87.63 192.275 87.471 191.869 86.905 191.716 86.511 191.642 86.065 191.566 85.605 191.499 85.17 191.451 84.531 191.453 83.964 191.605 83.236 191.887 82.559 192.191 82.144 192.409 81.82 192.685 82.863 192.957 83.69 192.894 84.632 192.801" class="fil0 str0"/><polygon id="path1073" points="66.447 204.855 65.548 205.017 65.076 205.148 65.613 213.49 65.825 213.86 66.234 213.976 72.3 213.439 73.382 212.759 74.245 212.237 75.128 211.743 76.027 211.277 76.942 210.842 77.871 210.435 78.813 210.06 79.764 209.716 79.703 209.021 79.639 208.289 79.561 207.422 79.477 206.509 79.396 205.643 79.324 204.914 79.269 204.411 79.012 203.882 78.481 203.658 77.773 203.638 76.987 203.719 73.042 204.095 70.06 204.403 67.906 204.654" class="fil0 str0"/><polygon id="path1085" points="107.037 201.678 106.832 201.308 94.693 202.269 94.206 202.263 93.789 202.311 93.157 202.559 92.8 203.004 92.714 203.635 92.766 204.112 92.833 204.806 92.91 205.632 92.988 206.501 93.061 207.328 93.122 208.026 93.164 208.508 94.185 208.85 95.178 209.046 96.156 209.277 97.122 209.54 98.075 209.837 99.015 210.165 99.943 210.525 100.86 210.916 107.285 210.386 107.658 210.2 107.776 209.815" class="fil0 str0"/><polygon id="path1033" points="72.166 195.214 78.669 193.244 79.089 193.085 79.454 192.866 79.752 192.579 79.974 192.215 80.159 191.762 80.272 191.375 80.575 191.088 88.534 190.35 88.942 190.455 89.179 190.821 89.376 191.18 89.62 191.524 89.951 191.792 90.328 191.986 90.738 192.111 97.479 192.884 105.394 192.836 105.837 193.043 106.181 196.603 106.053 197.028 105.653 197.496 104.827 197.81 104.073 197.899 102.958 198.024 101.609 198.164 100.154 198.299 98.722 198.41 97.443 198.477 96.444 198.479 95.854 198.397 95.281 198.041 94.813 197.611 94.266 197.161 93.905 196.947 93.456 196.749 92.971 196.613 92.413 196.552 91.79 196.558 91.116 196.626 90.4 196.746 89.654 196.912 88.887 197.116 88.113 197.351 87.424 197.563 86.889 197.713 86.472 197.812 85.879 197.906 85.398 197.944 84.747 198.007 84.271 198.057 83.678 198.068 83.255 198.043 82.706 197.987 81.997 197.894 81.185 197.797 80.389 197.728 79.623 197.693 78.895 197.7 78.216 197.753 77.596 197.858 77.045 198.023 76.574 198.251 76.18 198.533 75.873 198.811 75.424 199.343 75.036 199.841 74.524 200.291 73.951 200.479 72.962 200.66 71.685 200.825 70.252 200.973 68.791 201.097 67.434 201.194 66.311 201.258 65.55 201.285 65.061 201.262 64.409 200.977 64.094 200.564 63.951 199.693 63.923 199.176 63.904 198.672 63.89 198.207 63.882 197.801 63.875 197.274 64.364 196.573 63.875 197.199 63.987 196.809" class="fil0 str0"/></g><circle id="center_00" cx="90.707" cy="160.514" r="20" class="fil0 str1"/></g></svg>
