<svg xmlns="http://www.w3.org/2000/svg" width="297mm" height="210mm" viewBox="0 0 297 210"><g id="_tag_9_"><g id="_tag_10_"><polygon id="center_00" cx="134.207" cy="117.014" fill="none" stroke="#000" stroke-width=".1" points="154.368 117.014 154.257 119.121 153.927 121.206 153.381 123.244 152.625 125.214 151.667 127.094 150.517 128.864 149.189 130.504 147.697 131.996 146.057 133.324 144.287 134.474 142.407 135.432 140.437 136.188 138.399 136.734 136.314 137.064 134.207 137.175 132.1 137.064 130.015 136.734 127.977 136.188 126.007 135.432 124.127 134.474 122.357 133.324 120.717 131.996 119.225 130.504 117.897 128.864 116.747 127.094 115.789 125.214 115.033 123.244 114.487 121.206 114.157 119.121 114.046 117.014 114.157 114.907 114.487 112.822 115.033 110.784 115.789 108.814 116.747 106.934 117.897 105.164 119.225 103.524 120.717 102.032 122.357 100.704 124.127 99.554 126.007 98.596 127.977 97.84 130.015 97.294 132.1 96.964 134.207 96.853 136.314 96.964 138.399 97.294 140.437 97.84 142.407 98.596 144.287 99.554 146.057 100.704 147.697 102.032 149.189 103.524 150.517 105.164 151.667 106.934 152.625 108.814 153.381 110.784 153.927 112.822 154.257 114.907"/><polygon id="polygon3025" fill="none" stroke="#000" stroke-width=".1" points="67.559 153.026 70.748 153.57 73.872 150.614 70.748 153.57 71.761 154.627 74.647 157.069 80.037 161.174 85.993 163.345 93.395 164.401 101.342 163.736 161.177 158.374 170.007 157.139 174.954 155.741 180.263 153.458 209.2 140.691 214.238 139.033 228.249 137.959 227.119 135.051 228.249 137.959 230.437 139.414 244.62 139.764 261.032 133.58 233.113 128.874 223.983 127.884 225.976 131.755 226.231 132.564 213.556 133.322 209.626 134.147 205.79 135.473 177.459 147.825 172.21 149.857 166.025 151.442 93.975 157.608 87.63 156.896 82.76 154.369 78.572 151.242 76.019 148.741 77.516 144.713 43.423 136.98"/><polygon id="polygon3027" fill="none" stroke="#000" stroke-width=".1" points="105.592 116.761 139.594 117.062 197.733 116.052 224.455 116.076 245.681 116.303 264.567 118.548 277.03 123.562 282.085 128.266 283.402 132.136 281.82 136.718 279.384 138.972 274.459 138.937 244.789 133.556 225.258 133.066 199.451 134.167 170.146 135.267 144.48 137.427 119.29 141.787 96.915 148.676 81.974 148.932 66.775 145.811 45.649 140.326 26.771 135.853 13.855 133.369 5.342 132.553 3.163 130.776 3.163 126.824 4.062 122.84 10.818 118.545 21.846 116.355 34.026 114.861 52.242 114.438 69.146 114.948"/></g><g id="_tag_11_"><polygon id="path159" fill="none" stroke="#000" stroke-width=".1" points="126.939 176.311 126.127 175.561 125.277 174.852 124.392 174.181 123.472 173.549 123.207 173.217 123.128 172.824 123.217 172.405 123.551 172.108 126.518 170.552 129.618 169.386 132.813 168.611 136.067 168.226 139.345 168.232 142.611 168.627 145.829 169.411 148.963 170.583 149.297 170.862 149.452 171.24 149.404 171.686 149.192 172.037 148.358 172.772 147.559 173.541 146.798 174.345 146.077 175.184 145.398 176.059 144.765 176.969 144.18 177.916 143.644 178.898 129.797 179.723 129.142 178.807 128.448 177.934 127.713 177.102"/><g id="path171_1_1"><polyline id="path171_1___0" fill="none" stroke="#000" stroke-width=".1" points="142.602 178.961 131.388 179.629 131.421 180.037 131.629 180.566 132.217 180.951 132.712 181.002 133.503 180.94 134.62 180.863 135.943 180.777 137.349 180.691 138.717 180.608 139.926 180.537 140.855 180.482 141.382 180.453 141.842 180.371 142.389 179.97 142.58 179.46 142.587 179.028" class="fil0 str0"/><polygon id="path171_1___1" fill="none" stroke="#000" stroke-width=".1" points="142.602 178.961" class="fil0 str0"/></g><polygon id="path1045" fill="none" stroke="#000" stroke-width=".1" points="134.168 149.182 135.032 149.065 135.706 148.954 136.213 148.767 136.054 148.361 135.488 148.208 135.094 148.134 134.648 148.058 134.188 147.991 133.753 147.943 133.114 147.945 132.547 148.097 131.819 148.379 131.142 148.683 130.727 148.901 130.403 149.177 131.446 149.449 132.273 149.386 133.215 149.293"/><polygon id="path1073" fill="none" stroke="#000" stroke-width=".1" points="115.03 161.347 114.131 161.509 113.659 161.64 114.196 169.982 114.408 170.352 114.817 170.468 120.883 169.931 121.965 169.251 122.828 168.729 123.711 168.235 124.61 167.769 125.525 167.334 126.454 166.927 127.396 166.552 128.347 166.208 128.286 165.513 128.222 164.781 128.144 163.914 128.06 163.001 127.979 162.135 127.907 161.406 127.852 160.903 127.595 160.374 127.064 160.15 126.356 160.13 125.57 160.211 121.625 160.587 118.643 160.895 116.489 161.146"/><polygon id="path1085" fill="none" stroke="#000" stroke-width=".1" points="155.62 158.17 155.415 157.8 143.276 158.761 142.789 158.755 142.372 158.803 141.74 159.051 141.383 159.496 141.297 160.127 141.349 160.604 141.416 161.298 141.493 162.124 141.571 162.993 141.644 163.82 141.705 164.518 141.747 165 142.768 165.342 143.761 165.538 144.739 165.769 145.705 166.032 146.658 166.329 147.598 166.657 148.526 167.017 149.443 167.408 155.868 166.878 156.241 166.692 156.359 166.307"/><polygon id="path1033" fill="none" stroke="#000" stroke-width=".1" points="120.749 151.706 127.252 149.736 127.672 149.577 128.037 149.358 128.335 149.071 128.557 148.707 128.742 148.254 128.855 147.867 129.158 147.58 137.117 146.842 137.525 146.947 137.762 147.313 137.959 147.672 138.203 148.016 138.534 148.284 138.911 148.478 139.321 148.603 146.062 149.376 153.977 149.328 154.42 149.535 154.764 153.095 154.636 153.52 154.236 153.988 153.41 154.302 152.656 154.391 151.541 154.516 150.192 154.656 148.737 154.791 147.305 154.902 146.026 154.969 145.027 154.971 144.437 154.889 143.864 154.533 143.396 154.103 142.849 153.653 142.488 153.439 142.039 153.241 141.554 153.105 140.996 153.044 140.373 153.05 139.699 153.118 138.983 153.238 138.237 153.404 137.47 153.608 136.696 153.843 136.007 154.055 135.472 154.205 135.055 154.304 134.462 154.398 133.981 154.436 133.33 154.499 132.854 154.549 132.261 154.56 131.838 154.535 131.289 154.479 130.58 154.386 129.768 154.289 128.972 154.22 128.206 154.185 127.478 154.192 126.799 154.245 126.179 154.35 125.628 154.515 125.157 154.743 124.763 155.025 124.456 155.303 124.007 155.835 123.619 156.333 123.107 156.783 122.534 156.971 121.545 157.152 120.268 157.317 118.835 157.465 117.374 157.589 116.017 157.686 114.894 157.75 114.133 157.777 113.644 157.754 112.992 157.469 112.677 157.056 112.534 156.185 112.506 155.668 112.487 155.164 112.473 154.699 112.465 154.293 112.458 153.766 112.947 153.065 112.458 153.691 112.57 153.301"/></g></g></svg>
