<svg xmlns="http://www.w3.org/2000/svg" width="297mm" height="210mm" viewBox="0 0 297 210"><g id="_tag_20_"><g id="_tag_21_"><polygon id="polygon3025" fill="none" stroke="#000" stroke-width=".1" points="74.262 99.758 77.451 100.302 80.575 97.346 77.451 100.302 78.463 101.359 81.35 103.801 86.74 107.906 92.695 110.077 100.097 111.133 108.045 110.468 167.88 105.106 176.709 103.871 181.656 102.473 186.965 100.19 215.903 87.423 220.94 85.765 234.952 84.691 233.822 81.783 234.952 84.691 237.14 86.146 251.322 86.496 267.735 80.312 239.815 75.606 230.685 74.616 232.678 78.487 232.934 79.296 220.259 80.054 216.329 80.879 212.493 82.205 184.161 94.557 178.912 96.589 172.727 98.174 100.677 104.34 94.332 103.628 89.463 101.101 85.274 97.974 82.722 95.473 84.219 91.445 50.126 83.712"/><polygon id="polygon3027" fill="none" stroke="#000" stroke-width=".1" points="112.295 63.493 146.297 63.794 204.435 62.784 231.158 62.808 252.384 63.035 271.269 65.28 283.733 70.294 288.788 74.998 290.105 78.868 288.523 83.45 286.087 85.704 281.162 85.669 251.492 80.288 231.961 79.798 206.154 80.899 176.849 81.999 151.183 84.159 125.993 88.519 103.617 95.408 88.677 95.664 73.477 92.543 52.351 87.058 33.474 82.585 20.557 80.101 12.045 79.285 9.866 77.508 9.866 73.556 10.765 69.572 17.52 65.277 28.549 63.087 40.729 61.593 58.945 61.17 75.848 61.68"/></g><g id="_tag_22_"><polygon id="path159" fill="none" stroke="#000" stroke-width=".1" points="139.068 121.728 138.307 121.026 137.511 120.362 136.682 119.733 135.821 119.142 135.572 118.831 135.499 118.463 135.582 118.07 135.895 117.792 138.673 116.335 141.577 115.243 144.569 114.517 147.617 114.156 150.687 114.162 153.746 114.532 156.76 115.266 159.695 116.364 160.007 116.625 160.153 116.979 160.108 117.397 159.909 117.725 159.128 118.414 158.38 119.134 157.667 119.887 156.992 120.673 156.356 121.492 155.763 122.345 155.215 123.232 154.713 124.151 141.744 124.924 141.131 124.066 140.481 123.248 139.793 122.469"/><polygon id="path1045" fill="none" stroke="#000" stroke-width=".1" points="145.838 96.32 146.648 96.21 147.279 96.106 147.754 95.931 147.605 95.551 147.075 95.408 146.706 95.338 146.288 95.267 145.857 95.205 145.45 95.16 144.851 95.162 144.32 95.304 143.638 95.568 143.004 95.853 142.616 96.057 142.312 96.315 143.289 96.57 144.064 96.511 144.946 96.424"/><polygon id="path1073" fill="none" stroke="#000" stroke-width=".1" points="127.914 107.713 127.072 107.865 126.63 107.988 127.133 115.801 127.332 116.147 127.715 116.256 133.396 115.753 134.409 115.116 135.218 114.627 136.045 114.165 136.887 113.728 137.744 113.321 138.614 112.94 139.496 112.588 140.387 112.266 140.329 111.615 140.269 110.93 140.196 110.118 140.118 109.263 140.042 108.452 139.974 107.769 139.923 107.298 139.682 106.802 139.185 106.592 138.522 106.574 137.786 106.65 134.091 107.002 131.298 107.29 129.281 107.525"/><polygon id="path1085" fill="none" stroke="#000" stroke-width=".1" points="165.929 104.738 165.737 104.391 154.369 105.292 153.912 105.286 153.522 105.331 152.93 105.563 152.596 105.98 152.515 106.571 152.564 107.018 152.627 107.668 152.699 108.441 152.772 109.255 152.84 110.03 152.897 110.683 152.937 111.135 153.893 111.455 154.823 111.639 155.739 111.855 156.643 112.101 157.536 112.379 158.417 112.687 159.286 113.024 160.144 113.39 166.162 112.894 166.511 112.719 166.622 112.359"/><polygon id="path1033" fill="none" stroke="#000" stroke-width=".1" points="133.27 98.684 139.361 96.839 139.754 96.69 140.096 96.485 140.375 96.216 140.583 95.875 140.756 95.451 140.862 95.088 141.146 94.82 148.6 94.128 148.982 94.227 149.204 94.57 149.389 94.906 149.617 95.228 149.927 95.479 150.28 95.661 150.665 95.778 156.978 96.502 164.391 96.457 164.805 96.651 165.128 99.985 165.008 100.383 164.633 100.821 163.86 101.115 163.153 101.199 162.109 101.316 160.846 101.447 159.483 101.573 158.142 101.677 156.944 101.74 156.009 101.742 155.456 101.665 154.919 101.332 154.481 100.929 153.969 100.507 153.631 100.307 153.21 100.122 152.756 99.994 152.233 99.937 151.65 99.943 151.018 100.006 150.348 100.119 149.649 100.274 148.931 100.465 148.206 100.685 147.561 100.884 147.06 101.024 146.669 101.117 146.114 101.205 145.663 101.241 145.053 101.3 144.608 101.347 144.052 101.357 143.656 101.334 143.142 101.281 142.478 101.194 141.717 101.103 140.972 101.039 140.255 101.006 139.573 101.012 138.937 101.062 138.356 101.16 137.84 101.315 137.399 101.528 137.03 101.792 136.742 102.053 136.322 102.551 135.958 103.018 135.479 103.439 134.942 103.615 134.016 103.784 132.82 103.939 131.478 104.078 130.11 104.194 128.839 104.285 127.787 104.345 127.074 104.37 126.616 104.348 126.005 104.081 125.71 103.695 125.577 102.879 125.55 102.395 125.533 101.923 125.519 101.487 125.512 101.107 125.505 100.613 125.963 99.957 125.505 100.543 125.61 100.178"/></g><polygon id="center_00" cx="140.105" cy="63.739" fill="none" stroke="#000" stroke-width=".1" points="160.105 63.739 159.995 65.83 159.668 67.897 159.126 69.92 158.376 71.874 157.426 73.739 156.285 75.495 154.968 77.122 153.488 78.602 151.861 79.92 150.105 81.06 148.24 82.01 146.285 82.76 144.263 83.302 142.196 83.63 140.105 83.739 138.014 83.63 135.947 83.302 133.925 82.76 131.97 82.01 130.105 81.06 128.349 79.92 126.722 78.602 125.242 77.122 123.925 75.495 122.784 73.739 121.834 71.874 121.084 69.92 120.542 67.897 120.215 65.83 120.105 63.739 120.215 61.649 120.542 59.581 121.084 57.559 121.834 55.604 122.784 53.739 123.925 51.983 125.242 50.357 126.722 48.876 128.349 47.559 130.105 46.419 131.97 45.468 133.925 44.718 135.947 44.176 138.014 43.849 140.105 43.739 142.196 43.849 144.263 44.176 146.285 44.718 148.24 45.468 150.105 46.419 151.861 47.559 153.488 48.876 154.968 50.357 156.285 51.983 157.426 53.739 158.376 55.604 159.126 57.559 159.668 59.581 159.995 61.649"/></g></svg>
