<svg xmlns="http://www.w3.org/2000/svg" width="297mm" height="210mm" viewBox="0 0 297 210"><g id="_tag_93_"><g id="_tag_94_"><polygon id="polygon3025" fill="none" stroke="#000" stroke-width=".1" points="74.262 99.758 77.451 100.302 80.575 97.346 77.451 100.302 78.463 101.359 81.35 103.801 86.74 107.906 92.695 110.077 100.097 111.133 108.045 110.468 167.88 105.106 176.709 103.871 181.656 102.473 186.965 100.19 215.903 87.423 220.94 85.765 234.952 84.691 233.822 81.783 234.952 84.691 237.14 86.146 251.322 86.496 267.735 80.312 239.815 75.606 230.685 74.616 232.678 78.487 232.934 79.296 220.259 80.054 216.329 80.879 212.493 82.205 184.161 94.557 178.912 96.589 172.727 98.174 100.677 104.34 94.332 103.628 89.463 101.101 85.274 97.974 82.722 95.473 84.219 91.445 50.126 83.712"/><polygon id="polygon3027" fill="none" stroke="#000" stroke-width=".1" points="112.295 63.493 146.297 63.794 204.435 62.784 231.158 62.808 252.384 63.035 271.269 65.28 283.733 70.294 288.788 74.998 290.105 78.868 288.523 83.45 286.087 85.704 281.162 85.669 251.492 80.288 231.961 79.798 206.154 80.899 176.849 81.999 151.183 84.159 125.993 88.519 103.617 95.408 88.677 95.664 73.477 92.543 52.351 87.058 33.474 82.585 20.557 80.101 12.045 79.285 9.866 77.508 9.866 73.556 10.765 69.572 17.52 65.277 28.549 63.087 40.729 61.593 58.945 61.17 75.848 61.68"/></g><g id="_tag_95_"><polygon id="path159" fill="none" stroke="#000" stroke-width=".1" points="142.207 121.728 141.446 121.026 140.65 120.362 139.821 119.733 138.96 119.142 138.712 118.831 138.637 118.463 138.721 118.07 139.034 117.792 141.813 116.335 144.716 115.243 147.708 114.517 150.756 114.156 153.826 114.162 156.885 114.532 159.899 115.266 162.834 116.364 163.146 116.625 163.292 116.979 163.247 117.397 163.048 117.725 162.267 118.414 161.519 119.134 160.806 119.887 160.131 120.673 159.495 121.492 158.902 122.345 158.354 123.232 157.852 124.151 144.884 124.924 144.27 124.066 143.62 123.248 142.932 122.469"/><polygon id="path1045" fill="none" stroke="#000" stroke-width=".1" points="148.977 96.32 149.786 96.21 150.418 96.106 150.893 95.931 150.744 95.551 150.214 95.408 149.845 95.338 149.427 95.267 148.996 95.205 148.589 95.16 147.99 95.162 147.459 95.304 146.777 95.568 146.143 95.853 145.755 96.057 145.451 96.315 146.428 96.57 147.202 96.511 148.085 96.424"/><polygon id="path1073" fill="none" stroke="#000" stroke-width=".1" points="131.053 107.713 130.211 107.865 129.769 107.988 130.272 115.801 130.471 116.147 130.854 116.256 136.535 115.753 137.548 115.116 138.357 114.627 139.184 114.165 140.025 113.728 140.882 113.321 141.753 112.94 142.635 112.588 143.525 112.266 143.468 111.615 143.408 110.93 143.335 110.118 143.257 109.263 143.181 108.452 143.113 107.769 143.062 107.298 142.821 106.802 142.324 106.592 141.661 106.574 140.925 106.65 137.23 107.002 134.437 107.29 132.42 107.525"/><polygon id="path1085" fill="none" stroke="#000" stroke-width=".1" points="169.068 104.738 168.876 104.391 157.508 105.292 157.052 105.286 156.661 105.331 156.069 105.563 155.735 105.98 155.654 106.571 155.703 107.018 155.766 107.668 155.838 108.441 155.911 109.255 155.979 110.03 156.036 110.683 156.076 111.135 157.032 111.455 157.962 111.639 158.878 111.855 159.783 112.101 160.675 112.379 161.555 112.687 162.425 113.024 163.283 113.39 169.301 112.894 169.65 112.719 169.761 112.359"/><polygon id="path1033" fill="none" stroke="#000" stroke-width=".1" points="136.409 98.684 142.5 96.839 142.893 96.69 143.235 96.485 143.514 96.216 143.722 95.875 143.896 95.451 144.001 95.088 144.285 94.82 151.739 94.128 152.121 94.227 152.343 94.57 152.528 94.906 152.756 95.228 153.066 95.479 153.42 95.661 153.804 95.778 160.117 96.502 167.53 96.457 167.945 96.651 168.267 99.985 168.147 100.383 167.772 100.821 166.999 101.115 166.292 101.199 165.248 101.316 163.985 101.447 162.622 101.573 161.281 101.677 160.083 101.74 159.148 101.742 158.595 101.665 158.058 101.332 157.62 100.929 157.108 100.507 156.77 100.307 156.349 100.122 155.895 99.994 155.372 99.937 154.789 99.943 154.158 100.006 153.487 100.119 152.788 100.274 152.07 100.465 151.345 100.685 150.7 100.884 150.199 101.024 149.808 101.117 149.253 101.205 148.802 101.241 148.192 101.3 147.747 101.347 147.191 101.357 146.795 101.334 146.281 101.281 145.617 101.194 144.856 101.103 144.111 101.039 143.393 101.006 142.712 101.012 142.076 101.062 141.495 101.16 140.979 101.315 140.538 101.528 140.169 101.792 139.881 102.053 139.461 102.551 139.097 103.018 138.618 103.439 138.081 103.615 137.155 103.784 135.959 103.939 134.617 104.078 133.249 104.194 131.978 104.285 130.926 104.345 130.213 104.37 129.755 104.348 129.144 104.081 128.849 103.695 128.715 102.879 128.689 102.395 128.672 101.923 128.658 101.487 128.651 101.107 128.644 100.613 129.102 99.957 128.644 100.543 128.749 100.178"/></g><polygon id="center_00" cx="140.105" cy="63.739" fill="none" stroke="#000" stroke-width=".1" points="160.105 63.739 159.995 65.83 159.668 67.897 159.126 69.92 158.376 71.874 157.426 73.739 156.285 75.495 154.968 77.122 153.488 78.602 151.861 79.92 150.105 81.06 148.24 82.01 146.285 82.76 144.263 83.302 142.196 83.63 140.105 83.739 138.014 83.63 135.947 83.302 133.925 82.76 131.97 82.01 130.105 81.06 128.349 79.92 126.722 78.602 125.242 77.122 123.925 75.495 122.784 73.739 121.834 71.874 121.084 69.92 120.542 67.897 120.215 65.83 120.105 63.739 120.215 61.649 120.542 59.581 121.084 57.559 121.834 55.604 122.784 53.739 123.925 51.983 125.242 50.357 126.722 48.876 128.349 47.559 130.105 46.419 131.97 45.468 133.925 44.718 135.947 44.176 138.014 43.849 140.105 43.739 142.196 43.849 144.263 44.176 146.285 44.718 148.24 45.468 150.105 46.419 151.861 47.559 153.488 48.876 154.968 50.357 156.285 51.983 157.426 53.739 158.376 55.604 159.126 57.559 159.668 59.581 159.995 61.649"/></g></svg>
