<svg xmlns="http://www.w3.org/2000/svg" width="297mm" height="210mm" viewBox="0 0 297 210"><g id="_tag_5_"><g id="_tag_6_"><polygon id="_130435848" fill="none" stroke="#000" stroke-width=".1" points="93.352 73.897 106.014 79.594 115.529 78.843 181.797 71.46 185.92 70.571 189.095 68.708 192.833 66.524 198.276 63.575 204.418 60.609 210.065 58.138 215.586 56.406 220.756 54.789 230.269 52.019 247.004 50.487 246.818 54.591 240.112 56.575 231.728 57.687 225.164 58.858 217.903 61.129 209.885 64.169 201.899 67.858 193.476 72.929 187.052 77.914 183.946 80.105 179.814 81.001 107.448 88.915 104.412 88.984 101.027 88.306 97.756 87.448 94.56 86.284 90.725 82.674"/><polygon id="_130435744" fill="none" stroke="#000" stroke-width=".1" points="252.989 48.538 272.562 48.269 275.129 50.162 272.11 53.743 262.359 55.891 255.772 56.362 241.137 56.901 233.6 53.539 229.28 50.413"/><polygon id="_130927408" fill="none" stroke="#000" stroke-width=".1" points="115.779 71.014 114.59 72.488 112.306 77.084 109.673 80.615 107.474 81.824 105.982 82.554 100.853 83.931 98.078 84.632 93.68 85.456 90.31 85.105 88.65 84.54 82.637 81.493 76.143 77.731 56.877 66.955 46.323 61.567 33.404 56.047 21.464 52.079 10.158 50.587 11.135 47.51 13.402 44.101 15.49 41.908 19.238 39.84 25.041 38.777 33.935 38.397 44.453 38.752 55.425 39.455 107.209 40.484 138.96 40.362 223.469 38.774 245.468 38.654 259.619 38.709 265.374 38.896 270.601 40.075 275.878 42.218 280.547 45.145 283.202 47.996 285.158 52.138 284.042 54.055 254.977 53.294 226.906 53.616 206.028 54.38 191.251 55.435 175.316 56.874 159.688 59.378 142.455 62.941 129.337 65.911 121.501 68.172 117.75 69.697"/><polygon id="center_00" cx="138.96" cy="40.362" fill="none" stroke="#000" stroke-width=".1" points="156.377 40.362 156.282 42.182 155.997 43.983 155.525 45.744 154.872 47.446 154.044 49.071 153.051 50.6 151.904 52.016 150.615 53.306 149.198 54.453 147.669 55.446 146.044 56.273 144.342 56.927 142.581 57.399 140.781 57.684 138.96 57.779 137.139 57.684 135.339 57.399 133.578 56.927 131.876 56.273 130.251 55.446 128.722 54.453 127.305 53.306 126.016 52.016 124.869 50.6 123.876 49.071 123.048 47.446 122.395 45.744 121.923 43.983 121.638 42.182 121.543 40.362 121.638 38.541 121.923 36.74 122.395 34.979 123.048 33.277 123.876 31.653 124.869 30.124 126.016 28.707 127.305 27.418 128.722 26.271 130.251 25.278 131.876 24.45 133.578 23.797 135.339 23.325 137.139 23.04 138.96 22.944 140.781 23.04 142.581 23.325 144.342 23.797 146.044 24.45 147.669 25.278 149.198 26.271 150.615 27.418 151.904 28.707 153.051 30.124 154.044 31.653 154.872 33.277 155.525 34.979 155.997 36.74 156.282 38.541"/></g><g id="_tag_7_"><polygon id="path159" fill="none" stroke="#000" stroke-width=".1" points="129.379 102.846 128.702 101.946 127.986 101.09 127.23 100.277 126.436 99.507 125.605 98.778 124.738 98.09 123.836 97.442 122.9 96.832 122.627 96.507 122.538 96.117 122.616 95.695 122.943 95.391 125.87 93.76 128.939 92.516 132.113 91.661 135.357 91.194 138.634 91.117 141.909 91.429 145.146 92.131 148.308 93.224 148.649 93.494 148.814 93.867 148.777 94.315 148.574 94.672 147.759 95.427 146.979 96.216 146.239 97.039 145.539 97.896 144.883 98.788 144.273 99.714 143.712 100.675 143.201 101.671"/><g id="path171_1"><polyline id="path171___0" fill="none" stroke="#000" stroke-width=".1" points="142.161 101.76 130.967 102.711 131.011 103.118 131.232 103.642 131.83 104.012 132.326 104.05 133.115 103.968 134.23 103.863 135.55 103.744 136.953 103.622 138.319 103.505 139.526 103.403 140.453 103.325 140.979 103.282 141.437 103.189 141.973 102.774 142.152 102.259 142.148 101.827" class="fil0 str0"/><polygon id="path171___1" fill="none" stroke="#000" stroke-width=".1" points="142.161 101.76" class="fil0 str0"/></g><polygon id="path1045" fill="none" stroke="#000" stroke-width=".1" points="129.353 72.549 130.262 72.539 131.088 72.455 132.027 72.339 132.977 72.204 133.838 72.065 134.509 71.936 135.011 71.737 134.842 71.335 134.272 71.197 133.876 71.132 133.428 71.068 132.967 71.012 132.531 70.975 131.892 70.994 131.329 71.16 130.608 71.46 129.939 71.781 129.53 72.01 129.213 72.294"/><polygon id="path1073" fill="none" stroke="#000" stroke-width=".1" points="124.66 83.447 120.726 83.922 117.753 84.306 115.606 84.611 114.153 84.849 113.258 85.033 112.789 85.175 113.537 93.502 113.758 93.867 114.17 93.972 120.221 93.281 121.285 92.574 122.135 92.031 123.005 91.515 123.892 91.027 124.796 90.567 125.714 90.138 126.646 89.738 127.588 89.371 127.51 88.678 127.427 87.948 127.327 87.083 127.22 86.173 127.117 85.309 127.027 84.581 126.959 84.08 126.689 83.557 126.152 83.347 125.444 83.346"/><polygon id="path1085" fill="none" stroke="#000" stroke-width=".1" points="148.708 90.037 155.117 89.345 155.485 89.15 155.594 88.762 154.649 80.647 154.435 80.281 142.324 81.549 141.837 81.556 141.421 81.614 140.796 81.878 140.45 82.331 140.38 82.965 140.444 83.441 140.529 84.133 140.627 84.956 140.727 85.823 140.821 86.648 140.899 87.344 140.953 87.825 141.983 88.141 142.98 88.312 143.964 88.517 144.936 88.757 145.896 89.029 146.844 89.334 147.781 89.67"/><polygon id="path1033" fill="none" stroke="#000" stroke-width=".1" points="111.388 77.26 111.861 76.622 111.388 77.26 111.49 76.867 119.626 75.066 126.077 72.931 126.493 72.763 126.852 72.535 127.143 72.24 127.356 71.871 127.529 71.413 127.632 71.023 127.928 70.729 135.866 69.79 136.276 69.885 136.523 70.244 136.729 70.598 136.981 70.936 137.319 71.196 137.701 71.38 138.114 71.495 144.872 72.097 152.783 71.849 153.231 72.045 153.665 75.594 153.548 76.023 153.16 76.501 152.342 76.836 151.591 76.944 150.479 77.096 149.134 77.27 147.683 77.442 146.254 77.589 144.977 77.688 143.979 77.716 143.387 77.649 142.805 77.308 142.326 76.89 141.768 76.454 141.402 76.249 140.948 76.062 140.46 75.938 139.9 75.892 139.278 75.914 138.606 75.999 137.893 76.137 137.151 76.321 136.39 76.545 135.622 76.799 134.939 77.029 134.407 77.192 133.993 77.302 133.403 77.411 132.923 77.461 132.274 77.54 131.799 77.602 131.206 77.628 130.783 77.613 130.233 77.572 129.522 77.497 128.707 77.42 127.91 77.371 127.143 77.356 126.416 77.38 125.738 77.451 125.121 77.572 124.574 77.75 124.109 77.991 123.723 78.283 123.423 78.568 122.987 79.112 122.612 79.619 122.112 80.081 121.543 80.285 120.559 80.49 119.287 80.688 117.858 80.871 116.401 81.032 115.047 81.163 113.926 81.256 113.166 81.303 112.676 81.291 112.017 81.023 111.692 80.618 111.527 79.751 111.486 79.235 111.454 78.732 111.428 78.266 111.41 77.862 111.39 77.335"/></g></g></svg>