<svg xmlns="http://www.w3.org/2000/svg" width="297mm" height="210mm" viewBox="0 0 297 210"><g id="_tag_15_"><g id="_tag_16_"><polygon id="_208184584" cx="172.99" cy="92.413" fill="none" stroke="#000" stroke-width=".1" points="176.292 92.413 176.274 92.758 176.219 93.099 176.13 93.433 176.006 93.756 175.849 94.064 175.661 94.354 175.444 94.622 175.199 94.867 174.931 95.084 174.641 95.272 174.333 95.429 174.01 95.553 173.676 95.642 173.335 95.697 172.99 95.715 172.645 95.697 172.304 95.642 171.97 95.553 171.647 95.429 171.339 95.272 171.049 95.084 170.781 94.867 170.536 94.622 170.319 94.354 170.131 94.064 169.974 93.756 169.85 93.433 169.761 93.099 169.706 92.758 169.688 92.413 169.706 92.068 169.761 91.727 169.85 91.393 169.974 91.07 170.131 90.762 170.319 90.472 170.536 90.204 170.781 89.959 171.049 89.742 171.339 89.554 171.647 89.397 171.97 89.273 172.304 89.184 172.645 89.129 172.99 89.111 173.335 89.129 173.676 89.184 174.01 89.273 174.333 89.397 174.641 89.554 174.931 89.742 175.199 89.959 175.444 90.204 175.661 90.472 175.849 90.762 176.006 91.07 176.13 91.393 176.219 91.727 176.274 92.068"/><polygon id="_206469752_1" fill="none" stroke="#000" stroke-width=".1" points="97.197 89.429 90.728 82.621 85.316 87.764 94.256 97.173 94.298 97.191 96.101 98.816 98.054 100.266 100.144 101.527 102.358 102.587 104.684 103.433 107.109 104.053 109.621 104.435 112.208 104.564 112.208 104.564 112.625 104.561 113.04 104.551 113.454 104.534 113.866 104.511 114.276 104.481 114.685 104.445 115.091 104.402 115.496 104.353 115.497 104.353 115.517 104.351 115.58 104.342 115.642 104.334 115.705 104.325 115.767 104.317 115.83 104.308 115.892 104.299 115.954 104.29 116.017 104.28 177.56 95.615 177.566 95.61 179.998 95.214 182.384 94.688 184.72 94.035 187.002 93.259 189.227 92.365 191.39 91.355 193.487 90.235 195.516 89.007 195.518 89.007 197.697 87.585 212.151 78.148 224.204 70.28 226.387 69.089 230.135 67.857 232.909 67.508 253.321 65.536 253.321 54.828 219.805 54.828 222.871 63.287 216.341 66.496 208.429 71.662 206.129 73.164 206.125 73.165 198.214 78.331 189.925 83.743 188.64 84.447 187.324 85.1 185.979 85.701 184.607 86.25 183.208 86.745 181.784 87.185 180.336 87.567 178.865 87.892 113.981 97.028 113.762 97.048 113.542 97.065 113.321 97.08 113.1 97.093 112.878 97.102 112.655 97.109 112.432 97.113 112.208 97.115 112.208 97.115 110.385 97.023 108.614 96.755 106.904 96.32 105.264 95.725 103.703 94.98 102.228 94.094 100.849 93.075 99.576 91.933 97.196 89.429" class="fil1 str0"/><polygon id="_206469896" fill="none" stroke="#000" stroke-width=".1" points="264.202 59.877 250.535 59.877 250.535 62.95 252 66.286 253.101 67.63 253.547 68.022 254.062 68.076 261.305 68.076 262.111 67.924 262.718 67.428 263.687 66.286 264.202 64.957"/><polygon id="_206469848" fill="none" stroke="#000" stroke-width=".1" points="47.217 65.148 78.57 56.146 74.54 83.478 59.463 80.008 56.473 78.494 54.918 77.564 53.206 75.935 51.273 73.338"/><polygon id="_206469824" fill="none" stroke="#000" stroke-width=".1" points="21.88 52.877 21.277 52.029 20.988 50.685 21.496 48.874 22.874 47.092 24.736 44.743 26.798 43.629 28.838 43.422 33.47 43.385 44.26 44.155 56.106 45.528 68.511 47.278 82.307 48.736 102.71 49.986 122.535 50.453 135.29 50 163.821 48.21 187.609 46.533 205.668 45.631 223.629 44.617 234.741 45.02 243.787 46 249.982 47.093 254.648 48.363 259.649 50.345 263.538 52.176 268.901 55.814 270.217 57.894 270.988 60.821 270.235 62.008 268.83 62.206 266.639 62.051 262.859 61.751 248.08 62.312 239.565 62.999 230.269 63.846 220.358 65.088 206.245 67.442 192.643 70.154 181.017 72.805 175.358 74.261 165.507 77.577 157.02 81.1 147.281 85.12 134.868 88.74 122.107 91.494 110.63 92.254 102.607 92.169 95.85 91.263 89.393 89.707 83.187 87.875 79.989 86.619 76.44 84.974 72.25 82.858 69.073 80.628 65.134 78.07 59.677 74.127 53.87 69.465 47.217 65.148 39.347 60.658 31.058 56.453 22.767 53.511"/></g><polygon id="center_00" cx="128.912" cy="50.227" fill="none" stroke="#000" stroke-width=".1" points="139.336 50.227 139.279 51.316 139.109 52.394 138.826 53.448 138.435 54.466 137.94 55.439 137.345 56.354 136.659 57.202 135.887 57.973 135.039 58.66 134.124 59.254 133.152 59.75 132.133 60.141 131.079 60.423 130.002 60.594 128.912 60.651 127.822 60.594 126.745 60.423 125.691 60.141 124.672 59.75 123.7 59.254 122.785 58.66 121.937 57.973 121.165 57.202 120.479 56.354 119.884 55.439 119.389 54.466 118.998 53.448 118.715 52.394 118.545 51.316 118.488 50.227 118.545 49.137 118.715 48.059 118.998 47.005 119.389 45.987 119.884 45.014 120.479 44.099 121.165 43.251 121.937 42.48 122.785 41.793 123.7 41.199 124.672 40.703 125.691 40.312 126.745 40.03 127.822 39.859 128.912 39.802 130.002 39.859 131.079 40.03 132.133 40.312 133.152 40.703 134.124 41.199 135.039 41.793 135.887 42.48 136.659 43.251 137.345 44.099 137.94 45.014 138.435 45.987 138.826 47.005 139.109 48.059 139.279 49.137"/><g id="_tag_17_"><polygon id="path159" fill="none" stroke="#000" stroke-width=".1" points="130.805 114.91 130.007 114.25 129.177 113.63 128.315 113.046 127.424 112.502 127.158 112.205 127.066 111.842 127.127 111.445 127.425 111.15 130.12 109.546 132.961 108.299 135.91 107.413 138.934 106.888 142 106.729 145.074 106.934 148.124 107.504 151.113 108.442 151.439 108.686 151.604 109.032 151.581 109.452 151.4 109.79 150.658 110.52 149.95 111.279 149.278 112.07 148.646 112.891 148.055 113.743 147.509 114.626 147.01 115.542 146.558 116.486 133.65 117.957 132.991 117.133 132.298 116.351 131.569 115.611"/><polygon id="path1045" fill="none" stroke="#000" stroke-width=".1" points="136.197 89.174 136.999 89.021 137.624 88.883 138.089 88.683 137.92 88.311 137.383 88.196 137.011 88.147 136.589 88.099 136.156 88.059 135.747 88.036 135.149 88.07 134.626 88.241 133.959 88.541 133.342 88.86 132.965 89.085 132.676 89.359 133.665 89.561 134.436 89.46 135.312 89.326"/><polygon id="path1073" fill="none" stroke="#000" stroke-width=".1" points="118.912 101.516 118.08 101.713 117.645 101.86 118.568 109.634 118.786 109.969 119.174 110.057 124.82 109.249 125.797 108.558 126.578 108.026 127.379 107.521 128.197 107.039 129.03 106.586 129.879 106.159 130.74 105.76 131.613 105.39 131.52 104.743 131.423 104.063 131.306 103.256 131.182 102.406 131.063 101.601 130.958 100.922 130.882 100.455 130.614 99.972 130.107 99.789 129.444 99.807 128.713 99.923 125.042 100.473 122.269 100.911 120.267 101.254"/><polygon id="path1085" fill="none" stroke="#000" stroke-width=".1" points="156.712 96.497 156.502 96.161 145.199 97.673 144.742 97.692 144.355 97.758 143.776 98.021 143.465 98.456 143.416 99.05 143.489 99.494 143.587 100.14 143.701 100.908 143.818 101.717 143.927 102.487 144.019 103.136 144.083 103.585 145.055 103.853 145.994 103.987 146.92 104.153 147.836 104.35 148.743 104.579 149.638 104.84 150.525 105.129 151.402 105.449 157.384 104.629 157.723 104.436 157.815 104.07"/><polygon id="path1033" fill="none" stroke="#000" stroke-width=".1" points="123.774 92.211 129.757 90.041 130.142 89.871 130.472 89.648 130.736 89.364 130.926 89.013 131.075 88.58 131.162 88.212 131.431 87.928 138.837 86.837 139.224 86.914 139.464 87.245 139.666 87.57 139.911 87.88 140.235 88.114 140.598 88.276 140.988 88.372 147.33 88.755 154.73 88.311 155.154 88.482 155.656 91.794 155.558 92.198 155.207 92.656 154.451 92.991 153.75 93.113 152.713 93.286 151.459 93.485 150.105 93.684 148.772 93.86 147.579 93.988 146.645 94.04 146.089 93.993 145.535 93.689 145.076 93.311 144.542 92.917 144.193 92.735 143.763 92.573 143.303 92.47 142.777 92.441 142.196 92.478 141.569 92.575 140.905 92.724 140.215 92.917 139.509 93.146 138.797 93.405 138.163 93.638 137.67 93.805 137.285 93.919 136.736 94.037 136.287 94.097 135.681 94.189 135.239 94.26 134.685 94.3 134.288 94.298 133.772 94.273 133.104 94.222 132.339 94.172 131.592 94.148 130.874 94.154 130.194 94.197 129.561 94.281 128.986 94.41 128.48 94.592 128.051 94.829 127.696 95.112 127.423 95.388 127.03 95.908 126.692 96.394 126.236 96.841 125.71 97.045 124.794 97.264 123.608 97.483 122.275 97.694 120.916 97.884 119.652 98.043 118.604 98.159 117.894 98.223 117.435 98.226 116.811 97.992 116.495 97.622 116.319 96.815 116.266 96.333 116.223 95.862 116.186 95.428 116.158 95.049 116.125 94.556 116.546 93.876 116.121 94.486 116.206 94.116"/></g></g></svg>
