<svg xmlns="http://www.w3.org/2000/svg" width="297mm" height="210mm" viewBox="0 0 297 210"><g id="Ebene_x0020_1"><g id="_132527576"><polygon id="_133931640" fill="none" stroke="#000" stroke-width=".1" points="-13.532 105.749 31.501 115.971 33.333 148.336 29.787 147.793 25.665 146.968 21.17 145.937 16.506 144.778 11.874 143.567 7.478 142.383 3.52 141.303 .204 140.404 .204 140.404 -.117 140.285 -.472 140.097 -.852 139.851 -1.253 139.555 -1.667 139.22 -2.087 138.857 -2.507 138.474 -2.92 138.083 -2.92 138.083 -3.162 137.848 -3.4 137.618 -3.63 137.392 -3.85 137.173 -4.059 136.962 -4.254 136.761 -4.432 136.571 -4.593 136.393 -7.501 133.086 -7.992 132.497 -8.442 131.898 -8.85 131.291 -9.219 130.681 -9.548 130.071 -9.837 129.467 -10.088 128.87 -10.302 128.286 -15.67 112.385 -15.847 111.493 -15.86 110.446 -15.727 109.33 -15.468 108.231 -15.1 107.237 -14.642 106.434 -14.114 105.909 -13.532 105.749"/><polygon id="_133846280" fill="none" stroke="#000" stroke-width=".1" points=".255 98.144 9.408 100.119 18.485 101.929 27.525 103.546 36.566 104.94 45.649 106.083 54.811 106.947 64.093 107.501 73.533 107.717 73.533 107.717 89.183 107.518 103.886 106.863 117.959 105.86 131.717 104.617 145.476 103.239 159.552 101.835 174.26 100.513 189.918 99.379 189.918 99.379 196.39 99.08 203.39 98.99 210.708 99.186 218.133 99.741 225.455 100.732 232.462 102.233 238.945 104.319 244.693 107.065 244.693 107.065 247.354 108.974 249.696 111.35 251.672 114.081 253.234 117.053 254.336 120.154 254.931 123.273 254.972 126.295 254.413 129.11 254.413 129.11 253.609 130.671 252.456 131.691 251.011 132.263 249.33 132.482 247.472 132.444 245.492 132.243 243.449 131.974 241.398 131.731 241.398 131.731 237.985 131.33 234.668 130.856 231.246 130.378 227.522 129.965 223.295 129.686 218.367 129.611 212.538 129.808 205.61 130.346 205.61 130.346 200.21 131.014 194.912 131.955 189.716 133.164 184.621 134.635 179.626 136.363 174.731 138.34 169.937 140.562 165.241 143.022 165.241 143.022 155.44 148.939 146.736 154.918 138.844 160.68 131.48 165.948 124.358 170.446 117.195 173.894 109.706 176.016 101.605 176.534 101.605 176.534 87.82 175.323 74.324 172.956 61.148 169.487 48.324 164.972 35.882 159.462 23.854 153.014 12.271 145.679 1.164 137.514 1.164 137.514 -1.5 135.128 -4.087 132.271 -6.534 129.048 -8.778 125.564 -10.755 121.922 -12.403 118.228 -13.659 114.586 -14.46 111.102 -14.46 111.102 -14.604 108.701 -14.267 106.153 -13.405 103.643 -11.977 101.356 -9.939 99.477 -7.25 98.192 -3.866 97.686 .255 98.144"/></g><circle id="center_00" cx="101.477" cy="107" r="13.6" fill="none" stroke="#000" stroke-width=".1"/></g></svg>
