<svg xmlns="http://www.w3.org/2000/svg" width="297mm" height="210mm" viewBox="0 0 297 210"><g id="_tag_44_"><polygon id="simplify_34" fill="none" stroke="#000" stroke-width=".1" points="43.1 111.751 41.164 106.881 35.048 101.457 4.913 96.756 2.484 103.52 1.846 104.986 1.863 107.565 2.537 110.658 4.071 112.561 5.224 114.333 8.911 114.299 13.836 113.48 18.251 111.718 22.552 110.971 28.749 112.153 31.218 112.433 31.2 110.804 31.257 109.322"/><polygon id="simplify_35" fill="none" stroke="#000" stroke-width=".1" points="72.731 112.172 61.343 104.906 61.343 104.906 45.509 94.803 34.12 87.536 30.355 93.437 41.743 100.704 57.578 110.807 57.578 110.808 80.421 125.383 84.653 127.446 89.891 128.525 94.479 128.641 94.48 128.641 94.934 128.599 129.587 125.367 143.037 124.113 143.037 124.113 165.005 122.064 169.54 121.334 174.327 120.038 178.007 118.199 194.733 108.981 194.733 108.981 208.122 101.602 213.574 99.499 220.527 98.27 226.355 98.061 214.115 92.751 204.211 95.764 191.354 102.851 191.354 102.851 174.752 112.001 172.349 113.246 167.843 114.562 164.462 115.084 142.698 117.113 129.247 118.368 129.247 118.368 116.138 119.59 107.28 120.417 97.095 121.366 94.106 121.645 93.829 121.671 93.829 121.671 90.117 121.771 86.532 120.848 83.896 119.296"/><g id="_tag_45_"><polygon id="_138335528" fill="none" stroke="#000" stroke-width=".1" points="142.015 113.659 131.54 114.666 129.324 113.991 127.387 112.545 126.193 112.091 119.676 112.668 118.708 113.498 117.884 114.629 116.45 115.558 114.507 116.454 104.717 117.246 103.738 117.917 103.767 121.374 104.652 122.599 105.843 123.027 113.454 122.339 114.526 121.545 115.655 120.626 117.307 120.151 130.791 118.809 132.245 119.019 133.855 120.289 135.201 120.372 142.457 119.751 143.407 119.275 143.51 118.307 143.017 114.21"/><polygon id="_135642912" fill="none" stroke="#000" stroke-width=".1" points="142.294 122.347 134.279 122.933 133.409 123.242 132.577 124.594 132.546 126.033 132.786 127.661 133.311 129.265 134.658 130.343 137.506 131.344 141.798 131.198 143.267 130.693 144.02 129.477 143.955 124.73 143.201 123.124"/><polygon id="_20398280" fill="none" stroke="#000" stroke-width=".1" points="105.81 125.829 113.988 125.165 115.24 125.808 115.751 126.765 115.998 128.184 116.005 129.829 115.727 131.494 114.557 132.762 111.892 134.179 107.626 134.679 106.098 134.4 105.171 133.311 104.523 128.608 105.027 126.908"/><polygon id="_138302832" fill="none" stroke="#000" stroke-width=".1" points="129.818 134.727 120.677 135.557 121.245 141.817 121.776 142.288 129.831 141.557 130.374 140.855"/><polygon id="_137123800" fill="none" stroke="#000" stroke-width=".1" points="131.893 131.821 129.14 131.493 126.141 131.549 123.422 131.801 120.813 132.248 118.164 133.135 115.925 134.349 116.072 135.975 134.1 134.339 133.933 132.498"/></g><polygon id="simplify_36" fill="none" stroke="#000" stroke-width=".1" points="273.361 103.422 272.412 102.077 265.826 96.935 210.485 95.19 233.627 103.245 235.25 104.406 237.491 104.945 268.276 105.154 270.918 103.954"/><polygon id="simplify_37" fill="none" stroke="#000" stroke-width=".1" points="249.088 82.451 233.881 81.428 215.309 80.892 193.367 80.523 174.708 80.822 147.237 82.541 128.175 83.193 115.598 83.074 109.683 82.24 98.116 79.775 78.264 76.316 67.822 75.287 58.006 74.948 45.507 75.352 34.268 76.537 26.252 77.788 15.305 80.239 6.66 83.706 2.852 85.545 .114 88.283 -2.127 92.674 -2.333 95.481 -1.973 99.438 -.523 101.843 2.484 103.52 9.021 100.533 16.37 101.587 24.37 103.598 32.938 106.9 43.215 112.561 50.554 116.335 56.208 119.187 61.992 121.177 66.858 122.135 72.07 122.288 80.242 121.817 88.58 119.992 99.339 116.82 110.363 112.635 123.62 107.634 134.687 104.262 145.349 101.483 157.769 98.924 167.732 97.499 181.57 96.276 195.177 95.813 207.648 95.675 221.914 96.598 235.27 97.663 247.187 99.427 259.7 102.328 267.044 104.61 270.683 105.851 272.461 106.334 274.853 105.802 277.004 103.458 277.607 99.831 276.584 95.606 274.528 91.862 270.345 88.133 264.019 85.18 255.649 83.199"/><polygon id="center_00" cx="128.557" cy="83.18" fill="none" stroke="#000" stroke-width=".1" points="173.557 83.18 173.31 87.884 172.574 92.536 171.355 97.086 169.667 101.483 167.528 105.68 164.963 109.631 161.999 113.291 158.668 116.622 155.007 119.586 151.057 122.151 146.86 124.29 142.463 125.978 137.913 127.197 133.261 127.934 128.557 128.18 123.853 127.934 119.201 127.197 114.651 125.978 110.254 124.29 106.057 122.151 102.107 119.586 98.446 116.622 95.115 113.291 92.151 109.631 89.586 105.68 87.447 101.483 85.759 97.086 84.54 92.536 83.804 87.884 83.557 83.18 83.804 78.477 84.54 73.824 85.759 69.275 87.447 64.877 89.586 60.68 92.151 56.73 95.115 53.069 98.446 49.739 102.107 46.775 106.057 44.209 110.254 42.071 114.651 40.383 119.201 39.164 123.853 38.427 128.557 38.18 133.261 38.427 137.913 39.164 142.463 40.383 146.86 42.071 151.057 44.209 155.007 46.775 158.668 49.739 161.999 53.069 164.963 56.73 167.528 60.68 169.667 64.877 171.355 69.275 172.574 73.824 173.31 78.477"/><polyline id="simplify_SVG__000031" fill="none" stroke="#000" stroke-width=".1" points="13.067 86.213 34.12 87.536 52.306 90.139 66.326 93.025 80.671 93.784"/></g></svg>
