<svg xmlns="http://www.w3.org/2000/svg" width="297mm" height="210mm" viewBox="0 0 297 210"><g id="_tag_14_"><polygon id="simplify_2" fill="none" stroke="#000" stroke-width=".1" points="108.359 79.384 96.971 72.118 96.971 72.118 81.137 62.015 69.749 54.748 65.983 60.65 77.372 67.916 93.206 78.019 93.206 78.02 116.05 92.595 120.281 94.658 125.519 95.737 130.107 95.853 130.108 95.853 130.562 95.811 165.215 92.579 178.665 91.325 178.665 91.325 200.633 89.276 205.168 88.546 209.955 87.25 213.635 85.411 230.361 76.193 230.361 76.194 243.75 68.814 249.202 66.711 256.155 65.482 261.983 65.273 249.743 59.963 239.839 62.976 226.982 70.063 226.982 70.063 210.38 79.213 207.977 80.458 203.471 81.774 200.09 82.296 178.326 84.325 164.875 85.58 164.875 85.58 151.766 86.802 142.908 87.629 132.723 88.578 129.734 88.857 129.457 88.883 129.457 88.883 125.745 88.983 122.161 88.06 119.524 86.508"/><g id="_tag_15_"><polygon id="_137614664" fill="none" stroke="#000" stroke-width=".1" points="177.643 80.871 167.168 81.878 164.952 81.203 163.015 79.757 161.821 79.303 155.304 79.88 154.336 80.71 153.512 81.841 152.078 82.77 150.135 83.666 140.345 84.459 139.366 85.129 139.395 88.586 140.28 89.811 141.471 90.239 149.083 89.551 150.154 88.757 151.283 87.838 152.935 87.363 166.42 86.021 167.873 86.231 169.483 87.501 170.829 87.584 178.086 86.963 179.035 86.487 179.138 85.519 178.645 81.422"/><polygon id="_137808888" fill="none" stroke="#000" stroke-width=".1" points="177.922 89.559 169.907 90.145 169.037 90.454 168.206 91.806 168.174 93.245 168.414 94.873 168.939 96.477 170.286 97.555 173.134 98.556 177.426 98.41 178.895 97.905 179.648 96.689 179.583 91.942 178.829 90.336"/><polygon id="_137255408" fill="none" stroke="#000" stroke-width=".1" points="141.438 93.041 149.616 92.377 150.868 93.02 151.379 93.977 151.626 95.396 151.633 97.041 151.355 98.706 150.185 99.974 147.52 101.391 143.254 101.891 141.726 101.612 140.799 100.524 140.151 95.82 140.655 94.12"/><polygon id="_137147952" fill="none" stroke="#000" stroke-width=".1" points="165.446 101.939 156.305 102.769 156.873 109.029 157.405 109.5 165.459 108.769 166.002 108.067"/><polygon id="_136856320" fill="none" stroke="#000" stroke-width=".1" points="167.521 99.033 164.768 98.705 161.769 98.761 159.05 99.013 156.441 99.46 153.792 100.347 151.553 101.561 151.7 103.187 169.728 101.552 169.561 99.71"/></g><polygon id="simplify_3" fill="none" stroke="#000" stroke-width=".1" points="309.237 69.468 308.289 68.123 301.703 62.981 243.842 59.316 259.664 65.811 271.127 70.452 273.367 70.991 283.033 70 294.263 68.537 302.492 69.524 306.794 70"/><polygon id="simplify_4" fill="none" stroke="#000" stroke-width=".1" points="283.314 48.281 270.408 47.414 249.679 46.452 228.528 46.372 208.647 46.541 187.071 47.106 166.931 47.122 154.425 46.733 146.21 46.247 132.749 44.938 119.233 42.255 102.729 41.03 88.433 40.426 75.57 39.945 63.139 40.017 53.486 40.285 44.553 41.936 38.66 44.074 34.196 47.917 32.386 50.78 31.534 55.589 32.325 60.131 34.062 63.56 37.07 64.262 43.247 64.717 50.596 65.846 62.558 70.434 78.24 77.899 84.78 80.658 91.729 84.516 96.42 86.547 101.646 87.481 106.484 87.49 116.121 86.452 123.381 85.349 134.356 82.287 142.504 79.048 158.493 73.419 169.129 70.442 178.352 67.972 196.956 64.74 214.325 62.987 232.638 62.207 249.424 61.867 269.64 62.49 283.426 63.316 295.795 65.192 303.93 67.341 308.289 68.123 310.858 67.913 313.321 65.896 314.023 64.053 313.003 59.721 310.882 56.466 308.251 53.774 304.715 51.663 298.245 50.226 289.947 49.095"/><polygon id="center_00" cx="164.023" cy="47.032" fill="none" stroke="#000" stroke-width=".1" points="209.023 47.032 208.776 51.736 208.04 56.388 206.821 60.938 205.133 65.335 202.994 69.532 200.429 73.482 197.465 77.143 194.134 80.473 190.473 83.438 186.523 86.003 182.326 88.141 177.929 89.829 173.379 91.048 168.727 91.785 164.023 92.032 159.319 91.785 154.667 91.048 150.117 89.829 145.72 88.141 141.523 86.003 137.573 83.438 133.912 80.473 130.581 77.143 127.617 73.482 125.052 69.532 122.913 65.335 121.225 60.938 120.006 56.388 119.27 51.736 119.023 47.032 119.27 42.328 120.006 37.676 121.225 33.126 122.913 28.729 125.052 24.532 127.617 20.581 130.581 16.921 133.912 13.59 137.573 10.626 141.523 8.061 145.72 5.922 150.117 4.234 154.667 3.015 159.319 2.278 164.023 2.032 168.727 2.278 173.379 3.015 177.929 4.234 182.326 5.922 186.523 8.061 190.473 10.626 194.134 13.59 197.465 16.921 200.429 20.581 202.994 24.532 205.133 28.729 206.821 33.126 208.04 37.676 208.776 42.328"/></g></svg>