<svg xmlns="http://www.w3.org/2000/svg" width="210mm" height="297mm" viewBox="0 0 210 297" xml:space="preserve" style="shape-rendering:geometricPrecision;text-rendering:geometricPrecision;image-rendering:optimizeQuality;fill-rule:evenodd;clip-rule:evenodd"><defs><style type="text/css">.str1{stroke:#000;stroke-width:.0265}.str0,.str2{stroke:#1f1a17;stroke-width:.0762}.str2{stroke:#da2625}.fil0{fill:none}.fil2{fill:#969594}.fil3{fill:#aaa9a9}.fil1{fill:#c2c1c1}</style></defs><g id="Ebene_x0020_1"><metadata id="CorelCorpID_0Corel-Layer"/><rect width="31.891" height="196.692" x="101.475" y="76.762" class="fil0 str0"/><polygon points="118.006 32.287 122.67 32.287 123.464 32.483 121.284 32.483 120.491 33.276 120.491 34.266 120.491 33.276 121.284 32.483 123.464 32.483 123.856 32.683 124.453 35.259 123.067 35.259 124.453 35.259 124.85 35.652 125.246 35.852 123.562 35.852 125.97 35.852 129.601 35.852 129.997 36.249 125.046 36.249 129.997 36.249 130.394 38.227 128.611 38.227 130.394 38.227 130.79 40.999 130.394 41.396 129.404 41.396 117.447 37.261 118.098 34.069" class="fil1 str0"/><polygon points="75.132 25.749 75.332 25.352 75.725 24.96 76.054 24.738 76.518 24.563 116.926 24.563 117.519 24.76 117.915 25.156 118.116 25.553 118.312 26.346 118.703 31.448 118.905 34.069 97.645 63.178 97.317 61.205 96.029 57.738 94.543 53.975 93.574 51.766 92.562 50.113 91.276 48.727 90.504 47.931 89.723 47.409 90.504 47.931 91.276 48.727 76.667 48.727 76.043 48.484 75.468 48.071 75.132 47.537 74.339 37.238 74.339 35.852" class="fil2 str0"/><polyline points="91.789 39.274 92.582 41.65 93.572 42.973 95.154 44.225 95.55 44.225" class="fil0 str0"/><polyline points="83.648 26.346 85.463 26.451 86.79 26.671 87.475 26.968 88.403 27.83 88.996 28.918 89.197 29.911" class="fil0 str0"/><polyline points="116.826 26.542 116.333 27.335 116.333 28.623 116.725 31.495 117.122 34.069" class="fil0 str0"/><polygon points="136.731 78.831 137.306 64.706 137.328 63.385 136.731 49.124 136.709 48.836 136.535 48.13 136.138 47.537 135.791 47.356 135.459 47.255 134.752 47.141 100.089 47.141 99.382 47.255 98.703 47.537 98.306 48.13 98.132 48.836 98.11 49.124 97.513 63.385 97.513 64.174 98.11 78.831 98.132 79.119 98.306 79.825 98.703 80.418 99.382 80.7 100.089 80.814 134.752 80.814 135.459 80.7 135.791 80.598 136.138 80.418 136.535 79.825 136.709 79.119" class="fil3 str1"/><line x1="99.984" x2="134.824" y1="49.124" y2="49.124" class="fil0 str1"/><line x1="134.872" x2="100.082" y1="78.831" y2="78.831" class="fil0 str1"/><rect width="25.946" height="3.169" x="104.447" y="41.993" class="fil3 str0"/><rect width="11.685" height="3.169" x="118.093" y="41.993" class="fil3 str0"/><polygon points="117.323 41.993 129.404 41.993 129.404 39.814 129.108 39.02 128.415 38.031 127.622 37.434 126.436 36.841 124.056 35.852 121.877 34.862 118.909 34.069 115.736 34.069 112.768 34.862 110.588 35.852 108.209 36.841 107.023 37.434 106.23 38.031 105.537 39.02 105.241 39.814 105.241 41.993" class="fil3 str0"/><polygon points="106.23 41.396 113.953 41.396 114.943 41.2 115.54 40.803 115.936 40.21 115.836 37.434 115.523 36.397 114.943 35.455 113.557 35.259 111.378 35.95 107.518 37.635 106.23 38.824 105.637 39.814 105.637 40.999" class="fil0 str0"/><polygon points="128.415 41.396 120.691 41.396 119.702 41.2 119.105 40.803 118.709 40.21 118.809 37.434 119.122 36.397 119.702 35.455 121.088 35.259 123.267 35.95 127.127 37.635 128.415 38.824 129.008 39.814 129.008 40.999" class="fil0 str0"/><polygon points="101.84 45.165 132.969 45.162 133.366 45.558 133.366 46.744 132.969 47.141 101.84 47.141 101.475 46.744 101.475 45.558" class="fil1 str0"/><rect width="31.891" height="1.186" x="101.475" y="45.558" class="fil1 str0"/><rect width="11.685" height="3.169" x="105.063" y="41.993" class="fil3 str0"/><circle id="center_00" cx="96.629" cy="24.563" r="4.13" class="fil0 str2"/><polygon points="82.461 -23.372 111.179 -23.372 111.179 11.488 82.461 11.488" class="fil0 str0"/><polygon points="82.26 14.657 111.38 14.657 111.179 11.488 82.461 11.488" class="fil0 str0"/><polygon points="81.668 18.026 111.776 18.026 111.776 24.563 81.668 24.563" class="fil0 str0"/><polygon points="81.668 18.026 111.776 18.026 111.38 14.657 82.26 14.657" class="fil0 str0"/></g></svg>
