<svg xmlns="http://www.w3.org/2000/svg" width="297mm" height="210mm" viewBox="0 0 297 210"><g id="Ebene_x0020_1"><polygon id="polygon10" fill="none" stroke="#000" stroke-width=".1" points="161.742 72.829 161.742 74.6 130.958 74.6 130.958 72.829"/><polygon id="polygon14" fill="none" stroke="#000" stroke-width=".1" points="163.909 70.849 130.957 71.241 131.156 70.849"/><polygon id="polygon16" fill="none" stroke="#000" stroke-width=".1" points="130.801 71.64 163.864 71.64 164.154 72.829 130.801 72.829 130.336 72.414 130.336 71.994"/><rect id="rect18" width="28.476" height=".21" x="130.759" y="74.6" fill="none" stroke="#000" stroke-width=".1"/><rect id="rect20" width="30.71" height=".586" x="125.019" y="76.792" fill="none" stroke="#000" stroke-width=".1"/><rect id="rect22" width="2.572" height=".789" x="131.358" y="75.999" fill="none" stroke="#000" stroke-width=".1"/><rect id="rect24" width="3.761" height=".789" x="146.6" y="75.993" fill="none" stroke="#000" stroke-width=".1"/><polygon id="polygon26" fill="none" stroke="#000" stroke-width=".1" points="126.507 74.811 126.008 75.203 126.008 76.782 166.07 76.782 166.887 74.811"/><polygon id="polygon28" fill="none" stroke="#000" stroke-width=".1" points="128.593 109.255 128.591 103.714 128.59 102.524 128.198 100.345 127.406 98.365 126.807 97.375 126.016 96.386 125.625 95.595 125.325 94.709 125.125 94.114 125.025 93.423 125.019 77.378 137.69 77.378 148.481 76.782 155.112 75.59 158.672 73.808 161.841 71.927 164.415 69.746 167.184 66.675 169.558 61.923 170.945 57.172 171.833 51.926 172.609 45.841 173.132 41.734 174.001 33.982 174.717 27.792 175.513 20.907 176.906 11.333 177.171 7.497 176.985 4.559 176.005 1.502 174.889 -.361 173.961 -8.656 174.368 -10.807 179.256 -8.057 182.422 -5.833 184.623 -.929 186.229 4.624 187.593 12.117 187.839 17.743 186.385 22.562 184.881 29.561 182.622 46.875 182.497 48.382 181.569 59.553 180.199 63.358 175.904 77.762 168.785 106.073 168.586 107.658 168.487 109.343 168.388 112.01 168.349 137.827 168.312 201.553 168.253 205.955 167.875 238.189 167.089 250.76 167.864 254.122 159.802 258.202 156.301 257.895 140.959 257.901 137.589 255.722 134.027 254.135 130.466 253.346 128.677 252.357 127.986 251.171 127.886 250.377 130.066 250.576 136.405 250.773 130.066 250.576 127.886 250.377 127.492 176.374 128.56 156.249 128.567 118.979"/><polyline id="path30_1" fill="none" stroke="#000" stroke-width=".1" points="153.133 80.837 157.391 84.696 163.627 84.697 169.175 83.106 172.932 74.992 169.175 83.106 169.967 87.857 169.471 93.997 166.602 98.749 166.869 100.012 168.386 106.07"/><polyline id="path32_1" fill="none" stroke="#000" stroke-width=".1" points="135.151 103.711 141.066 103.909 145.222 104.298 148.592 104.496"/><polygon id="polygon34" fill="none" stroke="#000" stroke-width=".1" points="173.949 -8.658 174.832 -.359 173.564 -.003 174.404 1.455 175.661 3.637 176.16 7.872 175.45 14.429 174.913 19.328 173.88 28.048 172.764 38.195 171.857 46.474 170.798 54.787 169.466 60.518 167.443 65.356 164.71 68.834 164.71 56.885 167.515 44.885 170.318 24.299 172.379 9.61 173.564 -.003 172.693 -5.157 174.368 -10.807"/><polyline id="path36_1" fill="none" stroke="#000" stroke-width=".1" points="142.96 251.165 142.96 175.89 140.993 154.077 132.768 154.077"/><line id="line38" x1="121.358" x2="106.508" y1="191.124" y2="192.918" fill="none" stroke="#000" stroke-width=".1"/><line id="line40" x1="124.128" x2="106.507" y1="189.542" y2="191.729" fill="none" stroke="#000" stroke-width=".1"/><polygon id="polygon42" fill="none" stroke="#000" stroke-width=".1" points="122.083 184.604 124.919 184.262 126.307 183.471 126.898 182.68 127.496 181.49 127.704 203.663 127.005 202.178 125.915 200.893 123.935 200.103 122.753 199.905 107.902 199.319 107.702 198.521 121.363 198.715 124.433 199.213 126.114 200.302 124.433 199.213 121.363 198.715 107.702 198.521 106.508 187.838 121.358 186.076 124.328 185.452 125.909 184.461 124.328 185.452 121.358 186.044 106.508 187.838 106.315 186.848"/><polygon id="polygon44" fill="none" stroke="#000" stroke-width=".1" points="121.587 260.091 124.453 258.801 127.526 256.129 129.8 247.882 130.495 248.266 134.056 249.055 137.618 250.642 140.988 252.821 156.031 252.821 159.741 250.542 161.314 274.555 155.346 272.55 138.92 271.148 117.232 271.966 115.846 260.884"/><polygon id="polygon46" fill="none" stroke="#000" stroke-width=".1" points="115.447 261.084 117.041 272.956 117.232 271.966 117.233 273.156 136.984 272.528 154.848 273.74 155.941 273.931 157.167 274.309 158.217 275.12 157.427 274.13 155.446 272.55 138.92 271.148 117.232 271.966 115.846 260.884"/><polygon id="polygon48" fill="none" stroke="#000" stroke-width=".1" points="150.445 274.66 148.971 270.8 141.182 258.087 153.613 257.896 156.031 257.901 161.495 254.544 166.187 252.785 167.177 251.798 167.176 250.608 166.603 249.261 165.824 248.209 165.033 246.82 162.303 241.71 162.17 241.034 162.661 240.535 163.36 240.243 167.12 240.242 167.896 239.815 167.882 238.853 167.955 223.581 168.106 229.75 168.481 237.279 169.383 242.816 170.475 246.12 172.272 249.202 174.955 251.782 179.142 256.037 182.014 260.687 184.096 265.344 184.99 268.597 184.684 273.789 183.489 276.754 180.047 279.394 171.226 268.711 170.236 267.921 168.954 267.33 167.465 267.131 166.083 267.331 164.694 268.023 163.605 269.309 162.915 270.495 162.916 272.774 163.807 274.654 172.957 285.494 169.515 288.394 164.866 288.379 162.127 287.721 158.27 285.348 155.99 283.568 154.297 281.735 153.217 280.2"/><circle id="center_00" cx="167.566" cy="271.782" r="4.5" fill="none" stroke="#000" stroke-width=".1"/><polyline id="path51_1" fill="none" stroke="#000" stroke-width=".1" points="153.017 278.024 154.503 280.595 157.275 283.663 161.136 286.233 163.712 287.717 164.537 287.139 169.85 282.772 166.76 282.773 163.215 281.98 160.743 280.396 158.662 278.221 157.176 275.056 156.576 271.787 157.173 268.317 158.557 265.45 160.932 262.974 163.007 261.784 166.272 260.793 170.041 260.99 173.503 262.374 176.175 264.749 177.761 268.313 178.557 271.678 178.259 275.639 184.497 270.487"/><line id="line53" x1="164.866" x2="171.04" y1="288.379" y2="283.163" fill="none" stroke="#000" stroke-width=".1"/><line id="line55" x1="178.359" x2="184.888" y1="277.22" y2="271.776" fill="none" stroke="#000" stroke-width=".1"/><polyline id="path57_1" fill="none" stroke="#000" stroke-width=".1" points="166.469 253.271 173.895 254.949 177.149 256.31 178.594 258.257 175.667 257.013 178.551 258.216 180.432 259.996 182.159 263.448 183.305 266.335 184.396 269.796"/><rect id="rect59" width="12.665" height="1.783" x="142.178" y="259.083" fill="none" stroke="#000" stroke-width=".1"/><rect id="rect61" width="11.285" height="7.716" x="142.97" y="261.461" fill="none" stroke="#000" stroke-width=".1"/><rect id="rect63" width="2.573" height="4.75" x="142.971" y="264.432" fill="none" stroke="#000" stroke-width=".1"/><rect id="rect65" width="4.952" height="4.749" x="146.133" y="264.43" fill="none" stroke="#000" stroke-width=".1"/><rect id="rect67" width="2.573" height="4.75" x="151.682" y="264.428" fill="none" stroke="#000" stroke-width=".1"/><polygon id="polygon69" fill="none" stroke="#000" stroke-width=".1" points="143.267 269.382 154.255 269.178 153.856 269.378"/><polygon id="polygon73" fill="none" stroke="#000" stroke-width=".1" points="154.843 260.866 154.252 261.457 142.97 261.461 142.178 260.866"/><polygon id="polygon75" fill="none" stroke="#000" stroke-width=".1" points="154.051 258.485 154.052 259.078 143.168 259.078 143.168 258.485"/><polygon id="polygon79" fill="none" stroke="#000" stroke-width=".1" points="155.403 258.087 154.746 258.485 143.168 258.485 142.769 258.092"/></g></svg>